<?xml version="1.0" encoding="UTF-8" standalone="no"?>
<svg
   xmlns:dc="http://purl.org/dc/elements/1.1/"
   xmlns:cc="http://creativecommons.org/ns#"
   xmlns:rdf="http://www.w3.org/1999/02/22-rdf-syntax-ns#"
   xmlns:svg="http://www.w3.org/2000/svg"
   xmlns="http://www.w3.org/2000/svg"
   xmlns:sodipodi="http://sodipodi.sourceforge.net/DTD/sodipodi-0.dtd"
   xmlns:inkscape="http://www.inkscape.org/namespaces/inkscape"
   width="50mm"
   height="70mm"
   viewBox="0 0 50 70"
   version="1.1"
   id="svg8"
   inkscape:version="1.0.1 (3bc2e813f5, 2020-09-07)"
   sodipodi:docname="arch.svg">
  <defs
     id="defs2" />
  <sodipodi:namedview
     id="base"
     pagecolor="#ffffff"
     bordercolor="#666666"
     borderopacity="1.0"
     inkscape:pageopacity="0.0"
     inkscape:pageshadow="2"
     inkscape:zoom="2.8"
     inkscape:cx="76.845629"
     inkscape:cy="143.30512"
     inkscape:document-units="mm"
     inkscape:current-layer="layer1"
     inkscape:document-rotation="0"
     showgrid="false"
     inkscape:window-width="1920"
     inkscape:window-height="1137"
     inkscape:window-x="-8"
     inkscape:window-y="-8"
     inkscape:window-maximized="1" />
  <metadata
     id="metadata5">
    <rdf:RDF>
      <cc:Work
         rdf:about="">
        <dc:format>image/svg+xml</dc:format>
        <dc:type
           rdf:resource="http://purl.org/dc/dcmitype/StillImage" />
        <dc:title></dc:title>
      </cc:Work>
    </rdf:RDF>
  </metadata>
  <g
     inkscape:label="Layer 1"
     inkscape:groupmode="layer"
     id="layer1">
    <path
       style="fill:#000000;stroke-width:0.121047"
       d="m 18.661112,44.696657 c -1.469046,-0.750839 -1.742895,-0.974115 -1.612268,-1.314523 0.03308,-0.08619 0.753112,-0.496231 1.600079,-0.911191 l 1.539942,-0.754474 4.801259,-0.02693 c 4.686836,-0.02628 4.809441,-0.02095 5.144518,0.223773 1.014096,0.74065 1.015143,2.507517 0.0019,3.250755 -0.3297,0.241851 -0.504999,0.251457 -5.144517,0.281907 l -4.80316,0.03153 z m 9.153743,-0.431519 c 0,-0.156442 -0.481652,-0.186016 -3.480114,-0.21369 -3.427482,-0.03163 -3.480115,-0.0284 -3.480115,0.21369 0,0.24209 0.05263,0.245322 3.480115,0.21369 2.998462,-0.02767 3.480114,-0.05725 3.480114,-0.21369 z m 1.955485,-0.01554 c 0.09551,-0.07926 0.162846,-0.378145 0.162846,-0.722776 0,-0.489517 -0.04936,-0.619965 -0.29562,-0.781323 -0.162592,-0.106534 -0.421331,-0.175879 -0.574975,-0.1541 -0.253927,0.03599 -0.282677,0.110057 -0.315848,0.813656 -0.04852,1.029267 0.0067,1.150506 0.480747,1.055693 0.209002,-0.0418 0.453284,-0.136818 0.54285,-0.21115 z m -9.884094,-0.650221 c 0,-0.299593 -0.05664,-0.544714 -0.125869,-0.544714 -0.06923,0 -0.352762,0.115752 -0.630075,0.257226 l -0.504204,0.257226 0.539289,0.282017 c 0.296608,0.155111 0.580142,0.28448 0.630074,0.287488 0.04993,0.003 0.09079,-0.239651 0.09079,-0.539243 z m 7.868086,-0.786809 c 0,-0.236323 -0.08008,-0.24205 -3.359068,-0.240242 -1.847487,9.69e-4 -3.434135,0.0494 -3.525884,0.107515 -0.492376,0.311865 0.08579,0.374822 3.442243,0.374822 3.36201,0 3.442709,-0.0057 3.442709,-0.242095 z m -15.710581,1.558029 c -0.539595,-0.155615 -1.312849,-0.955324 -1.469626,-1.519907 -0.08509,-0.306436 -0.128459,-3.568155 -0.128907,-9.695546 -5.9e-4,-8.07511 0.02291,-9.290228 0.187317,-9.683798 0.198717,-0.475713 0.679245,-1.042549 1.083007,-1.277527 0.176103,-0.102487 2.848766,-0.157391 9.804845,-0.201416 l 9.56275,-0.06052 0.03341,-1.845974 0.03341,-1.845974 h 0.969115 c 0.540111,0 1.142382,0.0724 1.360522,0.16354 0.517371,0.216168 1.130214,0.928607 1.288212,1.497554 0.193569,0.697035 0.174899,18.55187 -0.02008,19.202646 -0.189949,0.633992 -0.868693,1.312737 -1.502686,1.502686 -0.3724,0.111574 -2.797499,0.148404 -9.771677,0.148404 h -9.27635 v 1.876236 1.876236 l -0.877594,-0.01092 c -0.482677,-0.006 -1.056728,-0.06258 -1.27567,-0.125719 z m 1.184884,-2.22379 v -1.392046 h -0.369153 c -0.516009,0 -1.046229,0.303253 -1.262938,0.722323 -0.499096,0.965144 0.150303,2.043515 1.238687,2.056922 l 0.393404,0.0048 z m -1.289669,-2.178854 c 0.374654,-0.15654 1.845999,-0.181572 10.672971,-0.181572 11.354964,0 10.796741,0.03962 11.143781,-0.79096 0.219865,-0.526213 0.217109,-0.828563 -0.01158,-1.270809 -0.268816,-0.519831 -0.758594,-0.722322 -1.747129,-0.722322 h -0.853348 v -7.020754 -7.020754 h -9.439793 -9.439793 l -0.395314,0.353172 -0.395314,0.353172 -0.03273,8.241199 c -0.018,4.532659 -0.01104,8.241199 0.01548,8.241199 0.02651,0 0.243762,-0.08171 0.482769,-0.181571 z m 2.448267,-2.187501 c -0.168022,-0.168023 -0.190218,-0.920852 -0.190218,-6.45183 0,-4.708748 0.03602,-6.297637 0.145257,-6.406871 0.09417,-0.09417 0.583718,-0.145257 1.392046,-0.145257 h 1.246789 v 0.48419 0.48419 h -0.907856 -0.907856 v 3.268283 3.268281 h 1.876236 1.876236 v 0.48419 0.48419 h -1.876236 -1.876236 v 1.876236 1.876236 h 2.784092 2.784092 v -3.268282 -3.268282 h 0.482212 0.482213 l 0.03224,3.23802 0.03224,3.23802 0.450737,0.03738 0.450736,0.03738 0.03345,-1.853092 0.03345,-1.85309 2.163015,-0.03311 c 1.49272,-0.02285 2.214813,0.0099 2.330164,0.105608 0.127983,0.106217 0.167148,0.546509 0.167148,1.879086 v 1.740368 h 0.423666 0.423667 V 34.64187 32.281444 h -2.784092 -2.784092 v -0.48419 -0.484189 h 0.904703 0.904704 l 0.03341,-1.845974 0.03342,-1.845974 0.453928,-0.03757 0.453928,-0.03757 v 1.883542 1.883544 h 1.392046 1.392046 v -2.784096 -2.784093 h -3.268282 -3.268282 v 1.392047 1.392046 h -0.48419 -0.484189 v -1.392046 -1.392047 h -0.907852 -0.907856 v -0.48419 -0.48419 h 4.953045 c 2.724176,0 5.039209,0.03306 5.144518,0.07347 0.171255,0.06572 0.191471,0.749028 0.191471,6.471783 0,6.201929 -0.0072,6.40215 -0.234137,6.523612 -0.153742,0.08228 -2.665382,0.125305 -7.314725,0.125305 -6.275502,0 -7.102217,-0.02163 -7.270806,-0.190216 z M 26.42281,35.610244 v -1.392046 h -1.392046 -1.392046 v 1.392046 1.392046 h 1.392046 1.392046 z m 7.477132,-7.393866 -0.03271,-8.301723 -0.395314,-0.353172 C 33.175343,19.296527 32.956136,19.208311 32.59432,19.208311 h -0.482279 v 8.4128 8.412799 l 0.393404,2.42e-4 c 0.216372,1.04e-4 0.584054,0.102371 0.81707,0.227262 0.233017,0.12489 0.465623,0.233748 0.516903,0.241907 0.05128,0.0082 0.07852,-3.720941 0.06052,-8.286889 z m 2.03374,12.348165 C 35.76437,40.395231 35.743465,39.44036 35.743465,31.87606 c 0,-7.495684 0.02223,-8.530006 0.188434,-8.767296 0.184048,-0.262765 0.24483,-0.269029 2.61048,-0.269029 1.438091,0 2.51716,0.05091 2.656179,0.125306 0.228146,0.1221 0.234138,0.347611 0.234138,8.812256 0,6.59512 -0.03498,8.721928 -0.145257,8.832207 -0.103635,0.103635 -0.86424,0.145257 -2.654398,0.145257 -2.119641,0 -2.538669,-0.02953 -2.699359,-0.190218 z m 4.530634,-8.770448 v -7.992286 l -1.845974,0.03342 -1.845974,0.03342 -0.03757,0.453928 -0.03757,0.453928 h 0.491497 0.491497 v 0.484189 0.48419 h -0.48419 c -0.471539,0 -0.48419,0.01093 -0.48419,0.418575 v 0.418574 l 0.938118,0.03535 0.938118,0.03535 0.03726,0.44871 0.03726,0.448712 -0.945113,0.03548 -0.945115,0.03548 -0.03757,0.453928 -0.03757,0.453928 h 0.491497 0.491497 v 0.48419 0.484189 h -0.48419 c -0.471539,0 -0.48419,0.01093 -0.48419,0.418575 v 0.418574 l 0.938118,0.03535 0.938118,0.03535 0.03726,0.44871 0.03726,0.44871 -0.945113,0.03548 -0.945115,0.03548 -0.03757,0.453928 -0.03757,0.453928 h 0.491497 0.491497 v 0.48419 0.48419 h -0.48419 c -0.471539,0 -0.48419,0.01093 -0.48419,0.418575 v 0.418574 l 0.938118,0.03535 0.938118,0.03535 0.03726,0.448711 0.03726,0.44871 -0.945113,0.03548 -0.945115,0.03548 -0.03757,0.453928 -0.03757,0.453928 h 0.491497 0.491497 v 0.48419 0.48419 h -0.48419 c -0.471539,0 -0.48419,0.01093 -0.48419,0.418574 v 0.418574 l 0.938118,0.03535 0.938118,0.03535 0.03726,0.44871 0.03726,0.44871 -0.945113,0.03548 -0.945115,0.03548 -0.03757,0.453928 -0.03757,0.453928 h 1.883543 1.883543 z"
       id="path875" />
  </g>
</svg>
