<?xml version="1.0" encoding="UTF-8" standalone="no"?>
<svg
   xmlns:dc="http://purl.org/dc/elements/1.1/"
   xmlns:cc="http://creativecommons.org/ns#"
   xmlns:rdf="http://www.w3.org/1999/02/22-rdf-syntax-ns#"
   xmlns:svg="http://www.w3.org/2000/svg"
   xmlns="http://www.w3.org/2000/svg"
   xmlns:sodipodi="http://sodipodi.sourceforge.net/DTD/sodipodi-0.dtd"
   xmlns:inkscape="http://www.inkscape.org/namespaces/inkscape"
   width="40mm"
   height="50mm"
   viewBox="0 0 40 50"
   version="1.1"
   id="svg8"
   inkscape:version="1.0.2 (1.0.2+r75+1)"
   sodipodi:docname="autostrada.svg">
  <defs
     id="defs2" />
  <sodipodi:namedview
     id="base"
     pagecolor="#ffffff"
     bordercolor="#666666"
     borderopacity="1.0"
     inkscape:pageopacity="0.0"
     inkscape:pageshadow="2"
     inkscape:zoom="2.5965685"
     inkscape:cx="43.370983"
     inkscape:cy="93.645552"
     inkscape:document-units="mm"
     inkscape:current-layer="layer1"
     inkscape:document-rotation="0"
     showgrid="false"
     inkscape:window-width="1848"
     inkscape:window-height="1016"
     inkscape:window-x="72"
     inkscape:window-y="27"
     inkscape:window-maximized="1" />
  <metadata
     id="metadata5">
    <rdf:RDF>
      <cc:Work
         rdf:about="">
        <dc:format>image/svg+xml</dc:format>
        <dc:type
           rdf:resource="http://purl.org/dc/dcmitype/StillImage" />
        <dc:title></dc:title>
      </cc:Work>
    </rdf:RDF>
  </metadata>
  <g
     inkscape:label="Layer 1"
     inkscape:groupmode="layer"
     id="layer1">
    <path
       style="fill:#000000;stroke-width:0.216994"
       d="m 1.6896707,49.536251 c -0.260728,-0.10609 -0.578081,-0.387277 -0.70523002,-0.624855 -0.159486,-0.298004 -0.231179,-7.707091 -0.231179,-23.891417 V 1.5605217 L 1.2858827,1.0279006 1.8185037,0.49527956 H 20.2827 38.746896 l 0.53262,0.53262104 0.532622,0.5326211 V 25.09017 c 0,22.842905 -0.01211,23.544598 -0.41477,24.041924 l -0.414769,0.512274 -18.409438,0.04239 C 10.221579,49.710588 1.9562287,49.644718 1.6896707,49.536251 Z M 39.180389,48.9151 c 0.402593,-0.497254 0.414756,-1.195942 0.414756,-23.82493 V 1.7775155 L 39.062523,1.2448944 38.529903,0.71227333 H 20.2827 2.0354977 L 1.5028767,1.2448944 0.97025568,1.7775155 V 25.065927 c 0,25.253379 -0.05492,24.082875 1.14112602,24.319468 0.26748,0.05291 8.6241103,0.084 18.5702893,0.06909 l 18.083963,-0.02711 z M 2.0009767,48.650515 c -0.357921,-0.20847 -0.37974,-1.558319 -0.37974,-23.493826 0,-17.8116245 0.0611,-23.3337515 0.260393,-23.5330418 0.377247,-0.3772475 36.4248933,-0.3772475 36.8021413,0 0.199291,0.1992907 0.260392,5.7221167 0.260392,23.5361908 0,22.790013 -0.0088,23.280484 -0.419722,23.500424 -0.576153,0.308349 -35.9935563,0.298896 -36.5234643,-0.0097 z M 18.980738,35.756767 V 24.581588 h -2.811086 -2.811087 l -0.123768,0.70523 c -0.06807,0.387876 -0.902545,5.148177 -1.854385,10.578446 -0.951839,5.430269 -1.7871513,10.141746 -1.8562493,10.469949 l -0.125633,0.596733 h 4.7911043 4.791104 z m 12.578637,10.903937 c -0.0038,-0.149183 -0.8635,-5.153602 -1.910337,-11.120931 l -1.903336,-10.849688 -2.755029,-0.06073 -2.755029,-0.06073 v 11.18166 11.181663 h 4.665366 c 3.591364,0 4.663753,-0.06244 4.658365,-0.271242 z M 12.252721,23.550868 c -6.72e-4,-0.08951 -0.08884,-0.504511 -0.195934,-0.922224 -0.107098,-0.417713 -0.254885,-1.028008 -0.328415,-1.356211 l -0.13369,-0.596732 h 9.023998 c 8.493451,0 9.017232,0.02232 8.908942,0.379739 -0.152456,0.503172 -0.553141,2.289104 -0.559866,2.495428 -0.0029,0.08951 0.928922,0.162745 2.070758,0.162745 1.873273,0 2.06562,-0.03709 1.969143,-0.379739 -0.0588,-0.208856 -0.170323,-0.721504 -0.247816,-1.139217 -0.07749,-0.417713 -0.18901,-0.930361 -0.247815,-1.139217 -0.0974,-0.345933 0.116536,-0.379739 2.40313,-0.379739 h 2.510051 V 19.807725 18.93975 H 20.608191 3.7911747 v 0.867975 0.867976 h 2.499562 2.499563 l -0.133691,0.596732 c -0.07353,0.328203 -0.221316,0.938498 -0.328414,1.356211 -0.107099,0.417713 -0.195269,0.832714 -0.195935,0.922224 -6.65e-4,0.08951 0.926438,0.162745 2.0602313,0.162745 1.133792,0 2.060896,-0.07324 2.06023,-0.162745 z M 18.980738,10.693987 V 3.3161985 h -0.976472 c -0.53706,0 -0.976472,0.064917 -0.976472,0.1442597 0,0.079343 -0.53706,3.2986819 -1.193466,7.1540878 -0.656406,3.855405 -1.193465,7.110493 -1.193465,7.233528 0,0.138693 0.824599,0.223701 2.169937,0.223701 h 2.169938 z m 6.369817,0.488236 C 24.711124,7.3929689 24.137414,4.0729643 24.075641,3.8044345 23.982301,3.3986865 23.817379,3.3161985 23.099485,3.3161985 h -0.863841 v 7.3777885 7.377788 h 2.138756 2.138755 z"
       id="path26" />
  </g>
</svg>
