<?xml version="1.0" encoding="UTF-8" standalone="no"?>
<svg
   xmlns:dc="http://purl.org/dc/elements/1.1/"
   xmlns:cc="http://creativecommons.org/ns#"
   xmlns:rdf="http://www.w3.org/1999/02/22-rdf-syntax-ns#"
   xmlns:svg="http://www.w3.org/2000/svg"
   xmlns="http://www.w3.org/2000/svg"
   xmlns:sodipodi="http://sodipodi.sourceforge.net/DTD/sodipodi-0.dtd"
   xmlns:inkscape="http://www.inkscape.org/namespaces/inkscape"
   width="40mm"
   height="50mm"
   viewBox="0 0 40 50"
   version="1.1"
   id="svg8"
   inkscape:version="1.0.1 (3bc2e813f5, 2020-09-07)"
   sodipodi:docname="autostrada.svg">
  <defs
     id="defs2" />
  <sodipodi:namedview
     id="base"
     pagecolor="#ffffff"
     bordercolor="#666666"
     borderopacity="1.0"
     inkscape:pageopacity="0.0"
     inkscape:pageshadow="2"
     inkscape:zoom="2.5965685"
     inkscape:cx="43.370983"
     inkscape:cy="93.645552"
     inkscape:document-units="mm"
     inkscape:current-layer="layer1"
     inkscape:document-rotation="0"
     showgrid="false"
     inkscape:window-width="3840"
     inkscape:window-height="2066"
     inkscape:window-x="-11"
     inkscape:window-y="-11"
     inkscape:window-maximized="1" />
  <metadata
     id="metadata5">
    <rdf:RDF>
      <cc:Work
         rdf:about="">
        <dc:format>image/svg+xml</dc:format>
        <dc:type
           rdf:resource="http://purl.org/dc/dcmitype/StillImage" />
        <dc:title />
      </cc:Work>
    </rdf:RDF>
  </metadata>
  <g
     inkscape:label="Layer 1"
     inkscape:groupmode="layer"
     id="layer1">
    <path
       style="fill:#000000;stroke-width:0.235277"
       d="M -0.96083103,58.467817 V 56.051974 H 20.073769 41.10837 v 2.415843 2.415843 H 20.073769 -0.96083103 Z m 1.94764854,0.39278 c 0,-0.156317 -0.08765,-0.205175 -0.19476564,-0.108558 -0.10711816,0.09663 -0.19476405,0.303552 -0.19476405,0.459873 0,0.156316 0.08765,0.205171 0.19476405,0.108556 0.107119,-0.0966 0.19476564,-0.303551 0.19476564,-0.459871 z M 1.6198024,59.274343 C 1.485904,59.1955 1.3763465,58.927507 1.3763465,58.678805 c 0,-0.355376 0.1134107,-0.30467 0.5297101,0.23685 0.2913402,0.378965 0.4065311,0.455461 0.2559787,0.169978 -0.2355394,-0.446625 -0.2347175,-0.558687 0.00592,-0.803233 0.2388495,-0.242751 0.2370223,-0.266265 -0.01253,-0.161259 -0.1606803,0.06761 -0.4893454,0.01648 -0.7303674,-0.11344 -0.48650934,-0.26242 -0.56070042,0.0214 -0.2366041,0.905109 0.1108914,0.302363 0.3080901,0.539652 0.4382221,0.527311 0.178333,-0.01688 0.1766465,-0.05774 -0.00689,-0.165798 z M 3.8984903,58.636645 C 4.0579481,58.201848 4.0078117,58.131708 3.558699,58.161274 3.2689311,58.18037 2.9222927,58.081592 2.7883919,57.941817 2.6123156,57.758015 2.5491914,57.874289 2.5603122,58.361963 c 0.0084,0.370858 0.061627,0.505443 0.1181608,0.299079 0.074735,-0.27282 0.1804766,-0.213357 0.3874797,0.217916 0.3054747,0.636433 0.5347263,0.569708 0.8325321,-0.242313 z m -0.6670354,0.268931 c -0.1651732,-0.390002 -0.018959,-0.682787 0.2688906,-0.53842 0.1178856,0.05913 0.1329481,0.259777 0.036514,0.486275 -0.1217268,0.285916 -0.200693,0.299396 -0.3054088,0.05213 z m 1.8078512,-0.08207 C 5.072199,58.576077 4.9407379,58.313741 4.7471577,58.240535 4.41476,58.114839 4.4144901,58.105597 4.7423379,58.074455 c 0.1917241,-0.01829 0.425968,0.253308 0.5232585,0.606519 0.1743897,0.633117 0.1762664,0.632306 0.1884885,-0.08165 0.010327,-0.60204 -0.084153,-0.731873 -0.5719492,-0.786113 -0.6048268,-0.06725 -0.8052638,0.406599 -0.2932663,0.693304 0.1600663,0.08962 0.2416539,0.279553 0.1813069,0.422043 -0.060347,0.142493 -0.204851,0.173274 -0.3211214,0.06842 -0.1294784,-0.116775 -0.1550794,-0.05767 -0.066075,0.152479 0.1884612,0.444985 0.5796831,0.250703 0.6563485,-0.325947 z m 1.9852204,0.307488 c 0,-0.104217 -0.1095554,-0.254346 -0.2434563,-0.333635 -0.1932911,-0.114444 -0.1937384,-0.195576 -0.0022,-0.39377 0.1588107,-0.164292 0.00909,-0.259223 -0.4382205,-0.277724 -0.5223733,-0.02159 -0.6795057,0.08587 -0.6795057,0.464826 0,0.271114 0.036514,0.546226 0.081151,0.611356 0.1346278,0.19646 1.282201,0.132869 1.282201,-0.07104 z M 5.8559371,58.768807 c 0,-0.243704 0.08765,-0.443099 0.1947656,-0.443099 0.1071184,0 0.1947642,0.120351 0.1947642,0.267443 0,0.147095 -0.08765,0.346489 -0.1947642,0.443101 -0.1071185,0.0966 -0.1947656,-0.02373 -0.1947656,-0.267445 z m 1.7577162,0.42096 c 0.095278,0.224966 0.1412133,0.08737 0.1224978,-0.366892 -0.016468,-0.399759 -0.088187,-0.674365 -0.1593849,-0.610231 -0.071196,0.06413 -0.1738278,-0.04406 -0.2280796,-0.240436 -0.054248,-0.196379 -0.098637,0.0906 -0.098637,0.637718 0,0.547117 0.047516,0.820414 0.1055764,0.607328 0.083712,-0.307188 0.1371613,-0.312879 0.2580275,-0.02748 z M 30.396305,58.911536 c 0.05355,-0.01427 -0.02991,-0.143598 -0.185465,-0.28721 -0.298483,-0.275541 -0.593593,-0.145567 -0.593593,0.261439 0,0.133271 0.153375,0.199454 0.340838,0.147074 0.187461,-0.05236 0.384658,-0.10695 0.43822,-0.121315 z m 0.973824,-0.01748 c 0,-0.156316 -0.08763,-0.284217 -0.194765,-0.284217 -0.107118,0 -0.194764,0.127907 -0.194764,0.284217 0,0.156315 0.08765,0.284216 0.194764,0.284216 0.107119,0 0.194765,-0.127907 0.194765,-0.284216 z m 0.584295,0 c 0,-0.156316 -0.03865,-0.284217 -0.08589,-0.284217 -0.04724,0 -0.140055,0.127907 -0.20626,0.284217 -0.0662,0.156315 -0.02756,0.284216 0.08589,0.284216 0.113438,0 0.206261,-0.127907 0.206259,-0.284216 z m 1.558119,-0.01769 c 0,-0.115407 -0.261297,-0.183459 -0.580659,-0.151191 -0.319362,0.03227 -0.619197,-0.07639 -0.6663,-0.241474 -0.04711,-0.165077 -0.09257,-0.08022 -0.10102,0.188584 -0.01198,0.379993 0.136281,0.480405 0.666301,0.45133 0.374924,-0.02057 0.681678,-0.131825 0.681678,-0.247255 z M 33.840354,58.5566 c -0.06218,-0.226729 -0.108331,-0.15939 -0.117665,0.171707 -0.0084,0.299609 0.03758,0.467476 0.102299,0.373033 0.06472,-0.09445 0.07164,-0.339581 0.01537,-0.544749 z m 2.711079,0.107694 c 0.03164,-0.231912 0.0117,-0.241968 -0.05821,-0.02934 -0.07471,0.227219 -0.156409,0.208189 -0.274559,-0.06395 -0.10486,-0.241527 -0.169329,-0.263659 -0.171189,-0.05878 -0.0015,0.181533 -0.167519,0.265874 -0.370531,0.188405 -0.202151,-0.07713 -0.416519,-0.02463 -0.476376,0.116693 -0.05984,0.141328 0.208776,0.244093 0.596958,0.228371 0.392774,-0.01587 0.727129,-0.185068 0.753913,-0.381414 z m 0.66164,0.07091 c 0,-0.243707 -0.08906,-0.362764 -0.19794,-0.264578 -0.108867,0.09819 -0.14752,0.297582 -0.08589,0.4431 0.166959,0.39422 0.283828,0.320714 0.283828,-0.178518 z m 0.918623,0.02862 C 38.010781,58.574946 37.798451,58.4204 37.659846,58.4204 c -0.138603,0 -0.252008,0.154548 -0.252008,0.343432 0,0.188885 0.212334,0.343426 0.471849,0.343426 0.360249,0 0.419854,-0.08123 0.252009,-0.343426 z m 1.607682,0.141366 c 0.157577,-0.145426 0.218544,-0.363583 0.135481,-0.484796 -0.08306,-0.121216 -0.232562,-0.03225 -0.332218,0.197705 -0.09966,0.229951 -0.182734,0.290199 -0.184619,0.133874 -0.0019,-0.156317 -0.257451,-0.297192 -0.567931,-0.313049 -0.450821,-0.02304 -0.51937,0.04633 -0.340391,0.344459 0.263045,0.438152 0.883402,0.496739 1.289674,0.121797 z M 0.53556961,57.988204 c -0.0621807,-0.226728 -0.10833037,-0.15939 -0.11766488,0.171706 -0.0084,0.299612 0.0375747,0.467478 0.10229885,0.373035 0.0647118,-0.09445 0.0716385,-0.339584 0.0153822,-0.544749 z M 1.9606416,37.57788 C 1.4785992,37.49972 1.0841992,37.353273 1.0841992,37.252447 c 0,-0.100822 0.1718039,-0.460353 0.3817851,-0.798948 0.2905719,-0.468543 0.3232677,-0.6684 0.1368583,-0.836525 C 1.4133209,35.446052 1.4280938,35.31108 1.6681466,35.020356 1.8387733,34.813713 1.9343937,34.477381 1.8806377,34.272952 1.8268857,34.068524 1.8726477,33.820282 1.9824278,33.721303 2.092176,33.622333 2.1421196,33.389826 2.093429,33.204639 2.04473,33.019451 2.155704,32.442344 2.3400286,31.922182 l 0.3351417,-0.945748 0.4152301,1.026988 c 0.2283771,0.564843 0.3198105,1.026987 0.2031863,1.026987 -0.1422281,0 -0.1488052,0.116976 -0.019977,0.355272 0.1056315,0.195395 0.1935719,0.547117 0.1954142,0.781595 0.00179,0.23448 0.066984,0.650147 0.1447682,0.923705 0.091629,0.322283 0.05356,0.497382 -0.1081374,0.497382 -0.1460142,0 -0.055556,0.301347 0.2180357,0.72632 0.3398079,0.527832 0.3756981,0.674863 0.1313372,0.538025 -0.3620852,-0.202761 -0.4531112,0.156738 -0.1512297,0.597274 0.2093724,0.305532 -0.3806162,0.348822 -1.7431452,0.127906 z m 2.2252539,0.02614 c -0.043702,-0.06378 0.00854,-0.270631 0.1160128,-0.459671 0.1348619,-0.237141 0.1074214,-0.450352 -0.088517,-0.687654 -0.2087708,-0.252842 -0.236477,-0.526313 -0.1045988,-1.03247 0.1184912,-0.454795 0.1106846,-0.688524 -0.02302,-0.688524 -0.1113177,0 -0.00371,-0.516054 0.2392722,-1.14679 l 0.4416777,-1.146789 0.2800983,0.780115 c 0.154055,0.429065 0.3001107,1.263734 0.3245703,1.854826 0.024453,0.591092 0.1542203,1.267684 0.288358,1.503543 0.2015727,0.35443 0.1849253,0.428831 -0.095953,0.428831 -0.2497912,0 -0.2863024,0.09414 -0.1377918,0.35527 0.1550918,0.272703 0.043702,0.355272 -0.4792946,0.355272 -0.3747397,0 -0.717103,-0.05217 -0.7608068,-0.115953 z M 10.086684,37.6345 C 9.4398565,37.58537 9.0099825,37.434322 9.0756634,37.279229 c 0.062853,-0.148379 0.019427,-0.269796 -0.09649,-0.269796 -0.1246182,0 -0.085571,-0.278794 0.09554,-0.682161 0.2418,-0.538523 0.2529979,-0.709317 0.053187,-0.811125 -0.1906542,-0.09714 -0.1642987,-0.275061 0.1068018,-0.721018 0.1979544,-0.325623 0.3060794,-0.719166 0.2402786,-0.874534 -0.065799,-0.155372 -0.02459,-0.368211 0.091588,-0.472983 0.1161643,-0.10478 0.161139,-0.380947 0.099931,-0.613718 -0.1071047,-0.407297 0.4355032,-2.077232 0.6749492,-2.077232 0.06419,0 0.26298,0.447642 0.441769,0.994758 0.214297,0.655788 0.249487,0.99476 0.103263,0.99476 -0.122318,0 -0.06369,0.254957 0.130718,0.568433 0.235015,0.378957 0.27007,0.568434 0.105163,0.568434 -0.180842,0 -0.161566,0.191056 0.07169,0.710543 0.297103,0.661693 0.296309,0.710541 -0.01157,0.710541 -0.277114,0 -0.256598,0.114927 0.126848,0.710543 0.390672,0.606841 0.408161,0.710541 0.11984,0.710541 -0.185675,0 -0.28851,0.115892 -0.228521,0.257536 0.05999,0.141648 0.288827,0.188946 0.508529,0.105102 0.397074,-0.151535 0.39687,-0.156457 -0.03414,-0.825968 -0.262569,-0.407859 -0.335167,-0.673532 -0.184051,-0.673532 0.15966,0 0.200541,-0.179161 0.113493,-0.497381 -0.259455,-0.948428 -0.234677,-1.708156 0.07516,-2.304566 l 0.311379,-0.599385 0.331779,0.848015 c 0.182478,0.46641 0.243039,0.848015 0.134574,0.848015 -0.109033,0 -0.129204,0.158848 -0.0451,0.355272 0.08366,0.195395 0.170392,0.531858 0.19276,0.747689 0.07956,0.7677 0.387331,0.901862 0.745178,0.324839 0.319376,-0.514988 0.322969,-0.57515 0.03436,-0.57515 -0.410358,0 -0.407497,-0.244241 0.01074,-0.918676 0.257185,-0.414706 0.277276,-0.587451 0.08816,-0.758009 -0.191579,-0.172792 -0.182137,-0.29695 0.04336,-0.570039 0.158556,-0.19202 0.276754,-0.572501 0.262662,-0.845504 -0.03043,-0.589468 0.43165,-2.307893 0.620585,-2.307893 0.159942,0 0.698291,2.030208 0.631199,2.380364 -0.02622,0.136807 0.101047,0.488524 0.282801,0.781596 0.181751,0.293072 0.233306,0.532861 0.114567,0.532861 -0.133279,0 -0.08895,0.339733 0.115889,0.887839 0.253017,0.677073 0.273696,0.918986 0.08711,1.019035 -0.134573,0.07214 -0.191615,0.256464 -0.126768,0.409578 0.06485,0.153102 0.0605,0.724893 -0.0096,1.270629 l -0.127565,0.992246 -1.915457,-0.05192 c -1.053502,-0.02858 -1.990784,-0.0039 -2.082849,0.05513 -0.09207,0.05886 -0.673769,0.06859 -1.292676,0.02157 z m 6.133538,-0.09303 c -0.411345,-0.173133 -0.589755,-0.387795 -0.499471,-0.600974 0.07726,-0.182397 0.154983,-0.657181 0.172737,-1.055061 0.01776,-0.397883 0.14954,-1.083177 0.292855,-1.522873 l 0.260569,-0.799453 0.293581,0.799453 c 0.161468,0.439696 0.271182,1.075004 0.243809,1.411794 -0.05442,0.669524 0.262361,1.133628 0.45818,0.671268 0.06729,-0.158867 0.02643,-0.28885 -0.09077,-0.28885 -0.152758,0 -0.154073,-0.160978 -0.0047,-0.568432 0.114664,-0.312641 0.150834,-0.568434 0.0804,-0.568434 -0.07044,0 -0.02217,-0.186254 0.107297,-0.413879 0.129465,-0.227628 0.191702,-0.517004 0.138317,-0.643052 -0.05338,-0.126056 0.01184,-0.526067 0.1449,-0.88893 l 0.24196,-0.659751 0.340809,0.759033 c 0.187442,0.417467 0.290742,0.832089 0.229553,0.92138 -0.06118,0.08929 -0.01363,0.333996 0.105674,0.543775 0.119303,0.209786 0.159286,0.381424 0.08883,0.381424 -0.07044,0 -0.03427,0.255793 0.0804,0.568434 0.154192,0.420431 0.148117,0.568432 -0.02333,0.568432 -0.14086,0 -0.09676,0.217752 0.112391,0.555013 0.331704,0.534867 0.327498,0.560031 -0.115889,0.693297 -1.253175,0.376659 -1.552809,0.380347 -1.457508,0.01788 0.113961,-0.433381 -0.398472,-0.796618 -0.565952,-0.401176 -0.06331,0.149485 -0.06095,0.399697 0.0052,0.556017 0.0662,0.156316 0.09328,0.272682 0.06018,0.258583 -0.03309,-0.01406 -0.348135,-0.146834 -0.700096,-0.294971 z M 27.817046,36.7328 c 0.157297,-0.55129 0.442473,-1.451324 0.633724,-2.000077 0.191251,-0.548749 0.412099,-1.749557 0.490774,-2.668458 0.165339,-1.931086 0.433919,-1.633484 0.50182,0.556045 0.04096,1.320924 -0.453119,4.214409 -0.818501,4.793379 -0.091,0.14418 -0.374327,0.2755 -0.629628,0.29181 -0.45626,0.02915 -0.459302,0.01246 -0.178189,-0.972699 z M 5.912798,37.080479 c -0.014635,-0.273558 -0.068415,-0.881071 -0.1195101,-1.35003 -0.051094,-0.468955 -0.00331,-1.012523 0.1060996,-1.207922 0.1442713,-0.25756 0.1120889,-0.355271 -0.1169904,-0.355271 -0.4286225,0 -0.397561,-0.624672 0.074625,-1.500651 0.2823027,-0.523718 0.3228066,-0.759261 0.1460735,-0.849456 -0.1778841,-0.09078 -0.1464356,-0.286175 0.1153796,-0.716845 0.1979543,-0.325624 0.3043679,-0.72321 0.2364743,-0.883518 -0.067892,-0.160314 0.1105881,-0.96542 0.3966247,-1.789137 l 0.5200684,-1.49767 0.4630285,1.531039 c 0.2546652,0.842069 0.417868,1.59694 0.3626717,1.677488 -0.055197,0.08055 0.029148,0.434871 0.1874298,0.787392 0.2177148,0.484883 0.229736,0.6708 0.049373,0.763557 -0.1658986,0.08531 -0.105122,0.390836 0.1998077,1.004481 0.5414327,1.089572 0.5429818,1.189104 0.018504,1.189104 -0.3828246,0 -0.3936576,0.04372 -0.1232551,0.497381 0.2907606,0.487809 0.4002788,1.492137 0.1627113,1.492137 -0.2066326,0 -0.1417543,1.267698 0.07614,1.487787 0.1136998,0.114848 -0.4537306,0.210771 -1.2609604,0.213163 -1.2590689,0.0039 -1.4714745,-0.06634 -1.4943026,-0.493029 z m 15.416621,-0.284215 c 0.414263,-2.504398 0.545074,-2.924227 1.086398,-3.486717 0.635897,-0.660761 0.711586,-0.50966 0.287278,0.573493 -0.153089,0.390798 -0.281452,1.382005 -0.285244,2.202681 -0.0069,1.47786 -0.01267,1.492139 -0.612312,1.492139 -0.561946,0 -0.596127,-0.05611 -0.47612,-0.781596 z m 9.748562,0.497379 c 0.0662,-0.156317 -0.03577,-0.284217 -0.226606,-0.284217 -0.2895,0 -0.271987,-0.07665 0.105728,-0.462718 0.324758,-0.331942 0.384998,-0.523778 0.21315,-0.678766 -0.142943,-0.128909 -0.174981,-0.368514 -0.07945,-0.594093 0.08806,-0.207926 0.171203,-0.701841 0.184761,-1.097592 0.01349,-0.395749 0.135688,-1.019804 0.271405,-1.386787 l 0.246751,-0.667243 0.303956,0.633266 c 0.167176,0.348296 0.316178,0.968299 0.331117,1.377785 0.01494,0.409486 0.142173,1.047725 0.28274,1.418308 0.151693,0.399915 0.168511,0.595265 0.04138,0.480605 -0.117804,-0.106246 -0.214197,-0.06529 -0.214197,0.09104 0,0.156316 0.08382,0.359809 0.186259,0.452203 0.102437,0.09238 0.136886,0.355733 0.07654,0.585206 -0.07373,0.280366 -0.394133,0.417223 -0.976813,0.417223 -0.52847,0 -0.820088,-0.110988 -0.746726,-0.284217 z m 2.137956,-0.781598 c 0.0025,-0.586197 0.07538,-1.225685 0.162026,-1.421084 0.102286,-0.230621 0.05103,-0.355272 -0.146073,-0.355272 -0.381421,0 -0.379964,-0.134233 0.01088,-1.004756 0.223981,-0.498838 0.245152,-0.700543 0.07353,-0.700543 -0.188629,0 -0.189994,-0.08971 -0.0063,-0.412755 0.129107,-0.227012 0.25693,-0.706626 0.284043,-1.065812 0.02711,-0.359182 0.184642,-1.029729 0.350059,-1.490101 l 0.300758,-0.837038 0.404527,1.157116 c 0.222489,0.636417 0.351968,1.233814 0.287733,1.327552 -0.06424,0.09373 -0.0042,0.368462 0.133486,0.610495 0.137643,0.242035 0.193654,0.522686 0.124453,0.623669 -0.0692,0.100983 0.01184,0.490144 0.180043,0.864804 0.190481,0.424233 0.240337,0.808037 0.132162,1.017444 -0.09554,0.184948 -0.150609,0.685285 -0.122401,1.111882 0.02821,0.426596 -0.04032,0.858249 -0.152274,0.959233 -0.132494,0.119487 -0.111305,0.268918 0.06067,0.42794 0.164558,0.152157 -0.178297,0.245977 -0.908798,0.248689 l -1.173046,0.0044 0.0044,-1.065813 z m 2.415955,0.710544 c -0.03074,-0.473639 -0.03059,-0.476143 0.104928,-1.738465 0.13043,-1.214794 0.249396,-1.601084 0.493082,-1.601084 0.388639,0 0.718041,2.423074 0.404376,2.974596 -0.161167,0.283391 -0.152203,0.418392 0.03506,0.528039 0.138372,0.081 -0.03326,0.1574 -0.381399,0.169737 -0.373529,0.01326 -0.64244,-0.123185 -0.656051,-0.332832 z m 1.4838,0.07104 c 0.0662,-0.156316 0.01396,-0.284215 -0.116082,-0.284215 -0.146726,0 -0.102685,-0.215692 0.116082,-0.568434 0.218755,-0.352743 0.262799,-0.568434 0.116068,-0.568434 -0.13482,0 -0.174117,-0.147176 -0.09143,-0.342391 0.07977,-0.188322 0.156459,-0.667933 0.170452,-1.065813 0.014,-0.397885 0.139785,-1.031645 0.279535,-1.408358 0.225825,-0.608739 0.274477,-0.631786 0.437309,-0.207179 0.161717,0.421689 0.255862,0.883092 0.42265,2.071363 0.02521,0.179624 0.162289,0.531346 0.304611,0.781596 0.21407,0.376409 0.214279,0.454997 0.0013,0.454997 -0.200328,0 -0.205627,0.07579 -0.02385,0.34106 0.499539,0.72897 0.255233,1.080027 -0.751601,1.080027 -0.607284,0 -0.939135,-0.10904 -0.864948,-0.284219 z M 19.210056,34.850606 c -0.137396,-0.79884 -0.125183,-0.829721 1.297201,-3.279902 0.91944,-1.583825 0.929866,-1.624394 0.929866,-3.618014 0,-1.18292 0.128446,-2.484694 0.310788,-3.149704 0.302641,-1.103769 0.289236,-1.265283 -0.511438,-6.161546 -0.782382,-4.784411 -0.837555,-4.999522 -1.138538,-4.439073 -0.173973,0.323944 -1.012846,1.815075 -1.864166,3.313622 -1.371246,2.413754 -1.61956,2.724634 -2.176304,2.724634 -0.564902,0 -0.682398,0.155472 -1.161991,1.537662 l -0.533544,1.537665 1.120175,1.861889 c 1.008165,1.675716 1.106658,1.951697 0.984999,2.760003 l -0.135179,0.898109 -0.346089,-1.100226 c -0.292513,-0.929908 -2.144545,-3.93776 -2.144545,-3.482916 0,0.08332 0.219112,1.091589 0.486913,2.240584 0.574553,2.465106 0.558483,2.295972 0.19904,2.094692 -0.208339,-0.116654 -0.484682,0.435469 -1.000217,1.998437 -0.391792,1.187804 -0.790305,2.159642 -0.885586,2.159642 -0.09528,0 -0.226818,-0.39093 -0.292303,-0.868732 -0.07522,-0.548959 -0.358253,-1.105912 -0.768873,-1.513088 l -0.649811,-0.644356 0.739064,-1.053128 0.739062,-1.053129 -0.400416,-2.691794 c -0.220224,-1.480463 -0.451926,-2.69177 -0.514889,-2.69177 -0.06297,0 -0.842937,1.406873 -1.7332734,3.126385 -0.8903361,1.719512 -1.6509365,3.126385 -1.6902219,3.126385 -0.039282,0 -0.069764,-0.223821 -0.067726,-0.497377 0.00317,-0.427716 0.6034487,-1.565931 3.2347993,-6.13382 l 0.463581,-0.804751 0.903086,1.160022 c 0.496696,0.638013 0.956479,1.15877 1.021737,1.157236 0.06526,-0.0015 0.509242,-0.896815 0.98663,-1.989519 0.706449,-1.617008 0.960164,-1.985104 1.363353,-1.977987 0.382332,0.0069 0.967403,-0.721271 2.563846,-3.190269 l 2.068472,-3.199015 1.314039,2.964446 c 0.722721,1.630447 1.524742,3.451516 1.782266,4.046823 0.394313,0.911516 0.54458,1.05441 0.951928,0.90522 0.391559,-0.143418 0.741091,0.130135 1.834868,1.435978 1.508999,1.801571 1.552745,1.802071 2.712367,0.03099 l 0.656987,-1.003406 0.619941,1.202921 c 0.340969,0.661607 1.178559,2.333175 1.86131,3.714593 l 1.241369,2.511676 0.341161,-0.660018 c 0.187641,-0.363011 0.378664,-0.597981 0.424499,-0.522157 0.469959,0.777441 2.658793,6.075419 2.565985,6.210852 -0.06742,0.09839 -0.252305,-0.07672 -0.410852,-0.389098 -0.288176,-0.567815 -0.288358,-0.567815 -0.594571,5.67e-4 -0.214756,0.398532 -0.27376,0.429523 -0.197416,0.103675 0.05989,-0.255611 -0.0057,-0.703253 -0.145503,-0.994758 -0.139915,-0.291503 -0.24286,-0.604341 -0.228763,-0.695193 0.06026,-0.388512 -0.937423,-3.103432 -1.14041,-3.103432 -0.122663,0 -0.420522,0.735414 -0.661919,1.63425 -0.241397,0.898835 -0.523427,1.863268 -0.62673,2.143188 -0.103305,0.279915 -0.137773,0.663608 -0.0766,0.85265 0.06118,0.189046 -0.0015,0.0918 -0.139477,-0.216084 -0.137893,-0.307886 -0.476503,-0.883426 -0.752466,-1.278977 -0.397055,-0.569114 -0.656045,-1.624836 -1.24116,-5.05937 -0.542592,-3.184922 -0.799695,-4.267172 -0.965902,-4.065878 -0.124577,0.150872 -0.65881,1.197612 -1.187192,2.326097 -0.884601,1.889268 -0.979022,2.256329 -1.192128,4.63431 l -0.231437,2.582526 0.03046,-2.345456 c 0.01674,-1.29 -0.01335,-2.337519 -0.06692,-2.327816 -0.05355,0.0097 -0.754713,1.081234 -1.558119,2.381186 l -1.460741,2.363546 -0.389528,-0.673791 -0.389531,-0.67379 -1.008911,1.13324 c -0.554902,0.623282 -1.065229,1.392172 -1.134061,1.708639 -0.09992,0.459401 -1.358378,1.702735 -1.723451,1.702735 -0.04622,0 -0.141123,-0.331977 -0.210911,-0.737726 z m -2.398948,-1.3939 c 0.05801,-0.156315 0.421453,-1.284763 0.807633,-2.507653 0.58973,-1.867459 0.702145,-2.535141 0.702145,-4.170336 0,-1.784266 0.04881,-2.018126 0.584295,-2.799547 0.495226,-0.722678 0.587254,-1.083444 0.603708,-2.366654 0.03766,-2.936713 0.268323,-3.07434 0.535511,-0.319517 l 0.250509,2.582854 -0.620983,1.605684 c -0.522825,1.351873 -0.600989,1.788149 -0.494487,2.760062 0.120337,1.098204 0.07233,1.246261 -0.986305,3.042634 -1.314257,2.230098 -1.528279,2.566529 -1.382026,2.172473 z M 5.1742602,32.461974 c 0.066198,-0.156316 0.1590214,-0.284217 0.2062595,-0.284217 0.04724,0 0.085887,0.127886 0.085887,0.284217 0,0.156316 -0.092813,0.284216 -0.2062595,0.284216 -0.1134382,0 -0.1520931,-0.127885 -0.085887,-0.284216 z"
       id="path845" />
  </g>
</svg>
