<?xml version="1.0" encoding="UTF-8" standalone="no"?>
<svg
   xmlns:dc="http://purl.org/dc/elements/1.1/"
   xmlns:cc="http://creativecommons.org/ns#"
   xmlns:rdf="http://www.w3.org/1999/02/22-rdf-syntax-ns#"
   xmlns:svg="http://www.w3.org/2000/svg"
   xmlns="http://www.w3.org/2000/svg"
   xmlns:sodipodi="http://sodipodi.sourceforge.net/DTD/sodipodi-0.dtd"
   xmlns:inkscape="http://www.inkscape.org/namespaces/inkscape"
   width="50mm"
   height="70mm"
   viewBox="0 0 50 70"
   version="1.1"
   id="svg8"
   inkscape:version="1.0.1 (3bc2e813f5, 2020-09-07)"
   sodipodi:docname="bim.svg">
  <defs
     id="defs2" />
  <sodipodi:namedview
     id="base"
     pagecolor="#ffffff"
     bordercolor="#666666"
     borderopacity="1.0"
     inkscape:pageopacity="0.0"
     inkscape:pageshadow="2"
     inkscape:zoom="2.8"
     inkscape:cx="51.5934"
     inkscape:cy="158.74668"
     inkscape:document-units="mm"
     inkscape:current-layer="layer1"
     inkscape:document-rotation="0"
     showgrid="false"
     inkscape:window-width="1920"
     inkscape:window-height="1137"
     inkscape:window-x="-8"
     inkscape:window-y="-8"
     inkscape:window-maximized="1" />
  <metadata
     id="metadata5">
    <rdf:RDF>
      <cc:Work
         rdf:about="">
        <dc:format>image/svg+xml</dc:format>
        <dc:type
           rdf:resource="http://purl.org/dc/dcmitype/StillImage" />
        <dc:title></dc:title>
      </cc:Work>
    </rdf:RDF>
  </metadata>
  <g
     inkscape:label="Layer 1"
     inkscape:groupmode="layer"
     id="layer1">
    <path
       style="fill:#000000;stroke-width:0.177948"
       d="m 23.668624,44.207496 c 0,-0.349115 -0.118635,-0.355896 -6.228175,-0.355896 -6.109544,0 -6.228176,-0.0068 -6.228176,-0.355896 0,-0.312756 0.118636,-0.355896 0.978713,-0.355896 H 13.1697 v -0.800764 c 0,-0.682133 0.05272,-0.800766 0.355895,-0.800766 0.303171,0 0.355896,0.118636 0.355896,0.800766 v 0.800764 h 4.893566 c 4.231205,0 4.893567,-0.03612 4.893567,-0.266921 0,-0.14829 0.158176,-0.266922 0.355895,-0.266922 0.322001,0 0.355896,-0.118636 0.355896,-1.245635 0,-1.127002 0.0339,-1.245635 0.355897,-1.245635 0.322,0 0.355895,0.118635 0.355895,1.245635 0,1.127003 0.0339,1.245635 0.355896,1.245635 0.19772,0 0.355895,0.118635 0.355895,0.266922 0,0.231021 0.682133,0.266921 5.071514,0.266921 h 5.071515 v -0.800764 c 0,-0.682133 0.05272,-0.800766 0.355895,-0.800766 0.303171,0 0.355897,0.118636 0.355897,0.800766 v 0.800764 h 0.889739 c 0.771107,0 0.889739,0.04746 0.889739,0.355896 0,0.349212 -0.118635,0.355896 -6.317149,0.355896 -6.198517,0 -6.31715,0.0068 -6.31715,0.355896 0,0.316352 -0.118635,0.355896 -1.067686,0.355896 -0.949056,0 -1.067688,-0.03955 -1.067688,-0.355896 z m -12.452989,-4.938053 0.0034,-1.734992 1.081447,-1.112174 c 0.594796,-0.611697 1.131477,-1.112174 1.192624,-1.112174 0.06114,0 0.573941,0.457933 1.139539,1.01763 l 1.02836,1.017629 v 1.829537 1.829535 h -2.224348 -2.224348 l 0.0034,-1.734991 z m 3.911491,-0.171836 v -1.372983 l -0.838847,-0.851654 -0.838847,-0.851653 -0.851657,0.838852 -0.851658,0.838851 v 1.385786 1.385785 h 1.690504 1.690505 z M 33.9896,39.264302 v -1.740133 l 1.156662,-1.14638 1.15666,-1.146379 1.156662,1.146379 1.156661,1.14638 v 1.740133 1.740132 H 36.302922 33.9896 Z m 3.914854,-0.166695 V 37.724624 L 37.065608,36.87297 36.22676,36.021317 35.375102,36.860169 34.523444,37.69902 v 1.385786 1.385785 h 1.690504 1.690506 z M 18.152241,30.577453 c 0,-8.089429 0.03015,-9.054447 0.297051,-9.506267 0.163378,-0.276577 0.47487,-0.598033 0.692205,-0.714347 0.217333,-0.116319 0.497575,-0.402857 0.622756,-0.636762 0.125177,-0.233905 0.284649,-0.425283 0.354367,-0.425283 0.06973,0 0.496369,-0.380363 0.948111,-0.845253 l 0.821347,-0.845253 5.205508,-0.0493 c 4.791038,-0.04537 5.2551,-0.02292 5.828328,0.282014 1.638314,0.87151 1.575372,3.354095 -0.102813,4.055286 l -0.608979,0.254445 v 7.560394 7.560397 h -0.533844 c -0.472092,0 -0.533844,0.06051 -0.533844,0.523102 0,0.476022 -0.06006,0.528072 -0.667305,0.57833 -0.609218,0.05042 -0.672157,0.105567 -0.723066,0.63356 l -0.05576,0.578331 h -5.772031 -5.77203 z m 10.943793,8.113659 c 0,-0.229573 -0.678273,-0.273547 -4.847388,-0.314264 l -4.847389,-0.04735 -0.04618,-8.672102 c -0.0448,-8.410614 -0.05557,-8.652152 -0.35759,-8.010513 -0.28259,0.600363 -0.311409,1.425144 -0.311409,8.912223 0,4.537849 0.05459,8.305222 0.12131,8.371941 0.06672,0.06672 2.408959,0.100086 5.204976,0.07415 4.379222,-0.04062 5.083668,-0.08416 5.083668,-0.314085 z m 1.290193,-1.201148 c 0.05809,-0.174426 -1.004526,-0.222435 -4.923296,-0.222435 h -4.997368 l -0.0028,-8.674959 c -0.0017,-5.666525 -0.06255,-8.582391 -0.175224,-8.408036 -0.105263,0.162879 -0.173562,3.649379 -0.175223,8.944609 l -0.0028,8.677687 5.101243,-0.04722 c 3.888696,-0.036 5.118852,-0.100086 5.175317,-0.269653 z M 31.49833,29.348849 V 22.14196 h -4.409101 c -4.780443,0 -5.039582,-0.04808 -5.273032,-0.978213 -0.113789,-0.453369 0.132443,-1.131467 0.499971,-1.376871 0.107685,-0.07191 0.616196,-0.131956 1.130021,-0.133461 1.076776,-0.0032 1.152146,-0.168079 0.414071,-0.906153 -0.699336,-0.699336 -1.463413,-0.699336 -2.162751,0 l -0.520155,0.520156 v 8.64416 8.64416 h 5.160488 5.160488 z m -7.472254,0.761595 0.0016,-1.829283 1.110618,-1.213687 1.110617,-1.213687 1.207993,1.22505 1.20799,1.225049 -0.05133,1.768117 -0.05133,1.768116 -2.268835,0.0498 -2.268836,0.0498 z m 3.913296,-0.279675 v -1.386533 l -0.801145,-0.786266 -0.801145,-0.786264 -0.889359,0.875986 -0.88936,0.875986 v 1.296812 1.296811 h 1.690505 1.690504 z M 22.956833,28.23316 c 0,-0.07534 0.760727,-0.894539 1.690505,-1.820452 l 1.690504,-1.683475 1.690504,1.683475 c 0.929778,0.925913 1.690506,1.745115 1.690506,1.820452 0,0.07534 -0.168388,0.136975 -0.374197,0.136975 -0.235732,0 -0.85758,-0.510304 -1.680541,-1.379096 l -1.306346,-1.379095 -1.392995,1.379095 c -1.214117,1.202001 -2.00794,1.693065 -2.00794,1.242121 z m 0.903427,-7.323146 c 0.837636,-0.837637 0.641047,-1.061068 -0.697969,-0.793264 -0.614698,0.122939 -0.891136,0.649135 -0.554268,1.055037 0.32243,0.388503 0.67584,0.314625 1.252237,-0.261773 z m 9.075342,0 c 0.699336,-0.699337 0.699336,-1.463416 0,-2.162752 l -0.520155,-0.520156 h -3.906489 -3.90649 l 0.287954,0.800766 c 0.265308,0.737786 0.265308,0.863746 0,1.601532 l -0.287954,0.800764 h 3.90649 3.906489 z M 11.75748,35.74589 l 1.699586,-1.699586 1.631132,1.655099 c 1.140748,1.15751 1.54538,1.673728 1.3459,1.71706 -0.168945,0.0367 -0.839827,-0.489382 -1.645552,-1.29038 l -1.360319,-1.35234 -1.325958,1.334867 c -0.777207,0.782429 -1.474617,1.334867 -1.685167,1.334867 -0.266753,0 0.07824,-0.437447 1.340378,-1.699587 z m 22.825278,-0.03541 1.747535,-1.734991 1.592162,1.690504 c 1.156191,1.227606 1.511601,1.707471 1.29795,1.752465 -0.178879,0.03767 -0.825824,-0.465357 -1.650335,-1.28321 l -1.356122,-1.345166 -1.21384,1.327697 c -0.930314,1.017571 -1.324915,1.327694 -1.689364,1.327694 -0.428424,0 -0.302433,-0.171848 1.272014,-1.734993 z"
       id="path923" />
  </g>
</svg>
