<?xml version="1.0" encoding="UTF-8" standalone="no"?>
<svg
   xmlns:dc="http://purl.org/dc/elements/1.1/"
   xmlns:cc="http://creativecommons.org/ns#"
   xmlns:rdf="http://www.w3.org/1999/02/22-rdf-syntax-ns#"
   xmlns:svg="http://www.w3.org/2000/svg"
   xmlns="http://www.w3.org/2000/svg"
   xmlns:sodipodi="http://sodipodi.sourceforge.net/DTD/sodipodi-0.dtd"
   xmlns:inkscape="http://www.inkscape.org/namespaces/inkscape"
   width="100mm"
   height="80mm"
   viewBox="0 0 100 80"
   version="1.1"
   id="svg8"
   inkscape:version="1.0.1 (3bc2e813f5, 2020-09-07)"
   sodipodi:docname="budowa.svg">
  <defs
     id="defs2" />
  <sodipodi:namedview
     id="base"
     pagecolor="#ffffff"
     bordercolor="#666666"
     borderopacity="1.0"
     inkscape:pageopacity="0.0"
     inkscape:pageshadow="2"
     inkscape:zoom="0.98994949"
     inkscape:cx="246.06131"
     inkscape:cy="117.40574"
     inkscape:document-units="mm"
     inkscape:current-layer="layer1"
     inkscape:document-rotation="0"
     showgrid="false"
     inkscape:window-width="1346"
     inkscape:window-height="967"
     inkscape:window-x="26"
     inkscape:window-y="26"
     inkscape:window-maximized="0" />
  <metadata
     id="metadata5">
    <rdf:RDF>
      <cc:Work
         rdf:about="">
        <dc:format>image/svg+xml</dc:format>
        <dc:type
           rdf:resource="http://purl.org/dc/dcmitype/StillImage" />
        <dc:title></dc:title>
      </cc:Work>
    </rdf:RDF>
  </metadata>
  <g
     inkscape:label="Layer 1"
     inkscape:groupmode="layer"
     id="layer1">
    <path
       style="fill:#ffffff;stroke-width:0.264583"
       d="m 37.366902,54.540673 c -3.528666,-0.97881 -5.372408,-4.271213 -5.355178,-9.562843 0.0055,-1.681414 0.168748,-3.176264 0.447931,-4.101041 0.241623,-0.800365 1.679311,-3.598334 3.194862,-6.217709 l 2.755546,-4.762499 1.949555,0.01617 c 1.904306,0.01577 5.521426,0.948224 5.521426,1.423352 0,0.113162 -0.40597,1.08572 -0.90216,2.161241 -1.90243,4.123616 -2.59047,7.379449 -1.55945,7.379449 1.11993,0 3.50848,-2.39608 5.87392,-5.892424 0.52119,-0.770377 0.9764,-1.192554 1.16821,-1.083448 1.09257,0.621488 2.72993,2.219859 3.77669,3.686762 l 1.21696,1.705422 -2.85186,4.939665 c -1.56853,2.716813 -3.1985,5.33445 -3.62215,5.816971 -1.161,1.322308 -4.43547,3.401679 -6.32123,4.014149 -2.291872,0.744368 -3.829197,0.882849 -5.293072,0.476787 z m 5.796252,-2.970728 c 2.92571,-1.417685 4.21513,-2.812317 6.92805,-7.493376 2.27261,-3.921312 2.34677,-4.100136 1.95089,-4.704325 -0.49445,-0.754632 -0.20069,-1.127721 -3.25949,4.13976 -1.2219,2.104213 -2.70204,4.296034 -3.2892,4.870715 -1.39361,1.36399 -3.89251,2.978298 -5.486878,3.544567 -0.698076,0.247936 -1.269229,0.555427 -1.269229,0.683313 0,0.465283 2.560466,-0.136761 4.425857,-1.040654 z m 0.47722,-11.738081 c -0.20659,-0.334277 0.75166,-3.136579 1.75971,-5.146063 1.87118,-3.730091 5.10718,-8.868564 4.36181,-6.926159 -0.30264,0.78867 -0.5194,2.533814 -0.31472,2.533814 0.1068,0 0.6578,-0.367192 1.22445,-0.815983 0.56664,-0.448792 1.03026,-0.72838 1.03026,-0.621311 0,0.721347 -4.94084,8.469728 -6.4419,10.102398 -1.06143,1.154496 -1.34974,1.309954 -1.61961,0.873304 z m 6.55694,-12.118096 c 0.1498,-1.215818 1.93504,-4.967631 6.03701,-12.687228 l 1.57488,-2.96379 1.23147,0.780978 c 0.67731,0.429538 1.38676,0.780978 1.57655,0.780978 0.18979,0 0.34507,0.109178 0.34507,0.242619 0,0.57661 -8.09406,12.95966 -9.13706,13.978735 -1.51954,1.484677 -1.82411,1.459926 -1.62792,-0.132292 z m 9.828,-14.850973 c -1.89658,-0.861496 -3.29635,-3.0098558 -3.29635,-5.0592208 0,-1.2260486 1.13573,-3.7038686 1.69769,-3.7038686 0.40605,0 8.5487,4.5973086 9.10416,5.1401686 0.53666,0.524476 -1.03358,2.9270528 -2.3529,3.6001188 -1.31935,0.673083 -3.69784,0.683608 -5.1526,0.0228 z m 4.22112,-1.250189 c 0.52743,-0.202395 0.2817,-0.633734 -0.36103,-0.633734 -0.26688,0 -0.55377,-0.178594 -0.63754,-0.396875 -0.0838,-0.218282 -0.37957,-0.396875 -0.65737,-0.396875 -0.27779,0 -0.65329,-0.178594 -0.83445,-0.3968748 -0.18115,-0.218282 -0.49455,-0.396875 -0.69644,-0.396875 -0.20189,0 -0.57096,-0.238125 -0.82016,-0.529167 -0.24919,-0.291042 -0.65883,-0.529167 -0.9103,-0.529167 -0.25147,0 -0.58998,-0.208359 -0.75224,-0.46302 -0.23765,-0.372977 -0.26909,-0.269582 -0.16167,0.53168 0.16912,1.261449 0.96306,2.3825408 2.07562,2.9308998 0.86614,0.426902 2.96498,0.583388 3.75558,0.280008 z"
       id="path883" />
    <text
       xml:space="preserve"
       style="font-size:8.79467px;line-height:1.25;font-family:'Franklin Gothic Medium';-inkscape-font-specification:'Franklin Gothic Medium, ';stroke-width:0.471141;fill:#ffffff;"
       x="8.723876"
       y="66.714569"
       id="text887"><tspan
         sodipodi:role="line"
         id="tspan885"
         x="8.723876"
         y="66.714569"
         style="stroke-width:0.471141;fill:#ffffff;">Rozpoczęcie budowy</tspan><tspan
         sodipodi:role="line"
         x="8.723876"
         y="77.707909"
         style="stroke-width:0.471141;fill:#ffffff;"
         id="tspan889">33 XI 2022</tspan></text>
  </g>
</svg>
