<?xml version="1.0" encoding="UTF-8" standalone="no"?>
<svg
   xmlns:dc="http://purl.org/dc/elements/1.1/"
   xmlns:cc="http://creativecommons.org/ns#"
   xmlns:rdf="http://www.w3.org/1999/02/22-rdf-syntax-ns#"
   xmlns:svg="http://www.w3.org/2000/svg"
   xmlns="http://www.w3.org/2000/svg"
   xmlns:sodipodi="http://sodipodi.sourceforge.net/DTD/sodipodi-0.dtd"
   xmlns:inkscape="http://www.inkscape.org/namespaces/inkscape"
   width="40mm"
   height="40mm"
   viewBox="0 0 40 40"
   version="1.1"
   id="svg8"
   inkscape:version="1.0.1 (3bc2e813f5, 2020-09-07)"
   sodipodi:docname="carpark.svg">
  <defs
     id="defs2" />
  <sodipodi:namedview
     id="base"
     pagecolor="#ffffff"
     bordercolor="#666666"
     borderopacity="1.0"
     inkscape:pageopacity="0.0"
     inkscape:pageshadow="2"
     inkscape:zoom="2.8"
     inkscape:cx="76.818078"
     inkscape:cy="81.876273"
     inkscape:document-units="mm"
     inkscape:current-layer="layer1"
     inkscape:document-rotation="0"
     showgrid="false"
     inkscape:window-width="1920"
     inkscape:window-height="1137"
     inkscape:window-x="-8"
     inkscape:window-y="-8"
     inkscape:window-maximized="1" />
  <metadata
     id="metadata5">
    <rdf:RDF>
      <cc:Work
         rdf:about="">
        <dc:format>image/svg+xml</dc:format>
        <dc:type
           rdf:resource="http://purl.org/dc/dcmitype/StillImage" />
        <dc:title></dc:title>
      </cc:Work>
    </rdf:RDF>
  </metadata>
  <g
     inkscape:label="Layer 1"
     inkscape:groupmode="layer"
     id="layer1">
    <path
       style="fill:#ffffff;stroke-width:0.16463"
       d="M 2.9036373,31.63562 2.4417255,31.238594 2.3895123,27.561036 c -0.055503,-3.909287 0.1079396,-5.722717 0.6425562,-7.129288 0.3806106,-1.001384 0.3806775,-0.910956 -6.747e-4,-0.910956 -0.173687,0 -0.4357187,-0.04602 -0.5822926,-0.102265 -0.6944989,-0.266504 -1.0016779,-2.09667 -0.4775141,-2.845019 0.2423776,-0.346042 0.3586256,-0.376338 1.1112501,-0.28961 0.4623052,0.05327 0.9911975,0.141062 1.1753163,0.195087 0.2968513,0.0871 0.4249919,-0.125326 1.1315344,-1.875838 1.3965483,-3.460054 0.9572939,-3.314816 10.0113341,-3.310221 9.014188,0.0046 8.520238,-0.158832 9.987615,3.304032 0.638715,1.507302 0.857329,1.871732 1.107075,1.845504 0.171161,-0.01797 0.664911,-0.08338 1.097224,-0.145337 1.122288,-0.160851 1.436476,0.155362 1.436476,1.445739 0,0.8101 -0.06652,1.03627 -0.404092,1.373836 -0.22225,0.22225 -0.555625,0.404092 -0.740833,0.404092 -0.414368,0 -0.414312,0.0028 0.02615,1.317037 0.326172,0.973201 0.364474,1.483662 0.423009,5.637671 l 0.06436,4.567578 -0.494783,0.494783 c -0.472538,0.472537 -0.557855,0.494783 -1.897618,0.494783 -1.245165,0 -1.454753,-0.04462 -1.864748,-0.396993 -0.408479,-0.351071 -0.471434,-0.536745 -0.544226,-1.605139 l -0.08232,-1.208146 H 15.365152 7.2159849 l -0.042376,0.987778 c -0.023307,0.543278 -0.079942,1.153119 -0.1258573,1.3552 -0.1338676,0.589185 -0.8926238,0.8673 -2.3661703,0.8673 -1.1534634,0 -1.3730921,-0.04904 -1.777944,-0.397024 z m 7.3239337,-5.669738 c 0.153232,-0.09721 0.199362,-0.523201 0.16463,-1.520302 l -0.04825,-1.385251 H 7.7921886 5.2404293 l -0.048363,1.291487 c -0.030351,0.810481 0.023143,1.377645 0.1436303,1.522824 0.1479202,0.178233 0.7070037,0.230758 2.4354931,0.228817 1.2339246,-0.0013 2.3392963,-0.0633 2.4563813,-0.137575 z m 15.167037,-0.09124 c 0.120486,-0.145179 0.173981,-0.712343 0.14363,-1.522824 l -0.04836,-1.291487 H 22.938119 20.38636 L 20.338,24.351818 c -0.03035,0.810481 0.02314,1.377645 0.14363,1.522824 0.147877,0.17818 0.712341,0.231337 2.456493,0.231337 1.744152,0 2.308616,-0.05316 2.456493,-0.231337 z m -0.349234,-6.222145 c 0.323471,-0.32347 0.248746,-0.601754 -0.943974,-3.515463 -0.839202,-2.050096 -1.275901,-2.908717 -1.648893,-3.241985 l -0.507364,-0.45333 H 15.365152 8.785161 l -0.4905823,0.452732 c -0.3485648,0.321671 -0.8258995,1.276682 -1.6488937,3.298965 -0.6370711,1.565429 -1.1583113,2.939675 -1.1583113,3.05388 0,0.590173 0.206233,0.602757 9.8777783,0.602757 7.155902,0 9.53114,-0.04847 9.680222,-0.197556 z m 7.968075,12.017964 C 32.865305,31.522315 32.815893,29.504664 32.815893,23.603607 V 15.73431 h -1.486954 c -0.912676,0 -1.703226,-0.09036 -2.046936,-0.233975 -1.000364,-0.417979 -1.07574,-0.770716 -1.07574,-5.034173 0,-5.5309116 -0.262763,-5.2681485 5.268149,-5.2681485 4.263456,0 4.616193,0.075375 5.034173,1.0757393 0.341412,0.8171146 0.335741,7.5812762 -0.007,8.4016772 -0.335382,0.802687 -1.032592,1.05888 -2.881654,1.05888 H 34.13293 v 7.869297 c 0,8.133227 -0.01045,8.264407 -0.658518,8.264407 -0.144874,0 -0.352308,-0.0889 -0.460963,-0.197555 z m -0.724371,-18.10926 c 0.108656,-0.108656 0.197556,-0.627239 0.197556,-1.152407 V 11.45394 h 0.910751 c 1.755508,0 2.546471,-0.692908 2.546471,-2.2307879 0,-0.6469622 -0.08437,-0.8498435 -0.54497,-1.3104414 C 34.7724,7.286223 34.046042,7.1233368 32.239689,7.2042582 l -1.152407,0.051626 -0.04501,3.0403508 c -0.02475,1.672194 -0.0086,3.13534 0.03599,3.251436 0.102293,0.266569 0.948323,0.276022 1.210816,0.01353 z m 0.309256,-3.367473 c -0.06144,-0.06143 -0.1117,-0.4697694 -0.1117,-0.9074099 V 8.4906062 h 0.790222 c 0.434622,0 0.879122,0.0889 0.987778,0.1975556 0.312248,0.3122474 0.249076,1.2477897 -0.09055,1.3409572 -0.673655,0.1848 -1.472148,0.268213 -1.575754,0.164607 z"
       id="path846" />
  </g>
</svg>
