<?xml version="1.0" encoding="UTF-8" standalone="no"?>
<svg
   xmlns:dc="http://purl.org/dc/elements/1.1/"
   xmlns:cc="http://creativecommons.org/ns#"
   xmlns:rdf="http://www.w3.org/1999/02/22-rdf-syntax-ns#"
   xmlns:svg="http://www.w3.org/2000/svg"
   xmlns="http://www.w3.org/2000/svg"
   xmlns:sodipodi="http://sodipodi.sourceforge.net/DTD/sodipodi-0.dtd"
   xmlns:inkscape="http://www.inkscape.org/namespaces/inkscape"
   width="200mm"
   height="260mm"
   viewBox="0 0 200 260"
   version="1.1"
   id="svg8"
   inkscape:version="1.0.1 (3bc2e813f5, 2020-09-07)"
   sodipodi:docname="commercial.svg">
  <defs
     id="defs2" />
  <sodipodi:namedview
     id="base"
     pagecolor="#ffffff"
     bordercolor="#666666"
     borderopacity="1.0"
     inkscape:pageopacity="0.0"
     inkscape:pageshadow="2"
     inkscape:zoom="0.7"
     inkscape:cx="401.13719"
     inkscape:cy="472.52247"
     inkscape:document-units="mm"
     inkscape:current-layer="layer1"
     inkscape:document-rotation="0"
     showgrid="false"
     inkscape:window-width="1920"
     inkscape:window-height="1137"
     inkscape:window-x="-8"
     inkscape:window-y="-8"
     inkscape:window-maximized="1" />
  <metadata
     id="metadata5">
    <rdf:RDF>
      <cc:Work
         rdf:about="">
        <dc:format>image/svg+xml</dc:format>
        <dc:type
           rdf:resource="http://purl.org/dc/dcmitype/StillImage" />
        <dc:title></dc:title>
      </cc:Work>
    </rdf:RDF>
  </metadata>
  <g
     inkscape:label="Layer 1"
     inkscape:groupmode="layer"
     id="layer1">
    <path
       style="fill:#000000;stroke-width:0.923522"
       d="m 44.933848,148.65527 -34.283041,-9.72867 -0.0525,-15.75257 -0.0525,-15.75257 29.430745,-22.626278 29.430742,-22.626284 0.05633,-5.659988 0.05633,-5.659988 13.469473,-10.380317 13.469473,-10.380317 5.46459,1.159665 5.46459,1.159665 6.69367,-5.117452 6.69367,-5.117453 35.09383,9.435299 35.09383,9.4353 0.13405,15.733849 0.13404,15.73385 -28.05522,21.611081 -28.05523,21.611068 -0.0153,8.54868 c -0.0177,9.89147 1.78214,7.50211 -16.01482,21.25957 l -11.84362,9.15538 -8.23244,-2.2847 -8.232438,-2.2847 -4.859035,3.64053 c -2.672495,2.00228 -5.274645,3.86001 -5.782582,4.12828 -0.507937,0.26825 -16.350889,-3.89016 -35.20656,-9.24093 z m 33.651739,3.80684 c -0.288445,-2.48813 -0.704191,-2.63727 -32.153725,-11.53416 -17.523825,-4.95738 -32.408585,-9.01786 -33.077245,-9.02329 -0.78304,-0.006 -1.11174,0.89406 -0.92352,2.52982 0.28854,2.5077 0.68186,2.65195 31.230199,11.45327 17.01589,4.90248 31.900651,8.95443 33.077247,9.00434 1.80254,0.0765 2.09327,-0.30603 1.847044,-2.42998 z m 26.951673,-7.06854 c 0,-5.33284 -0.19822,-5.94829 -2.07792,-6.45204 -4.165296,-1.11626 -4.386735,-0.84604 -4.386735,5.35309 0,6.18092 0.284076,6.58444 4.848495,6.887 1.3816,0.0916 1.61616,-0.74847 1.61616,-5.78805 z m 6.46465,-2.9186 c 0,-5.74704 -0.0714,-5.93362 -1.84704,-4.82473 -1.52926,0.95505 -1.84704,2.15369 -1.84704,6.96674 0,5.52706 0.091,5.76457 1.84704,4.82473 1.55502,-0.83223 1.84704,-1.93369 1.84704,-6.96674 z m -14.776349,0.94099 c 0,-5.61849 -0.16011,-6.08663 -2.368926,-6.92642 -1.302908,-0.49536 -2.549663,-0.90066 -2.770565,-0.90066 -0.220902,0 -0.40164,2.71469 -0.40164,6.03265 0,5.39293 0.220351,6.12122 2.077924,6.86788 3.370452,1.35475 3.463207,1.21887 3.463207,-5.07345 z m -18.685458,1.17726 c -0.285157,-0.89225 -60.683326,-19.02714 -63.738866,-19.13796 -0.38095,-0.0138 -0.69264,0.52494 -0.69264,1.19724 0,0.81485 10.39093,4.17809 31.168863,10.08844 17.142873,4.87633 31.722973,8.8977 32.400222,8.93637 0.67725,0.0387 1.065339,-0.44917 0.862421,-1.08409 z m 40.820967,-7.87123 0.029,-5.7933 -2.30881,1.51279 c -2.0666,1.35409 -2.3088,2.13588 -2.3088,7.45257 v 5.9398 l 2.27979,-1.65928 c 1.99852,-1.45457 2.28336,-2.374 2.3088,-7.45258 z m -32.75601,4.07469 c 1.523811,-1.24942 2.478041,-2.56681 2.120512,-2.92755 -0.748821,-0.75553 -8.123403,4.81989 -8.123403,6.14154 0,1.07952 2.208804,-0.10308 6.002891,-3.21399 z m -8.030712,-6.68936 -0.280984,-5.44485 -31.399741,-8.96852 c -17.269856,-4.93269 -32.127016,-8.98464 -33.015906,-9.00434 -1.3713,-0.0304 -1.61616,0.84216 -1.61616,5.75906 v 5.79487 l 32.554142,9.28324 c 17.904779,5.10578 32.888379,9.00023 33.296888,8.65431 0.40851,-0.3459 0.616302,-3.0791 0.461761,-6.07377 z m 47.280392,-2.35566 c 0,-2.9689 -0.33247,-5.398 -0.73882,-5.398 -1.98025,0 -2.95527,2.69805 -2.95527,8.17778 0,5.90282 0.0181,5.94491 1.84705,4.28977 1.44571,-1.30837 1.84704,-2.84442 1.84704,-7.06955 z m -20.48322,-0.30322 c -0.16281,-0.14783 -3.30901,-1.11482 -6.991557,-2.14885 l -6.695533,-1.88008 v 2.95151 c 0,2.87886 0.164777,2.99684 6.695533,4.7936 l 6.695537,1.84211 0.29602,-2.64476 c 0.1628,-1.45461 0.1628,-2.7657 0,-2.91353 z m 26.94787,-4.67334 c 0,-5.74704 -0.0714,-5.93362 -1.84704,-4.82473 -1.52926,0.95505 -1.84704,2.15368 -1.84704,6.96674 0,5.52705 0.091,5.76457 1.84704,4.82473 1.55502,-0.83223 1.84704,-1.93369 1.84704,-6.96674 z m -13.51436,-6.8967 c 7.18859,-5.56576 11.38396,-9.38412 10.6205,-9.66607 -2.94981,-1.08938 -10.58,-3.23343 -11.53982,-3.24263 -0.76336,-0.007 -21.706719,15.5801 -24.216737,18.02368 -0.3314,0.32263 10.656907,3.90656 12.330047,4.02155 0.50794,0.0349 6.27064,-4.07653 12.80601,-9.13653 z M 131.78158,83.871661 C 160.40587,61.776402 183.70898,43.568876 183.56625,43.410494 182.71697,42.46802 121.72604,26.769617 120.88213,27.276279 119.9064,27.86208 35.945047,92.83456 23.484517,102.64624 l -5.86219,4.61602 29.873758,8.55875 c 16.430567,4.70732 30.406458,8.4834 31.057539,8.3913 0.651079,-0.0921 24.603656,-18.24539 53.227956,-40.340649 z m 28.63907,-0.170615 c 14.69377,-11.370368 26.90506,-21.240693 27.13618,-21.934055 0.55913,-1.677396 1.54013,-2.395732 -31.53748,23.093366 -15.44368,11.900675 -27.89604,21.956803 -27.6719,22.346943 0.52258,0.90963 0.48993,0.93355 32.0732,-23.506254 z M 76.378902,56.607939 c 2.117988,-1.602356 1.916189,-1.87499 -2.010506,-2.716234 -2.564261,-0.54936 -3.001445,-0.385716 -3.001445,1.123481 0,3.233862 2.001852,3.870033 5.011951,1.592753 z M 93.397003,43.293815 104.80656,34.463244 101.24694,33.427416 C 99.289149,32.85771 97.249744,32.649918 96.714927,32.965655 96.18011,33.281392 90.62352,37.487778 84.366949,42.31318 l -11.375585,8.773457 3.574522,1.032883 c 1.965987,0.568086 3.990106,0.801579 4.498043,0.518874 0.507937,-0.282705 6.05782,-4.487766 12.333074,-9.344579 z"
       id="path847" />
    <text
       xml:space="preserve"
       style="font-style:normal;font-variant:normal;font-weight:normal;font-stretch:normal;font-size:25.712px;line-height:1.25;font-family:'Artifakt Element';-inkscape-font-specification:'Artifakt Element';stroke-width:1.37742"
       x="16.622341"
       y="219.90263"
       id="text851"><tspan
         sodipodi:role="line"
         id="tspan849"
         x="16.622341"
         y="219.90263"
         style="font-style:normal;font-variant:normal;font-weight:normal;font-stretch:normal;font-family:'Artifakt Element';-inkscape-font-specification:'Artifakt Element';stroke-width:1.37742">KOMERCYJNE</tspan></text>
  </g>
</svg>
