<?xml version="1.0" encoding="UTF-8" standalone="no"?>
<svg
   xmlns:dc="http://purl.org/dc/elements/1.1/"
   xmlns:cc="http://creativecommons.org/ns#"
   xmlns:rdf="http://www.w3.org/1999/02/22-rdf-syntax-ns#"
   xmlns:svg="http://www.w3.org/2000/svg"
   xmlns="http://www.w3.org/2000/svg"
   xmlns:sodipodi="http://sodipodi.sourceforge.net/DTD/sodipodi-0.dtd"
   xmlns:inkscape="http://www.inkscape.org/namespaces/inkscape"
   width="40mm"
   height="50mm"
   viewBox="0 0 40 50"
   version="1.1"
   id="svg8"
   inkscape:version="1.0.2 (1.0.2+r75+1)"
   sodipodi:docname="insulation.svg">
  <defs
     id="defs2" />
  <sodipodi:namedview
     id="base"
     pagecolor="#ffffff"
     bordercolor="#666666"
     borderopacity="1.0"
     inkscape:pageopacity="0.0"
     inkscape:pageshadow="2"
     inkscape:zoom="3.1772599"
     inkscape:cx="-46.654725"
     inkscape:cy="75.910627"
     inkscape:document-units="mm"
     inkscape:current-layer="layer1"
     inkscape:document-rotation="0"
     showgrid="false"
     inkscape:window-width="1848"
     inkscape:window-height="1016"
     inkscape:window-x="72"
     inkscape:window-y="27"
     inkscape:window-maximized="1" />
  <metadata
     id="metadata5">
    <rdf:RDF>
      <cc:Work
         rdf:about="">
        <dc:format>image/svg+xml</dc:format>
        <dc:type
           rdf:resource="http://purl.org/dc/dcmitype/StillImage" />
        <dc:title></dc:title>
      </cc:Work>
    </rdf:RDF>
  </metadata>
  <g
     inkscape:label="Layer 1"
     inkscape:groupmode="layer"
     id="layer1">
    <path
       style="fill:#000000;stroke-width:0.309653"
       d="m 10.773003,47.058584 c 0,-0.402807 0.263852,-1.067809 0.586339,-1.477784 0.575348,-0.731436 0.575348,-0.758979 0,-1.469505 -0.370001,-0.456931 -0.586339,-1.21016 -0.586339,-2.041475 0,-0.823809 0.219677,-1.596648 0.586339,-2.062786 0.575348,-0.731436 0.575348,-0.75898 0,-1.469504 -0.392523,-0.484745 -0.586339,-1.213201 -0.586339,-2.203756 0,-0.990554 0.193816,-1.71901 0.586339,-2.203755 0.575348,-0.710524 0.575348,-0.738068 0,-1.469504 -0.781067,-0.992966 -0.781067,-3.139687 0,-4.104261 0.575348,-0.710526 0.575348,-0.738069 0,-1.469505 -0.822592,-1.045756 -0.797895,-3.414571 0.04504,-4.319345 l 0.631369,-0.677696 -0.631369,-0.677696 c -0.842927,-0.904775 -0.867623,-3.273591 -0.04504,-4.319345 0.575348,-0.731437 0.575348,-0.75898 0,-1.469505 -0.781067,-0.964575 -0.781067,-3.111297 0,-4.10426 0.575348,-0.731437 0.575348,-0.75898 0,-1.469506 -0.795356,-0.9822218 -0.795356,-3.4027826 0,-4.4139127 0.575348,-0.7314374 0.575348,-0.7589799 0,-1.4695054 -0.782361,-0.9661748 -0.76621,-1.8941024 0.03297,-1.8941024 0.410464,0 0.619306,0.2064359 0.619306,0.6121688 0,0.3366929 0.349752,0.8413345 0.777225,1.1214259 0.73763,0.4833138 1.005435,0.4521282 5.256971,-0.6121689 3.393454,-0.8494914 5.117996,-1.1214258 7.111805,-1.1214258 2.474864,0 2.662747,0.046837 3.145902,0.7842257 0.659327,1.0062615 0.659327,2.9990523 0,4.0053135 -0.47869,0.7305733 -0.47869,0.8378775 0,1.568451 0.732189,1.1174612 0.658364,3.0891023 -0.156957,4.1918843 -0.368943,0.49902 -0.549654,0.90731 -0.401584,0.90731 0.449094,0 0.987935,1.505196 0.987935,2.759693 0,0.691249 -0.243524,1.491873 -0.586339,1.927693 -0.575348,0.731437 -0.575348,0.75898 0,1.469506 0.370002,0.456931 0.586339,1.210161 0.586339,2.041473 0,0.82381 -0.219678,1.596652 -0.586339,2.062786 -0.575348,0.731437 -0.575348,0.75898 0,1.469507 0.391597,0.483601 0.586339,1.213062 0.586339,2.196301 0,0.975735 -0.19773,1.723576 -0.586339,2.217613 -0.575348,0.731436 -0.575348,0.758979 0,1.469504 0.783009,0.966974 0.783009,3.130883 0,4.097857 -0.575348,0.710526 -0.575348,0.73807 0,1.469506 0.949888,1.207583 0.678052,3.984706 -0.466391,4.764801 -0.247847,0.16894 -0.247847,0.29554 0,0.46448 1.078227,0.734956 1.41155,3.452824 0.570692,4.653317 -0.75536,1.078425 -4.919071,0.975471 -9.736532,-0.240752 -2.02379,-0.510929 -4.084204,-0.928961 -4.578699,-0.928961 -0.901227,0 -1.662632,0.612145 -2.022069,1.625681 -0.289535,0.816426 -1.140573,0.674298 -1.140573,-0.190481 z m 16.47792,-1.148269 c 0.745206,-1.0026 0.484314,-2.282361 -0.611683,-3.000485 -0.735539,-0.481945 -0.962295,-0.463595 -4.064878,0.328923 -1.807236,0.461634 -3.843261,0.999698 -4.524498,1.195691 l -1.238615,0.356352 3.87067,1.013549 c 4.58972,1.201837 5.740675,1.220403 6.569004,0.105975 z m -9.123647,-2.823769 c 2.256601,-0.55053 4.102912,-1.081082 4.102912,-1.179006 0,-0.204647 -7.941337,-2.183117 -8.725241,-2.173768 -0.626116,0.0075 -1.802983,1.426357 -1.802983,2.173768 0,0.74741 1.176867,2.166303 1.802983,2.173769 0.28568,0.0034 2.365729,-0.444236 4.622329,-0.994763 z m 8.700206,-2.340207 c 0.987621,-0.835693 1.12337,-1.97472 0.352191,-2.955112 -0.84995,-1.080539 -1.378576,-1.062855 -6.342926,0.212181 -3.505249,0.900284 -3.905441,1.065782 -3.096538,1.28057 0.51093,0.135665 2.322403,0.631406 4.025498,1.101645 3.716262,1.026093 4.231999,1.062846 5.061775,0.360716 z m -8.6771,-3.307451 c 2.26931,-0.576458 4.190005,-1.112093 4.268211,-1.190302 0.0782,-0.0782 -1.83956,-0.638425 -4.261702,-1.244935 -3.966965,-0.993331 -4.486683,-1.059932 -5.238303,-0.671255 -1.40597,0.727058 -1.449558,3.023846 -0.0726,3.824892 0.766281,0.44578 0.670246,0.458785 5.304385,-0.7184 z m 9.410388,-3.31727 c 0.361492,-1.084484 -0.185465,-2.375486 -1.164047,-2.747544 -0.612087,-0.232714 -1.681992,-0.08493 -4.572943,0.631634 -5.600026,1.388054 -5.573803,1.288218 -0.663604,2.526514 4.795413,1.209346 5.883884,1.13952 6.400594,-0.410604 z m -8.9083,-2.47347 c 4.566612,-1.133701 4.600655,-1.048465 -0.970332,-2.429323 -2.890953,-0.716569 -3.960858,-0.864348 -4.572944,-0.631633 -0.930875,0.353918 -1.490162,1.579749 -1.217116,2.667652 0.208596,0.831111 1.547013,1.718024 2.287115,1.515575 0.255464,-0.06988 2.268439,-0.574899 4.473277,-1.122271 z m 8.598453,-2.768783 c 0.745206,-1.002599 0.484314,-2.282361 -0.611683,-3.000485 -0.735539,-0.481945 -0.962295,-0.463594 -4.064878,0.328923 -1.807236,0.461636 -3.843261,0.999699 -4.524498,1.195691 l -1.238615,0.356352 3.87067,1.013549 c 4.58972,1.201837 5.740675,1.220404 6.569004,0.105974 z m -9.123647,-2.823769 c 2.256601,-0.55053 4.102912,-1.081081 4.102912,-1.179006 0,-0.204647 -7.941337,-2.183118 -8.725241,-2.173769 -0.626116,0.0075 -1.802983,1.426357 -1.802983,2.173769 0,0.747411 1.176867,2.166303 1.802983,2.173769 0.28568,0.0034 2.365729,-0.444236 4.622329,-0.994763 z m 8.700206,-2.340207 c 0.987621,-0.835693 1.12337,-1.974719 0.352191,-2.955112 -0.84995,-1.080538 -1.378576,-1.062854 -6.342926,0.212182 -3.505249,0.900283 -3.905441,1.065782 -3.096538,1.280569 0.51093,0.135666 2.322403,0.631407 4.025498,1.101646 3.716262,1.026094 4.231999,1.062846 5.061775,0.360715 z m -8.6771,-3.307449 c 2.26931,-0.57646 4.190005,-1.112096 4.268211,-1.190303 0.0782,-0.0782 -1.83956,-0.638428 -4.261702,-1.244935 -3.966965,-0.993334 -4.486683,-1.059932 -5.238303,-0.671254 -1.40597,0.727055 -1.449558,3.023844 -0.0726,3.824888 0.766281,0.445781 0.670246,0.458788 5.304385,-0.718396 z m 9.410388,-3.317272 c 0.361492,-1.084483 -0.185465,-2.375486 -1.164047,-2.747544 -0.612087,-0.232714 -1.681992,-0.08493 -4.572943,0.631634 -5.600026,1.388053 -5.573803,1.288219 -0.663604,2.526514 4.795413,1.209346 5.883884,1.13952 6.400594,-0.410604 z m -8.9083,-2.473469 c 4.566612,-1.133701 4.600655,-1.048467 -0.970332,-2.429324 -2.890953,-0.716568 -3.960858,-0.864348 -4.572944,-0.631633 -0.930875,0.353918 -1.490162,1.57975 -1.217116,2.667652 0.208596,0.83111 1.547013,1.718024 2.287115,1.515578 0.255464,-0.06988 2.268439,-0.574903 4.473277,-1.122273 z m 8.598453,-2.768782 C 27.996129,10.845816 27.735237,9.5660534 26.63924,8.8479301 25.903701,8.3659858 25.676945,8.3843344 22.574362,9.176853 c -1.807236,0.4616365 -3.843261,0.999698 -4.524498,1.195692 l -1.238615,0.356351 3.87067,1.013551 c 4.58972,1.201836 5.740675,1.220404 6.569004,0.105975 z M 18.127276,9.0246451 c 2.256601,-0.5505277 4.102912,-1.0810799 4.102912,-1.179005 0,-0.2046475 -7.941337,-2.1831177 -8.725241,-2.173769 -0.626116,0.00747 -1.802983,1.4263579 -1.802983,2.173769 0,0.7474124 1.176867,2.1663029 1.802983,2.1737699 0.28568,0.0034 2.365729,-0.4442373 4.622329,-0.9947649 z M 26.600518,6.8978524 C 28.118251,6.0855857 27.920906,3.3974252 26.31393,2.9941002 25.591576,2.8128004 16.815696,4.7019427 17.092835,4.9790821 c 0.182465,0.182465 7.725639,2.1937166 8.331659,2.2214865 0.309238,0.014173 0.838449,-0.1220517 1.176024,-0.3027162 z M 7.6764667,24.87659 c 0,-22.3982786 0.00565,-22.6047145 0.6193077,-22.6047145 0.613651,0 0.619307,0.2064359 0.619307,22.6047145 0,22.398279 -0.0056,22.604716 -0.619307,22.604716 -0.6136518,0 -0.6193077,-0.206437 -0.6193077,-22.604716 z m 22.9143693,0 c 0,-22.3982786 0.0056,-22.6047145 0.619306,-22.6047145 0.613654,0 0.619308,0.2064359 0.619308,22.6047145 0,22.398279 -0.0056,22.604716 -0.619308,22.604716 -0.613652,0 -0.619306,-0.206437 -0.619306,-22.604716 z"
       id="path250" />
  </g>
</svg>
