<?xml version="1.0" encoding="UTF-8" standalone="no"?>
<svg
   xmlns:dc="http://purl.org/dc/elements/1.1/"
   xmlns:cc="http://creativecommons.org/ns#"
   xmlns:rdf="http://www.w3.org/1999/02/22-rdf-syntax-ns#"
   xmlns:svg="http://www.w3.org/2000/svg"
   xmlns="http://www.w3.org/2000/svg"
   xmlns:sodipodi="http://sodipodi.sourceforge.net/DTD/sodipodi-0.dtd"
   xmlns:inkscape="http://www.inkscape.org/namespaces/inkscape"
   width="50mm"
   height="70mm"
   viewBox="0 0 50 70"
   version="1.1"
   id="svg8"
   inkscape:version="1.0.1 (3bc2e813f5, 2020-09-07)"
   sodipodi:docname="interrior.svg">
  <defs
     id="defs2" />
  <sodipodi:namedview
     id="base"
     pagecolor="#ffffff"
     bordercolor="#666666"
     borderopacity="1.0"
     inkscape:pageopacity="0.0"
     inkscape:pageshadow="2"
     inkscape:zoom="2.8"
     inkscape:cx="111.5934"
     inkscape:cy="126.60382"
     inkscape:document-units="mm"
     inkscape:current-layer="layer1"
     inkscape:document-rotation="0"
     showgrid="false"
     inkscape:window-width="1920"
     inkscape:window-height="1137"
     inkscape:window-x="-8"
     inkscape:window-y="-8"
     inkscape:window-maximized="1" />
  <metadata
     id="metadata5">
    <rdf:RDF>
      <cc:Work
         rdf:about="">
        <dc:format>image/svg+xml</dc:format>
        <dc:type
           rdf:resource="http://purl.org/dc/dcmitype/StillImage" />
        <dc:title></dc:title>
      </cc:Work>
    </rdf:RDF>
  </metadata>
  <g
     inkscape:label="Layer 1"
     inkscape:groupmode="layer"
     id="layer1">
    <path
       style="fill:#000000;stroke-width:0.16784"
       d="m 19.66574,50.14225 c 0,-0.113805 0.624024,-0.829009 1.38672,-1.589345 l 1.38672,-1.382428 h -5.095489 -5.095493 l 0.04307,-14.583309 0.04307,-14.583308 8.591783,-0.04335 8.591779,-0.04335 2.405348,2.381191 2.405352,2.381192 v 6.478988 c 0,3.563446 0.05877,6.478991 0.130623,6.478991 0.07183,0 0.695643,-0.564112 1.386225,-1.25358 0.690579,-0.689469 1.352989,-1.253581 1.47202,-1.253581 0.173958,0 0.207857,1.680822 0.172758,8.566127 l -0.04366,8.566128 -8.890398,0.04326 c -6.977312,0.03395 -8.8904,-0.0012 -8.8904,-0.163652 z m 4.719074,-0.798901 c 0,-0.33429 0.08428,-0.501433 0.252807,-0.501433 0.168538,0 0.252808,0.167143 0.252808,0.501433 v 0.501431 h 1.339071 1.339075 l 0.05135,-0.793933 c 0.02827,-0.436665 0.127217,-0.793936 0.219909,-0.793936 0.09271,0 0.191655,0.357271 0.219906,0.793936 l 0.05136,0.793933 h 0.749189 c 0.720073,0 0.749187,-0.01949 0.749187,-0.501431 0,-0.33429 0.08428,-0.501433 0.252807,-0.501433 0.168539,0 0.252808,0.167143 0.252808,0.501433 0,0.489546 0.01976,0.501431 0.833458,0.501431 h 0.833457 l 0.05135,-0.754677 c 0.02827,-0.415072 0.127217,-0.754677 0.219907,-0.754677 0.0927,0 0.191656,0.339605 0.219908,0.754677 l 0.05135,0.754677 h 0.749188 c 0.720073,0 0.749189,-0.01949 0.749189,-0.501431 0,-0.33429 0.08426,-0.501433 0.252806,-0.501433 0.16854,0 0.252809,0.167143 0.252809,0.501433 v 0.501431 h 1.348307 1.348306 v -1.337152 -1.337151 h -0.505614 c -0.337076,0 -0.505616,-0.08359 -0.505616,-0.250717 0,-0.167144 0.16854,-0.250716 0.505616,-0.250716 0.485919,0 0.505614,-0.02891 0.505614,-0.742537 V 45.18397 l -0.703188,-0.05141 c -0.965222,-0.07055 -1.043613,-0.434103 -0.108014,-0.500917 l 0.726929,-0.0519 0.05019,-1.04465 0.05019,-1.044648 h -0.513658 c -0.344225,0 -0.513656,-0.08271 -0.513656,-0.250716 0,-0.167145 0.168537,-0.250718 0.505614,-0.250718 h 0.505616 v -1.086434 -1.086436 h -0.758424 c -0.561794,0 -0.758423,-0.06499 -0.758423,-0.250715 0,-0.185716 0.196629,-0.250717 0.758423,-0.250717 h 0.758424 v -1.242478 c 0,-1.222119 -0.0074,-1.243343 -0.450485,-1.295365 -0.61807,-0.07256 -0.695442,-0.433588 -0.107255,-0.500476 0.463229,-0.05267 0.474528,-0.07916 0.522265,-1.223852 l 0.04879,-1.170006 -1.986984,1.934492 c -1.092842,1.06397 -4.755226,4.597798 -8.138635,7.85295 -3.383405,3.255153 -6.17693,5.976133 -6.207828,6.046629 -0.0309,0.0705 0.784405,0.128178 1.811786,0.128178 h 1.867968 z m 3.707845,-2.383593 c 0,-0.272823 5.751743,-5.973606 6.027003,-5.973606 0.158667,0 0.208916,0.743729 0.208916,3.092164 v 3.092163 h -3.11796 c -2.396144,0 -3.117959,-0.04879 -3.117959,-0.210721 z m 5.730305,-2.630726 c 0,-1.287009 -0.01996,-2.340017 -0.04439,-2.340017 -0.02441,0 -1.104153,1.053008 -2.399413,2.340017 l -2.355023,2.340014 h 2.399415 2.399413 z m -5.374861,-2.864437 5.374861,-5.20445 V 29.680944 23.10175 H 31.463426 29.103889 V 20.761735 18.42172 h -8.174112 -8.174112 v 14.123661 14.123663 h 5.158791 5.158789 z m -13.50144,-6.240191 v -2.094018 h 1.011232 1.01123 v -1.086435 -1.086434 h -0.758421 c -0.417134,0 -0.758423,-0.07379 -0.758423,-0.163981 0,-0.09018 0.243805,-0.654298 0.541788,-1.253579 0.54076,-1.087532 0.543154,-1.0896 1.261918,-1.0896 h 0.720131 l 0.584005,1.150084 c 0.321202,0.632544 0.537042,1.196656 0.479643,1.253577 -0.0574,0.05692 -0.433008,0.103485 -0.834693,0.103485 H 17.47474 v 1.07846 1.078458 l 1.053365,0.04977 1.053365,0.04977 v 2.005727 2.005727 l -2.317402,0.04649 -2.317405,0.04649 z m 4.177652,-0.0465 0.04845,-1.546083 h -1.860247 -1.86025 v 1.593522 1.593523 l 1.81179,-0.04745 1.811786,-0.04745 z m -0.806882,-4.812049 c 0,-0.04963 -0.153225,-0.388094 -0.340501,-0.752148 -0.4835,-0.939899 -0.988091,-0.909087 -1.477648,0.09023 l -0.36847,0.752148 h 1.09331 c 0.601319,0 1.093309,-0.0406 1.093309,-0.09023 z m 2.612344,6.750125 c -0.670394,-0.363645 -0.758422,-0.651963 -0.758422,-2.484109 0,-1.641887 0.02976,-1.805226 0.390073,-2.140923 0.214541,-0.199884 0.480623,-0.363424 0.59129,-0.363424 0.110668,0 0.6746,-0.47738 1.253175,-1.060841 0.802537,-0.809311 1.267235,-1.131346 1.959894,-1.358197 1.935466,-0.633876 4.086777,0.0053 5.461839,1.622405 0.372534,0.438149 0.805392,0.796633 0.961907,0.796633 0.156515,0 0.429051,0.158326 0.605636,0.351837 0.274698,0.301024 0.321066,0.616908 0.321066,2.187343 0,1.803939 -0.0081,1.842446 -0.472879,2.238894 l -0.47288,0.403388 -4.751812,-0.0052 c -3.112579,-0.0034 -4.868092,-0.06815 -5.088887,-0.18792 z m 1.227994,-2.308535 c 0.05144,-1.825877 -0.06337,-2.178489 -0.709307,-2.178489 -0.653975,0 -0.771495,0.30917 -0.771495,2.029679 0,1.468693 0.03499,1.652841 0.356544,1.876198 0.231999,0.161155 0.482204,0.201693 0.716287,0.116051 0.33057,-0.120946 0.363658,-0.270443 0.407971,-1.843439 z m 7.048419,1.735723 c -0.05628,-0.145415 -0.102308,-0.747131 -0.102308,-1.337152 0,-0.842138 -0.05434,-1.072763 -0.252808,-1.072763 -0.139051,0 -0.252807,-0.112817 -0.252807,-0.250717 0,-0.137901 0.113757,-0.250716 0.252807,-0.250716 0.139052,0 0.252808,-0.140295 0.252808,-0.311746 0,-0.171462 0.155522,-0.507827 0.345606,-0.747479 L 29.79509,32.13686 29.419849,31.633517 c -1.383018,-1.855153 -4.226521,-2.211163 -6.13435,-0.768028 -0.838436,0.634215 -1.187286,1.197116 -0.931396,1.502896 0.11009,0.131558 0.256838,0.450842 0.326099,0.709525 0.108981,0.407018 0.226513,0.481581 0.87313,0.553904 0.983409,0.109984 0.957764,0.404384 -0.04081,0.468295 l -0.787996,0.05044 -0.05471,1.328896 -0.05469,1.328894 3.346665,-3.34e-4 c 2.982377,-3.34e-4 3.335529,-0.02918 3.244363,-0.26478 z m -3.721689,-2.570335 c -0.0604,-0.09691 -5.24e-4,-0.2178 0.132949,-0.268614 0.391669,-0.14906 1.889056,-0.0044 1.845127,0.178322 -0.05514,0.22931 -1.840649,0.310812 -1.978076,0.09029 z m 5.646019,2.238841 c 0.09038,-0.235806 0.164366,-0.945452 0.164366,-1.576985 0,-1.530002 -0.190886,-2.005728 -0.80481,-2.005728 -0.769401,0 -0.880572,0.253223 -0.880572,2.005728 0,1.752504 0.11116,2.005727 0.880572,2.005727 0.355961,0 0.517548,-0.108169 0.640444,-0.428742 z m 2.186828,-13.655985 c 0,-0.02455 -0.834265,-0.869434 -1.853922,-1.877519 l -1.853922,-1.832883 v 1.87752 1.877518 h 1.853922 c 1.019657,0 1.853922,-0.02007 1.853922,-0.04464 z m 2.185812,8.192903 c -0.0029,-0.666487 -0.04653,-2.980838 -0.09703,-5.143003 -0.08993,-3.849054 -0.08254,-3.967819 0.354079,-5.682894 0.430519,-1.691145 0.641316,-2.175198 0.854984,-1.963296 0.05567,0.05522 0.282945,0.802347 0.505048,1.660295 0.384761,1.486293 0.403976,1.814294 0.407196,6.950301 l 0.0034,5.390391 H 36.5196 35.508371 l -0.0053,-1.211794 z m 1.522034,-0.292502 v -1.002865 h -0.505615 -0.505618 v 1.002865 1.002863 h 0.505618 0.505615 z m 0,-5.181462 v -3.677168 h -0.505615 -0.505618 v 3.677167 3.677166 h 0.505618 0.505615 z m -0.16948,-4.387528 c -5.25e-4,-0.114904 -0.08752,-0.50979 -0.193334,-0.877506 -0.180423,-0.626989 -0.199631,-0.642585 -0.308784,-0.250715 -0.373268,1.340062 -0.373441,1.337152 0.0785,1.337152 0.233507,0 0.424135,-0.09402 0.423616,-0.208931 z"
       id="path907" />
  </g>
</svg>
