<?xml version="1.0" encoding="UTF-8" standalone="no"?>
<svg
   xmlns:dc="http://purl.org/dc/elements/1.1/"
   xmlns:cc="http://creativecommons.org/ns#"
   xmlns:rdf="http://www.w3.org/1999/02/22-rdf-syntax-ns#"
   xmlns:svg="http://www.w3.org/2000/svg"
   xmlns="http://www.w3.org/2000/svg"
   xmlns:sodipodi="http://sodipodi.sourceforge.net/DTD/sodipodi-0.dtd"
   xmlns:inkscape="http://www.inkscape.org/namespaces/inkscape"
   width="40mm"
   height="50mm"
   viewBox="0 0 40 50"
   version="1.1"
   id="svg8"
   inkscape:version="1.0.1 (3bc2e813f5, 2020-09-07)"
   sodipodi:docname="krakowwieliczka.svg">
  <defs
     id="defs2" />
  <sodipodi:namedview
     id="base"
     pagecolor="#ffffff"
     bordercolor="#666666"
     borderopacity="1.0"
     inkscape:pageopacity="0.0"
     inkscape:pageshadow="2"
     inkscape:zoom="3.1772599"
     inkscape:cx="-46.654725"
     inkscape:cy="75.910627"
     inkscape:document-units="mm"
     inkscape:current-layer="layer1"
     inkscape:document-rotation="0"
     showgrid="false"
     inkscape:window-width="3840"
     inkscape:window-height="2066"
     inkscape:window-x="-11"
     inkscape:window-y="-11"
     inkscape:window-maximized="1" />
  <metadata
     id="metadata5">
    <rdf:RDF>
      <cc:Work
         rdf:about="">
        <dc:format>image/svg+xml</dc:format>
        <dc:type
           rdf:resource="http://purl.org/dc/dcmitype/StillImage" />
        <dc:title />
      </cc:Work>
    </rdf:RDF>
  </metadata>
  <g
     inkscape:label="Layer 1"
     inkscape:groupmode="layer"
     id="layer1">
    <path
       style="fill:#000000;stroke-width:0.0837446"
       d="M 3.1062593,34.475816 C 2.8815085,34.275001 2.8346715,34.172428 2.8346715,33.881035 c 0,-0.291394 0.04684,-0.393967 0.2715878,-0.594782 0.1493726,-0.133464 0.366415,-0.242663 0.4823165,-0.242663 0.581003,0 1.3317023,-0.553734 2.0292593,-1.496833 0.2598057,-0.351257 0.4809418,-0.651993 0.4914128,-0.668302 0.010468,-0.01631 0.4164315,0.268726 0.9021347,0.633409 1.0082873,0.757059 2.1962182,1.414469 2.7021031,1.495363 0.2309363,0.03693 0.4845223,0.0089 0.7664443,-0.08475 0.459191,-0.152519 1.914449,-1.095244 2.543007,-1.647376 l 0.393975,-0.346071 0.527214,0.482329 c 1.047359,0.95819 2.285869,1.632233 2.999123,1.632233 0.72189,0 1.681737,-0.561997 2.613524,-1.530238 l 0.646978,-0.672291 0.609189,0.578607 c 1.165858,1.107331 2.34912,1.691284 3.251375,1.604588 0.824942,-0.07927 1.948297,-0.843358 2.731185,-1.857718 l 0.252981,-0.327779 0.662218,0.565113 c 1.282327,1.094292 2.471803,1.691572 3.225528,1.619657 0.73577,-0.0702 1.974027,-0.773452 3.06135,-1.738648 l 0.562272,-0.499119 0.277839,0.396149 c 0.842723,1.201563 1.503611,1.861677 1.863861,1.861677 0.103497,0 0.316306,0.128129 0.472908,0.284731 0.390015,0.390016 0.386885,0.718542 -0.01063,1.116063 -0.268544,0.268543 -0.328697,0.291611 -0.662373,0.254 -0.538211,-0.06066 -1.088018,-0.359598 -1.680148,-0.913503 -0.288129,-0.269532 -0.545316,-0.490058 -0.571526,-0.490058 -0.02621,0 -0.341731,0.188913 -0.701156,0.419806 -1.254412,0.805824 -2.430415,1.122913 -3.418805,0.92182 -0.610575,-0.124225 -1.681735,-0.612829 -2.373777,-1.082785 l -0.513232,-0.34853 -0.556436,0.421232 c -1.912658,1.447917 -3.743701,1.432077 -5.878216,-0.05085 l -0.53023,-0.36837 -0.516019,0.387899 c -1.920267,1.44349 -3.615743,1.45865 -5.678927,0.05078 l -0.712649,-0.486296 -0.538172,0.368634 c -0.807058,0.552816 -1.828775,1.022237 -2.460453,1.130439 -0.4762176,0.08157 -0.6427539,0.07408 -1.1191025,-0.05035 C 8.5527164,34.425432 7.8235801,34.087656 7.053563,33.589536 L 6.4571272,33.203703 6.0612048,33.574042 C 5.5254213,34.075205 5.0205871,34.383185 4.4354844,34.565832 3.730895,34.785777 3.4303926,34.765426 3.1062593,34.475812 Z M 9.0455144,31.121592 C 8.4226641,30.855893 7.0678722,29.978379 6.4737481,29.45583 L 6.0968982,29.124379 6.2643867,28.899363 c 0.093095,-0.12507 2.1575296,-1.446838 4.6478163,-2.975794 l 4.480327,-2.750778 -0.0305,-1.659475 c -0.01678,-0.91271 -0.04548,-1.675621 -0.0638,-1.695357 -0.01831,-0.01974 -1.907676,-0.161016 -4.198588,-0.313955 C 8.8087269,19.351066 6.7673806,19.181407 6.5633142,19.126987 5.2391095,18.773843 4.9908459,16.918837 6.1638894,16.142513 L 6.503355,15.917854 h 5.61701 c 5.457977,0 5.625776,0.0047 5.926621,0.167489 0.368213,0.19919 12.351537,12.493153 12.570021,12.89587 0.349014,0.643308 0.244143,1.442945 -0.254655,1.941744 -0.214173,0.214174 -0.330941,0.272289 -0.467499,0.232672 -0.377555,-0.109531 -1.527322,-0.854702 -2.16356,-1.402215 l -0.660605,-0.568482 -0.814411,0.829016 c -0.892404,0.908406 -1.432514,1.238045 -2.172024,1.325629 -0.922784,0.10929 -2.261287,-0.555118 -3.355093,-1.665406 l -0.525482,-0.533399 -0.814428,0.805547 c -1.284155,1.270152 -2.194259,1.625452 -3.232075,1.261786 -0.619094,-0.21694 -1.72597,-0.952581 -2.268894,-1.507929 -0.228565,-0.233797 -0.446389,-0.425085 -0.484052,-0.425085 -0.03767,0 -0.318207,0.211851 -0.62343,0.470781 -1.070614,0.90823 -2.351222,1.6192 -2.9153983,1.618576 C 9.7272219,31.364281 9.3582745,31.25501 9.0455177,31.121592 Z M 28.689115,23.118917 c -1.286363,-0.279509 -2.5912,-1.308512 -3.148705,-2.483087 -0.882116,-1.858484 -0.551084,-3.927169 0.854637,-5.340795 1.212668,-1.219487 2.850111,-1.680896 4.483049,-1.26326 0.89422,0.228703 1.414259,0.528074 2.11004,1.214692 0.942773,0.930355 1.398572,2.00888 1.398572,3.309337 0,1.300457 -0.455799,2.378981 -1.398572,3.309337 -0.695781,0.686617 -1.21582,0.985988 -2.11004,1.214692 -0.741078,0.189535 -1.439202,0.202001 -2.188981,0.03908 z"
       id="path860" />
  </g>
</svg>
