<?xml version="1.0" encoding="UTF-8" standalone="no"?>
<svg
   xmlns:dc="http://purl.org/dc/elements/1.1/"
   xmlns:cc="http://creativecommons.org/ns#"
   xmlns:rdf="http://www.w3.org/1999/02/22-rdf-syntax-ns#"
   xmlns:svg="http://www.w3.org/2000/svg"
   xmlns="http://www.w3.org/2000/svg"
   xmlns:sodipodi="http://sodipodi.sourceforge.net/DTD/sodipodi-0.dtd"
   xmlns:inkscape="http://www.inkscape.org/namespaces/inkscape"
   width="40mm"
   height="50mm"
   viewBox="0 0 40 50"
   version="1.1"
   id="svg8"
   inkscape:version="1.0.2 (1.0.2+r75+1)"
   sodipodi:docname="krakowwieliczka.svg">
  <defs
     id="defs2" />
  <sodipodi:namedview
     id="base"
     pagecolor="#ffffff"
     bordercolor="#666666"
     borderopacity="1.0"
     inkscape:pageopacity="0.0"
     inkscape:pageshadow="2"
     inkscape:zoom="3.1772599"
     inkscape:cx="-46.654725"
     inkscape:cy="75.910627"
     inkscape:document-units="mm"
     inkscape:current-layer="layer1"
     inkscape:document-rotation="0"
     showgrid="false"
     inkscape:window-width="1848"
     inkscape:window-height="1016"
     inkscape:window-x="72"
     inkscape:window-y="27"
     inkscape:window-maximized="1" />
  <metadata
     id="metadata5">
    <rdf:RDF>
      <cc:Work
         rdf:about="">
        <dc:format>image/svg+xml</dc:format>
        <dc:type
           rdf:resource="http://purl.org/dc/dcmitype/StillImage" />
        <dc:title></dc:title>
      </cc:Work>
    </rdf:RDF>
  </metadata>
  <g
     inkscape:label="Layer 1"
     inkscape:groupmode="layer"
     id="layer1">
    <path
       style="fill:#000000;stroke-width:0.0107115"
       d="m 28.800384,49.761788 c -1.92631,-0.127583 -3.71495,-0.740009 -5.307579,-1.817304 -1.707861,-1.155241 -3.06177,-2.795739 -3.874049,-4.694093 -0.417813,-0.976457 -0.686663,-2.00257 -0.801261,-3.058151 -0.06258,-0.576409 -0.05795,-0.03443 -0.06159,-7.222272 l -0.0033,-6.579577 h 10.711738 10.71174 l -1.06e-4,6.42426 c -1.08e-4,4.105787 -0.0039,6.509306 -0.01079,6.659915 -0.03446,0.759977 -0.134301,1.452842 -0.311029,2.158379 -0.554296,2.212886 -1.796101,4.19034 -3.555668,5.662061 -1.341307,1.121883 -2.941882,1.900771 -4.642191,2.259031 -0.494782,0.104251 -1.012087,0.173698 -1.554265,0.208657 -0.198281,0.01279 -1.104451,0.01215 -1.301639,-9.44e-4 z m 0.937262,-1.852106 c 0.235885,-0.01256 0.462625,-0.03443 0.674526,-0.06501 0.08231,-0.01189 0.150243,-0.02255 0.150957,-0.02371 7.36e-4,-0.0011 -0.0025,-0.07439 -0.007,-0.16276 -0.08832,-1.704462 -0.1689,-4.154458 -0.240089,-7.299928 -0.07297,-3.224261 -0.06956,-2.939705 -0.06956,-5.818556 v -2.675715 h -0.90517 -0.905128 l -4.3e-5,2.530606 c -4.3e-5,2.340372 -0.01193,4.197745 -0.04267,6.665271 -0.03391,2.722134 -0.08402,4.583475 -0.174775,6.492958 l -0.01281,0.269542 0.112369,0.0175 c 0.440045,0.06853 0.961649,0.09419 1.419384,0.06981 z m -4.552415,-1.950097 c 0.169735,-0.01044 0.393432,-0.03085 0.399448,-0.03643 0.0017,-0.0015 -0.0019,-0.08423 -0.0079,-0.183655 -0.07822,-1.280335 -0.148979,-3.267361 -0.193345,-5.429427 -0.0063,-0.306351 -0.01638,-0.785962 -0.02244,-1.0658 -0.006,-0.279841 -0.01377,-1.071028 -0.01715,-1.758195 l -0.0062,-1.249395 -0.290451,-0.0063 c -0.159749,-0.0035 -0.431444,-0.0087 -0.603767,-0.01161 l -0.313313,-0.0053 -7.4e-5,1.068192 c -1.9e-4,2.588557 -0.09452,6.366306 -0.208806,8.361953 -0.0087,0.152728 -0.01426,0.279327 -0.01226,0.281331 0.002,0.002 0.07307,0.01107 0.157917,0.02015 0.316216,0.03383 0.719342,0.03905 1.118313,0.0145 z m 9.067997,0.01154 c 0.138811,-0.0057 0.321979,-0.01753 0.407039,-0.02649 0.08507,-0.009 0.156435,-0.01632 0.158605,-0.01633 0.0021,0 9.44e-4,-0.03979 -0.0028,-0.08839 -0.0091,-0.119085 -0.04524,-0.828612 -0.06504,-1.277353 -0.04113,-0.932156 -0.07675,-2.065846 -0.101821,-3.240248 -0.03854,-1.804622 -0.05369,-2.950095 -0.05378,-4.062075 l -1.07e-4,-1.046769 -0.313314,0.0053 c -0.172322,0.0029 -0.444028,0.0082 -0.603793,0.01161 l -0.290484,0.0063 -0.0061,1.260105 c -0.0033,0.693059 -0.01108,1.491476 -0.01719,1.774261 -0.0061,0.282786 -0.01614,0.757575 -0.02227,1.055089 -0.03623,1.755532 -0.08404,3.241252 -0.144981,4.504213 -0.02246,0.465429 -0.04661,0.917184 -0.0542,1.013426 l -0.0064,0.08152 0.06258,0.0069 c 0.163402,0.01788 0.348936,0.0309 0.544594,0.03825 0.117828,0.0044 0.223872,0.0087 0.235655,0.0095 0.01178,8.04e-4 0.134994,-0.0032 0.273803,-0.0088 z m -7.563022,-10.71692 v -0.86228 l -0.200842,-2.2e-5 c -0.303138,-3.2e-5 -2.452288,0.03044 -2.605587,0.03695 -0.311054,0.01321 -0.811442,0.08178 -1.253253,0.171751 -0.671217,0.136686 -1.406301,0.365323 -2.10791,0.655634 -0.107742,0.04459 -0.194506,0.08231 -0.192808,0.08384 0.0017,0.0015 0.09949,0.03896 0.217319,0.08319 1.063682,0.399263 2.090408,0.608305 3.197401,0.650997 0.271102,0.01045 2.005728,0.03692 2.664502,0.04063 l 0.281178,0.0015 z m 6.769708,0.846622 c 1.306555,-0.01666 1.689468,-0.02704 1.997707,-0.05418 0.93476,-0.08229 1.805359,-0.281213 2.708416,-0.618827 l 0.234046,-0.0875 -0.06802,-0.03052 c -0.364902,-0.163756 -1.063763,-0.409639 -1.540855,-0.542125 -0.639762,-0.177657 -1.453071,-0.319135 -1.949505,-0.33912 -0.157947,-0.0064 -2.314003,-0.03669 -2.605587,-0.03665 l -0.200843,2.4e-5 v 0.862281 0.862281 l 0.08301,1.91e-4 c 0.04565,1.08e-4 0.649389,-0.007 1.341624,-0.01585 z m -8.545149,-1.822644 0.425785,-0.0066 v -0.325447 -0.325448 h -0.605204 -0.605203 v 0.335834 0.335835 l 0.179418,-0.0038 c 0.09868,-0.0021 0.371022,-0.0068 0.605204,-0.01038 z m 9.680575,-0.320076 v -0.337415 h -0.605204 -0.605203 v 0.326703 0.326703 l 0.163352,0.0015 c 0.218152,0.002 0.968351,0.01524 1.012242,0.01784 l 0.03481,0.0021 z M 23.522755,31.703816 c 1.056486,-0.162524 1.998692,-0.2486 2.924461,-0.267163 0.429649,-0.0086 1.02571,3.44e-4 1.311917,0.01972 0.198909,0.01347 0.231365,0.0254 0.38322,0.141008 0.05932,0.04516 0.129209,0.09349 0.155318,0.107412 l 0.04747,0.02531 h 0.996176 c 1.152964,0 1.031854,0.01255 1.207583,-0.125168 0.145617,-0.11412 0.191973,-0.136545 0.306591,-0.148304 0.05091,-0.0052 0.287853,-0.01481 0.526543,-0.02129 0.592545,-0.01611 1.287485,0.0015 1.927917,0.0488 0.587715,0.04342 1.313085,0.132547 1.826321,0.224393 0.08248,0.01476 0.151168,0.02686 0.15264,0.02688 0.0015,2.1e-5 0.0027,-0.633584 0.0027,-1.40802 v -1.408067 l -0.05088,0.0047 c -0.02798,0.0026 -0.132823,0.0098 -0.232976,0.01593 -0.100153,0.0062 -0.493001,0.03502 -0.872992,0.06414 -1.346115,0.103156 -1.657936,0.121868 -2.32441,0.139483 -0.536468,0.01418 -1.02396,0.0023 -1.105694,-0.02692 -0.02783,-0.01 -0.100137,-0.04807 -0.160674,-0.0847 -0.198641,-0.120195 -0.06902,-0.107887 -1.172314,-0.111317 -1.121236,-0.0035 -1.056958,-0.0084 -1.228842,0.09333 -0.05957,0.03524 -0.129993,0.0719 -0.156503,0.08145 -0.160629,0.05788 -1.549849,0.04625 -2.62969,-0.02202 -0.444774,-0.02812 -1.937694,-0.139217 -2.011096,-0.149659 l -0.04017,-0.0057 v 1.408698 c 0,0.774783 0.0026,1.408696 0.0058,1.408696 0.0032,0 0.09842,-0.01424 0.211554,-0.03165 z m 6.72369,-3.412122 v -0.5088 h -0.905127 -0.905127 v 0.5088 0.508799 h 0.905127 0.905127 z"
       id="path182" />
    <path
       style="fill:#000000;stroke-width:0.122563"
       d="M 9.3069101,33.019766 C 6.9439053,32.68895 4.7491392,31.524068 2.980202,29.661838 1.2486472,27.83896 0.16221528,25.37718 -0.04524402,22.806384 c -0.061196,-0.758323 -0.047064,-0.827302 0.1694881,-0.827302 0.4048002,0 1.07385892,-0.705304 1.33750542,-1.409962 0.9397032,-2.511582 0.2725373,-7.095589 -1.17596082,-8.07987 l -0.4386364,-0.29806 0.7135974,-0.456483 C 1.5219113,11.11986 2.782409,10.551062 4.0685036,10.151838 5.1096383,9.8286536 5.1299413,9.8150146 4.998697,9.5269646 4.9249015,9.3650006 4.8044348,9.2308086 4.7309931,9.2287596 c -0.073442,-0.002 -0.039306,-0.05866 0.075865,-0.125805 0.1154962,-0.06733 0.1783174,-0.203067 0.1400915,-0.302681 -0.094087,-0.245186 -0.2591754,-0.227736 -0.3205453,0.03388 -0.027674,0.117967 -0.048474,0.01161 -0.046226,-0.236351 l 0.00408,-0.450838 0.2796498,0.379043 c 0.1654711,0.224283 0.2552403,0.483419 0.2198651,0.634683 -0.1060962,0.453668 0.094737,0.59102 0.7258107,0.496384 0.448536,-0.06726 0.5603048,-0.129108 0.5165789,-0.28585 -0.030693,-0.110012 -0.091616,-0.393058 -0.1353863,-0.628992 -0.043771,-0.235935 -0.1067577,-0.525491 -0.1399729,-0.643458 -0.037323,-0.1325596 0.00667,-0.2144864 0.115185,-0.2144864 0.096567,0 0.3346855,-0.1213367 0.5291541,-0.269637 L 7.0487201,7.3450114 6.81807,7.6115209 C 6.6912125,7.7581001 6.4919341,7.908336 6.3752297,7.945376 6.1818429,8.0067545 6.1771166,8.0732786 6.3218919,8.6960966 c 0.087371,0.375855 0.1845845,0.709101 0.2160312,0.740549 0.031448,0.03145 0.5845064,-0.0016 1.229021,-0.0735 0.644514,-0.07187 1.215382,-0.130553 1.268597,-0.13041 0.05322,1.46e-4 0.0784,-0.355119 0.05598,-0.789467 -0.03595,-0.6962666 -0.07221,-0.7958528 -0.306409,-0.8415101 -0.146096,-0.028483 -0.03733,-0.059293 0.241688,-0.06848 0.685318,-0.022545 1.0429479,-0.3356132 1.1517449,-1.0082281 l 0.08743,-0.5405046 0.01534,0.4690403 c 0.012,0.366948 -0.06264,0.5470217 -0.3429219,0.8273029 -0.197044,0.1970446 -0.445235,0.3582626 -0.551535,0.3582626 -0.145934,0 -0.192863,0.1275849 -0.191599,0.520895 0.0035,1.100894 -0.01864,1.084937 1.4537849,1.045779 l 1.302218,-0.03463 0.03649,-0.766021 c 0.0305,-0.6402905 0.0039,-0.7660207 -0.162632,-0.7660207 -0.342333,0 -0.915646,-0.6784855 -0.915646,-1.0836188 0,-0.4903254 0.111966,-0.7548329 0.319521,-0.7548329 0.11468,0 0.164704,0.130777 0.152369,0.3983319 -0.01723,0.3737494 -0.02153,0.3774026 -0.06962,0.059207 -0.07054,-0.4666997 -0.279703,-0.2951786 -0.279703,0.2293695 0,0.2945176 0.09704,0.5243507 0.312271,0.7395805 0.265993,0.265994 0.401341,0.3060357 0.913303,0.2701963 0.574111,-0.040195 0.699116,0.069755 0.183905,0.1617454 -0.208941,0.037308 -0.250477,0.1552603 -0.281369,0.7990408 l -0.03625,0.75527 0.649059,0.07653 c 0.356982,0.04209 0.948897,0.08774 1.315365,0.101441 l 0.666306,0.02492 0.143413,-0.702061 c 0.131532,-0.643915 0.12483,-0.7079587 -0.08093,-0.7732662 -0.250407,-0.079477 -0.721243,-0.627897 -0.720535,-0.8392649 2.45e-4,-0.075168 0.108849,0.041091 0.241326,0.2583661 0.132475,0.2172731 0.380461,0.4300786 0.551076,0.4729004 0.170616,0.042815 0.308273,0.1132434 0.305905,0.1564927 -0.0023,0.043246 -0.07707,0.4176249 -0.165999,0.8319449 l -0.161693,0.753309 0.589349,0.116529 c 0.583267,0.115327 0.590136,0.112958 0.665335,-0.229424 0.04179,-0.190274 0.04507,-0.39597 0.0073,-0.457101 -0.03778,-0.06113 0.04371,-0.254045 0.18109,-0.428696 0.137382,-0.174651 0.33587,-0.5701986 0.441087,-0.8789921 0.105216,-0.3087944 0.213267,-0.5394817 0.24011,-0.5126387 0.02684,0.026837 -0.04129,0.2918123 -0.151415,0.5888188 -0.110121,0.297007 -0.191933,0.69997 -0.181805,0.895472 0.01142,0.220484 -0.07854,0.445782 -0.236901,0.593324 -0.432123,0.402585 -0.25661,0.587487 0.922005,0.9713244 1.325114,0.431546 2.60838,1.037364 3.409073,1.609389 l 0.5894,0.421076 -0.408074,0.240769 c -0.480854,0.283711 -1.083806,1.344782 -1.379187,2.427083 -0.110384,0.404459 -0.230992,1.4248 -0.268015,2.267423 -0.112112,2.551545 0.409392,4.215567 1.454753,4.641851 l 0.488987,0.199404 -0.07065,1.041789 c -0.09638,1.421092 -0.343151,2.276497 -1.113766,3.860747 -1.756712,3.611501 -5.134691,5.910292 -8.986563,6.115562 -0.587974,0.03134 -1.3765479,0.01392 -1.7523849,-0.03869 z m 3.6555039,-0.368487 0.520895,-0.141193 v -1.492038 -1.492039 l -0.495728,-0.505109 -0.495728,-0.505112 0.373165,0.05477 c 0.514523,0.07551 0.498429,-0.248374 -0.02516,-0.506489 -0.328509,-0.161944 -0.351749,-0.196852 -0.132588,-0.199153 0.146159,-0.0016 0.366774,-0.03488 0.490253,-0.07408 0.207461,-0.06588 0.208915,-0.05837 0.01914,0.09877 -0.190866,0.158045 -0.188702,0.180469 0.03065,0.317451 0.213651,0.133427 0.236015,0.111891 0.236015,-0.227251 0,-0.304482 -0.07259,-0.405166 -0.387586,-0.537613 -0.378906,-0.159316 -0.381651,-0.166141 -0.122564,-0.304801 0.145764,-0.07801 0.265025,-0.195049 0.265025,-0.260087 0,-0.149504 -0.45571,-0.156432 -0.510683,-0.0078 -0.02247,0.06077 -0.111969,0.0332 -0.19889,-0.06128 -0.131069,-0.142459 -0.118625,-0.171771 0.07293,-0.171771 0.127029,0 0.330788,-0.110307 0.452799,-0.245126 0.214458,-0.236973 0.214071,-0.245189 -0.01164,-0.247004 -0.189519,-0.0016 -0.199968,-0.02308 -0.05549,-0.114475 0.358972,-0.227089 0.499804,0.09514 0.180942,0.414006 -0.175092,0.175086 -0.175092,0.192595 0,0.192595 0.212845,0 0.263373,0.309482 0.07004,0.428971 -0.178072,0.110056 -0.1502,0.269579 0.06128,0.350732 0.156833,0.06018 0.183845,-0.135987 0.183845,-1.335085 v -1.405634 h -0.490254 c -0.383545,0 -0.491199,0.04668 -0.494597,0.214485 -0.0024,0.117968 -0.07823,0.347838 -0.168524,0.510823 -0.163938,0.295896 -0.164387,0.295953 -0.302066,0.0387 -0.07584,-0.1417 -0.137883,-0.371571 -0.137883,-0.510822 0,-0.213672 -0.07651,-0.253185 -0.490254,-0.253185 -0.426146,0 -0.490499,0.03607 -0.49213,0.275768 -0.001,0.151672 -0.05303,0.356649 -0.115553,0.455502 -0.172743,0.273127 0.0828,0.52152 0.375426,0.364913 0.250158,-0.133881 0.270437,-0.08691 0.152547,0.35334 -0.042,0.156845 -0.212882,0.337078 -0.379739,0.400515 -0.221527,0.08423 -0.286238,0.180892 -0.239848,0.358288 0.03494,0.133619 0.02733,0.246743 -0.01692,0.251388 -0.04425,0.0047 -0.231249,0.02836 -0.41556,0.05272 -0.4331639,0.05723 -0.5208699,-0.100802 -0.3007939,-0.541956 0.0978,-0.196044 0.1475229,-0.511024 0.1110049,-0.703178 -0.05879,-0.309388 -0.04412,-0.329869 0.132085,-0.184311 0.298708,0.246757 0.494969,0.05859 0.271566,-0.260354 -0.101847,-0.145394 -0.185169,-0.389965 -0.185169,-0.543492 0,-0.243951 -0.0618,-0.279136 -0.4902539,-0.279136 -0.413745,0 -0.490253,0.03951 -0.490253,0.253184 0,0.139251 -0.06205,0.369121 -0.137884,0.510822 -0.137679,0.257255 -0.138128,0.257197 -0.302066,-0.0387 -0.0903,-0.162987 -0.166136,-0.392858 -0.168525,-0.510825 -0.0034,-0.167749 -0.111018,-0.214486 -0.493897,-0.214486 h -0.489564 l 0.0047,2.267423 c 0.0026,1.247083 0.04886,2.267422 0.102869,2.267422 0.05401,0 0.193508,-0.105312 0.309993,-0.234026 0.201683,-0.222858 0.199665,-0.237875 -0.04228,-0.314667 -0.310135,-0.09843 -0.330536,-0.376709 -0.03959,-0.540044 0.204273,-0.114677 0.204273,-0.124347 0,-0.203049 -0.117967,-0.04545 -0.214486,-0.14292 -0.214486,-0.2166 0,-0.08962 0.04868,-0.08528 0.147077,0.01312 0.08089,0.08089 0.287717,0.148333 0.459612,0.149867 0.298865,0.0027 0.294919,0.01147 -0.09019,0.201286 -0.464789,0.229079 -0.456787,0.472193 0.01531,0.465273 l 0.324033,-0.0047 -0.395863,0.408427 c -0.333073,0.343644 -0.366926,0.428292 -0.213433,0.533672 0.140138,0.09621 0.1185,0.107266 -0.09334,0.04768 -0.275435,-0.07747 -0.275768,-0.07571 -0.275768,1.458013 v 1.535577 l 0.520895,0.142402 c 1.199334,0.32787 3.5068149,0.32728 4.7186899,-0.0012 z m -2.494324,-0.02928 c -0.05367,-0.08685 -0.03247,-0.106808 0.05563,-0.05236 0.07969,0.04925 0.174737,0.0036 0.215895,-0.103625 0.04044,-0.105388 0.150358,-0.191613 0.244261,-0.191613 0.227464,0 0.218375,-0.20062 -0.01312,-0.28945 -0.363908,-0.139644 -0.191233,-0.351048 0.245127,-0.300106 0.317936,0.03712 0.428971,0.0035 0.428971,-0.129582 0,-0.09881 0.03261,-0.147049 0.07247,-0.107188 0.03986,0.03986 0.03438,0.192488 -0.01217,0.339173 -0.06159,0.194062 -0.121389,0.229959 -0.219548,0.131799 -0.07419,-0.07419 -0.247966,-0.1285 -0.386156,-0.12068 -0.206744,0.0117 -0.213258,0.02415 -0.03677,0.07027 0.317701,0.08303 0.260998,0.32528 -0.146683,0.626692 -0.251956,0.186279 -0.387398,0.224584 -0.447909,0.126676 z m -0.457411,-0.306746 c -0.1529379,-0.152937 -0.08234,-0.390405 0.132777,-0.446621 0.165618,-0.04328 0.153304,-0.05929 -0.05404,-0.07027 -0.1476939,-0.0078 -0.3022819,0.04039 -0.3435279,0.107126 -0.07307,0.118237 -0.160426,0.06904 -0.625597,-0.352355 -0.123766,-0.112115 -0.168496,-0.309728 -0.131781,-0.582174 0.0589,-0.437045 -0.09942,-0.539346 -0.401197,-0.259241 -0.133523,0.123935 -0.146296,0.120317 -0.06686,-0.01893 0.06248,-0.10953 0.05092,-0.142921 -0.03179,-0.0918 -0.0715,0.04419 -0.100616,0.204381 -0.06471,0.355987 0.06237,0.263349 0.04976,0.260685 -0.282817,-0.05973 -0.259759,-0.250267 -0.312783,-0.370701 -0.208933,-0.474551 0.07655,-0.07655 0.106328,-0.224755 0.06619,-0.329357 -0.05427,-0.141434 -0.01876,-0.169384 0.138506,-0.109033 0.130341,0.05002 0.181592,0.03278 0.133573,-0.04492 -0.0501,-0.08106 0.03599,-0.09748 0.241139,-0.046 0.338168,0.08487 1.04968,-0.143884 1.04968,-0.337483 0,-0.06321 -0.06894,-0.07462 -0.153204,-0.02535 -0.08426,0.04927 -0.05128,-0.02673 0.07329,-0.168889 0.124571,-0.14216 0.190257,-0.317102 0.14597,-0.388759 -0.04429,-0.07166 -0.0542,-0.130287 -0.02203,-0.130287 0.03217,0 0.138485,-0.0307 0.236253,-0.06821 0.110521,-0.04241 0.2022809,0.02554 0.2425809,0.179655 0.03565,0.136327 0.01019,0.235965 -0.05658,0.221417 -0.06677,-0.01455 -0.1820109,0.06545 -0.2560909,0.177762 -0.100624,0.152562 -0.09329,0.254093 0.02898,0.401424 0.146279,0.176255 0.185423,0.177525 0.3683849,0.01195 0.145817,-0.131963 0.242567,-0.147411 0.336283,-0.0537 0.09372,0.09371 0.156681,0.09094 0.218852,-0.0097 0.06279,-0.101603 0.147713,-0.08654 0.302669,0.0537 0.189371,0.171378 0.233535,0.173053 0.365648,0.01387 0.194674,-0.23457 0.04744,-0.724645 -0.190307,-0.633416 -0.139553,0.05355 -0.149478,0.01856 -0.04834,-0.170417 0.07456,-0.139304 0.202645,-0.20888 0.309245,-0.167973 0.111523,0.04279 0.181975,-0.002 0.181975,-0.115658 0,-0.124792 0.07975,-0.164626 0.243748,-0.121742 0.134063,0.03506 0.216972,0.107069 0.184244,0.160024 -0.03273,0.05296 0.147141,0.278188 0.39971,0.500517 0.252567,0.22233 0.364462,0.368178 0.248654,0.324108 -0.115809,-0.04407 -0.24316,-0.02738 -0.283001,0.03708 -0.03984,0.06446 -0.165704,0.112857 -0.279694,0.107535 -0.127608,-0.0059 -0.148379,-0.03343 -0.05404,-0.0715 0.211412,-0.0853 0.187531,-0.296093 -0.07173,-0.633103 -0.197932,-0.257292 -0.235426,-0.266092 -0.381881,-0.08962 -0.136953,0.165018 -0.12614,0.237029 0.069,0.459574 0.127271,0.145143 0.162459,0.223584 0.0782,0.174313 -0.08426,-0.04927 -0.153204,-0.04138 -0.153204,0.01752 0,0.190768 0.805379,0.50606 0.991581,0.388187 0.23104,-0.14626 0.388915,-0.141979 0.296203,0.008 -0.04456,0.0721 0.01076,0.0883 0.136607,0.04001 0.157274,-0.06035 0.192781,-0.0324 0.138507,0.109032 -0.04013,0.104603 -0.01036,0.252815 0.0662,0.329358 0.10385,0.10385 0.05082,0.224284 -0.208933,0.474548 -0.332575,0.320418 -0.345191,0.323082 -0.282817,0.05973 0.0359,-0.151606 0.0068,-0.3118 -0.06471,-0.355986 -0.08272,-0.05112 -0.09428,-0.01773 -0.03179,0.0918 0.07944,0.139254 0.06667,0.142873 -0.06686,0.01893 -0.311196,-0.288851 -0.45416,-0.17567 -0.397515,0.314701 0.03781,0.32729 -0.0039,0.515964 -0.138643,0.627824 -0.161745,0.134232 -0.19269,0.127979 -0.19269,-0.03895 0,-0.109368 0.05899,-0.198852 0.131088,-0.198852 0.0721,0 0.113464,-0.124095 0.09192,-0.275767 -0.03299,-0.232268 -0.126099,-0.281785 -0.590701,-0.314113 -0.571323,-0.03976 -1.009736,-0.268031 -0.514765,-0.268031 0.148301,0 0.269638,-0.05516 0.269638,-0.122563 0,-0.06741 -0.08451,-0.122564 -0.187794,-0.122564 -0.103287,0 -0.227382,-0.09652 -0.275767,-0.214485 -0.111928,-0.272888 -0.394382,-0.335894 -0.394382,-0.08797 0,0.103287 -0.124096,0.235774 -0.275768,0.294415 l -0.2757669,0.106622 0.3064079,0.12228 c 0.368088,0.146894 0.188872,0.242995 -0.5515349,0.295748 -0.420371,0.02996 -0.495381,0.07861 -0.526222,0.341338 -0.02087,0.177726 0.0049,0.247993 0.06128,0.167314 0.12363,-0.176828 1.2793179,-0.278288 1.2180799,-0.10694 -0.02427,0.06791 -0.272596,0.113028 -0.5518369,0.100266 -0.407279,-0.01861 -0.505798,0.01776 -0.498035,0.183845 0.0059,0.127594 0.03339,0.148257 0.0715,0.05385 0.034,-0.08426 0.110646,-0.153204 0.170322,-0.153204 0.05967,0 0.07779,0.08005 0.04024,0.177898 -0.05467,0.142479 0.0193,0.163688 0.371537,0.106526 0.4472479,-0.07258 0.6368909,0.137894 0.2559579,0.284071 -0.2754159,0.105687 -0.221629,0.327919 0.06145,0.253892 0.134912,-0.03527 0.214388,-0.01413 0.176611,0.04699 -0.08036,0.130031 -0.345309,0.146877 -0.462761,0.02942 z M 9.8996681,30.405306 c -0.01649,-0.323164 -0.188411,-0.582955 -0.384037,-0.580298 -0.07601,9.48e-4 -0.05547,0.06096 0.04565,0.133195 0.14932,0.106656 0.134503,0.120608 -0.07889,0.07429 -0.26992,-0.05859 -0.309264,0.07756 -0.113209,0.391754 0.07804,0.125063 0.06353,0.145023 -0.05303,0.07299 -0.106161,-0.06561 -0.130852,-0.05129 -0.07299,0.04234 0.0481,0.07782 0.218653,0.141501 0.37901,0.141501 0.224815,0 0.288337,-0.06313 0.27749,-0.275768 z m 1.9758029,0.183845 c -0.008,-0.05055 -0.0038,-0.119499 0.0094,-0.153204 0.129573,-0.332356 0.08026,-0.45585 -0.161098,-0.403457 -0.213397,0.04632 -0.228213,0.03237 -0.07889,-0.07429 0.113437,-0.08103 0.127941,-0.132038 0.03788,-0.133195 -0.191014,-0.0025 -0.324673,0.223212 -0.340034,0.574109 -0.0094,0.215503 0.0536,0.281958 0.267472,0.281958 0.153898,0 0.273284,-0.04137 0.265302,-0.09192 z M 8.9178211,30.445908 c 0.287392,-0.01868 0.154245,-0.316365 -0.141499,-0.316365 -0.162088,0 -0.26914,0.04137 -0.237894,0.09192 0.03124,0.05055 -0.02592,0.09192 -0.127034,0.09192 -0.101114,0 -0.210421,0.043 -0.242902,0.09556 -0.03248,0.05256 0.08836,0.08461 0.268535,0.07124 0.180174,-0.01337 0.396532,-0.0288 0.480794,-0.03427 z m 4.0416999,-0.06651 c -0.186969,-0.07806 -0.315661,-0.16621 -0.285983,-0.195889 0.02968,-0.02968 -0.07932,-0.05397 -0.242232,-0.05397 -0.162907,0 -0.296194,0.06489 -0.296194,0.144218 0,0.155018 0.207034,0.216445 0.793799,0.235517 l 0.370553,0.01205 z M 10.29666,30.068266 c 0,-0.06741 -0.02432,-0.122564 -0.05404,-0.122564 -0.02972,0 -0.08814,0.05516 -0.129797,0.122564 -0.04166,0.06741 -0.01734,0.122563 0.05404,0.122563 0.07138,0 0.129797,-0.05516 0.129797,-0.122563 z m 0.857944,0 c 0,-0.06741 -0.05516,-0.122564 -0.122563,-0.122564 -0.06741,0 -0.122564,0.05516 -0.122564,0.122564 0,0.06741 0.05516,0.122563 0.122564,0.122563 0.06741,0 0.122563,-0.05516 0.122563,-0.122563 z m -0.285981,1.266487 c -0.181883,-0.181882 -0.05174,-0.222358 0.561672,-0.174691 0.51772,0.04023 0.58363,0.06779 0.337126,0.140987 -0.404974,0.120247 -0.797536,0.134968 -0.898798,0.0337 z M 8.8370141,29.587476 c -0.095,-0.06015 -0.260463,-0.07599 -0.367691,-0.03521 -0.107227,0.04077 0.01169,-0.107766 0.264256,-0.330095 0.252569,-0.22233 0.432437,-0.447563 0.399709,-0.500518 -0.03273,-0.05296 0.05018,-0.124965 0.184243,-0.160022 0.134062,-0.03506 0.243749,-0.01375 0.243749,0.04735 0,0.06109 -0.04137,0.111438 -0.09192,0.111863 -0.05055,3.68e-4 -0.19101,0.174833 -0.312117,0.387571 -0.175556,0.308381 -0.18798,0.40723 -0.06128,0.487601 0.0874,0.05544 0.10376,0.100806 0.03635,0.100806 -0.06741,0 -0.200292,-0.0492 -0.295294,-0.109346 z m 4.2556239,-0.09319 c 0.08848,-0.0354 0.194186,-0.03105 0.234914,0.0097 0.04073,0.04073 -0.03166,0.06969 -0.160865,0.06438 -0.14278,-0.0059 -0.171821,-0.03492 -0.07405,-0.07405 z m -1.805794,-1.213404 c 0.0059,-0.142781 0.03492,-0.171822 0.07405,-0.07405 0.0354,0.08847 0.03105,0.194186 -0.0097,0.234914 -0.04073,0.04073 -0.06969,-0.03166 -0.06437,-0.160865 z m -2.5816319,-0.02042 c 10e-4,-0.05055 0.06139,-0.174653 0.134126,-0.275768 0.112975,-0.157051 0.122622,-0.153706 0.0662,0.02296 -0.04134,0.129439 0.01165,0.227288 0.141642,0.261551 0.14808,0.03903 0.12854,0.05883 -0.06807,0.06896 -0.151673,0.0078 -0.274924,-0.02715 -0.273891,-0.0777 z m 3.3073359,-0.0044 c 0,-0.05296 0.110307,-0.0963 0.245127,-0.0963 0.13482,0 0.245127,0.04334 0.245127,0.0963 0,0.05296 -0.110307,0.0963 -0.245127,0.0963 -0.13482,0 -0.245127,-0.04334 -0.245127,-0.0963 z M 9.7144841,27.85252 c -0.374,-0.142454 -0.347949,-0.215307 0.0498,-0.139274 0.226164,0.04324 0.3758509,-0.0065 0.4902529,-0.162984 0.09058,-0.123871 0.164686,-0.168074 0.164686,-0.09823 0,0.268926 -0.4214129,0.508404 -0.7047389,0.400486 z m 1.3638329,-0.04656 c -0.03685,-0.09604 -0.04116,-0.274359 -0.0096,-0.396264 0.0455,-0.175574 0.06039,-0.164323 0.07165,0.05412 0.0098,0.190852 0.09092,0.275768 0.263294,0.275768 0.143749,0 0.295949,-0.116614 0.359922,-0.275768 0.07501,-0.186618 0.113356,-0.211279 0.118613,-0.07629 0.01389,0.356877 -0.687436,0.721925 -0.803898,0.418429 z M 8.6083761,27.595492 c 0.02336,-0.112583 -0.09488,-0.156068 -0.385935,-0.141928 -0.284052,0.0138 -0.363574,-0.01425 -0.246151,-0.08682 0.138146,-0.08538 0.142479,-0.138186 0.02128,-0.259384 -0.239332,-0.239333 -0.194661,-0.601636 0.06231,-0.505332 0.18234,0.06833 0.190981,0.05144 0.05766,-0.112692 -0.138964,-0.171084 -0.110285,-0.170208 0.251794,0.0077 0.29674,0.145796 0.373236,0.239409 0.27939,0.341897 -0.07107,0.07762 -0.147615,0.09141 -0.170086,0.03065 -0.05498,-0.148673 -0.51068,-0.141745 -0.51068,0.0078 0,0.238432 0.492048,0.399472 0.712574,0.233213 0.173437,-0.130757 0.182497,-0.128652 0.05636,0.01309 -0.104027,0.116904 -0.111626,0.215476 -0.02469,0.320227 0.08617,0.103832 0.0843,0.17686 -0.0059,0.232641 -0.07235,0.04471 -0.116397,0.0083 -0.09787,-0.08101 z m 0.777688,-0.284877 c 0.04043,-0.13482 0.102848,-0.419695 0.13871,-0.633054 0.05612,-0.333911 0.0248,-0.396438 -0.224914,-0.449048 -0.281487,-0.05931 -0.281002,-0.06053 0.01629,-0.04105 0.384201,0.02517 0.454715,0.382182 0.188584,0.954782 -0.1057,0.227421 -0.159103,0.303184 -0.118674,0.168365 z m 1.7878919,-0.428972 c 0,-0.168525 0.02782,-0.237467 0.06182,-0.153204 0.034,0.08426 0.034,0.222145 0,0.306408 -0.034,0.08426 -0.06182,0.01532 -0.06182,-0.153204 z m 0.422732,0.05125 c -0.224685,-0.585523 -0.01174,-0.799949 0.762934,-0.768231 0.434608,0.0178 0.43121,0.02086 -0.101947,0.09192 -0.530403,0.0707 -0.550843,0.08878 -0.533464,0.471846 0.01998,0.440338 -0.0153,0.496904 -0.127523,0.204462 z M 8.5501311,26.18765 c 0.08426,-0.034 0.222147,-0.034 0.306409,0 0.08426,0.034 0.01532,0.06183 -0.153205,0.06183 -0.168524,0 -0.237466,-0.02782 -0.153204,-0.06183 z m -0.582176,-0.16011 c 0,-0.06529 0.08273,-0.08697 0.183845,-0.04817 0.101115,0.0388 0.183845,0.09222 0.183845,0.118717 0,0.02649 -0.08273,0.04817 -0.183845,0.04817 -0.101115,0 -0.183845,-0.05342 -0.183845,-0.118717 z M 7.1100116,30.99066 V 29.706892 L 6.7456137,29.518454 c -0.3227765,-0.166914 -0.356277,-0.167273 -0.2932955,-0.0032 0.088887,0.231636 -0.3741854,0.257908 -0.5655164,0.03209 -0.5224759,-0.616667 -0.7375257,-0.899899 -0.7376549,-0.97153 -8.2e-5,-0.04562 0.1640479,-0.164858 0.3647343,-0.264974 0.3355012,-0.16737 0.3898772,-0.162368 0.6752665,0.06212 0.1707098,0.134282 0.2807351,0.292118 0.2445001,0.350746 -0.067825,0.109744 0.3133982,0.364029 0.5457427,0.364029 0.084777,0 0.1306211,-0.487824 0.1306211,-1.389806 0,-1.370369 -0.0044,-1.391795 -0.3121753,-1.532043 -0.397327,-0.181034 -0.4294865,-0.178654 -0.3509639,0.02597 0.1367002,0.356235 -0.5470121,0.04513 -0.9195153,-0.418397 C 5.0955273,25.236103 5.0538476,25.04314 5.3696114,25.04314 c 0.1213376,0 0.2819784,-0.06136 0.3569789,-0.136365 0.1644273,-0.164427 0.7928452,0.237844 0.7157274,0.45816 -0.039532,0.112946 0.4054685,0.413585 0.6121792,0.413585 0.108512,0 0.052002,-1.172214 -0.07977,-1.654605 -0.2587652,-0.947322 -1.200368,-1.76628 -2.0402161,-1.774479 l -0.2757674,-0.0027 v 4.338224 4.338225 l 0.5821758,0.373129 c 0.5697445,0.36516 1.5947228,0.870026 1.7771699,0.875369 0.050554,0.0015 0.091922,-0.575004 0.091922,-1.281076 z m 8.6889044,0.485063 0.748477,-0.438672 v -4.361266 -4.361269 l -0.494841,0.06638 c -1.228367,0.16476 -2.056518,1.40243 -1.877712,2.80624 0.06943,0.545059 0.08669,0.566665 0.355118,0.444359 0.155182,-0.0707 0.26042,-0.190633 0.233862,-0.266505 -0.07488,-0.213907 0.539473,-0.612263 0.717006,-0.464923 0.14586,0.121052 0.215846,0.143128 0.453751,0.143128 0.188788,0 0.145614,0.22092 -0.09192,0.470368 -0.117967,0.123881 -0.273859,0.327868 -0.346426,0.453301 -0.165903,0.286767 -0.842303,0.499559 -0.73993,0.232779 0.08022,-0.209051 0.01752,-0.219286 -0.300539,-0.04906 -0.213221,0.114113 -0.23707,0.268235 -0.23707,1.532044 0,0.772842 0.03121,1.405167 0.06934,1.405167 0.203358,0 0.527102,-0.269402 0.480929,-0.4002 -0.02938,-0.08323 0.07755,-0.246335 0.237628,-0.362445 0.266361,-0.1932 0.323266,-0.195038 0.670804,-0.02167 0.208863,0.104195 0.379752,0.218809 0.379752,0.254699 0,0.03589 -0.132608,0.222848 -0.294686,0.415466 -0.162076,0.192619 -0.315849,0.413706 -0.341715,0.491308 -0.02586,0.07761 -0.20082,0.157977 -0.388781,0.17861 -0.249326,0.02736 -0.324233,-0.0081 -0.276984,-0.131258 0.05252,-0.136854 0.0079,-0.142877 -0.23576,-0.03184 -0.291959,0.133025 -0.300526,0.174616 -0.300526,1.459198 v 1.322268 l 0.415876,-0.173764 c 0.22873,-0.09557 0.752689,-0.371165 1.164352,-0.612434 z M 4.53618,26.636491 c 0,-2.778104 -0.043187,-4.289719 -0.1225633,-4.289719 -0.079329,0 -0.1225632,1.484379 -0.1225632,4.208009 0,3.711753 0.030824,4.371429 0.2042723,4.371429 0.022472,0 0.040853,-1.930374 0.040853,-4.289719 z m 12.378904,-0.129797 c 0,-2.691572 -0.04326,-4.159922 -0.122563,-4.159922 -0.07935,0 -0.122564,1.493599 -0.122564,4.235671 0,2.79257 0.04176,4.209863 0.122564,4.159922 0.07781,-0.04809 0.122563,-1.594596 0.122563,-4.235671 z M 6.1855521,29.324417 c -0.094809,-0.153404 0.1483544,-0.144515 0.4490581,0.01642 0.134126,0.07178 0.3097484,0.107472 0.3902738,0.07931 0.080528,-0.02816 -0.074202,-0.156265 -0.3438435,-0.284679 -0.2696404,-0.128413 -0.4971487,-0.301987 -0.5055748,-0.385719 -0.00843,-0.08373 -0.022217,-0.207393 -0.030638,-0.274804 -0.00843,-0.06741 -0.09632,-0.122563 -0.1953189,-0.122563 -0.1154026,0 -0.1527173,0.07109 -0.1039794,0.198103 0.063562,0.165642 0.035446,0.176391 -0.1715769,0.06559 -0.1361775,-0.07288 -0.281946,-0.09816 -0.3239291,-0.05617 -0.1105535,0.110553 0.1647984,0.405296 0.3786317,0.405296 0.1042295,0 0.1542641,0.07215 0.1171343,0.168909 -0.074712,0.194696 0.1493515,0.465669 0.3053368,0.369264 0.057719,-0.03567 0.073211,-0.1162 0.034428,-0.178952 z m 8.7064129,-0.114094 c 0.113189,0 0.163299,0.05798 0.116105,0.134345 -0.05177,0.08377 0.0032,0.116702 0.145971,0.08748 0.136254,-0.02789 0.214414,-0.131936 0.192987,-0.25691 -0.02001,-0.116723 0.04138,-0.210042 0.138197,-0.210042 0.215515,0 0.515,-0.342898 0.399962,-0.457935 -0.04638,-0.04637 -0.200117,-0.01201 -0.341644,0.07638 -0.226193,0.141261 -0.247812,0.135916 -0.1787,-0.04419 0.05772,-0.150427 0.02173,-0.193126 -0.135436,-0.160644 -0.11773,0.02433 -0.205806,0.14218 -0.195724,0.261883 0.0115,0.136601 -0.136819,0.291629 -0.398331,0.416335 -0.229164,0.10928 -0.416663,0.245572 -0.416663,0.302869 0,0.0573 0.106682,0.04708 0.23707,-0.0227 0.130387,-0.06978 0.32668,-0.126876 0.436206,-0.126876 z m -1.408656,-0.356159 c 0,-0.334216 -0.01838,-0.347482 -0.29843,-0.215322 -0.275665,0.130092 -0.283566,0.157264 -0.10357,0.356159 0.279864,0.309245 0.402,0.266454 0.402,-0.140837 z M 10.29666,26.636491 c 0,-0.06741 -0.05516,-0.122564 -0.122563,-0.122564 -0.06741,0 -0.122564,0.05516 -0.122564,0.122564 0,0.06741 0.05516,0.122564 0.122564,0.122564 0.06741,0 0.122563,-0.05516 0.122563,-0.122564 z m 0.676056,-0.357329 c -0.224206,-0.08757 -0.676056,-0.04398 -0.676056,0.06521 0,0.02585 0.206826,0.04311 0.459613,0.03837 0.350092,-0.0065 0.401668,-0.03124 0.216443,-0.103586 z M 6.2375538,26.054315 c -0.039119,-0.247763 0.045202,-0.266194 0.3935945,-0.08604 0.2084937,0.107817 0.4068758,0.168232 0.4408486,0.13426 0.033974,-0.03397 -0.1661381,-0.178033 -0.4446906,-0.32014 -0.2785524,-0.142107 -0.4721867,-0.313831 -0.4302976,-0.381609 0.093694,-0.1516 -0.1783118,-0.501917 -0.3211656,-0.413629 -0.056828,0.03512 -0.070038,0.15861 -0.029355,0.274418 0.060324,0.171722 0.043511,0.182302 -0.091147,0.05736 -0.090813,-0.08426 -0.2350837,-0.153204 -0.3206005,-0.153204 -0.2400041,0 -0.05512,0.335307 0.225321,0.408645 0.1369393,0.03582 0.2125993,0.123974 0.1681337,0.195922 -0.044466,0.07194 -0.04676,0.185966 -0.0051,0.253377 0.087647,0.141816 0.4360792,0.167574 0.414458,0.03065 z m 9.1162922,-0.250151 c -0.02088,-0.193683 0.03643,-0.270743 0.201372,-0.270743 0.126813,0 0.262315,-0.08273 0.301119,-0.183845 0.08587,-0.223774 -0.177398,-0.243876 -0.401275,-0.03065 -0.131228,0.124987 -0.145508,0.102414 -0.07754,-0.122564 0.04582,-0.151672 0.03548,-0.275767 -0.02299,-0.275767 -0.187092,0 -0.383404,0.269531 -0.318847,0.437767 0.03902,0.101681 -0.114076,0.23921 -0.407908,0.366436 -0.258703,0.112016 -0.404486,0.228663 -0.323961,0.259214 0.08053,0.03055 0.25615,-0.0032 0.390274,-0.07496 0.335736,-0.179679 0.421517,-0.163733 0.334804,0.06224 -0.05273,0.137404 -0.01251,0.179953 0.140092,0.14818 0.137773,-0.02869 0.20365,-0.141052 0.184859,-0.315312 z M 9.1935891,23.979137 c 0,-1.136938 -0.0224,-1.2761 -0.183845,-1.142112 -0.136382,0.113188 -0.183845,0.415072 -0.183845,1.169336 0,1.065081 0.07415,1.448884 0.25797,1.335277 0.06034,-0.03729 0.10972,-0.650422 0.10972,-1.362501 z M 10.785037,23.72561 c 0.0016,-1.14476 -0.02933,-1.378838 -0.181968,-1.378838 -0.152192,0 -0.183845,0.230395 -0.183845,1.338173 0,1.413003 0.07581,1.874031 0.260306,1.582984 0.057,-0.08992 0.104475,-0.783958 0.105507,-1.542319 z m 1.593325,0.25824 c 0.0015,-0.88425 -0.0369,-1.135477 -0.181969,-1.191148 -0.155371,-0.05962 -0.183845,0.107638 -0.183845,1.079936 0,1.239013 0.08172,1.677024 0.260307,1.395291 0.05699,-0.08992 0.104475,-0.66775 0.105507,-1.284079 z m -3.6750269,0.385217 c 0,-0.1284 -0.129372,-0.183845 -0.428971,-0.183845 -0.299599,0 -0.428972,0.05544 -0.428972,0.183845 0,0.1284 0.129373,0.183846 0.428972,0.183846 0.299599,0 0.428971,-0.05544 0.428971,-0.183846 z m 1.5933249,0 c 0,-0.132775 -0.136181,-0.183845 -0.4902539,-0.183845 -0.354071,0 -0.490253,0.05107 -0.490253,0.183845 0,0.132778 0.136182,0.183846 0.490253,0.183846 0.3540729,0 0.4902539,-0.05107 0.4902539,-0.183846 z m 1.593324,0 c 0,-0.132775 -0.136181,-0.183845 -0.490253,-0.183845 -0.354073,0 -0.490254,0.05107 -0.490254,0.183845 0,0.132778 0.136181,0.183846 0.490254,0.183846 0.354072,0 0.490253,-0.05107 0.490253,-0.183846 z m 1.470762,0 c 0,-0.1284 -0.129373,-0.183845 -0.428973,-0.183845 -0.299599,0 -0.428971,0.05544 -0.428971,0.183845 0,0.1284 0.129372,0.183846 0.428971,0.183846 0.2996,0 0.428973,-0.05544 0.428973,-0.183846 z M 8.7033351,23.817532 c 0,-0.161955 -0.08171,-0.245127 -0.240813,-0.245127 -0.132449,0 -0.29985,0.110308 -0.372003,0.245127 -0.117794,0.2201 -0.09321,0.245127 0.240814,0.245127 0.290294,0 0.372002,-0.05385 0.372002,-0.245127 z m 1.5933249,0 c 0,-0.204272 -0.08171,-0.245127 -0.4902539,-0.245127 -0.408544,0 -0.490253,0.04085 -0.490253,0.245127 0,0.204273 0.08171,0.245127 0.490253,0.245127 0.4085449,0 0.4902539,-0.04085 0.4902539,-0.245127 z m 1.593324,0 c 0,-0.204272 -0.08171,-0.245127 -0.490253,-0.245127 -0.408545,0 -0.490254,0.04085 -0.490254,0.245127 0,0.204273 0.08171,0.245127 0.490254,0.245127 0.408545,0 0.490253,-0.04085 0.490253,-0.245127 z m 1.348199,0.147076 c 0,-0.173204 -0.287438,-0.392203 -0.514767,-0.392203 -0.138906,0 -0.220614,0.09079 -0.220614,0.245127 0,0.190655 0.08171,0.245127 0.367691,0.245127 0.202228,0 0.36769,-0.04412 0.36769,-0.09805 z M 8.7033351,23.258763 c 0,-0.105093 -0.05516,-0.156991 -0.122563,-0.11533 -0.06741,0.04166 -0.122563,0.127648 -0.122563,0.19108 0,0.06343 0.05516,0.115329 0.122563,0.115329 0.06741,0 0.122563,-0.08598 0.122563,-0.191079 z m 1.5933249,0.0072 c 0,-0.132778 -0.136181,-0.183845 -0.4902539,-0.183845 -0.354071,0 -0.490253,0.05107 -0.490253,0.183845 0,0.132776 0.136182,0.183845 0.490253,0.183845 0.3540729,0 0.4902539,-0.05107 0.4902539,-0.183845 z m 1.593324,0 c 0,-0.132778 -0.136181,-0.183845 -0.490253,-0.183845 -0.354073,0 -0.490254,0.05107 -0.490254,0.183845 0,0.132776 0.136181,0.183845 0.490254,0.183845 0.354072,0 0.490253,-0.05107 0.490253,-0.183845 z m 0.857944,0.06851 c 0,-0.06343 -0.05516,-0.149416 -0.122563,-0.191079 -0.06741,-0.04166 -0.122563,0.01023 -0.122563,0.11533 0,0.105094 0.05516,0.191079 0.122563,0.191079 0.06741,0 0.122563,-0.0519 0.122563,-0.11533 z M 10.29666,22.653136 c 0,-0.345736 -0.05234,-0.360865 -0.5945269,-0.171855 -0.563231,0.196343 -0.501766,0.478263 0.104273,0.478263 0.4412289,0 0.4902539,-0.03065 0.4902539,-0.306408 z m 1.593324,0.134554 c 0,-0.149681 -0.578804,-0.440962 -0.876232,-0.440962 -0.05735,0 -0.104275,0.137883 -0.104275,0.306408 0,0.275767 0.04903,0.306408 0.490254,0.306408 0.33887,0 0.490253,-0.05306 0.490253,-0.171854 z M 2.9428558,19.707812 c 0,-0.707446 0.042946,-0.939553 0.1838451,-0.993621 0.1493691,-0.05732 0.1838452,-0.348009 0.1838452,-1.550135 0,-0.813773 -0.053511,-1.648963 -0.1189135,-1.855979 C 3.1262303,15.101061 3.0420411,14.730407 3.0045462,14.484399 2.9670521,14.238393 2.7999483,13.83608 2.6332061,13.590372 2.466464,13.344663 2.330039,13.125294 2.330039,13.102883 c 0,-0.0431 1.1694718,-0.561185 1.2667714,-0.561185 0.031337,0 0.1222885,0.272251 0.202114,0.604999 0.1109644,0.462553 0.1894812,0.587983 0.3334773,0.532727 0.147034,-0.05642 0.1733038,-0.199234 0.1197802,-0.651158 l -0.068561,-0.578885 0.4960383,-0.06653 c 0.2728208,-0.03659 0.6804208,-0.03661 0.905778,-4.1e-5 0.3954526,0.06418 0.4110131,0.08807 0.4462622,0.685233 0.044317,0.750804 0.2875699,0.899443 0.3984011,0.243441 0.1325756,-0.784709 0.2026989,-0.829701 0.8481576,-0.544183 0.311923,0.137978 0.567133,0.302177 0.567133,0.364888 0,0.06271 -0.13982,0.364184 -0.310711,0.669941 -0.3748678,0.670713 -0.4287821,1.009855 -0.5059232,3.182494 -0.039652,1.116824 -0.017107,1.685247 0.066834,1.685247 0.073211,0 0.1417789,0.400885 0.1624672,0.949867 l 0.0358,0.949866 0.398331,0.03841 0.398331,0.03841 v -1.049559 c 0,-0.863389 0.03348,-1.049555 0.188766,-1.049555 0.165436,0 0.182071,-0.299174 0.1346,-2.420626 -0.06762,-3.021824 -0.09031,-3.185531 -0.555822,-4.010376 -0.209199,-0.370679 -0.380361,-0.695583 -0.380361,-0.722007 0,-0.06151 1.174604,-0.568485 1.317107,-0.568485 0.05903,0 0.17799,0.275767 0.264373,0.612816 0.08638,0.33705 0.17503,0.612818 0.196991,0.612818 0.02196,0 0.128236,-0.03389 0.236163,-0.0753 0.158091,-0.06066 0.181157,-0.188926 0.118681,-0.659899 l -0.07755,-0.584598 0.5348009,-0.05398 c 0.29414,-0.02969 0.775946,-0.02815 1.070679,0.0034 l 0.535879,0.05741 -0.07049,0.59519 c -0.03876,0.327352 -0.05002,0.595187 -0.02501,0.595187 0.02502,0 0.130645,0.03268 0.234732,0.07263 0.143679,0.05513 0.223504,-0.06341 0.331508,-0.492337 0.07824,-0.310727 0.188984,-0.593837 0.246096,-0.629134 0.05711,-0.0353 0.381249,0.05516 0.720306,0.201022 0.584821,0.251583 0.766018,0.495805 0.493032,0.664521 -0.203256,0.125619 -0.525075,0.820767 -0.652269,1.408941 -0.0656,0.303344 -0.14073,1.640817 -0.166958,2.972162 -0.04174,2.118649 -0.02414,2.420628 0.141079,2.420628 0.155283,0 0.188766,0.186165 0.188766,1.049555 v 1.049554 l 0.398332,-0.03841 0.398331,-0.03841 0.03579,-0.949867 c 0.02069,-0.548981 0.08926,-0.949866 0.162468,-0.949866 0.08394,0 0.10649,-0.568423 0.06683,-1.685247 -0.07657,-2.15677 -0.124297,-2.455724 -0.515085,-3.226909 -0.354936,-0.700432 -0.352624,-0.706196 0.420987,-1.049527 0.427027,-0.189515 0.618782,-0.101868 0.623785,0.285116 0.0042,0.328495 0.248578,0.765709 0.396284,0.709117 0.106316,-0.04074 0.143781,-0.252219 0.115856,-0.653996 -0.04123,-0.593084 -0.04076,-0.593877 0.384981,-0.662967 0.234437,-0.03805 0.653794,-0.03865 0.9319,-0.0014 l 0.505649,0.06783 -0.0767,0.578162 c -0.06031,0.454645 -0.03677,0.593481 0.110171,0.649869 0.142142,0.05455 0.221603,-0.07309 0.332002,-0.533292 0.07982,-0.33275 0.170777,-0.605001 0.202114,-0.605001 0.08333,0 1.266772,0.514935 1.266772,0.551191 0,0.01692 -0.148129,0.295784 -0.329176,0.619712 -0.436213,0.780471 -0.551322,1.398436 -0.61354,3.293811 -0.0441,1.343589 -0.02298,1.600719 0.138944,1.691336 0.146248,0.08185 0.190955,0.320648 0.190955,1.02 v 0.913135 h 0.612817 c 0.337049,0 0.612817,-0.02488 0.612817,-0.0553 0,-0.03041 -0.08273,-0.372924 -0.183845,-0.761131 -0.244232,-0.937669 -0.239012,-3.216537 0.01013,-4.422709 0.257518,-1.246722 0.764646,-2.331595 1.315708,-2.814627 l 0.448979,-0.393549 -0.844872,-0.50193 C 18.567865,10.691197 16.506246,9.9917446 14.318082,9.6741766 9.0915801,8.9156536 3.8118735,9.7659946 0.61581918,11.881044 l -0.4471113,0.295885 0.5221877,0.544985 C 1.0928474,13.141414 1.2837517,13.490605 1.52,14.238463 c 0.5956081,1.885433 0.7088896,4.364733 0.2665793,5.83442 L 1.6186448,20.630886 H 2.2807484 2.9428521 Z M 16.547393,8.8647956 c 0,-0.13482 -0.05516,-0.245127 -0.122562,-0.245127 -0.06741,0 -0.122564,0.110307 -0.122564,0.245127 0,0.13482 0.05516,0.245126 0.122564,0.245126 0.06741,0 0.122562,-0.110306 0.122562,-0.245126 z M 7.0317708,8.6809506 c -0.1145628,-0.298546 0.034567,-0.51461 0.4039183,-0.585215 0.401343,-0.076719 0.777393,0.08779 0.777393,0.340089 0,0.38514 -1.0444197,0.601861 -1.1813113,0.245126 z m 0.9201143,-0.103199 c 0.17878,-0.215417 0.0552,-0.325772 -0.364814,-0.325772 -0.358747,0 -0.5425592,0.162553 -0.4157776,0.36769 0.1098606,0.177759 0.6210586,0.150307 0.7805916,-0.04192 z m 5.2489839,0.136007 c -0.23776,-0.173989 -0.183918,-0.520255 0.0977,-0.628322 0.0902,-0.03461 0.320338,-0.02112 0.511419,0.02999 0.260616,0.0697 0.34742,0.167269 0.34742,0.390506 0,0.240937 -0.07,0.30445 -0.36769,0.333631 -0.20223,0.01982 -0.467211,-0.03678 -0.588849,-0.125798 z m 0.833975,-0.216653 c 0,-0.117827 -0.143037,-0.197636 -0.398331,-0.222251 -0.38406,-0.03703 -0.54138,0.16091 -0.310995,0.391296 0.155126,0.155127 0.709326,0.02304 0.709326,-0.169045 z m -3.936126,-0.05382 c -0.1462219,-0.381046 0.04808,-0.5760027 0.534006,-0.5358094 0.399437,0.033042 0.460598,0.078787 0.460598,0.3445074 0,0.265721 -0.06116,0.311467 -0.460598,0.344506 -0.329638,0.02727 -0.481469,-0.0163 -0.534006,-0.153204 z m 0.933323,-0.199068 c 0,-0.2113725 -0.06523,-0.2465863 -0.397328,-0.2144863 -0.261679,0.025294 -0.411199,0.1116313 -0.437958,0.2528923 -0.03255,0.171837 0.04645,0.214486 0.397327,0.214486 0.360733,0 0.437959,-0.04459 0.437959,-0.252892 z M 4.9830491,7.706299 C 4.8046812,7.5409933 4.6604976,7.3617444 4.6626413,7.3079689 c 0.00213,-0.053777 0.076309,-0.00241 0.1648096,0.1141034 0.088501,0.116533 0.3211498,0.2954423 0.5169964,0.3975761 0.201075,0.1048605 0.2705064,0.1860262 0.1594962,0.1864519 C 5.3958197,8.0065175 5.1614174,7.8716055 4.9830491,7.706299 Z M 15.805411,7.8715813 c 0.164894,-0.06586 0.36053,-0.1588782 0.434749,-0.2067175 0.07422,-0.047839 0.02972,0.00954 -0.0989,0.1275055 -0.128613,0.1179679 -0.324251,0.2109905 -0.434748,0.2067176 -0.127018,-0.00491 -0.09065,-0.051804 0.0989,-0.1275056 z M 4.0973133,7.0879095 C 3.960388,6.7926189 3.8928108,6.5784914 3.9471424,6.6120695 4.0675469,6.6864872 4.0747933,6.5088025 3.9632118,6.2180278 3.8865034,6.0181289 3.8740618,6.0196259 3.7918586,6.2386424 3.7264123,6.4130126 3.7048683,6.3692755 3.7095207,6.0714933 l 0.0063,-0.4033157 0.2255258,0.3420338 c 0.1240391,0.1881179 0.2258889,0.4625379 0.2263332,0.6098221 4.414e-4,0.1472842 0.057504,0.4169126 0.1268001,0.5991744 0.2045765,0.5380761 0.072407,0.4500606 -0.1971687,-0.131301 z m 4.1450058,0.3470496 c -0.085036,-0.034257 -0.212173,-0.1815759 -0.282529,-0.3273735 -0.109566,-0.2270495 -0.104163,-0.2387064 0.03765,-0.081243 0.09107,0.1011142 0.243024,0.2527859 0.337683,0.337049 0.180508,0.1606829 0.162625,0.1744719 -0.09281,0.071565 z M 5.0041331,6.965063 C 4.8309187,6.584899 4.6921455,6.5737523 4.6226774,6.9344168 4.5771374,7.1708601 4.5671817,7.1621204 4.5528713,6.8731331 4.5301357,6.4140132 4.843741,6.4319786 5.0877155,6.9037793 c 0.1045774,0.2022292 0.1599646,0.36769 0.1230835,0.36769 -0.036882,0 -0.129881,-0.1378827 -0.2066658,-0.3064089 z M 5.465713,7.0702914 c -0.06455,-0.1682151 -0.046615,-0.1757973 0.1094506,-0.046271 0.2126775,0.1765066 0.2348117,0.2474556 0.077201,0.2474556 -0.060198,0 -0.1441906,-0.090532 -0.1866509,-0.2011813 z m 10.143459,-0.022959 c 0.126169,-0.139415 0.202841,-0.4348754 0.202841,-0.7816552 0,-0.3874316 0.06544,-0.6070324 0.214486,-0.719819 0.182469,-0.1380732 0.191617,-0.1366546 0.06128,0.00951 -0.08426,0.094493 -0.154958,0.4227548 -0.157102,0.7294697 -0.0036,0.5219023 -0.204749,0.9866353 -0.426941,0.9866353 -0.05357,0 -0.0061,-0.1008617 0.105434,-0.2241366 z m 0.526974,-0.1129133 c 0.269745,-0.4906909 0.538303,-0.5222436 0.521594,-0.061284 -0.01207,0.3332415 -0.01316,0.333675 -0.09563,0.038342 L 16.478695,6.6127701 16.197933,6.9727598 15.917171,7.3327486 Z M 6.0965003,6.8582263 C 6.1270597,6.6983527 6.0642594,6.3977473 5.9569406,6.1902144 5.849621,5.9826807 5.7630258,5.7412001 5.7645058,5.6535905 c 0.00149,-0.08761 0.1117876,0.081131 0.2451271,0.3749879 0.1333393,0.293854 0.2424348,0.6431589 0.2424348,0.7762352 0,0.3287885 0.2791083,0.2155736 0.3827338,-0.1552483 0.071617,-0.2562952 0.084768,-0.2626528 0.095303,-0.046064 0.014582,0.2999264 -0.2039563,0.5454067 -0.4855527,0.5454067 -0.1481659,0 -0.1884855,-0.079166 -0.1480515,-0.29068 z m 8.5621037,0.185822 c -0.03564,-0.057673 0.07141,-0.078822 0.237893,-0.046995 0.166485,0.031818 0.3027,0.079011 0.3027,0.1048588 0,0.094833 -0.477831,0.043685 -0.540593,-0.057862 z M 13.339236,6.6985871 c 0.0523,-0.2565201 0.08312,-0.2873404 0.118838,-0.1188383 0.02653,0.1251278 -0.0053,0.2809819 -0.07062,0.3463429 -0.07674,0.076745 -0.09382,-0.00379 -0.04823,-0.2275046 z m 3.698411,0.055148 c 0,-0.168116 0.170555,-0.6305704 0.379009,-1.0276767 0.208455,-0.3971063 0.340904,-0.6117043 0.294332,-0.4768846 -0.04657,0.1348198 -0.115053,0.4657405 -0.152182,0.7353809 -0.03713,0.2696387 -0.169579,0.6217858 -0.294332,0.7825497 l -0.226827,0.2922958 z m 0.359076,-0.5006466 c -0.0083,-0.2588987 -0.01239,-0.259739 -0.113949,-0.023407 -0.144966,0.3373541 -0.144966,0.4572843 0,0.3676909 0.06741,-0.04166 0.118687,-0.1965887 0.113949,-0.3442839 z m -9.2753259,0.19108 -0.201741,-0.4596129 -0.08228,0.4289719 -0.08228,0.4289719 -0.01613,-0.4596129 c -0.0211,-0.6010531 0.279456,-0.6204776 0.474119,-0.030646 0.07786,0.2359339 0.223282,0.4289719 0.323147,0.4289719 0.09987,0 0.147878,-0.054518 0.106693,-0.12116 -0.04376,-0.070815 0.0084,-0.089189 0.125606,-0.04422 0.160458,0.061577 0.167846,0.097625 0.03701,0.1805632 -0.309043,0.1959009 -0.482813,0.1064359 -0.684138,-0.3522299 z m 4.3253579,0.3455181 c -0.03878,-0.062749 -0.01446,-0.1487373 0.05404,-0.1910791 0.06851,-0.042341 0.130961,-0.1978237 0.13878,-0.3455181 0.01145,-0.2161579 0.02537,-0.2255508 0.0714,-0.048158 0.03146,0.1212057 -0.01631,0.3100182 -0.106139,0.419585 -0.143675,0.1752424 -0.130126,0.1906559 0.112611,0.1281063 0.151765,-0.039109 0.245029,-0.021097 0.207252,0.040031 -0.0895,0.1448108 -0.387768,0.1429631 -0.477954,-0.00293 z m 2.517832,-0.069755 c -1.23e-4,-0.1348197 0.111136,-0.438164 0.247267,-0.6740989 0.244524,-0.4237976 0.231438,-0.3484172 -0.08511,0.4902539 -0.10085,0.2671955 -0.162004,0.3365285 -0.162154,0.183845 z M 5.2929734,6.2848348 C 5.2811984,5.97812 5.2030128,5.6471985 5.1192318,5.549454 5.0310868,5.4466179 5.0602538,5.454391 5.1884558,5.567897 c 0.16767,0.1484563 0.2099251,0.3273054 0.1737416,0.73538 l -0.047812,0.539216 z m 3.9788577,0.3125373 c 0.0388,-0.1011159 0.08632,-0.183845 0.105604,-0.183845 0.01928,0 0.0668,0.082726 0.105603,0.183845 0.04254,0.1108639 6.03e-4,0.183845 -0.105603,0.183845 -0.106226,0 -0.148147,-0.072979 -0.105604,-0.183845 z m 0.524519,-0.2709176 c 0.03972,-0.2443824 0.142346,-0.4585133 0.2280499,-0.4758461 0.08571,-0.017331 0.09929,-0.00345 0.0302,0.030784 -0.06909,0.034266 -0.1256279,0.2199129 -0.1256279,0.4125466 0,0.1926347 -0.04609,0.378729 -0.102422,0.4135438 -0.05633,0.034817 -0.06992,-0.1366494 -0.0302,-0.3810318 z m 1.9264789,0.2716208 c 0.03865,-0.1007272 0.119653,-0.1526257 0.179999,-0.1153307 0.17305,0.1069522 0.127953,0.2984725 -0.07028,0.2984725 -0.109338,0 -0.152411,-0.071893 -0.109722,-0.1831418 z m 2.424276,-0.1635897 c 0.03825,-0.203335 0.0059,-0.2671308 -0.112242,-0.2217709 -0.291867,0.1119998 -0.485076,-0.252704 -0.322688,-0.6091068 0.184531,-0.4050006 0.434888,-0.3172911 0.483144,0.169263 0.02952,0.2975564 0.08383,0.3664938 0.245127,0.3111213 0.190947,-0.06555 0.191483,-0.057811 0.0068,0.09856 -0.11021,0.093331 -0.234918,0.2524231 -0.277123,0.3535381 -0.04221,0.1011142 -0.05258,0.055389 -0.02304,-0.1016045 z m -0.05098,-0.6337763 c 0,-0.1348198 -0.05516,-0.245127 -0.122564,-0.245127 -0.06741,0 -0.122563,0.023062 -0.122563,0.051261 0,0.02819 -0.03347,0.1384989 -0.07439,0.245127 -0.04882,0.1272185 -0.0066,0.1938696 0.122563,0.1938696 0.115249,0 0.196959,-0.1016925 0.196959,-0.245127 z M 6.8342471,6.2705373 C 6.7162801,6.146953 6.6681615,6.045838 6.7273174,6.045838 c 0.1236136,0 0.4419241,0.3544766 0.3695222,0.4115064 -0.026458,0.020839 -0.1446255,-0.063223 -0.2625925,-0.1868071 z m 6.1665809,0.1836563 c -0.0145,-0.2672274 0.140338,-0.5309195 0.311752,-0.5309195 0.0939,0 0.169888,0.096519 0.168856,0.2144859 -0.0016,0.1803995 -0.02005,0.1857376 -0.11627,0.033594 -0.09342,-0.1477246 -0.136599,-0.1252493 -0.235482,0.1225596 -0.0666,0.1669017 -0.124584,0.2390261 -0.128856,0.1602778 z M 7.1316078,6.1409729 C 6.9530276,5.9623927 6.9427918,5.4750862 7.1153798,5.3684211 7.2901081,5.2604331 7.6002651,5.5369464 7.6002651,5.800711 c 0,0.3135318 -0.287008,0.5219101 -0.4686573,0.3402619 z M 7.4560481,5.8415085 C 7.3964191,5.5340249 7.1100116,5.4918054 7.1100116,5.7904976 c 0,0.1505488 0.079141,0.2553404 0.1928315,0.2553404 0.114137,0 0.176661,-0.083389 0.153205,-0.2043295 z M 11.777912,6.168401 c -0.0037,-0.1011142 0.04673,-0.2665749 0.112072,-0.36769 0.144788,-0.2240418 0.144788,-0.030525 0,0.3064089 -0.06945,0.1616291 -0.107629,0.1825032 -0.112072,0.061284 z M 9.2700121,5.9798178 c -0.118271,-0.3082093 -0.08338,-0.3877359 0.0611,-0.1392737 0.07154,0.1230233 0.104252,0.2494981 0.07269,0.2810543 -0.03156,0.03156 -0.09177,-0.032249 -0.133797,-0.1417806 z m 1.1641459,-0.090634 c -0.290026,-0.2900267 -0.04749,-0.8756835 0.306409,-0.7398813 0.0929,0.035653 0.16891,0.2184762 0.16891,0.4062813 0,0.3722352 -0.256594,0.5523244 -0.475319,0.3336 z m 0.352756,-0.3408332 c 0,-0.1308417 -0.08273,-0.2378929 -0.183845,-0.2378929 -0.181792,0 -0.256983,0.3762616 -0.105468,0.5277756 0.127782,0.127783 0.289313,-0.034068 0.289313,-0.2898827 z M 4.0945103,5.5188854 C 4.1648628,5.1438743 4.1286227,5.0382864 3.836631,4.767536 3.3648678,4.3300924 3.2929294,4.3717663 3.5011367,4.9618882 3.5999811,5.2420428 3.6588912,5.4932231 3.6320479,5.5200661 3.5818101,5.5703013 3.1879828,4.4916414 3.1879828,4.303807 c 0,-0.1452977 0.3616696,0.062352 0.7731769,0.4439236 L 4.3053651,5.0668918 4.6965402,4.7759231 C 5.2634679,4.3542249 5.7618145,4.0470188 5.7618145,4.1192338 c 0,0.034429 -0.2800741,0.2423252 -0.6223872,0.4619863 C 4.5715408,4.9456318 4.0643711,5.4923217 4.1835897,5.61154 4.2101561,5.6381098 4.5623373,5.4113791 4.9662129,5.1076996 5.7314728,4.5322906 6.1295047,4.2822487 6.1295047,4.3769251 c 0,0.030577 -0.1792494,0.1667483 -0.3983312,0.3025989 C 5.5120913,4.8153745 5.2204591,5.0266984 5.0831021,5.1491331 4.945745,5.2715677 4.6487028,5.503022 4.4230083,5.6634773 L 4.0126545,5.9552138 Z m 4.5056148,0.1592643 c 0,-0.1685245 0.02782,-0.2374663 0.06182,-0.153204 0.034,0.08426 0.034,0.2221466 0,0.3064089 -0.034,0.08426 -0.06182,0.015323 -0.06182,-0.1532049 z M 12.522417,5.5399525 c -0.01303,-0.2954061 0.05236,-0.5010533 0.194871,-0.612817 0.186826,-0.1465189 0.19602,-0.1444393 0.0713,0.016125 -0.07875,0.1013856 -0.166446,0.3771527 -0.194871,0.6128169 l -0.05168,0.4284799 z m 4.270104,0.1341622 C 16.623996,5.5415615 16.430959,5.3900604 16.363548,5.3374474 16.296137,5.2848336 16.020372,5.0810307 15.750732,4.8845524 15.123742,4.4276852 14.950183,4.2659699 15.260478,4.4277515 c 0.13482,0.07029 0.57557,0.3762685 0.979447,0.6799481 0.403875,0.3036795 0.753054,0.5334101 0.775951,0.5105126 0.122551,-0.122551 -0.295309,-0.5708207 -0.922273,-0.9893923 -0.390809,-0.2609102 -0.765715,-0.5243731 -0.833125,-0.5854733 -0.253034,-0.2293471 0.512878,0.214006 1.076048,0.6228778 l 0.585796,0.4252972 0.329468,-0.3294685 c 0.472908,-0.4729082 0.766365,-0.6137839 0.766365,-0.3678977 0,0.1088395 -0.05871,0.15911 -0.132523,0.1134864 -0.07288,-0.045047 -0.289051,0.068058 -0.480364,0.2513501 -0.288637,0.2765315 -0.336365,0.4039759 -0.280413,0.7487683 0.07822,0.4820132 0.07257,0.4848383 -0.332334,0.1663545 z M 9.0852441,5.3656107 c -0.01486,-0.2626184 0.193267,-0.5454066 0.401411,-0.5454066 0.06681,0 0.03286,0.068945 -0.07545,0.153204 -0.108312,0.08426 -0.222763,0.263512 -0.254336,0.398331 -0.05617,0.2398785 -0.05771,0.2397466 -0.07162,-0.00612 z M 12.026765,5.3471847 C 12.018923,5.1988624 11.916029,5.0212905 11.798062,4.9525806 11.680095,4.8838681 11.645765,4.8259765 11.721774,4.823928 c 0.218036,-0.00586 0.439197,0.3305423 0.376394,0.5725607 -0.04585,0.1766919 -0.06,0.1669181 -0.0714,-0.049304 z m -6.2341664,-0.03673 c 0.032283,-0.120025 0.216344,-0.1892632 0.530225,-0.1994542 0.4605695,-0.014952 0.4627921,-0.013246 0.052881,0.040609 -0.2353451,0.030922 -0.4739465,0.1206748 -0.5302249,0.1994533 -0.069793,0.097695 -0.086604,0.084785 -0.052878,-0.040609 z m 9.5291614,0.033301 c 0,-0.071565 -0.220614,-0.1511564 -0.490253,-0.1768704 -0.26964,-0.025716 -0.490254,0.00526 -0.490254,0.068833 0,0.063576 -0.03386,0.081726 -0.07525,0.040333 -0.04138,-0.041393 0.04134,-0.2234799 0.183845,-0.4046455 0.142505,-0.1811656 0.259099,-0.2778311 0.259099,-0.2148126 0,0.063016 -0.06619,0.180764 -0.147076,0.2616557 -0.114392,0.1143922 -0.04791,0.1470756 0.299175,0.1470756 0.421099,0 0.696553,0.1727104 0.534273,0.3349902 -0.04045,0.040454 -0.07356,0.015004 -0.07356,-0.056561 z M 6.8745611,5.1703665 C 6.8692385,5.0596112 6.7821547,4.9372472 6.6810405,4.8984448 6.5799246,4.8596459 6.4971946,4.768864 6.4971946,4.6967129 c 0,-0.072151 0.1162787,-0.022855 0.2583963,0.1095479 0.1421185,0.1324032 0.2292032,0.3138007 0.1935215,0.4031063 -0.045375,0.1135588 -0.067782,0.1018338 -0.074556,-0.038997 z m 1.595952,-0.1412507 c -0.155032,-0.2581558 -0.15242,-0.260768 0.05863,-0.058629 0.121488,0.1163623 0.194506,0.2379498 0.162261,0.2701937 -0.03225,0.032249 -0.131643,-0.062964 -0.220887,-0.2115678 z m -1.031598,0.079141 c -0.03906,-0.039057 0.01342,-0.1998799 0.116612,-0.3573775 0.223908,-0.3417278 0.146651,-0.6501439 -0.25811,-1.0303974 L 6.9987814,3.4399243 6.7865697,3.8849373 C 6.6698533,4.1296945 6.4932949,4.3299502 6.3942172,4.3299502 c -0.1502032,0 -0.146431,-0.037248 0.0227,-0.2241366 0.111562,-0.1232749 0.2028403,-0.2828348 0.2028403,-0.3545775 0,-0.1404724 0.2802605,-0.2898405 0.6740986,-0.3592675 0.204215,-0.035998 0.214443,-0.020976 0.06128,0.090014 -0.1410077,0.1021828 -0.08389,0.1181333 0.245128,0.068454 0.367438,-0.055475 0.390463,-0.045952 0.160514,0.066429 -0.253031,0.1236602 -0.257315,0.1482073 -0.07454,0.4271605 0.156181,0.2383634 0.166427,0.3563054 0.05264,0.6060301 -0.132014,0.2897371 -0.123108,0.3044828 0.135819,0.2248803 0.316982,-0.097451 0.273331,-0.027078 -0.105121,0.169476 -0.142809,0.074168 -0.291611,0.1028955 -0.330671,0.063835 z m 6.1575799,0.049003 c -0.0052,-0.016849 -0.02741,-0.1133709 -0.04944,-0.2144851 -0.02204,-0.1011159 -0.07884,-0.294153 -0.126227,-0.4289728 -0.04739,-0.1348198 0.03002,-0.064541 0.172003,0.1561669 0.141992,0.2207118 0.258167,0.4275371 0.258167,0.459613 0,0.058819 -0.237082,0.084604 -0.254503,0.027682 z M 9.9902511,4.936045 c -0.213908,-0.086053 -0.217262,-0.09971 -0.02633,-0.1072262 0.1777719,-0.007 0.1950079,-0.053067 0.09192,-0.2456837 -0.1767959,-0.330345 -0.1582789,-0.6551174 0.05328,-0.9344989 0.162513,-0.214611 0.165649,-0.1982822 0.03203,0.1667371 -0.124662,0.3405419 -0.115521,0.4614641 0.0577,0.7632821 0.2275,0.396397 0.16301,0.5068852 -0.2085999,0.3573896 z M 10.909477,4.871728 c 0,-0.087789 0.05516,-0.1937033 0.122564,-0.2353643 C 11.234912,4.5109779 11.169693,3.9272308 10.904151,3.4916798 10.686208,3.134204 10.628975,3.1031683 10.45211,3.2465537 10.340732,3.3368478 10.28672,3.3487486 10.332081,3.2730028 10.386471,3.1821753 10.196247,3.1014137 9.7734311,3.0358244 l -0.641123,-0.099454 0.551535,-0.06923 C 10.028082,2.8239294 10.177797,2.7606416 10.082174,2.6987538 9.9979141,2.6442178 9.9306471,2.533911 9.9326971,2.4536269 c 0.0021,-0.080287 0.05994,-0.049451 0.1286539,0.068514 0.169117,0.2903576 0.914319,0.2903576 1.083436,0 0.06871,-0.117967 0.126604,-0.1487993 0.128654,-0.068514 0.0021,0.080287 -0.06521,0.1905913 -0.149478,0.2451269 -0.09562,0.061887 0.05409,0.125177 0.398331,0.1683866 l 0.551536,0.06923 -0.632906,0.098364 -0.632905,0.098364 0.234116,0.3839413 c 0.266794,0.4375306 0.307766,0.9986214 0.08306,1.1374952 -0.102745,0.063499 -0.05312,0.1180678 0.153204,0.1684702 l 0.305173,0.074547 -0.33705,0.066894 c -0.229393,0.04553 -0.337049,0.015909 -0.337049,-0.092723 z m 3.674177,-0.6949815 c -0.0015,-0.08426 -0.102944,-0.2835157 -0.225433,-0.442786 l -0.222707,-0.2895814 -0.336047,0.412145 c -0.184826,0.2266798 -0.27646,0.2917529 -0.203631,0.1446065 0.111937,-0.2261618 0.09309,-0.2800184 -0.121855,-0.3482397 -0.13985,-0.044383 -0.227262,-0.1077122 -0.194251,-0.1407232 0.03301,-0.033008 0.171705,-2.456e-4 0.308207,0.072806 0.146283,0.078287 0.276715,0.086664 0.31767,0.020399 0.03821,-0.061835 2.44e-4,-0.1412222 -0.08448,-0.1764178 -0.08468,-0.035197 -0.04366,-0.048193 0.09116,-0.02888 0.380088,0.054441 0.674098,0.2076018 0.674098,0.3511647 0,0.071746 0.09128,0.2313026 0.202842,0.3545775 0.188745,0.2085619 0.188745,0.2241366 0,0.2241366 -0.111563,0 -0.204068,-0.068945 -0.205567,-0.153204 z M 5.9742577,3.9470517 c 0.083139,-0.08376 0.1820362,-0.1214203 0.2197715,-0.083682 0.037734,0.037739 -0.030286,0.1062687 -0.1511613,0.1522948 -0.1746774,0.066515 -0.1887555,0.052433 -0.06861,-0.068609 z M 8.2743641,3.3494432 c 0.134819,-0.057931 0.327857,-0.1053345 0.428971,-0.1053345 0.115882,0 0.09323,0.038937 -0.06128,0.1053345 -0.13482,0.057931 -0.327857,0.1053345 -0.428972,0.1053345 -0.115882,0 -0.09323,-0.038937 0.061281,-0.1053345 z m 4.2897189,0 c -0.154508,-0.066394 -0.177163,-0.1053345 -0.06128,-0.1053345 0.101115,0 0.294152,0.0474 0.428972,0.1053345 0.154509,0.066394 0.177163,0.1053345 0.06128,0.1053345 -0.101114,0 -0.294152,-0.0474 -0.428972,-0.1053345 z M 8.0675381,3.1431548 c 0.08848,-0.035403 0.194187,-0.031051 0.234914,0.00968 0.04073,0.040729 -0.03166,0.069695 -0.160865,0.064369 -0.14278,-0.00586 -0.171822,-0.034921 -0.07405,-0.074047 z m 0.635797,-0.038833 c -0.242623,-0.077701 -0.25538,-0.09813 -0.06128,-0.09813 0.134819,0 0.383011,0.044159 0.551536,0.09813 0.242624,0.077701 0.25538,0.098129 0.06128,0.098129 -0.13482,0 -0.38301,-0.044159 -0.551536,-0.098129 z m 3.3092129,0 c 0.168524,-0.053967 0.416716,-0.09813 0.551535,-0.09813 0.1941,0 0.181343,0.020425 -0.06128,0.09813 -0.168524,0.053967 -0.416715,0.098129 -0.551535,0.098129 -0.1941,0 -0.181343,-0.020425 0.06128,-0.098129 z m 0.957527,0.038842 c 0.08847,-0.035403 0.194185,-0.031051 0.234913,0.00968 0.04073,0.040729 -0.03166,0.069695 -0.160864,0.064369 -0.14278,-0.00586 -0.171822,-0.034921 -0.07405,-0.074047 z M 9.9289701,1.9249567 c 0,-0.071962 0.1103069,-0.2306648 0.2451269,-0.3526755 0.333473,-0.3017887 0.308108,-0.4494495 -0.06128,-0.356738 -0.2681779,0.067308 -0.3064089,0.037015 -0.3064089,-0.2427914 0,-0.2264497 0.06256,-0.316874 0.2144859,-0.3100199 0.128133,0.00577 0.152805,0.034567 0.06128,0.071496 -0.2618049,0.1056405 -0.1839329,0.4353537 0.08283,0.3506881 0.151324,-0.048029 0.276727,-0.00215 0.349429,0.1277193 0.103414,0.1847896 0.120066,0.1852619 0.189095,0.00534 0.04163,-0.1084931 0.146369,-0.1964163 0.232747,-0.1953839 0.111335,0.00138 0.10447,0.035128 -0.02359,0.1161081 -0.152246,0.096279 -0.132985,0.1680764 0.122563,0.4568594 0.209138,0.2363365 0.224159,0.2763609 0.04842,0.1290189 C 10.735724,1.4328586 10.348737,1.4564611 10.119762,1.7833708 10.014825,1.9331896 9.9289671,1.9968906 9.9289671,1.9249299 Z M 11.237592,1.0696586 c 0.04141,-0.1079182 -0.0016,-0.2449581 -0.09577,-0.3045319 -0.136923,-0.0867 -0.128258,-0.1086913 0.04343,-0.1101943 0.147577,-0.00129 0.214486,0.093709 0.214486,0.3045319 0,0.1685254 -0.05342,0.3064089 -0.118717,0.3064089 -0.06529,0 -0.08484,-0.088296 -0.04343,-0.1962146 z m -0.931255,-0.692378 c -0.0067,-0.149656 0.08294,-0.214486 0.296732,-0.214486 0.213795,0 0.303484,0.064826 0.296732,0.214486 -0.0058,0.1281321 -0.03457,0.152805 -0.0715,0.061284 -0.034,-0.08426 -0.135357,-0.1532049 -0.225237,-0.1532049 -0.08988,0 -0.191237,0.068945 -0.225238,0.1532049 -0.03693,0.091523 -0.06571,0.066851 -0.0715,-0.061284 z"
       id="path180" />
  </g>
</svg>
