<?xml version="1.0" encoding="UTF-8" standalone="no"?>
<svg
   xmlns:dc="http://purl.org/dc/elements/1.1/"
   xmlns:cc="http://creativecommons.org/ns#"
   xmlns:rdf="http://www.w3.org/1999/02/22-rdf-syntax-ns#"
   xmlns:svg="http://www.w3.org/2000/svg"
   xmlns="http://www.w3.org/2000/svg"
   xmlns:sodipodi="http://sodipodi.sourceforge.net/DTD/sodipodi-0.dtd"
   xmlns:inkscape="http://www.inkscape.org/namespaces/inkscape"
   width="40mm"
   height="50mm"
   viewBox="0 0 40 50"
   version="1.1"
   id="svg8"
   inkscape:version="1.0.2 (1.0.2+r75+1)"
   sodipodi:docname="layout.svg">
  <defs
     id="defs2" />
  <sodipodi:namedview
     id="base"
     pagecolor="#ffffff"
     bordercolor="#666666"
     borderopacity="1.0"
     inkscape:pageopacity="0.0"
     inkscape:pageshadow="2"
     inkscape:zoom="1.4301669"
     inkscape:cx="-93.035609"
     inkscape:cy="159.59747"
     inkscape:document-units="mm"
     inkscape:current-layer="layer1"
     inkscape:document-rotation="0"
     showgrid="false"
     inkscape:window-width="1848"
     inkscape:window-height="1016"
     inkscape:window-x="72"
     inkscape:window-y="27"
     inkscape:window-maximized="1" />
  <metadata
     id="metadata5">
    <rdf:RDF>
      <cc:Work
         rdf:about="">
        <dc:format>image/svg+xml</dc:format>
        <dc:type
           rdf:resource="http://purl.org/dc/dcmitype/StillImage" />
        <dc:title></dc:title>
      </cc:Work>
    </rdf:RDF>
  </metadata>
  <g
     inkscape:label="Layer 1"
     inkscape:groupmode="layer"
     id="layer1">
    <path
       style="fill:#000000;stroke-width:0.171768"
       d="M 1.9249636,28.990729 V 14.304589 H 13.818379 25.711795 l 3.566106,-3.563072 3.566103,-3.563072 2.701324,2.701324 2.701326,2.701324 -0.848792,0.861748 -0.848791,0.861748 h 0.723556 0.723557 v 9.832591 9.832592 l -4.851308,4.853547 -4.851307,4.85355 H 15.109266 1.9249636 Z m 24.2192484,7.471896 v -4.465961 h 4.46596 4.46596 v -7.386012 -7.386011 h -0.731326 c -0.726212,0 -0.760691,0.02938 -4.928608,4.199904 -3.428484,3.430627 -4.293446,4.209309 -4.722299,4.251251 l -0.525016,0.05135 -0.04508,6.22658 -0.04509,6.22658 h -0.942578 -0.942581 v -0.601187 c 0,-0.419876 0.0777,-0.601187 0.257652,-0.601187 0.220215,0 0.257651,-0.486675 0.257651,-3.349471 0,-2.862795 -0.03744,-3.34947 -0.257651,-3.34947 -0.186081,0 -0.257652,-0.190853 -0.257652,-0.687071 0,-0.496218 0.07157,-0.687071 0.257652,-0.687071 0.208861,0 0.257651,-0.277101 0.257651,-1.463298 0,-1.428506 -0.0092,-1.46125 -0.386477,-1.377154 -1.236454,0.275596 -3.435246,0.621895 -3.505106,0.552036 -0.04509,-0.04509 0.07776,-0.956546 0.273008,-2.025456 0.195245,-1.06891 0.354989,-2.042832 0.354989,-2.164271 0,-0.153122 -0.289565,-0.220798 -0.944723,-0.220798 h -0.944722 v 3.329437 c 0,3.184979 0.01491,3.333335 0.343535,3.419274 0.26314,0.06881 0.343536,0.234293 0.343536,0.707104 v 0.617268 H 16.439336 14.635775 V 29.59192 28.904849 h 0.858838 0.858839 v -3.34947 -3.349471 H 12.402794 8.4521366 v 3.349471 3.34947 h 1.11649 1.1164904 v 0.687071 0.687071 h -1.1164904 -1.11649 v 3.34947 3.349471 h 4.8953804 4.89538 v 0.601187 0.601187 l -5.539509,2e-6 -5.5395094,1e-6 V 29.50604 20.831771 l 6.3124644,-2e-6 c 5.869862,-2e-6 6.312463,-0.02084 6.312463,-0.297198 0,-0.163457 0.674724,-0.97506 1.499386,-1.803561 l 1.499386,-1.506365 H 13.816297 4.8450146 V 29.076617 40.928589 H 15.494613 26.144212 Z m 6.870708,-1.666513 c 0,-0.02814 -0.888898,-0.05116 -1.975329,-0.05116 h -1.975328 v 2.026493 2.026493 l 1.975328,-1.975329 c 1.086431,-1.086431 1.975329,-1.998352 1.975329,-2.026493 z m -9.490166,-9.686018 1.073548,-0.200602 V 24.158884 23.408278 H 23.310044 22.021786 V 22.12002 20.831763 h -0.754245 -0.754246 l -0.277487,1.495923 -0.277488,1.495924 0.815129,0.827573 c 0.650232,0.660158 0.902382,0.810573 1.246443,0.743543 0.237223,-0.04622 0.91441,-0.1743 1.504862,-0.284632 z m 6.741355,-8.142578 5.579943,-5.581924 -0.900789,-0.900789 -0.900792,-0.9007901 -5.581923,5.5799421 -5.581923,5.579942 v 0.902771 0.902772 h 0.902772 0.902771 z"
       id="path132" />
  </g>
</svg>
