<svg xmlns="http://www.w3.org/2000/svg" width="793.701" height="1122.52" viewBox="0 0 210 297" xmlns:v="https://vecta.io/nano"><style><![CDATA[.B{fill:none}.C{stroke:#000}.D{stroke-linecap:round}.E{stroke-linejoin:round}.F{stroke-miterlimit:10}.G{stroke-width:.35}.H{clip-rule:evenodd}.I{font-family:Arial}.J{writing-mode:lr-tb}.K{fill:#000}.L{font-size:9.719px}.M{fill-rule:evenodd}.N{font-weight:bold}.O{font-size:4.859px}.P{font-size:11.663px}]]></style><defs><clipPath id="A"><path d="M3.528 3.528h202.847v289.983H3.528V3.528" class="H"/></clipPath><clipPath id="B"><path d="M4.118 293.029V4.009h202.02v289.02H4.118" class="H"/></clipPath><clipPath id="C"><path d="M4.118 293.029V4.009h202.02v289.02H4.118" class="H"/></clipPath><clipPath id="D"><path d="M4.118 293.029V4.009h202.02v289.02H4.118" class="H"/></clipPath><clipPath id="E"><path d="M4.118 293.029V4.009h202.02v289.02H4.118" class="H"/></clipPath><clipPath id="F"><path d="M4.118 293.029V4.009h202.02v289.02H4.118" class="H"/></clipPath><clipPath id="G"><path d="M4.118 293.029V4.009h202.02v289.02H4.118" class="H"/></clipPath><clipPath id="H"><path d="M4.118 293.029V4.009h202.02v289.02H4.118" class="H"/></clipPath><clipPath id="I"><path d="M4.118 293.029V4.009h202.02v289.02H4.118" class="H"/></clipPath><clipPath id="J"><path d="M4.118 293.029V4.009h202.02v289.02H4.118" class="H"/></clipPath><clipPath id="K"><path d="M4.118 293.029V4.009h202.02v289.02H4.118" class="H"/></clipPath><clipPath id="L"><path d="M4.118 293.029V4.009h202.02v289.02H4.118" class="H"/></clipPath><clipPath id="M"><path d="M4.118 293.029V4.009h202.02v289.02H4.118" class="H"/></clipPath><clipPath id="N"><path d="M4.118 293.029V4.009h202.02v289.02H4.118" class="H"/></clipPath><clipPath id="O"><path d="M4.118 293.029V4.009h202.02v289.02H4.118" class="H"/></clipPath><clipPath id="P"><path d="M11.756 25.677V4.019h194.372v206.305h-85.005l-3.696-30.798-42.69 2.831-.305-9.156h-6.834l-.079-12.551-54.914.345-.695-110.818-6.782-.539V25.899l6.628-.221" class="H"/></clipPath><clipPath id="Q"><path d="M11.756 25.677V4.019h194.372v206.305h-85.005l-3.696-30.798-42.69 2.831-.305-9.156h-6.834l-.079-12.551-54.914.345-.695-110.818-6.782-.539V25.899l6.628-.221" class="H"/></clipPath><clipPath id="R"><path d="M11.756 25.677V4.019h194.372v206.305h-85.005l-3.696-30.798-42.69 2.831-.305-9.156h-6.834l-.079-12.551-54.914.345-.695-110.818-6.782-.539V25.899l6.628-.221" class="H"/></clipPath><clipPath id="S"><path d="M11.756 25.677V4.019h194.372v206.305h-85.005l-3.696-30.798-42.69 2.831-.305-9.156h-6.834l-.079-12.551-54.914.345-.695-110.818-6.782-.539V25.899l6.628-.221" class="H"/></clipPath><clipPath id="T"><path d="M11.756 25.677V4.019h194.372v206.305h-85.005l-3.696-30.798-42.69 2.831-.305-9.156h-6.834l-.079-12.551-54.914.345-.695-110.818-6.782-.539V25.899l6.628-.221" class="H"/></clipPath><clipPath id="U"><path d="M11.756 25.677V4.019h194.372v206.305h-85.005l-3.696-30.798-42.69 2.831-.305-9.156h-6.834l-.079-12.551-54.914.345-.695-110.818-6.782-.539V25.899l6.628-.221" class="H"/></clipPath><clipPath id="V"><path d="M11.756 25.677V4.019h194.372v206.305h-85.005l-3.696-30.798-42.69 2.831-.305-9.156h-6.834l-.079-12.551-54.914.345-.695-110.818-6.782-.539V25.899l6.628-.221" class="H"/></clipPath><clipPath id="W"><path d="M11.756 25.677V4.019h194.372v206.305h-85.005l-3.696-30.798-42.69 2.831-.305-9.156h-6.834l-.079-12.551-54.914.345-.695-110.818-6.782-.539V25.899l6.628-.221" class="H"/></clipPath><clipPath id="X"><path d="M11.756 25.677V4.019h194.372v206.305h-85.005l-3.696-30.798-42.69 2.831-.305-9.156h-6.834l-.079-12.551-54.914.345-.695-110.818-6.782-.539V25.899l6.628-.221" class="H"/></clipPath><clipPath id="Y"><path d="M11.756 25.677V4.019h194.372v206.305h-85.005l-3.696-30.798-42.69 2.831-.305-9.156h-6.834l-.079-12.551-54.914.345-.695-110.818-6.782-.539V25.899l6.628-.221" class="H"/></clipPath><clipPath id="Z"><path d="M11.756 25.677V4.019h194.372v206.305h-85.005l-3.696-30.798-42.69 2.831-.305-9.156h-6.834l-.079-12.551-54.914.345-.695-110.818-6.782-.539V25.899l6.628-.221" class="H"/></clipPath><clipPath id="a"><path d="M11.756 25.677V4.019h194.372v206.305h-85.005l-3.696-30.798-42.69 2.831-.305-9.156h-6.834l-.079-12.551-54.914.345-.695-110.818-6.782-.539V25.899l6.628-.221" class="H"/></clipPath><clipPath id="b"><path d="M11.756 25.677V4.019h194.372v206.305h-85.005l-3.696-30.798-42.69 2.831-.305-9.156h-6.834l-.079-12.551-54.914.345-.695-110.818-6.782-.539V25.899l6.628-.221" class="H"/></clipPath><clipPath id="c"><path d="M11.756 25.677V4.019h194.372v206.305h-85.005l-3.696-30.798-42.69 2.831-.305-9.156h-6.834l-.079-12.551-54.914.345-.695-110.818-6.782-.539V25.899l6.628-.221" class="H"/></clipPath><clipPath id="d"><path d="M11.756 25.677V4.019h194.372v206.305h-85.005l-3.696-30.798-42.69 2.831-.305-9.156h-6.834l-.079-12.551-54.914.345-.695-110.818-6.782-.539V25.899l6.628-.221" class="H"/></clipPath><clipPath id="e"><path d="M11.756 25.677V4.019h194.372v206.305h-85.005l-3.696-30.798-42.69 2.831-.305-9.156h-6.834l-.079-12.551-54.914.345-.695-110.818-6.782-.539V25.899l6.628-.221" class="H"/></clipPath><clipPath id="f"><path d="M11.756 25.677V4.019h194.372v206.305h-85.005l-3.696-30.798-42.69 2.831-.305-9.156h-6.834l-.079-12.551-54.914.345-.695-110.818-6.782-.539V25.899l6.628-.221" class="H"/></clipPath><clipPath id="g"><path d="M11.756 25.677V4.019h194.372v206.305h-85.005l-3.696-30.798-42.69 2.831-.305-9.156h-6.834l-.079-12.551-54.914.345-.695-110.818-6.782-.539V25.899l6.628-.221" class="H"/></clipPath><clipPath id="h"><path d="M11.756 25.677V4.019h194.372v206.305h-85.005l-3.696-30.798-42.69 2.831-.305-9.156h-6.834l-.079-12.551-54.914.345-.695-110.818-6.782-.539V25.899l6.628-.221" class="H"/></clipPath><clipPath id="i"><path d="M11.756 25.677V4.019h194.372v206.305h-85.005l-3.696-30.798-42.69 2.831-.305-9.156h-6.834l-.079-12.551-54.914.345-.695-110.818-6.782-.539V25.899l6.628-.221" class="H"/></clipPath><clipPath id="j"><path d="M11.756 25.677V4.019h194.372v206.305h-85.005l-3.696-30.798-42.69 2.831-.305-9.156h-6.834l-.079-12.551-54.914.345-.695-110.818-6.782-.539V25.899l6.628-.221" class="H"/></clipPath><clipPath id="k"><path d="M11.756 25.677V4.019h194.372v206.305h-85.005l-3.696-30.798-42.69 2.831-.305-9.156h-6.834l-.079-12.551-54.914.345-.695-110.818-6.782-.539V25.899l6.628-.221" class="H"/></clipPath><clipPath id="l"><path d="M11.756 25.677V4.019h194.372v206.305h-85.005l-3.696-30.798-42.69 2.831-.305-9.156h-6.834l-.079-12.551-54.914.345-.695-110.818-6.782-.539V25.899l6.628-.221" class="H"/></clipPath><clipPath id="m"><path d="M11.756 25.677V4.019h194.372v206.305h-85.005l-3.696-30.798-42.69 2.831-.305-9.156h-6.834l-.079-12.551-54.914.345-.695-110.818-6.782-.539V25.899l6.628-.221" class="H"/></clipPath><clipPath id="n"><path d="M11.756 25.677V4.019h194.372v206.305h-85.005l-3.696-30.798-42.69 2.831-.305-9.156h-6.834l-.079-12.551-54.914.345-.695-110.818-6.782-.539V25.899l6.628-.221" class="H"/></clipPath><clipPath id="o"><path d="M11.756 25.677V4.019h194.372v206.305h-85.005l-3.696-30.798-42.69 2.831-.305-9.156h-6.834l-.079-12.551-54.914.345-.695-110.818-6.782-.539V25.899l6.628-.221" class="H"/></clipPath><clipPath id="p"><path d="M11.756 25.677V4.019h194.372v206.305h-85.005l-3.696-30.798-42.69 2.831-.305-9.156h-6.834l-.079-12.551-54.914.345-.695-110.818-6.782-.539V25.899l6.628-.221" class="H"/></clipPath><clipPath id="q"><path d="M11.756 25.677V4.019h194.372v206.305h-85.005l-3.696-30.798-42.69 2.831-.305-9.156h-6.834l-.079-12.551-54.914.345-.695-110.818-6.782-.539V25.899l6.628-.221" class="H"/></clipPath><clipPath id="r"><path d="M11.756 25.677V4.019h194.372v206.305h-85.005l-3.696-30.798-42.69 2.831-.305-9.156h-6.834l-.079-12.551-54.914.345-.695-110.818-6.782-.539V25.899l6.628-.221" class="H"/></clipPath><clipPath id="s"><path d="M11.756 25.677V4.019h194.372v206.305h-85.005l-3.696-30.798-42.69 2.831-.305-9.156h-6.834l-.079-12.551-54.914.345-.695-110.818-6.782-.539V25.899l6.628-.221" class="H"/></clipPath><clipPath id="t"><path d="M11.756 25.677V4.019h194.372v206.305h-85.005l-3.696-30.798-42.69 2.831-.305-9.156h-6.834l-.079-12.551-54.914.345-.695-110.818-6.782-.539V25.899l6.628-.221" class="H"/></clipPath><clipPath id="u"><path d="M11.756 25.677V4.019h194.372v206.305h-85.005l-3.696-30.798-42.69 2.831-.305-9.156h-6.834l-.079-12.551-54.914.345-.695-110.818-6.782-.539V25.899l6.628-.221" class="H"/></clipPath><clipPath id="v"><path d="M11.756 25.677V4.019h194.372v206.305h-85.005l-3.696-30.798-42.69 2.831-.305-9.156h-6.834l-.079-12.551-54.914.345-.695-110.818-6.782-.539V25.899l6.628-.221" class="H"/></clipPath><clipPath id="w"><path d="M11.756 25.677V4.019h194.372v206.305h-85.005l-3.696-30.798-42.69 2.831-.305-9.156h-6.834l-.079-12.551-54.914.345-.695-110.818-6.782-.539V25.899l6.628-.221" class="H"/></clipPath><clipPath id="x"><path d="M11.756 25.677V4.019h194.372v206.305h-85.005l-3.696-30.798-42.69 2.831-.305-9.156h-6.834l-.079-12.551-54.914.345-.695-110.818-6.782-.539V25.899l6.628-.221" class="H"/></clipPath><clipPath id="y"><path d="M11.756 25.677V4.019h194.372v206.305h-85.005l-3.696-30.798-42.69 2.831-.305-9.156h-6.834l-.079-12.551-54.914.345-.695-110.818-6.782-.539V25.899l6.628-.221" class="H"/></clipPath><clipPath id="z"><path d="M11.756 25.677V4.019h194.372v206.305h-85.005l-3.696-30.798-42.69 2.831-.305-9.156h-6.834l-.079-12.551-54.914.345-.695-110.818-6.782-.539V25.899l6.628-.221" class="H"/></clipPath><clipPath id="AA"><path d="M11.756 25.677V4.019h194.372v206.305h-85.005l-3.696-30.798-42.69 2.831-.305-9.156h-6.834l-.079-12.551-54.914.345-.695-110.818-6.782-.539V25.899l6.628-.221" class="H"/></clipPath><clipPath id="AB"><path d="M11.756 25.677V4.019h194.372v206.305h-85.005l-3.696-30.798-42.69 2.831-.305-9.156h-6.834l-.079-12.551-54.914.345-.695-110.818-6.782-.539V25.899l6.628-.221" class="H"/></clipPath><clipPath id="AC"><path d="M11.756 25.677V4.019h194.372v206.305h-85.005l-3.696-30.798-42.69 2.831-.305-9.156h-6.834l-.079-12.551-54.914.345-.695-110.818-6.782-.539V25.899l6.628-.221" class="H"/></clipPath><clipPath id="AD"><path d="M11.756 25.677V4.019h194.372v206.305h-85.005l-3.696-30.798-42.69 2.831-.305-9.156h-6.834l-.079-12.551-54.914.345-.695-110.818-6.782-.539V25.899l6.628-.221" class="H"/></clipPath><clipPath id="AE"><path d="M11.756 25.677V4.019h194.372v206.305h-85.005l-3.696-30.798-42.69 2.831-.305-9.156h-6.834l-.079-12.551-54.914.345-.695-110.818-6.782-.539V25.899l6.628-.221" class="H"/></clipPath><clipPath id="AF"><path d="M11.756 25.677V4.019h194.372v206.305h-85.005l-3.696-30.798-42.69 2.831-.305-9.156h-6.834l-.079-12.551-54.914.345-.695-110.818-6.782-.539V25.899l6.628-.221" class="H"/></clipPath><clipPath id="AG"><path d="M11.756 25.677V4.019h194.372v206.305h-85.005l-3.696-30.798-42.69 2.831-.305-9.156h-6.834l-.079-12.551-54.914.345-.695-110.818-6.782-.539V25.899l6.628-.221" class="H"/></clipPath><clipPath id="AH"><path d="M11.756 25.677V4.019h194.372v206.305h-85.005l-3.696-30.798-42.69 2.831-.305-9.156h-6.834l-.079-12.551-54.914.345-.695-110.818-6.782-.539V25.899l6.628-.221" class="H"/></clipPath><clipPath id="AI"><path d="M11.756 25.677V4.019h194.372v206.305h-85.005l-3.696-30.798-42.69 2.831-.305-9.156h-6.834l-.079-12.551-54.914.345-.695-110.818-6.782-.539V25.899l6.628-.221" class="H"/></clipPath><clipPath id="AJ"><path d="M11.756 25.677V4.019h194.372v206.305h-85.005l-3.696-30.798-42.69 2.831-.305-9.156h-6.834l-.079-12.551-54.914.345-.695-110.818-6.782-.539V25.899l6.628-.221" class="H"/></clipPath><clipPath id="AK"><path d="M11.756 25.677V4.019h194.372v206.305h-85.005l-3.696-30.798-42.69 2.831-.305-9.156h-6.834l-.079-12.551-54.914.345-.695-110.818-6.782-.539V25.899l6.628-.221" class="H"/></clipPath><clipPath id="AL"><path d="M11.756 25.677V4.019h194.372v206.305h-85.005l-3.696-30.798-42.69 2.831-.305-9.156h-6.834l-.079-12.551-54.914.345-.695-110.818-6.782-.539V25.899l6.628-.221" class="H"/></clipPath><clipPath id="AM"><path d="M11.756 25.677V4.019h194.372v206.305h-85.005l-3.696-30.798-42.69 2.831-.305-9.156h-6.834l-.079-12.551-54.914.345-.695-110.818-6.782-.539V25.899l6.628-.221" class="H"/></clipPath><clipPath id="AN"><path d="M11.756 25.677V4.019h194.372v206.305h-85.005l-3.696-30.798-42.69 2.831-.305-9.156h-6.834l-.079-12.551-54.914.345-.695-110.818-6.782-.539V25.899l6.628-.221" class="H"/></clipPath><clipPath id="AO"><path d="M11.756 25.677V4.019h194.372v206.305h-85.005l-3.696-30.798-42.69 2.831-.305-9.156h-6.834l-.079-12.551-54.914.345-.695-110.818-6.782-.539V25.899l6.628-.221" class="H"/></clipPath><clipPath id="AP"><path d="M11.756 25.677V4.019h194.372v206.305h-85.005l-3.696-30.798-42.69 2.831-.305-9.156h-6.834l-.079-12.551-54.914.345-.695-110.818-6.782-.539V25.899l6.628-.221" class="H"/></clipPath><clipPath id="AQ"><path d="M11.756 25.677V4.019h194.372v206.305h-85.005l-3.696-30.798-42.69 2.831-.305-9.156h-6.834l-.079-12.551-54.914.345-.695-110.818-6.782-.539V25.899l6.628-.221" class="H"/></clipPath><clipPath id="AR"><path d="M11.756 25.677V4.019h194.372v206.305h-85.005l-3.696-30.798-42.69 2.831-.305-9.156h-6.834l-.079-12.551-54.914.345-.695-110.818-6.782-.539V25.899l6.628-.221" class="H"/></clipPath><clipPath id="AS"><path d="M11.756 25.677V4.019h194.372v206.305h-85.005l-3.696-30.798-42.69 2.831-.305-9.156h-6.834l-.079-12.551-54.914.345-.695-110.818-6.782-.539V25.899l6.628-.221" class="H"/></clipPath><clipPath id="AT"><path d="M11.756 25.677V4.019h194.372v206.305h-85.005l-3.696-30.798-42.69 2.831-.305-9.156h-6.834l-.079-12.551-54.914.345-.695-110.818-6.782-.539V25.899l6.628-.221" class="H"/></clipPath><clipPath id="AU"><path d="M11.756 25.677V4.019h194.372v206.305h-85.005l-3.696-30.798-42.69 2.831-.305-9.156h-6.834l-.079-12.551-54.914.345-.695-110.818-6.782-.539V25.899l6.628-.221" class="H"/></clipPath><clipPath id="AV"><path d="M11.756 25.677V4.019h194.372v206.305h-85.005l-3.696-30.798-42.69 2.831-.305-9.156h-6.834l-.079-12.551-54.914.345-.695-110.818-6.782-.539V25.899l6.628-.221" class="H"/></clipPath><clipPath id="AW"><path d="M11.756 25.677V4.019h194.372v206.305h-85.005l-3.696-30.798-42.69 2.831-.305-9.156h-6.834l-.079-12.551-54.914.345-.695-110.818-6.782-.539V25.899l6.628-.221" class="H"/></clipPath><clipPath id="AX"><path d="M11.756 25.677V4.019h194.372v206.305h-85.005l-3.696-30.798-42.69 2.831-.305-9.156h-6.834l-.079-12.551-54.914.345-.695-110.818-6.782-.539V25.899l6.628-.221" class="H"/></clipPath><clipPath id="AY"><path d="M11.756 25.677V4.019h194.372v206.305h-85.005l-3.696-30.798-42.69 2.831-.305-9.156h-6.834l-.079-12.551-54.914.345-.695-110.818-6.782-.539V25.899l6.628-.221" class="H"/></clipPath><clipPath id="AZ"><path d="M11.756 25.677V4.019h194.372v206.305h-85.005l-3.696-30.798-42.69 2.831-.305-9.156h-6.834l-.079-12.551-54.914.345-.695-110.818-6.782-.539V25.899l6.628-.221" class="H"/></clipPath><clipPath id="Aa"><path d="M11.756 25.677V4.019h194.372v206.305h-85.005l-3.696-30.798-42.69 2.831-.305-9.156h-6.834l-.079-12.551-54.914.345-.695-110.818-6.782-.539V25.899l6.628-.221" class="H"/></clipPath><clipPath id="Ab"><path d="M11.756 25.677V4.019h194.372v206.305h-85.005l-3.696-30.798-42.69 2.831-.305-9.156h-6.834l-.079-12.551-54.914.345-.695-110.818-6.782-.539V25.899l6.628-.221" class="H"/></clipPath><clipPath id="Ac"><path d="M11.756 25.677V4.019h194.372v206.305h-85.005l-3.696-30.798-42.69 2.831-.305-9.156h-6.834l-.079-12.551-54.914.345-.695-110.818-6.782-.539V25.899l6.628-.221" class="H"/></clipPath><clipPath id="Ad"><path d="M11.756 25.677V4.019h194.372v206.305h-85.005l-3.696-30.798-42.69 2.831-.305-9.156h-6.834l-.079-12.551-54.914.345-.695-110.818-6.782-.539V25.899l6.628-.221" class="H"/></clipPath><clipPath id="Ae"><path d="M11.756 25.677V4.019h194.372v206.305h-85.005l-3.696-30.798-42.69 2.831-.305-9.156h-6.834l-.079-12.551-54.914.345-.695-110.818-6.782-.539V25.899l6.628-.221" class="H"/></clipPath><clipPath id="Af"><path d="M11.756 25.677V4.019h194.372v206.305h-85.005l-3.696-30.798-42.69 2.831-.305-9.156h-6.834l-.079-12.551-54.914.345-.695-110.818-6.782-.539V25.899l6.628-.221" class="H"/></clipPath><clipPath id="Ag"><path d="M11.756 25.677V4.019h194.372v206.305h-85.005l-3.696-30.798-42.69 2.831-.305-9.156h-6.834l-.079-12.551-54.914.345-.695-110.818-6.782-.539V25.899l6.628-.221" class="H"/></clipPath><clipPath id="Ah"><path d="M11.756 25.677V4.019h194.372v206.305h-85.005l-3.696-30.798-42.69 2.831-.305-9.156h-6.834l-.079-12.551-54.914.345-.695-110.818-6.782-.539V25.899l6.628-.221" class="H"/></clipPath><clipPath id="Ai"><path d="M11.756 25.677V4.019h194.372v206.305h-85.005l-3.696-30.798-42.69 2.831-.305-9.156h-6.834l-.079-12.551-54.914.345-.695-110.818-6.782-.539V25.899l6.628-.221" class="H"/></clipPath><clipPath id="Aj"><path d="M11.756 25.677V4.019h194.372v206.305h-85.005l-3.696-30.798-42.69 2.831-.305-9.156h-6.834l-.079-12.551-54.914.345-.695-110.818-6.782-.539V25.899l6.628-.221" class="H"/></clipPath><clipPath id="Ak"><path d="M11.756 25.677V4.019h194.372v206.305h-85.005l-3.696-30.798-42.69 2.831-.305-9.156h-6.834l-.079-12.551-54.914.345-.695-110.818-6.782-.539V25.899l6.628-.221" class="H"/></clipPath><clipPath id="Al"><path d="M11.756 25.677V4.019h194.372v206.305h-85.005l-3.696-30.798-42.69 2.831-.305-9.156h-6.834l-.079-12.551-54.914.345-.695-110.818-6.782-.539V25.899l6.628-.221" class="H"/></clipPath><clipPath id="Am"><path d="M11.756 25.677V4.019h194.372v206.305h-85.005l-3.696-30.798-42.69 2.831-.305-9.156h-6.834l-.079-12.551-54.914.345-.695-110.818-6.782-.539V25.899l6.628-.221" class="H"/></clipPath><clipPath id="An"><path d="M11.756 25.677V4.019h194.372v206.305h-85.005l-3.696-30.798-42.69 2.831-.305-9.156h-6.834l-.079-12.551-54.914.345-.695-110.818-6.782-.539V25.899l6.628-.221" class="H"/></clipPath><clipPath id="Ao"><path d="M11.756 25.677V4.019h194.372v206.305h-85.005l-3.696-30.798-42.69 2.831-.305-9.156h-6.834l-.079-12.551-54.914.345-.695-110.818-6.782-.539V25.899l6.628-.221" class="H"/></clipPath><clipPath id="Ap"><path d="M11.756 25.677V4.019h194.372v206.305h-85.005l-3.696-30.798-42.69 2.831-.305-9.156h-6.834l-.079-12.551-54.914.345-.695-110.818-6.782-.539V25.899l6.628-.221" class="H"/></clipPath><clipPath id="Aq"><path d="M11.756 25.677V4.019h194.372v206.305h-85.005l-3.696-30.798-42.69 2.831-.305-9.156h-6.834l-.079-12.551-54.914.345-.695-110.818-6.782-.539V25.899l6.628-.221" class="H"/></clipPath><clipPath id="Ar"><path d="M11.756 25.677V4.019h194.372v206.305h-85.005l-3.696-30.798-42.69 2.831-.305-9.156h-6.834l-.079-12.551-54.914.345-.695-110.818-6.782-.539V25.899l6.628-.221" class="H"/></clipPath><clipPath id="As"><path d="M11.756 25.677V4.019h194.372v206.305h-85.005l-3.696-30.798-42.69 2.831-.305-9.156h-6.834l-.079-12.551-54.914.345-.695-110.818-6.782-.539V25.899l6.628-.221" class="H"/></clipPath><clipPath id="At"><path d="M11.756 25.677V4.019h194.372v206.305h-85.005l-3.696-30.798-42.69 2.831-.305-9.156h-6.834l-.079-12.551-54.914.345-.695-110.818-6.782-.539V25.899l6.628-.221" class="H"/></clipPath><clipPath id="Au"><path d="M11.756 25.677V4.019h194.372v206.305h-85.005l-3.696-30.798-42.69 2.831-.305-9.156h-6.834l-.079-12.551-54.914.345-.695-110.818-6.782-.539V25.899l6.628-.221" class="H"/></clipPath><clipPath id="Av"><path d="M11.756 25.677V4.019h194.372v206.305h-85.005l-3.696-30.798-42.69 2.831-.305-9.156h-6.834l-.079-12.551-54.914.345-.695-110.818-6.782-.539V25.899l6.628-.221" class="H"/></clipPath><clipPath id="Aw"><path d="M11.756 25.677V4.019h194.372v206.305h-85.005l-3.696-30.798-42.69 2.831-.305-9.156h-6.834l-.079-12.551-54.914.345-.695-110.818-6.782-.539V25.899l6.628-.221" class="H"/></clipPath><clipPath id="Ax"><path d="M11.756 25.677V4.019h194.372v206.305h-85.005l-3.696-30.798-42.69 2.831-.305-9.156h-6.834l-.079-12.551-54.914.345-.695-110.818-6.782-.539V25.899l6.628-.221" class="H"/></clipPath><clipPath id="Ay"><path d="M11.756 25.677V4.019h194.372v206.305h-85.005l-3.696-30.798-42.69 2.831-.305-9.156h-6.834l-.079-12.551-54.914.345-.695-110.818-6.782-.539V25.899l6.628-.221" class="H"/></clipPath><clipPath id="Az"><path d="M11.756 25.677V4.019h194.372v206.305h-85.005l-3.696-30.798-42.69 2.831-.305-9.156h-6.834l-.079-12.551-54.914.345-.695-110.818-6.782-.539V25.899l6.628-.221" class="H"/></clipPath><clipPath id="BA"><path d="M11.756 25.677V4.019h194.372v206.305h-85.005l-3.696-30.798-42.69 2.831-.305-9.156h-6.834l-.079-12.551-54.914.345-.695-110.818-6.782-.539V25.899l6.628-.221" class="H"/></clipPath><clipPath id="BB"><path d="M11.756 25.677V4.019h194.372v206.305h-85.005l-3.696-30.798-42.69 2.831-.305-9.156h-6.834l-.079-12.551-54.914.345-.695-110.818-6.782-.539V25.899l6.628-.221" class="H"/></clipPath><clipPath id="BC"><path d="M11.756 25.677V4.019h194.372v206.305h-85.005l-3.696-30.798-42.69 2.831-.305-9.156h-6.834l-.079-12.551-54.914.345-.695-110.818-6.782-.539V25.899l6.628-.221" class="H"/></clipPath><clipPath id="BD"><path d="M11.756 25.677V4.019h194.372v206.305h-85.005l-3.696-30.798-42.69 2.831-.305-9.156h-6.834l-.079-12.551-54.914.345-.695-110.818-6.782-.539V25.899l6.628-.221" class="H"/></clipPath><clipPath id="BE"><path d="M11.756 25.677V4.019h194.372v206.305h-85.005l-3.696-30.798-42.69 2.831-.305-9.156h-6.834l-.079-12.551-54.914.345-.695-110.818-6.782-.539V25.899l6.628-.221" class="H"/></clipPath><clipPath id="BF"><path d="M11.756 25.677V4.019h194.372v206.305h-85.005l-3.696-30.798-42.69 2.831-.305-9.156h-6.834l-.079-12.551-54.914.345-.695-110.818-6.782-.539V25.899l6.628-.221" class="H"/></clipPath><clipPath id="BG"><path d="M11.756 25.677V4.019h194.372v206.305h-85.005l-3.696-30.798-42.69 2.831-.305-9.156h-6.834l-.079-12.551-54.914.345-.695-110.818-6.782-.539V25.899l6.628-.221" class="H"/></clipPath><clipPath id="BH"><path d="M11.756 25.677V4.019h194.372v206.305h-85.005l-3.696-30.798-42.69 2.831-.305-9.156h-6.834l-.079-12.551-54.914.345-.695-110.818-6.782-.539V25.899l6.628-.221" class="H"/></clipPath><clipPath id="BI"><path d="M11.756 25.677V4.019h194.372v206.305h-85.005l-3.696-30.798-42.69 2.831-.305-9.156h-6.834l-.079-12.551-54.914.345-.695-110.818-6.782-.539V25.899l6.628-.221" class="H"/></clipPath><clipPath id="BJ"><path d="M11.756 25.677V4.019h194.372v206.305h-85.005l-3.696-30.798-42.69 2.831-.305-9.156h-6.834l-.079-12.551-54.914.345-.695-110.818-6.782-.539V25.899l6.628-.221" class="H"/></clipPath><clipPath id="BK"><path d="M11.756 25.677V4.019h194.372v206.305h-85.005l-3.696-30.798-42.69 2.831-.305-9.156h-6.834l-.079-12.551-54.914.345-.695-110.818-6.782-.539V25.899l6.628-.221" class="H"/></clipPath><clipPath id="BL"><path d="M11.756 25.677V4.019h194.372v206.305h-85.005l-3.696-30.798-42.69 2.831-.305-9.156h-6.834l-.079-12.551-54.914.345-.695-110.818-6.782-.539V25.899l6.628-.221" class="H"/></clipPath><clipPath id="BM"><path d="M11.756 25.677V4.019h194.372v206.305h-85.005l-3.696-30.798-42.69 2.831-.305-9.156h-6.834l-.079-12.551-54.914.345-.695-110.818-6.782-.539V25.899l6.628-.221" class="H"/></clipPath><clipPath id="BN"><path d="M11.756 25.677V4.019h194.372v206.305h-85.005l-3.696-30.798-42.69 2.831-.305-9.156h-6.834l-.079-12.551-54.914.345-.695-110.818-6.782-.539V25.899l6.628-.221" class="H"/></clipPath><clipPath id="BO"><path d="M11.756 25.677V4.019h194.372v206.305h-85.005l-3.696-30.798-42.69 2.831-.305-9.156h-6.834l-.079-12.551-54.914.345-.695-110.818-6.782-.539V25.899l6.628-.221" class="H"/></clipPath><clipPath id="BP"><path d="M11.756 25.677V4.019h194.372v206.305h-85.005l-3.696-30.798-42.69 2.831-.305-9.156h-6.834l-.079-12.551-54.914.345-.695-110.818-6.782-.539V25.899l6.628-.221" class="H"/></clipPath><clipPath id="BQ"><path d="M11.756 25.677V4.019h194.372v206.305h-85.005l-3.696-30.798-42.69 2.831-.305-9.156h-6.834l-.079-12.551-54.914.345-.695-110.818-6.782-.539V25.899l6.628-.221" class="H"/></clipPath><clipPath id="BR"><path d="M11.756 25.677V4.019h194.372v206.305h-85.005l-3.696-30.798-42.69 2.831-.305-9.156h-6.834l-.079-12.551-54.914.345-.695-110.818-6.782-.539V25.899l6.628-.221" class="H"/></clipPath><clipPath id="BS"><path d="M11.756 25.677V4.019h194.372v206.305h-85.005l-3.696-30.798-42.69 2.831-.305-9.156h-6.834l-.079-12.551-54.914.345-.695-110.818-6.782-.539V25.899l6.628-.221" class="H"/></clipPath><clipPath id="BT"><path d="M11.756 25.677V4.019h194.372v206.305h-85.005l-3.696-30.798-42.69 2.831-.305-9.156h-6.834l-.079-12.551-54.914.345-.695-110.818-6.782-.539V25.899l6.628-.221" class="H"/></clipPath><clipPath id="BU"><path d="M11.756 25.677V4.019h194.372v206.305h-85.005l-3.696-30.798-42.69 2.831-.305-9.156h-6.834l-.079-12.551-54.914.345-.695-110.818-6.782-.539V25.899l6.628-.221" class="H"/></clipPath><clipPath id="BV"><path d="M11.756 25.677V4.019h194.372v206.305h-85.005l-3.696-30.798-42.69 2.831-.305-9.156h-6.834l-.079-12.551-54.914.345-.695-110.818-6.782-.539V25.899l6.628-.221" class="H"/></clipPath><clipPath id="BW"><path d="M11.756 25.677V4.019h194.372v206.305h-85.005l-3.696-30.798-42.69 2.831-.305-9.156h-6.834l-.079-12.551-54.914.345-.695-110.818-6.782-.539V25.899l6.628-.221" class="H"/></clipPath><clipPath id="BX"><path d="M11.756 25.677V4.019h194.372v206.305h-85.005l-3.696-30.798-42.69 2.831-.305-9.156h-6.834l-.079-12.551-54.914.345-.695-110.818-6.782-.539V25.899l6.628-.221" class="H"/></clipPath><clipPath id="BY"><path d="M11.756 25.677V4.019h194.372v206.305h-85.005l-3.696-30.798-42.69 2.831-.305-9.156h-6.834l-.079-12.551-54.914.345-.695-110.818-6.782-.539V25.899l6.628-.221" class="H"/></clipPath><clipPath id="BZ"><path d="M11.756 25.677V4.019h194.372v206.305h-85.005l-3.696-30.798-42.69 2.831-.305-9.156h-6.834l-.079-12.551-54.914.345-.695-110.818-6.782-.539V25.899l6.628-.221" class="H"/></clipPath><clipPath id="Ba"><path d="M11.756 25.677V4.019h194.372v206.305h-85.005l-3.696-30.798-42.69 2.831-.305-9.156h-6.834l-.079-12.551-54.914.345-.695-110.818-6.782-.539V25.899l6.628-.221" class="H"/></clipPath><clipPath id="Bb"><path d="M43.549 252.434v-30.722h159.836v30.722H43.549" class="H"/></clipPath><clipPath id="Bc"><path d="M43.549 252.434v-30.722h159.836v30.722H43.549" class="H"/></clipPath><clipPath id="Bd"><path d="M43.549 252.434v-30.722h159.836v30.722H43.549" class="H"/></clipPath><clipPath id="Be"><path d="M43.549 252.434v-30.722h159.836v30.722H43.549" class="H"/></clipPath><clipPath id="Bf"><path d="M43.549 252.434v-30.722h159.836v30.722H43.549" class="H"/></clipPath><clipPath id="Bg"><path d="M43.549 252.434v-30.722h159.836v30.722H43.549" class="H"/></clipPath><clipPath id="Bh"><path d="M4.118 293.029V4.009h202.02v289.02H4.118" class="H"/></clipPath><clipPath id="Bi"><path d="M4.118 293.029V4.009h202.02v289.02H4.118" class="H"/></clipPath><path id="Bj" d="M124.086 25.282v-.925"/><path id="Bk" d="M122.086 25.282h2"/><path id="Bl" d="M124.086 47.282v.925"/><path id="Bm" d="M92.064 51.697h.925"/><path id="Bn" d="M70.064 51.697h-.925"/><path id="Bo" d="M29.784 149.701l-.5.006-.003-.5.5-.006.003.5"/><path id="Bp" d="M18.666 51.272l.006.925"/><path id="Bq" d="M26.291 51.224l-7.125.045"/><path id="Br" d="M28.666 51.209l-2.375.015"/><path id="Bs" d="M18.513 26.772l-.006-.925"/><path id="Bt" d="M133.55 148.423l.117 9.499"/><path id="Bu" d="M119.918 158.091l-1.875.023.015 1.25 1.875-.023-.015-1.25"/><path id="Bv" d="M119.933 159.341l1.875-.023-.015-1.25-1.875.023.015 1.25"/><path id="Bw" d="M167.414 157.506l-1.875.023.016 1.25 1.874-.023-.015-1.25"/><path id="Bx" d="M191.258 13.416c0-.345-.28-.625-.625-.625s-.625.28-.625.625.279.625.625.625.625-.28.625-.625"/><path id="By" d="M153.312 64.793a.5.5 0 1 0-1 0 .5.5 0 1 0 1 0"/><path id="Bz" d="M169.842 52.018c0-.124.101-.225.225-.225s.225.101.225.225"/><path id="CA" d="M187.272 137.787v-12.666"/><path id="CB" d="M187.272 123.621v-12.667"/><path id="CC" d="M187.272 109.454V96.787"/><path id="CD" d="M172.404 138.537a.75.75 0 0 1-.75-.75"/><path id="CE" d="M187.272 137.787a.75.75 0 0 1-.75.75"/><path id="CF" d="M186.522 124.371a.75.75 0 0 1 .75.75"/><path id="CG" d="M171.654 125.121a.75.75 0 0 1 .75-.75"/><path id="CH" d="M191.278 235.757h-2.5v-2.5h2.5v2.5"/><path id="CI" d="M191.278 235.757h-2.5"/><path id="CJ" d="M188.778 235.757v-2.5"/><path id="CK" d="M188.778 233.257h2.5"/><path id="CL" d="M191.278 233.257v2.5"/><path id="CM" d="M191.278 235.757v-5"/></defs><g clip-path="url(#A)" transform="translate(-.606 -.554)"><g clip-path="url(#B)" class="I J K L"><g transform="scale(.352778)"><text transform="translate(255.443 822.242)"><tspan x="0 8.099" y="0">M</tspan></text><text><tspan x="266.263" y="822.242">3</tspan><tspan x="271.641" y="822.242">.</tspan><tspan x="274.362" y="822.242">5</tspan></text></g></g><g clip-path="url(#C)" class="I J K L N"><text transform="matrix(.352778 0 0 .352778 6.700313 259.484447)"><tspan x="0 2.685 9.686 18.824 25.29 31.756 37.677 45.222" y="0">INWESTOR</tspan></text></g><g clip-path="url(#D)" class="I J K L"><g transform="scale(.352778)"><text transform="translate(19.707 751.333)"><tspan x="0 6.474 9.701 15.096 17.245 22.639 27.49 30.183 32.914 39.388 44.783 50.177 55.572 60.967 64.194 69.045 74.44 77.102 79.795 82.488 85.266 90.117" y="0">Projekt Podgorze II sp</tspan></text><text transform="translate(115.21 751.333)"><tspan x="0 2.721" y="0">.</tspan></text><text transform="translate(120.653 751.333)"><tspan x="0 4.846 7.581" y="0">z o</tspan></text><text><tspan x="133.611" y="751.333">.</tspan><tspan x="136.333" y="751.333">o</tspan><tspan x="141.71" y="751.333">.</tspan></text></g></g><g clip-path="url(#E)" class="I J K L"><g transform="scale(.352778)"><text transform="translate(19.707 778.973)"><tspan x="0 6.998" y="0">Ul</tspan></text><text transform="translate(28.843 778.973)"><tspan x="0 2.721" y="0">.</tspan></text><text transform="translate(34.285 778.973)"><tspan x="0 6.98 12.347 17.17 22.537 29.517 31.638 36.461 41.283 46.65" y="0">Rakowicka</tspan></text><text transform="translate(83.657 778.973)"><tspan x="0 5.378 10.755" y="0">15</tspan></text><text transform="translate(97.134 778.973)"><tspan x="0 2.142 7.531" y="0">lok</tspan></text><text><tspan x="109.509" y="778.973">.</tspan><tspan x="112.23" y="778.973">W</tspan><tspan x="121.43" y="778.973">-</tspan><tspan x="124.67" y="778.973">U</tspan><tspan x="131.668" y="778.973">2</tspan><tspan x="137.045" y="778.973">/</tspan><tspan x="139.767" y="778.973">2</tspan></text></g></g><g clip-path="url(#F)" class="I J K L"><g transform="scale(.352778)"><text transform="translate(19.947 765.774)"><tspan x="0 5.378" y="0">31</tspan></text><text><tspan x="30.703" y="765.774">-</tspan></text><text transform="translate(33.942 765.774)"><tspan x="0 5.14 10.28 15.42" y="0">511</tspan></text><text transform="translate(52.084 765.774)"><tspan x="0 6.485 13.505 19.99 26.475 34.039" y="0">KRAKÓW</tspan></text></g></g><g clip-path="url(#G)" class="I J K L N"><g transform="scale(.352778)"><text transform="translate(407.489 734.473)"><tspan x="0 7.013 9.71 16.188 23.201 30.214 37.226 44.239 51.796 59.877 67.434 73.912" y="0">NIERUCHOMOŚĆ</tspan></text><text><tspan x="488.414" y="734.473">:</tspan></text></g></g><g clip-path="url(#H)" class="I J K L"><g transform="scale(.352778)"><text transform="translate(407.489 811.235)"><tspan x="0 5.391" y="0">dz</tspan></text><text><tspan x="417.726" y="811.235">.</tspan></text><text transform="translate(420.447 811.235)"><tspan x="0 5.392 8.617" y="0">nr</tspan></text><text transform="translate(431.786 811.235)"><tspan x="0 5.378 10.755" y="0">187</tspan></text><text><tspan x="447.919" y="811.235">/</tspan><tspan x="450.64" y="811.235">2</tspan></text><text transform="translate(456.018 811.235)"><tspan x="0 2.721" y="0">,</tspan></text><text transform="translate(461.46 811.235)"><tspan x="0 5.357 10.715 13.905 19.262 24.619 27.472 32.829 39.8 41.911 47.268 52.625 57.983 62.796 67.609 69.72 75.077 79.89" y="0">obreb ewidencyjny</tspan></text><text transform="translate(543.94 811.235)"><tspan x="0 5.378 10.755 16.133" y="0">0002</tspan></text><text><tspan x="565.451" y="811.235">,</tspan></text><text transform="translate(407.489 822.371)"><tspan x="0 7.007" y="0">Dz</tspan></text><text transform="translate(419.346 822.371)"><tspan x="0 2.721" y="0">.</tspan></text><text transform="translate(424.788 822.371)"><tspan x="0 6.467 11.854 17.242 22.63 27.474 29.616 34.459" y="0">Bogucice</tspan></text><text><tspan x="464.635" y="822.371">-</tspan></text><text transform="translate(467.875 822.371)"><tspan x="0 5.899 11.263 18.241 23.605 28.97 33.79 35.908" y="0">Zawodzie</tspan></text><text><tspan x="509.147" y="822.371">,</tspan></text></g></g><g clip-path="url(#I)" class="I J K L"><g transform="scale(.352778)"><text transform="translate(407.489 783.69)"><tspan x="0 2.124 7.494 12.865 18.235 23.605 28.431 31.1 35.926 41.296 44.188 49.558 56.542 58.666 64.036 69.407 74.777 79.603 84.429 86.553 91.924 97.294" y="0">jednostka ewidencyjna</tspan></text><text transform="translate(507.333 783.69)"><tspan x="0 5.378 10.755 16.133 21.511 26.889" y="0">246901</tspan></text><text><tspan x="539.599" y="783.69">_</tspan><tspan x="544.977" y="783.69">1</tspan></text><text transform="translate(550.355 783.69)"><tspan x="0 2.721" y="0">,</tspan></text><text><tspan x="555.797" y="783.69">M</tspan><tspan x="563.896" y="783.69">.</tspan></text><text transform="translate(407.489 794.827)"><tspan x="0 6.446 11.812 14.477 19.844 26.824 28.945 33.768" y="0">Katowice</tspan></text></g></g><g clip-path="url(#J)" class="I J K L"><g transform="scale(.352778)"><text transform="translate(407.489 757.23)"><tspan x="0 5.381" y="0">ul</tspan></text><text transform="translate(415.004 757.23)"><tspan x="0 2.721" y="0">.</tspan></text><text transform="translate(420.447 757.23)"><tspan x="0 6.374" y="0">Św</tspan></text><text transform="translate(433.729 757.23)"><tspan x="0 2.721" y="0">.</tspan></text><text transform="translate(439.172 757.23)"><tspan x="0 6.425 11.771 18.73 20.83 26.176" y="0">Pawla</tspan></text><text transform="translate(468.069 757.23)"><tspan x="0 5.378 10.755" y="0">12</tspan></text><text transform="translate(481.546 757.23)"><tspan x="0 5.359 8.551 13.911 18.726 21.576 28.014" y="0">oraz Św</tspan></text><text transform="translate(516.404 757.23)"><tspan x="0 2.721" y="0">.</tspan></text><text transform="translate(521.846 757.23)"><tspan x="0 6.425 11.771 18.73 20.83 26.176" y="0">Pawła</tspan></text><text transform="translate(550.744 757.23)"><tspan x="0 5.378" y="0">12</tspan></text><text transform="translate(561.499 757.23)"><tspan x="0 5.284 8.099" y="0">a w</tspan></text><text transform="translate(407.489 768.366)"><tspan x="0 6.45 11.822 14.492 19.863 26.848 28.974 33.801 39.173 44" y="0">Katowicach</tspan></text></g></g><g clip-path="url(#K)" class="I J K L"><g transform="scale(.352778)"><text transform="translate(349.89 803.237)" class="N"><tspan x="0 7.007 14.014 22.091 28.564" y="0">NUMER</tspan></text><text transform="translate(343.897 814.373)" class="N"><tspan x="0 6.945 13.366 19.776 26.722 33.667 40.612" y="0">RYSUNKU</tspan></text><text><tspan x="360.937" y="825.509">3</tspan><tspan x="366.315" y="825.509">.</tspan><tspan x="369.036" y="825.509">5</tspan></text></g></g><g stroke-width=".13" class="B C D E F"><path d="M5.128 292.019h200m0-287h-200"/><path d="M5.128 5.019v287m0-37.759h55.765m144.235 0v37.759m0 0h-200"/><path d="M5.128 292.019v-49.377m143.904 49.377H66.934m-6.041 0V254.26"/><path d="M60.893 254.26v22.201M5.128 292.019h200"/><path d="M205.128 292.019v-24.688m-64.752 9.13h-21.148m-114.1-9.13v24.688m200 0h-18.943"/><path d="M140.376 292.019V254.26m64.752 13.071v24.688M32.514 276.461v15.558m28.379-15.558H5.128m114.1 0H60.893m0-22.201h144.235m-85.9 22.201v15.558"/><path d="M125.645 254.26H60.893"/></g><g clip-path="url(#L)" class="I J K L N"><text transform="matrix(.352778 0 0 .352778 39.574636 282.047775)"><tspan x="0 6.488 9.196 15.685 21.629 28.652" y="0">PIĘTRO</tspan></text></g><g clip-path="url(#M)" class="I J K L"><g transform="scale(.352778)"><text transform="translate(175.564 799.969)"><tspan x="0 6.458 13.994 23.144 25.82 32.278 39.27 45.183 52.175 59.167 66.16 68.836 75.294 77.815 86.965 94.501 97.317 104.31 111.846 118.838 126.909" y="0">POWIERZCHNIA WG NORMY</tspan></text><text transform="translate(175.564 811.105)"><tspan x="0 6.471" y="0">PN</tspan></text><text><tspan x="189.04" y="811.105">-</tspan></text><text transform="translate(192.28 811.105)"><tspan x="0 2.714 9.208 16.781" y="0">ISO</tspan></text><text transform="translate(211.782 811.105)"><tspan x="0 5.378 10.755 16.133" y="0">9836</tspan></text><text><tspan x="233.293" y="811.105">:</tspan></text><text transform="translate(236.014 811.105)"><tspan x="0 5.378 10.755 16.133" y="0">1997</tspan></text><text transform="translate(257.525 811.105)"><tspan x="0 5.394 12.945 19.418 25.891 31.285" y="0">LOKALU</tspan></text><text transform="translate(175.564 822.242)"><tspan x="0 8.098 10.801 17.286 23.77 29.71 36.194 42.679 48.084 55.103 61.587 69.151" y="0">MIESZKALNEGO</tspan></text><text><tspan x="252.277" y="822.242">:</tspan></text></g></g><g clip-path="url(#N)" class="I J K N P"><g transform="scale(.352778)"><text transform="translate(178.734 766.355)"><tspan x="0 8.213 16.426 24.639 31.557 39.77 42.063 51.559 54.594 62.165 69.737 76.655 84.868 93.081 101.294 104.329 112.542" y="0">KARTA MIESZKANIA</tspan></text><text transform="translate(295.515 766.355)"><tspan x="0 9.719" y="0">M</tspan></text><text><tspan x="308.499" y="766.355">3</tspan><tspan x="314.952" y="766.355">.</tspan><tspan x="318.218" y="766.355">5</tspan></text></g></g><g clip-path="url(#O)" class="I J K L N"><text transform="matrix(.352778 0 0 .352778 63.129623 258.161529)"><tspan x="0 5.899 12.353 18.252 25.23 31.129 34.081 41.059 47.512 53.955 60.934 67.912 74.89" y="0">TYTUŁ RYSUNKU</tspan></text></g><g class="B C D E F G"><path d="M63.241 160.677v-11.892m0 0l132.298-1.626m0 0l-.531-138.118"/><path d="M195.008 9.041l-73.001.238m0-.001l-.006-5.259M12.219 98.631h-.006"/><path d="M12.218 99.383l.001-.752"/><path d="M12.213 98.631h.006"/><path d="M12.219 98.631l.009-6.802m.001-.001h-.058"/><path d="M12.171 91.828h.058m0 0l.009-6.802m0 0l.001-.625"/><path d="M12.239 84.401h-.114m.374 59.786l-.046-7.299m0 0l-.046-7.299m.001 0l-.046-7.299m0 0l-.046-7.299m0 0l-.046-7.299m0 0l-.046-7.298m.001 0l-.046-7.299m-.018-2.78l-.009-1.377m-.01-1.765l-.009-1.377m0 0l-.006-1.004m-.011-1.764l-.011-1.764m-.011-1.763l-.006-1.004m-.001 0l-.006-1.004m-.011-1.763l-.011-1.764m-.011-1.764l-.006-1.004m-.001 0l-.004-.625"/></g><g clip-path="url(#P)" class="I J K O"><text transform="matrix(.352773 -.001847 .001847 .352773 10.506282 142.503578)"><tspan x="0" y="0">1</tspan></text></g><g clip-path="url(#Q)" class="I J K O"><text transform="matrix(.352773 -.001847 .001847 .352773 10.460934 135.204596)"><tspan x="0" y="0">2</tspan></text></g><g clip-path="url(#R)" class="I J K O"><text transform="matrix(.352773 -.001847 .001847 .352773 10.415552 127.905613)"><tspan x="0" y="0">3</tspan></text></g><g clip-path="url(#S)" class="I J K O"><text transform="matrix(.352773 -.001847 .001847 .352773 10.370204 120.606981)"><tspan x="0" y="0">4</tspan></text></g><g clip-path="url(#T)" class="I J K O"><text transform="matrix(.352773 -.001847 .001847 .352773 10.324821 113.307998)"><tspan x="0" y="0">5</tspan></text></g><g clip-path="url(#U)" class="I J K O"><text transform="matrix(.352773 -.001847 .001847 .352773 10.279472 106.009014)"><tspan x="0" y="0">6</tspan></text></g><g clip-path="url(#V)" class="I J K O"><text transform="matrix(.352773 -.001847 .001847 .352773 10.234125 98.710383)"><tspan x="0" y="0">7</tspan></text></g><g clip-path="url(#W)" class="I J K O"><text transform="matrix(.352773 -.001847 .001847 .352773 10.188741 91.411399)"><tspan x="0" y="0">8</tspan></text></g><g clip-path="url(#X)" class="I J K O"><text transform="matrix(.352773 -.001847 .001847 .352773 10.143393 84.112415)"><tspan x="0" y="0">9</tspan></text></g><g clip-path="url(#Y)" class="I J K O"><text transform="matrix(.352773 -.001847 .001847 .352773 9.623735 76.816581)"><tspan x="0 2.689" y="0">10</tspan></text></g><g clip-path="url(#Z)" class="I J K O"><text transform="matrix(.352773 -.001847 .001847 .352773 9.641217 69.517248)"><tspan x="0 2.511" y="0">11</tspan></text></g><path d="M97.087 148.372l-2 .024V53.697l2-2v96.675" class="M"/><g class="B C D E F G"><path d="M97.087 23.781h-2m2 27.916h-2m2 96.675V51.697m-2 2v94.699"/><path d="M97.087 51.697h-2m2-27.916h-2"/></g><path d="M195.195 50.268v2h-73.109l2-2h71.109" class="M"/><g class="B C D E F G"><path d="M195.195 50.268h-71.109m-2 2h73.109"/><path d="M195.195 52.268v-2"/></g><g class="M"><path d="M124.086 9.271v16.01h-2V9.278l2-.007m-2 38.011h2v2.987l-2 2v-4.987"/></g><g class="B C D E F G"><use href="#Bj"/><path d="M122.086 25.282v-.925"/><use href="#Bk"/><use href="#Bl"/><path d="M122.086 47.282v.925m0-.925h2m-2-38.004v16.004"/><path d="M122.086 47.282v4.987m2-2.001v-2.987m0-21.999V9.271"/></g><g clip-path="url(#a)" class="B C D E F G"><path d="M122.086 46.282c-11.045 0-20-8.954-20-20"/></g><g class="M"><path d="M124.961 47.282v-1h-2.875v1h2.875m-2.875-22v1h2.875v-1h-2.875"/></g><g class="B C D E F G"><path d="M124.961 47.282v-1m0 0h-2.875m0 0v1m0 0h2.875m-2.875-22v1m0 0h2.875m0 0v-1"/><path d="M124.961 25.282h-2.875m0 1h-20m20 21h2"/><path d="M122.086 47.282h2m-2 0v.925"/><path d="M122.086 47.282v.925"/><use href="#Bl"/><use href="#Bl"/><use href="#Bk"/><use href="#Bk"/><path d="M122.086 25.282v-.925"/><path d="M122.086 25.282v-.925"/><use href="#Bj"/><use href="#Bj"/></g><g class="M"><path d="M29.169 51.697h40.895v2H29.182l-.013-2m67.918 0l-2 2h-3.022v-2h5.022"/></g><g class="B C D E F G"><use href="#Bm"/><path d="M92.064 53.697h.925m-.925 0v-2"/><use href="#Bn"/><path d="M70.064 53.697h-.925m.925 0v-2m27.023 0h-5.022m-22.001 0H29.169"/><path d="M29.182 53.697h40.882m22 0h3.022"/></g><g clip-path="url(#b)" class="B C D E F G"><path d="M91.064 73.697c-11.046 0-20-8.954-20-20"/></g><g class="M"><path d="M70.064 50.822v2.875h1v-2.875h-1m22 2.875v-2.875h-1v2.875h1"/></g><g class="B C D E F G"><path d="M70.064 50.822h1m0 0v2.875m0 0h-1"/><path d="M70.064 53.697v-2.875m22 2.875h-1"/><path d="M91.064 53.697v-2.875m0 0h1m0 0v2.875m-1 0v20m-21-20v-2"/><path d="M70.064 53.697v-2m0 2h-.925"/><path d="M70.064 53.697h-.925"/><use href="#Bn"/><use href="#Bn"/><path d="M92.064 53.697v-2"/><path d="M92.064 53.697v-2m0 2h.925"/><path d="M92.064 53.697h.925"/><use href="#Bm"/><use href="#Bm"/></g><path d="M122.086 7.476l-110.33.42V4.019h110.33v3.457" class="M"/><g class="B C D E F G"><path d="M11.756 7.897l6.638-.025m10.5-.041l93.192-.355"/></g><g class="M"><path d="M122.507 9.277l-.5.002.5-.502v.5"/><path d="M122.507 8.777l72.499-.236.002.5-72.501.236v-.5"/><path d="M195.006 8.541l.5-.002v.111l-.498.391-.002-.5"/><path d="M195.506 8.65v-.111h.143l-.143.112m-63.499.095l-9.5.031 4.736-4.757h4.758l.006 4.726"/><path d="M132.007 8.746l-.006-4.726h63.487l.018 4.519-63.499.207"/><path d="M195.488 4.019h5.929l-5.768 4.519h-.143l-.018-4.519"/></g><g class="B C D E F G"><path d="M122.007 9.278h.022m2.057-.007l70.922-.231"/></g><g class="M"><path d="M18.894 7.87l.119 18.899-.5.003-.119-18.901.5-.002m-.228 43.403l.5-.003.688 109.681-.5.003-.688-109.68"/><path d="M28.394 7.833l.118 18.876-9.5.059-.118-18.899 9.5-.036m-9.228 43.435l9.5-.059.618 98.498-9.499.117-.618-98.556"/><path d="M29.343 159.207l-9.499.117-.06-9.5 9.499-.117.06 9.5"/><path d="M19.844 159.324l9.499-.117.011 1.683-9.5.059-.01-1.625m9.05-151.493l.118 18.875-.5.003-.118-18.876.5-.002m-.228 43.378l.5-.003.003.492h-.5l-.003-.488"/><path d="M29.182 53.697h-.5l-.012-2h.5l.013 2"/><path d="M29.781 149.201l-.5.006-.599-95.51h.5l.599 95.504"/><use href="#Bo"/><path d="M29.843 159.201l-.5.006-.06-9.5.5-.006.06 9.5"/><path d="M29.847 159.701l-.5.006-.003-.5.5-.006.003.5"/><path d="M29.347 159.707l.5-.006.007 1.185-.5.004-.008-1.183"/></g><g class="B C D E F G"><use href="#Bp"/><path d="M19.166 51.268l-.5.003"/><use href="#Bq"/><path d="M29.166 51.206l.006.925"/><use href="#Br"/><path d="M29.166 51.206l-.5.003"/><use href="#Bs"/><path d="M19.013 26.769l-.5.003m7.625-.048l-7.125.045m10-.063l-.006-.925m-.494.928l-2.375.015"/><path d="M29.013 26.706l-.5.003m1.341 134.177l-.007-1.185m-.066-10.5l-.599-95.504m-.013-2l-.003-.492m-.153-24.499l-.118-18.875m-10.501.04l.118 18.901m.154 24.5l.688 109.68"/></g><g clip-path="url(#c)" class="B C D E F G"><path d="M29.019 27.706h.141c12.371 0 22.422 9.988 22.5 22.359"/></g><g class="M"><path d="M26.138 26.724l.006 1 2.875-.018-.006-1-2.875.018m3.028 24.482l-.006-1-2.875.018.006 1 2.875-.018"/></g><g class="B C D E F G"><path d="M26.138 26.724l.006 1m0 0l2.875-.018"/><path d="M29.019 27.706l-.006-1m0 0l-2.875.018m3.028 24.482l-.006-1m0 0l-2.875.018m0 0l.006 1m0 0l2.875-.018m-.006-1l22.499-.141"/><path d="M29.013 26.706l-.5.003"/><path d="M29.013 26.706l-.5.003m0 0l-2.375.015"/><path d="M28.513 26.709l-2.375.015m0 0l-7.125.045m0 0l-.5.003m10.5-.066l-.006-.925"/><path d="M29.013 26.706l-.006-.925m-2.869.943l-7.125.045m0 0l-.5.003"/><use href="#Bs"/><use href="#Bs"/><path d="M29.166 51.206l-.5.003"/><path d="M29.166 51.206l-.5.003"/><use href="#Br"/><use href="#Br"/><use href="#Bq"/><path d="M19.166 51.268l-.5.003m10.5-.065l.006.925"/><path d="M29.166 51.206l.006.925"/><use href="#Bq"/><path d="M19.166 51.268l-.5.003"/><use href="#Bp"/><use href="#Bp"/></g><g clip-path="url(#d)" class="B C D E F G"><path d="M29.912 170.074l.125-.001c10.997 0 19.931 8.878 20 19.875"/></g><g class="M"><path d="M53.271 158.912v.501l-23.424.288-.003-.5 23.428-.289"/><path d="M53.771 158.906v.5l-.5.007v-.501l.5-.006"/><path d="M63.272 158.789l-.001.5-9.5.117v-.5l9.5-.117"/><path d="M63.272 158.789l.416-.005.006.5-.422.005.001-.5m27.912-.344l14.984-.184.006.5-14.984.184-.006-.5m62.48-.77l.006.5-19.998.247-.006-.5 19.998-.247m27.498-.338l24.965-.308v.5l-24.959.308-.006-.5m-127.379-7.932l-.013 9.501-23.928.295-.06-9.5 24-.296"/><path d="M63.284 149.288l-.013 9.501-9.5.117.013-9.501 9.5-.117"/><path d="M63.57 149.285l.117 9.499-.416.005.013-9.501.286-.003m27.498-.339l14.984-.185.117 9.5-14.984.184-.117-9.499m42.482-.523l19.998-.247.117 9.499-19.998.247-.117-9.499m62.491-.77l.036 9.5-14.914.184-.117-9.5 14.995-.184"/><path d="M196.077 157.153l-.036-9.5.142-.002 9.945 7.59v1.788l-10.051.124m-166.296-7.952l33.783-.416.006.5-33.786.416-.003-.5"/><path d="M95.087 148.396v.501l-4.019.049-.006-.5 4.025-.05"/><path d="M97.087 148.372v.5l-2 .025v-.501l2-.024"/><path d="M106.045 148.261l.007.5-8.966.111v-.5l8.959-.111m27.498-.338l19.999-.247.006.5-19.998.247-.007-.5m61.996-.764l.002.5-14.495.178-.006-.5 14.499-.178"/><path d="M196.04 147.541l.001.112-.5.006-.002-.5.501.382"/><path d="M196.041 147.653l-.001-.112.143.11-.142.002"/></g><g class="B C D E F G"><use href="#Bt"/><path d="M133.543 147.923l.007.5m.117 9.499l.006.5m-27.621-9.661l.117 9.5m-.124-10l.007.5m.117 9.5l.006.5m-15.107-9.815l.117 9.499m-.123-9.999l.006.5m.117 9.499l.006.5m-27.621-9.66l.117 9.499m-.123-9.999l.006.5m.117 9.499l.006.5m117.353-11.447l.117 9.5m-.123-10l.006.5m.117 9.5l.006.5m-27.621-9.661l.117 9.499m-.123-9.999l.006.5m.117 9.499l.006.5m41.868-11.016l-14.499.178m-27.498.339l-19.999.247m-27.498.338l-8.958.111m-2 .024l-4.025.05m-27.498.339l-33.783.416m.066 10.5l23.424-.288m37.92-.468l14.984-.184m27.498-.339l19.998-.247m27.498-.338l24.959-.308m-100.083-9.268l27.498-.338m-27.368 10.838l27.498-.339"/></g><g class="M"><path d="M106.184 159.511l1.875-.024-.015-1.249-1.875.023.015 1.25"/><use href="#Bu"/><use href="#Bv"/><path d="M133.667 157.922l-1.875.023.015 1.25 1.875-.023-.015-1.25"/></g><g class="B C D E F G"><path d="M106.184 159.511l1.875-.024m0 0l-.015-1.249"/><path d="M108.044 158.238l-1.875.023m13.749-.17l-1.875.023m0 0l.015 1.25m0 0l1.875-.023m-11.874.146l9.999-.123"/><path d="M118.043 158.114l-9.999.124m11.889 1.103l1.875-.023"/><path d="M121.808 159.318l-.015-1.25m0 0l-1.875.023m13.749-.169l-1.875.023m0 0l.015 1.25m0 0l1.875-.023m-11.874.146l9.999-.123"/><path d="M131.792 157.945l-9.999.123m-15.624.193l.006.5"/><path d="M106.169 158.261l.006.5m-.13-10.5l.007.5m0 0l.117 9.5m27.498-.339l.006.5"/><path d="M133.667 157.922l.006.5m-.13-10.499l.007.5"/><use href="#Bt"/><path d="M63.564 148.785l27.498-.339m-27.369 10.838l27.498-.339"/></g><g class="M"><path d="M63.703 160.034l1.875-.023-.015-1.25-1.875.023.015 1.25m13.733-1.419l-1.875.023.015 1.25 1.875-.023-.015-1.25"/><path d="M77.452 159.865l1.875-.023-.015-1.25-1.875.023.015 1.25m13.733-1.42l-1.875.023.015 1.25 1.875-.023-.015-1.25"/></g><g class="B C D E F G"><path d="M63.703 160.034l1.875-.023m-.001 0l-.015-1.25"/><path d="M65.562 158.761l-1.875.023m13.749-.169l-1.875.023m0 0l.015 1.25m.001 0l1.875-.023m-11.875.146l9.999-.123"/><path d="M75.561 158.638l-9.999.123m11.89 1.104l1.875-.023m-.001 0l-.015-1.25"/><path d="M79.311 158.592l-1.875.023m13.749-.17l-1.875.023m0 0l.015 1.25m.001 0l1.875-.023m-11.875.147l9.999-.124"/><path d="M89.31 158.468l-9.999.124m-15.624.192l.006.5"/><path d="M63.687 158.784l.006.5m-.129-10.499l.006.5m0 0l.117 9.499m27.498-.339l.006.5"/><path d="M91.185 158.445l.006.5m-.129-10.499l.006.5m0 0l.117 9.499m62.357-10.769l27.498-.339m-27.369 10.838l27.498-.338"/></g><g class="M"><path d="M153.68 158.925l1.875-.023-.015-1.25-1.875.023.015 1.25"/><use href="#Bw"/><path d="M167.429 158.756l1.875-.023-.015-1.25-1.875.023.015 1.25m13.734-1.419l-1.875.023.016 1.25 1.874-.023-.015-1.25"/></g><g class="B C D E F G"><path d="M153.68 158.925l1.875-.023m0 0l-.015-1.25m0 0l-1.875.023m13.749-.169l-1.875.023m0 0l.016 1.25m0 0l1.874-.023m-11.874.146l10-.123"/><path d="M165.539 157.529l-9.999.123m11.889 1.104l1.875-.023"/><path d="M169.304 158.733l-.015-1.25m0 0l-1.875.023m13.749-.169l-1.875.023m0 0l.016 1.25m0 0l1.874-.023m-11.874.146l10-.123"/><path d="M179.288 157.36l-9.999.123m-15.624.192l.006.5"/><path d="M153.665 157.675l.006.5m-.129-10.499l.006.5m0 0l.117 9.499m27.498-.338l.006.5"/><path d="M181.163 157.337l.006.5m-.129-10.5l.006.5m0 0l.117 9.5"/></g><g class="M"><path d="M63.269 160.677l.002-1.388.5-.006-.002 1.391-.5.003"/><path d="M53.769 160.736l.002-1.33 9.5-.117-.002 1.388-9.5.059"/><path d="M53.269 160.74l.002-1.327.5-.007-.002 1.33-.5.004"/></g><g class="B C D E F G"><path d="M53.271 159.413l-.002 1.327m10.5-.066l.002-1.391"/></g><g class="M"><path d="M122.501 4.019h4.742l-4.736 4.757-.006-4.757"/><path d="M122.506 8.778l-.499.501v-.499l.499-.002"/><path d="M122.001 4.019h.5l.006 4.757-.001.001-.499.002-.006-4.76"/></g><g class="B C D E F G"><path d="M122.007 9.278v-.5m-.006-4.759l.006 4.759"/></g><g class="M"><path d="M196.183 147.651l9.945-.123v7.713l-9.945-7.59"/><path d="M196.04 147.541L195.506 8.65l.143-.112 10.479-.034v139.024l-9.945.123-.143-.11"/><path d="M206.128 8.504l-10.479.034 5.768-4.519h4.711v4.485m-10.589 138.655l.5-.006.001.388-.501-.382"/><path d="M195.174 52.268h.5l.365 94.885-.5.006-.365-94.891"/><path d="M195.166 50.268h.5l.008 2h-.5l-.008-2"/><path d="M195.008 9.041l.5-.002.158 41.229h-.5l-.158-41.228"/><path d="M195.506 8.65l.002.389-.5.002.498-.391"/></g><g class="B C D E F G"><path d="M195.008 9.041l.158 41.228m.008 1.999l.365 94.891"/></g><path d="M63.769 160.674l.001-.393 3.75.005-.001.454-.001-.09-3.749.024" class="M"/><g class="B C D E F G"><path d="M67.519 160.74l.001-.454m0 0l-3.75-.005m0 0l-.001.393"/></g><path d="M91.237 162.695l-.046-3.75 14.984-.184.046 3.749-14.984.185" class="M"/><g class="B C D E F G"><path d="M91.237 162.695l14.984-.185m0 0l-.046-3.749"/><path d="M106.175 158.761l-14.984.184m0 0l.046 3.75"/></g><path d="M133.719 162.172l-.046-3.75 19.998-.247.046 3.75-19.998.247" class="M"/><g class="B C D E F G"><path d="M133.719 162.172l19.998-.247m0 0l-.046-3.75m0 0l-19.998.247m0 0l.046 3.75"/></g><path d="M181.169 157.837l24.959-.308v3.75l-24.913.307-.046-3.749" class="M"/><g class="B C D E F G"><path d="M181.215 161.586l24.913-.307m0-3.75l-24.959.308m0 0l.046 3.749M150.419 9.21h-15m15 5.727V9.21m-.072 6.57l.072-.843m-.287 1.66l.215-.816m-.565 1.579l.35-.763m-.825 1.448l.475-.686m-1.059 1.273l.584-.586m-1.259 1.054l.675-.468m-2.304 1.216l1.629-.748m-3.355 1.206l1.726-.457m-3.5.611l1.774-.154m-3.548 0l1.774.154m-3.499-.612l1.725.457M137.79 19.1l1.63.749m-2.305-1.217l.675.468m-1.259-1.055l.584.586m-1.058-1.271l.474.686m-.825-1.449l.351.763m-.565-1.58l.214.816m-.287-1.659l.073.843"/><path d="M135.419 9.21v5.727m10.471-3.419h-5.942m8.841 2.274v1.146m-11.739-1.146v1.146"/></g><g clip-path="url(#e)" class="B C D E F G"><path d="M147.272 17.601c-1.336.758-2.832 1.155-4.353 1.155s-3.017-.397-4.353-1.155"/></g><g clip-path="url(#f)" class="B C D E F G"><path d="M148.789 14.937c0 1.111-.582 2.134-1.517 2.663"/></g><g clip-path="url(#g)" class="B C D E F G"><g transform="rotate(90 145.887 13.792)"><path d="M143.613 13.792c0-1.603 1.018-2.902 2.274-2.902"/></g></g><g clip-path="url(#h)" class="B C D E F G"><path d="M138.566 17.601c-.934-.53-1.516-1.552-1.516-2.663"/></g><g clip-path="url(#i)" class="B C D E F G"><g transform="rotate(90 139.952 13.792)"><path d="M139.952 16.694c-1.256 0-2.274-1.299-2.274-2.902"/></g></g><g clip-path="url(#j)" class="B C D E F G"><path d="M143.357 14.389c0-.242-.196-.437-.438-.437s-.437.196-.437.438.196.438.437.438.438-.196.438-.437"/></g><g clip-path="url(#k)" class="B C D E F G"><path d="M142.294 10.643c0-.345.28-.625.625-.625s.625.28.625.625"/></g><path d="M143.444 11.692l.1-1.049" class="B C D E F G"/><g clip-path="url(#l)" class="B C D E F G"><path d="M143.444 11.692a.53.53 0 0 1-.082.238"/></g><path d="M143.197 13.253l.165-1.323" class="B C D E F G"/><g clip-path="url(#m)" class="B C D E F G"><path d="M143.197 13.253a.28.28 0 0 1-.555 0"/></g><path d="M142.476 11.93l.166 1.323" class="B C D E F G"/><g clip-path="url(#n)" class="B C D E F G"><path d="M142.476 11.93a.53.53 0 0 1-.082-.238"/></g><g class="B C D E F G"><path d="M142.294 10.643l.1 1.049m.865-.426v.372m-.68 0v-.372"/><path d="M142.579 11.266h.68"/></g><g clip-path="url(#o)" class="B C D E F G"><path d="M143.259 11.638a.34.34 0 1 1-.68 0"/></g><g clip-path="url(#p)" class="B C D E F G"><path d="M143.362 11.93c-.097.151-.264.242-.443.242s-.346-.091-.443-.242"/></g><g class="B C D E F G"><path d="M184.998 36.992l-1.284.137m2.576-.098l-1.292-.039m10.052.848l-8.76-.809m8.76 7.858V37.84m-8.76 7.858l8.76-.809m-10.052.848l1.292-.039m-2.576-.098l1.284.137m-2.528-.447l1.244.31m-2.417-.786l1.173.475m-2.103-1.115l.93.64m-1.643-1.466l.713.826m-1.162-1.783l.449.958m-.604-1.985l.155 1.026"/><path d="M179.205 40.338l-.155 1.026m.604-1.984l-.449.958m1.162-1.784l-.713.826m1.643-1.466l-.93.64m2.103-1.115l-1.173.475m2.417-.785l-1.244.31m-2.534 5.952h0m5.164 2.149h0m5.624-1.452h0"/><path d="M190.724 44.088v-2.723m0-.001V38.64m-5.624-1.451h0m-5.164 2.148h0m-.67 2.027h0"/></g><g clip-path="url(#q)" class="B C D E F G"><g transform="rotate(90 182.731 41.344)"><path d="M184.778 44.139a3.46 3.46 0 0 1-2.027.67"/></g></g><g clip-path="url(#r)" class="B C D E F G"><g transform="rotate(90 184.742 39.128)"><path d="M191.154 38.77l.01.358c0 1.837-.785 3.587-2.159 4.806"/></g></g><g clip-path="url(#s)" class="B C D E F G"><g transform="rotate(90 185.351 34.912)"><path d="M194.527 29.54c.953 1.63 1.455 3.484 1.455 5.372l-.002.251"/></g></g><g clip-path="url(#t)" class="B C D E F G"><g transform="rotate(90 185.352 47.817)"><path d="M174.723 48.068l-.003-.251c0-1.888.502-3.742 1.455-5.372"/></g></g><g clip-path="url(#u)" class="B C D E F G"><g transform="rotate(90 184.742 43.601)"><path d="M180.479 48.407c-1.374-1.22-2.159-2.969-2.159-4.806l.01-.358"/></g></g><g clip-path="url(#v)" class="B C D E F G"><g transform="rotate(90 182.731 41.385)"><path d="M182.71 44.85a3.46 3.46 0 0 1-2.026-.67"/></g></g><g class="B C D E F G"><path d="M195.05 46.034v-9.338m-.377 9.515l.377-.178m-.764.333l.387-.155m-.782.287l.395-.132m-.797.241l.402-.109m-.81.194l.408-.085m-.82.146l.412-.061m-.827.098l.415-.037m-.831.049l.416-.012m-.705-.02l.289.032m-.563-.127l.274.095m-.521-.247l.247.153m-.454-.356l.207.203m-.365-.447l.158.244m-.258-.516l.1.272m-.138-.56l.038.288"/><path d="M190.551 45.227l-.026.289m.195-1.246l-.169.957m.291-1.922l-.122.964m.195-1.933l-.073.969m.097-1.941l-.024.972m0-1.943l.024.972m-.097-1.942l.073.969m-.195-1.933l.122.964m-.291-1.921l.169.957m-.195-1.246l.026.289m.012-.577l-.038.288m.138-.56l-.1.272m.258-.516l-.158.244m.365-.447l-.207.203m.454-.355l-.247.153m.521-.248l-.274.095m.563-.127l-.289.032m.705-.02l-.416-.012m.831.049l-.415-.037m.827.098l-.412-.061m.82.146l-.408-.085m.81.193l-.402-.109m.797.242l-.395-.132m.782.287l-.387-.155m.764.332l-.377-.178"/></g><g clip-path="url(#w)" class="B C D E F G"><path d="M193.55 41.364c0-.207-.168-.375-.375-.375s-.375.168-.375.375.168.375.375.375.375-.168.375-.375"/></g><g class="B C D E F G"><path d="M195.008 30.665V9.041m-10.357 21.624h10.357"/></g><g clip-path="url(#x)" class="B C D E F G"><path d="M184.651 30.665c-5.523 0-10-4.477-10-10"/></g><g class="B C D E F G"><path d="M174.651 9.041v11.624m20.357-11.624h-20.357m17.357 1.25h-14.357m-1.75 1.75v8.624m8.75 8.75h7.357m1.75-1.75V12.041"/></g><g clip-path="url(#y)" class="B C D E F G"><use href="#Bx"/></g><g clip-path="url(#z)" class="B C D E F G"><path d="M175.901 12.041a1.75 1.75 0 0 1 1.75-1.75"/></g><g clip-path="url(#AA)" class="B C D E F G"><path d="M184.651 29.415c-4.832 0-8.75-3.918-8.75-8.75"/></g><g clip-path="url(#AB)" class="B C D E F G"><path d="M193.758 27.665a1.75 1.75 0 0 1-1.75 1.75"/></g><g clip-path="url(#AC)" class="B C D E F G"><path d="M192.008 10.291a1.75 1.75 0 0 1 1.75 1.75"/></g><g clip-path="url(#AD)" class="B C D E F G"><use href="#Bx"/></g><g class="B C D E F G"><path d="M179.629 10.141v.275m.875-.275h-.875m.875-1.1v1.1m1.325-1.1h-1.325m1.325 1.1v-1.1m6 1.1h-6"/><path d="M187.829 9.041v1.1m1.325-1.1h-1.325m1.325 1.1v-1.1m.875 1.1h-.875m.875.275v-.275m-10.4.275h10.4m.604 4.875v11.625m-1.875-13.5h-10.357m10.946 1.365l-8.446 9.634m12.53-9.274h-1.146"/></g><g clip-path="url(#AE)" class="B C D E F G"><path d="M193.431 15.141c.042 0 .075.034.075.075"/></g><g class="B C D E F G"><path d="M193.506 16.466v-1.25m-.023 1.25h.023m-.023.05v-.05m.425.05h-.425m.425.175v-.175m.425.175h-.425m.425.075v-.075m.5-.4l-.5.475m.675-.475h-.175m.175 1.75v-1.75m-.175 1.75h.175m-.675-.475l.5.475m-.5-.4v-.075m-.425.075h.425m-.425 2.8v-2.8m.425 2.8h-.425m.425.075v-.075m.5-.4l-.5.475m.675-.475h-.175m.175 1.75v-1.75m-.175 1.75h.175m-.675-.475l.5.475m-.5-.4v-.075m-.425.075h.425m-.425.175v-.175m-.425.175h.425m-.425.05v-.05m.023.05h-.023m.023 1.25v-1.25"/></g><g clip-path="url(#AF)" class="B C D E F G"><path d="M193.506 22.866c0 .041-.033.075-.075.075"/></g><g class="B C D E F G"><path d="M193.42 22.941h.011"/><path d="M193.42 23.724v-.784"/></g><g clip-path="url(#AG)" class="B C D E F G"><path d="M193.42 23.724l.038.065"/></g><g class="B C D E F G"><path d="M193.458 23.191v.599m.9-.599h-.9m.9.975v-.975m.65.975h-.65m.65.55v-.55m-.65.55h.65m-.65.412v-.413m.425.413h-.425"/></g><g clip-path="url(#AH)" class="B C D E F G"><path d="M194.783 25.128c.089 0 .162.073.162.163s-.073.163-.162.163"/></g><g class="B C D E F G"><path d="M194.358 25.453h.425m-.425.238v-.238m-.9.238h.9"/><path d="M193.458 25.544v.146m-.398-.141l.398-.005"/></g><g clip-path="url(#AI)" class="B C D E F G"><path d="M193.06 25.549a1.37 1.37 0 0 1-.811.266 1.36 1.36 0 0 1-.035 0"/></g><g class="B C D E F G"><path d="M192.202 25.861l.012-.046m-.116.282l.104-.236m-.239.417l.135-.181m-.182.233l.047-.052m-.213.171l.166-.12m-.234.157l.068-.036m-.252.078l.184-.042m-.263.055l.079-.013m-.345.013h.266m-.452-.043l.186.043m-.359-.168l.173.125m-.321-.324l.148.199m-.262-.457l.114.259m-.186-.561l.072.302m-.096-.625l.024.323m0-.647l-.024.323m.096-.624l-.072.301m.186-.56l-.114.259m.262-.458l-.148.199m.262-.281l-.114.082"/></g><g clip-path="url(#AJ)" class="B C D E F G"><path d="M190.908 24.126c.146-.621.7-1.061 1.338-1.061.308 0 .607.103.849.293"/></g><g class="B C D E F G"><path d="M193.095 22.941v.418m-.81-.418h.81"/></g><g clip-path="url(#AK)" class="B C D E F G"><path d="M192.285 22.941c-.042 0-.075-.034-.075-.075"/></g><g class="B C D E F G"><path d="M192.21 21.616v1.25m.123-1.25h-.123m.123-.05v.05"/><path d="M192.328 21.566h.005"/><path d="M192.313 21.566h.015"/><path d="M192.308 21.566h.005"/><path d="M192.308 16.516v5.05"/><path d="M192.313 16.516h-.005"/><path d="M192.328 16.516h-.015"/><path d="M192.333 16.516h-.005"/><path d="M192.333 16.466v.05m-.123-.05h.123m-.123-1.25v1.25"/></g><g clip-path="url(#AL)" class="B C D E F G"><path d="M192.21 15.216c0-.041.033-.075.075-.075"/></g><g class="B C D E F G"><path d="M194.333 17.403h-.425m.425-.475h-.425m.425 4.225h-.425"/><path d="M194.333 20.678h-.425m0 4.038h.45m0-.55h-.45"/><path d="M193.908 24.716h.45m-2.082.85l.455-.013"/><path d="M192.287 25.519l.017-.228m0 0l-.017-.228m-.051.668l-.022.084"/><path d="M192.236 25.731l.051-.212m-.051-.669l-.034-.13m.085.342l-.051-.212m-.034-.13l-.104-.236m.178.531l.455.013m-.633-.544l-.135-.181m0 0l-.047-.052m-.949-.168l-.059.043m.245-.085l-.186.043m.949.168l-.166-.12m-.331-.091h-.266m.597.091l-.068-.036m-.184-.043l-.079-.013"/><path d="M191.682 24.095l-.184-.042m2.441 1.113h-.001"/><path d="M193.968 25.226l-.029-.06m.039.125l-.01-.065m0 .129l.01-.065m-.039.126l.029-.06"/><path d="M193.939 25.416h-.001m-1.207.137l1.056-.012m.041-.006l-.041.006m0-.5l.041.006m0 0l.038.017m0 0l.033.028m0 0l.025.036"/><path d="M193.924 25.128l.014.037"/><path d="M193.938 25.166l.002.005"/><path d="M193.94 25.17l.006.045m0 .001v.15m0 0l-.006.045"/><path d="M193.94 25.411l-.002.005"/><path d="M193.938 25.416l-.014.037m0 0l-.025.036m0 0l-.033.028m0 0l-.038.017m-1.097-.506l1.056.012m-.304-8.574h-1.15m0 .05h1.15m.85.25v.8"/><path d="M193.908 16.691v.95m.925-1.35v1.75m-.5 2.475v.8m-.425-.875v.95m.925-1.35v1.75m-1.738 1.15h.325m.063-1.375h-1.155m.005.05h1.15m-.025 2.174v1.247m.9.091v.325"/></g><g clip-path="url(#AM)" class="B C D E F G"><path d="M193.908 24.716c-.152 0-.275-.123-.275-.275s.123-.275.275-.275"/></g><g clip-path="url(#AN)" class="B C D E F G"><path d="M193.095 23.359a1.37 1.37 0 0 1 .325.366"/></g><g clip-path="url(#AO)" class="B C D E F G"><path d="M193.558 19.041a.3.3 0 1 0-.6 0 .3.3 0 1 0 .6 0"/></g><g class="B C D E F G"><path d="M95.087 23.726H28.894m0 0V7.831"/><path d="M28.894 7.831h66.192m.001 0v15.895m-66.193 0L95.087 7.831"/><path d="M95.087 23.726L28.894 7.831m8.095 64.824v11.25m0 0h-7.5"/><path d="M29.489 83.905v-11.25m0 0h7.5m0 51.249v11.25m0 0h-7.5"/><path d="M29.489 135.154v-11.25m0 0h7.5m3.5-5.25l1 1m0 0v2.75"/><path d="M41.489 122.404h-10.5m0 0v-17"/><path d="M30.989 105.404h9.5m0 0v13.25m0-16.25h-9.5m0 0V85.405m0 0h10.5m0 0v2.75m0 0l-1 1m0 0v13.249m38.25 1.5v19.25m0 0h-33.75m0 0l-4.5-4.5"/><path d="M40.489 118.654v-14.75m4.5 19.25v-4.5m-4.5 0h4.5m-4.5-14.75V89.155m0 0l4.5-4.5m0 0h33.75m0 0v19.249"/><path d="M44.989 84.655v4.5m-4.5 0h4.5m34.5-5.25v40m0-.001h-50m0 0V83.905"/><path d="M29.489 83.905h50m13.66 18.356h-.25m.25 7.5v-7.5m-.25 7.5h.25"/><path d="M92.899 102.261v7.5m1.938-4.062H93.15m1.687.625v-.625m-1.688.625h1.688"/><path d="M93.149 105.699v.625m1.938-.688h-.25m.25.75v-.75m-.25.75h.25"/><path d="M94.837 105.636v.75m-2.563-11.944h-.625m1.25 5.785l-.625-5.785m.625 17.354v-11.569m-.625 17.353l.625-5.784m-1.25 5.784h.625"/><path d="M91.649 94.442v23.138m.25-1.542v-1.543m0 0h.156m0 0v1.543"/><path d="M92.055 116.038h-.156m0-1.929v-1.542"/><path d="M91.899 112.567h.156m0 0v1.542m0 0h-.156m0-1.928v-.771m0 0h.156m0 0v.771"/><path d="M92.055 112.181h-.156m.375-17.739v23.138"/></g><g clip-path="url(#AP)" class="B C D E F G"><path d="M93.993 105.699c.173 0 .313.14.313.312s-.14.313-.312.313"/></g><g class="B C D E F G"><path d="M68.275 68.709H29.182m0 0V53.697"/><path d="M29.182 53.697h39.093m0 0v15.012"/><path d="M29.182 68.709l39.093-15.012"/><path d="M68.275 68.709L29.182 53.697"/></g><path d="M11.865 45.888l5-7.5-5-7.5v15" class="M"/><g class="B C D E F G"><path d="M11.865 45.888v-15"/><path d="M11.865 45.888l5-7.5m-5-7.5l5 7.5"/></g><g clip-path="url(#AQ)" class="I J K P"><g transform="scale(.352778)"><text transform="rotate(270.1 76.961 46.515)"><tspan x="0 9.719" y="0">M</tspan></text><text transform="rotate(270.1 70.458 40.023)"><tspan x="0" y="0">3</tspan></text><text transform="rotate(270.1 67.226 36.797)"><tspan x="0" y="0">.</tspan></text><text transform="rotate(270.1 65.59 35.164)"><tspan x="0" y="0">5</tspan></text></g></g><g class="B C D E F G"><path d="M122.086 23.781H95.087m0 0V7.831"/><path d="M95.087 7.831h26.999m0 0V23.78m-26.999.001l26.999-15.949"/><path d="M122.086 23.781L95.087 7.831m-4.025 140.615H60.985"/><path d="M60.985 148.446v-9.704m0 0h30.077m0 0v9.704m-15.071-21.198l-.026 2.021"/><path d="M75.517 127.248h.475m-.475-2.002v2.002m1.249-2.002h-1.249m1.249 2.002v-2.002m-.475 2.002h.475m-.449 2.021l-.026-2.021m2.402 2.238l-2.375-.217m4.647.942l-2.273-.725m2.637.921l-.364-.196m.692.448l-.328-.252m.611.553l-.283-.301m.514.643l-.231-.342m.404.718l-.174-.376m.211 2.491l-.037-2.115m2.071 1.481l-2.034.634"/><path d="M84.268 132.696l.147.463m1.757-1.071l-1.904.608m2.284.584l-.379-1.192m-1.526 1.8l1.904-.608m-2.045.165l.141.443m-2.259.277l2.119-.72m-2.114 1.031l-.005-.311m.005 6.211v-5.9m-.196 6.514l.196-.614m-.487 1.188l.291-.574m-.669 1.095l.378-.521m-.834.975l.456-.454m-.126.922l-.33-.468m.714.189l-.384.279m1.559 1.34l-1.175-1.619m.165 2.355l1.011-.736m-2.186-.884l1.175 1.62"/><path d="M81.16 143.184l-.384.279m.048-.73l.335.451m-.873-.123l.538-.328m-1.12.569l.582-.241m-1.195.387l.613-.146m-1.241.195l.628-.049m-5.249.049h4.622m-5.25-.049l.628.049m-1.241-.195l.613.146m-1.196-.387l.582.241m-1.12-.569l.538.328m-.873.123l.335-.451m.049.73l-.384-.279m-.791 1.899l1.175-1.62m-2.185.884l1.011.736"/><path d="M70.518 142.728l-1.175 1.619m1.559-1.34l-.384-.279m.715-.189l-.33.468m-.126-.922l.456.454m-.835-.975l.378.521m-.668-1.095l.291.574m-.487-1.188l.196.614m-.196-6.514v5.9m.005-6.211l-.005.311m-2.114-1.031l2.119.72m-2.26-.277l.141-.443m-2.045-.165l1.904.608m-1.525-1.8l-.379 1.192"/><path d="M68.037 132.696l-1.904-.608m1.756 1.071l.147-.463m1.888 1.097l-2.034-.634m2.07-1.481l-.037 2.115m.211-2.491l-.173.376m.404-.718l-.231.342m.514-.643l-.283.301m.611-.553l-.328.252m.691-.448l-.364.196m2.626-.919l-2.262.723m4.626-.942l-2.364.219m-2.958 6.132v4.595m0 0l-.019.217m0 0l-.056.211m0 0l-.092.198m0 0l-.125.178m0 0l-.154.154m0 0l-.178.125m-.001 0l-.197.092m0 0l-.21.057m-.001 0l-.217.019m0 0l-.217-.019m0 0l-.21-.057m0 0l-.197-.092m0 0l-.178-.125m-.001 0l-.154-.154m0 0l-.125-.178m0 0l-.092-.198m0 0l-.056-.211m0 0l-.019-.217"/><path d="M68.144 140.215v-4.595m0 0l.019-.217m0 0l.056-.211m0 0l.092-.197m0 0l.125-.179m0 0l.154-.154m0 0l.178-.125m.001 0l.197-.092m0 0l.21-.056m0 0l.217-.019m0 0l.217.019m0 0l.21.056m.001 0l.197.092m0 0l.178.125m.001 0l.154.154m0 0l.125.179m0 0l.092.197m0 0l.056.211m0 0l.019.217m13.473 0v4.595m0 0l-.019.217m0 0l-.056.211m0 0l-.092.198m0 0l-.125.178m0 0l-.154.154m0 0l-.178.125m0 0l-.198.092m0 0l-.21.057m0 0l-.217.019m0 0l-.217-.019m0 0l-.21-.057m-.001 0l-.197-.092m0 0l-.178-.125m0 0l-.154-.154m0 0l-.125-.178m0 0l-.092-.198m0 0l-.056-.211m-.001 0l-.019-.217"/><path d="M81.617 140.215v-4.595m0 0l.019-.217m0 0l.056-.211m.001 0l.092-.197m0 0l.125-.179m0 0l.154-.154m0 0l.178-.125m0 0l.197-.092m0 0l.21-.056m.001 0l.217-.019m0 0l.217.019m0 0l.21.056m0 0l.198.092m0 0l.178.125m0 0l.154.154m0 0l.125.179m0 0l.092.197m0 0l.056.211m0 0l.019.217m-7.825-8.373h-.3m-5.113 15.752l.243.176m-3.257-10.019l-.091.286m13.68 9.505l-.313.228m3.256-10.019l.091.286m-14.588.347l-.007.372"/><path d="M82.361 133.789l.006.372m-6.402-4.894h.352"/></g><g clip-path="url(#AR)" class="B C D E F G"><path d="M69.983 134.517a2.57 2.57 0 0 1 1.333-1.347"/></g><g clip-path="url(#AS)" class="B C D E F G"><path d="M71.457 142.725l-.248-.194"/></g><g clip-path="url(#AT)" class="B C D E F G"><path d="M71.316 133.17a10.98 10.98 0 0 1 4.453-.944l.373.007"/></g><g clip-path="url(#AU)" class="B C D E F G"><path d="M80.944 133.17a2.57 2.57 0 0 1 1.333 1.347"/></g><g clip-path="url(#AV)" class="B C D E F G"><path d="M81.051 142.531l-.248.194"/></g><g clip-path="url(#AW)" class="B C D E F G"><path d="M76.119 132.233l.373-.007a10.98 10.98 0 0 1 4.453.944"/></g><g class="B C D E F G"><path d="M161.162 65.893h-14.5m0 0v-12.25"/><path d="M146.662 53.643h14.5m0 0v12.25m-1.375-11.744h-4.5m0 0v4.5m0 0h4.5"/><path d="M159.787 58.649v-4.5m-1.236 0l-.72 1.576m-1.308-1.576l.719 1.576m1.309 2.924l-.72-1.576m-1.308 1.576l.719-1.576m2.545-1.688l-1.576.719m1.576 1.309l-1.576-.719m-2.924-1.309l1.575.719m-1.575 1.309l1.575-.719"/><path d="M158.211 56.105l-.38-.38m0 0h-.589m0 0l-.38.38m0 0v.589m0 0l.38.38m0 0h.589m0 0l.38-.38"/><path d="M158.211 56.694v-.589m-5.925-1.705h-3.998m0 0v3.998m0 .001h3.998"/><path d="M152.286 58.399V54.4m-1.098 0l-.639 1.4m-1.163-1.4l.639 1.4m1.163 2.599l-.639-1.4m-1.163 1.4l.639-1.4m2.261-1.5l-1.4.639m1.4 1.162l-1.4-.639m-2.598-1.162l1.4.639m-1.4 1.162l1.4-.639"/><path d="M150.886 56.138l-.337-.337m0-.001h-.524m0 0l-.337.337m0 .001v.524m0-.001l.337.337m0 .001h.524m0 0l.337-.337"/><path d="M150.886 56.661v-.524m9.275 3.457h-5.249m0 0v5.249m0 0h5.249"/><path d="M160.161 64.843v-5.249m-1.441 0l-.839 1.838m-1.527-1.838l.839 1.838m1.527 3.411l-.839-1.838m-1.527 1.838l.839-1.838m2.968-1.97l-1.838.839m1.838 1.527l-1.838-.839m-3.411-1.527l1.838.839m-1.838 1.527l1.838-.839"/><path d="M158.323 61.874l-.442-.443m0 .001h-.688m0 0l-.443.443m0-.001v.688m0 0l.443.443m0 0h.688m0 0l.442-.443"/><path d="M158.323 62.562v-.687m-6.037-2.268h-3.998m0 0v3.998m0 0h3.998"/><path d="M152.286 63.605v-3.998m-1.098 0l-.639 1.4m-1.163-1.4l.639 1.4m1.163 2.598l-.639-1.4m-1.163 1.4l.639-1.4m2.261-1.5l-1.4.639m1.4 1.163l-1.4-.639m-2.598-1.163l1.4.639m-1.4 1.163l1.4-.639"/><path d="M150.886 61.344l-.337-.337m0 0h-.524m0 0l-.337.337m0 0v.524m0 0l.337.337m0 0h.524m0 0l.337-.337"/><path d="M150.886 61.868v-.524"/></g><g clip-path="url(#AX)" class="B C D E F G"><use href="#By"/></g><g clip-path="url(#AY)" class="B C D E F G"><path d="M151.662 64.793a.5.5 0 1 0-1 0 .5.5 0 1 0 1 0"/></g><g clip-path="url(#AZ)" class="B C D E F G"><path d="M150.012 64.793a.5.5 0 1 0-1 0 .5.5 0 1 0 1 0"/></g><g clip-path="url(#Aa)" class="B C D E F G"><path d="M148.362 64.793a.5.5 0 1 0-1 0 .5.5 0 1 0 1 0"/></g><g class="B C D E F G"><path d="M161.412 67.268h-15m15-15h-15m30.81 1.75h-7.155"/></g><g clip-path="url(#Ab)" class="B C D E F G"><path d="M177.222 54.018a1.5 1.5 0 0 1 1.5 1.5"/></g><path d="M178.722 65.018v-9.5" class="B C D E F G"/><g clip-path="url(#Ac)" class="B C D E F G"><path d="M178.722 65.018a1.5 1.5 0 0 1-1.5 1.5"/></g><path d="M162.912 66.518h14.31" class="B C D E F G"/><g clip-path="url(#Ad)" class="B C D E F G"><path d="M162.912 66.518a1.5 1.5 0 0 1-1.5-1.5"/></g><path d="M161.412 55.518v9.5" class="B C D E F G"/><g clip-path="url(#Ae)" class="B C D E F G"><path d="M161.412 55.518a1.5 1.5 0 0 1 1.5-1.5"/></g><g class="B C D E F G"><path d="M170.067 54.018h-7.155m-1.5-1.75h17.31m0 15v-2.25m-17.31 2.25v-2.25m8.655-10h-7.155m-.5.5v9.5m.5.5h14.31m.5-.5v-9.5"/><path d="M177.222 55.018h-7.155"/></g><g clip-path="url(#Af)" class="B C D E F G"><path d="M162.412 55.518a.5.5 0 0 1 .5-.5"/></g><g clip-path="url(#Ag)" class="B C D E F G"><path d="M162.912 65.518a.5.5 0 0 1-.5-.5"/></g><g clip-path="url(#Ah)" class="B C D E F G"><path d="M177.722 65.018a.5.5 0 0 1-.5.5"/></g><g clip-path="url(#Ai)" class="B C D E F G"><path d="M177.222 55.018a.5.5 0 0 1 .5.5"/></g><g clip-path="url(#Aj)" class="B C D E F G"><path d="M171.192 57.768c0-.621-.504-1.125-1.125-1.125s-1.125.504-1.125 1.125.504 1.125 1.125 1.125 1.125-.504 1.125-1.125"/></g><g clip-path="url(#Ak)" class="B C D E F G"><path d="M170.292 56.965c0 .124-.101.224-.225.224s-.225-.101-.225-.225"/></g><path d="M169.842 56.964v-4.946" class="B C D E F G"/><g clip-path="url(#Al)" class="B C D E F G"><use href="#Bz"/></g><g class="B C D E F G"><path d="M170.292 52.018v4.947m.274-3.672h-.274"/><path d="M170.292 53.293v-1.275"/></g><g clip-path="url(#Am)" class="B C D E F G"><use href="#Bz"/></g><g class="B C D E F G"><path d="M169.842 52.018v1.275m0 0h-.274"/><path d="M169.568 53.293v-1.625m0 0h.998m0 0v1.625m-.007.9h-.267"/><path d="M170.292 54.193v-.875m0 0h.267m0 0v.875m-.985 0v-.875m0 0h.268m0 0v.875"/><path d="M169.842 54.193h-.268m9.148 13.075h-17.31m32.31 0h-15"/><path d="M178.722 67.268v-15m0 0h15m0 0v15m0-1.5h-15"/></g><g clip-path="url(#An)" class="I J K P"><text transform="matrix(.352777 .000616 -.000616 .352777 182.014638 61.047109)"><tspan x="0 6.474 15.537" y="0">LOD</tspan></text></g><g class="B C D E F G"><path d="M139.089 113.183h-11.75m11.75 10v-10m-11.75 10h11.75"/><path d="M127.339 113.183v10m-10.384-10v10m0 0h-11.75"/><path d="M105.205 123.183v-10m0 0h11.75m.192-14.167v11.75m10-11.75h-10m10 11.75v-11.75m-10 11.75h10m0 26.584V125.6m-10 11.75h10"/><path d="M117.147 125.6v11.75m10-11.75h-10m15-19.642h-20m20 24.45v-24.45"/><path d="M112.147 130.408h20m-20-24.45v24.45m25.692-17.225v10m0-8.75h1.25m-1.25 7.5h1.25m-32.634-8.75v10m0-8.75h-1.25m1.25 7.5h-1.25m11.942-21.667h10m-8.75 0v-1.25m7.5 1.25v-1.25m1.25 37.084h-10m8.75 0v1.25m-7.5-1.25v1.25m33.257-5.063v-30m0 0h15m0 0v30m0 0h-15m20-7.166v12.666m.75.75h14.118"/><use href="#CA"/><path d="M186.522 124.371h-14.118m20.75.75v12.666m-.75.75h-4.382"/><use href="#CA"/><path d="M188.022 124.371h4.382m-2.75 13.416v-12.666m-18-14.167v12.667m.75.75h14.118"/><use href="#CB"/><path d="M186.522 110.204h-14.118m20.75.75v12.667m-.75.75h-4.382"/><use href="#CB"/><path d="M188.022 110.204h4.382m-2.75 13.417v-12.667m-18-14.167v12.667m.75.75h14.118"/><use href="#CC"/><path d="M186.522 96.037h-14.118m20.75.75v12.667m-.75.75h-4.382"/><use href="#CC"/><path d="M188.022 96.037h4.382m-2.75 13.417V96.787m-18 42.25v2.75m.5.5h21.5m.5-.5v-2.75"/><path d="M193.654 138.537h-21.5m-.5-45.75v2.75"/><path d="M172.154 96.037h21.5m.5-.5v-2.75m-.5-.5h-21.5m21.5 46.25v-42.5"/></g><g clip-path="url(#Ao)" class="B C D E F G"><use href="#CD"/></g><g clip-path="url(#Ap)" class="B C D E F G"><use href="#CE"/></g><g clip-path="url(#Aq)" class="B C D E F G"><use href="#CF"/></g><g clip-path="url(#Ar)" class="B C D E F G"><use href="#CG"/></g><g clip-path="url(#As)" class="B C D E F G"><path d="M193.154 137.787a.75.75 0 0 1-.75.75"/></g><g clip-path="url(#At)" class="B C D E F G"><path d="M188.022 138.537a.75.75 0 0 1-.75-.75"/></g><g clip-path="url(#Au)" class="B C D E F G"><path d="M187.272 125.121a.75.75 0 0 1 .75-.75"/></g><g clip-path="url(#Av)" class="B C D E F G"><path d="M192.404 124.371a.75.75 0 0 1 .75.75"/></g><g clip-path="url(#Aw)" class="B C D E F G"><path d="M190.404 138.537a.75.75 0 0 1-.75-.75"/></g><g clip-path="url(#Ax)" class="B C D E F G"><path d="M189.654 125.121a.75.75 0 0 1 .75-.75"/></g><g clip-path="url(#Ay)" class="B C D E F G"><path d="M172.404 124.371a.75.75 0 0 1-.75-.75"/></g><g clip-path="url(#Az)" class="B C D E F G"><path d="M187.272 123.621a.75.75 0 0 1-.75.75"/></g><g clip-path="url(#BA)" class="B C D E F G"><path d="M186.522 110.204a.75.75 0 0 1 .75.75"/></g><g clip-path="url(#BB)" class="B C D E F G"><path d="M171.654 110.954a.75.75 0 0 1 .75-.75"/></g><g clip-path="url(#BC)" class="B C D E F G"><path d="M193.154 123.621a.75.75 0 0 1-.75.75"/></g><g clip-path="url(#BD)" class="B C D E F G"><path d="M188.022 124.371a.75.75 0 0 1-.75-.75"/></g><g clip-path="url(#BE)" class="B C D E F G"><path d="M187.272 110.954a.75.75 0 0 1 .75-.75"/></g><g clip-path="url(#BF)" class="B C D E F G"><path d="M192.404 110.204a.75.75 0 0 1 .75.75"/></g><g clip-path="url(#BG)" class="B C D E F G"><path d="M190.404 124.371a.75.75 0 0 1-.75-.75"/></g><g clip-path="url(#BH)" class="B C D E F G"><path d="M189.654 110.954a.75.75 0 0 1 .75-.75"/></g><g clip-path="url(#BI)" class="B C D E F G"><path d="M172.404 110.204a.75.75 0 0 1-.75-.75"/></g><g clip-path="url(#BJ)" class="B C D E F G"><path d="M187.272 109.454a.75.75 0 0 1-.75.75"/></g><g clip-path="url(#BK)" class="B C D E F G"><path d="M186.522 96.037a.75.75 0 0 1 .75.75"/></g><g clip-path="url(#BL)" class="B C D E F G"><path d="M171.654 96.787a.75.75 0 0 1 .75-.75"/></g><g clip-path="url(#BM)" class="B C D E F G"><path d="M193.154 109.454a.75.75 0 0 1-.75.75"/></g><g clip-path="url(#BN)" class="B C D E F G"><path d="M188.022 110.204a.75.75 0 0 1-.75-.75"/></g><g clip-path="url(#BO)" class="B C D E F G"><path d="M187.272 96.787a.75.75 0 0 1 .75-.75"/></g><g clip-path="url(#BP)" class="B C D E F G"><path d="M192.404 96.037a.75.75 0 0 1 .75.75"/></g><g clip-path="url(#BQ)" class="B C D E F G"><path d="M190.404 110.204a.75.75 0 0 1-.75-.75"/></g><g clip-path="url(#BR)" class="B C D E F G"><path d="M189.654 96.787a.75.75 0 0 1 .75-.75"/></g><g clip-path="url(#BS)" class="B C D E F G"><path d="M172.154 142.287a.5.5 0 0 1-.5-.5"/></g><g clip-path="url(#BT)" class="B C D E F G"><path d="M194.154 141.787a.5.5 0 0 1-.5.5"/></g><g clip-path="url(#BU)" class="B C D E F G"><path d="M193.654 138.537a.5.5 0 0 1 .5.5"/></g><g clip-path="url(#BV)" class="B C D E F G"><path d="M171.654 139.037a.5.5 0 0 1 .5-.5"/></g><g clip-path="url(#BW)" class="B C D E F G"><path d="M172.154 96.037a.5.5 0 0 1-.5-.5"/></g><g clip-path="url(#BX)" class="B C D E F G"><path d="M194.154 95.537a.5.5 0 0 1-.5.5"/></g><g clip-path="url(#BY)" class="B C D E F G"><path d="M193.654 92.287a.5.5 0 0 1 .5.5"/></g><g clip-path="url(#BZ)" class="B C D E F G"><path d="M171.654 92.787a.5.5 0 0 1 .5-.5"/></g><g class="B C D E F G"><path d="M99.024 110.015h.25m-.25-7.5v7.5"/><path d="M99.274 102.515h-.25m.25 7.5v-7.5m-1.937 4.063h1.688"/><path d="M97.337 105.953v.625m1.687-.625h-1.687m1.687.625v-.625m-1.937.687h.25"/><path d="M97.087 105.89v.75m.25-.75h-.25m.25.75v-.75m2.562 11.944h.625m-1.25-5.784l.625 5.784"/><path d="M99.274 100.481v11.569m.625-17.354l-.625 5.785m1.25-5.785h-.625m.625 23.138V94.696m-.25 1.543v1.543m0-.001h-.156"/><path d="M100.118 97.781v-1.543m0 .001h.156m0 1.928v1.543m0-.001h-.156"/><path d="M100.118 99.709v-1.543m0 .001h.156m0 1.928v.771m0 0h-.156"/><path d="M100.118 100.866v-.771m0 0h.156m-.375 17.739V94.696"/></g><g clip-path="url(#Ba)" class="B C D E F G"><path d="M98.18 106.578c-.173 0-.312-.14-.312-.313s.14-.312.313-.312"/></g><use href="#CH" class="M"/><g class="B C D E F G"><use href="#CI"/><use href="#CJ"/><use href="#CK"/><use href="#CL"/></g><path d="M186.278 235.757h-2.5v-2.5h2.5v2.5" class="M"/><g class="B C D E F G"><path d="M186.278 235.757h-2.5m0 0v-2.5"/><path d="M183.778 233.257h2.5m0 0v2.5"/></g><path d="M181.278 235.757h-2.5v-2.5h2.5v2.5" class="M"/><g class="B C D E F G"><path d="M181.278 235.757h-2.5m0 0v-2.5"/><path d="M178.778 233.257h2.5m0 0v2.5"/></g><path d="M176.278 235.757h-2.5v-2.5h2.5v2.5" class="M"/><g class="B C D E F G"><path d="M176.278 235.757h-2.5m0 0v-2.5"/><path d="M173.778 233.257h2.5m0 0v2.5"/></g><path d="M171.278 235.757h-2.5v-2.5h2.5v2.5" class="M"/><g class="B C D E F G"><path d="M171.278 235.757h-2.5m0 0v-2.5"/><path d="M168.778 233.257h2.5m0 0v2.5"/></g><path d="M166.278 233.257h-25v-2.5h25v2.5" class="M"/><g class="B C D E F G"><path d="M166.278 233.257h-25m0 0v-2.5"/><path d="M141.278 230.757h25m0 0v2.5"/></g><path d="M116.278 233.257h-25v-2.5h25v2.5" class="M"/><g class="B C D E F G"><path d="M116.278 233.257h-25m0 0v-2.5"/><path d="M91.278 230.757h25m0 0v2.5"/></g><path d="M141.278 233.257v2.5h-25v-2.5h25" class="M"/><g class="B C D E F G"><path d="M141.278 233.257v2.5m0 0h-25"/><path d="M116.278 235.757v-2.5m0 0h25"/></g><path d="M91.278 233.257v2.5h-25v-2.5h25" class="M"/><g class="B C D E F G"><path d="M91.278 233.257v2.5m0 0h-25"/><path d="M66.278 235.757v-2.5m0 0h25m105 0h-135m130 2.5h-125m125-5h-125"/><use href="#CM"/><path d="M166.278 235.757v-5m-25 5v-5m-25 5v-5m-25 5v-5m-25 5v-5"/></g><g clip-path="url(#Bb)" class="I J K L"><text transform="matrix(.352777 .000616 -.000616 .352777 190.394743 240.026528)"><tspan x="0" y="0">0</tspan></text></g><g clip-path="url(#Bc)" class="I J K L"><text transform="matrix(.352777 .000616 -.000616 .352777 165.394806 240.033361)"><tspan x="0" y="0">1</tspan></text></g><g clip-path="url(#Bd)" class="I J K L"><text transform="matrix(.352777 .000616 -.000616 .352777 140.39487 240.040187)"><tspan x="0" y="0">2</tspan></text></g><g clip-path="url(#Be)" class="I J K L"><text transform="matrix(.352777 .000616 -.000616 .352777 115.394939 240.04702)"><tspan x="0" y="0">3</tspan></text></g><g clip-path="url(#Bf)" class="I J K L"><text transform="matrix(.352777 .000616 -.000616 .352777 90.395002 240.053852)"><tspan x="0" y="0">4</tspan></text></g><g clip-path="url(#Bg)" class="I J K L"><text transform="matrix(.352777 .000616 -.000616 .352777 65.395066 240.060685)"><tspan x="0" y="0">5</tspan></text></g><g clip-path="url(#Bh)" class="I J K L N"><text transform="matrix(.352778 0 0 .352778 43.731772 287.114373)"><tspan x="0" y="0">3</tspan></text></g><g clip-path="url(#Bi)" class="I J K N"><g transform="scale(.352778)"><text transform="translate(283.463 823.819)" class="L"><tspan x="0 5.702" y="0">=</tspan></text><text transform="translate(291.886 823.819)" class="L"><tspan x="0 5.378" y="0">36</tspan></text><text class="L"><tspan x="302.642" y="823.819">,</tspan></text><text transform="translate(305.363 823.819)" class="L"><tspan x="0 5.378" y="0">14</tspan></text><text class="L"><tspan x="316.118" y="823.819">m</tspan></text><text font-size="6.414"><tspan x="324.736" y="820.418">2</tspan></text></g></g></g></svg>