<?xml version="1.0" encoding="UTF-8" standalone="no"?>
<svg
   xmlns:dc="http://purl.org/dc/elements/1.1/"
   xmlns:cc="http://creativecommons.org/ns#"
   xmlns:rdf="http://www.w3.org/1999/02/22-rdf-syntax-ns#"
   xmlns:svg="http://www.w3.org/2000/svg"
   xmlns="http://www.w3.org/2000/svg"
   xmlns:sodipodi="http://sodipodi.sourceforge.net/DTD/sodipodi-0.dtd"
   xmlns:inkscape="http://www.inkscape.org/namespaces/inkscape"
   width="50mm"
   height="70mm"
   viewBox="0 0 50 70"
   version="1.1"
   id="svg8"
   inkscape:version="1.0.1 (3bc2e813f5, 2020-09-07)"
   sodipodi:docname="marketing.svg">
  <defs
     id="defs2" />
  <sodipodi:namedview
     id="base"
     pagecolor="#ffffff"
     bordercolor="#666666"
     borderopacity="1.0"
     inkscape:pageopacity="0.0"
     inkscape:pageshadow="2"
     inkscape:zoom="2.8"
     inkscape:cx="111.5934"
     inkscape:cy="126.60382"
     inkscape:document-units="mm"
     inkscape:current-layer="layer1"
     inkscape:document-rotation="0"
     showgrid="false"
     inkscape:window-width="1920"
     inkscape:window-height="1137"
     inkscape:window-x="-8"
     inkscape:window-y="-8"
     inkscape:window-maximized="1" />
  <metadata
     id="metadata5">
    <rdf:RDF>
      <cc:Work
         rdf:about="">
        <dc:format>image/svg+xml</dc:format>
        <dc:type
           rdf:resource="http://purl.org/dc/dcmitype/StillImage" />
        <dc:title></dc:title>
      </cc:Work>
    </rdf:RDF>
  </metadata>
  <g
     inkscape:label="Layer 1"
     inkscape:groupmode="layer"
     id="layer1">
    <path
       style="fill:#000000;stroke-width:0.160174"
       d="M 9.6714305,44.163597 C 8.6113973,43.609828 7.8824183,42.545525 7.8621053,41.521993 c -0.01164,-0.586561 0.0347,-0.681742 0.353965,-0.727018 0.256139,-0.03632 0.344095,-0.133313 0.290517,-0.320348 -0.04226,-0.147538 -0.161874,-0.5644 -0.265802,-0.926359 -0.151257,-0.526798 -0.305102,-0.707653 -0.771039,-0.906413 -0.320143,-0.136566 -0.803014,-0.212602 -1.073046,-0.168969 -0.448375,0.07245 -0.524405,0.0163 -0.876406,-0.647223 l -0.385438,-0.726558 0.35584,-0.378775 c 0.195713,-0.208327 0.355841,-0.572344 0.355841,-0.808929 0,-0.558137 0.232859,-0.758353 2.202391,-1.893656 L 9.6907105,33.071367 V 29.058333 25.0453 l 0.4682005,-0.4682 0.4682,-0.468201 2.775321,-0.0049 c 1.963813,-0.0035 2.69336,-0.05261 2.495017,-0.168133 -0.154167,-0.08979 -0.280304,-0.224361 -0.280304,-0.299038 0,-0.162287 2.484178,-4.478816 2.704196,-4.698833 0.209634,-0.209634 1.96019,0.80546 2.06228,1.195854 0.132117,0.50522 0.77851,0.743345 1.497142,0.551531 0.441636,-0.11788 0.819254,-0.114364 1.292816,0.01204 0.424141,0.11321 0.808978,0.12532 1.051558,0.03309 0.49027,-0.1864 1.495441,-0.183337 1.79384,0.0055 0.303653,0.192128 1.063952,-0.198778 1.169169,-0.601125 0.04356,-0.166568 0.491649,-0.538831 0.995756,-0.827253 0.769727,-0.440392 0.94897,-0.489128 1.118865,-0.304216 0.273247,0.297397 2.652116,4.447618 2.652116,4.626931 0,0.07826 -0.126137,0.21576 -0.280304,0.305554 -0.198344,0.115525 0.531204,0.164687 2.495016,0.168133 l 2.775322,0.0049 0.468199,0.468201 0.468202,0.468201 v 2.710448 c 0,2.507033 0.02404,2.73221 0.320347,3.000364 0.190098,0.172036 0.320348,0.49333 0.320348,0.790217 0,0.485585 0.03331,0.508887 1.131868,0.791884 1.405824,0.362149 1.560282,0.603614 1.219902,1.907076 -0.201803,0.772787 -0.203625,0.931059 -0.01254,1.089643 0.175077,0.145302 0.223555,0.769788 0.223555,2.879796 0,2.602597 -0.01211,2.702744 -0.355988,2.943606 -0.195792,0.137137 -0.478379,0.249342 -0.627969,0.249342 -0.169712,0 -0.310239,0.174189 -0.373727,0.463249 -0.20233,0.921197 -0.964072,1.870415 -1.858802,2.316278 l -0.850761,0.423951 H 23.772856 10.528161 Z m 27.9545665,-0.55616 c 0.725132,-0.414651 1.155972,-0.944371 1.365742,-1.679192 l 0.148608,-0.520565 h -6.075428 -6.075427 v 0.487802 c 0,0.30435 -0.147858,0.635661 -0.393155,0.880956 -0.382686,0.382688 -0.457511,0.393155 -2.810323,0.393155 -2.352812,0 -2.427637,-0.01046 -2.810323,-0.393155 -0.245297,-0.245295 -0.393155,-0.576606 -0.393155,-0.880956 V 41.40768 H 14.507108 8.4316813 l 0.148607,0.520565 c 0.209771,0.734821 0.6406112,1.264541 1.3657422,1.679192 l 0.6256365,0.357756 H 23.786014 37.000361 Z M 26.156588,42.336689 c 0.105714,-0.105715 0.192208,-0.357989 0.192208,-0.560609 v -0.3684 h -2.562782 -2.562783 v 0.3684 c 0,0.678121 0.254286,0.752818 2.562783,0.752818 1.480718,0 2.239921,-0.06156 2.370574,-0.192209 z M 10.082957,40.006159 C 9.9547385,39.587704 9.7752115,38.975039 9.6840105,38.64468 9.4969935,37.967252 9.4303045,37.938629 8.9458833,38.327895 l -0.344393,0.276742 0.328214,1.081174 c 0.3188512,1.050332 0.3433062,1.081174 0.8572962,1.081174 h 0.5290825 z m 20.750709,0.121391 v -0.639435 l -9.570391,-0.04131 -9.570391,-0.0413 -0.04654,-1.322479 -0.04654,-1.32248 -0.632968,0.361437 c -0.550807,0.314521 -0.633127,0.435627 -0.634201,0.933016 -10e-4,0.473352 0.235095,1.527185 0.562774,2.511767 0.05235,0.157305 2.196117,0.200218 10.002444,0.200218 h 9.935809 z m 9.610434,0.319087 c 0,-0.299181 -0.106783,-0.320348 -1.616108,-0.320348 -1.4801,0 -1.641409,-0.03033 -1.916758,-0.360391 -0.41667,-0.499466 -0.406257,-1.557959 0.02067,-2.100703 0.319024,-0.405575 0.394335,-0.422036 1.930862,-0.422036 h 1.59889 l -0.04882,-0.760826 -0.04882,-0.760826 h -4.404782 -4.404783 l -0.04464,2.315155 c -0.02455,1.273336 -0.0088,2.408569 0.03501,2.522739 0.06256,0.163039 1.025927,0.207584 4.489468,0.207584 4.303026,0 4.409809,-0.0078 4.409809,-0.320348 z m 0,-1.761913 v -0.80087 h -1.40953 c -0.882736,0 -1.481365,0.07184 -1.601739,0.192209 -0.204339,0.204339 -0.264616,1.123558 -0.08543,1.302747 0.05873,0.05873 0.779512,0.106783 1.601739,0.106783 h 1.494956 z m -2.53229,0.04004 c 0.02969,-0.154167 0.160124,-0.280304 0.289855,-0.280304 0.129732,0 0.260166,0.126137 0.289856,0.280304 0.03787,0.19667 -0.04861,0.280305 -0.289856,0.280305 -0.241245,0 -0.32773,-0.08364 -0.289855,-0.280305 z M 30.833666,37.27377 c 0,-1.072272 0.0692,-1.665767 0.217953,-1.869194 0.184234,-0.251956 0.182294,-0.434631 -0.01254,-1.180734 -0.334271,-1.280063 -0.175216,-1.524794 1.225503,-1.885628 1.080666,-0.278387 1.131867,-0.312949 1.131867,-0.764053 0,-0.707216 0.406767,-1.058309 1.22613,-1.058309 h 0.695956 V 28.593765 26.671678 H 31.49897 c -4.066045,0 -4.693612,0.102514 -4.875054,0.796349 -0.04463,0.170654 -0.279374,0.360034 -0.521661,0.420844 -0.242285,0.06081 -0.581298,0.251342 -0.75336,0.423404 -0.230031,0.230031 -0.425289,0.283391 -0.737644,0.201581 -0.540182,-0.14148 -1.110292,-0.14148 -1.650474,0 -0.312355,0.08181 -0.507613,0.02845 -0.737644,-0.201581 -0.172062,-0.172062 -0.511075,-0.362594 -0.75336,-0.423404 -0.242287,-0.06081 -0.477033,-0.25019 -0.521661,-0.420844 -0.181442,-0.693835 -0.80901,-0.796349 -4.875054,-0.796349 h -3.819565 v 1.515123 c 0,1.36832 0.04257,1.585595 0.439311,2.242435 0.413436,0.684471 0.480421,0.727311 1.137235,0.727311 0.580151,0 0.789821,0.0919 1.242514,0.544592 0.640837,0.640836 0.731014,1.470265 0.246273,2.265158 -0.29644,0.48611 -0.296074,0.489046 0.159466,1.281391 0.251122,0.43679 0.457174,0.845184 0.457893,0.907543 7.21e-4,0.06236 -0.327342,0.30598 -0.729026,0.541381 l -0.730333,0.428004 -0.430928,-0.397771 c -0.539332,-0.497837 -0.909624,-0.631569 -1.404699,-0.507313 -0.369186,0.09266 -0.387706,0.157688 -0.387706,1.361336 v 1.264027 h 9.290086 9.290087 z m -6.53921,0.399541 c -0.191548,-0.203894 -0.348268,-0.548479 -0.348268,-0.765747 0,-0.331674 -0.19104,-0.489559 -1.191137,-0.984421 -1.045966,-0.517557 -1.288344,-0.577877 -1.988735,-0.494926 -0.710312,0.08413 -0.842892,0.04917 -1.211472,-0.319409 -1.064269,-1.064269 0.06151,-2.871401 1.457054,-2.338904 0.391656,0.149442 0.616356,0.09207 1.692942,-0.432244 1.028123,-0.500713 1.241348,-0.669641 1.241348,-0.983452 0,-0.562185 0.250638,-0.930791 0.782781,-1.151211 0.98321,-0.40726 2.019594,0.629124 1.612334,1.612334 -0.108138,0.261073 -0.326149,0.544001 -0.484466,0.628729 -0.383149,0.205055 -1.163875,0.196061 -1.375785,-0.01586 -0.119751,-0.119751 -0.523189,0.0049 -1.366817,0.42235 l -1.196917,0.592249 v 0.676955 0.676954 l 1.134566,0.56056 c 1.080897,0.534044 1.158181,0.549338 1.633806,0.323302 0.428422,-0.203604 0.564539,-0.205961 0.959584,-0.01662 0.656968,0.314878 0.949322,0.985785 0.696029,1.597286 -0.354277,0.855303 -1.427476,1.071357 -2.046847,0.412067 z m 1.407265,-0.502555 c 0.106162,-0.127917 0.147339,-0.376504 0.09151,-0.552416 -0.127512,-0.401755 -0.666954,-0.584483 -0.97377,-0.329848 -0.238834,0.198214 -0.316139,0.817709 -0.125791,1.008054 0.190345,0.190348 0.80984,0.113043 1.008054,-0.12579 z m -4.570018,-2.581911 c 0.337448,-0.337446 0.317008,-0.644035 -0.06865,-1.029689 -0.363359,-0.363359 -0.531436,-0.390092 -0.971573,-0.154539 -0.351137,0.187922 -0.422175,0.939156 -0.117609,1.243721 0.269533,0.269533 0.859096,0.239239 1.157828,-0.05949 z m 4.570018,-2.864002 c 0.434618,-0.523681 -0.358583,-1.316881 -0.882263,-0.882264 -0.238834,0.198214 -0.316139,0.817709 -0.125791,1.008055 0.190345,0.190347 0.80984,0.113042 1.008054,-0.125791 z m 3.124655,4.231269 c -0.287427,-0.317604 -0.286003,-0.335025 0.05526,-0.676291 l 0.350289,-0.350288 0.350289,0.350288 c 0.341265,0.341266 0.342689,0.358687 0.05526,0.676291 -0.162264,0.1793 -0.344763,0.326 -0.40555,0.326 -0.06079,0 -0.243287,-0.1467 -0.405551,-0.326 z M 16.768854,34.72042 c 0.03697,-0.191986 0.204002,-0.280305 0.530117,-0.280305 0.326114,0 0.493143,0.08832 0.530116,0.280305 0.04344,0.225581 -0.06005,0.280304 -0.530116,0.280304 -0.470066,0 -0.57356,-0.05472 -0.530117,-0.280304 z m -0.190666,-1.641783 c 0,-0.176191 0.102222,-0.320348 0.227161,-0.320348 0.124938,0 0.341173,-0.04375 0.480522,-0.09722 0.178986,-0.06868 0.253361,-0.0032 0.253361,0.223124 0,0.31471 -0.285239,0.514796 -0.733883,0.514796 -0.124939,0 -0.227161,-0.144157 -0.227161,-0.320348 z m 11.764157,-0.814825 c -0.165063,-0.267078 0.206177,-0.573344 0.427139,-0.352383 0.184828,0.184828 0.06915,0.526513 -0.178253,0.526513 -0.0777,0 -0.189695,-0.07836 -0.248886,-0.17413 z M 15.986154,31.693024 c -0.107356,-0.279766 0.370949,-0.74359 0.665644,-0.64549 0.337489,0.112345 0.247164,0.537924 -0.152852,0.720182 -0.345984,0.157642 -0.428234,0.145661 -0.512792,-0.07469 z m -0.983664,-1.22588 c -0.141408,-0.170385 -0.09837,-0.298322 0.192179,-0.571279 0.310959,-0.29213 0.405268,-0.314524 0.556609,-0.132169 0.141408,0.170385 0.09837,0.298322 -0.19218,0.571279 -0.310959,0.29213 -0.405267,0.314524 -0.556608,0.132169 z m 15.240764,-0.256829 c -0.04395,-0.168047 -0.217393,-0.341494 -0.38544,-0.385439 -0.168046,-0.04395 -0.305539,-0.165474 -0.305539,-0.270065 0,-0.10459 0.137493,-0.226119 0.305539,-0.270064 0.168047,-0.04395 0.341494,-0.217393 0.38544,-0.385439 0.04395,-0.168047 0.165474,-0.30554 0.270064,-0.30554 0.10459,0 0.226119,0.137493 0.270064,0.30554 0.04395,0.168046 0.217393,0.341493 0.38544,0.385439 0.168046,0.04394 0.305539,0.165474 0.305539,0.270064 0,0.104591 -0.137493,0.226119 -0.305539,0.270065 -0.168047,0.04394 -0.341494,0.217392 -0.38544,0.385439 -0.04395,0.168046 -0.165474,0.30554 -0.270064,0.30554 -0.10459,0 -0.226119,-0.137494 -0.270064,-0.30554 z M 13.652382,29.458744 c -0.149833,-0.149833 0.229962,-0.864976 0.459368,-0.864976 0.327426,0 0.411834,0.280408 0.1909,0.63418 -0.202025,0.323493 -0.464435,0.416629 -0.650268,0.230796 z M 9.1294545,37.40438 c 0.05565,-0.09004 -0.2048212,-0.701525 -0.5788182,-1.358861 l -0.679992,-1.195155 -0.571576,0.340139 c -1.07219,0.638051 -1.070233,0.629701 -0.411333,1.755549 0.327644,0.559838 0.673381,1.066526 0.768303,1.12597 0.183568,0.114958 1.303328,-0.392433 1.4734162,-0.667642 z m -2.6422222,0.332401 c 0,-0.326752 -0.207161,-0.653796 -0.414137,-0.653796 -0.176207,0 -0.183578,0.07926 -0.03724,0.400435 0.178563,0.391903 0.451377,0.545035 0.451377,0.253361 z m 6.1628167,-2.114339 c 0.178324,-0.01044 0.414324,-0.0073 0.524444,0.007 0.314673,0.04086 0.256778,-0.10801 -0.69729,-1.793032 l -0.897507,-1.585127 -0.504014,0.542379 c -0.277209,0.298308 -0.992085,0.8132 -1.5886135,1.144204 -0.5965282,0.331003 -1.0574582,0.651493 -1.0242882,0.712201 0.03317,0.0607 0.362088,0.624208 0.7309292,1.252225 l 0.67062,1.141849 1.2307465,-0.701371 c 0.67691,-0.385753 1.376648,-0.709912 1.554973,-0.720349 z m 2.406873,0.202487 c -0.174594,-0.454987 -3.024622,-5.309154 -3.115676,-5.306622 -0.543359,0.01512 -0.418718,0.389402 0.882913,2.651341 1.820629,3.163837 1.789402,3.118738 2.081727,3.006562 0.149331,-0.0573 0.209841,-0.198039 0.151036,-0.351281 z m 18.339526,-1.956562 c 0,-1.08268 -0.01581,-1.130112 -0.360391,-1.081174 -0.239548,0.03402 -0.344749,0.144565 -0.313742,0.329676 0.05999,0.358151 -0.235326,0.932015 -0.649041,1.261225 -0.463285,0.368653 -0.213707,0.62263 0.611845,0.62263 h 0.711329 z m 1.89347,0.731922 c 0.173241,-0.220239 0.350853,-0.400435 0.394696,-0.400435 0.04384,0 0.124941,0.180196 0.180217,0.400435 0.05528,0.220239 0.171208,0.400435 0.257625,0.400435 0.08642,0 0.157123,-0.180196 0.157123,-0.400435 0,-0.220239 0.07208,-0.400435 0.160173,-0.400435 0.0881,0 0.160174,0.18445 0.160174,0.409889 0,0.23247 0.06933,0.367038 0.160174,0.310894 0.0881,-0.05445 0.160174,-0.238896 0.160174,-0.409888 0,-0.170992 0.07208,-0.310895 0.160174,-0.310895 0.0881,0 0.160174,0.180196 0.160174,0.400435 0,0.293652 0.08543,0.400435 0.320348,0.400435 0.293241,0 0.320348,-0.106783 0.320348,-1.261959 0,-1.242908 -0.007,-1.264877 -0.466781,-1.455306 -0.257796,-0.106782 -0.553346,-0.402332 -0.660128,-0.660128 -0.165216,-0.398867 -0.281211,-0.466781 -0.797246,-0.466781 -0.512404,0 -0.619301,0.06137 -0.705557,0.405032 -0.06285,0.250435 -0.314028,0.506305 -0.658058,0.670361 l -0.556404,0.26533 v 1.251726 1.251725 h 0.468896 c 0.309378,0 0.576053,-0.136228 0.783878,-0.400435 z M 40.123752,34.78 c 0,-0.121398 -0.153014,-0.322322 -0.340031,-0.446496 -0.207773,-0.137957 -0.379941,-0.472638 -0.442634,-0.86045 -0.08024,-0.496347 -0.180683,-0.645834 -0.460838,-0.685861 -0.341909,-0.04885 -0.358236,4.8e-4 -0.358236,1.081174 v 1.132357 h 0.80087 c 0.573595,0 0.800869,-0.06264 0.800869,-0.220724 z m -8.008695,-1.480714 c 0,-0.2584 -0.414365,-0.297101 -0.56535,-0.0528 -0.05705,0.09231 -0.06045,0.280628 -0.0076,0.418473 0.07773,0.202566 0.141888,0.212692 0.334541,0.05281 0.131104,-0.108805 0.238369,-0.297118 0.238369,-0.418474 z m 8.329043,0.179786 c 0,-0.275108 -0.266619,-0.452547 -0.480954,-0.32008 -0.10658,0.06587 -0.103876,0.205266 0.008,0.414374 0.179105,0.334669 0.472913,0.276087 0.472913,-0.09429 z M 14.94585,32.955616 c 0.05672,-0.571651 -0.414557,-1.15837 -0.930444,-1.15837 -0.416881,0 -0.404567,0.129315 0.09792,1.02836 0.466278,0.834262 0.75813,0.879838 0.832524,0.13001 z m -4.074805,-1.352017 c 0.002,-0.289925 -0.05391,-0.652393 -0.124226,-0.805486 -0.0975,-0.212294 -0.01104,-0.34533 0.364363,-0.560609 l 0.492203,-0.282258 0.04475,-1.922087 0.04475,-1.922086 4.189817,-0.04267 4.189817,-0.04267 -0.343729,-0.627525 -0.34373,-0.627525 -4.272685,-0.01298 c -3.699616,-0.01124 -4.306772,0.02111 -4.526827,0.241162 -0.217431,0.21743 -0.254141,0.789599 -0.254141,3.961022 0,3.465603 0.01745,3.689438 0.268013,3.43887 0.147407,-0.147408 0.269639,-0.505226 0.271625,-0.79515 z m 23.614586,0.0014 c 0.282385,-0.282385 0.234928,-0.448487 -0.128139,-0.448487 -0.213565,0 -0.320348,0.106783 -0.320348,0.320348 0,0.363068 0.166102,0.410524 0.448487,0.128139 z m 3.395687,-0.128139 c 0,-0.213565 -0.106784,-0.320348 -0.320348,-0.320348 -0.363068,0 -0.410524,0.166102 -0.128139,0.448487 0.282385,0.282385 0.448487,0.234929 0.448487,-0.128139 z m -0.640696,-3.592472 c 0,-2.189358 -0.04269,-2.674123 -0.254142,-2.885569 -0.220202,-0.220164 -0.831441,-0.25235 -4.577015,-0.240972 l -4.322875,0.01313 -0.163784,0.46983 c -0.09008,0.258405 -0.22881,0.469828 -0.308288,0.469828 -0.07948,0 -0.144504,0.07088 -0.144504,0.157515 0,0.09815 1.584579,0.173608 4.204565,0.200217 l 4.204565,0.0427 0.04456,2.202391 0.04456,2.202392 h 0.636175 0.636176 z m -14.255478,-0.06483 c 0,-0.208559 -0.19041,-0.347263 -0.345301,-0.251535 -0.165655,0.102381 -0.02282,0.385013 0.194581,0.385013 0.0829,0 0.15072,-0.06006 0.15072,-0.133478 z m 1.966223,-0.110787 c 0.01107,-0.08586 -0.61118,-0.524299 -1.382757,-0.974279 -1.676339,-0.97763 -1.836908,-1.115872 -1.586712,-1.366069 0.13594,-0.13594 0.654227,0.09215 2.046541,0.900659 1.324324,0.769025 1.914153,1.033047 2.035887,0.911314 0.176468,-0.17647 0.141078,-0.202128 -2.031824,-1.473133 -0.881052,-0.515357 -1.353239,-1.117842 -0.876089,-1.117842 0.107118,0 0.953075,0.435112 1.879906,0.966917 1.145466,0.657254 1.73747,0.914594 1.848525,0.803539 0.204906,-0.204905 0.331256,-0.109133 -1.697308,-1.286538 -0.947029,-0.549667 -1.72187,-1.06587 -1.72187,-1.147118 0,-0.413243 0.603114,-0.236174 2.004223,0.588422 1.019436,0.59997 1.602211,0.857109 1.706403,0.752918 0.184457,-0.184459 -0.154136,-0.437458 -2.067051,-1.544512 l -1.319641,-0.763711 -0.541264,0.33452 c -0.695405,0.429783 -1.5385,0.433135 -1.994902,0.0079 -0.192803,-0.179623 -0.35055,-0.397632 -0.35055,-0.484465 0,-0.08683 0.333221,-0.354318 0.74049,-0.594413 0.407269,-0.240094 0.893798,-0.560274 1.081174,-0.71151 0.338998,-0.273616 0.338146,-0.275002 -0.172346,-0.280304 -0.838971,-0.0087 -1.306428,0.316314 -1.933443,1.344349 -0.748463,1.227157 -0.808849,2.115024 -0.186199,2.737675 0.458818,0.458817 4.159891,2.65628 4.366554,2.592584 0.07268,-0.0224 0.141193,-0.111006 0.152253,-0.196899 z m -3.08744,-0.529909 c 0,-0.208558 -0.19041,-0.347262 -0.345301,-0.251534 -0.165655,0.10238 -0.02282,0.385013 0.194581,0.385013 0.0829,0 0.15072,-0.06007 0.15072,-0.133479 z M 27.5704,23.930091 c -0.05491,-0.274536 -0.349727,-0.910531 -0.655158,-1.413322 -0.936779,-1.542105 -1.688275,-1.650188 -3.686279,-0.530174 -0.746486,0.418454 -1.358999,0.814884 -1.361141,0.880956 -0.0082,0.252516 0.638875,0.101928 1.493315,-0.347534 1.026729,-0.54009 1.512054,-0.497108 1.758475,0.155736 0.112393,0.297761 0.530877,0.649848 1.298174,1.092202 0.622773,0.359034 1.159344,0.654703 1.19238,0.657041 0.03304,0.0023 0.01514,-0.22037 -0.03977,-0.494905 z m -8.937615,-1.778936 c 0.543789,-0.944615 0.988707,-1.775994 0.988707,-1.847508 0,-0.142091 -0.951869,-0.745459 -1.033608,-0.655181 -0.195943,0.216412 -2.205084,3.836296 -2.154119,3.881093 0.247196,0.217278 1.042398,0.535391 1.117846,0.447183 0.05086,-0.05946 0.537384,-0.880971 1.081174,-1.825587 z m -1.69428,1.116831 c 0.100913,-0.30308 0.600727,-0.346168 0.600727,-0.05179 0,0.148583 -0.136949,0.252005 -0.333696,0.252005 -0.195728,0 -0.306133,-0.08278 -0.267031,-0.200217 z m 1.962205,0.680739 c -0.05445,-0.0881 -0.202857,-0.160174 -0.329801,-0.160174 -0.126944,0 -0.230808,0.07208 -0.230808,0.160174 0,0.0881 0.14841,0.160174 0.329801,0.160174 0.18139,0 0.285254,-0.07208 0.230808,-0.160174 z m 10.411304,0 c -0.05445,-0.0881 -0.198603,-0.160174 -0.320348,-0.160174 -0.121745,0 -0.265902,0.07208 -0.320348,0.160174 -0.05637,0.0912 0.08158,0.160174 0.320348,0.160174 0.238773,0 0.376714,-0.06897 0.320348,-0.160174 z m 1.820932,-0.413085 c 0.04931,-0.04344 -1.579493,-3.02012 -2.041702,-3.731265 -0.118701,-0.182631 -0.227945,-0.169938 -0.641877,0.07458 -0.274357,0.162067 -0.498832,0.34179 -0.498832,0.399384 0,0.05759 0.475811,0.941106 1.057356,1.963361 l 1.057358,1.858645 0.504338,-0.256353 c 0.277388,-0.140995 0.530898,-0.279752 0.563359,-0.30835 z m -1.10015,-0.319442 c 0,-0.14916 0.108978,-0.230871 0.267031,-0.200218 0.401839,0.07793 0.457016,0.452223 0.06666,0.452223 -0.196746,0 -0.333695,-0.103422 -0.333695,-0.252005 z m -10.45916,-0.0283 c 0.05624,-0.154168 0.333731,-0.646726 0.616635,-1.094575 0.489234,-0.774474 0.499748,-0.823403 0.215114,-1.00116 -0.259768,-0.162228 -0.349195,-0.107617 -0.677667,0.413835 -0.746752,1.185476 -0.903922,1.58096 -0.706679,1.778203 0.259359,0.259359 0.433941,0.228934 0.552597,-0.0963 z m 8.982913,0.09074 c 0.145963,-0.145965 0.05582,-0.431455 -0.391943,-1.241348 -0.319825,-0.578483 -0.599928,-1.074801 -0.62245,-1.102929 -0.02252,-0.02813 -0.183558,0.03792 -0.357859,0.146773 -0.308796,0.192846 -0.303738,0.218773 0.197459,1.012185 0.282906,0.447849 0.560391,0.940407 0.616636,1.094575 0.119391,0.327251 0.293365,0.355535 0.558157,0.09074 z M 42.41647,37.898662 c -0.04395,-0.168046 -0.217392,-0.341494 -0.385439,-0.385439 -0.168046,-0.04395 -0.30554,-0.165474 -0.30554,-0.270064 0,-0.104591 0.137494,-0.226119 0.30554,-0.270065 0.168047,-0.04395 0.341494,-0.217393 0.385439,-0.385439 0.04395,-0.168046 0.165474,-0.30554 0.270065,-0.30554 0.10459,0 0.226119,0.137494 0.270064,0.30554 0.04395,0.168046 0.217393,0.341494 0.38544,0.385439 0.168046,0.04395 0.305539,0.165474 0.305539,0.270065 0,0.10459 -0.137493,0.226119 -0.305539,0.270064 -0.168047,0.04395 -0.341494,0.217393 -0.38544,0.385439 -0.04395,0.168047 -0.165474,0.30554 -0.270064,0.30554 -0.104591,0 -0.226119,-0.137493 -0.270065,-0.30554 z m 0.02118,-4.994155 c -0.165063,-0.267077 0.206177,-0.573344 0.427139,-0.352382 0.184827,0.184828 0.06915,0.526512 -0.178253,0.526512 -0.0777,0 -0.189696,-0.07836 -0.248886,-0.17413 z m -2.719447,-3.355348 c -0.287428,-0.317604 -0.286004,-0.335025 0.05526,-0.676291 l 0.350289,-0.350288 0.350289,0.350288 c 0.341265,0.341266 0.342689,0.358687 0.05526,0.676291 -0.162264,0.1793 -0.344763,0.326 -0.405551,0.326 -0.06079,0 -0.243286,-0.1467 -0.40555,-0.326 z"
       id="path891" />
  </g>
</svg>
