<?xml version="1.0" encoding="UTF-8" standalone="no"?>
<svg
   xmlns:dc="http://purl.org/dc/elements/1.1/"
   xmlns:cc="http://creativecommons.org/ns#"
   xmlns:rdf="http://www.w3.org/1999/02/22-rdf-syntax-ns#"
   xmlns:svg="http://www.w3.org/2000/svg"
   xmlns="http://www.w3.org/2000/svg"
   xmlns:sodipodi="http://sodipodi.sourceforge.net/DTD/sodipodi-0.dtd"
   xmlns:inkscape="http://www.inkscape.org/namespaces/inkscape"
   width="200mm"
   height="260mm"
   viewBox="0 0 200 260"
   version="1.1"
   id="svg8"
   inkscape:version="1.0.1 (3bc2e813f5, 2020-09-07)"
   sodipodi:docname="noncommercial.svg">
  <defs
     id="defs2" />
  <sodipodi:namedview
     id="base"
     pagecolor="#ffffff"
     bordercolor="#666666"
     borderopacity="1.0"
     inkscape:pageopacity="0.0"
     inkscape:pageshadow="2"
     inkscape:zoom="0.49497475"
     inkscape:cx="350.7646"
     inkscape:cy="407.87284"
     inkscape:document-units="mm"
     inkscape:current-layer="layer1"
     inkscape:document-rotation="0"
     showgrid="false"
     inkscape:window-width="1920"
     inkscape:window-height="1137"
     inkscape:window-x="-8"
     inkscape:window-y="-8"
     inkscape:window-maximized="1" />
  <metadata
     id="metadata5">
    <rdf:RDF>
      <cc:Work
         rdf:about="">
        <dc:format>image/svg+xml</dc:format>
        <dc:type
           rdf:resource="http://purl.org/dc/dcmitype/StillImage" />
        <dc:title></dc:title>
      </cc:Work>
    </rdf:RDF>
  </metadata>
  <g
     inkscape:label="Layer 1"
     inkscape:groupmode="layer"
     id="layer1">
    <g
       id="g895"
       transform="matrix(0.84556577,0,0,0.84556577,-63.559198,219.73365)">
      <path
         style="fill:none;stroke:#000000;stroke-width:2.065;stroke-miterlimit:4;stroke-dasharray:none;stroke-opacity:1"
         d="m 179.55185,-70.381964 c 0,-0.0558 0.23829,-0.16375 0.52954,-0.23991 0.29124,-0.0762 0.4628,-0.0305 0.38125,0.10143 -0.14241,0.23043 -0.91079,0.34725 -0.91079,0.13848 z m 1.85209,-0.80599 c 0,-0.0728 0.23812,-0.25974 0.52916,-0.4155 0.29105,-0.15576 0.52917,-0.22367 0.52917,-0.15091 0,0.0728 -0.23812,0.25974 -0.52917,0.4155 -0.29104,0.15576 -0.52916,0.22367 -0.52916,0.15091 z m 1.85208,-1.05834 c 0,-0.0728 0.23812,-0.25973 0.52917,-0.41549 0.29104,-0.15576 0.52916,-0.22367 0.52916,-0.15091 0,0.0728 -0.23812,0.25973 -0.52916,0.41549 -0.29105,0.15576 -0.52917,0.22367 -0.52917,0.15091 z m 3.175,-1.85208 c 0,-0.0728 0.23812,-0.25973 0.52917,-0.41549 0.29104,-0.15576 0.52916,-0.22367 0.52916,-0.15091 0,0.0728 -0.23812,0.25973 -0.52916,0.41549 -0.29105,0.15576 -0.52917,0.22367 -0.52917,0.15091 z m 1.85208,-1.05833 c 0,-0.0728 0.23813,-0.25974 0.52917,-0.4155 0.29104,-0.15576 0.52917,-0.22367 0.52917,-0.15091 0,0.0728 -0.23813,0.25974 -0.52917,0.4155 -0.29104,0.15576 -0.52917,0.22367 -0.52917,0.15091 z m -20.2562,-1.8853 c -0.49319,-0.39513 -0.48994,-0.40001 0.0817,-0.12298 0.32743,0.15867 0.59532,0.34383 0.59532,0.41147 0,0.20246 -0.13722,0.14399 -0.67704,-0.28849 z m 23.4312,0.0332 c 0,-0.0728 0.23813,-0.25973 0.52917,-0.41549 0.29104,-0.15576 0.52917,-0.22367 0.52917,-0.15091 0,0.0728 -0.23813,0.25973 -0.52917,0.41549 -0.29104,0.15576 -0.52917,0.22368 -0.52917,0.15091 z m -28.45828,-2.94363 c -0.49319,-0.39512 -0.48995,-0.40001 0.0817,-0.12298 0.32742,0.15867 0.59531,0.34383 0.59531,0.41147 0,0.20247 -0.13721,0.144 -0.67703,-0.28849 z m 37.7187,-2.34803 c 0,-0.0728 0.23813,-0.25974 0.52917,-0.4155 0.29104,-0.15576 0.52916,-0.22367 0.52916,-0.15091 0,0.0728 -0.23812,0.25974 -0.52916,0.4155 -0.29104,0.15576 -0.52917,0.22367 -0.52917,0.15091 z m 1.85208,-1.05834 c 0,-0.0728 0.23813,-0.25973 0.52917,-0.41549 0.29104,-0.15576 0.52917,-0.22367 0.52917,-0.15091 0,0.0728 -0.23813,0.25973 -0.52917,0.41549 -0.29104,0.15576 -0.52917,0.22368 -0.52917,0.15091 z m 1.85209,-1.05833 c 0,-0.0728 0.23812,-0.25973 0.52916,-0.41549 0.29105,-0.15576 0.52917,-0.22367 0.52917,-0.15091 0,0.0728 -0.23812,0.25973 -0.52917,0.41549 -0.29104,0.15576 -0.52916,0.22367 -0.52916,0.15091 z m 2.11666,-1.31323 c 0,-0.0572 0.18478,-0.17489 0.41062,-0.26155 0.23546,-0.0904 0.34166,-0.046 0.24897,0.10398 -0.15538,0.25141 -0.65959,0.37186 -0.65959,0.15757 z m 1.05834,-0.53885 c 0,-0.0728 0.23812,-0.25974 0.52916,-0.4155 0.29105,-0.15576 0.52917,-0.22367 0.52917,-0.15091 0,0.0728 -0.23812,0.25974 -0.52917,0.4155 -0.29104,0.15576 -0.52916,0.22367 -0.52916,0.15091 z m 1.85208,-1.05834 c 0,-0.0728 0.23813,-0.25973 0.52917,-0.41549 0.29104,-0.15576 0.52916,-0.22367 0.52916,-0.15091 0,0.0728 -0.23812,0.25973 -0.52916,0.41549 -0.29104,0.15576 -0.52917,0.22368 -0.52917,0.15091 z m 3.175,-1.85208 c 0,-0.0728 0.23812,-0.25973 0.52917,-0.41549 0.29104,-0.15576 0.52916,-0.22367 0.52916,-0.15091 0,0.0728 -0.23812,0.25973 -0.52916,0.41549 -0.29105,0.15576 -0.52917,0.22367 -0.52917,0.15091 z m 1.85207,-1.06336 c 0,-0.0728 0.35719,-0.317 0.79375,-0.54276 0.43657,-0.22575 0.79375,-0.35093 0.79375,-0.27817 0,0.0728 -0.35718,0.317 -0.79375,0.54276 -0.43656,0.22575 -0.79375,0.35093 -0.79375,0.27817 z m -36.51249,-0.53384 c 0,-0.0728 0.59532,-0.43396 1.32292,-0.80267 0.7276,-0.3687 1.32292,-0.61084 1.32292,-0.53808 0,0.0728 -0.59532,0.43396 -1.32292,0.80267 -0.7276,0.3687 -1.32292,0.61084 -1.32292,0.53808 z m -35.07286,-0.81726 c -0.49319,-0.39513 -0.48995,-0.40001 0.0817,-0.12298 0.32742,0.15866 0.59531,0.34382 0.59531,0.41146 0,0.20247 -0.13722,0.144 -0.67703,-0.28848 z m 33.60208,0 c -0.49319,-0.39513 -0.48995,-0.40001 0.0817,-0.12298 0.32742,0.15866 0.59531,0.34382 0.59531,0.41146 0,0.20247 -0.13721,0.144 -0.67703,-0.28848 z m 39.83536,0.2978 c 0,-0.0728 0.23812,-0.25974 0.52916,-0.4155 0.29105,-0.15576 0.52917,-0.22367 0.52917,-0.15091 0,0.0728 -0.23812,0.25973 -0.52917,0.41549 -0.29104,0.15576 -0.52916,0.22368 -0.52916,0.15092 z m -41.34114,-1.096 c -0.98913,-0.53661 -0.92892,-0.76011 0.0662,-0.24554 0.43656,0.22576 0.79375,0.46694 0.79375,0.53596 0,0.17026 -0.0284,0.16066 -0.8599,-0.29042 z m -33.94839,-0.26014 c -0.49319,-0.39512 -0.48994,-0.40001 0.0817,-0.12298 0.32743,0.15867 0.59532,0.34383 0.59532,0.41147 0,0.20247 -0.13722,0.144 -0.67704,-0.28849 z m 64.37547,-0.26903 c -0.98912,-0.53661 -0.92892,-0.76011 0.0661,-0.24554 0.43656,0.22576 0.79375,0.46694 0.79375,0.53596 0,0.17026 -0.0284,0.16066 -0.8599,-0.29042 z m 2.71198,0.30225 c 0,-0.0728 0.23813,-0.25974 0.52917,-0.4155 0.29104,-0.15576 0.52917,-0.22367 0.52917,-0.15091 0,0.0728 -0.23813,0.25974 -0.52917,0.4155 -0.29104,0.15576 -0.52917,0.22367 -0.52917,0.15091 z m -34.80828,-0.82697 c -0.49319,-0.39512 -0.48995,-0.40001 0.0817,-0.12298 0.32742,0.15867 0.59531,0.34383 0.59531,0.41147 0,0.20247 -0.13721,0.144 -0.67703,-0.28849 z m -34.13125,-0.26458 c -0.49319,-0.39513 -0.48995,-0.40001 0.0817,-0.12298 0.32742,0.15867 0.59531,0.34383 0.59531,0.41147 0,0.20246 -0.13721,0.14399 -0.67703,-0.28849 z m 43.80412,0.28449 c 0,-0.0728 1.07156,-0.67046 2.38125,-1.32823 1.30968,-0.65776 2.38125,-1.1364 2.38125,-1.06364 0,0.0728 -1.07157,0.67046 -2.38125,1.32823 -1.30969,0.65776 -2.38125,1.1364 -2.38125,1.06364 z m 26.45833,0.008 c 0,-0.0728 0.35719,-0.317 0.79375,-0.54275 0.43656,-0.22576 0.79375,-0.35094 0.79375,-0.27818 0,0.0728 -0.35719,0.317 -0.79375,0.54276 -0.43656,0.22575 -0.79375,0.35093 -0.79375,0.27817 z m -5.70412,-0.55735 c -0.49319,-0.39513 -0.48994,-0.40001 0.0817,-0.12298 0.32743,0.15867 0.59532,0.34383 0.59532,0.41147 0,0.20246 -0.13722,0.14399 -0.67704,-0.28849 z m -32.27916,-0.52917 c -0.49319,-0.39512 -0.48995,-0.40001 0.0817,-0.12298 0.32742,0.15867 0.59531,0.34383 0.59531,0.41147 0,0.20246 -0.13722,0.144 -0.67703,-0.28849 z m 39.83536,0.0332 c 0,-0.0728 0.23813,-0.25974 0.52917,-0.4155 0.29104,-0.15576 0.52917,-0.22367 0.52917,-0.15091 0,0.0728 -0.23813,0.25973 -0.52917,0.41549 -0.29104,0.15577 -0.52917,0.22368 -0.52917,0.15092 z m 10.58333,0 c 0,-0.0728 0.23812,-0.25974 0.52916,-0.4155 0.29105,-0.15576 0.52917,-0.22367 0.52917,-0.15091 0,0.0728 -0.23812,0.25973 -0.52917,0.41549 -0.29104,0.15577 -0.52916,0.22368 -0.52916,0.15092 z m -19.99161,-0.56239 c -0.49319,-0.39512 -0.48995,-0.40001 0.0817,-0.12298 0.32742,0.15867 0.59531,0.34383 0.59531,0.41147 0,0.20247 -0.13721,0.144 -0.67703,-0.28849 z m -31.93286,-0.26903 c -0.98913,-0.53661 -0.92892,-0.76011 0.0661,-0.24554 0.43657,0.22576 0.79375,0.46694 0.79375,0.53596 0,0.17026 -0.0284,0.16066 -0.85989,-0.29042 z m 30.42708,-0.52916 c -0.98913,-0.53661 -0.92892,-0.76011 0.0661,-0.24554 0.43656,0.22575 0.79375,0.46693 0.79375,0.53596 0,0.17026 -0.0284,0.16066 -0.8599,-0.29042 z m 12.76615,0.30224 c 0,-0.0728 0.23812,-0.25973 0.52916,-0.41549 0.29104,-0.15576 0.52916,-0.22367 0.52916,-0.15091 0,0.0728 -0.23812,0.25973 -0.52916,0.41549 -0.29104,0.15576 -0.52916,0.22367 -0.52916,0.15091 z m -44.61279,-0.6724 c -0.24843,-0.23602 -4.30544,-2.59959 -18.62263,-10.849356 -4.87495,-2.80901 -10.64948,-6.14613 -12.83229,-7.41581 -2.18281,-1.26969 -7.54063,-4.36674 -11.90625,-6.88234 -4.36563,-2.51561 -9.35212,-5.40296 -11.08109,-6.41634 l -3.1436,-1.8425 0.76235,-0.45931 c 0.41928,-0.25262 1.71484,-1.028 2.87901,-1.72306 1.16416,-0.69506 2.50361,-1.4984 2.97656,-1.78519 0.47294,-0.2868 0.85989,-0.45396 0.85989,-0.37147 0,0.0825 -0.32742,0.3276 -0.7276,0.54471 -0.94347,0.51184 -0.58508,0.5088 3.30729,-0.028 l 3.24115,-0.44702 v -1.03803 c 0,-0.8104 0.0864,-1.0049 0.3938,-0.88692 0.21659,0.0831 8.16401,4.64054 17.66093,10.12762 9.49693,5.48708 19.76745,11.42082 22.82339,13.18609 3.05594,1.76527 7.65076,4.42386 10.21072,5.90798 2.55995,1.48411 4.79972,2.69839 4.97726,2.69839 0.2856,0 5.22963,-2.731 23.44119,-12.94853 2.76489,-1.55124 9.81695,-5.49343 15.67122,-8.76043 9.35842,-5.22249 10.58887,-5.98175 10.18646,-6.28566 -0.25173,-0.19012 -1.91647,-1.18146 -3.69943,-2.20299 l -3.24174,-1.85732 -17.88085,10.35465 c -9.83447,5.69506 -18.15551,10.4798 -18.49119,10.63274 -0.65418,0.29807 0.89285,1.15844 -30.43405,-16.9256 -13.02622,-7.51962 -16.22926,-9.37601 -18.45262,-10.69462 -1.15953,-0.68767 -1.94664,-0.99597 -2.24896,-0.88088 -0.37022,0.14096 -0.39837,0.10985 -0.13797,-0.15249 0.25984,-0.26179 0.25025,-0.41464 -0.0466,-0.74328 -0.20555,-0.22754 -0.41228,-0.88646 -0.45941,-1.46426 -0.0837,-1.02554 -0.14924,-1.08854 -2.75471,-2.64584 -3.18212,-1.90196 -3.49065,-2.17644 -3.33889,-2.97034 0.0641,-0.33512 0.15111,-0.60932 0.19344,-0.60932 0.0423,0 3.21337,1.82852 7.04676,4.06336 31.68339,18.47127 34.9303,20.30401 35.35757,19.95793 0.23842,-0.19311 0.34318,-0.211 0.24149,-0.0412 -0.14604,0.24379 1.93378,1.59875 4.90668,3.1966 0.10914,0.0587 0.19843,-1.27378 0.19843,-2.96098 v -3.06763 l -0.59531,0.28849 c -0.57167,0.27703 -0.57491,0.27214 -0.0817,-0.12298 0.28247,-0.22631 0.6112,-0.41147 0.73051,-0.41147 0.1193,0 0.18584,-4.97086 0.14786,-11.04636 l -0.069,-11.04635 -2.77813,-1.64692 c -1.52797,-0.9058 -2.81062,-1.79877 -2.85034,-1.98437 -0.0397,-0.18561 0.16865,-0.4873 0.46303,-0.67043 0.47011,-0.29247 0.53523,-0.26832 0.53523,0.19844 0,0.66291 0.17765,0.66308 1.26316,0.001 0.47646,-0.2905 0.97094,-0.52818 1.09884,-0.52818 0.21517,0 2.59984,-1.34786 11.9255,-6.74053 1.96453,-1.13601 3.98859,-2.30009 4.49791,-2.58684 3.44589,-1.94004 7.67292,-4.52921 7.67292,-4.69986 0,-0.11201 0.19543,-0.27865 0.4343,-0.37031 0.35187,-0.13502 0.37473,-0.0949 0.12046,0.2115 -0.25924,0.31236 0.0335,0.57575 1.68237,1.51391 l 1.9962,1.13575 -0.006,1.601 -0.006,1.60101 -4.43069,2.56437 c -2.43688,1.4104 -4.63698,2.64353 -4.88912,2.74028 -0.25214,0.0968 -0.45843,0.3488 -0.45843,0.5601 0,0.2113 -0.10806,0.3174 -0.24013,0.23578 -0.13207,-0.0816 -1.94777,0.8422 -4.0349,2.05295 l -3.79477,2.20135 -0.0694,9.85131 c -0.0431,6.11547 -0.16442,9.79256 -0.31999,9.69642 -0.14971,-0.0925 -0.25653,-3.95208 -0.26532,-9.58669 -0.008,-5.1875 -0.0427,-9.45905 -0.0769,-9.49235 -0.0342,-0.0333 -0.86584,0.4108 -1.8481,0.98688 l -1.78594,1.04742 v 9.9159 9.91591 l 0.79375,-0.41047 c 0.43656,-0.22575 0.79375,-0.35093 0.79375,-0.27817 0,0.0728 -0.35719,0.317 -0.79375,0.54276 l -0.79375,0.41046 v 4.09425 c 0,2.38739 0.10399,4.09424 0.24944,4.09424 0.13719,0 2.78633,-1.46783 5.88698,-3.26186 3.10064,-1.79402 7.87343,-4.54584 10.60619,-6.11515 4.32263,-2.48232 4.92465,-2.90667 4.63021,-3.26375 -0.29992,-0.36373 -0.26792,-0.37287 0.28114,-0.0802 0.56751,0.30244 1.11231,0.0468 6.48229,-3.04127 3.22449,-1.8543 6.07106,-3.50032 6.32572,-3.65781 0.35333,-0.21852 0.46302,-0.64366 0.46302,-1.7946 0,-0.82953 0.12201,-1.58365 0.27114,-1.67581 0.14912,-0.0922 0.23842,-0.0296 0.19844,0.1391 -0.0722,0.30455 6.87749,4.55406 7.17843,4.38939 1.18288,-0.64724 28.74104,-16.55557 29.4598,-17.00607 l 0.99219,-0.62189 v 2.22224 2.22223 l -1.12448,0.17071 c -0.61846,0.0939 -1.71979,0.50363 -2.4474,0.91053 -0.7276,0.4069 -1.91822,1.0718 -2.64583,1.47754 -0.7276,0.40575 -1.8587,1.06659 -2.51354,1.46853 -0.65484,0.40194 -3.21469,1.89396 -5.68854,3.31559 -2.47386,1.42163 -4.97417,2.86193 -5.55625,3.20068 -0.58209,0.33874 -2.06292,1.18439 -3.29076,1.87922 -2.72744,1.54347 -3.90019,2.65734 -4.13921,3.93143 -0.11192,0.59662 -0.2552,0.83342 -0.38105,0.62979 -0.15154,-0.24519 -0.48215,-0.16948 -1.32978,0.30456 -0.62046,0.34698 -1.12888,0.74995 -1.12983,0.89547 -0.001,0.14552 1.64008,1.21058 3.64671,2.36679 3.5358,2.03731 3.66985,2.0898 4.34242,1.69999 0.57101,-0.33095 29.06699,-16.70346 29.74264,-17.08879 0.11499,-0.0656 0.17452,0.92219 0.1323,2.19503 l -0.0768,2.31427 -5.02708,2.89687 c -25.51598,14.70371 -25.17052,14.50783 -55.03332,31.20377 -9.7499,5.45105 -18.50099,10.339 -19.44688,10.86211 -0.94588,0.52311 -3.92245,1.91849 -6.61458,3.100826 -2.69214,1.18235 -5.14664,2.31408 -5.45445,2.51497 -0.30781,0.20089 -0.665,0.26518 -0.79375,0.14287 z m 35.36542,-31.328216 c 9.81548,-5.65739 17.99518,-10.42418 18.17712,-10.59286 0.46833,-0.43418 -6.48545,-4.55344 -7.0751,-4.19112 -0.2197,0.135 -7.3646,4.26879 -15.87757,9.1862 -20.7343,11.97689 -20.44088,11.80314 -20.25157,11.99245 0.41493,0.41494 6.65616,3.97162 6.90317,3.9339 0.1527,-0.0233 8.30848,-4.67118 18.12395,-10.32857 z m -69.74633,30.909066 c -0.49319,-0.39512 -0.48995,-0.40001 0.0817,-0.12298 0.32742,0.15867 0.59531,0.34383 0.59531,0.41147 0,0.20247 -0.13722,0.144 -0.67703,-0.28849 z m 80.3166,0.2978 c 0,-0.0728 0.23813,-0.25973 0.52917,-0.41549 0.29104,-0.15576 0.52917,-0.22367 0.52917,-0.15091 0,0.0728 -0.23813,0.25973 -0.52917,0.41549 -0.29104,0.15576 -0.52917,0.22367 -0.52917,0.15091 z m -15.94113,-0.56683 c -0.98913,-0.53661 -0.92892,-0.76011 0.0661,-0.24554 0.43657,0.22576 0.79375,0.46694 0.79375,0.53596 0,0.17026 -0.0284,0.16066 -0.85989,-0.29042 z m -8.2065,-0.41066 c 0.17948,-0.18082 0.39297,-0.26212 0.47444,-0.18065 0.0815,0.0815 -0.0654,0.2294 -0.32632,0.32876 -0.37709,0.14359 -0.40748,0.1132 -0.14812,-0.14811 z m 25.99972,-0.0808 c 0,-0.0728 0.23812,-0.25973 0.52916,-0.4155 0.29105,-0.15576 0.52917,-0.22367 0.52917,-0.15091 0,0.0728 -0.23812,0.25974 -0.52917,0.4155 -0.29104,0.15576 -0.52916,0.22367 -0.52916,0.15091 z m 10.58333,-0.005 c 0,-0.0728 0.35719,-0.317 0.79375,-0.54275 0.43656,-0.22576 0.79375,-0.35094 0.79375,-0.27818 0,0.0728 -0.35719,0.317 -0.79375,0.54276 -0.43656,0.22575 -0.79375,0.35093 -0.79375,0.27817 z m -35.71874,-0.27056 c 0,-0.1601 3.06806,-1.7274 3.38147,-1.7274 0.12186,0 0.45267,0.18052 0.73515,0.40117 0.48089,0.37563 0.46983,0.38252 -0.17376,0.10816 -0.5855,-0.24959 -0.92855,-0.17125 -2.31511,0.52868 -0.89526,0.45193 -1.62775,0.76215 -1.62775,0.68939 z m 5.4901,-0.29124 c -0.98912,-0.53661 -0.92892,-0.76011 0.0662,-0.24554 0.43656,0.22576 0.79375,0.46694 0.79375,0.53596 0,0.17026 -0.0284,0.16066 -0.8599,-0.29042 z m 21.49739,-0.4915 c 0,-0.0728 0.23812,-0.25974 0.52917,-0.4155 0.29104,-0.15576 0.52916,-0.22367 0.52916,-0.15091 0,0.0728 -0.23812,0.25973 -0.52916,0.41549 -0.29105,0.15577 -0.52917,0.22368 -0.52917,0.15092 z m 1.32292,-0.79878 c 0,-0.0728 0.35718,-0.317 0.79375,-0.54276 0.43656,-0.225756 0.79375,-0.350926 0.79375,-0.278166 0,0.0728 -0.35719,0.316996 -0.79375,0.542746 -0.43657,0.22576 -0.79375,0.35094 -0.79375,0.27818 z m 11.1125,-0.25956 c 0,-0.0728 0.23812,-0.25973 0.52916,-0.41549 0.29105,-0.155756 0.52917,-0.223666 0.52917,-0.150906 0,0.0728 -0.23812,0.259726 -0.52917,0.415486 -0.29104,0.15576 -0.52916,0.22367 -0.52916,0.15091 z m -9.26042,-0.793746 c 0,-0.0728 0.23813,-0.25973 0.52917,-0.41549 0.29104,-0.15576 0.52916,-0.22367 0.52916,-0.15091 0,0.0728 -0.23812,0.25973 -0.52916,0.41549 -0.29104,0.15576 -0.52917,0.22367 -0.52917,0.15091 z m 11.1125,-0.26458 c 0,-0.0728 0.23812,-0.25973 0.52917,-0.41549 0.29104,-0.15577 0.52916,-0.22368 0.52916,-0.15092 0,0.0728 -0.23812,0.25974 -0.52916,0.4155 -0.29105,0.15576 -0.52917,0.22367 -0.52917,0.15091 z m -9.26042,-0.79375 c 0,-0.0728 0.23813,-0.25973 0.52917,-0.41549 0.29104,-0.15577 0.52917,-0.22368 0.52917,-0.15092 0,0.0728 -0.23813,0.25974 -0.52917,0.4155 -0.29104,0.15576 -0.52917,0.22367 -0.52917,0.15091 z m 11.1125,-0.26458 c 0,-0.0728 0.23813,-0.25974 0.52917,-0.4155 0.29104,-0.15576 0.52917,-0.22367 0.52917,-0.15091 0,0.0728 -0.23813,0.25973 -0.52917,0.4155 -0.29104,0.15576 -0.52917,0.22367 -0.52917,0.15091 z m -9.78958,-0.52917 c 0,-0.0728 0.23812,-0.25973 0.52917,-0.41549 0.29104,-0.15577 0.52916,-0.22368 0.52916,-0.15092 0,0.0728 -0.23812,0.25974 -0.52916,0.4155 -0.29105,0.15576 -0.52917,0.22367 -0.52917,0.15091 z m 11.64167,-0.52917 c 0,-0.0728 0.23812,-0.25973 0.52916,-0.41549 0.29105,-0.15576 0.52917,-0.22367 0.52917,-0.15091 0,0.0728 -0.23812,0.25973 -0.52917,0.41549 -0.29104,0.15576 -0.52916,0.22367 -0.52916,0.15091 z m -10.31875,-0.25911 c 0,-0.0504 0.17859,-0.23981 0.39687,-0.42096 0.22876,-0.18986 0.39688,-0.21557 0.39688,-0.0607 0,0.14777 -0.1786,0.33721 -0.39688,0.42097 -0.21828,0.0838 -0.39687,0.11108 -0.39687,0.0607 z m 11.64166,-0.53464 c 0,-0.0728 0.23813,-0.25973 0.52917,-0.41549 0.29104,-0.15576 0.52917,-0.22367 0.52917,-0.15091 0,0.0728 -0.23813,0.25973 -0.52917,0.41549 -0.29104,0.15576 -0.52917,0.22367 -0.52917,0.15091 z m -12.05411,-0.56238 c -0.49319,-0.39513 -0.48995,-0.40001 0.0817,-0.12298 0.32742,0.15867 0.59531,0.34383 0.59531,0.41147 0,0.20246 -0.13722,0.144 -0.67703,-0.28849 z m -1.50578,-0.7982 c -0.98913,-0.53661 -0.92892,-0.76011 0.0661,-0.24554 0.43657,0.22576 0.79375,0.46694 0.79375,0.53596 0,0.17026 -0.0284,0.16066 -0.85989,-0.29042 z m -1.85209,-1.05833 c -0.98912,-0.53661 -0.92892,-0.76011 0.0661,-0.24554 0.43656,0.22576 0.79375,0.46694 0.79375,0.53596 0,0.17026 -0.0284,0.16066 -0.8599,-0.29042 z m 19.9099,-0.21723 c 0,-0.0572 0.18478,-0.17489 0.41062,-0.26156 0.23546,-0.0904 0.34166,-0.046 0.24897,0.10399 -0.15538,0.25141 -0.65959,0.37186 -0.65959,0.15757 z m -21.57912,-0.83666 c -0.49319,-0.39512 -0.48994,-0.40001 0.0817,-0.12298 0.32743,0.15867 0.59532,0.34383 0.59532,0.41147 0,0.20247 -0.13722,0.144 -0.67704,-0.28849 z m -1.85208,-1.05833 c -0.49319,-0.39513 -0.48995,-0.40001 0.0817,-0.12298 0.32742,0.15867 0.59531,0.34383 0.59531,0.41147 0,0.20246 -0.13721,0.144 -0.67703,-0.28849 z m -1.50578,-0.7982 c -0.98913,-0.53661 -0.92892,-0.76011 0.0661,-0.24554 0.43656,0.22576 0.79375,0.46694 0.79375,0.53596 0,0.17026 -0.0284,0.16066 -0.8599,-0.29042 z m -1.66922,-1.05388 c -0.49319,-0.39513 -0.48995,-0.40001 0.0817,-0.12298 0.32742,0.15866 0.59531,0.34382 0.59531,0.41147 0,0.20246 -0.13721,0.14399 -0.67703,-0.28849 z m 32.69162,0.29277 c 0,-0.0728 0.35718,-0.317 0.79375,-0.54276 0.43656,-0.22576 0.79375,-0.35093 0.79375,-0.27817 0,0.0728 -0.35719,0.317 -0.79375,0.54275 -0.43657,0.22576 -0.79375,0.35094 -0.79375,0.27818 z m -33.74526,-0.95724 c -0.0959,-0.1552 -0.11765,-0.33893 -0.0483,-0.40828 0.0693,-0.0694 0.1966,0.0576 0.28278,0.28218 0.1789,0.46623 0.0264,0.54823 -0.23448,0.1261 z m 36.12651,-0.36065 c 0,-0.0728 0.23812,-0.25973 0.52916,-0.41549 0.29104,-0.15576 0.52917,-0.22368 0.52917,-0.15091 0,0.0728 -0.23813,0.25973 -0.52917,0.41549 -0.29104,0.15576 -0.52916,0.22367 -0.52916,0.15091 z m -35.71875,-0.26458 c 0,-0.0728 0.23812,-0.25974 0.52916,-0.4155 0.29105,-0.15576 0.52917,-0.22367 0.52917,-0.15091 0,0.0728 -0.23812,0.25974 -0.52917,0.4155 -0.29104,0.15576 -0.52916,0.22367 -0.52916,0.15091 z m -107.56869,-1.09155 c -0.49319,-0.39513 -0.48995,-0.40001 0.0817,-0.12298 0.32742,0.15866 0.59531,0.34382 0.59531,0.41147 0,0.20246 -0.13722,0.14399 -0.67703,-0.28849 z m 108.8916,0.29277 c 0,-0.0728 0.35719,-0.317 0.79375,-0.54276 0.43657,-0.22576 0.79375,-0.35093 0.79375,-0.27817 0,0.0728 -0.35718,0.317 -0.79375,0.54275 -0.43656,0.22576 -0.79375,0.35094 -0.79375,0.27818 z m 37.04167,-0.52917 c 0,-0.0728 0.35719,-0.317 0.79375,-0.54276 0.43656,-0.22575 0.79375,-0.35093 0.79375,-0.27817 0,0.0728 -0.35719,0.317 -0.79375,0.54276 -0.43656,0.22575 -0.79375,0.35093 -0.79375,0.27817 z m -35.18958,-0.52414 c 0,-0.0728 0.23812,-0.25973 0.52916,-0.41549 0.29105,-0.15576 0.52917,-0.22367 0.52917,-0.15091 0,0.0728 -0.23812,0.25973 -0.52917,0.41549 -0.29104,0.15576 -0.52916,0.22367 -0.52916,0.15091 z m 37.57083,-0.79375 c 0,-0.0728 0.23812,-0.25973 0.52917,-0.41549 0.29104,-0.15576 0.52916,-0.22367 0.52916,-0.15091 0,0.0728 -0.23812,0.25973 -0.52916,0.41549 -0.29105,0.15576 -0.52917,0.22367 -0.52917,0.15091 z m 1.32292,-0.79878 c 0,-0.0728 0.35718,-0.317 0.79375,-0.54275 0.43656,-0.22576 0.79375,-0.35094 0.79375,-0.27818 0,0.0728 -0.35719,0.317 -0.79375,0.54276 -0.43657,0.22576 -0.79375,0.35093 -0.79375,0.27817 z m -35.71875,-0.25955 c 0,-0.0728 0.23812,-0.25973 0.52916,-0.41549 0.29105,-0.15576 0.52917,-0.22368 0.52917,-0.15091 0,0.0728 -0.23812,0.25973 -0.52917,0.41549 -0.29104,0.15576 -0.52916,0.22367 -0.52916,0.15091 z m 1.32291,-0.79375 c 0,-0.0728 0.23813,-0.25973 0.52917,-0.41549 0.29104,-0.15576 0.52917,-0.22368 0.52917,-0.15091 0,0.0728 -0.23813,0.25973 -0.52917,0.41549 -0.29104,0.15576 -0.52917,0.22367 -0.52917,0.15091 z m 36.24792,0 c 0,-0.0728 0.23813,-0.25973 0.52917,-0.41549 0.29104,-0.15576 0.52916,-0.22368 0.52916,-0.15091 0,0.0728 -0.23812,0.25973 -0.52916,0.41549 -0.29104,0.15576 -0.52917,0.22367 -0.52917,0.15091 z m -158.36869,-0.56238 c -0.493195,-0.39513 -0.489945,-0.40001 0.0817,-0.12298 0.32742,0.15866 0.59531,0.34382 0.59531,0.41147 0,0.20246 -0.13721,0.14399 -0.67703,-0.28849 z m 123.44369,-0.2364 c 0,-0.0728 0.35719,-0.317 0.79375,-0.54276 0.43656,-0.22575 0.79375,-0.35093 0.79375,-0.27817 0,0.0728 -0.35719,0.317 -0.79375,0.54276 -0.43656,0.22575 -0.79375,0.35093 -0.79375,0.27817 z m 36.77708,-0.26458 c 0,-0.0728 0.35719,-0.317 0.79375,-0.54276 0.43657,-0.22576 0.79375,-0.35093 0.79375,-0.27817 0,0.0728 -0.35718,0.317 -0.79375,0.54275 -0.43656,0.22576 -0.79375,0.35094 -0.79375,0.27818 z m -34.925,-0.78872 c 0,-0.0728 0.23813,-0.25974 0.52917,-0.4155 0.29104,-0.15576 0.52917,-0.22367 0.52917,-0.15091 0,0.0728 -0.23813,0.25974 -0.52917,0.4155 -0.29104,0.15576 -0.52917,0.22367 -0.52917,0.15091 z m 36.77709,-0.26962 c 0,-0.0728 0.35718,-0.317 0.79375,-0.54275 0.43656,-0.22576 0.79375,-0.35094 0.79375,-0.27817 0,0.0728 -0.35719,0.31699 -0.79375,0.54275 -0.43657,0.22576 -0.79375,0.35093 -0.79375,0.27817 z m -35.45417,-0.52916 c 0,-0.0728 0.35719,-0.317 0.79375,-0.54276 0.43656,-0.22576 0.79375,-0.35093 0.79375,-0.27817 0,0.0728 -0.35719,0.317 -0.79375,0.54275 -0.43656,0.22576 -0.79375,0.35094 -0.79375,0.27818 z m -131.645775,-0.82194 c -0.49319,-0.39513 -0.48995,-0.40001 0.0817,-0.12298 0.32742,0.15867 0.59531,0.34383 0.59531,0.41147 0,0.20246 -0.13722,0.144 -0.67703,-0.28849 z m 133.497855,-0.23137 c 0,-0.0728 0.23813,-0.25973 0.52917,-0.41549 0.29104,-0.15576 0.52917,-0.22367 0.52917,-0.15091 0,0.0728 -0.23813,0.25973 -0.52917,0.41549 -0.29104,0.15576 -0.52917,0.22367 -0.52917,0.15091 z m 1.32292,-0.79375 c 0,-0.0728 0.23812,-0.25973 0.52917,-0.41549 0.29104,-0.15576 0.52916,-0.22367 0.52916,-0.15091 0,0.0728 -0.23812,0.25973 -0.52916,0.41549 -0.29105,0.15576 -0.52917,0.22367 -0.52917,0.15091 z m 1.32292,-0.79878 c 0,-0.0728 0.35718,-0.317 0.79375,-0.54275 0.43656,-0.22576 0.79375,-0.35094 0.79375,-0.27817 0,0.0728 -0.35719,0.317 -0.79375,0.54275 -0.43657,0.22576 -0.79375,0.35093 -0.79375,0.27817 z m -140.998645,-1.04267 c -0.20447,-0.24637 -0.2806,-1.47946 -0.23083,-3.73857 0.0723,-3.28168 0.0918,-3.3811 0.73573,-3.75457 0.6589,-0.38215 0.65915,-0.38189 0.0661,0.0667 -0.56238,0.42539 -0.59531,0.63588 -0.59531,3.8047 0,2.2562 0.10395,3.45834 0.3175,3.6719 0.17463,0.17462 0.24873,0.3175 0.16469,0.3175 -0.084,0 -0.29011,-0.16544 -0.45792,-0.36763 z m 142.983015,-0.0828 c 0.14552,-0.15013 0.8599,-0.60603 1.5875,-1.01313 0.72761,-0.4071 1.20386,-0.61735 1.05834,-0.46723 -0.14553,0.15013 -0.8599,0.60603 -1.58751,1.01313 -0.7276,0.4071 -1.20385,0.61735 -1.05833,0.46723 z m 3.04271,-1.77989 c 0,-0.0728 0.23812,-0.25974 0.52917,-0.4155 0.29104,-0.15576 0.52916,-0.22367 0.52916,-0.15091 0,0.0728 -0.23812,0.25974 -0.52916,0.4155 -0.29105,0.15576 -0.52917,0.22367 -0.52917,0.15091 z m 1.32292,-0.79878 c 0,-0.0728 0.35718,-0.317 0.79375,-0.54276 0.43656,-0.22575 0.79375,-0.35093 0.79375,-0.27817 0,0.0728 -0.35719,0.317 -0.79375,0.54275 -0.43657,0.22576 -0.79375,0.35094 -0.79375,0.27818 z m 37.04166,-0.25956 c 0,-0.0728 0.23813,-0.25973 0.52917,-0.41549 0.29104,-0.15576 0.52917,-0.22367 0.52917,-0.15091 0,0.0728 -0.23813,0.25973 -0.52917,0.41549 -0.29104,0.15576 -0.52917,0.22367 -0.52917,0.15091 z m -35.18958,-0.79375 c 0,-0.0728 0.23813,-0.25973 0.52917,-0.41549 0.29104,-0.15576 0.52916,-0.22367 0.52916,-0.15091 0,0.0728 -0.23812,0.25973 -0.52916,0.41549 -0.29104,0.15576 -0.52917,0.22367 -0.52917,0.15091 z m 37.04167,-0.26458 c 0,-0.0728 0.23812,-0.25973 0.52916,-0.41549 0.29105,-0.15576 0.52917,-0.22367 0.52917,-0.15091 0,0.0728 -0.23812,0.25973 -0.52917,0.41549 -0.29104,0.15576 -0.52916,0.22367 -0.52916,0.15091 z m -35.71875,-0.52917 c 0,-0.0728 0.23812,-0.25973 0.52916,-0.41549 0.29105,-0.15576 0.52917,-0.22367 0.52917,-0.15091 0,0.0728 -0.23812,0.25973 -0.52917,0.41549 -0.29104,0.15576 -0.52916,0.22367 -0.52916,0.15091 z m 1.32291,-0.79878 c 0,-0.0728 0.35719,-0.317 0.79375,-0.54275 0.43657,-0.22576 0.79375,-0.35094 0.79375,-0.27817 0,0.0728 -0.35718,0.317 -0.79375,0.54275 -0.43656,0.22576 -0.79375,0.35093 -0.79375,0.27817 z m 1.85209,-1.05833 c 0,-0.0728 0.35718,-0.317 0.79375,-0.54276 0.43656,-0.22575 0.79375,-0.35093 0.79375,-0.27817 0,0.0728 -0.35719,0.317 -0.79375,0.54276 -0.43657,0.22575 -0.79375,0.35093 -0.79375,0.27817 z m 36.5125,0.0147 c 0,-0.0572 0.18478,-0.17489 0.41062,-0.26155 0.23546,-0.0904 0.34166,-0.046 0.24897,0.10398 -0.15538,0.25142 -0.65959,0.37187 -0.65959,0.15758 z m -108.47916,-0.27427 c 0,-0.0728 0.23813,-0.25974 0.52917,-0.4155 0.29104,-0.15576 0.52916,-0.22367 0.52916,-0.15091 0,0.0728 -0.23812,0.25974 -0.52916,0.4155 -0.29104,0.15576 -0.52917,0.22367 -0.52917,0.15091 z m 109.53749,-0.26961 c 0,-0.0728 0.35719,-0.317 0.79375,-0.54276 0.43657,-0.22576 0.79375,-0.35093 0.79375,-0.27817 0,0.0728 -0.35718,0.317 -0.79375,0.54275 -0.43656,0.22576 -0.79375,0.35094 -0.79375,0.27818 z m -108.21457,-0.52917 c 0,-0.0728 0.35718,-0.317 0.79375,-0.54276 0.43656,-0.22575 0.79375,-0.35093 0.79375,-0.27817 0,0.0728 -0.35719,0.317 -0.79375,0.54276 -0.43657,0.22575 -0.79375,0.35093 -0.79375,0.27817 z m 72.49582,0.005 c 0,-0.0728 0.23812,-0.25974 0.52917,-0.4155 0.29104,-0.15576 0.52916,-0.22367 0.52916,-0.15091 0,0.0728 -0.23812,0.25974 -0.52916,0.4155 -0.29105,0.15576 -0.52917,0.22367 -0.52917,0.15091 z m 37.57084,-0.5342 c 0,-0.0728 0.35718,-0.317 0.79375,-0.54276 0.43656,-0.22575 0.79375,-0.35093 0.79375,-0.27817 0,0.0728 -0.35719,0.317 -0.79375,0.54276 -0.43657,0.22575 -0.79375,0.35093 -0.79375,0.27817 z m -191.293755,-0.25954 c 0,-0.0728 0.23813,-0.25974 0.52917,-0.4155 0.29104,-0.15576 0.52917,-0.22367 0.52917,-0.15091 0,0.0728 -0.23813,0.25974 -0.52917,0.4155 -0.29104,0.15576 -0.52917,0.22367 -0.52917,0.15091 z m 155.045835,0 c 0,-0.0728 0.23812,-0.25974 0.52916,-0.4155 0.29105,-0.15576 0.52917,-0.22367 0.52917,-0.15091 0,0.0728 -0.23812,0.25974 -0.52917,0.4155 -0.29104,0.15576 -0.52916,0.22367 -0.52916,0.15091 z m 1.32291,-0.79878 c 0,-0.0728 0.35719,-0.317 0.79375,-0.54276 0.43657,-0.22575 0.79375,-0.35093 0.79375,-0.27817 0,0.0728 -0.35718,0.317 -0.79375,0.54275 -0.43656,0.22576 -0.79375,0.35094 -0.79375,0.27818 z m -154.516655,-0.25956 c 0,-0.0728 0.23812,-0.25973 0.52916,-0.41549 0.29105,-0.15576 0.52917,-0.22367 0.52917,-0.15091 0,0.0728 -0.23812,0.25973 -0.52917,0.41549 -0.29104,0.15576 -0.52916,0.22367 -0.52916,0.15091 z m 156.368745,-0.79375 c 0,-0.0728 0.23812,-0.25973 0.52916,-0.41549 0.29104,-0.15576 0.52917,-0.22367 0.52917,-0.15091 0,0.0728 -0.23813,0.25973 -0.52917,0.41549 -0.29104,0.15576 -0.52916,0.22367 -0.52916,0.15091 z m -154.516665,-0.26458 c 0,-0.0728 0.23812,-0.25973 0.52917,-0.41549 0.29104,-0.15576 0.52916,-0.22367 0.52916,-0.15091 0,0.0728 -0.23812,0.25973 -0.52916,0.41549 -0.29105,0.15576 -0.52917,0.22367 -0.52917,0.15091 z m 155.839575,-0.52917 c 0,-0.0728 0.23813,-0.25973 0.52917,-0.41549 0.29104,-0.15576 0.52917,-0.22367 0.52917,-0.15091 0,0.0728 -0.23813,0.25973 -0.52917,0.41549 -0.29104,0.15576 -0.52917,0.22367 -0.52917,0.15091 z m -154.516655,-0.26961 c 0,-0.0728 0.35718,-0.317 0.79375,-0.54276 0.43656,-0.22575 0.79375,-0.35093 0.79375,-0.27817 0,0.0728 -0.35719,0.317 -0.79375,0.54276 -0.43657,0.22575 -0.79375,0.35093 -0.79375,0.27817 z m 191.822915,0.005 c 0,-0.0728 0.23812,-0.25974 0.52916,-0.4155 0.29105,-0.15576 0.52917,-0.22367 0.52917,-0.15091 0,0.0728 -0.23812,0.25974 -0.52917,0.4155 -0.29104,0.15576 -0.52916,0.22367 -0.52916,0.15091 z m -35.45417,-0.79375 c 0,-0.0728 0.23812,-0.25974 0.52916,-0.4155 0.29105,-0.15576 0.52917,-0.22367 0.52917,-0.15091 0,0.0728 -0.23812,0.25974 -0.52917,0.4155 -0.29104,0.15576 -0.52916,0.22367 -0.52916,0.15091 z M 99.118515,-134.1641 c 0,-0.0728 0.35719,-0.317 0.79375,-0.54276 0.436565,-0.22575 0.793755,-0.35093 0.793755,-0.27817 0,0.0728 -0.35719,0.317 -0.793755,0.54275 -0.43656,0.22576 -0.79375,0.35094 -0.79375,0.27818 z m 19.579175,0 c 0,-0.0728 0.35718,-0.317 0.79375,-0.54276 0.43656,-0.22575 0.79375,-0.35093 0.79375,-0.27817 0,0.0728 -0.35719,0.317 -0.79375,0.54275 -0.43657,0.22576 -0.79375,0.35094 -0.79375,0.27818 z m 63.5,-0.25956 c 0,-0.0728 0.23812,-0.25973 0.52916,-0.41549 0.29104,-0.15576 0.52917,-0.22367 0.52917,-0.15091 0,0.0728 -0.23813,0.25973 -0.52917,0.41549 -0.29104,0.15576 -0.52916,0.22367 -0.52916,0.15091 z m 72.7604,-0.26961 c 0,-0.0728 0.35719,-0.317 0.79375,-0.54276 0.43657,-0.22575 0.79375,-0.35093 0.79375,-0.27817 0,0.0728 -0.35718,0.317 -0.79375,0.54276 -0.43656,0.22575 -0.79375,0.35093 -0.79375,0.27817 z m 37.30626,-0.25955 c 0,-0.0728 0.23812,-0.25974 0.52916,-0.4155 0.29105,-0.15576 0.52917,-0.22367 0.52917,-0.15091 0,0.0728 -0.23812,0.25974 -0.52917,0.4155 -0.29104,0.15576 -0.52916,0.22367 -0.52916,0.15091 z m -171.71458,-0.26962 c 0,-0.0728 0.35719,-0.317 0.79375,-0.54275 0.43656,-0.22576 0.79375,-0.35093 0.79375,-0.27817 0,0.0728 -0.35719,0.317 -0.79375,0.54275 -0.43656,0.22576 -0.79375,0.35093 -0.79375,0.27817 z m -19.05,-0.25955 c 0,-0.0728 0.23813,-0.25973 0.52917,-0.41549 0.29104,-0.15576 0.52916,-0.22367 0.52916,-0.15091 0,0.0728 -0.23812,0.25973 -0.52916,0.41549 -0.29104,0.15576 -0.52917,0.22367 -0.52917,0.15091 z m 127.05203,-0.7159 c -0.77175,-0.44985 -1.35257,-0.86851 -1.29071,-0.93037 0.0619,-0.0619 0.73137,0.27226 1.4878,0.74248 1.24686,0.77509 1.45391,0.82621 2.21674,0.54729 0.76312,-0.27902 0.79363,-0.27146 0.32783,0.0813 -0.72994,0.55275 -1.15445,0.48451 -2.74166,-0.44066 z m 65.56463,0.18673 c 0,-0.0728 0.23813,-0.25973 0.52917,-0.41549 0.29104,-0.15576 0.52916,-0.22367 0.52916,-0.15091 0,0.0728 -0.23812,0.25973 -0.52916,0.41549 -0.29104,0.15576 -0.52917,0.22367 -0.52917,0.15091 z m -171.71458,-0.26961 c 0,-0.0728 0.35719,-0.317 0.79375,-0.54276 0.43657,-0.22575 0.79375,-0.35093 0.79375,-0.27817 0,0.0728 -0.35718,0.317 -0.79375,0.54276 -0.43656,0.22575 -0.79375,0.35093 -0.79375,0.27817 z m 109.53749,0 c 0,-0.0728 0.35719,-0.317 0.79375,-0.54276 0.43657,-0.22575 0.79375,-0.35093 0.79375,-0.27817 0,0.0728 -0.35718,0.317 -0.79375,0.54276 -0.43656,0.22575 -0.79375,0.35093 -0.79375,0.27817 z m -128.58749,-0.25955 c 0,-0.0728 0.23813,-0.25974 0.52917,-0.4155 0.29104,-0.15576 0.52917,-0.22367 0.52917,-0.15091 0,0.0728 -0.23813,0.25974 -0.52917,0.4155 -0.29104,0.15576 -0.52917,0.22367 -0.52917,0.15091 z m 154.78124,0 c 0,-0.0728 0.23813,-0.25974 0.52917,-0.4155 0.29104,-0.15576 0.52917,-0.22367 0.52917,-0.15091 0,0.0728 -0.23813,0.25974 -0.52917,0.4155 -0.29104,0.15576 -0.52917,0.22367 -0.52917,0.15091 z m 37.83542,-0.52917 c 0,-0.0728 0.23813,-0.25973 0.52917,-0.41549 0.29104,-0.15576 0.52917,-0.22367 0.52917,-0.15091 0,0.0728 -0.23813,0.25973 -0.52917,0.41549 -0.29104,0.15576 -0.52917,0.22367 -0.52917,0.15091 z m -171.71457,-0.26961 c 0,-0.0728 0.35718,-0.317 0.79375,-0.54276 0.43656,-0.22575 0.79375,-0.35093 0.79375,-0.27817 0,0.0728 -0.35719,0.317 -0.79375,0.54275 -0.43657,0.22576 -0.79375,0.35094 -0.79375,0.27818 z m 101.66613,-0.40757 c -0.82597,-0.5036 -1.08114,-0.80726 -0.66146,-0.78713 0.22207,0.0107 1.86164,1.31058 1.65365,1.3111 -0.0728,1.8e-4 -0.51924,-0.23561 -0.99219,-0.52397 z m 7.87136,0.40757 c 0,-0.0728 0.35718,-0.317 0.79375,-0.54276 0.43656,-0.22575 0.79375,-0.35093 0.79375,-0.27817 0,0.0728 -0.35719,0.317 -0.79375,0.54275 -0.43657,0.22576 -0.79375,0.35094 -0.79375,0.27818 z m 25.66458,0 c 0,-0.0728 0.35719,-0.317 0.79375,-0.54276 0.43656,-0.22575 0.79375,-0.35093 0.79375,-0.27817 0,0.0728 -0.35719,0.317 -0.79375,0.54275 -0.43656,0.22576 -0.79375,0.35094 -0.79375,0.27818 z m -154.25207,-0.25956 c 0,-0.0728 0.23812,-0.25973 0.52916,-0.41549 0.29105,-0.15576 0.52917,-0.22367 0.52917,-0.15091 0,0.0728 -0.23812,0.25973 -0.52917,0.41549 -0.29104,0.15576 -0.52916,0.22367 -0.52916,0.15091 z m 20.90208,-0.79375 c 0,-0.0728 0.23813,-0.25973 0.52917,-0.41549 0.29104,-0.15576 0.52916,-0.22367 0.52916,-0.15091 0,0.0728 -0.23812,0.25973 -0.52916,0.41549 -0.29104,0.15576 -0.52917,0.22367 -0.52917,0.15091 z m 73.93547,-0.2978 c -0.49319,-0.39512 -0.48995,-0.40001 0.0817,-0.12298 0.32742,0.15867 0.59531,0.34383 0.59531,0.41147 0,0.20247 -0.13722,0.144 -0.67703,-0.28849 z m 35.73431,0.22561 c 0.14552,-0.15012 0.8599,-0.60603 1.5875,-1.01312 0.72761,-0.4071 1.20386,-0.61735 1.05833,-0.46723 -0.14552,0.15012 -0.85989,0.60603 -1.58749,1.01312 -0.72761,0.4071 -1.20386,0.61735 -1.05834,0.46723 z m 25.53229,0.0722 c 0,-0.0728 0.23813,-0.25973 0.52917,-0.41549 0.29104,-0.15576 0.52917,-0.22367 0.52917,-0.15091 0,0.0728 -0.23813,0.25973 -0.52917,0.41549 -0.29104,0.15576 -0.52917,0.22367 -0.52917,0.15091 z m -154.25207,-0.26458 c 0,-0.0728 0.23812,-0.25973 0.52917,-0.41549 0.29104,-0.15576 0.52916,-0.22367 0.52916,-0.15091 0,0.0728 -0.23812,0.25973 -0.52916,0.41549 -0.29105,0.15576 -0.52917,0.22367 -0.52917,0.15091 z m 79.1718,-0.94466 c 0,-0.50932 0.0545,-0.71768 0.121,-0.46302 0.0666,0.25466 0.0666,0.67138 0,0.92604 -0.0665,0.25466 -0.121,0.0463 -0.121,-0.46302 z m 112.91569,0.68008 c 0,-0.0728 0.23813,-0.25974 0.52917,-0.4155 0.29104,-0.15576 0.52917,-0.22367 0.52917,-0.15091 0,0.0728 -0.23813,0.25974 -0.52917,0.4155 -0.29104,0.15576 -0.52917,0.22367 -0.52917,0.15091 z m -100.42494,-0.56239 c -0.49319,-0.39512 -0.48995,-0.40001 0.0817,-0.12298 0.32742,0.15867 0.59531,0.34383 0.59531,0.41147 0,0.20247 -0.13721,0.144 -0.67703,-0.28849 z m 63.91244,0.2978 c 0,-0.0728 0.23813,-0.25973 0.52917,-0.41549 0.29104,-0.15576 0.52916,-0.22367 0.52916,-0.15091 0,0.0728 -0.23812,0.25973 -0.52916,0.41549 -0.29104,0.15576 -0.52917,0.22367 -0.52917,0.15091 z m -134.67291,-0.26458 c 0,-0.0728 0.23813,-0.25973 0.52917,-0.41549 0.29104,-0.15576 0.52917,-0.22367 0.52917,-0.15091 0,0.0728 -0.23813,0.25973 -0.52917,0.41549 -0.29104,0.15576 -0.52917,0.22367 -0.52917,0.15091 z m 135.99583,-0.5342 c 0,-0.0728 0.35718,-0.317 0.79375,-0.54275 0.43656,-0.22576 0.79375,-0.35093 0.79375,-0.27817 0,0.0728 -0.35719,0.317 -0.79375,0.54275 -0.43657,0.22576 -0.79375,0.35093 -0.79375,0.27817 z m 37.23569,-0.17871 c 0.17948,-0.18082 0.39297,-0.26211 0.47444,-0.18065 0.0815,0.0815 -0.0654,0.22941 -0.32632,0.32876 -0.37709,0.14359 -0.40748,0.1132 -0.14812,-0.14811 z m -62.37111,-0.0859 c 0,-0.0728 0.35719,-0.317 0.79375,-0.54276 0.43656,-0.22575 0.79375,-0.35093 0.79375,-0.27817 0,0.0728 -0.35719,0.317 -0.79375,0.54276 -0.43656,0.22575 -0.79375,0.35093 -0.79375,0.27817 z m -128.58749,-0.25955 c 0,-0.0728 0.23813,-0.25974 0.52917,-0.4155 0.29104,-0.15576 0.52916,-0.22367 0.52916,-0.15091 0,0.0728 -0.23812,0.25974 -0.52916,0.4155 -0.29104,0.15576 -0.52917,0.22367 -0.52917,0.15091 z m 19.57917,0 c 0,-0.0728 0.23812,-0.25974 0.52916,-0.4155 0.29105,-0.15576 0.52917,-0.22367 0.52917,-0.15091 0,0.0728 -0.23812,0.25974 -0.52917,0.4155 -0.29104,0.15576 -0.52916,0.22367 -0.52916,0.15091 z m 65.73338,-0.82697 c -0.49319,-0.39512 -0.48995,-0.40001 0.0817,-0.12298 0.32742,0.15867 0.59531,0.34383 0.59531,0.41147 0,0.20246 -0.13721,0.144 -0.67703,-0.28849 z m 70.26244,0.2978 c 0,-0.0728 0.23812,-0.25973 0.52917,-0.41549 0.29104,-0.15576 0.52916,-0.22367 0.52916,-0.15091 0,0.0728 -0.23812,0.25973 -0.52916,0.41549 -0.29105,0.15576 -0.52917,0.22367 -0.52917,0.15091 z m -154.25207,-0.26458 c 0,-0.0728 0.23812,-0.25974 0.52916,-0.4155 0.29104,-0.15576 0.52917,-0.22367 0.52917,-0.15091 0,0.0728 -0.23813,0.25974 -0.52917,0.4155 -0.29104,0.15576 -0.52916,0.22367 -0.52916,0.15091 z m 129.11665,0.0202 c 0,-0.10001 1.50224,-1.00044 4.56407,-2.73567 0.10914,-0.0618 0.19843,-0.0563 0.19843,0.0123 0,0.1 -1.50224,1.00043 -4.56406,2.73566 -0.10914,0.0619 -0.19844,0.0563 -0.19844,-0.0123 z m -109.00832,-0.28474 c 0,-0.0728 0.23813,-0.25973 0.52917,-0.41549 0.29104,-0.15576 0.52916,-0.22367 0.52916,-0.15091 0,0.0728 -0.23812,0.25973 -0.52916,0.41549 -0.29104,0.15576 -0.52917,0.22367 -0.52917,0.15091 z m 135.46666,-0.26961 c 0,-0.0728 0.35718,-0.317 0.79375,-0.54276 0.43656,-0.22575 0.79375,-0.35093 0.79375,-0.27817 0,0.0728 -0.35719,0.317 -0.79375,0.54276 -0.43657,0.22575 -0.79375,0.35093 -0.79375,0.27817 z m -153.72291,-0.52414 c 0,-0.0728 0.23813,-0.25973 0.52917,-0.41549 0.29104,-0.15576 0.52916,-0.22367 0.52916,-0.15091 0,0.0728 -0.23812,0.25973 -0.52916,0.41549 -0.29104,0.15576 -0.52917,0.22367 -0.52917,0.15091 z m 19.57917,-0.005 c 0,-0.0728 0.35718,-0.317 0.79375,-0.54275 0.43656,-0.22576 0.79375,-0.35093 0.79375,-0.27817 0,0.0728 -0.35719,0.317 -0.79375,0.54275 -0.43657,0.22576 -0.79375,0.35093 -0.79375,0.27817 z m 135.99582,-0.52413 c 0,-0.0728 0.23812,-0.25974 0.52917,-0.4155 0.29104,-0.15576 0.52916,-0.22367 0.52916,-0.15091 0,0.0728 -0.23812,0.25974 -0.52916,0.4155 -0.29105,0.15576 -0.52917,0.22367 -0.52917,0.15091 z m 1.32292,-0.79878 c 0,-0.0728 0.35718,-0.317 0.79375,-0.54276 0.43656,-0.22575 0.79375,-0.35093 0.79375,-0.27817 0,0.0728 -0.35719,0.317 -0.79375,0.54276 -0.43657,0.22575 -0.79375,0.35093 -0.79375,0.27817 z m -153.72291,-0.52917 c 0,-0.0728 0.35719,-0.317 0.79375,-0.54275 0.43656,-0.22576 0.79375,-0.35094 0.79375,-0.27818 0,0.0728 -0.35719,0.317 -0.79375,0.54276 -0.43656,0.22575 -0.79375,0.35093 -0.79375,0.27817 z m 129.11666,0 c 0,-0.0728 0.35718,-0.317 0.79375,-0.54275 0.43656,-0.22576 0.79375,-0.35094 0.79375,-0.27818 0,0.0728 -0.35719,0.317 -0.79375,0.54276 -0.43657,0.22575 -0.79375,0.35093 -0.79375,0.27817 z m -25.61697,-1.89217 c -1.76018,-1.05621 -2.42275,-1.59217 -2.3151,-1.87271 0.0829,-0.21617 0.16649,-0.59165 0.18565,-0.83441 0.0191,-0.24276 0.10845,-0.0299 0.19843,0.47292 0.14443,0.80709 0.42123,1.06784 2.36059,2.22358 l 2.19698,1.30926 1.04417,-0.58685 c 0.57429,-0.32278 1.04416,-0.53148 1.04416,-0.46378 0,0.15214 -1.81303,1.23407 -2.06564,1.23268 -0.10082,-5.3e-4 -1.29298,-0.66688 -2.64924,-1.4807 z m 52.0753,1.36802 c 0,-0.0728 0.23812,-0.25973 0.52917,-0.41549 0.29104,-0.15576 0.52916,-0.22367 0.52916,-0.15091 0,0.0728 -0.23812,0.25973 -0.52916,0.41549 -0.29105,0.15576 -0.52917,0.22367 -0.52917,0.15091 z m -153.72291,-0.53419 c 0,-0.0728 0.35719,-0.317 0.79375,-0.54276 0.43657,-0.22575 0.79375,-0.35093 0.79375,-0.27817 0,0.0728 -0.35718,0.317 -0.79375,0.54275 -0.43656,0.22576 -0.79375,0.35094 -0.79375,0.27818 z m 129.11666,0 c 0,-0.0728 0.35719,-0.317 0.79375,-0.54276 0.43656,-0.22575 0.79375,-0.35093 0.79375,-0.27817 0,0.0728 -0.35719,0.317 -0.79375,0.54275 -0.43656,0.22576 -0.79375,0.35094 -0.79375,0.27818 z m 25.92917,-0.25956 c 0,-0.0728 0.23812,-0.25973 0.52916,-0.41549 0.29105,-0.15576 0.52917,-0.22367 0.52917,-0.15091 0,0.0728 -0.23812,0.25973 -0.52917,0.41549 -0.29104,0.15576 -0.52916,0.22367 -0.52916,0.15091 z m -48.41875,-0.50901 c 0,-0.10001 1.50224,-1.00044 4.56406,-2.73567 0.10914,-0.0618 0.19844,-0.0563 0.19844,0.0123 0,0.10001 -1.50224,1.00044 -4.56407,2.73567 -0.10914,0.0618 -0.19843,0.0563 -0.19843,-0.0123 z m -104.77499,-0.28977 c 0,-0.0728 0.35718,-0.317 0.79375,-0.54275 0.43656,-0.22576 0.79375,-0.35093 0.79375,-0.27817 0,0.0728 -0.35719,0.317 -0.79375,0.54275 -0.43657,0.22576 -0.79375,0.35093 -0.79375,0.27817 z m 129.24894,-0.0672 c 0.14553,-0.15012 0.8599,-0.60603 1.5875,-1.01312 0.72761,-0.4071 1.20386,-0.61735 1.05834,-0.46723 -0.14552,0.15012 -0.8599,0.60603 -1.5875,1.01312 -0.72761,0.4071 -1.20386,0.61735 -1.05834,0.46723 z m 25.26771,0.0672 c 0,-0.0728 0.35719,-0.317 0.79375,-0.54275 0.43657,-0.22576 0.79375,-0.35093 0.79375,-0.27817 0,0.0728 -0.35718,0.317 -0.79375,0.54275 -0.43656,0.22576 -0.79375,0.35093 -0.79375,0.27817 z m 1.85209,-1.0533 c 0,-0.0728 0.23812,-0.25973 0.52916,-0.41549 0.29105,-0.15576 0.52917,-0.22367 0.52917,-0.15091 0,0.0728 -0.23812,0.25973 -0.52917,0.41549 -0.29104,0.15576 -0.52916,0.22367 -0.52916,0.15091 z m 23.92922,-0.56238 c -0.49319,-0.39513 -0.48995,-0.40001 0.0817,-0.12298 0.32742,0.15867 0.59531,0.34383 0.59531,0.41147 0,0.20246 -0.13722,0.14399 -0.67704,-0.28849 z m -48.00631,-0.2364 c 0,-0.0728 0.35719,-0.317 0.79375,-0.54275 0.43657,-0.22576 0.79375,-0.35094 0.79375,-0.27818 0,0.0728 -0.35718,0.317 -0.79375,0.54276 -0.43656,0.22575 -0.79375,0.35093 -0.79375,0.27817 z m 25.40001,0 c 0,-0.0728 0.36561,-0.32136 0.81247,-0.55244 0.70937,-0.36683 0.76813,-0.47681 0.46302,-0.86669 -0.31341,-0.40049 -0.302,-0.40934 0.11066,-0.0858 0.25305,0.19839 0.39433,0.46712 0.31395,0.59719 -0.17488,0.28295 -1.7001,1.09735 -1.7001,0.90777 z m -153.9875,-0.26458 c 0,-0.0728 0.35719,-0.317 0.79375,-0.54276 0.43657,-0.22575 0.79375,-0.35093 0.79375,-0.27817 0,0.0728 -0.35718,0.317 -0.79375,0.54276 -0.43656,0.22575 -0.79375,0.35093 -0.79375,0.27817 z m 106.09791,-0.52917 c 0,-0.0728 0.35719,-0.317 0.79375,-0.54275 0.43656,-0.22576 0.79375,-0.35094 0.79375,-0.27818 0,0.0728 -0.35719,0.317 -0.79375,0.54276 -0.43656,0.22575 -0.79375,0.35093 -0.79375,0.27817 z m -20.70635,-0.41046 c -0.11063,-0.21828 -0.17016,-6.28986 -0.13229,-13.4924 l 0.0689,-13.09551 15.61041,-9.02097 c 8.58572,-4.96153 15.75661,-8.96877 15.9353,-8.90498 0.17868,0.0638 -2.50566,1.74137 -5.9652,3.72794 -3.45955,1.98658 -10.53611,6.05274 -15.72569,9.03592 l -9.43561,5.42396 -0.0773,13.36145 c -0.0425,7.34881 -0.16784,13.18287 -0.27847,12.96459 z m 45.04802,0.17175 c 0,-0.0613 0.84198,-0.61166 1.87107,-1.22303 1.70624,-1.01366 1.82864,-1.1426 1.38947,-1.46373 -0.26487,-0.19368 -0.42224,-0.40605 -0.34971,-0.47194 0.0725,-0.0659 0.35361,0.0959 0.62462,0.35952 0.47865,0.46559 0.45217,0.5051 -0.92604,1.38139 -1.67299,1.0637 -2.60941,1.5725 -2.60941,1.41779 z m -128.58749,-0.29046 c 0,-0.0728 0.35718,-0.317 0.79375,-0.54275 0.43656,-0.22576 0.79375,-0.35093 0.79375,-0.27817 0,0.0728 -0.35719,0.317 -0.79375,0.54275 -0.43657,0.22576 -0.79375,0.35093 -0.79375,0.27817 z m 106.0979,-0.52916 c 0,-0.0728 0.35719,-0.317 0.79375,-0.54276 0.43657,-0.22575 0.79375,-0.35093 0.79375,-0.27817 0,0.0728 -0.35718,0.317 -0.79375,0.54276 -0.43656,0.22575 -0.79375,0.35093 -0.79375,0.27817 z m 45.97136,-0.29722 c -0.98913,-0.53661 -0.92892,-0.76011 0.0661,-0.24554 0.43656,0.22576 0.79375,0.46694 0.79375,0.53596 0,0.17026 -0.0284,0.16066 -0.85989,-0.29042 z m 17.4625,-0.52916 c -0.98913,-0.53662 -0.92892,-0.76011 0.0661,-0.24554 0.43656,0.22575 0.79375,0.46693 0.79375,0.53596 0,0.17026 -0.0284,0.16065 -0.85989,-0.29042 z m -61.58177,-0.23196 c 0,-0.0728 0.35718,-0.317 0.79375,-0.54275 0.43656,-0.22576 0.79375,-0.35093 0.79375,-0.27817 0,0.0728 -0.35719,0.317 -0.79375,0.54275 -0.43657,0.22576 -0.79375,0.35093 -0.79375,0.27817 z m 42.26718,-0.29721 c -0.98912,-0.53661 -0.92892,-0.76011 0.0661,-0.24554 0.43656,0.22575 0.79375,0.46694 0.79375,0.53596 0,0.17026 -0.0284,0.16066 -0.8599,-0.29042 z m 17.46251,-0.52917 c -0.98913,-0.53661 -0.92892,-0.76011 0.0661,-0.24554 0.43656,0.22576 0.79375,0.46694 0.79375,0.53596 0,0.17026 -0.0284,0.16066 -0.8599,-0.29042 z m -82.21927,-0.23557 c 0,-0.20242 0.15074,-0.40654 0.33498,-0.45359 0.18424,-0.047 1.79395,-0.91898 3.57712,-1.93763 l 3.24215,-1.85208 -0.0714,-2.71254 c -0.0545,-2.06906 0.009,-2.7124 0.26828,-2.71198 0.26001,5.3e-4 0.32207,0.6647 0.26459,2.83217 l -0.0751,2.83161 -3.77031,2.18604 c -2.34882,1.36186 -3.77031,2.04728 -3.77031,1.818 z m 24.47395,-0.0635 c 0.14552,-0.15013 0.8599,-0.60603 1.5875,-1.01313 0.72761,-0.4071 1.20386,-0.61735 1.05833,-0.46723 -0.14552,0.15013 -0.85989,0.60604 -1.58749,1.01313 -0.72761,0.4071 -1.20386,0.61735 -1.05834,0.46723 z m 38.61359,-0.22561 c -0.49319,-0.39512 -0.48994,-0.40001 0.0817,-0.12298 0.32743,0.15867 0.59532,0.34383 0.59532,0.41147 0,0.20246 -0.13722,0.144 -0.67704,-0.28849 z m 17.46251,-0.52917 c -0.49319,-0.39512 -0.48995,-0.40001 0.0817,-0.12298 0.32742,0.15867 0.59531,0.34383 0.59531,0.41147 0,0.20247 -0.13722,0.144 -0.67704,-0.28849 z m -34.87675,-0.52479 c -0.25531,-0.66535 -0.17999,-0.83703 0.13191,-0.30066 0.15443,0.26558 0.22505,0.5386 0.15693,0.60672 -0.0681,0.0681 -0.1981,-0.0696 -0.28884,-0.30606 z m 15.56216,-0.004 c -0.49319,-0.39513 -0.48995,-0.40001 0.0817,-0.12298 0.32742,0.15867 0.59531,0.34383 0.59531,0.41147 0,0.20246 -0.13721,0.144 -0.67703,-0.28849 z m 17.99167,-0.26458 c -0.49319,-0.39513 -0.48995,-0.40001 0.0817,-0.12298 0.32742,0.15866 0.59531,0.34383 0.59531,0.41147 0,0.20246 -0.13721,0.14399 -0.67703,-0.28849 z m -51.71047,-0.21122 c 0,-0.10001 1.50224,-1.00044 4.56406,-2.73567 0.10914,-0.0618 0.19844,-0.0563 0.19844,0.0123 0,0.10001 -1.50224,1.00044 -4.56406,2.73567 -0.10914,0.0618 -0.19844,0.0563 -0.19844,-0.0123 z m 32.21302,-0.3224 c -0.98913,-0.53661 -0.92892,-0.76011 0.0661,-0.24554 0.43656,0.22576 0.79375,0.46694 0.79375,0.53596 0,0.17026 -0.0284,0.16066 -0.8599,-0.29042 z m -14.90795,-0.67978 c -0.27722,-0.31159 -0.98028,-0.78523 -1.56236,-1.05252 -0.58209,-0.2673 -0.90359,-0.48861 -0.71447,-0.4918 0.55019,-0.009 1.71934,0.68043 2.41423,1.42426 0.35279,0.37762 0.57961,0.68659 0.50403,0.68659 -0.0756,0 -0.36422,-0.25494 -0.64143,-0.56653 z m 32.55332,0.15506 c -0.49319,-0.39512 -0.48995,-0.40001 0.0817,-0.12298 0.32742,0.15867 0.59531,0.34383 0.59531,0.41147 0,0.20246 -0.13722,0.144 -0.67704,-0.28849 z m -19.31459,-0.52917 c -0.49319,-0.39512 -0.48995,-0.40001 0.0817,-0.12298 0.32742,0.15867 0.59531,0.34383 0.59531,0.41147 0,0.20247 -0.13721,0.144 -0.67703,-0.28849 z m 17.4625,-0.52916 c -0.49319,-0.39513 -0.48994,-0.40001 0.0817,-0.12298 0.32742,0.15867 0.59531,0.34383 0.59531,0.41147 0,0.20246 -0.13721,0.14399 -0.67703,-0.28849 z m -19.31458,-0.52917 c -0.49319,-0.39512 -0.48995,-0.40001 0.0817,-0.12298 0.32742,0.15867 0.59531,0.34383 0.59531,0.41147 0,0.20246 -0.13722,0.144 -0.67703,-0.28849 z m -23.66464,-0.50098 c 0,-0.0728 0.35719,-0.317 0.79375,-0.54275 0.43657,-0.22576 0.79375,-0.35094 0.79375,-0.27818 0,0.0728 -0.35718,0.317 -0.79375,0.54276 -0.43656,0.22575 -0.79375,0.35093 -0.79375,0.27817 z m 22.15886,-0.29721 c -0.98913,-0.53662 -0.92892,-0.76011 0.0661,-0.24554 0.43657,0.22575 0.79375,0.46693 0.79375,0.53596 0,0.17026 -0.0284,0.16065 -0.85989,-0.29042 z m -45.91956,-2.82523 0.0518,-2.97656 0.14664,2.71525 0.14665,2.71525 4.97092,-2.84754 4.97092,-2.84755 -0.0761,-2.7126 c -0.0484,-1.72414 0.0203,-2.68023 0.18845,-2.62378 0.15375,0.0516 0.26459,1.24226 0.26459,2.84237 v 2.75355 l -5.15938,2.97777 c -2.83765,1.63778 -5.24867,2.97837 -5.35781,2.97909 -0.10914,7.9e-4 -0.17513,-1.33814 -0.14664,-2.97525 z m 63.03576,2.03592 c -0.49319,-0.39512 -0.48995,-0.40001 0.0817,-0.12298 0.32742,0.15867 0.59531,0.34383 0.59531,0.41147 0,0.20246 -0.13722,0.144 -0.67704,-0.28849 z m -37.42297,0.0282 c 0,-0.0728 0.35718,-0.317 0.79375,-0.54276 0.43656,-0.22575 0.79375,-0.35093 0.79375,-0.27817 0,0.0728 -0.35719,0.317 -0.79375,0.54276 -0.43657,0.22575 -0.79375,0.35093 -0.79375,0.27817 z m 18.45468,-0.29722 c -0.98912,-0.53661 -0.92892,-0.76011 0.0661,-0.24554 0.43656,0.22576 0.79375,0.46694 0.79375,0.53596 0,0.17026 -0.0284,0.16066 -0.8599,-0.29042 z m -52.84171,-0.84085 c 0.005,-0.10914 1.58241,-1.09141 3.50572,-2.18281 l 3.49693,-1.98438 v -4.29678 c 0,-3.23579 0.0832,-4.32865 0.33695,-4.42585 0.26649,-0.10208 0.32182,0.81825 0.26459,4.40074 l -0.0724,4.52982 -3.57188,2.07527 c -3.54666,2.06064 -3.97684,2.2653 -3.95994,1.88399 z m 36.23911,0.0797 c 0,-0.0728 0.35719,-0.317 0.79375,-0.54275 0.43656,-0.22576 0.79375,-0.35093 0.79375,-0.27817 0,0.0728 -0.35719,0.317 -0.79375,0.54275 -0.43656,0.22576 -0.79375,0.35093 -0.79375,0.27817 z m 14.93338,-0.29276 c -0.49319,-0.39513 -0.48994,-0.40002 0.0817,-0.12299 0.32743,0.15867 0.59532,0.34383 0.59532,0.41147 0,0.20247 -0.13722,0.144 -0.67704,-0.28848 z m 16.93334,-0.79375 c -0.49319,-0.39513 -0.48995,-0.40002 0.0817,-0.12299 0.32742,0.15867 0.59531,0.34383 0.59531,0.41147 0,0.20247 -0.13721,0.144 -0.67703,-0.28848 z m -18.78542,-0.26459 c -0.49319,-0.39512 -0.48995,-0.40001 0.0817,-0.12298 0.32742,0.15867 0.59531,0.34383 0.59531,0.41147 0,0.20246 -0.13721,0.144 -0.67703,-0.28849 z m -10.3449,-0.28615 c 0.0925,-0.16541 -0.009,-0.44788 -0.22577,-0.62771 -0.24034,-0.19946 -0.39396,-0.78374 -0.39396,-1.49833 0,-1.8851 -1.01725,-3.42689 -2.77813,-4.21066 -0.43656,-0.19431 -0.61303,-0.35796 -0.39215,-0.36365 0.73188,-0.0189 2.36685,1.31468 2.90491,2.36936 0.2973,0.58274 0.52995,1.56034 0.52995,2.2268 0,0.85553 0.12958,1.26113 0.46302,1.44927 0.39456,0.22263 0.40838,0.31259 0.0935,0.60846 -0.20325,0.19096 -0.29386,0.21187 -0.20135,0.0465 z m 27.8074,-0.24301 c -0.49319,-0.39513 -0.48994,-0.40002 0.0817,-0.12299 0.32742,0.15867 0.59531,0.34383 0.59531,0.41147 0,0.20247 -0.13721,0.144 -0.67703,-0.28848 z m -18.78542,-0.26459 c -0.49319,-0.39512 -0.48994,-0.40001 0.0817,-0.12298 0.32743,0.15867 0.59532,0.34383 0.59532,0.41147 0,0.20246 -0.13722,0.144 -0.67704,-0.28849 z m -1.85208,-1.05833 c -0.49319,-0.39513 -0.48995,-0.40001 0.0817,-0.12298 0.32742,0.15867 0.59531,0.34383 0.59531,0.41147 0,0.20246 -0.13721,0.14399 -0.67703,-0.28849 z m 17.4625,-0.52917 c -0.49319,-0.39512 -0.48995,-0.40001 0.0817,-0.12298 0.32742,0.15867 0.59531,0.34383 0.59531,0.41147 0,0.20246 -0.13721,0.144 -0.67703,-0.28849 z m -94.57296,0.0332 c 0,-0.0728 0.23813,-0.25974 0.52917,-0.4155 0.29104,-0.15576 0.52917,-0.22367 0.52917,-0.15091 0,0.0728 -0.23813,0.25974 -0.52917,0.4155 -0.29104,0.15576 -0.52917,0.22367 -0.52917,0.15091 z m 75.60468,-0.30225 c -0.98913,-0.53661 -0.92892,-0.76011 0.0662,-0.24554 0.43656,0.22576 0.79375,0.46694 0.79375,0.53596 0,0.17026 -0.0284,0.16066 -0.8599,-0.29042 z m 17.4625,-0.52916 c -0.98913,-0.53662 -0.92892,-0.76011 0.0661,-0.24554 0.43656,0.22575 0.79375,0.46693 0.79375,0.53596 0,0.17026 -0.0284,0.16065 -0.8599,-0.29042 z m -19.31458,-0.52917 c -0.98913,-0.53661 -0.92892,-0.76011 0.0661,-0.24554 0.43657,0.22575 0.79375,0.46694 0.79375,0.53596 0,0.17026 -0.0284,0.16066 -0.85989,-0.29042 z m -33.88865,-0.025 c -0.24431,-0.24431 -0.22331,-8.75921 0.022,-8.91141 0.10914,-0.0677 0.16307,1.8362 0.11983,4.23095 l -0.0786,4.35409 0.74006,-0.40208 c 0.40704,-0.22114 2.64507,-1.50751 4.9734,-2.85859 l 4.23333,-2.45651 v -4.29859 c 0,-2.36423 0.0893,-4.29851 0.19844,-4.29841 0.10914,1.1e-4 0.19844,2.00257 0.19844,4.4499 v 4.44971 l -4.16719,2.39904 c -2.29195,1.31948 -4.5938,2.65089 -5.11521,2.9587 -0.5214,0.30782 -1.02742,0.48026 -1.12447,0.3832 z m 11.73922,-0.0221 c 0.005,-0.10914 1.61857,-1.0914 3.58529,-2.18281 l 3.57587,-1.98437 -0.0796,-2.71254 c -0.0608,-2.0733 5.3e-4,-2.71241 0.26012,-2.71198 0.26003,5.3e-4 0.32207,0.66518 0.26459,2.83475 l -0.0751,2.83419 -3.56701,2.0606 c -3.52296,2.03516 -3.98267,2.2511 -3.96419,1.86216 z m -103.60785,-8.53282 c 0,-4.72942 0.0359,-6.66419 0.0797,-4.29947 0.0438,2.36471 0.0438,6.23424 0,8.59895 -0.0438,2.36472 -0.0797,0.42995 -0.0797,-4.29948 z m 142.87347,7.79062 c -0.49319,-0.39513 -0.48994,-0.40002 0.0817,-0.12299 0.32743,0.15867 0.59532,0.34383 0.59532,0.41147 0,0.20247 -0.13722,0.144 -0.67704,-0.28848 z m -18.96828,-0.26903 c -0.98912,-0.53662 -0.92892,-0.76011 0.0661,-0.24554 0.43656,0.22575 0.79375,0.46693 0.79375,0.53596 0,0.17026 -0.0284,0.16065 -0.8599,-0.29042 z m -66.87342,-0.49151 c 0,-0.0728 0.23812,-0.25973 0.52916,-0.41549 0.29105,-0.15576 0.52917,-0.22367 0.52917,-0.15091 0,0.0728 -0.23812,0.25973 -0.52917,0.41549 -0.29104,0.15576 -0.52916,0.22367 -0.52916,0.15091 z m 65.2042,-0.56238 c -0.49319,-0.39513 -0.48994,-0.40001 0.0817,-0.12298 0.32743,0.15867 0.59532,0.34383 0.59532,0.41147 0,0.20246 -0.13722,0.14399 -0.67704,-0.28849 z m 16.13959,-1.32292 c -0.49319,-0.39512 -0.48995,-0.40001 0.0817,-0.12298 0.32742,0.15867 0.59531,0.34383 0.59531,0.41147 0,0.20246 -0.13722,0.144 -0.67703,-0.28849 z m -21.0188,-0.64686 c 0,-0.43656 0.0984,-0.79375 0.21876,-0.79375 0.12031,0 0.16633,0.35719 0.10226,0.79375 -0.0641,0.43656 -0.16252,0.79375 -0.21876,0.79375 -0.0562,0 -0.10226,-0.35719 -0.10226,-0.79375 z m 1.70421,0.1177 c -0.49319,-0.39513 -0.48994,-0.40001 0.0817,-0.12299 0.32743,0.15867 0.59532,0.34383 0.59532,0.41147 0,0.20247 -0.13722,0.144 -0.67704,-0.28848 z m 17.80881,-0.26903 c -0.98913,-0.53661 -0.92892,-0.76011 0.0661,-0.24554 0.43657,0.22575 0.79375,0.46693 0.79375,0.53596 0,0.17026 -0.0284,0.16065 -0.85989,-0.29042 z m -53.90378,-0.84086 c 0.003,-0.10914 1.58036,-1.10723 3.50572,-2.21797 l 3.50066,-2.01955 0.0767,-2.45626 c 0.0503,-1.61066 -0.0257,-2.51956 -0.22081,-2.64011 -0.18493,-0.11429 -0.0888,-0.2384 0.25408,-0.32807 0.53385,-0.1396 0.55153,-0.0526 0.55153,2.71407 v 2.85829 l -3.70501,2.14402 c -3.80677,2.20291 -3.97146,2.28377 -3.96283,1.94558 z m 51.70539,-0.47761 c -0.49319,-0.39513 -0.48995,-0.40001 0.0817,-0.12299 0.32742,0.15867 0.59531,0.34383 0.59531,0.41147 0,0.20247 -0.13721,0.144 -0.67703,-0.28848 z m -1.50578,-0.7982 c -0.98913,-0.53661 -0.92892,-0.76011 0.0661,-0.24554 0.43656,0.22575 0.79375,0.46694 0.79375,0.53596 0,0.17026 -0.0284,0.16066 -0.8599,-0.29042 z m -29.55774,-0.57627 c 0.005,-0.10914 1.58278,-1.09563 3.50573,-2.1922 l 3.49628,-1.99377 v -4.28739 c 0,-3.22818 0.0833,-4.31928 0.33695,-4.41646 0.26647,-0.10208 0.32182,0.81643 0.26459,4.39116 l -0.0724,4.52023 -3.57188,2.08482 c -3.54419,2.06866 -3.9775,2.2759 -3.9593,1.89361 z m 27.70566,-0.48206 c -0.98913,-0.53661 -0.92892,-0.76011 0.0661,-0.24554 0.43657,0.22575 0.79375,0.46693 0.79375,0.53596 0,0.17026 -0.0284,0.16065 -0.85989,-0.29042 z m -60.25885,-1.02571 c 0,-0.0728 0.35719,-0.31699 0.79375,-0.54275 0.43657,-0.22576 0.79375,-0.35093 0.79375,-0.27817 0,0.0728 -0.35718,0.317 -0.79375,0.54275 -0.43656,0.22576 -0.79375,0.35094 -0.79375,0.27817 z m 58.06046,-0.29276 c -0.49319,-0.39513 -0.48995,-0.40001 0.0817,-0.12299 0.32742,0.15867 0.59531,0.34383 0.59531,0.41147 0,0.20247 -0.13721,0.144 -0.67703,-0.28848 z m -1.32292,-0.79375 c -0.49319,-0.39513 -0.48994,-0.40001 0.0817,-0.12299 0.32743,0.15867 0.59532,0.34383 0.59532,0.41147 0,0.20247 -0.13722,0.144 -0.67704,-0.28848 z m -54.88545,0.0659 c 0,-0.0617 0.98226,-0.67971 2.18281,-1.37334 1.20055,-0.69362 2.68883,-1.55444 3.30729,-1.91293 0.61846,-0.35849 1.12448,-0.59282 1.12448,-0.52074 0,0.0721 -1.39898,0.93595 -3.10885,1.9197 -3.73471,2.14872 -3.50573,2.02545 -3.50573,1.88731 z m 18.804,-1.15376 c 0.0131,-0.52867 0.0716,-0.62026 0.19844,-0.31071 0.15049,0.36731 0.97873,-0.028 5.07463,-2.42203 l 4.89479,-2.86097 v -2.67155 c 0,-1.46935 0.0893,-2.67139 0.19844,-2.6712 0.10914,2e-4 0.19652,1.28027 0.19417,2.84462 l -0.004,2.84427 -5.04203,2.91042 c -2.77311,1.60073 -5.15245,2.9501 -5.2874,2.99861 -0.13496,0.0485 -0.23701,-0.24915 -0.22678,-0.66146 z m -11.92484,-2.85273 c 0,-0.0728 0.35719,-0.317 0.79375,-0.54275 0.43657,-0.22576 0.79375,-0.35094 0.79375,-0.27818 0,0.0728 -0.35718,0.317 -0.79375,0.54276 -0.43656,0.22576 -0.79375,0.35093 -0.79375,0.27817 z m 39.80421,-0.82193 c -0.49319,-0.39513 -0.48995,-0.40001 0.0817,-0.12299 0.32742,0.15867 0.59531,0.34383 0.59531,0.41147 0,0.20247 -0.13721,0.144 -0.67703,-0.28848 z m -37.95212,-0.21122 c 0,-0.10001 1.50224,-1.00044 4.56405,-2.73567 0.10914,-0.0618 0.19844,-0.0563 0.19844,0.0123 0,0.1 -1.50223,1.00043 -4.56406,2.73566 -0.10914,0.0619 -0.19843,0.0563 -0.19843,-0.0123 z m 36.44634,-0.58698 c -0.98913,-0.53661 -0.92892,-0.76011 0.0662,-0.24554 0.43656,0.22576 0.79375,0.46694 0.79375,0.53596 0,0.17026 -0.0284,0.16066 -0.8599,-0.29042 z m -14.48077,-1.89919 c 0.003,-0.10914 1.58042,-1.10293 3.50573,-2.20842 l 3.50056,-2.00999 0.0767,-2.46582 c 0.0503,-1.61771 -0.0257,-2.52904 -0.22081,-2.64965 -0.18493,-0.1143 -0.0888,-0.2384 0.25408,-0.32807 0.53385,-0.13961 0.55153,-0.0526 0.55153,2.71406 v 2.85829 l -3.70501,2.14402 c -3.80668,2.20285 -3.97154,2.2838 -3.96274,1.94558 z m -16.9385,-0.42425 c 0,-0.1 1.50224,-1.00043 4.56406,-2.73566 0.10914,-0.0618 0.19844,-0.0563 0.19844,0.0123 0,0.10001 -1.50224,1.00044 -4.56406,2.73567 -0.10914,0.0619 -0.19844,0.0563 -0.19844,-0.0123 z m 5.02708,-2.93559 c 0,-0.0728 0.35719,-0.317 0.79375,-0.54276 0.43657,-0.22576 0.79375,-0.35093 0.79375,-0.27817 0,0.0728 -0.35718,0.317 -0.79375,0.54275 -0.43656,0.22576 -0.79375,0.35094 -0.79375,0.27818 z m 1.85209,-1.03315 c 0,-0.10001 1.50224,-1.00044 4.56406,-2.73567 0.10914,-0.0618 0.19844,-0.0563 0.19844,0.0123 0,0.10001 -1.50224,1.00044 -4.56407,2.73567 -0.10914,0.0619 -0.19843,0.0563 -0.19843,-0.0123 z m 2.38125,-2.66599 c 0,-0.0728 0.23812,-0.25973 0.52916,-0.4155 0.29105,-0.15576 0.52917,-0.22367 0.52917,-0.15091 0,0.0728 -0.23812,0.25974 -0.52917,0.4155 -0.29104,0.15576 -0.52916,0.22367 -0.52916,0.15091 z m 2.77812,-0.33678 c 0.14552,-0.15012 0.8599,-0.60603 1.5875,-1.01312 0.72761,-0.4071 1.20386,-0.61735 1.05834,-0.46723 -0.14553,0.15012 -0.8599,0.60603 -1.5875,1.01313 -0.72761,0.40709 -1.20386,0.61735 -1.05834,0.46722 z m 3.04271,-1.78492 c 0,-0.0728 0.35719,-0.317 0.79375,-0.54275 0.43656,-0.22576 0.79375,-0.35094 0.79375,-0.27818 0,0.0728 -0.35719,0.317 -0.79375,0.54276 -0.43656,0.22576 -0.79375,0.35093 -0.79375,0.27817 z m 1.85208,-1.05833 c 0,-0.0728 0.35719,-0.317 0.79375,-0.54276 0.43657,-0.22575 0.79375,-0.35093 0.79375,-0.27817 0,0.0728 -0.35718,0.317 -0.79375,0.54276 -0.43656,0.22575 -0.79375,0.35093 -0.79375,0.27817 z m 1.98438,-1.1255 c 0.14552,-0.15012 0.85989,-0.60603 1.5875,-1.01312 0.7276,-0.4071 1.20385,-0.61735 1.05833,-0.46723 -0.14552,0.15012 -0.85989,0.60603 -1.5875,1.01313 -0.7276,0.40709 -1.20385,0.61735 -1.05833,0.46722 z m 3.04271,-1.78492 c 0,-0.0728 0.35718,-0.317 0.79375,-0.54275 0.43656,-0.22576 0.79375,-0.35094 0.79375,-0.27818 0,0.0728 -0.35719,0.317 -0.79375,0.54276 -0.43657,0.22575 -0.79375,0.35093 -0.79375,0.27817 z m -0.79375,-0.78872 c 0,-0.0728 0.23812,-0.25973 0.52916,-0.41549 0.29105,-0.15576 0.52917,-0.22367 0.52917,-0.15091 0,0.0728 -0.23812,0.25973 -0.52917,0.41549 -0.29104,0.15576 -0.52916,0.22367 -0.52916,0.15091 z m 2.77812,-0.33677 c 0.14552,-0.15013 0.8599,-0.60603 1.5875,-1.01313 0.72761,-0.4071 1.20386,-0.61735 1.05834,-0.46723 -0.14553,0.15013 -0.8599,0.60603 -1.5875,1.01313 -0.72761,0.4071 -1.20386,0.61735 -1.05834,0.46723 z m 3.04271,-1.78493 c 0,-0.0728 0.35719,-0.317 0.79375,-0.54275 0.43656,-0.22576 0.79375,-0.35093 0.79375,-0.27817 0,0.0728 -0.35719,0.317 -0.79375,0.54275 -0.43656,0.22576 -0.79375,0.35093 -0.79375,0.27817 z m -0.79375,-0.78872 c 0,-0.0728 0.23813,-0.25973 0.52917,-0.41549 0.29104,-0.15576 0.52916,-0.22367 0.52916,-0.15091 0,0.0728 -0.23812,0.25973 -0.52916,0.41549 -0.29104,0.15576 -0.52917,0.22367 -0.52917,0.15091 z m 2.64583,-0.28068 c 0,-0.18105 1.62002,-0.98423 1.74106,-0.8632 0.0574,0.0574 -0.31084,0.30239 -0.81834,0.5444 -0.50749,0.24201 -0.92272,0.38547 -0.92272,0.3188 z m -69.8996,-40.00305 c 0.191,-0.0764 0.4192,-0.067 0.50712,0.0209 0.0879,0.0879 -0.0684,0.15045 -0.34726,0.13896 -0.30823,-0.0127 -0.37092,-0.0754 -0.15986,-0.15985 z"
         id="path907" />
      <path
         style="fill:none;stroke:#000000;stroke-width:2.065;stroke-miterlimit:4;stroke-dasharray:none;stroke-opacity:1"
         d="m 179.94873,-73.741674 c 0,-1.75959 -0.0595,-3.28721 -0.13229,-3.39471 -0.0728,-0.10749 -5.25198,-3.15064 -11.50938,-6.76254 -6.25739,-3.61191 -11.46942,-6.64804 -11.58228,-6.74696 -0.11286,-0.0989 2.41722,-1.34575 5.62239,-2.77074 3.20518,-1.42499 5.8276,-2.7105 5.8276,-2.85668 0,-0.17406 0.11413,-0.17152 0.33073,0.007 0.1819,0.15022 2.3957,1.46471 4.91956,2.92109 l 4.58883,2.64797 4.80388,-2.5038 c 2.64213,-1.37708 6.36514,-3.2919 8.27335,-4.25514 l 3.46947,-1.75136 6.14897,3.52722 c 3.38193,1.93997 6.29957,3.52722 6.48364,3.52722 0.38509,0 19.44979,-10.992576 19.45261,-11.216246 10e-4,-0.0813 -2.73657,-1.72832 -6.08355,-3.66003 -3.34698,-1.93171 -6.08232,-3.59159 -6.07854,-3.68862 0.004,-0.097 4.08167,-2.55084 9.06198,-5.4529 4.9803,-2.90207 11.31729,-6.60319 14.08219,-8.22471 2.76489,-1.62153 7.94411,-4.65035 11.50937,-6.73071 3.56526,-2.08037 7.01807,-4.10916 7.67292,-4.50844 0.65484,-0.39928 5.95312,-3.49807 11.77396,-6.88621 5.82083,-3.38813 10.7465,-6.30883 10.94592,-6.49045 0.30051,-0.27367 0.18727,-0.44281 -0.66146,-0.9879 -1.11447,-0.71577 -27.09709,-15.72339 -30.84555,-17.81646 l -2.30484,-1.28698 -0.0103,-5.23483 -0.0103,-5.23483 0.59531,0.31592 c 0.32742,0.17376 2.44078,1.38478 4.69635,2.69117 2.25558,1.30639 7.55386,4.36689 11.77396,6.80111 4.22011,2.43423 9.57792,5.5325 11.90625,6.88506 2.32833,1.35257 6.85271,3.96913 10.05417,5.81459 3.20146,1.84546 8.35091,4.81451 11.44323,6.59788 l 5.6224,3.24249 v 3.35861 3.35862 l -1.38907,0.80152 c -0.76398,0.44084 -9.42578,5.42344 -19.24843,11.07244 -9.82266,5.649 -20.65735,11.88089 -24.07709,13.84865 -8.76832,5.04539 -18.10661,10.41317 -29.76562,17.109696 -14.11027,8.10443 -27.89634,16.0361 -38.03835,21.88495 -4.76828,2.74984 -8.81641,5.05534 -8.99583,5.12333 -0.24741,0.0937 -0.32623,-0.64932 -0.32623,-3.07565 z m -17.74266,-26.0545 c -0.49319,-0.395116 -0.48995,-0.400006 0.0817,-0.12298 0.32742,0.15867 0.59531,0.34383 0.59531,0.41147 0,0.20247 -0.13721,0.144 -0.67703,-0.28849 z m -3.175,-1.852076 c -0.49319,-0.39513 -0.48995,-0.40001 0.0817,-0.12298 0.32742,0.15867 0.59531,0.34383 0.59531,0.41147 0,0.20246 -0.13721,0.14399 -0.67703,-0.28849 z m -8.73125,-5.02708 c -0.49319,-0.39513 -0.48995,-0.40001 0.0817,-0.12298 0.32742,0.15866 0.59531,0.34382 0.59531,0.41146 0,0.20247 -0.13721,0.144 -0.67703,-0.28848 z m -3.175,-1.85209 c -0.49319,-0.39512 -0.48995,-0.40001 0.0817,-0.12298 0.32742,0.15867 0.59531,0.34383 0.59531,0.41147 0,0.20247 -0.13721,0.144 -0.67703,-0.28849 z m -1.85208,-1.05833 c -0.49319,-0.39513 -0.48995,-0.40001 0.0817,-0.12298 0.32742,0.15867 0.59531,0.34383 0.59531,0.41147 0,0.20246 -0.13722,0.144 -0.67703,-0.28849 z m -10.05417,-5.82083 c -0.49319,-0.39513 -0.48995,-0.40001 0.0817,-0.12298 0.32742,0.15866 0.59531,0.34382 0.59531,0.41147 0,0.20246 -0.13721,0.14399 -0.67703,-0.28849 z m -1.85208,-1.05834 c -0.49319,-0.39512 -0.48995,-0.40001 0.0817,-0.12298 0.32742,0.15867 0.59531,0.34383 0.59531,0.41147 0,0.20247 -0.13722,0.144 -0.67703,-0.28849 z m -6.87917,-3.96875 c -0.49319,-0.39512 -0.48995,-0.40001 0.0817,-0.12298 0.32742,0.15867 0.59531,0.34383 0.59531,0.41147 0,0.20247 -0.13721,0.144 -0.67703,-0.28849 z m -3.175,-1.85208 c -0.49319,-0.39513 -0.48995,-0.40001 0.0817,-0.12298 0.32742,0.15867 0.59531,0.34383 0.59531,0.41147 0,0.20246 -0.13721,0.144 -0.67703,-0.28849 z m -1.85208,-1.05833 c -0.49319,-0.39513 -0.48995,-0.40001 0.0817,-0.12298 0.32742,0.15866 0.59531,0.34382 0.59531,0.41147 0,0.20246 -0.13722,0.14399 -0.67703,-0.28849 z m -6.87917,-3.96875 c -0.49319,-0.39513 -0.48995,-0.40001 0.0817,-0.12298 0.32742,0.15866 0.59531,0.34382 0.59531,0.41147 0,0.20246 -0.13721,0.14399 -0.67703,-0.28849 z m -3.32855,-1.98548 -0.62462,-0.54487 0.7276,0.443 c 0.40018,0.24366 0.7276,0.48885 0.7276,0.54487 0,0.2066 -0.22105,0.0887 -0.83058,-0.443 z m -20.600675,0.20191 c 0.0728,-0.0771 4.47808,-2.63361 9.789595,-5.68112 5.31151,-3.0475 13.73075,-7.87989 18.70943,-10.73863 4.97868,-2.85874 9.16571,-5.19771 9.30451,-5.19771 0.13881,0 0.29567,0.12989 0.34859,0.28865 0.0529,0.15876 1.34277,1.02547 2.86632,1.92602 2.71553,1.6051 2.77179,1.65805 2.85579,2.68791 0.0471,0.5778 0.25849,1.24183 0.46969,1.47563 0.30853,0.34153 0.31769,0.47731 0.0466,0.69078 -0.18557,0.14614 -4.1474,2.43753 -8.80407,5.09199 -4.65666,2.65446 -8.88338,5.09167 -9.39271,5.41603 -1.79014,1.14005 -2.55198,1.56061 -1.99995,1.10403 0.40127,-0.33189 0.42549,-0.42479 0.11076,-0.42479 -0.49195,0 -22.530395,3.11304 -23.643105,3.33971 -0.43656,0.0889 -0.73422,0.0986 -0.66146,0.0215 z m 138.037165,-7.31563 c -0.69628,-0.44444 -1.35112,-0.80867 -1.45521,-0.8094 -0.10409,-7.9e-4 -0.53369,-0.27692 -0.95468,-0.61379 -0.76178,-0.60956 -0.76383,-0.61912 -0.43108,-2.00618 0.42108,-1.75524 1.31836,-2.66831 4.25576,-4.33058 1.22783,-0.69483 2.70867,-1.54049 3.29075,-1.87923 0.58209,-0.33874 3.0824,-1.77904 5.55625,-3.20067 2.47386,-1.42164 5.0337,-2.91365 5.68854,-3.31559 0.65485,-0.40194 1.78594,-1.06278 2.51355,-1.46853 0.7276,-0.40574 1.91822,-1.07064 2.64583,-1.47754 1.85512,-1.03745 3.22757,-1.20024 4.66654,-0.5535 1.51403,0.68048 2.19935,1.47383 2.75577,3.19014 0.38943,1.20122 0.40256,1.46085 0.0891,1.76176 -0.58728,0.56376 -26.24103,15.30222 -26.82599,15.41194 -0.29104,0.0546 -1.09884,-0.26438 -1.79512,-0.70883 z m -8.25508,-9.75155 c -2.05864,-1.23641 -2.11808,-1.30094 -2.3228,-2.52201 -0.26602,-1.58678 0.13495,-3.13019 1.07506,-4.13799 0.65375,-0.70083 21.54266,-12.94287 23.99795,-14.06411 1.26918,-0.57959 2.49318,-0.62376 3.64651,-0.1316 1.94251,0.82891 2.73429,2.14705 2.87201,4.78124 l 0.0961,1.83727 -4.89479,2.81209 c -2.69214,1.54665 -8.74931,5.0359 -13.46039,7.75388 -4.71107,2.71798 -8.64013,4.9414 -8.73125,4.94094 -0.0911,-5.2e-4 -1.11637,-0.57183 -2.27836,-1.26971 z"
         id="path905" />
      <path
         style="fill:none;stroke:#000000;stroke-width:2.065;stroke-miterlimit:4;stroke-dasharray:none;stroke-opacity:1"
         d="m 176.49768,-142.37949 c -7e-5,-5.96635 0.0347,-8.44487 0.0772,-5.50782 0.0426,2.93705 0.0426,7.81862 1.2e-4,10.84792 -0.0425,3.0293 -0.0773,0.62626 -0.0774,-5.3401 z m 9.83343,2.31821 c -0.0906,-0.66079 -0.16467,-4.66965 -0.16467,-8.90858 v -7.70714 l 3.08399,-1.79256 c 1.71538,-0.99707 3.18472,-1.69184 3.31097,-1.56559 0.12484,0.12484 0.19556,4.1344 0.15715,8.91013 l -0.0698,8.68315 -3.07647,1.79101 -3.07647,1.79101 z m 28.75689,-6.02237 c 0.002,-0.87313 0.0509,-1.19842 0.10976,-0.72287 0.0589,0.47555 0.0577,1.18993 -0.003,1.5875 -0.0604,0.39758 -0.10855,0.008 -0.10706,-0.86463 z m -5.76865,-3.03968 c -0.0927,-0.14998 0.0135,-0.19434 0.24897,-0.10398 0.45837,0.17589 0.54223,0.36553 0.16165,0.36553 -0.13693,0 -0.32171,-0.1177 -0.41062,-0.26155 z m 2.03881,-5.96107 0.076,-2.56105 3.30729,-1.94728 c 1.81901,-1.07101 3.39659,-1.95218 3.50573,-1.95816 0.10914,-0.006 0.19514,1.14997 0.19111,2.5688 l -0.007,2.57969 -3.22957,1.85208 c -1.77626,1.01865 -3.38473,1.89143 -3.57438,1.93952 -0.26944,0.0683 -0.32821,-0.47239 -0.26883,-2.4736 z m -40.71084,-1.594 c -0.0862,-0.22455 -0.0976,-0.4674 -0.0253,-0.53966 0.0722,-0.0722 0.19488,0.11148 0.2725,0.40829 0.16487,0.63048 -0.0183,0.72784 -0.2472,0.13137 z m 49.65036,-3.48598 v -2.6166 l 4.89689,-2.82998 c 2.69329,-1.55649 4.95548,-2.82998 5.02708,-2.82998 0.0716,0 0.12836,1.16086 0.12612,2.57968 l -0.004,2.57969 -3.76623,2.16623 c -2.07143,1.19142 -4.33179,2.48152 -5.02301,2.86689 l -1.25677,0.70066 z m -8.9889,-3.44792 0.007,-4.16718 3.40557,-1.91823 c 1.87306,-1.05503 3.48031,-1.91823 3.57166,-1.91823 0.0914,0 0.1333,1.87391 0.0932,4.16425 l -0.0729,4.16425 -3.30729,1.91659 c -1.819,1.05412 -3.39658,1.91865 -3.50572,1.92117 -0.10914,0.003 -0.19532,-1.87066 -0.19151,-4.16262 z m 9.04844,-5.10478 0.0728,-4.26531 4.7625,-2.75188 c 2.61937,-1.51353 4.85482,-2.75389 4.96765,-2.75636 0.11284,-0.002 0.17237,1.87059 0.1323,4.16235 l -0.0729,4.16683 -4.23333,2.45579 c -2.32833,1.35068 -4.56373,2.63536 -4.96754,2.85484 l -0.73421,0.39905 z m 11.63869,1.69561 0.0757,-2.54928 3.30729,-1.93814 c 1.81901,-1.06598 3.39659,-1.94287 3.50573,-1.94864 0.10914,-0.006 0.19802,1.15036 0.19751,2.56919 l -7.9e-4,2.57969 -3.3886,1.91823 c -1.86373,1.05502 -3.47497,1.91823 -3.58053,1.91823 -0.10557,0 -0.15787,-1.14718 -0.11621,-2.54928 z m 9.20368,-9.96531 0.13213,-10.10729 0.0696,9.90538 c 0.0383,5.44795 -0.0212,9.99623 -0.13212,10.10728 -0.11094,0.11105 -0.14226,-4.34637 -0.0696,-9.90537 z m -32.22006,5.46938 c -0.0524,-3.79216 -0.007,-4.3075 0.40409,-4.63021 0.4082,-0.32013 0.42469,-0.31391 0.13925,0.0525 -0.21571,0.27689 -0.35057,1.82218 -0.40409,4.6302 l -0.0803,4.21461 z m 2.32459,-0.56156 0.002,-2.57969 3.23887,-1.85208 c 1.78139,-1.01865 3.39214,-1.89144 3.57945,-1.93953 0.26405,-0.0678 0.3235,0.48795 0.26458,2.47361 l -0.076,2.56105 -3.30729,1.94728 c -1.819,1.071 -3.39658,1.95218 -3.50572,1.95816 -0.10914,0.006 -0.19742,-1.14998 -0.19618,-2.5688 z m 20.64299,-3.43959 0.008,-4.16718 3.38334,-1.91823 c 1.86084,-1.05503 3.46771,-1.91823 3.57083,-1.91823 0.10311,0 0.15469,1.86862 0.11461,4.15248 l -0.0729,4.15249 -3.30729,1.92898 c -1.81901,1.06094 -3.39659,1.93076 -3.50573,1.93293 -0.10914,0.002 -0.19494,-1.87128 -0.19067,-4.16324 z m -11.74882,0.39087 c -0.0869,-0.32412 -0.1596,-1.4444 -0.16159,-2.48952 -0.003,-1.77623 0.0439,-1.9331 0.724,-2.40432 0.97256,-0.67382 8.53874,-5.01059 9.13809,-5.23775 0.43716,-0.16569 0.46722,0.0155 0.39688,2.3912 l -0.0761,2.57047 -3.83646,2.24174 c -2.11005,1.23296 -4.32929,2.52878 -4.93165,2.87961 l -1.09519,0.63787 z m 25.33144,-7.73305 c 7.9e-4,-1.45521 0.0451,-2.01677 0.0987,-1.24791 0.0536,0.76887 0.0531,1.95949 -0.001,2.64584 -0.0543,0.68634 -0.0982,0.0573 -0.0975,-1.39793 z m -13.58812,-1.12448 0.002,-2.57969 3.23888,-1.85208 c 1.78139,-1.01865 3.39214,-1.89144 3.57945,-1.93953 0.2641,-0.0678 0.32351,0.4897 0.26458,2.48314 l -0.0761,2.57057 -3.30729,1.93814 c -1.81901,1.06598 -3.39659,1.94287 -3.50573,1.94864 -0.10914,0.006 -0.19742,-1.15036 -0.19617,-2.56919 z m 13.6003,-10.3849 c 0,-2.54661 0.0397,-3.58841 0.0882,-2.3151 0.0485,1.2733 0.0485,3.3569 0,4.63021 -0.0485,1.2733 -0.0882,0.23151 -0.0882,-2.31511 z"
         id="path903" />
      <path
         style="fill:none;stroke:#000000;stroke-width:2.065;stroke-miterlimit:4;stroke-dasharray:none;stroke-opacity:1"
         d="m 164.20602,-131.37246 c -7.56641,-4.42472 -25.07737,-14.6039 -30.69167,-17.84117 -2.25557,-1.30059 -4.3094,-2.54584 -4.56406,-2.76723 -0.43181,-0.37538 -0.45872,-1.36727 -0.39922,-14.71515 l 0.0638,-14.31264 0.0708,14.19524 0.0708,14.19524 1.25448,0.78915 c 0.68997,0.43404 1.79027,1.08342 2.44511,1.44307 1.38332,0.75974 9.94422,5.73632 13.22917,7.69031 1.23692,0.73576 3.79677,2.22249 5.68854,3.30385 1.89177,1.08136 3.79677,2.17506 4.23333,2.43044 0.43656,0.25539 2.63922,1.53455 4.89479,2.84257 2.25558,1.30802 5.33251,3.10985 6.83764,4.00407 1.50513,0.89422 2.84944,1.62585 2.98737,1.62585 0.15582,0 0.22164,-5.38483 0.17382,-14.22156 -0.0694,-12.82431 -0.0368,-14.18255 0.33203,-13.82448 0.22494,0.2184 1.56274,1.05193 2.97287,1.85229 l 2.5639,1.45521 0.004,10.78177 c 0.002,5.92997 0.032,10.87107 0.0665,10.98021 0.0345,0.10914 -1.11325,0.87594 -2.55067,1.70401 -1.43742,0.82806 -2.73966,1.63173 -2.89385,1.78593 -0.15421,0.15421 -0.34585,0.27107 -0.42589,0.25971 -0.08,-0.0114 -2.94349,-1.65687 -6.36323,-3.65669 z m 16.13958,-12.03724 v -9.90445 l 1.73977,-0.97293 c 0.95687,-0.53512 1.786,-0.92671 1.8425,-0.87021 0.0565,0.0565 0.13681,4.4672 0.17846,9.80155 0.074,9.47404 0.0635,9.70485 -0.45343,9.95956 -0.29105,0.14342 -1.15425,0.62755 -1.91823,1.07585 l -1.38907,0.81509 z m 18.52084,3.8125 c -1.96453,-1.16041 -3.78024,-2.11231 -4.0349,-2.11533 -0.4325,-0.005 -0.46302,-0.6482 -0.46302,-9.75407 0,-8.95779 0.0376,-9.78056 0.46302,-10.1428 0.25466,-0.21682 2.10013,-1.32843 4.10104,-2.47024 l 3.63802,-2.07601 v -1.64904 -1.64904 l -1.65364,-0.94119 c -0.90951,-0.51765 -1.81685,-1.04982 -2.01632,-1.1826 -0.26938,-0.17933 0.10493,-0.51432 1.45521,-1.30235 0.99983,-0.58351 10.68803,-6.17939 21.52933,-12.43529 10.8413,-6.25589 20.54173,-11.85776 21.55651,-12.44859 1.01478,-0.59083 1.87565,-1.04364 1.91306,-1.00623 0.0374,0.0374 0.13904,7.11486 0.22587,15.72769 l 0.15785,15.65968 h -0.93014 c -0.77997,0 -3.18468,1.0486 -4.27003,1.86199 -0.14552,0.10906 -0.71107,0.4491 -1.25677,0.75565 -0.5457,0.30655 -1.40891,0.79549 -1.91823,1.08653 -0.50932,0.29104 -1.34276,0.76729 -1.85208,1.05833 -0.50932,0.29104 -1.34276,0.76729 -1.85208,1.05833 -2.29223,1.30985 -2.72756,1.56205 -4.04655,2.34429 -0.77038,0.45689 -1.51452,0.83071 -1.65364,0.83071 -0.13912,0 -0.25294,0.10518 -0.25294,0.23373 0,0.12855 -0.20836,0.30191 -0.46302,0.38525 -0.25466,0.0833 -0.9988,0.47125 -1.65365,0.86203 -1.27757,0.76238 -2.32455,1.36591 -3.9026,2.24962 -2.48662,1.39253 -3.33952,2.41433 -3.65395,4.37754 -0.14406,0.89943 -0.318,1.097 -1.47195,1.67191 -1.37179,0.68343 -1.4981,0.90885 -1.61735,2.88642 l -0.0698,1.15711 -6.08541,3.52726 c -3.34698,1.93999 -6.14495,3.53205 -6.21771,3.53791 -0.0728,0.006 -1.73963,-0.93878 -3.70416,-2.0992 z m 3.37783,-19.0501 -0.0705,-6.8751 -3.50573,1.99775 -3.50573,1.99774 v 9.71272 9.71271 l 3.50573,2.03227 3.50573,2.03227 0.0705,-6.86763 c 0.0388,-3.77719 0.0388,-9.96142 0,-13.74273 z m 23.44493,0.54909 15.77514,-9.10415 v -8.11737 c 0,-11.01012 -0.26474,-18.53788 -0.65725,-18.6885 -0.16893,-0.0648 -7.38274,3.9695 -16.03068,8.96516 l -15.72351,9.08303 0.10091,13.35069 c 0.0555,7.34288 0.1557,13.44628 0.22268,13.5631 0.067,0.11682 0.21533,0.17636 0.32967,0.13229 0.11435,-0.0441 7.30671,-4.17697 15.98304,-9.18425 z m -23.47092,-15.28116 c -0.13867,-0.13868 -2.01636,0.87726 -2.52463,1.36597 -0.30486,0.29313 -0.13436,0.48045 1.05833,1.16271 l 1.42175,0.81329 0.0796,-1.6137 c 0.0438,-0.88753 0.028,-1.66526 -0.035,-1.72827 z"
         id="path901" />
      <path
         style="fill:none;stroke:#000000;stroke-width:2.065;stroke-miterlimit:4;stroke-dasharray:none;stroke-opacity:1"
         d="m 179.55175,-70.381964 c -1.15769,-0.6642 -4.30754,-2.48438 -6.99968,-4.04486 -2.69214,-1.56048 -8.46667,-4.89517 -12.83229,-7.41043 -4.36563,-2.51526 -9.30672,-5.37392 -10.98021,-6.35258 -1.67349,-0.97866 -8.87677,-5.1471 -16.00729,-9.26321 -7.13052,-4.116106 -16.06021,-9.277496 -19.84375,-11.469736 -3.78354,-2.19225 -9.91526,-5.73196 -13.626045,-7.86602 l -6.74688,-3.88012 -0.0736,-3.446 -0.0736,-3.44601 1.79344,-0.28959 c 4.60849,-0.74416 22.628395,-3.22271 22.862615,-3.14464 0.14513,0.0484 -0.75535,0.67694 -2.00108,1.3968 -1.74969,1.01108 -2.18995,1.37751 -1.93527,1.61073 0.18133,0.16604 10.50953,6.17353 22.95156,13.34998 33.64875,19.408276 34.13068,19.688836 34.13098,19.869656 1.5e-4,0.092 -2.62215,1.33314 -5.82733,2.75813 -3.20517,1.42499 -5.73525,2.67183 -5.62239,2.77074 0.11286,0.0989 5.32489,3.13278 11.58228,6.74191 6.2574,3.60914 11.41224,6.58861 11.4552,6.62105 0.20852,0.15742 0.33476,6.4321 0.13194,6.55745 -0.12848,0.0794 -1.18081,-0.39905 -2.3385,-1.06325 z"
         id="path899" />
      <path
         style="fill:none;stroke:#000000;stroke-width:2.065;stroke-miterlimit:4;stroke-dasharray:none;stroke-opacity:1"
         d="m 167.24873,-130.13792 c -1.45521,-0.88092 -4.4913,-2.67208 -6.74688,-3.98037 -2.25557,-1.30829 -4.45823,-2.58767 -4.89479,-2.84306 -0.43656,-0.25538 -2.34156,-1.34908 -4.23333,-2.43044 -1.89177,-1.08136 -4.45162,-2.56809 -5.68854,-3.30385 -3.28495,-1.95399 -11.84585,-6.93057 -13.22917,-7.69031 -0.65484,-0.35965 -1.75617,-1.00969 -2.4474,-1.44453 l -1.25677,-0.79063 v -14.10872 c 0,-11.56661 -0.0651,-14.17379 -0.36107,-14.46981 -0.19859,-0.19859 -2.2725,-1.46694 -4.6087,-2.81856 -2.33618,-1.35162 -4.41772,-2.65615 -4.62562,-2.89897 -0.33909,-0.39602 0.89138,-2.13721 11.95088,-16.91122 l 12.32889,-16.46973 15.29674,-8.87319 15.29675,-8.87319 11.95534,2.14149 c 6.57543,1.17781 12.28171,2.2469 12.68061,2.37574 0.39891,0.12884 4.80422,2.60594 9.78958,5.50466 4.98537,2.89872 14.24352,8.27883 20.57368,11.9558 6.33015,3.67697 13.44071,7.81277 15.80124,9.19069 l 4.29186,2.50528 -0.38926,0.93164 c -0.21409,0.5124 -0.38926,0.97273 -0.38926,1.02296 0,0.0502 -1.10133,0.73488 -2.4474,1.52144 -3.69731,2.16051 -49.81247,28.82277 -62.77238,36.29292 -6.2574,3.60679 -11.65483,6.75431 -11.99431,6.99448 l -0.61722,0.43667 0.0323,14.34093 c 0.0261,11.55797 -0.0339,14.33634 -0.30882,14.31724 -0.18764,-0.013 -1.53178,-0.74445 -2.98699,-1.62536 z m 31.41927,-9.93129 -3.50573,-2.03227 v -9.71271 -9.71272 l 3.50573,-1.99774 3.50573,-1.99775 0.0705,6.8751 c 0.0388,3.78131 0.0388,9.96554 0,13.74273 l -0.0705,6.86763 z m 2.08398,-30.78148 c -1.19269,-0.68226 -1.36319,-0.86958 -1.05833,-1.16271 0.50827,-0.48871 2.38596,-1.50465 2.52463,-1.36597 0.063,0.063 0.0788,0.84074 0.035,1.72827 l -0.0796,1.6137 z"
         id="path897" />
    </g>
    <text
       xml:space="preserve"
       style="font-style:normal;font-variant:normal;font-weight:normal;font-stretch:normal;font-size:23.4971px;line-height:1.25;font-family:'Artifakt Element';-inkscape-font-specification:'Artifakt Element';stroke-width:1.25876"
       x="3.5702832"
       y="219.5369"
       id="text851-6"><tspan
         sodipodi:role="line"
         id="tspan849-2"
         x="3.5702832"
         y="219.5369"
         style="font-style:normal;font-variant:normal;font-weight:normal;font-stretch:normal;font-family:'Artifakt Element';-inkscape-font-specification:'Artifakt Element';stroke-width:1.25876">NIEKOMERCYJNE</tspan></text>
  </g>
</svg>
