<?xml version="1.0" encoding="UTF-8" standalone="no"?>
<svg
   xmlns:dc="http://purl.org/dc/elements/1.1/"
   xmlns:cc="http://creativecommons.org/ns#"
   xmlns:rdf="http://www.w3.org/1999/02/22-rdf-syntax-ns#"
   xmlns:svg="http://www.w3.org/2000/svg"
   xmlns="http://www.w3.org/2000/svg"
   xmlns:sodipodi="http://sodipodi.sourceforge.net/DTD/sodipodi-0.dtd"
   xmlns:inkscape="http://www.inkscape.org/namespaces/inkscape"
   width="50mm"
   height="70mm"
   viewBox="0 0 50 70"
   version="1.1"
   id="svg8"
   inkscape:version="1.0.1 (3bc2e813f5, 2020-09-07)"
   sodipodi:docname="obsluga.svg">
  <defs
     id="defs2" />
  <sodipodi:namedview
     id="base"
     pagecolor="#ffffff"
     bordercolor="#666666"
     borderopacity="1.0"
     inkscape:pageopacity="0.0"
     inkscape:pageshadow="2"
     inkscape:zoom="1.979899"
     inkscape:cx="44.782134"
     inkscape:cy="105.25791"
     inkscape:document-units="mm"
     inkscape:current-layer="layer1"
     inkscape:document-rotation="0"
     showgrid="false"
     inkscape:window-width="1920"
     inkscape:window-height="1137"
     inkscape:window-x="-8"
     inkscape:window-y="-8"
     inkscape:window-maximized="1" />
  <metadata
     id="metadata5">
    <rdf:RDF>
      <cc:Work
         rdf:about="">
        <dc:format>image/svg+xml</dc:format>
        <dc:type
           rdf:resource="http://purl.org/dc/dcmitype/StillImage" />
        <dc:title></dc:title>
      </cc:Work>
    </rdf:RDF>
  </metadata>
  <g
     inkscape:label="Layer 1"
     inkscape:groupmode="layer"
     id="layer1">
    <path
       style="fill:#000000;stroke-width:0.0537955"
       d="m 16.291656,46.450182 c -0.428556,-0.09915 -0.71208,-0.336695 -0.892062,-0.747376 -0.05836,-0.133146 -0.594906,-1.537212 -1.192345,-3.12015 -0.597439,-1.582938 -1.120388,-2.944412 -1.16211,-3.025499 -0.175735,-0.341547 -0.11674,-0.334069 -2.868509,-0.363628 -2.4933035,-0.02678 -2.5051895,-0.02744 -2.7868015,-0.154732 -0.155551,-0.07031 -0.354175,-0.209103 -0.441387,-0.308433 -0.303353,-0.345501 -0.301632,-0.297221 -0.143144,-4.015528 0.07977,-1.871307 0.169011,-3.583935 0.198327,-3.805841 0.139204,-1.053611 0.842385,-1.763872 1.922986,-1.94233 0.466328,-0.07701 0.9437677,-0.01357 1.3713675,0.182173 0.20757,0.09503 2.776544,1.948834 3.565248,2.57273 0.03184,0.02518 0.770179,0.05237 1.640768,0.06041 1.353438,0.01255 1.606287,0.02754 1.744279,0.103662 0.249813,0.137817 0.390576,0.318111 0.464606,0.595101 0.06033,0.225733 0.05611,0.282048 -0.03827,0.509771 -0.138867,0.335081 -0.360167,0.48248 -0.791357,0.527099 -0.183876,0.01903 -1.024249,0.02691 -1.867496,0.01753 l -1.533177,-0.01706 -1.147261,-0.632099 c -0.630993,-0.347654 -1.181725,-0.632099 -1.223851,-0.632099 -0.05865,0 -0.0767,0.08507 -0.07705,0.363122 -8.99e-4,0.702513 0.122549,3.054277 0.166432,3.171131 0.02442,0.06502 0.110872,0.161856 0.192094,0.215182 0.127716,0.08385 0.311685,0.100596 1.360741,0.123848 1.665569,0.03693 1.623017,0.01124 2.140882,1.291096 0.149653,0.369845 0.688206,1.773912 1.196787,3.120149 0.508581,1.346237 1.109679,2.931866 1.335774,3.523618 0.484405,1.267819 0.513515,1.488341 0.246594,1.868123 -0.274806,0.391002 -0.908761,0.629538 -1.38207,0.520021 z m 16.674227,-0.01632 c -0.56533,-0.154559 -0.983476,-0.637967 -0.935993,-1.082076 0.03189,-0.298287 2.80421,-7.684583 3.193678,-8.508925 0.307545,-0.650941 0.481553,-0.714966 1.944284,-0.715389 1.183431,-3.23e-4 1.358685,-0.03966 1.486864,-0.33355 0.05585,-0.128037 0.0939,-0.599481 0.135919,-1.684089 0.07399,-1.909219 0.07469,-1.85595 -0.02455,-1.85595 -0.04463,0 -0.583261,0.27234 -1.196953,0.605201 l -1.115805,0.605203 h -1.829052 c -1.748187,0 -1.83737,-0.0048 -2.017155,-0.110508 -0.510437,-0.299854 -0.582751,-0.951111 -0.150432,-1.354805 0.201616,-0.188267 0.605118,-0.231984 2.098529,-0.227364 l 1.383424,0.0042 1.676825,-1.246726 c 0.922254,-0.685654 1.803173,-1.304526 1.957599,-1.375225 0.580289,-0.265665 1.203707,-0.289255 1.841867,-0.0697 0.579531,0.199388 1.007158,0.575176 1.261427,1.108507 0.207873,0.436013 0.224668,0.631733 0.400045,4.661617 0.113193,2.601008 0.129439,3.316262 0.07914,3.484162 -0.08812,0.294118 -0.330272,0.549797 -0.663255,0.700303 -0.281613,0.127293 -0.293499,0.12795 -2.786803,0.154731 -2.767733,0.02973 -2.690978,0.01959 -2.877626,0.38052 -0.04674,0.09038 -0.603175,1.534708 -1.236531,3.209626 -0.763572,2.019275 -1.202961,3.110141 -1.304131,3.237744 -0.291081,0.367143 -0.849478,0.54145 -1.321313,0.412447 z M 4.3462805,46.312482 c -0.01972,-0.01973 -0.03558,-1.792966 -0.03525,-3.940534 l 6.3e-4,-3.904671 -0.247054,-2.286315 c -0.135875,-1.257474 -0.313061,-2.885279 -0.393735,-3.617344 -0.09854,-0.89416 -0.128884,-1.348819 -0.09247,-1.385238 0.02982,-0.02982 0.200671,-0.05412 0.379675,-0.05401 0.422477,2.69e-4 0.648457,0.129643 0.72352,0.414262 0.08336,0.316062 0.242766,1.53364 0.567825,4.33711 l 0.298318,2.57285 v 3.949876 3.949877 h -0.582788 c -0.320532,0 -0.598925,-0.01614 -0.61865,-0.03588 z M 44.334398,42.391124 v -3.960748 l 0.243329,-1.945089 c 0.448554,-3.585605 0.622254,-4.838225 0.695079,-5.012522 0.11131,-0.266419 0.270808,-0.348715 0.673984,-0.347769 0.351927,8.1e-4 0.525055,0.05326 0.469992,0.142356 -0.01619,0.02618 -0.141903,1.027479 -0.279374,2.225087 -0.137466,1.197606 -0.313785,2.673732 -0.391813,3.280278 -0.139802,1.086704 -0.142298,1.164491 -0.171331,5.325772 l -0.02947,4.22296 -0.605202,0.01519 -0.6052,0.01519 z m -21.921737,2.214845 c -0.248254,-0.10845 -0.503498,-0.346232 -0.634457,-0.591051 -0.118025,-0.220648 -0.118769,-0.239381 -0.133774,-3.41673 -0.01706,-3.612563 -0.01782,-3.604273 0.360411,-3.982502 0.258045,-0.258046 0.673003,-0.407129 1.006116,-0.361471 0.480995,0.06593 0.923375,0.416723 1.042829,0.826937 0.04078,0.140065 0.05399,1.224113 0.04277,3.511059 l -0.01623,3.308434 -0.17373,0.250166 c -0.314076,0.45226 -1.013074,0.665224 -1.493934,0.455158 z m 3.927084,0 c -0.248254,-0.10845 -0.503498,-0.346232 -0.634457,-0.591051 -0.118068,-0.220718 -0.118754,-0.238503 -0.133759,-3.444254 -0.01692,-3.61327 -0.02233,-3.554036 0.361771,-3.949835 0.255642,-0.263422 0.665781,-0.413075 1.004744,-0.366614 0.480997,0.06593 0.923377,0.416723 1.042829,0.826937 0.04078,0.140065 0.05399,1.224113 0.04277,3.511059 l -0.01623,3.308434 -0.177845,0.256149 c -0.237517,0.34209 -0.593457,0.524651 -1.01732,0.521783 -0.171112,-0.0012 -0.383737,-0.03383 -0.472501,-0.0726 z M 12.124239,35.607386 c -0.04817,-0.01944 -0.06724,-0.197804 -0.06724,-0.628814 0,-0.648529 -0.0012,-0.644975 0.412466,-1.203181 l 0.128257,-0.173058 0.361739,0.195743 c 0.198957,0.107661 0.370613,0.202478 0.38146,0.21071 0.0108,0.0082 -0.05573,0.137583 -0.147938,0.287449 -0.09222,0.149866 -0.16766,0.296326 -0.16766,0.325469 0,0.03462 4.128935,0.05298 11.915741,0.05298 6.553658,0 11.915743,-0.01604 11.915743,-0.03563 0,-0.0196 -0.07459,-0.151876 -0.165757,-0.293946 -0.09117,-0.142064 -0.149921,-0.283926 -0.130577,-0.315239 0.0376,-0.06084 0.638459,-0.377297 0.716377,-0.377297 0.0256,0 0.159438,0.163727 0.297411,0.363837 l 0.25086,0.363836 v 0.598731 c 0,0.496337 -0.0146,0.604314 -0.0851,0.631384 -0.101823,0.03907 -25.518897,0.03612 -25.615789,-0.0029 z m 2.064273,-4.311164 c -0.016,-0.02588 0.08399,-0.209481 0.222179,-0.407996 0.234724,-0.337178 0.263295,-0.359885 0.43401,-0.344921 0.144882,0.0127 0.217441,0.06405 0.35022,0.247849 0.158689,0.219671 0.16322,0.239424 0.08639,0.376569 -0.07762,0.138561 -0.102071,0.145392 -0.5724,0.160149 -0.270224,0.0085 -0.504403,-0.0058 -0.520399,-0.03164 z m 1.9457,-0.051 c -0.04494,-0.05177 -0.281962,-0.394881 -0.526697,-0.762451 -0.478561,-0.718757 -0.481412,-0.733576 -0.177876,-0.924765 l 0.171804,-0.108216 0.594785,0.889814 c 0.327132,0.489399 0.594785,0.914552 0.594785,0.944787 0,0.03058 -0.127614,0.05497 -0.287538,0.05497 -0.206849,0 -0.310473,-0.02642 -0.369263,-0.09415 z m 18.509331,0 c -0.04296,-0.05177 -0.167997,-0.233338 -0.277865,-0.403468 l -0.199761,-0.309324 0.525057,0.0011 0.525058,0.0011 0.228631,0.348031 c 0.125745,0.191416 0.228631,0.372473 0.228631,0.402348 0,0.03246 -0.191423,0.05431 -0.475823,0.05431 -0.387548,0 -0.490313,-0.01747 -0.553928,-0.09414 z m -15.10895,-2.449856 c 0,-1.819579 0.02468,-2.031407 0.299897,-2.574532 0.281952,-0.556408 0.874634,-0.987708 1.663646,-1.210652 0.271732,-0.07678 0.659624,-0.09466 2.452944,-0.113003 1.397744,-0.0143 2.239348,-0.0016 2.447702,0.03672 0.657053,0.121089 0.778941,0.216285 2.634592,2.057539 1.45552,1.444226 1.74933,1.711922 1.878923,1.711922 0.127979,0 0.347333,-0.19196 1.314149,-1.15 0.638292,-0.632499 1.245261,-1.193839 1.348818,-1.24742 0.46825,-0.242281 1.045234,-0.05989 1.214756,0.383996 0.177406,0.464529 0.148701,0.505224 -1.581397,2.242055 l -1.540628,1.546633 h -0.75491 -0.754909 l -1.018085,-1.019145 c -0.559948,-0.560529 -1.037818,-1.006949 -1.061935,-0.992045 -0.02411,0.0149 -0.04385,0.473712 -0.04385,1.019571 v 0.992472 l -3.187393,-0.01387 -3.187394,-0.01387 -0.01474,-0.965507 c -0.01226,-0.803037 -0.0295,-0.981821 -0.102479,-1.062465 -0.111646,-0.123366 -0.153823,-0.12179 -0.286254,0.01065 -0.09962,0.09962 -0.107588,0.17932 -0.107588,1.075914 v 0.968323 h -0.806936 -0.806934 z m -4.785922,0.395702 c -0.07806,-0.14586 -0.07806,-0.145845 0.143217,-0.296203 0.185082,-0.12576 0.20564,-0.129059 0.295877,-0.04739 0.134693,0.121892 0.125716,0.145348 -0.117061,0.306015 -0.255806,0.169286 -0.2518,0.168819 -0.322035,0.03758 z M 9.3134155,28.029755 c -0.602927,-0.166325 -1.117839,-0.643851 -1.345537,-1.247841 -0.097167,-0.257749 -0.113091,-0.389436 -0.092919,-0.768327 0.02918,-0.547928 0.152231,-0.859123 0.48097,-1.216331 0.452834,-0.492049 0.94375,-0.693594 1.5972847,-0.655761 0.9062978,0.05246 1.5862718,0.613923 1.8123728,1.496486 0.369173,1.441024 -1.012708,2.788869 -2.4521725,2.391774 z m 30.2732945,0.02684 c -0.594588,-0.150079 -1.081892,-0.554488 -1.349985,-1.120345 -0.151765,-0.320327 -0.169349,-0.408527 -0.167866,-0.841969 0.0015,-0.433031 0.01985,-0.521696 0.173904,-0.839572 0.204254,-0.421452 0.541021,-0.752095 0.971623,-0.953954 0.263434,-0.123498 0.375379,-0.143115 0.816358,-0.143115 0.446982,0 0.551529,0.01889 0.833833,0.150602 1.359061,0.634116 1.561996,2.480832 0.372073,3.385898 -0.145465,0.110638 -0.373419,0.239022 -0.506562,0.28529 -0.303439,0.105442 -0.877768,0.14421 -1.143378,0.07717 z M 24.377973,23.72518 c -0.557228,-0.156072 -0.992826,-0.517848 -1.279138,-1.06236 -0.133482,-0.253849 -0.147497,-0.334003 -0.147839,-0.845296 -3.22e-4,-0.500757 0.016,-0.599774 0.14386,-0.872583 0.177718,-0.379179 0.541722,-0.74114 0.942525,-0.937233 0.425159,-0.208011 1.09274,-0.241363 1.530124,-0.07644 0.582753,0.219732 1.019807,0.657339 1.21228,1.213815 0.134285,0.388227 0.117835,0.990812 -0.03818,1.398687 -0.170873,0.446729 -0.656661,0.932241 -1.097647,1.097019 -0.420951,0.157293 -0.893285,0.188781 -1.265977,0.0844 z"
       id="path953" />
  </g>
</svg>
