<?xml version="1.0" encoding="UTF-8" standalone="no"?>
<svg
   xmlns:dc="http://purl.org/dc/elements/1.1/"
   xmlns:cc="http://creativecommons.org/ns#"
   xmlns:rdf="http://www.w3.org/1999/02/22-rdf-syntax-ns#"
   xmlns:svg="http://www.w3.org/2000/svg"
   xmlns="http://www.w3.org/2000/svg"
   xmlns:sodipodi="http://sodipodi.sourceforge.net/DTD/sodipodi-0.dtd"
   xmlns:inkscape="http://www.inkscape.org/namespaces/inkscape"
   width="100mm"
   height="80mm"
   viewBox="0 0 100 80"
   version="1.1"
   id="svg8"
   inkscape:version="1.0.1 (3bc2e813f5, 2020-09-07)"
   sodipodi:docname="oddanie.svg">
  <defs
     id="defs2" />
  <sodipodi:namedview
     id="base"
     pagecolor="#ffffff"
     bordercolor="#666666"
     borderopacity="1.0"
     inkscape:pageopacity="0.0"
     inkscape:pageshadow="2"
     inkscape:zoom="0.98994949"
     inkscape:cx="246.06131"
     inkscape:cy="117.40574"
     inkscape:document-units="mm"
     inkscape:current-layer="layer1"
     inkscape:document-rotation="0"
     showgrid="false"
     inkscape:window-width="1346"
     inkscape:window-height="967"
     inkscape:window-x="26"
     inkscape:window-y="26"
     inkscape:window-maximized="0" />
  <metadata
     id="metadata5">
    <rdf:RDF>
      <cc:Work
         rdf:about="">
        <dc:format>image/svg+xml</dc:format>
        <dc:type
           rdf:resource="http://purl.org/dc/dcmitype/StillImage" />
        <dc:title></dc:title>
      </cc:Work>
    </rdf:RDF>
  </metadata>
  <g
     inkscape:label="Layer 1"
     inkscape:groupmode="layer"
     id="layer1">
    <path
       style="fill:#ffffff;stroke-width:0.311018"
       d="m 43.615847,50.170179 -0.553502,-1.539237 2.176743,-3.981345 c 1.19721,-2.18974 3.017782,-5.513046 4.045718,-7.385124 1.663839,-3.03019 1.813661,-3.444227 1.365029,-3.772275 -0.462254,-0.338009 -0.457918,-0.438738 0.05242,-1.217596 0.547481,-0.835564 0.541061,-0.879566 -0.402642,-2.759121 -1.263701,-2.516888 -1.531194,-4.891016 -0.838177,-7.439201 0.915231,-3.365248 3.650475,-6.209552 6.851879,-7.125082 1.81972,-0.520399 4.579669,-0.43663 6.217067,0.188698 1.302205,0.497316 1.388537,0.595513 1.069065,1.215969 -0.787282,1.528996 -1.575886,2.074548 -2.998784,2.074548 -1.150706,0 -1.549914,0.173442 -2.433935,1.057464 -0.902617,0.902616 -1.057464,1.271517 -1.057464,2.519252 0,1.247734 0.154847,1.616636 1.057464,2.519252 0.895902,0.895902 1.27591,1.057463 2.487254,1.057463 1.184331,0 1.63017,-0.179601 2.597005,-1.046182 0.641968,-0.575399 1.606807,-1.270887 2.144089,-1.545529 0.537279,-0.274642 1.395031,-1.067959 1.906119,-1.762928 l 0.929245,-1.263581 0.531722,1.328896 c 0.664771,1.661428 0.684016,4.916533 0.03971,6.714853 -1.398934,3.904522 -4.712004,6.401211 -9.029293,6.804365 -1.714542,0.160107 -2.018383,0.288963 -2.465277,1.045493 -0.327186,0.553881 -0.704504,0.816272 -1.053665,0.732733 -0.401161,-0.09598 -0.830352,0.381135 -1.634985,1.817562 -0.817556,1.459496 -1.285314,1.974667 -1.866112,2.055265 -1.482409,0.20571 -2.07319,1.405869 -1.092632,2.219659 0.712747,0.591526 0.04087,1.560518 -1.08203,1.560518 -1.224073,0 -1.791469,0.992505 -1.137757,1.990197 0.558145,0.851836 0.32537,1.310812 -0.809225,1.595575 -0.9751,0.244735 -0.981466,0.258902 -0.47834,1.064536 0.56391,0.902962 -0.209061,2.116915 -1.592655,2.501263 -2.053714,0.570499 -2.340918,0.450862 -2.944039,-1.22636 z m -13.56522,-8.063225 v -1.515977 l 6.385428,-6.915915 c 5.232518,-5.667225 6.318725,-6.996289 6.01599,-7.361062 -0.292007,-0.351847 -0.23878,-0.621871 0.253954,-1.288328 l 0.623392,-0.843183 -1.038906,-2.798284 C 41.719086,19.84515 41.250616,18.29942 41.24944,17.949251 c -0.0012,-0.350169 0.522706,-1.14056 1.164182,-1.756426 2.151193,-2.065305 6.76077,-5.839892 7.137283,-5.844419 0.46951,-0.0056 4.137144,3.026301 4.137144,3.420078 0,0.160431 -0.399474,0.498269 -0.887721,0.750752 -1.477612,0.764103 -3.990199,3.776245 -4.755149,5.700574 -0.995795,2.505048 -1.007265,6.730071 -0.02416,8.896798 0.763416,1.682528 0.657344,2.20269 -0.395299,1.938493 -0.578742,-0.145255 -1.113463,0.250268 -2.944891,2.178286 -2.159901,2.273815 -2.258546,2.336942 -2.83564,1.81468 -0.568581,-0.51456 -0.628628,-0.513275 -1.224758,0.02621 l -0.626863,0.567306 0.626626,0.667013 0.626627,0.667014 -0.90118,0.863384 c -0.776468,0.743901 -0.995219,0.813056 -1.580729,0.499699 -0.556132,-0.297632 -0.788701,-0.264904 -1.280541,0.180207 -0.593407,0.537024 -0.592949,0.552448 0.03623,1.222183 0.569965,0.606701 0.586271,0.72058 0.154502,1.078917 -0.398615,0.330821 -0.581293,0.311421 -1.048444,-0.111344 -0.527337,-0.477233 -0.60407,-0.469595 -1.130936,0.112578 -0.543597,0.600671 -0.543886,0.648126 -0.0075,1.24076 0.456364,0.504277 0.486448,0.702004 0.16563,1.088566 -0.293532,0.353681 -1.04666,0.47236 -2.997603,0.47236 H 30.050655 Z M 58.96934,23.084434 c -0.637961,-1.192043 -0.375173,-1.813929 0.861329,-2.038319 2.776592,-0.50387 4.978822,-2.514387 5.703981,-5.207425 C 66.384894,12.681119 64.45766,9.1524718 61.152499,7.815241 59.954974,7.3307348 57.281213,7.4414285 56.12596,8.0233393 55.55488,8.3109968 54.561068,9.050873 53.917485,9.6675071 L 52.747338,10.788662 51.907845,9.9491696 51.068353,9.1096776 52.144937,7.9884268 c 0.592121,-0.6166869 1.776377,-1.4909326 2.631678,-1.9427669 2.133688,-1.127173 5.817652,-1.1852029 7.968427,-0.1255168 3.498565,1.72374 5.417085,5.0431549 5.175392,8.9544469 -0.269212,4.356671 -2.993785,7.509739 -7.331324,8.484318 -1.137816,0.25565 -1.355827,0.218707 -1.61977,-0.274474 z"
       id="path847" />
    <text
       xml:space="preserve"
       style="font-size:9.16801px;line-height:1.25;font-family:'Franklin Gothic Medium';-inkscape-font-specification:'Franklin Gothic Medium, ';stroke-width:0.491142;fill:#ffffff;"
       x="10.318196"
       y="65.092514"
       id="text851"><tspan
         sodipodi:role="line"
         id="tspan849"
         x="10.318196"
         y="65.092514"
         style="stroke-width:0.491142;fill:#ffffff;">Planowane oddanie</tspan><tspan
         sodipodi:role="line"
         x="10.318196"
         y="76.552528"
         style="stroke-width:0.491142;fill:#ffffff;"
         id="tspan853">33 XI 2022</tspan></text>
  </g>
</svg>
