<?xml version="1.0" encoding="UTF-8" standalone="no"?>
<svg
   xmlns:dc="http://purl.org/dc/elements/1.1/"
   xmlns:cc="http://creativecommons.org/ns#"
   xmlns:rdf="http://www.w3.org/1999/02/22-rdf-syntax-ns#"
   xmlns:svg="http://www.w3.org/2000/svg"
   xmlns="http://www.w3.org/2000/svg"
   xmlns:sodipodi="http://sodipodi.sourceforge.net/DTD/sodipodi-0.dtd"
   xmlns:inkscape="http://www.inkscape.org/namespaces/inkscape"
   width="40mm"
   height="50mm"
   viewBox="0 0 40 50"
   version="1.1"
   id="svg8"
   inkscape:version="1.0.2 (1.0.2+r75+1)"
   sodipodi:docname="ogrod.svg">
  <defs
     id="defs2" />
  <sodipodi:namedview
     id="base"
     pagecolor="#ffffff"
     bordercolor="#666666"
     borderopacity="1.0"
     inkscape:pageopacity="0.0"
     inkscape:pageshadow="2"
     inkscape:zoom="3.1772599"
     inkscape:cx="-46.654725"
     inkscape:cy="75.910627"
     inkscape:document-units="mm"
     inkscape:current-layer="layer1"
     inkscape:document-rotation="0"
     showgrid="false"
     inkscape:window-width="1848"
     inkscape:window-height="1016"
     inkscape:window-x="72"
     inkscape:window-y="27"
     inkscape:window-maximized="1" />
  <metadata
     id="metadata5">
    <rdf:RDF>
      <cc:Work
         rdf:about="">
        <dc:format>image/svg+xml</dc:format>
        <dc:type
           rdf:resource="http://purl.org/dc/dcmitype/StillImage" />
        <dc:title></dc:title>
      </cc:Work>
    </rdf:RDF>
  </metadata>
  <g
     inkscape:label="Layer 1"
     inkscape:groupmode="layer"
     id="layer1">
    <path
       style="fill:#000000;stroke-width:0.187923"
       d="m 0.32614479,37.693016 v -7.22437 L 0.7438042,30.176105 c 0.5986321,-0.419297 1.754148,-0.375804 2.2132587,0.0833 0.3230956,0.323097 0.3758458,0.62641 0.3758458,2.161113 v 1.785265 h 1.1275367 1.1275365 v -1.868572 c 0,-1.717896 0.03368,-1.89216 0.4176594,-2.161111 0.5986327,-0.419297 1.7541478,-0.375804 2.2132595,0.0833 0.3230948,0.323096 0.375845,0.626409 0.375845,2.161112 v 1.785266 H 9.7222823 10.849819 V 32.33721 c 0,-1.717896 0.03368,-1.89216 0.417659,-2.161112 0.229713,-0.160896 0.718289,-0.292539 1.085724,-0.292539 0.367435,0 0.856009,0.131643 1.085722,0.292539 0.383981,0.268952 0.417659,0.443216 0.417659,2.161112 v 1.868572 h 1.127538 1.127536 v -1.785266 c 0,-2.121558 0.246162,-2.536957 1.503382,-2.536957 1.25722,0 1.503382,0.415399 1.503382,2.536957 v 1.785266 h 1.127537 1.127536 V 32.33721 c 0,-1.717896 0.03368,-1.89216 0.41766,-2.161112 0.229712,-0.160896 0.718288,-0.292539 1.085723,-0.292539 0.367433,0 0.856009,0.131643 1.085721,0.292539 l 0.41766,0.292541 v 7.22437 7.22437 h -1.503381 -1.503383 v -1.315452 -1.315459 h -1.127536 -1.127537 v 1.315459 1.315459 h -1.503382 -1.503382 v -1.315459 -1.315459 h -1.127536 -1.127538 v 1.315459 1.315459 H 12.353202 10.849819 V 43.601927 42.286468 H 9.7222823 8.5947458 v 1.315459 1.315459 H 7.0913642 5.5879819 V 43.601927 42.286468 H 4.4604454 3.3329087 v 1.315459 1.315459 H 1.8295264 0.32614479 Z m 5.26183711,0.45915 V 35.521248 H 4.4604454 3.3329087 v 2.630918 2.630919 h 1.1275367 1.1275365 z m 5.2618371,0 V 35.521248 H 9.7222823 8.5947458 v 2.630918 2.630919 h 1.1275365 1.1275367 z m 5.261838,0 v -2.630918 h -1.127536 -1.127538 v 2.630918 2.630919 h 1.127538 1.127536 z m 5.261837,0 v -2.630918 h -1.127536 -1.127537 v 2.630918 2.630919 h 1.127537 1.127536 z m 4.907714,0.780291 c -0.21607,-0.146141 -0.234861,-0.872139 -0.110874,-4.283564 0.225926,-6.216144 0.180178,-7.857369 -0.257698,-9.245228 l -0.375848,-1.191249 0.40833,0.09786 c 0.224581,0.05382 0.718524,0.154034 1.097651,0.222686 0.609734,0.110407 0.737081,0.235825 1.102916,1.086232 l 0.413587,0.961415 0.455115,-1.214346 c 0.59124,-1.577551 0.953067,-1.953415 1.631989,-1.695288 0.39674,0.15084 0.487212,0.286163 0.413759,0.618883 -1.179782,5.343996 -0.53605,11.749616 1.423704,14.166914 0.123178,0.151935 -0.393083,0.242563 -1.852271,0.325161 -1.112678,0.06299 -2.488158,0.16221 -3.056624,0.2205 -0.568467,0.05829 -1.150649,0.02679 -1.293737,-0.06999 z m 0.173067,-15.659358 c -0.357976,-0.102463 -0.900452,-0.364011 -1.205506,-0.581228 -0.449563,-0.320118 -0.843992,-0.397235 -2.081968,-0.407058 -1.140177,-0.0091 -1.658581,-0.09807 -2.045133,-0.351195 -0.622789,-0.40782 -1.249886,-1.385245 -1.250853,-1.949644 -5.64e-4,-0.332235 -0.187354,-0.463751 -0.990036,-0.697097 -1.75449,-0.510044 -2.788431,-2.073498 -2.371009,-3.585274 0.160873,-0.582634 1.00956,-1.508901 1.77501,-1.937269 0.277123,-0.155085 0.287537,-0.264842 0.08373,-0.882372 -0.594836,-1.802366 0.21657,-3.868389 1.860019,-4.7360288 0.879883,-0.464524 2.248371,-0.5800198 3.08838,-0.2606488 0.350135,0.1331215 0.640551,0.086853 1.179505,-0.1879226 0.393251,-0.20049 1.006128,-0.364527 1.361947,-0.364527 0.520093,0 0.770634,-0.1444973 1.277716,-0.7369092 1.573282,-1.8380241 4.280777,-1.6763066 5.611928,0.3351981 0.358817,0.5422098 0.661277,0.7726211 1.129527,0.8604657 1.2904,0.2420811 2.333804,1.6719486 2.048771,2.8076156 -0.09143,0.364296 1.87e-4,0.630453 0.367571,1.066979 0.269166,0.319886 0.538977,0.779176 0.599582,1.020647 0.06138,0.244515 0.297604,0.486076 0.53318,0.545202 1.073752,0.269494 2.161995,1.780534 2.171234,3.014782 0.0067,0.893685 -0.666842,2.04804 -1.492006,2.557123 -0.592499,0.365543 -0.749886,0.576241 -0.753886,1.00925 -0.0081,0.875805 -0.851457,2.106968 -1.842296,2.689415 -0.770587,0.452976 -1.085886,0.521781 -2.39102,0.521781 -1.239381,0 -1.640425,-0.07853 -2.283788,-0.447164 l -0.780406,-0.447164 -0.441092,0.41823 c -0.7661,0.726391 -2.091292,1.030439 -3.159106,0.724813 z"
       id="path216" />
  </g>
</svg>
