<?xml version="1.0" encoding="UTF-8" standalone="no"?>
<svg
   xmlns:dc="http://purl.org/dc/elements/1.1/"
   xmlns:cc="http://creativecommons.org/ns#"
   xmlns:rdf="http://www.w3.org/1999/02/22-rdf-syntax-ns#"
   xmlns:svg="http://www.w3.org/2000/svg"
   xmlns="http://www.w3.org/2000/svg"
   xmlns:sodipodi="http://sodipodi.sourceforge.net/DTD/sodipodi-0.dtd"
   xmlns:inkscape="http://www.inkscape.org/namespaces/inkscape"
   width="50mm"
   height="70mm"
   viewBox="0 0 50 70"
   version="1.1"
   id="svg8"
   inkscape:version="1.0.1 (3bc2e813f5, 2020-09-07)"
   sodipodi:docname="other2.svg">
  <defs
     id="defs2" />
  <sodipodi:namedview
     id="base"
     pagecolor="#ffffff"
     bordercolor="#666666"
     borderopacity="1.0"
     inkscape:pageopacity="0.0"
     inkscape:pageshadow="2"
     inkscape:zoom="1.979899"
     inkscape:cx="44.782134"
     inkscape:cy="105.25791"
     inkscape:document-units="mm"
     inkscape:current-layer="layer1"
     inkscape:document-rotation="0"
     showgrid="false"
     inkscape:window-width="1920"
     inkscape:window-height="1137"
     inkscape:window-x="-8"
     inkscape:window-y="-8"
     inkscape:window-maximized="1" />
  <metadata
     id="metadata5">
    <rdf:RDF>
      <cc:Work
         rdf:about="">
        <dc:format>image/svg+xml</dc:format>
        <dc:type
           rdf:resource="http://purl.org/dc/dcmitype/StillImage" />
        <dc:title></dc:title>
      </cc:Work>
    </rdf:RDF>
  </metadata>
  <g
     inkscape:label="Layer 1"
     inkscape:groupmode="layer"
     id="layer1">
    <path
       style="fill:#000000;stroke-width:0.142258"
       d="m 14.735715,36.392541 c -0.890113,-0.454825 -1.187895,-0.928325 -1.253484,-1.993147 -0.04629,-0.751578 -0.0037,-0.96187 0.277872,-1.372404 0.478997,-0.698343 0.992528,-1.030038 1.722005,-1.11226 0.854822,-0.09635 1.563529,0.158974 2.082767,0.750352 1.11719,1.27241 0.75205,3.091876 -0.758142,3.777772 -0.769986,0.34971 -1.314022,0.336493 -2.071018,-0.05032 z m 8.820006,0 c -0.890113,-0.454825 -1.187895,-0.928325 -1.253484,-1.993147 -0.04629,-0.751578 -0.0037,-0.96187 0.277872,-1.372404 0.478997,-0.698343 0.992529,-1.030038 1.722004,-1.11226 0.854823,-0.09635 1.56353,0.158974 2.082768,0.750352 0.770011,0.876995 0.849574,2.136824 0.192034,3.040723 -0.339686,0.466956 -1.389131,1.006817 -1.957165,1.006817 -0.240689,0 -0.719503,-0.144037 -1.064029,-0.320081 z m 8.812826,0 c -0.891728,-0.450487 -1.27605,-1.082458 -1.27605,-2.098308 0,-0.894094 0.312804,-1.509512 1.041803,-2.049663 0.56625,-0.419563 2.04265,-0.421997 2.602122,-0.0043 1.160935,0.866762 1.449514,2.380893 0.660499,3.465526 -0.339686,0.466961 -1.389131,1.006823 -1.957165,1.006823 -0.240689,0 -0.722734,-0.144037 -1.071209,-0.320082 z"
       id="path969" />
  </g>
</svg>
