<?xml version="1.0" encoding="UTF-8" standalone="no"?>
<svg
   xmlns:dc="http://purl.org/dc/elements/1.1/"
   xmlns:cc="http://creativecommons.org/ns#"
   xmlns:rdf="http://www.w3.org/1999/02/22-rdf-syntax-ns#"
   xmlns:svg="http://www.w3.org/2000/svg"
   xmlns="http://www.w3.org/2000/svg"
   xmlns:sodipodi="http://sodipodi.sourceforge.net/DTD/sodipodi-0.dtd"
   xmlns:inkscape="http://www.inkscape.org/namespaces/inkscape"
   width="200mm"
   height="260mm"
   viewBox="0 0 200 260"
   version="1.1"
   id="svg8"
   inkscape:version="1.0.1 (3bc2e813f5, 2020-09-07)"
   sodipodi:docname="other.svg">
  <defs
     id="defs2" />
  <sodipodi:namedview
     id="base"
     pagecolor="#ffffff"
     bordercolor="#666666"
     borderopacity="1.0"
     inkscape:pageopacity="0.0"
     inkscape:pageshadow="2"
     inkscape:zoom="0.7"
     inkscape:cx="377.08845"
     inkscape:cy="419.16319"
     inkscape:document-units="mm"
     inkscape:current-layer="layer1"
     inkscape:document-rotation="0"
     showgrid="false"
     inkscape:window-width="1920"
     inkscape:window-height="1137"
     inkscape:window-x="-8"
     inkscape:window-y="-8"
     inkscape:window-maximized="1" />
  <metadata
     id="metadata5">
    <rdf:RDF>
      <cc:Work
         rdf:about="">
        <dc:format>image/svg+xml</dc:format>
        <dc:type
           rdf:resource="http://purl.org/dc/dcmitype/StillImage" />
        <dc:title></dc:title>
      </cc:Work>
    </rdf:RDF>
  </metadata>
  <g
     inkscape:label="Layer 1"
     inkscape:groupmode="layer"
     id="layer1">
    <text
       xml:space="preserve"
       style="font-style:normal;font-variant:normal;font-weight:normal;font-stretch:normal;font-size:23.4971px;line-height:1.25;font-family:'Artifakt Element';-inkscape-font-specification:'Artifakt Element';stroke-width:1.25876"
       x="72.525826"
       y="222.74413"
       id="text851-6"><tspan
         sodipodi:role="line"
         id="tspan849-2"
         x="72.525826"
         y="222.74413"
         style="font-style:normal;font-variant:normal;font-weight:normal;font-stretch:normal;font-family:'Artifakt Element';-inkscape-font-specification:'Artifakt Element';stroke-width:1.25876">INNE</tspan></text>
    <path
       style="fill:#333333;stroke:none;stroke-width:0.791995"
       d="m 113.19246,97.369785 c -11.66767,-7.695816 -16.052156,-7.695816 -27.719826,0 0,-10.558879 0.0722,-21.121005 -6.3e-4,-31.679805 -0.0554,-8.048492 -8.08366,-10.259426 -14.25528,-13.797585 -4.93223,-2.82766 -11.70894,-8.742281 -17.4239,-9.398211 -3.1146,-0.357507 -6.19173,2.216715 -8.71194,3.710022 -6.85844,4.063807 -16.17856,7.424243 -21.92409,12.97993 -4.79355,4.635231 -1.83577,21.503856 -1.83577,27.889713 0,8.479096 -2.8119,22.929851 0.47789,30.741301 2.7053,6.42308 18.1496,12.04941 24.07396,15.41697 2.33884,1.32897 5.07202,3.50062 7.91995,3.17353 4.58621,-0.52668 9.21067,-4.78365 13.46392,-6.56406 0,4.29816 -1.25111,10.89865 0.47789,14.87922 1.17596,2.70703 5.03408,4.11995 7.44206,5.49011 6.30444,3.58694 16.47192,12.56974 23.75986,12.98158 7.077266,0.40075 18.493086,-9.53641 24.551846,-12.98158 2.40766,-1.36936 6.26626,-2.78308 7.44238,-5.49011 1.72892,-3.98057 0.47757,-10.58106 0.47757,-14.87922 4.25301,1.78041 8.87747,6.03738 13.46392,6.56406 6.96876,0.79991 19.37378,-9.80728 25.34384,-13.23345 2.3451,-1.34639 5.55743,-2.62071 6.65038,-5.29369 1.59429,-3.90216 0.47757,-10.00766 0.47757,-14.17276 V 72.817936 48.266087 c 0,-2.913434 0.81418,-7.303305 -1.26956,-9.671371 -5.03155,-5.717967 -15.87792,-9.619731 -22.49029,-13.415051 -2.48924,-1.428997 -5.68018,-4.053035 -8.71194,-3.676442 -5.8576,0.727685 -13.17959,6.832463 -18.21589,9.816859 -3.49508,2.071385 -11.20198,4.733201 -12.98635,8.542698 -2.19541,4.688294 -0.47757,13.561571 -0.47757,18.699244 V 97.369785 M 169.42411,44.30611 c -6.15618,3.767839 -19.27082,8.131653 -22.94568,14.422154 -2.6912,4.605531 -0.81417,14.398154 -0.81417,19.633638 v 49.103708 c -3.93542,-1.1579 -12.74082,-4.56506 -14.00406,-8.87827 -0.93059,-3.1759 0.69221,-6.97748 -1.06602,-9.96092 -2.0378,-3.46023 -7.37031,-3.67169 -9.00419,-7.46297 -3.64397,-8.459308 -0.47758,-24.661074 -0.47758,-33.88948 0,-6.170275 -2.11462,-17.043418 0.47758,-22.667773 1.47786,-3.206471 6.91491,-5.097914 9.81836,-6.755243 3.819,-2.180046 9.03112,-6.597003 13.46392,-7.06927 6.15538,-0.655772 20.17132,9.422208 24.55184,13.524426 M 76.760684,64.10599 v 1.58399 c -6.20987,3.662185 -19.31367,8.045324 -22.94584,14.402431 -2.04335,3.57665 -0.81401,10.108234 -0.81401,14.109394 v 33.263805 c -5.9996,-2.18433 -19.64275,-8.02529 -22.94584,-13.63262 -2.69817,-4.5801 -0.81401,-14.414315 -0.81401,-19.631185 0,-7.953215 -2.53368,-21.060022 0.47789,-28.428744 1.95686,-4.788086 17.4467,-12.996878 22.48996,-13.861104 7.11244,-1.218801 18.21962,9.237594 24.55185,12.194033 m 46.727716,48.31171 -24.551846,14.25591 0.79199,27.71983 c -6.11261,-1.93405 -20.24315,-8.26922 -23.73783,-13.77279 -1.82967,-2.88128 -0.81402,-8.29378 -0.81402,-11.57105 0,-4.49537 -1.32017,-11.49977 0.47789,-15.67359 1.93271,-4.48665 18.45001,-13.662715 23.28197,-13.932785 6.952916,-0.38807 18.699796,9.393075 24.551846,12.974475 z"
       id="path987" />
  </g>
</svg>
