<?xml version="1.0" encoding="UTF-8" standalone="no"?>
<svg
   xmlns:dc="http://purl.org/dc/elements/1.1/"
   xmlns:cc="http://creativecommons.org/ns#"
   xmlns:rdf="http://www.w3.org/1999/02/22-rdf-syntax-ns#"
   xmlns:svg="http://www.w3.org/2000/svg"
   xmlns="http://www.w3.org/2000/svg"
   xmlns:sodipodi="http://sodipodi.sourceforge.net/DTD/sodipodi-0.dtd"
   xmlns:inkscape="http://www.inkscape.org/namespaces/inkscape"
   width="50mm"
   height="80mm"
   viewBox="0 0 50 80"
   version="1.1"
   id="svg8"
   inkscape:version="1.0.1 (3bc2e813f5, 2020-09-07)"
   sodipodi:docname="planparter1.svg">
  <defs
     id="defs2" />
  <sodipodi:namedview
     id="base"
     pagecolor="#ffffff"
     bordercolor="#666666"
     borderopacity="1.0"
     inkscape:pageopacity="0.0"
     inkscape:pageshadow="2"
     inkscape:zoom="1.4"
     inkscape:cx="14.553135"
     inkscape:cy="195.72787"
     inkscape:document-units="mm"
     inkscape:current-layer="layer1"
     inkscape:document-rotation="0"
     showgrid="false"
     inkscape:window-width="1920"
     inkscape:window-height="1137"
     inkscape:window-x="-8"
     inkscape:window-y="-8"
     inkscape:window-maximized="1" />
  <metadata
     id="metadata5">
    <rdf:RDF>
      <cc:Work
         rdf:about="">
        <dc:format>image/svg+xml</dc:format>
        <dc:type
           rdf:resource="http://purl.org/dc/dcmitype/StillImage" />
        <dc:title></dc:title>
      </cc:Work>
    </rdf:RDF>
  </metadata>
  <g
     inkscape:label="Layer 1"
     inkscape:groupmode="layer"
     id="layer1">
    <g
       id="g2871"
       transform="matrix(0.38924661,0,0,0.38924661,-39.15582,-34.987995)">
      <path
         style="fill:#bfd6eb;fill-opacity:0.690763;stroke-width:0.264583"
         d="m 126.93491,221.66515 c 0,-1.14653 0.11171,-1.98438 0.26458,-1.98438 0.14552,0 0.26459,0.48166 0.26459,1.07036 0,0.78366 0.17395,1.24432 0.64943,1.71979 l 0.64943,0.64944 h 9.56319 c 10.63811,0 10.74225,-0.0153 12.08344,-1.77367 0.49057,-0.64318 0.69062,-1.22668 0.69062,-2.01443 0,-1.38817 -0.36382,-2.07692 -1.59214,-3.01417 l -0.96768,-0.73836 -9.91586,-0.0755 c -9.91471,-0.0754 -9.91594,-0.0754 -10.53815,0.50914 -0.46732,0.43902 -0.62228,0.86962 -0.62228,1.72911 0,0.62948 -0.11907,1.1445 -0.26459,1.1445 -0.15287,0 -0.26458,-0.83784 -0.26458,-1.98437 v -1.98438 h 12.43542 12.43541 v 4.36563 4.36562 h -12.43541 -12.43542 z m 25.4,-1.71979 v -3.70417 h 3.70417 3.70416 v 3.70417 3.70416 h -3.70416 -3.70417 z m 3.32475,-0.0282 c 0.12668,-0.20498 0.24612,-0.18743 0.3981,0.0585 0.27578,0.44621 0.41843,0.29775 0.66515,-0.69223 0.1791,-0.71862 0.15624,-0.75906 -0.24307,-0.43009 -0.28661,0.23613 -0.44076,0.25926 -0.44076,0.0661 0,-0.49052 -0.5267,-0.33432 -0.55986,0.16604 -0.0292,0.44097 -0.0365,0.44097 -0.1517,0 -0.0665,-0.25466 -0.24407,-0.46302 -0.39448,-0.46302 -0.15043,0 -0.20123,0.18833 -0.1129,0.41852 0.0883,0.23018 0.1606,0.58737 0.1606,0.79375 0,0.4458 0.42262,0.49709 0.67892,0.0824 z m -27.40183,2.4095 c -0.35278,-0.35278 -0.52917,-0.88195 -0.52917,-1.5875 0,-0.88195 0.0882,-1.05834 0.52917,-1.05834 0.29398,0 0.52916,-0.17639 0.52916,-0.39687 0,-0.22049 -0.23518,-0.39688 -0.52916,-0.39688 -0.44098,0 -0.52917,-0.17639 -0.52917,-1.05833 0,-0.70556 0.17639,-1.23472 0.52917,-1.5875 0.50971,-0.50971 0.88194,-0.52917 10.12444,-0.52917 8.83335,0 9.6678,0.0389 10.50867,0.48986 1.33427,0.71558 1.94466,1.66829 1.94466,3.03526 0,1.40774 -0.74714,2.57507 -2.0412,3.18914 -0.78313,0.37162 -2.19203,0.42949 -10.45625,0.42949 -9.19838,0 -9.5707,-0.0195 -10.08032,-0.52916 z m 2.05603,-2.96003 c -0.16353,-0.49059 -0.73312,-0.57196 -0.73312,-0.10473 0,0.23041 0.18852,0.41892 0.41893,0.41892 0.2304,0 0.37179,-0.14138 0.31419,-0.31419 z m -2.37023,-0.13113 c 0.191,-0.0764 0.4192,-0.067 0.50712,0.0209 0.0879,0.0879 -0.0684,0.15045 -0.34726,0.13896 -0.30823,-0.0127 -0.37092,-0.0754 -0.15986,-0.15985 z m -2.59622,-4.65464 v -2.45412 l 2.35367,0.24013 c 2.07593,0.2118 2.47232,0.18137 3.35903,-0.25785 1.22973,-0.60913 1.63917,-1.60574 1.14742,-2.79294 -0.5198,-1.25489 -1.68249,-1.61371 -4.51175,-1.39238 l -2.34837,0.18371 v -2.15079 -2.1508 h 13.22917 13.22916 v -1.19062 -1.19063 h 3.96875 3.96875 v 7.27604 7.27605 h -3.83646 -3.83645 v -0.66146 -0.66146 h -12.7 -12.7 v 1.19063 c 0,1.09361 -0.0539,1.19062 -0.66146,1.19062 -0.65802,0 -0.66146,-0.0128 -0.66146,-2.45413 z m 2.9089,-2.57201 c 0.20365,-0.12587 0.0717,-0.25694 -0.37022,-0.36787 -0.62367,-0.15653 -0.6866,-0.29264 -0.6866,-1.48516 0,-1.19251 0.0629,-1.32863 0.6866,-1.48516 0.41341,-0.10376 0.56692,-0.24629 0.3858,-0.35823 -0.16544,-0.10225 0.31583,-0.14902 1.0695,-0.10393 1.92518,0.11516 2.6206,0.63191 2.6206,1.94732 0,1.31296 -0.65416,1.79899 -2.61708,1.94445 -0.77275,0.0573 -1.26262,0.0161 -1.0886,-0.0914 z m -2.73251,-0.17733 c -0.097,-0.097 -0.17639,-0.93045 -0.17639,-1.85209 v -1.67569 l 1.25677,0.0307 c 0.69122,0.0169 1.04841,0.0851 0.79375,0.1517 -0.36856,0.0963 -0.46302,0.41122 -0.46302,1.54365 0,1.07579 0.11289,1.48842 0.46302,1.69235 0.36963,0.21529 0.2451,0.27131 -0.61736,0.27773 -0.59421,0.004 -1.15976,-0.0713 -1.25677,-0.16834 z m -0.17639,-11.2007 v -2.91041 h 5.95312 c 5.53969,0 7.2022,0.21278 5.1626,0.66075 -1.53324,0.33675 -2.36531,2.23103 -1.40278,3.19356 1.32563,1.32562 3.40017,1.41695 4.83135,0.21268 1.39176,-1.17109 0.95718,-2.46889 -1.13937,-3.40251 l -1.36638,-0.60847 4.29948,-0.0374 c 2.36471,-0.0206 4.29827,0.0561 4.29679,0.17043 -0.001,0.1143 -0.4759,0.40656 -1.05426,0.64945 -2.04492,0.85882 -2.10836,2.70348 -0.12598,3.66314 1.44573,0.69987 2.63321,0.56479 3.82097,-0.43465 1.39239,-1.17161 0.95644,-2.4717 -1.13937,-3.39787 l -1.36638,-0.60383 2.71198,-0.0433 2.71198,-0.0433 v 2.92105 2.92106 h -13.09688 -13.09687 z m 11.11794,1.56912 c -1.57454,-0.65779 -2.02475,-1.79393 -1.12992,-2.85144 0.25466,-0.30096 0.79044,-0.62471 1.19063,-0.71945 0.60876,-0.14412 0.7276,-0.0858 0.7276,0.35728 0,0.55457 0.67409,0.99383 0.91843,0.59848 0.0779,-0.12603 0.069,-0.41849 -0.0198,-0.6499 -0.20347,-0.53024 0.22598,-0.53691 1.22738,-0.019 0.78164,0.4042 1.23154,1.38691 0.95949,2.09584 -0.3883,1.01191 -2.64149,1.70306 -3.87377,1.18826 z m 8.48104,-0.16739 c -0.49843,-0.26163 -1.02197,-0.66562 -1.16344,-0.89775 -0.41172,-0.67561 0.0212,-1.78017 0.86974,-2.21896 1.02414,-0.5296 1.33222,-0.50667 1.33222,0.0992 0,0.53263 0.68048,0.9548 0.91843,0.56979 0.0779,-0.12603 0.069,-0.41849 -0.0198,-0.6499 -0.20347,-0.53024 0.22598,-0.53691 1.22738,-0.019 0.78164,0.4042 1.23153,1.38691 0.95949,2.09584 -0.44893,1.16989 -2.75331,1.74032 -4.12398,1.02086 z m 6.85935,-2.72464 v -1.85209 h 3.96875 3.96875 v 1.85209 1.85208 h -3.96875 -3.96875 z"
         id="path2885" />
      <path
         style="fill:#cbcbcb;stroke-width:0.264583"
         d="m 161.59533,268.11104 v -8.71973 l 8.99583,-0.009 8.99583,-0.009 v 8.72838 8.72837 h -8.99583 -8.99583 v -8.71973 z"
         id="path2883" />
      <path
         style="fill:#e7b1b1;fill-opacity:0.546185;stroke-width:0.264583"
         d="m 161.59533,218.2861 v -5.628 l 1.61319,-0.30658 c 4.72643,-0.89822 8.11316,-4.56175 8.81728,-9.53793 l 0.15911,-1.12448 h -5.29122 -5.29123 l -0.0697,-8.7974 -0.0697,-8.7974 -12.76044,-0.0687 -12.76044,-0.0687 -0.0779,-5.09069 -0.0779,-5.0907 -0.0601,5.09323 -0.0601,5.09323 h -3.30729 -3.30729 v -5.15937 -5.15938 h 3.43958 3.43958 l -0.0556,-4.29948 -0.0556,-4.29948 -0.14279,4.10105 -0.1428,4.10104 h -3.175 -3.175 l -0.0728,-4.32064 -0.0728,-4.32064 3.45859,0.0873 3.45858,0.0873 -0.0785,-1.05833 -0.0785,-1.05834 h -5.22567 -5.22567 l 1.5e-4,-9.19427 1.5e-4,-9.19427 6.21771,-0.0397 c 3.41974,-0.0218 6.36653,-0.0516 6.54844,-0.0661 0.1819,-0.0145 0.37262,0.27079 0.42382,0.63411 0.0512,0.36331 0.43157,1.40703 0.84525,2.31938 1.63876,3.61422 5.58231,6.50318 9.35846,6.8558 l 1.74174,0.16265 v -4.9992 -4.9992 h 5.95312 5.95313 v 5.10153 c 0,5.84697 -0.10939,5.61087 2.3846,5.14706 4.43165,-0.82415 8.33555,-4.35182 9.74541,-8.80625 0.33115,-1.04624 0.54845,-1.4509 0.5614,-1.04546 0.0116,0.3638 0.29877,1.33645 0.6381,2.16144 1.75919,4.27704 5.77791,7.33806 10.24722,7.80519 l 1.55868,0.16291 -1.4e-4,-5.26321 -1.3e-4,-5.26321 8.33451,0.0734 8.33451,0.0734 v 8.59168 8.59168 h -1.5875 -1.5875 v -1.5875 -1.5875 h -2.64583 -2.64584 v 1.5875 1.5875 h -3.0427 -3.04271 v -1.5875 -1.5875 h -2.77813 -2.77812 v 1.5875 1.5875 h -1.5875 -1.5875 v 1.17742 1.17742 l -1.52136,0.0794 -1.52135,0.0794 -0.0754,2.71198 -0.0754,2.71198 h 1.59675 1.59676 v 1.32292 1.32291 h 1.5875 1.5875 v 1.45521 1.45521 h 2.77812 2.77813 v -1.45521 -1.45521 h 3.04271 3.0427 v 1.45521 1.45521 h 2.64584 2.64583 v -1.45521 -1.45521 h 1.5875 1.5875 v 6.08542 6.08542 H 192.55166 180.91 v 5.29166 5.29167 h 7.67291 7.67292 v 10.58333 10.58334 h -11.1125 -11.1125 v 3.96875 3.96875 h -6.21771 -6.2177 z m 23.36687,-34.63188 c 1.83427,-0.97694 1.54168,-3.57395 -0.45924,-4.07615 -0.72668,-0.18239 -2.12996,0.46202 -2.37036,1.08851 -0.46618,1.21485 -0.061,2.39521 1.02627,2.98992 0.68661,0.37554 1.09491,0.37503 1.80333,-0.002 z m -1.80333,-0.27294 c -0.74031,-0.4198 -0.91734,-0.74919 -0.92199,-1.71546 -0.0118,-2.44792 3.4381,-2.46963 3.64813,-0.023 0.0647,0.75354 -0.0581,1.04442 -0.631,1.49507 -0.79504,0.62538 -1.31495,0.68577 -2.09514,0.24335 z m 10.35691,-0.0464 c 1.42993,-1.22997 0.77177,-3.37803 -1.15296,-3.76297 -0.71316,-0.14264 -0.97658,-0.0415 -1.65273,0.63467 -1.03544,1.03544 -1.04512,1.96791 -0.031,2.98207 0.94232,0.94233 1.85634,0.98945 2.83664,0.14623 z m -2.69602,-0.28684 c -0.83843,-0.83843 -0.82743,-1.84246 0.0296,-2.69945 0.54977,-0.54977 0.83865,-0.64707 1.51781,-0.51124 1.15512,0.23103 1.61319,0.77225 1.61319,1.90605 0,1.78844 -1.89467,2.57053 -3.16056,1.30464 z m 10.17818,0.22904 c 0.6082,-0.51177 0.81405,-0.90726 0.81405,-1.56399 0,-0.65673 -0.20585,-1.05221 -0.81405,-1.56398 -0.937,-0.78843 -1.30385,-0.83475 -2.3454,-0.29614 -1.97652,1.0221 -1.18268,4.00627 1.08863,4.09231 0.2435,0.009 0.80904,-0.29147 1.25677,-0.6682 z m -2.18528,0.23362 c -0.70464,-0.18187 -1.23259,-1.59039 -0.9259,-2.47017 0.23545,-0.67542 1.16574,-1.31181 1.91762,-1.31181 0.19181,0 0.66246,0.24677 1.04589,0.54837 0.96411,0.75837 0.96411,2.11364 0,2.87201 -0.68637,0.5399 -1.07774,0.60935 -2.03761,0.3616 z m -24.51734,36.43469 v -3.70417 h 3.83646 3.83646 v 3.70417 3.70416 h -3.83646 -3.83646 z m 7.9375,1.71979 v -1.71979 h 2.51355 2.51354 v 1.3073 c 0,0.75584 0.13951,1.39715 0.33073,1.52031 0.1819,0.11716 1.0451,0.28462 1.91823,0.37215 1.00875,0.10112 -0.0282,0.17384 -2.84427,0.19947 l -4.43178,0.0403 z m 11.07355,1.45677 c 1.90285,-0.21579 2.14579,-0.44749 2.15157,-2.05208 l 0.004,-1.12448 h 2.36185 c 2.0269,0 2.37901,0.0657 2.48285,0.46302 0.11524,0.44097 0.12246,0.44097 0.15169,0 0.022,-0.33126 0.25657,-0.46302 0.82444,-0.46302 h 0.79375 v 1.71979 1.71979 l -5.22552,-0.0362 c -3.67827,-0.0255 -4.72783,-0.0926 -3.54468,-0.22682 z m -5.45115,-0.44137 c -0.21285,-0.0859 -0.31591,-0.62069 -0.28916,-1.50047 l 0.0416,-1.36701 0.15686,1.32291 0.15688,1.32292 1.5875,0.15396 1.5875,0.15396 -1.45521,0.0236 c -0.80037,0.013 -1.60404,-0.0365 -1.78594,-0.10986 z m 5.09323,-0.0818 1.5875,-0.1832 -1.52135,-0.0445 c -1.11523,-0.0326 -1.52136,-0.14455 -1.52136,-0.41931 0,-0.20615 0.14883,-0.42897 0.33073,-0.49515 0.43662,-0.15885 -0.0986,-1.1144 -0.62415,-1.1144 -0.26269,0 -0.34583,0.28399 -0.29044,0.99219 l 0.0776,0.99219 h -1.46666 -1.46666 v -1.19063 -1.19062 h 3.32112 3.32112 l -0.08,1.38906 -0.08,1.38906 -1.5875,0.0293 -1.5875,0.0292 z m 2.06005,-1.46279 c 0.002,-0.7276 0.0534,-0.99386 0.11418,-0.59167 0.0608,0.40218 0.0592,0.99749 -0.004,1.32291 -0.0628,0.32543 -0.11256,-0.004 -0.11058,-0.73124 z m -3.99371,-0.15213 c 0.0521,-0.15644 0.20791,-0.28443 0.34616,-0.28443 0.13824,0 0.29402,0.12799 0.34616,0.28443 0.0522,0.15643 -0.10363,0.28442 -0.34616,0.28442 -0.24254,0 -0.39831,-0.12799 -0.34616,-0.28442 z m -8.78197,-3.02287 v -1.71979 h 2.51355 2.51354 v 1.71979 1.71979 h -2.51354 -2.51355 z m 5.37761,0 -0.006,-1.5875 h 3.77201 c 2.0746,0 3.65132,0.0744 3.5038,0.16537 -0.17661,0.10889 -0.1682,0.22716 0.0246,0.34634 0.16315,0.10083 0.27374,0.78921 0.24971,1.55443 l -0.0431,1.37345 -0.15532,-1.45521 -0.15531,-1.45521 -3.4923,-0.0737 -3.4923,-0.0737 -0.0996,1.39664 -0.0996,1.39665 -0.006,-1.5875 z m 0.49488,0.46302 0.0806,-1.25677 3.24115,-0.0743 3.24114,-0.0743 v 1.33106 1.33106 h -3.32179 -3.32179 z m 7.35668,-0.43216 c 0,-1.46642 0.0697,-1.70716 0.52917,-1.82731 0.51806,-0.13548 0.52916,-0.3609 0.52916,-10.74649 v -10.6081 h 1.85209 1.85208 v 4.89479 4.89479 h -1.5875 -1.5875 v 3.96875 3.96875 h 1.5875 1.5875 v 3.57188 3.57187 h -2.38125 -2.38125 z m 5.02708,-1.86974 v -3.55867 l 1.52136,-0.0794 1.52135,-0.0794 0.0732,-3.9026 0.0732,-3.90261 h -1.59457 -1.59458 v -4.89479 -4.89479 h 1.85209 1.85208 v 11.1125 11.1125 h -1.05833 -1.05834 v 1.32292 c 0,1.29352 -0.0176,1.32291 -0.79375,1.32291 h -0.79375 z m -39.15833,-9.00904 v -5.15937 h 5.27503 5.27504 l -0.13984,0.99219 c -0.62554,4.43827 -3.34694,7.67586 -7.48169,8.90081 -0.7904,0.23417 -1.77266,0.42575 -2.18281,0.42575 h -0.74573 z m 35.98333,1.45521 v -3.70416 h 1.45521 1.45521 v 3.70416 3.70417 h -1.45521 -1.45521 z m 3.175,0 v -3.70416 h 1.45521 1.45521 v 3.70416 3.70417 h -1.45521 -1.45521 z m -75.08157,-19.24843 0.0601,-5.22553 0.0779,5.08754 0.0779,5.08754 5.08754,0.0779 5.08753,0.0779 -5.22552,0.0601 -5.22552,0.0601 z m 15.55033,4.96093 5.15937,-0.14961 -5.09323,-0.0575 -5.09323,-0.0575 v -0.66146 -0.66146 h 5.15938 5.15937 v 0.92604 0.92605 l -5.22552,-0.0575 -5.22552,-0.0575 z m 11.77395,0.003 6.35,-0.14424 -6.2177,-0.12758 c -6.20267,-0.12739 -6.21792,-0.12914 -6.30226,-0.72301 l -0.0846,-0.59532 h 6.3684 6.36841 v 0.92604 0.92605 l -6.41615,-0.0589 -6.41615,-0.0589 6.35,-0.14424 z m 6.80731,-4.83129 0.0719,-5.09323 0.8599,-0.0829 0.85989,-0.0829 v 5.17614 5.17614 h -0.93175 -0.93176 z m 21.6354,0.0661 v -5.02708 h 11.50938 11.50937 v 5.02708 5.02709 h -11.50937 -11.50938 z m -55.12152,4.32153 c -0.097,-0.097 -0.17639,-2.29967 -0.17639,-4.89479 v -4.7184 h 0.66145 0.66146 v 4.15013 c 0,3.92642 -0.0321,4.18671 -0.59531,4.82865 l -0.59531,0.67851 0.67851,-0.59531 c 0.64193,-0.56323 0.90223,-0.59532 4.82864,-0.59532 h 4.15014 v 0.66146 0.66146 h -4.7184 c -2.59512,0 -4.79778,-0.0794 -4.89479,-0.17639 z m 1.5875,-1.5875 c -0.097,-0.097 -0.17639,-1.94248 -0.17639,-4.10104 v -3.92465 h 0.66145 0.66146 v 3.35638 c 0,3.10327 -0.0449,3.40755 -0.59531,4.0349 l -0.59531,0.67851 0.67851,-0.59531 c 0.62734,-0.55042 0.93163,-0.59532 4.03489,-0.59532 h 3.35639 v 0.66146 0.66146 h -3.92465 c -2.15856,0 -4.00403,-0.0794 -4.10104,-0.17639 z m 8.29027,-0.48507 v -0.66146 h 5.15938 5.15937 v 0.66146 0.66146 h -5.15937 -5.15938 z m 10.63108,0.0661 0.0845,-0.59532 6.28385,-0.0709 6.28386,-0.0709 v 0.66624 0.66625 h -6.36841 -6.3684 z m -17.51024,-4.29158 v -3.29938 l 3.37343,-0.074 c 1.85539,-0.0407 5.72493,-0.0395 8.59896,0.003 l 5.22552,0.0768 v 3.29667 3.29667 h -5.15147 -5.15147 l -0.0827,-3.37344 -0.0827,-3.37344 -0.0575,3.37344 -0.0575,3.37344 h -3.30729 -3.30729 z m 17.57703,2.95166 c -0.0734,-0.19126 -0.0994,-1.64977 -0.0578,-3.24115 l 0.0756,-2.89341 6.28385,-0.0709 6.28386,-0.0709 v 3.31208 3.31208 h -6.22602 c -4.8991,0 -6.25445,-0.0741 -6.35945,-0.34773 z m -21.17003,-11.69081 c -2.3e-4,-2.91042 0.0384,-4.13714 0.0859,-2.72605 0.0475,1.41108 0.0477,3.79233 4.2e-4,5.29166 -0.0472,1.49933 -0.0861,0.3448 -0.0863,-2.56561 z m 0.418,0 v -5.15938 h 0.66145 0.66146 v 5.15938 5.15937 h -0.66146 -0.66145 z m 1.5875,0.0184 v -5.17777 h 0.66717 0.66717 l -0.0719,5.09323 c -0.0713,5.05566 -0.0763,5.09386 -0.66717,5.17778 l -0.59531,0.0846 v -5.17778 z m 58.40087,-4.3104 c 0.46969,-0.0584 1.30313,-0.0594 1.85208,-0.002 0.54895,0.0573 0.16465,0.1051 -0.854,0.10627 -1.01864,10e-4 -1.46778,-0.0457 -0.99808,-0.10414 z m 11.51527,-0.002 c 0.5457,-0.0571 1.43867,-0.0571 1.98437,0 0.54571,0.0571 0.0992,0.10379 -0.99218,0.10379 -1.09141,0 -1.53789,-0.0467 -0.99219,-0.10379 z m -13.03073,-1.39467 v -1.05834 h 2.51354 2.51354 v 1.05834 1.05833 h -2.51354 -2.51354 z m 11.64167,0 v -1.05834 h 2.38125 2.38125 v 1.05834 1.05833 h -2.38125 -2.38125 z m -70.53549,-4.10105 c -2.9e-4,-2.47385 0.0395,-3.52149 0.0884,-2.32809 0.0489,1.1934 0.0492,3.21746 5.5e-4,4.49792 -0.0486,1.28045 -0.0886,0.30403 -0.0889,-2.16983 z m 0.60644,4.19839 c -0.10204,-0.10205 -0.18553,-2.07069 -0.18553,-4.37478 v -4.18923 h 0.66801 0.66801 l -0.0727,4.29611 c -0.0614,3.63054 -0.13618,4.30831 -0.48248,4.37477 -0.22537,0.0433 -0.49326,-0.005 -0.59531,-0.10687 z m 1.40197,-4.19839 v -4.40242 l 0.59531,0.0845 c 0.58903,0.0837 0.59531,0.1292 0.59531,4.31788 0,4.18869 -0.006,4.23423 -0.59531,4.31789 l -0.59531,0.0845 z m 53.71041,1.5875 v -1.19062 h 1.45521 1.45521 v 1.19062 1.19063 h -1.45521 -1.45521 z m 3.175,-0.26458 v -1.45521 h 2.51354 2.51354 v 1.45521 1.45521 h -2.51354 -2.51354 z m 5.23872,-0.0661 -0.0793,-1.52136 -2.71198,-0.0754 -2.71198,-0.0754 v -1.97512 -1.97512 h 2.77812 2.77813 v -1.45521 -1.45521 h 3.04271 3.0427 v 1.45521 1.45521 h 2.64584 2.64583 v -1.45521 -1.45521 h 1.5875 1.5875 v 5.02709 5.02708 h -1.5875 -1.5875 v -1.5875 -1.5875 h -2.64583 -2.64584 v 1.5875 1.5875 h -3.0295 -3.0295 z m 6.40295,0.0661 v -1.45521 h 2.38125 2.38125 v 1.45521 1.45521 h -2.38125 -2.38125 z m -17.19792,-3.70417 v -2.51354 h 1.05833 1.05834 v 2.51354 2.51355 h -1.05834 -1.05833 z m 2.38125,0 v -2.51354 h 1.32292 1.32291 v 2.51354 2.51355 h -1.32291 -1.32292 z m -3.175,0.1323 c 0,-1.05834 0.11339,-1.85209 0.26458,-1.85209 0.1512,0 0.26459,0.79375 0.26459,1.85209 0,1.05833 -0.11339,1.85208 -0.26459,1.85208 -0.15119,0 -0.26458,-0.79375 -0.26458,-1.85208 z m -47.57587,-2.31482 -5.11024,-0.078 0.0832,-0.72183 0.0832,-0.72183 5.09323,-0.0719 5.09323,-0.0719 v 0.93176 c 0,0.51246 -0.0298,0.90471 -0.0661,0.87166 -0.0364,-0.033 -2.36575,-0.0952 -5.17639,-0.13806 z m 47.57587,-0.0664 c 0,-0.14552 0.11906,-0.26459 0.26458,-0.26459 0.14553,0 0.26459,0.11907 0.26459,0.26459 0,0.14552 -0.11906,0.26458 -0.26459,0.26458 -0.14552,0 -0.26458,-0.11906 -0.26458,-0.26458 z m 6.35,-1.32292 v -1.32292 h 2.51354 2.51354 v 1.32292 1.32292 h -2.51354 -2.51354 z m 11.64167,0 v -1.32292 h 2.38125 2.38125 v 1.32292 1.32292 h -2.38125 -2.38125 z m -14.81667,-0.26458 v -1.05834 h 1.45521 1.45521 v 1.05834 1.05833 h -1.45521 -1.45521 z m 3.175,-2.38125 v -1.05834 h 2.51354 2.51354 v 1.05834 1.05833 h -2.51354 -2.51354 z m 11.64167,0 v -1.05834 h 2.38125 2.38125 v 1.05834 1.05833 h -2.38125 -2.38125 z m -11.64167,-1.5875 c 0,-0.14553 0.11906,-0.26459 0.26458,-0.26459 0.14553,0 0.26459,0.11906 0.26459,0.26459 0,0.14552 -0.11906,0.26458 -0.26459,0.26458 -0.14552,0 -0.26458,-0.11906 -0.26458,-0.26458 z m 0.79375,0 c 0,-0.14926 0.74965,-0.26459 1.71979,-0.26459 0.97014,0 1.71979,0.11533 1.71979,0.26459 0,0.14925 -0.74965,0.26458 -1.71979,0.26458 -0.97014,0 -1.71979,-0.11533 -1.71979,-0.26458 z m 3.70417,0 c 0,-0.14553 0.11906,-0.26459 0.26458,-0.26459 0.14552,0 0.26458,0.11906 0.26458,0.26459 0,0.14552 -0.11906,0.26458 -0.26458,0.26458 -0.14552,0 -0.26458,-0.11906 -0.26458,-0.26458 z m 7.67291,0 c 0,-0.1512 0.79375,-0.26459 1.85209,-0.26459 1.05833,0 1.85208,0.11339 1.85208,0.26459 0,0.15119 -0.79375,0.26458 -1.85208,0.26458 -1.05834,0 -1.85209,-0.11339 -1.85209,-0.26458 z m -33.86666,-9.6573 v -5.15937 h 5.95312 c 4.75872,0 5.95313,0.0702 5.95313,0.34974 0,0.74215 -0.91451,3.01652 -1.72115,4.28047 -2.05266,3.21639 -6.10709,5.65229 -9.4575,5.68207 l -0.7276,0.006 z m 21.45893,4.74067 c -2.05965,-0.55387 -3.9096,-1.63347 -5.4799,-3.19799 -1.45591,-1.45054 -2.92288,-4.08069 -3.18831,-5.71636 l -0.15996,-0.98569 h 5.98774 5.98775 v 5.15937 5.15938 l -0.8599,-0.0174 c -0.47294,-0.01 -1.50228,-0.19016 -2.28742,-0.4013 z m -36.53929,-0.30573 c -1.47507,-0.27515 -4.04473,-1.69786 -5.4259,-3.00412 -1.48971,-1.40891 -2.88303,-3.78768 -3.29909,-5.63244 l -0.21601,-0.95775 h 5.79297 5.79297 v 4.89479 4.89479 l -0.99219,-0.036 c -0.5457,-0.0198 -1.28944,-0.0915 -1.65275,-0.15924 z"
         id="path2881" />
      <path
         style="fill:#b1caca;fill-opacity:0.815261;stroke-width:0.264583"
         d="m 125.34741,275.90473 v -0.92604 h 1.85208 1.85209 v -3.175 -3.175 h 10.9802 10.98021 v -10.45104 -10.45104 h -10.98021 -10.9802 v -3.175 -3.175 h -1.85209 -1.85208 v -3.57188 -3.57187 h 17.19792 c 15.11064,0 17.19791,0.0482 17.19791,0.39687 0,0.33923 -0.75057,0.39688 -5.16768,0.39688 -5.89675,0 -5.69691,-0.0868 -5.17475,2.24648 0.4642,2.07427 1.45876,3.8755 2.97963,5.39637 1.5938,1.5938 3.46899,2.57433 5.72587,2.99405 l 1.63693,0.30441 v 15.43143 15.43142 h -17.19791 -17.19792 z m 0,-4.23333 v -3.04271 h 1.71979 1.71979 v 3.04271 3.04271 h -1.71979 -1.71979 z m 0,-13.49375 v -10.18646 h 3.88596 3.88596 l -0.77711,0.81449 c -0.72502,0.75989 -0.78277,0.77762 -0.86165,0.26458 -0.0794,-0.51626 -0.25337,-0.5499 -2.84427,-0.5499 h -2.75972 v 4.49791 4.49792 h 2.38125 c 2.36361,0 2.38125,0.005 2.38125,0.66146 0,0.65656 -0.0176,0.66146 -2.38125,0.66146 h -2.38125 v 4.49791 4.49792 h 2.75972 c 2.5909,0 2.76489,-0.0336 2.84427,-0.5499 0.0789,-0.51304 0.13663,-0.49531 0.86165,0.26458 l 0.77711,0.81449 h -3.88596 -3.88596 z m 16.61764,9.98817 -8.65007,-0.0735 -0.0812,-1.12088 c -0.0807,-1.11481 -0.0873,-1.12133 -1.20566,-1.20224 l -1.12448,-0.0814 v -7.5102 -7.5102 l 1.12448,-0.0814 c 1.1178,-0.0809 1.12496,-0.088 1.2055,-1.19888 l 0.081,-1.11753 8.65023,-0.0731 8.65023,-0.0731 v 10.12031 c 0,5.56618 0,10.09224 0,10.05791 0,-0.0343 -3.89253,-0.0955 -8.65007,-0.13588 z m -10.00306,-1.25692 -0.89755,-0.92604 h 0.97794 c 0.94126,0 0.97795,0.0347 0.97795,0.92604 0,0.50932 -0.0362,0.92604 -0.0804,0.92604 -0.0442,0 -0.48429,-0.41672 -0.97795,-0.92604 z m -5.82083,-3.57188 v -4.23333 h 2.24896 2.24896 v 3.42397 c 0,1.99724 0.11025,3.4921 0.26458,3.58749 0.14552,0.0899 0.26458,0.45415 0.26458,0.80936 0,0.63942 -0.025,0.64585 -2.51354,0.64585 h -2.51354 z m 0,-10.31875 v -4.23333 h 2.51354 c 2.48852,0 2.51354,0.006 2.51354,0.64584 0,0.35522 -0.11906,0.71943 -0.26458,0.80937 -0.15433,0.0954 -0.26458,1.59025 -0.26458,3.58749 v 3.42397 h -2.24896 -2.24896 z m 5.82083,-3.57187 c 0.49366,-0.50932 0.93373,-0.92604 0.97795,-0.92604 0.0442,0 0.0804,0.41672 0.0804,0.92604 0,0.89131 -0.0367,0.92604 -0.97795,0.92604 h -0.97794 z m -6.61458,-4.7625 v -3.04271 h 1.71979 1.71979 v 3.04271 3.04271 h -1.71979 -1.71979 z m 31.75641,0.50189 c -2.36718,-0.63612 -4.03785,-1.78853 -5.64475,-3.89368 -0.94297,-1.23536 -2.03458,-4.11508 -2.03458,-5.36733 v -0.63359 h 5.15938 5.15937 v 5.15938 5.15937 l -0.59531,-0.0174 c -0.32742,-0.01 -1.24727,-0.19261 -2.04411,-0.40674 z m -31.75641,-15.05397 v -3.83646 h 17.19792 17.19791 v 3.83646 3.83645 h -17.19791 -17.19792 z m 30.01405,-10.49996 c -0.11053,-0.19138 -0.10225,-0.25841 0.0184,-0.14895 0.12066,0.10946 0.42559,0.0124 0.67761,-0.21567 0.3693,-0.33421 0.49723,-0.34716 0.6592,-0.0667 0.11054,0.19138 0.10226,0.25841 -0.0184,0.14895 -0.12066,-0.10946 -0.42559,-0.0124 -0.67761,0.21567 -0.3693,0.33421 -0.49723,0.34716 -0.65921,0.0667 z"
         id="path2879" />
      <path
         style="fill:#dde01b;fill-opacity:0.220884;stroke-width:0.264583"
         d="m 163.44741,252.49572 v -5.28505 l 0.85989,0.14528 c 2.8658,0.48417 5.46701,1.86917 6.88948,3.66826 1.17834,1.49034 2.06961,3.496 2.22573,5.00867 l 0.14461,1.40108 -1.65909,0.17341 c -0.91249,0.0954 -3.18943,0.1734 -5.05985,0.1734 h -3.40077 z m -1.94207,-3.57897 c -0.0965,-4.7297 -0.0965,-12.29017 -7e-5,-16.80105 l 0.17542,-8.20159 h 6.17502 6.17503 l 0.004,0.99218 c 0.002,0.54571 0.0746,1.25721 0.16148,1.58113 l 0.15787,0.58894 -4.59325,0.0725 -4.59327,0.0725 0.0419,1.24625 c 0.0511,1.51998 1.01355,3.66235 2.31744,5.15878 1.14217,1.31082 3.84049,2.72644 5.56806,2.92116 l 1.20068,0.13534 v 1.2885 1.28851 h 7.14375 7.14375 v 9.12813 9.12812 h -7.37131 -7.37132 l -0.14885,-1.44219 c -0.25671,-2.48729 -2.03534,-5.37631 -4.32006,-7.01708 -1.27975,-0.91904 -3.28125,-1.69439 -5.06398,-1.9617 l -1.12447,-0.16862 v 5.2948 5.29479 h -0.75101 -0.751 z m 29.72332,-1.32243 v -1.45521 h 6.48229 6.48229 v 1.45521 1.4552 h -6.48229 -6.48229 z m 0,-3.175 v -1.45521 h 6.48229 6.48229 v 1.45521 1.4552 h -6.48229 -6.48229 z m 0,-3.175 v -1.45521 h 6.48229 6.48229 v 1.45521 1.4552 h -6.48229 -6.48229 z m 0,-2.24896 c -0.55381,-0.55381 -0.71246,-1.32292 -0.27289,-1.32292 0.14095,0 0.18775,0.17859 0.10399,0.39688 -0.0838,0.21828 -0.0974,0.39687 -0.0304,0.39687 0.0671,0 1.18113,-2.74082 2.4757,-6.09071 l 2.35378,-6.09071 4.10104,0.0714 4.10104,0.0714 0.0673,3.96875 0.0673,3.96875 -6.20874,2.38125 c -3.4148,1.30969 -6.11976,2.41243 -6.01101,2.45055 0.10875,0.0381 2.79453,-0.94416 5.9684,-2.18282 3.17387,-1.23866 5.87829,-2.25211 6.00982,-2.25211 0.13153,0 0.23914,1.07157 0.23914,2.38125 v 2.38125 h -6.21771 c -5.86493,0 -6.24773,-0.03 -6.74687,-0.52916 z m 12.46871,-12.10512 c 0.19907,-0.25443 -2.52495,2.32109 -6.05338,5.72336 -3.52843,3.40228 -6.41533,6.24415 -6.41533,6.31527 0,0.15834 11.96207,-11.39113 12.46871,-12.03863 z m -27.62662,9.98845 c -0.0828,-0.3166 -0.3609,-0.52917 -0.69232,-0.52917 -0.54047,0 -0.55394,-0.10934 -0.55394,-4.49791 v -4.49792 h 0.66146 c 0.48507,0 0.66146,-0.14111 0.66146,-0.52917 0,-0.38805 0.17639,-0.52916 0.66146,-0.52916 h 0.66145 v 5.55625 5.55625 h -0.6306 c -0.40808,0 -0.67942,-0.18673 -0.76897,-0.52917 z m 1.66416,-5.02708 v -5.55625 h 1.45521 1.4552 v 5.55625 5.55625 h -1.4552 -1.45521 z m 3.175,0 v -5.55625 h 1.5875 1.5875 v 5.55625 5.55625 h -1.5875 -1.5875 z m 3.43958,0 v -5.55625 h 1.45521 1.45521 v 5.55625 5.55625 h -1.45521 -1.45521 z m 3.175,0 v -5.55625 h 1.45521 1.45521 v 5.55625 5.55625 h -1.45521 -1.45521 z m 3.175,0.022 v -5.5783 h 2.38125 c 1.30969,0 2.38075,0.0893 2.38013,0.19844 -0.003,0.59119 -4.15784,10.75698 -4.4337,10.84893 -0.25361,0.0845 -0.32768,-1.15168 -0.32768,-5.46907 z m -19.65055,3.83553 c -1.99351,-0.81977 -3.11454,-1.69782 -4.13542,-3.23908 -0.85276,-1.28742 -1.61403,-3.41129 -1.61403,-4.50297 v -0.61344 h 4.49792 4.49791 v 4.49792 4.49791 l -0.85989,-0.006 c -0.47294,-0.003 -1.54686,-0.28877 -2.38649,-0.63405 z"
         id="path2877" />
      <path
         style="fill:#0d2439;stroke-width:0.264583"
         d="m 125.08283,210.42036 v -13.22917 l 17.39635,0.0587 c 9.56799,0.0323 15.58065,0.0949 13.36146,0.13918 l -4.0349,0.0805 v 1.8383 1.8383 l 4.0349,0.0805 4.03489,0.0805 -4.03489,0.0587 -4.0349,0.0587 v 1.19063 1.19062 h -13.22916 -13.22917 v 2.1508 2.15079 l 2.34837,-0.18371 c 2.82926,-0.22133 3.99195,0.13749 4.51175,1.39238 0.49175,1.1872 0.0823,2.18381 -1.14742,2.79294 -0.88671,0.43922 -1.2831,0.46965 -3.35903,0.25785 l -2.35367,-0.24013 v 2.45412 c 0,2.44135 0.003,2.45413 0.66146,2.45413 0.60756,0 0.66146,-0.097 0.66146,-1.19062 v -1.19063 h 12.7 12.7 v 0.66146 0.66146 l 3.9026,0.0583 3.9026,0.0583 -3.77031,0.0813 -3.77031,0.0813 v 3.6969 c 0,2.28821 -0.10082,3.6969 -0.26458,3.6969 -0.1657,0 -0.26459,-1.63159 -0.26459,-4.36562 v -4.36563 h -12.43541 -12.43542 v 1.98438 c 0,1.14653 0.11171,1.98437 0.26458,1.98437 0.14552,0 0.26459,-0.51502 0.26459,-1.1445 0,-0.85949 0.15496,-1.29009 0.62228,-1.72911 0.62221,-0.58453 0.62344,-0.58459 10.53815,-0.50914 l 9.91586,0.0755 0.96768,0.73836 c 1.22832,0.93725 1.59214,1.626 1.59214,3.01417 0,0.78775 -0.20005,1.37125 -0.69062,2.01443 -1.34119,1.75838 -1.44533,1.77367 -12.08344,1.77367 h -9.56319 l -0.64943,-0.64944 c -0.47548,-0.47547 -0.64943,-0.93613 -0.64943,-1.71979 0,-0.5887 -0.11907,-1.07036 -0.26459,-1.07036 -0.15287,0 -0.26458,0.83785 -0.26458,1.98438 v 1.98437 h -0.92604 -0.92604 z m 23.71157,12.00592 c 1.29406,-0.61407 2.0412,-1.7814 2.0412,-3.18914 0,-1.36697 -0.61039,-2.31968 -1.94466,-3.03526 -0.84087,-0.45096 -1.67532,-0.48986 -10.50867,-0.48986 -9.2425,0 -9.61473,0.0195 -10.12444,0.52917 -0.35278,0.35278 -0.52917,0.88194 -0.52917,1.5875 0,0.88194 0.0882,1.05833 0.52917,1.05833 0.29398,0 0.52916,0.17639 0.52916,0.39688 0,0.22048 -0.23518,0.39687 -0.52916,0.39687 -0.44098,0 -0.52917,0.17639 -0.52917,1.05834 0,0.70555 0.17639,1.23472 0.52917,1.5875 0.50962,0.50962 0.88194,0.52916 10.08032,0.52916 8.26422,0 9.67312,-0.0579 10.45625,-0.42949 z m -19.21366,-3.16443 c 0,-0.46723 0.56959,-0.38586 0.73312,0.10473 0.0576,0.17281 -0.0838,0.31419 -0.31419,0.31419 -0.23041,0 -0.41893,-0.18851 -0.41893,-0.41892 z m -1.12999,-0.006 c -0.0879,-0.0879 -0.31612,-0.0973 -0.50712,-0.0209 -0.21106,0.0845 -0.14837,0.14716 0.15986,0.15985 0.27891,0.0115 0.43518,-0.051 0.34726,-0.13896 z m 2.90519,-7.65734 c 0.46254,-0.30307 0.60605,-0.64483 0.60605,-1.44324 0,-1.31541 -0.69542,-1.83216 -2.6206,-1.94732 -0.75367,-0.0451 -1.23494,0.002 -1.0695,0.10393 0.18112,0.11194 0.0276,0.25447 -0.3858,0.35823 -0.62367,0.15653 -0.6866,0.29265 -0.6866,1.48516 0,1.19252 0.0629,1.32863 0.6866,1.48516 0.44196,0.11093 0.57387,0.242 0.37022,0.36787 -0.17402,0.10754 0.31585,0.14868 1.0886,0.0914 0.77274,-0.0573 1.6777,-0.28281 2.01103,-0.50121 z m -3.95801,0.12307 c -0.35013,-0.20393 -0.46302,-0.61656 -0.46302,-1.69235 0,-1.13243 0.0945,-1.44734 0.46302,-1.54365 0.25466,-0.0666 -0.10253,-0.13482 -0.79375,-0.1517 l -1.25677,-0.0307 v 1.67569 c 0,0.92164 0.0794,1.75507 0.17639,1.85209 0.097,0.097 0.66256,0.17277 1.25677,0.16834 0.86246,-0.006 0.98699,-0.0624 0.61736,-0.27773 z m 24.14323,-11.10195 v -2.92105 l -2.71198,0.0433 -2.71198,0.0433 1.36638,0.60383 c 2.09581,0.92617 2.53176,2.22626 1.13937,3.39787 -1.18776,0.99944 -2.37524,1.13452 -3.82097,0.43465 -1.98238,-0.95966 -1.91894,-2.80432 0.12598,-3.66314 0.57836,-0.24289 1.05278,-0.53515 1.05426,-0.64945 10e-4,-0.1143 -1.93208,-0.19099 -4.29679,-0.17043 l -4.29948,0.0374 1.36638,0.60847 c 2.09655,0.93362 2.53113,2.23142 1.13937,3.40251 -1.43118,1.20427 -3.50572,1.11294 -4.83135,-0.21268 -0.96253,-0.96253 -0.13046,-2.85681 1.40278,-3.19356 2.0396,-0.44797 0.37709,-0.66075 -5.1626,-0.66075 h -5.95312 v 2.91041 2.91042 h 13.09687 13.09688 z m -11.99634,1.19794 c 0.35623,-0.23341 0.71367,-0.5963 0.7943,-0.80643 0.27204,-0.70893 -0.17785,-1.69164 -0.95949,-2.09585 -1.0014,-0.51784 -1.43085,-0.51117 -1.22738,0.0191 0.0888,0.23142 0.0977,0.52387 0.0198,0.64991 -0.24434,0.39536 -0.91843,-0.0439 -0.91843,-0.59847 0,-0.44305 -0.11884,-0.5014 -0.7276,-0.35728 -0.40019,0.0947 -0.93597,0.41849 -1.19063,0.71945 -1.69099,1.9984 1.80143,4.04739 4.20939,2.46962 z m 8.73125,0 c 0.35623,-0.23341 0.71367,-0.5963 0.7943,-0.80643 0.27204,-0.70893 -0.17785,-1.69164 -0.95949,-2.09585 -1.0014,-0.51784 -1.43085,-0.51117 -1.22738,0.0191 0.0888,0.23142 0.0977,0.52387 0.0198,0.64991 -0.23795,0.38502 -0.91843,-0.0372 -0.91843,-0.56978 0,-0.60585 -0.30808,-0.62878 -1.33222,-0.0992 -0.84852,0.43879 -1.28146,1.54335 -0.86974,2.21896 0.77002,1.26355 3.07304,1.6138 4.49312,0.68332 z m 6.8462,18.04069 c -0.0778,-0.24342 -0.1997,-0.62735 -0.27079,-0.85319 -0.0719,-0.22826 -0.0131,-0.33883 0.13229,-0.24896 0.14386,0.0889 0.2691,0.36298 0.27833,0.60905 0.0112,0.30013 0.10828,0.22967 0.29476,-0.21405 0.15879,-0.37783 0.33026,-0.52257 0.39988,-0.33755 0.067,0.17815 -0.0615,0.58567 -0.28553,0.90559 -0.35496,0.50677 -0.42565,0.52469 -0.54894,0.13911 z m 0.92522,0.0734 c 0.005,-0.21101 0.19554,-0.62177 0.42424,-0.91281 0.40394,-0.51404 0.41041,-0.51026 0.22643,0.13229 -0.23118,0.8074 -0.66261,1.32492 -0.65067,0.78052 z"
         id="path2875" />
      <path
         style="fill:#000000;stroke-width:0.264583"
         d="m 121.43948,288.78755 c -0.0378,-3.67231 -0.15643,-5.8435 -0.31385,-5.74621 -0.13916,0.086 -0.18596,0.33116 -0.10398,0.54478 0.082,0.21362 0.0181,0.3884 -0.14197,0.3884 -0.45172,0 -0.41673,-145.70065 0.035,-145.85128 0.34014,-0.11342 0.44245,-8.47907 0.45786,-37.43882 0.004,-7.448374 0.0985,-11.443232 0.27067,-11.443232 0.17449,0 0.26459,8.334375 0.26459,24.473962 v 24.47396 h 4.10104 4.10104 v -9.6573 -9.65729 h 33.07292 33.07291 v 9.65729 9.6573 h 5.29167 5.29166 l 0.065,72.42968 0.065,72.42969 0.20072,-72.76042 c 0.11039,-40.01822 0.25649,-78.47541 0.32468,-85.46041 0.0682,-6.985 0.12722,-17.84946 0.1312,-24.14323 0.005,-7.447615 0.0996,-11.443232 0.27181,-11.443232 0.17448,0 0.26458,8.334375 0.26458,24.473962 0,16.16887 0.0899,24.47396 0.26506,24.47396 0.17654,0 0.24281,24.22444 0.19844,72.53763 l -0.0666,72.53763 -2.84428,-0.0451 c -2.55621,-0.0405 -2.84453,0.002 -2.84685,0.42123 -0.004,0.74432 -1.26797,3.25876 -2.37524,4.7256 -1.77026,2.3451 -5.11922,4.13159 -8.20551,4.37719 l -1.19062,0.0948 -0.0721,-4.82354 -0.0721,-4.82353 -8.29404,-0.002 -8.29403,-0.002 -0.55838,1.53142 c -1.66997,4.58002 -5.21064,7.36545 -10.29218,8.09677 l -1.12447,0.16184 v -4.87007 -4.87007 l -2.37608,-0.032 -2.37608,-0.032 -0.0768,5.75862 -0.0768,5.75879 -0.0607,-5.88698 -0.0607,-5.88698 h -17.85431 -17.85431 l -0.0765,5.88698 -0.0765,5.88698 z m 44.09088,3.36097 c 3.75533,-0.8454 7.16458,-4.25864 8.36266,-8.37243 l 0.17338,-0.59532 h -5.70637 -5.70637 v 4.75589 4.75589 l 0.85989,-0.14179 c 0.47295,-0.078 1.38051,-0.25899 2.01681,-0.40224 z m 29.43003,-0.23285 c 3.07315,-0.93951 5.45809,-3.12128 6.97575,-6.38152 1.16379,-2.50006 1.47663,-2.35338 -5.01894,-2.35338 h -5.68854 v 4.73733 4.73732 l 1.12448,-0.14323 c 0.61846,-0.0788 1.79172,-0.34721 2.60725,-0.59652 z m -20.99114,-9.35835 c 0.18411,-0.11379 0.32607,-0.0727 0.32607,0.0943 0,0.1627 0.11907,0.22223 0.26459,0.13229 0.81121,-0.50136 -0.31876,-0.62786 -5.82083,-0.65166 -5.33609,-0.0231 -6.43965,0.0769 -5.97519,0.54142 0.20023,0.20025 10.8724,0.0894 11.20536,-0.11634 z m 16.91098,-0.2199 c -0.0845,-0.21107 -0.14716,-0.14838 -0.15985,0.15985 -0.0115,0.27891 0.0511,0.43518 0.13896,0.34726 0.0879,-0.0879 0.0973,-0.31612 0.0209,-0.50711 z m 11.79166,0.34039 c 0.10914,-0.0144 0.19843,-0.14526 0.19843,-0.29079 0,-0.16837 -2.11666,-0.26458 -5.82083,-0.26458 -5.11862,0 -6.16114,0.10063 -5.7106,0.55122 0.0897,0.0897 10.65532,0.0936 11.333,0.004 z m 0.64376,-0.34039 c -0.0845,-0.21107 -0.14716,-0.14838 -0.15985,0.15985 -0.0115,0.27891 0.051,0.43518 0.13896,0.34726 0.0879,-0.0879 0.0973,-0.31612 0.0209,-0.50711 z m -50.18699,0.0496 c 0,-0.16778 -1.98438,-0.26458 -5.42396,-0.26458 -3.43958,0 -5.42396,0.0968 -5.42396,0.26458 0,0.16779 1.98438,0.26459 5.42396,0.26459 3.43958,0 5.42396,-0.0968 5.42396,-0.26459 z m 0.79375,-2.91041 v -2.38125 h -6.21771 -6.21771 v 2.38125 2.38125 h 6.21771 6.21771 z m 20.37291,1.05833 c 0,-0.7276 0.11907,-1.32292 0.26459,-1.32292 0.14552,0 0.26458,-0.47625 0.26458,-1.05833 v -1.05833 h -6.35 -6.35 v 1.05833 c 0,0.58208 0.11906,1.05833 0.26459,1.05833 0.14552,0 0.26458,0.59532 0.26458,1.32292 v 1.32292 h 5.82083 5.82083 z m 0.44533,0.74414 c -0.0845,-0.21106 -0.14716,-0.14837 -0.15985,0.15986 -0.0115,0.27891 0.051,0.43518 0.13896,0.34726 0.0879,-0.0879 0.0973,-0.31612 0.0209,-0.50712 z m 16.13958,0 c -0.0845,-0.21106 -0.14716,-0.14837 -0.15985,0.15986 -0.0115,0.27891 0.0511,0.43518 0.13896,0.34726 0.0879,-0.0879 0.0973,-0.31612 0.0209,-0.50712 z m 11.99009,-0.74414 c 0,-0.7276 0.11907,-1.32292 0.26459,-1.32292 0.14552,0 0.26458,-0.47625 0.26458,-1.05833 v -1.05833 h -6.35 -6.35 v 1.05833 c 0,0.58208 0.11906,1.05833 0.26458,1.05833 0.14553,0 0.26459,0.59532 0.26459,1.32292 v 1.32292 h 5.82083 5.82083 z m 0.44533,0.74414 c -0.0845,-0.21106 -0.14716,-0.14837 -0.15985,0.15986 -0.0115,0.27891 0.051,0.43518 0.13896,0.34726 0.0879,-0.0879 0.0973,-0.31612 0.0209,-0.50712 z m -43.57241,-19.87973 v -15.43143 l -1.63693,-0.30441 c -4.35864,-0.81058 -7.73813,-4.06775 -8.7055,-8.39042 -0.52216,-2.33324 -0.722,-2.24648 5.17475,-2.24648 4.41711,0 5.16768,-0.0576 5.16768,-0.39688 0,-0.34871 -2.08727,-0.39687 -17.19791,-0.39687 h -17.19792 v 3.57187 3.57188 h 1.85208 1.85209 v 3.175 3.175 h 10.9802 10.98021 v 10.45104 10.45104 h -10.98021 -10.9802 v 3.175 3.175 h -1.85209 -1.85208 v 0.92604 0.92604 h 17.19792 17.19791 z m 19.84375,6.68742 v -8.74399 l -2.75287,0.044 c -1.51407,0.0242 -2.86824,-0.0273 -3.00926,-0.11449 -0.14102,-0.0872 -0.30882,-1.143 -0.3729,-2.34633 -0.26868,-5.0457 -3.71539,-8.65271 -9.14466,-9.56998 l -0.85989,-0.14528 v 5.93089 c 0,6.28469 -0.028,6.42452 -1.25677,6.26576 l -0.59531,-0.0769 v 8.75019 8.75018 h 8.99583 8.99583 z m 24.60625,-0.11954 v -8.86354 h -6.48229 c -6.3059,0 -6.48229,0.0144 -6.48229,0.52917 0,0.50778 -0.17639,0.52916 -4.36563,0.52916 h -4.36562 v 8.33438 8.33437 h 10.84791 10.84792 z m -75.40625,3.70417 v -3.04271 h -1.71979 -1.71979 v 3.04271 3.04271 h 1.71979 1.71979 z m 3.55523,-4.12178 c -0.72502,-0.75989 -0.78277,-0.77762 -0.86165,-0.26458 -0.0794,0.51626 -0.25337,0.5499 -2.84427,0.5499 h -2.75972 v -4.49792 -4.49791 h 2.38125 c 2.36361,0 2.38125,-0.005 2.38125,-0.66146 0,-0.65656 -0.0176,-0.66146 -2.38125,-0.66146 h -2.38125 v -4.49792 -4.49791 h 2.75972 c 2.5909,0 2.76489,0.0336 2.84427,0.5499 0.0789,0.51304 0.13663,0.49531 0.86165,-0.26458 l 0.77711,-0.81449 h -3.88596 -3.88596 v 10.18646 10.18646 h 3.88596 3.88596 z m 18.2729,-9.30583 v -10.12031 l -8.65023,0.0731 -8.65023,0.0731 -0.081,1.11753 c -0.0805,1.11088 -0.0877,1.11801 -1.2055,1.19888 l -1.12448,0.0814 v 7.5102 7.5102 l 1.12448,0.0814 c 1.11839,0.0809 1.12492,0.0874 1.20566,1.20224 l 0.0812,1.12088 8.65007,0.0735 c 4.75754,0.0404 8.65007,0.10156 8.65007,0.13588 0,0.0343 0,-4.49173 0,-10.05791 z m -17.59479,8.66511 c 0,-0.89131 -0.0367,-0.92604 -0.97795,-0.92604 h -0.97794 l 0.89755,0.92604 c 0.49366,0.50932 0.93373,0.92604 0.97795,0.92604 0.0442,0 0.0804,-0.41672 0.0804,-0.92604 z m -1.85209,0.0156 c 0,-0.35521 -0.11906,-0.71943 -0.26458,-0.80937 -0.15433,-0.0954 -0.26458,-1.59024 -0.26458,-3.58749 v -3.42396 h -2.24896 -2.24896 v 4.23333 4.23334 h 2.51354 c 2.48852,0 2.51354,-0.006 2.51354,-0.64585 z m 73.025,-9.54061 v -1.45521 h -6.48229 -6.48229 v 1.45521 1.45521 h 6.48229 6.48229 z m -41.01041,-5.1625 v -5.2948 l 1.12447,0.16862 c 1.78273,0.26731 3.78423,1.04266 5.06398,1.9617 2.28472,1.64077 4.06335,4.52979 4.32006,7.01708 l 0.14885,1.44219 h 7.37132 7.37131 v -9.12812 -9.12813 h -7.14375 -7.14375 v -1.28851 -1.2885 l -1.20068,-0.13534 c -1.72757,-0.19472 -4.42589,-1.61034 -5.56806,-2.92116 -1.30389,-1.49643 -2.2663,-3.6388 -2.31744,-5.15878 l -0.0419,-1.24625 4.49792,-0.0718 4.49791,-0.0719 -0.0853,-5.55055 -0.0853,-5.55055 h 11.13166 11.13165 v -10.58334 -10.58333 h -7.67292 -7.67291 v -5.29167 -5.29166 h 11.64166 11.64167 v -6.08542 -6.08542 h -1.5875 -1.5875 v 1.45521 1.45521 h -2.64583 -2.64584 v -1.45521 -1.45521 h -3.0427 -3.04271 v 1.45521 1.45521 h -2.77813 -2.77812 v -1.45521 -1.45521 h -1.5875 -1.5875 v -1.32291 -1.32292 h -1.59676 -1.59675 l 0.0754,-2.71198 0.0754,-2.71198 1.52135,-0.0794 1.52136,-0.0794 v -1.17742 -1.17742 h 1.5875 1.5875 v -1.5875 -1.5875 h 2.77812 2.77813 v 1.5875 1.5875 h 3.04271 3.0427 v -1.5875 -1.5875 h 2.64584 2.64583 v 1.5875 1.5875 h 1.5875 1.5875 v -8.59896 -8.59896 h -8.18687 -8.18687 l -0.10128,-1.12448 c -0.0557,-0.61846 -0.12208,1.72022 -0.1475,5.19707 l -0.0462,6.32154 -1.55868,-0.16291 c -4.46931,-0.46713 -8.48803,-3.52815 -10.24722,-7.80519 -0.33933,-0.82499 -0.62647,-1.79764 -0.6381,-2.16144 -0.013,-0.40544 -0.23025,-8e-4 -0.5614,1.04546 -1.40986,4.45443 -5.31376,7.9821 -9.74541,8.80625 -2.51984,0.46862 -2.37803,0.83064 -2.43083,-6.20539 -0.0254,-3.38793 -0.0918,-5.65385 -0.14751,-5.03539 l -0.10128,1.12448 h -5.65811 -5.65811 l -0.10128,-1.12448 c -0.0557,-0.61846 -0.12209,1.60141 -0.14751,4.93305 l -0.0462,6.05754 -1.74174,-0.16265 c -5.08377,-0.47473 -9.77308,-5.13756 -10.36135,-10.30285 -0.1793,-1.57437 -0.19418,-1.60132 -0.32624,-0.59123 l -0.13838,1.05833 -6.28386,0.0709 -6.28385,0.0709 -1.5e-4,9.18948 -1.5e-4,9.18948 h 5.22567 5.22567 l 0.0785,1.05834 0.0785,1.05833 -3.45858,-0.0873 -3.45859,-0.0873 0.0728,4.32064 0.0728,4.32064 h 3.175 3.175 l 0.1428,-4.10104 0.14279,-4.10105 0.0556,4.29948 0.0556,4.29948 h -3.43958 -3.43958 v 5.15938 5.15937 h 3.30729 3.30729 l 0.0601,-5.09323 0.0601,-5.09323 0.0779,5.0907 0.0779,5.09069 12.76044,0.0687 12.76044,0.0687 0.0697,8.7974 0.0697,8.7974 h 5.29123 5.29122 l -0.15911,1.12448 c -0.37927,2.68039 -1.25297,4.52076 -3.04649,6.41715 -1.5192,1.60632 -3.5334,2.69558 -5.77079,3.12078 l -1.61319,0.30658 v 10.89803 c 0,5.99392 -0.0723,11.08636 -0.1606,11.31655 -0.13983,0.36438 -0.92684,0.41851 -6.08542,0.41851 h -5.92482 v 0.63359 c 0,1.23183 1.0716,4.07988 2.01407,5.35288 1.90386,2.57157 4.52301,3.98437 7.89729,4.2599 1.02443,0.0836 1.95007,0.28299 2.05699,0.44297 0.10691,0.15998 0.19621,2.82095 0.19843,5.91326 l 0.004,5.6224 h 0.79375 0.79375 z m 19.97604,-68.5649 c -1.0873,-0.59471 -1.49245,-1.77507 -1.02627,-2.98992 0.2404,-0.62649 1.64368,-1.2709 2.37036,-1.08851 2.00092,0.5022 2.29351,3.09921 0.45924,4.07615 -0.70842,0.37731 -1.11672,0.37782 -1.80333,0.002 z m 2.09514,-0.51857 c 0.57292,-0.45065 0.69568,-0.74153 0.631,-1.49507 -0.21003,-2.44667 -3.65993,-2.42496 -3.64813,0.023 0.005,0.96627 0.18168,1.29566 0.92199,1.71545 0.78019,0.44242 1.3001,0.38204 2.09514,-0.24334 z m 5.42513,0.0507 c -1.01417,-1.01416 -1.00449,-1.94663 0.031,-2.98207 0.67615,-0.67615 0.93957,-0.77731 1.65273,-0.63467 1.92473,0.38494 2.58289,2.533 1.15296,3.76297 -0.9803,0.84322 -1.89432,0.7961 -2.83664,-0.14623 z m 2.68979,0.0137 c 0.43633,-0.35332 0.61139,-0.77109 0.61139,-1.45899 0,-1.1338 -0.45807,-1.67503 -1.61319,-1.90605 -0.67916,-0.13584 -0.96804,-0.0385 -1.51781,0.51123 -0.85699,0.85699 -0.86799,1.86103 -0.0296,2.69945 0.77517,0.77518 1.7124,0.83193 2.54917,0.15436 z m 5.32333,0.48281 c -1.49307,-0.59929 -1.51866,-3.06745 -0.0397,-3.83223 1.04155,-0.53861 1.4084,-0.49229 2.3454,0.29614 0.6082,0.51177 0.81405,0.90725 0.81405,1.56398 0,0.65673 -0.20585,1.05221 -0.81405,1.56398 -0.85952,0.72323 -1.31829,0.80444 -2.30568,0.40813 z m 2.15801,-0.53611 c 0.96411,-0.75837 0.96411,-2.11364 0,-2.87201 -0.79824,-0.62789 -1.13196,-0.66804 -2.05537,-0.24731 -0.90415,0.41195 -1.25047,1.4947 -0.81179,2.53799 0.50334,1.19711 1.76033,1.45197 2.86716,0.58133 z m -70.21119,70.67858 c 0,-1.99724 0.11025,-3.49211 0.26458,-3.58749 0.14552,-0.0899 0.26458,-0.45415 0.26458,-0.80937 0,-0.63941 -0.025,-0.64584 -2.51354,-0.64584 h -2.51354 v 4.23333 4.23334 h 2.24896 2.24896 z m 73.55416,0.24897 v -1.5875 h -6.48229 -6.48229 v 1.5875 1.5875 h 6.48229 6.48229 z m 0,-3.30729 v -1.45521 h -6.48229 -6.48229 v 1.45521 1.4552 h 6.48229 6.48229 z m -71.17291,-1.32292 c 0,-0.50932 -0.0362,-0.92604 -0.0804,-0.92604 -0.0442,0 -0.48429,0.41672 -0.97795,0.92604 l -0.89755,0.92604 h 0.97794 c 0.94126,0 0.97795,-0.0347 0.97795,-0.92604 z m 71.17291,-1.85208 v -1.45521 h -6.48229 -6.48229 v 1.45521 1.4552 h 6.48229 6.48229 z m -75.40625,-2.91042 v -3.04271 h -1.71979 -1.71979 v 3.04271 3.04271 h 1.71979 1.71979 z m 75.40625,-0.26458 v -1.45521 h -6.48229 -6.48229 v 1.45521 1.4552 h 6.48229 6.48229 z m 0,-3.175 v -1.45521 h -6.48229 -6.48229 v 1.45521 1.4552 h 6.48229 6.48229 z m 0,-4.10105 c 0,-1.30968 -0.10761,-2.38125 -0.23914,-2.38125 -0.13153,0 -2.83595,1.01345 -6.00982,2.25211 -3.17387,1.23866 -5.85965,2.22093 -5.9684,2.18282 -0.10875,-0.0381 2.59621,-1.14086 6.01101,-2.45055 l 6.20874,-2.38125 -0.0673,-3.96875 -0.0673,-3.96875 -4.10104,-0.0714 -4.10104,-0.0714 -2.35378,6.09071 c -1.29457,3.34989 -2.40864,6.09071 -2.4757,6.09071 -0.0671,0 -0.0534,-0.17859 0.0304,-0.39687 0.0838,-0.21829 0.037,-0.39688 -0.10399,-0.39688 -0.43957,0 -0.28092,0.76911 0.27289,1.32292 0.49914,0.49914 0.88194,0.52916 6.74687,0.52916 h 6.21771 z m -12.96458,1.7856 c 0,-0.0711 2.8869,-2.91299 6.41533,-6.31527 3.52843,-3.40227 6.25245,-5.97779 6.05338,-5.72336 -0.50664,0.6475 -12.46871,12.19697 -12.46871,12.03863 z m -0.98715,-0.10706 c -0.17914,-0.0725 -0.53632,-0.0769 -0.79375,-0.01 -0.25744,0.0671 -0.11087,0.12638 0.32569,0.13177 0.43656,0.005 0.64719,-0.0495 0.46806,-0.12197 z m -12.77119,-6.9702 v -5.55625 h -0.66145 c -0.48507,0 -0.66146,0.14111 -0.66146,0.52916 0,0.38806 -0.17639,0.52917 -0.66146,0.52917 h -0.66146 v 4.49792 c 0,4.38857 0.0135,4.49791 0.55394,4.49791 0.33142,0 0.60952,0.21257 0.69232,0.52917 0.0896,0.34244 0.36089,0.52917 0.76897,0.52917 h 0.6306 z m 3.175,0 v -5.55625 h -1.4552 -1.45521 v 5.55625 5.55625 h 1.45521 1.4552 z m 3.43959,0 v -5.55625 h -1.5875 -1.5875 v 5.55625 5.55625 h 1.5875 1.5875 z m 3.175,0 v -5.55625 h -1.45521 -1.45521 v 5.55625 5.55625 h 1.45521 1.45521 z m 3.175,0 v -5.55625 h -1.45521 -1.45521 v 5.55625 5.55625 h 1.45521 1.45521 z m 2.9724,0.11126 c 1.12884,-2.89885 2.05295,-5.35993 2.05356,-5.46908 6.2e-4,-0.10914 -1.07044,-0.19843 -2.38013,-0.19843 h -2.38125 v 5.57829 c 0,4.31739 0.0741,5.55361 0.32768,5.46908 0.18023,-0.0601 1.25129,-2.48102 2.38014,-5.37986 z m -19.11199,-0.11126 v -4.49792 h -4.49791 -4.49792 v 0.61344 c 0,1.93327 1.67869,5.17376 3.33442,6.43665 1.18207,0.90161 3.73215,1.93165 4.80152,1.93946 l 0.85989,0.006 z m -14.55208,-1.71979 v -3.83646 h -17.19791 -17.19792 v 3.83646 3.83645 h 17.19792 17.19791 z m 0,-12.17084 v -5.68854 h 1.53948 c 5.40742,0 9.68088,-3.81103 10.45825,-9.32656 l 0.13984,-0.99219 h -6.06879 -6.06878 v -2.38125 -2.38125 h -17.33021 -17.3302 v 13.22917 13.22916 h 17.3302 17.33021 z m 22.225,1.98438 v -3.70417 h -3.83646 -3.83646 v 3.70417 3.70416 h 3.83646 3.83646 z m 7.54063,3.19976 c -0.87313,-0.0875 -1.73633,-0.25499 -1.91823,-0.37215 -0.19122,-0.12316 -0.33073,-0.76447 -0.33073,-1.52031 v -1.3073 h -2.51354 -2.51355 v 1.71979 1.71979 l 4.43178,-0.0403 c 2.8161,-0.0256 3.85302,-0.0984 2.84427,-0.19947 z m 12.5677,-1.47997 v -1.71979 h -0.79375 c -0.56787,0 -0.80248,0.13176 -0.82444,0.46302 -0.0292,0.44097 -0.0365,0.44097 -0.15169,0 -0.10384,-0.39736 -0.45595,-0.46302 -2.48285,-0.46302 h -2.36185 l -0.004,1.12448 c -0.006,1.60459 -0.24872,1.83629 -2.15157,2.05208 -1.18315,0.13418 -0.13359,0.20134 3.54469,0.22682 l 5.22551,0.0362 z m -12.5677,0.94771 -1.5875,-0.15396 -0.15688,-1.32292 -0.15686,-1.32291 -0.0416,1.36701 c -0.048,1.5796 0.0342,1.64341 2.0751,1.61033 l 1.45521,-0.0236 -1.5875,-0.15395 z m 5.10705,-1.27844 0.08,-1.38906 h -3.32112 -3.32112 v 1.19062 1.19063 h 1.46666 1.46666 l -0.0776,-0.99219 c -0.0554,-0.7082 0.0277,-0.99219 0.29044,-0.99219 0.52559,0 1.06077,0.95555 0.62415,1.1144 -0.1819,0.0662 -0.33073,0.289 -0.33073,0.49515 0,0.27476 0.40613,0.3867 1.52136,0.41931 l 1.52135,0.0445 -1.5875,0.1832 -1.5875,0.1832 1.5875,-0.0292 1.5875,-0.0293 z m 0.50676,-0.79011 c -0.0608,-0.40219 -0.1122,-0.13593 -0.11418,0.59167 -0.002,0.72761 0.0478,1.05667 0.11057,0.73124 0.0628,-0.32542 0.0644,-0.92073 0.004,-1.32291 z m -3.41557,0.43954 c -0.0521,-0.15644 -0.20792,-0.28443 -0.34616,-0.28443 -0.13825,0 -0.29402,0.12799 -0.34616,0.28443 -0.0522,0.15643 0.10362,0.28442 0.34616,0.28442 0.24253,0 0.39831,-0.12799 0.34616,-0.28442 z m -4.4472,-3.02287 v -1.71979 h -2.51354 -2.51355 v 1.71979 1.71979 h 2.51355 2.51354 z m 4.04832,-1.13206 3.4923,0.0737 0.15531,1.45521 0.15532,1.45521 0.0431,-1.37345 c 0.024,-0.76522 -0.0865,-1.4536 -0.2497,-1.55443 -0.19283,-0.11918 -0.20124,-0.23745 -0.0246,-0.34634 0.14752,-0.0909 -1.42919,-0.16537 -3.5038,-0.16537 h -3.77201 l 0.006,1.5875 0.006,1.5875 0.0996,-1.39665 0.0996,-1.39664 3.4923,0.0737 z m 3.36001,1.52079 v -1.33106 l -3.24114,0.0743 -3.24115,0.0743 -0.0806,1.25677 -0.0806,1.25677 h 3.32179 3.32179 z m 5.55625,-2.24081 v -3.57188 h -1.5875 -1.5875 v -3.96875 -3.96875 h 1.5875 1.5875 v -4.89479 -4.89479 h -1.85208 -1.85209 v 10.6081 c 0,10.38559 -0.0111,10.61101 -0.52916,10.74649 -0.45945,0.12015 -0.52917,0.36089 -0.52917,1.82731 v 1.68893 h 2.38125 2.38125 z m 1.85208,2.24896 v -1.32292 h 1.05834 1.05833 v -11.1125 -11.1125 h -1.85208 -1.85209 v 4.89479 4.89479 h 1.59458 1.59457 l -0.0732,3.90261 -0.0732,3.9026 -1.52135,0.0794 -1.52136,0.0794 v 3.55867 3.55867 h 0.79375 c 0.77611,0 0.79375,-0.0294 0.79375,-1.32291 z m -1.85208,-9.78959 v -3.70416 h -1.45521 -1.45521 v 3.70416 3.70417 h 1.45521 1.45521 z m 3.175,0 v -3.70416 h -1.45521 -1.45521 v 3.70416 3.70417 h 1.45521 1.45521 z m -72.68857,-14.22098 -5.08754,-0.0779 -0.0779,-5.08754 -0.0779,-5.08754 -0.0601,5.22553 -0.0601,5.22552 5.22552,-0.0601 5.22552,-0.0601 z m 15.53857,-0.72798 v -0.92604 h -5.15937 -5.15938 v 0.66146 0.66146 l 5.09323,0.0575 5.09323,0.0575 -5.15937,0.14961 -5.15938,0.14962 5.22552,0.0575 5.22552,0.0575 z m 12.96459,0 v -0.92604 h -6.36841 -6.3684 l 0.0846,0.59532 c 0.0843,0.59387 0.0996,0.59562 6.30226,0.72288 l 6.2177,0.12758 -6.35,0.14424 -6.35,0.14424 6.41615,0.0589 6.41615,0.0589 z m 2.11666,-4.25009 v -5.17614 l -0.85989,0.0829 -0.8599,0.0829 -0.0719,5.09323 -0.0719,5.09323 h 0.93176 0.93175 z m 42.8625,0.14905 v -5.02708 h -11.50937 -11.50938 v 5.02708 5.02709 h 11.50938 11.50937 z m -68.52708,3.83646 v -0.66146 h -4.15014 c -3.92641,0 -4.18671,0.0321 -4.82864,0.59532 l -0.67851,0.59531 0.59531,-0.67851 c 0.56322,-0.64194 0.59531,-0.90223 0.59531,-4.82865 v -4.15013 h -0.66146 -0.66145 v 4.7184 c 0,2.59512 0.0794,4.79778 0.17639,4.89479 0.097,0.097 2.29967,0.17639 4.89479,0.17639 h 4.7184 z m 0,-1.5875 v -0.66146 h -3.35639 c -3.10326,0 -3.40755,0.0449 -4.03489,0.59532 l -0.67851,0.59531 0.59531,-0.67851 c 0.55042,-0.62735 0.59531,-0.93163 0.59531,-4.0349 v -3.35638 h -0.66146 -0.66145 v 3.92465 c 0,2.15856 0.0794,4.00403 0.17639,4.10104 0.097,0.097 1.94248,0.17639 4.10104,0.17639 h 3.92465 z m 10.58333,0 v -0.66146 h -5.15937 -5.15938 v 0.66146 0.66146 h 5.15938 5.15937 z m 12.96459,-0.005 v -0.66624 l -6.28386,0.0709 -6.28385,0.0709 -0.0845,0.59532 -0.0846,0.59531 h 6.3684 6.36841 z m -23.49042,-4.29469 0.0575,-3.37344 0.0827,3.37344 0.0827,3.37344 h 5.15147 5.15147 v -3.29667 -3.29667 l -5.22552,-0.0768 c -2.87403,-0.0422 -6.74357,-0.0434 -8.59896,-0.003 l -3.37343,0.0741 v 3.29938 3.29939 h 3.30729 3.30729 z m 23.49042,0.0614 v -3.31208 l -6.28386,0.0709 -6.28385,0.0709 -0.0756,2.89341 c -0.0416,1.59138 -0.0156,3.04989 0.0578,3.24115 0.105,0.27362 1.46035,0.34773 6.35945,0.34773 h 6.22602 z m -33.66959,-11.4523 c -0.0475,-1.41109 -0.0861,-0.18437 -0.0859,2.72605 2.4e-4,2.91041 0.0391,4.06494 0.0863,2.56561 0.0473,-1.49933 0.0471,-3.88058 -4.2e-4,-5.29166 z m 1.655,2.72605 v -5.15938 h -0.66146 -0.66145 v 5.15938 5.15937 h 0.66145 0.66146 z m 1.52707,-0.0661 0.0719,-5.09323 h -0.66717 -0.66717 v 5.17778 5.17778 l 0.59531,-0.0846 c 0.59092,-0.0839 0.59584,-0.12212 0.66717,-5.17778 z m 58.99047,-4.22799 c -0.54895,-0.0573 -1.38239,-0.0563 -1.85208,0.002 -0.4697,0.0585 -0.0206,0.10531 0.99808,0.10414 1.01865,-0.001 1.40295,-0.049 0.854,-0.10628 z m 11.64756,2.7e-4 c -0.5457,-0.0571 -1.43867,-0.0571 -1.98437,0 -0.5457,0.0571 -0.0992,0.10378 0.99219,0.10378 1.0914,0 1.53789,-0.0467 0.99218,-0.10378 z m -9.98802,-1.39467 v -1.05834 h -2.51354 -2.51354 v 1.05834 1.05833 h 2.51354 2.51354 z m 11.37709,0 v -1.05834 h -2.38125 -2.38125 v 1.05834 1.05833 h 2.38125 2.38125 z m -75.20961,-6.42914 c -0.0489,-1.1934 -0.0887,-0.14576 -0.0884,2.32809 2.9e-4,2.47386 0.0403,3.45028 0.0889,2.16983 0.0486,-1.28046 0.0484,-3.30452 -5.6e-4,-4.49792 z m 1.59585,2.25858 0.0727,-4.29611 h -0.66801 -0.66801 v 4.18923 c 0,2.30409 0.0835,4.27273 0.18553,4.37478 0.10205,0.10204 0.36994,0.15014 0.59531,0.10687 0.3463,-0.0665 0.42104,-0.74423 0.48248,-4.37477 z m 1.5148,0.0695 c 0,-4.18868 -0.006,-4.23422 -0.59531,-4.31788 l -0.59531,-0.0845 v 4.40242 4.40243 l 0.59531,-0.0845 c 0.58903,-0.0837 0.59531,-0.1292 0.59531,-4.31789 z m 55.43021,1.5875 v -1.19062 h -1.45521 -1.45521 v 1.19062 1.19063 h 1.45521 1.45521 z m 5.29166,-0.26458 v -1.45521 h -2.51354 -2.51354 v 1.45521 1.45521 h 2.51354 2.51354 z m 6.35,-0.13229 v -1.5875 h 2.64584 2.64583 v 1.5875 1.5875 h 1.5875 1.5875 v -5.02708 -5.02709 h -1.5875 -1.5875 v 1.45521 1.45521 h -2.64583 -2.64584 v -1.45521 -1.45521 h -3.0427 -3.04271 v 1.45521 1.45521 h -2.77813 -2.77812 v 1.97512 1.97512 l 2.71198,0.0754 2.71198,0.0754 0.0793,1.52136 0.0794,1.52135 h 3.0295 3.0295 z m 5.02709,0.13229 v -1.45521 h -2.38125 -2.38125 v 1.45521 1.45521 h 2.38125 2.38125 z m -19.84375,-3.70417 v -2.51354 h -1.05834 -1.05833 v 2.51354 2.51355 h 1.05833 1.05834 z m 2.91041,0 v -2.51354 h -1.32291 -1.32292 v 2.51354 2.51355 h 1.32292 1.32291 z m -5.29166,0.1323 c 0,-1.05834 -0.11339,-1.85209 -0.26459,-1.85209 -0.15119,0 -0.26458,0.79375 -0.26458,1.85209 0,1.05833 0.11339,1.85208 0.26458,1.85208 0.1512,0 0.26459,-0.79375 0.26459,-1.85208 z m -42.8625,-3.04842 v -0.93176 l -5.09323,0.0719 -5.09323,0.0719 -0.0832,0.72183 -0.0832,0.72183 5.11024,0.078 c 2.81064,0.0429 5.14001,0.10502 5.17639,0.13806 0.0364,0.0331 0.0661,-0.3592 0.0661,-0.87166 z m 42.8625,0.66717 c 0,-0.14552 -0.11906,-0.26459 -0.26459,-0.26459 -0.14552,0 -0.26458,0.11907 -0.26458,0.26459 0,0.14552 0.11906,0.26458 0.26458,0.26458 0.14553,0 0.26459,-0.11906 0.26459,-0.26458 z m 10.84791,-1.32292 v -1.32292 h -2.51354 -2.51354 v 1.32292 1.32292 h 2.51354 2.51354 z m 11.37709,0 v -1.32292 h -2.38125 -2.38125 v 1.32292 1.32292 h 2.38125 2.38125 z m -16.66875,-0.26458 v -1.05834 h -1.45521 -1.45521 v 1.05834 1.05833 h 1.45521 1.45521 z m 5.29166,-2.38125 v -1.05834 h -2.51354 -2.51354 v 1.05834 1.05833 h 2.51354 2.51354 z m 11.37709,0 v -1.05834 h -2.38125 -2.38125 v 1.05834 1.05833 h 2.38125 2.38125 z m -15.875,-1.5875 c 0,-0.14553 -0.11906,-0.26459 -0.26459,-0.26459 -0.14552,0 -0.26458,0.11906 -0.26458,0.26459 0,0.14552 0.11906,0.26458 0.26458,0.26458 0.14553,0 0.26459,-0.11906 0.26459,-0.26458 z m 3.70416,0 c 0,-0.14926 -0.74965,-0.26459 -1.71979,-0.26459 -0.97014,0 -1.71979,0.11533 -1.71979,0.26459 0,0.14925 0.74965,0.26458 1.71979,0.26458 0.97014,0 1.71979,-0.11533 1.71979,-0.26458 z m 0.79375,0 c 0,-0.14553 -0.11906,-0.26459 -0.26458,-0.26459 -0.14552,0 -0.26458,0.11906 -0.26458,0.26459 0,0.14552 0.11906,0.26458 0.26458,0.26458 0.14552,0 0.26458,-0.11906 0.26458,-0.26458 z m 10.84792,0 c 0,-0.1512 -0.79375,-0.26459 -1.85208,-0.26459 -1.05834,0 -1.85209,0.11339 -1.85209,0.26459 0,0.15119 0.79375,0.26458 1.85209,0.26458 1.05833,0 1.85208,-0.11339 1.85208,-0.26458 z m -34.95457,-4.77852 c 5.03016,-1.15964 8.73511,-5.39893 9.46657,-10.8319 l 0.19591,-1.45521 0.2082,1.57805 c 0.77494,5.87382 5.04291,10.23082 10.66956,10.89213 l 1.44975,0.17038 v -6.91559 c 0,-4.43401 0.0949,-6.91559 0.26458,-6.91559 0.14552,0 0.26458,-0.47625 0.26458,-1.05834 v -1.05833 h -12.83229 -12.83229 v 1.05833 c 0,0.58209 0.11906,1.05834 0.26459,1.05834 0.1696,0 0.26458,2.46944 0.26458,6.87916 v 6.87917 l 0.7276,-0.006 c 0.40018,-0.004 1.25008,-0.12692 1.88866,-0.27414 z m -15.05168,-6.86315 c 0,-4.23333 0.0952,-6.61458 0.26459,-6.61458 0.14552,0 0.26458,-0.47625 0.26458,-1.05834 v -1.05833 h -6.35 -6.35 v 1.05833 c 0,0.58209 0.10255,1.05834 0.22788,1.05834 0.12534,0 0.28809,1.05589 0.36168,2.34644 0.11332,1.98757 0.27841,2.64713 1.0794,4.31247 1.81216,3.76762 5.63372,6.39346 9.50968,6.53422 l 0.99219,0.036 z m 45.77292,-18.52083 v -9.525 h -32.80833 -32.80834 v 9.525 9.525 h 32.80834 32.80833 z m -75.34558,164.43854 c 0.0301,-0.3638 0.13296,-0.66146 0.22855,-0.66146 0.0956,0 0.1738,0.29766 0.1738,0.66146 0,0.3638 -0.10285,0.66146 -0.22855,0.66146 -0.1257,0 -0.20391,-0.29766 -0.1738,-0.66146 z m 39.9627,0.29817 c -0.0842,-0.1362 -0.0156,-0.16269 0.15241,-0.0589 0.27277,0.16857 0.42439,-0.14761 0.3368,-0.70234 -0.0172,-0.10914 0.10047,-0.19844 0.26156,-0.19844 0.16109,0 0.22993,0.16409 0.15297,0.36463 -0.077,0.20055 -0.0124,0.49215 0.14343,0.64799 0.20141,0.20141 0.1131,0.27053 -0.30538,0.23901 -0.32381,-0.0244 -0.65761,-0.15579 -0.74179,-0.292 z m 1.73119,0.18255 c 0.19099,-0.0764 0.41919,-0.067 0.50711,0.0209 0.0879,0.0879 -0.0683,0.15046 -0.34726,0.13897 -0.30823,-0.0127 -0.37092,-0.0754 -0.15985,-0.15985 z m 17.19791,0 c 0.191,-0.0764 0.4192,-0.067 0.50712,0.0209 0.0879,0.0879 -0.0684,0.15046 -0.34726,0.13897 -0.30823,-0.0127 -0.37092,-0.0754 -0.15986,-0.15985 z m 3.22461,0.0478 c 0,-0.0368 0.1628,-0.20193 0.36177,-0.36707 0.27372,-0.22716 0.43592,-0.2109 0.66641,0.0668 0.24608,0.2965 0.17654,0.36706 -0.36177,0.36706 -0.36652,0 -0.66641,-0.0301 -0.66641,-0.0668 z m 4.97748,-0.0478 c 0.19099,-0.0764 0.41919,-0.067 0.50711,0.0209 0.0879,0.0879 -0.0683,0.15046 -0.34726,0.13897 -0.30823,-0.0127 -0.37092,-0.0754 -0.15985,-0.15985 z m 8.99583,0 c 0.19099,-0.0764 0.4192,-0.067 0.50712,0.0209 0.0879,0.0879 -0.0684,0.15046 -0.34727,0.13897 -0.30823,-0.0127 -0.37092,-0.0754 -0.15985,-0.15985 z m 8.30685,-0.0989 c 0.26859,-0.15659 0.39267,-0.4486 0.30577,-0.71956 -0.11261,-0.35109 -0.087,-0.37303 0.11125,-0.0953 0.14163,0.19837 0.31194,0.2579 0.37847,0.13229 0.0665,-0.12561 0.0902,-0.0941 0.0527,0.0701 -0.0375,0.16417 0.0653,0.43206 0.22857,0.59531 0.21938,0.21938 0.0587,0.29473 -0.61598,0.28878 -0.7342,-0.006 -0.82436,-0.0596 -0.46078,-0.27158 z m 2.90597,-0.005 c 0.0521,-0.15643 0.20792,-0.28443 0.34616,-0.28443 0.13825,0 0.29402,0.128 0.34616,0.28443 0.0521,0.15644 -0.10362,0.28443 -0.34616,0.28443 -0.24253,0 -0.39831,-0.12799 -0.34616,-0.28443 z m -24.92155,-0.81801 c 0,-0.12127 0.1786,-0.22049 0.39688,-0.22049 0.21828,0 0.39687,0.0992 0.39687,0.22049 0,0.12127 -0.17859,0.22048 -0.39687,0.22048 -0.21828,0 -0.39688,-0.0992 -0.39688,-0.22048 z m 24.87084,0 c 0,-0.12127 0.17859,-0.22049 0.39687,-0.22049 0.21828,0 0.39688,0.0992 0.39688,0.22049 0,0.12127 -0.1786,0.22048 -0.39688,0.22048 -0.21828,0 -0.39687,-0.0992 -0.39687,-0.22048 z m -87.08609,-0.55122 c -0.13244,-0.22947 -0.0927,-7.87135 0.0409,-7.87135 0.091,0 0.16507,1.78594 0.16469,3.96875 -5.9e-4,3.46994 -0.0386,4.19186 -0.20556,3.9026 z m 40.43123,-0.11024 c -0.25818,-0.25818 -0.21547,-1.14653 0.0551,-1.14653 0.12733,0 0.23151,0.29766 0.23151,0.66146 0,0.71599 -0.0207,0.75101 -0.28663,0.48507 z m 21.86718,-1.41111 c -0.01,-1.00312 0.0942,-1.58899 0.28163,-1.59155 0.20615,-0.003 0.21056,-0.0634 0.0144,-0.19844 -0.39764,-0.27386 -0.38661,-4.56001 0.0117,-4.56001 0.19422,0 0.31005,0.57526 0.31965,1.5875 0.008,0.87312 -0.0887,1.5875 -0.21548,1.5875 -0.12679,0 -0.23053,0.12609 -0.23053,0.2802 0,0.15411 0.0978,0.21975 0.21733,0.14587 0.11954,-0.0739 0.21734,0.8716 0.21734,2.10106 0,1.49207 -0.0999,2.23537 -0.30052,2.23537 -0.18924,0 -0.3061,-0.58783 -0.31558,-1.5875 z m 22.23004,0.14393 c 0,-0.79397 0.0891,-1.38853 0.19789,-1.32127 0.10883,0.0673 0.24271,-0.0122 0.2975,-0.17655 0.0548,-0.16437 0.10529,0.4302 0.11222,1.32127 0.008,1.0694 -0.0928,1.62012 -0.29751,1.62012 -0.19919,0 -0.3101,-0.51632 -0.3101,-1.44357 z m 2.65263,-1.68733 c -8e-4,-2.18232 0.091,-3.13091 0.30296,-3.13091 0.21204,0 0.30305,0.94733 0.30079,3.13091 -0.002,2.1537 -0.0968,3.1309 -0.30296,3.1309 -0.20629,0 -0.30005,-0.97593 -0.30079,-3.1309 z m -46.69814,1.47725 c -0.13281,-0.24079 -0.099,-6.28385 0.0352,-6.28385 0.0922,0 0.16911,1.42875 0.17092,3.175 0.003,2.75449 -0.0405,3.40902 -0.20611,3.10885 z m -0.73638,-1.94027 c 0.0127,-0.30823 0.0754,-0.37092 0.15985,-0.15986 0.0764,0.191 0.067,0.4192 -0.0209,0.50712 -0.0879,0.0879 -0.15046,-0.0684 -0.13897,-0.34726 z m 44.75984,-0.26354 c 0,-0.35225 0.13394,-0.64228 0.29766,-0.64451 0.19359,-0.003 0.204,-0.072 0.0298,-0.19844 -0.33073,-0.24 -0.42914,-1.70279 -0.1009,-1.49994 0.13006,0.0804 0.23648,-0.0465 0.23648,-0.28194 0,-0.23546 -0.10418,-0.36372 -0.23151,-0.28503 -0.12733,0.0787 -0.23151,-0.1524 -0.23151,-0.51355 0,-0.36115 0.14876,-0.65663 0.33058,-0.65663 0.45373,0 0.43978,4.42489 -0.0145,4.59922 -0.19141,0.0734 -0.31608,-0.13134 -0.31608,-0.51918 z m 2.64583,-3.37449 c 0,-0.33955 0.14883,-0.61736 0.33073,-0.61736 0.1819,0 0.33073,0.27781 0.33073,0.61736 0,0.33955 -0.14883,0.61736 -0.33073,0.61736 -0.1819,0 -0.33073,-0.27781 -0.33073,-0.61736 z m -46.7651,-1.23472 c 0.0899,-0.14552 0.21603,-0.26458 0.2802,-0.26458 0.0642,0 0.11668,0.11906 0.11668,0.26458 0,0.14552 -0.12609,0.26458 -0.2802,0.26458 -0.15411,0 -0.20662,-0.11906 -0.11668,-0.26458 z m 21.82812,0.0441 c 0,-0.12127 0.1786,-0.22049 0.39688,-0.22049 0.21828,0 0.39687,0.0992 0.39687,0.22049 0,0.12127 -0.17859,0.22048 -0.39687,0.22048 -0.21828,0 -0.39688,-0.0992 -0.39688,-0.22048 z m 22.225,0 c 0,-0.12127 0.1786,-0.22049 0.39688,-0.22049 0.21828,0 0.39687,0.0992 0.39687,0.22049 0,0.12127 -0.17859,0.22048 -0.39687,0.22048 -0.21828,0 -0.39688,-0.0992 -0.39688,-0.22048 z m 2.64584,0 c 0,-0.12127 0.17859,-0.22049 0.39687,-0.22049 0.21828,0 0.39688,0.0992 0.39688,0.22049 0,0.12127 -0.1786,0.22048 -0.39688,0.22048 -0.21828,0 -0.39687,-0.0992 -0.39687,-0.22048 z"
         id="path2873" />
    </g>
  </g>
</svg>
