<?xml version="1.0" encoding="UTF-8" standalone="no"?>
<svg
   xmlns:dc="http://purl.org/dc/elements/1.1/"
   xmlns:cc="http://creativecommons.org/ns#"
   xmlns:rdf="http://www.w3.org/1999/02/22-rdf-syntax-ns#"
   xmlns:svg="http://www.w3.org/2000/svg"
   xmlns="http://www.w3.org/2000/svg"
   xmlns:sodipodi="http://sodipodi.sourceforge.net/DTD/sodipodi-0.dtd"
   xmlns:inkscape="http://www.inkscape.org/namespaces/inkscape"
   width="50mm"
   height="80mm"
   viewBox="0 0 50 80"
   version="1.1"
   id="svg8"
   sodipodi:docname="planparter3.svg"
   inkscape:version="1.0.1 (3bc2e813f5, 2020-09-07)">
  <defs
     id="defs2" />
  <sodipodi:namedview
     id="base"
     pagecolor="#ffffff"
     bordercolor="#666666"
     borderopacity="1.0"
     inkscape:pageopacity="0.0"
     inkscape:pageshadow="2"
     inkscape:zoom="1.4"
     inkscape:cx="18.466166"
     inkscape:cy="44.820557"
     inkscape:document-units="mm"
     inkscape:current-layer="layer1"
     inkscape:document-rotation="0"
     showgrid="false"
     inkscape:window-width="1920"
     inkscape:window-height="1137"
     inkscape:window-x="-8"
     inkscape:window-y="-8"
     inkscape:window-maximized="1" />
  <metadata
     id="metadata5">
    <rdf:RDF>
      <cc:Work
         rdf:about="">
        <dc:format>image/svg+xml</dc:format>
        <dc:type
           rdf:resource="http://purl.org/dc/dcmitype/StillImage" />
        <dc:title></dc:title>
      </cc:Work>
    </rdf:RDF>
  </metadata>
  <g
     inkscape:label="Layer 1"
     inkscape:groupmode="layer"
     id="layer1">
    <g
       id="g2889"
       transform="matrix(0.38924661,0,0,0.38924661,-82.287358,-39.166502)">
      <path
         style="fill:#bfd6eb;fill-opacity:0.690763;stroke-width:0.264583"
         d="m 279.12406,231.51969 c 0,-0.82498 0.10151,-1.27579 0.26458,-1.17501 0.14552,0.0899 0.26459,0.50666 0.26459,0.92605 0,0.95432 0.29894,1.14462 2.11666,1.34738 1.41529,0.15786 1.39896,0.16338 -0.59531,0.20122 l -2.05052,0.0389 z m 4.96094,1.16331 c 0.1819,-0.0734 0.47955,-0.0734 0.66145,0 0.18191,0.0734 0.0331,0.13345 -0.33072,0.13345 -0.36381,0 -0.51263,-0.0601 -0.33073,-0.13345 z m 3.77031,-0.0257 c 0,-0.11052 0.23812,-0.34965 0.52917,-0.53141 0.46047,-0.28757 0.52916,-0.61701 0.52916,-2.5377 0,-2.53511 -0.31534,-3.69553 -1.29277,-4.75722 -1.09721,-1.19179 -2.08117,-1.56043 -4.53924,-1.70058 -2.697,-0.15377 -3.4284,0.11394 -3.4284,1.25488 0,0.42286 -0.11907,0.84241 -0.26459,0.93235 -0.16333,0.10095 -0.26458,-0.3591 -0.26458,-1.20222 v -1.36573 l 3.24114,0.0953 c 2.85664,0.084 3.3824,0.17353 4.43178,0.75481 1.90088,1.05296 2.38125,2.29149 2.38125,6.13955 v 3.11893 h -0.66146 c -0.3638,0 -0.66146,-0.0904 -0.66146,-0.20093 z m 1.5875,-2.918 c 0,-2.70891 -0.0783,-3.27386 -0.59531,-4.29734 -1.0999,-2.17722 -2.84372,-2.89873 -7.01146,-2.901 l -2.71198,-0.001 v -5.70557 -5.70556 l 2.84427,0.15002 c 3.57767,0.18871 4.82407,0.18874 8.20208,2.2e-4 l 2.71198,-0.15134 v 2.53111 2.53112 h 10.31875 10.31875 v 5.02708 5.02708 h -0.66146 c -0.48506,0 -0.66145,-0.14111 -0.66145,-0.52916 0,-0.50565 -0.17639,-0.52917 -3.96875,-0.52917 h -3.96875 v 3.83646 3.83645 h -2.51859 c -2.47215,0 -2.5163,-0.011 -2.39478,-0.59531 0.40171,-1.93172 0.42751,-4.15531 0.0585,-5.03857 -0.67196,-1.60824 -2.23099,-1.99165 -3.53086,-0.86834 -0.7376,0.63741 -0.742,0.66033 -0.68682,3.57188 l 0.0555,2.93034 h -2.89981 -2.89981 v -3.11893 z m 6.04264,1.86217 c -0.13942,-4.09678 -0.10489,-4.33682 0.71997,-5.00452 0.82991,-0.6718 1.75927,-0.65291 2.47773,0.0504 0.38296,0.37487 0.87629,3.10575 0.52143,2.88644 -0.10654,-0.0658 -0.27239,0.2385 -0.36855,0.67633 -0.16538,0.75297 -0.24505,0.79606 -1.4717,0.79606 -1.16898,0 -1.31353,-0.0664 -1.46596,-0.67378 -0.093,-0.37057 -0.22014,-0.62275 -0.2825,-0.56038 -0.0624,0.0624 -0.0352,0.42509 0.0605,0.80607 0.16263,0.64796 0.27331,0.69268 1.71427,0.69268 1.38711,0 1.55183,-0.0593 1.65508,-0.59532 0.0727,-0.37768 0.12783,-0.24051 0.15069,0.37524 0.0619,1.66627 -0.0927,1.80758 -1.97665,1.80758 h -1.69148 l -0.0428,-1.25677 z m 9.03861,-2.44739 v -3.70417 h 3.70417 3.70416 v 3.70417 3.70416 h -3.70416 -3.70417 z m 3.32475,-0.0282 c 0.12668,-0.20498 0.24612,-0.18743 0.3981,0.0585 0.27578,0.4462 0.41843,0.29774 0.66516,-0.69224 0.17909,-0.71862 0.15623,-0.75906 -0.24308,-0.43009 -0.28661,0.23613 -0.44076,0.25926 -0.44076,0.0661 0,-0.49052 -0.5267,-0.33431 -0.55986,0.16604 -0.0292,0.44098 -0.0365,0.44098 -0.1517,0 -0.0665,-0.25466 -0.24407,-0.46302 -0.39448,-0.46302 -0.15043,0 -0.20123,0.18833 -0.1129,0.41852 0.0883,0.23018 0.1606,0.58737 0.1606,0.79375 0,0.4458 0.42262,0.4971 0.67892,0.0824 z m -27.60027,3.02802 c -0.24512,-0.0989 -0.33073,-1.22226 -0.33073,-4.3397 v -4.20624 l 0.69001,-0.17318 c 1.07131,-0.26888 4.698,0.0623 5.55322,0.50703 1.89242,0.98421 2.5677,2.60468 2.43886,5.85254 -0.0625,1.57543 -0.18162,2.1278 -0.48001,2.22584 -0.34031,0.11182 -0.34512,0.0677 -0.0337,-0.30949 0.29124,-0.35282 0.29792,-0.51847 0.0337,-0.83678 -0.26055,-0.31394 -0.91695,-0.38575 -3.14125,-0.34363 -2.58899,0.049 -2.6441,0.0601 -0.69521,0.14017 1.59081,0.0653 2.19884,0.19614 2.4474,0.5265 0.39895,0.53023 0.42467,0.86758 0.0661,0.86758 -0.14553,0 -0.27399,-0.26789 -0.28548,-0.59531 -0.0115,-0.32742 -0.0809,-0.44648 -0.15434,-0.26458 -0.09,0.22303 -0.77514,0.33073 -2.10408,0.33073 -1.5076,0 -2.00641,0.0932 -2.12292,0.39687 -0.14651,0.3818 -1.18234,0.50382 -1.88162,0.22165 z m 1.6548,-1.14956 c 0.0906,-0.14655 -0.0266,-0.33985 -0.26038,-0.42956 -0.50658,-0.19439 -0.78891,0.0198 -0.54541,0.41383 0.21971,0.35549 0.59132,0.36275 0.80579,0.0157 z m -0.46755,-5.09136 c -0.0534,-0.76398 -0.0972,-0.1389 -0.0972,1.38907 0,1.52796 0.0437,2.15304 0.0972,1.38906 0.0534,-0.76399 0.0534,-2.01414 0,-2.77813 z m 2.72197,1.98438 1.97776,-2.05052 -2.05052,1.97775 c -1.90448,1.83689 -2.17125,2.12329 -1.97776,2.12329 0.04,0 0.96276,-0.92274 2.05052,-2.05052 z m -1.06495,4.16718 c 0,-0.14552 0.24515,-0.26458 0.54478,-0.26458 0.29963,0 0.4712,0.11906 0.38126,0.26458 -0.0899,0.14553 -0.33509,0.26459 -0.54478,0.26459 -0.20969,0 -0.38126,-0.11906 -0.38126,-0.26459 z m 1.45521,0 c -0.0899,-0.14552 0.0816,-0.26458 0.38126,-0.26458 0.29963,0 0.54478,0.11906 0.54478,0.26458 0,0.14553 -0.17157,0.26459 -0.38126,0.26459 -0.20969,0 -0.45485,-0.11906 -0.54478,-0.26459 z m 2.51354,-0.79374 c 0,-0.14553 0.17859,-0.26459 0.39687,-0.26459 0.21829,0 0.39688,0.11906 0.39688,0.26459 0,0.14552 -0.17859,0.26458 -0.39688,0.26458 -0.21828,0 -0.39687,-0.11906 -0.39687,-0.26458 z m -7.9375,-1.5875 c 0,-0.14553 0.11906,-0.26459 0.26458,-0.26459 0.14552,0 0.26459,0.11906 0.26459,0.26459 0,0.14552 -0.11907,0.26458 -0.26459,0.26458 -0.14552,0 -0.26458,-0.11906 -0.26458,-0.26458 z m 0.0793,-1.85209 c 0,-0.80036 0.0496,-1.12778 0.11023,-0.7276 0.0606,0.40018 0.0606,1.05502 0,1.45521 -0.0606,0.40018 -0.11023,0.0728 -0.11023,-0.72761 z m -0.0793,-1.85208 c 0,-0.14552 0.11906,-0.26458 0.26458,-0.26458 0.14552,0 0.26459,0.11906 0.26459,0.26458 0,0.14552 -0.11907,0.26458 -0.26459,0.26458 -0.14552,0 -0.26458,-0.11906 -0.26458,-0.26458 z m 14.02292,-14.68438 v -4.6302 h 10.18645 10.18646 l -0.0372,2.18281 c -0.034,1.99327 -0.0519,2.0622 -0.20578,0.79375 -0.11233,-0.92582 -0.36717,-1.58759 -0.76417,-1.98437 -0.59068,-0.59036 -0.6604,-0.59532 -8.37406,-0.59532 -7.43395,0 -7.8115,0.0241 -8.52515,0.54466 -0.91565,0.66788 -1.93734,2.59866 -1.93734,3.6612 0,1.18431 0.98591,2.98226 1.96824,3.58937 0.83285,0.51474 1.23029,0.53649 8.77862,0.48054 l 7.90627,-0.0586 -8.06979,-0.13982 c -8.99865,-0.15592 -8.88656,-0.13293 -9.79687,-2.0093 -0.64987,-1.33953 -0.65224,-2.31574 -0.009,-3.7323 0.9396,-2.06944 0.94762,-2.07115 9.75093,-2.07115 h 7.77415 l 0.50606,0.62463 c 0.32662,0.40314 0.50606,1.03641 0.50606,1.78593 0,1.07234 -0.0524,1.16132 -0.68351,1.16132 -0.8422,0 -0.73169,0.62249 0.133,0.74916 0.54497,0.0798 0.5877,0.19851 0.47633,1.32292 -0.0673,0.67937 -0.20054,1.53287 -0.29612,1.89667 l -0.1738,0.66146 0.314,-0.66146 c 0.1727,-0.3638 0.39742,-1.25677 0.49938,-1.98438 0.16919,-1.2074 0.18863,-1.13231 0.22263,0.8599 l 0.0372,2.18281 h -10.18646 -10.18645 z m 18.08734,0 c -0.0838,-0.21828 -0.31815,-0.39687 -0.52086,-0.39687 -0.20271,0 -0.36857,0.17859 -0.36857,0.39687 0,0.21838 0.23427,0.39688 0.52087,0.39688 0.35428,0 0.47215,-0.12692 0.36856,-0.39688 z m -26.62016,-0.39088 c -0.48449,-0.38193 -0.7276,-0.82153 -0.7276,-1.31572 0,-0.98384 0.48482,-1.3386 1.67211,-1.22354 0.53783,0.0521 1.0435,-0.0114 1.12371,-0.14119 0.39662,-0.64175 1.7021,0.46488 1.7021,1.44283 0,1.46722 -2.45623,2.27349 -3.77032,1.23762 z m 2.01391,-1.19662 c -0.15914,-0.4147 -0.88943,-0.55953 -0.88943,-0.17639 0,0.32325 0.3041,0.57327 0.69725,0.57327 0.1975,0 0.2795,-0.16934 0.19218,-0.39688 z m 25.50276,1.54457 c 0.1819,-0.0734 0.47956,-0.0734 0.66146,0 0.1819,0.0734 0.0331,0.13345 -0.33073,0.13345 -0.3638,0 -0.51263,-0.06 -0.33073,-0.13345 z m -33.00677,-2.33832 v -1.98437 h 6.87917 6.87916 v 1.98437 1.98438 h -2.38349 c -2.25241,0 -2.36669,-0.0269 -2.07796,-0.48923 0.75486,-1.20872 -0.53737,-2.73869 -2.31312,-2.73869 -1.7558,0 -3.11563,1.7534 -2.20798,2.84704 0.27135,0.32696 -0.0443,0.38088 -2.22984,0.38088 h -2.54594 z m 6.7768,-0.97445 c 0.0764,-0.12364 0.24976,-0.1563 0.38523,-0.0726 0.34618,0.21395 0.3072,0.29738 -0.13893,0.29738 -0.21188,0 -0.32272,-0.10116 -0.2463,-0.2248 z"
         id="path2903" />
      <path
         style="fill:#dfd3b6;stroke-width:0.264583"
         d="m 284.41573,200.04989 v -3.70416 h 14.55208 14.55208 v 3.70416 3.70417 h -14.55208 -14.55208 z m 0,-4.36562 c 0,-0.33917 0.74791,-0.39688 5.14375,-0.39688 2.82907,0 5.20883,-0.10527 5.28835,-0.23394 0.26285,-0.4253 -0.41623,-3.314 -1.11483,-4.74232 -1.41527,-2.89358 -4.88093,-5.41994 -7.93055,-5.78112 -1.23458,-0.14622 -1.38672,-0.23277 -1.38672,-0.78885 v -0.6246 h 3.83645 3.83646 v -3.30729 c 0,-3.09246 0.0332,-3.30729 0.51134,-3.30729 0.28123,0 0.58691,0.23812 0.67929,0.52916 0.24992,0.78744 0.88035,0.67404 0.72652,-0.13068 -0.1148,-0.60051 -0.0539,-0.65144 0.67701,-0.56633 0.88232,0.10273 1.09954,-0.26392 1.1064,-1.86748 0.003,-0.70143 0.0934,-0.82742 0.53278,-0.7428 0.29104,0.056 0.52916,-0.0215 0.52916,-0.17225 0,-0.15079 -0.23812,-0.33643 -0.52916,-0.41254 -0.37827,-0.0989 -0.52917,-0.3609 -0.52917,-0.91867 0,-1.21891 -0.4455,-1.8311 -1.27031,-1.74558 -0.60559,0.0628 -0.70149,-0.0164 -0.63129,-0.52127 0.0926,-0.66578 -0.33889,-0.8146 -0.57533,-0.19844 -0.0838,0.21828 -0.39416,0.39688 -0.68977,0.39688 -0.51157,0 -0.53747,-0.15936 -0.53747,-3.30729 v -3.3073 h -3.83646 -3.83645 v -5.00618 -5.00618 l 1.98499,-0.087 1.98499,-0.087 -5.3e-4,4.99716 -5.3e-4,4.99716 1.70553,-0.1369 c 4.44499,-0.35681 8.82483,-4.17594 10.24262,-8.93138 0.30994,-1.03959 0.37176,0.72254 0.48727,13.89062 l 0.13229,15.08125 6.28385,0.0709 6.28386,0.0709 v 6.34521 6.34521 h -14.55209 c -12.75879,0 -14.55208,-0.0489 -14.55208,-0.39687 z m -0.26459,-5.85785 v -5.19639 l 1.49943,0.15475 c 0.86206,0.089 2.1914,0.49541 3.12731,0.95616 3.26654,1.60811 5.21379,4.35058 5.79204,8.15739 l 0.17081,1.12448 h -5.29479 -5.2948 z m 16.93334,-19.54215 v -12.83229 h 6.2177 6.21771 l -0.0506,2.84427 -0.0506,2.84427 -0.14779,-2.51354 -0.14779,-2.51354 h -5.68854 -5.68855 l -0.0754,2.71705 c -0.0707,2.54395 -0.0405,2.73001 0.47385,2.92027 0.5405,0.19994 0.53853,0.21334 -0.12298,0.83479 l -0.67229,0.63159 v 8.81254 8.81254 l 6.15156,0.0762 6.15156,0.0761 -6.28385,0.061 -6.28385,0.061 z m -16.66875,3.04271 v -9.525 h 3.70416 3.70417 v 3.16117 3.16117 l -1.38906,0.08 -1.38907,0.08 -0.0745,3.10885 c -0.0835,3.48075 -0.239,3.23758 1.99277,3.11539 l 0.8599,-0.0471 v 3.19527 3.19528 h -3.70417 -3.70416 z m 3.43958,2.14497 c 0,-0.27547 0.17859,-0.56939 0.39687,-0.65315 0.28002,-0.10745 0.39688,-0.54429 0.39688,-1.48352 0,-1.00692 -0.0967,-1.33122 -0.39688,-1.33122 -0.25036,0 -0.39687,-0.25233 -0.39687,-0.68351 0,-0.42098 -0.12422,-0.6421 -0.32343,-0.57569 -0.9702,0.3234 -0.92113,5.22795 0.0523,5.22795 0.14912,0 0.27113,-0.22539 0.27113,-0.50086 z m 0,-2.01268 c 0,-0.65485 0.11906,-1.19063 0.26458,-1.19063 0.14552,0 0.26459,0.53578 0.26459,1.19063 0,0.65484 -0.11907,1.19062 -0.26459,1.19062 -0.14552,0 -0.26458,-0.53578 -0.26458,-1.19062 z m 13.75833,0.52917 v -8.59896 h 1.19063 1.19062 v -1.05834 -1.05833 h 4.63021 4.63021 v 9.65729 9.65729 h -5.82083 -5.82084 z m -11.37708,0.39687 c 0,-1.46991 0.0819,-1.85208 0.39687,-1.85208 0.31499,0 0.39688,0.38217 0.39688,1.85208 0,1.46991 -0.0819,1.85208 -0.39688,1.85208 -0.31498,0 -0.39687,-0.38217 -0.39687,-1.85208 z m 1.42297,-1.05833 c 0,-1.67349 0.043,-2.3581 0.0955,-1.52136 0.0525,0.83675 0.0525,2.20597 0,3.04271 -0.0525,0.83675 -0.0955,0.15214 -0.0955,-1.52135 z m 0.42911,0 v -2.91042 h 0.80725 c 1.11526,0 1.69252,1.35558 1.49673,3.51475 -0.16306,1.79827 -0.50275,2.30608 -1.54262,2.30608 h -0.76136 z m 2.46981,2.08594 c 0.0928,-0.3469 0.17043,-0.77956 0.17241,-0.96146 0.002,-0.18191 0.13022,-0.33073 0.28496,-0.33073 0.41513,0 0.18011,1.6578 -0.25532,1.80098 -0.27649,0.0909 -0.3279,-0.0385 -0.20205,-0.50879 z m -5.29896,-2.39599 c -0.0135,-2.07009 0.0529,-2.53227 0.34787,-2.41909 0.41116,0.15778 0.50197,0.87705 0.11073,0.87705 -0.13963,0 -0.29617,0.92274 -0.34786,2.05052 -0.088,1.91918 -0.0951,1.88661 -0.11074,-0.50848 z m 5.47499,0.31005 c 0,-0.29104 0.11906,-0.52917 0.26458,-0.52917 0.14552,0 0.26458,0.23813 0.26458,0.52917 0,0.29104 -0.11906,0.52916 -0.26458,0.52916 -0.14552,0 -0.26458,-0.23812 -0.26458,-0.52916 z m -0.0771,-1.51985 c -0.15551,-0.81351 -0.01,-1.21097 0.35998,-0.98239 0.31354,0.19377 0.32468,1.70849 0.0126,1.70849 -0.12856,0 -0.2962,-0.32675 -0.37254,-0.7261 z m -4.4208,-0.72911 c 0,-0.21828 0.17859,-0.39688 0.39687,-0.39688 0.21829,0 0.39688,0.1786 0.39688,0.39688 0,0.21828 -0.17859,0.39687 -0.39688,0.39687 -0.21828,0 -0.39687,-0.17859 -0.39687,-0.39687 z m 12.43542,-6.87917 c 0.49365,-0.50932 0.93373,-0.92604 0.97794,-0.92604 0.0442,0 0.0804,0.41672 0.0804,0.92604 0,0.89131 -0.0367,0.92604 -0.97795,0.92604 h -0.97794 z m -0.79375,-3.30729 v -2.64583 h 5.55625 5.55625 v 2.38125 2.38125 h -4.74689 c -2.87919,0 -4.81122,0.1041 -4.91041,0.26458 -0.0899,0.14552 -0.45415,0.26458 -0.80936,0.26458 -0.64168,0 -0.64584,-0.017 -0.64584,-2.64583 z m -13.22917,-2.74138 v -4.93154 h 5.82587 5.82588 l -0.15828,0.72761 c -0.0871,0.40018 -0.56176,1.56993 -1.0549,2.59943 -1.63692,3.41733 -5.3118,6.07116 -8.85147,6.39213 l -1.5871,0.14391 z m 12.43542,-2.81487 v -1.85208 h 6.2177 6.21771 v 1.85208 1.85208 h -6.21771 -6.2177 z"
         id="path2901" />
      <path
         style="fill:#cbcbcb;stroke-width:0.264583"
         d="m 259.28031,285.6426 c 0,-0.3175 0.39687,-0.39688 1.98437,-0.39688 1.5875,0 1.98438,-0.0794 1.98438,-0.39687 0,-0.21828 -0.1786,-0.39688 -0.39688,-0.39688 -0.56181,0 -0.50748,-1.83137 0.075,-2.5264 0.43736,-0.52191 1.22456,-0.9749 1.77714,-1.02262 0.14552,-0.0126 0.26404,-0.26098 0.26338,-0.55202 -8e-4,-0.40763 -0.18382,-0.53317 -0.79633,-0.54659 -0.43732,-0.01 -1.02008,-0.14331 -1.29503,-0.29718 -0.44805,-0.25075 -0.39976,-0.31282 0.4656,-0.59841 1.0598,-0.34977 1.2422,-0.89407 0.46273,-1.38086 -0.27652,-0.17269 -0.44699,-0.45931 -0.37883,-0.63694 0.0682,-0.17762 0.002,-0.39834 -0.14714,-0.49048 -0.14909,-0.0921 -0.20341,-0.34382 -0.12073,-0.5593 0.0827,-0.21547 0.022,-0.54639 -0.13483,-0.73538 -0.21974,-0.26477 -0.0748,-0.4197 0.63185,-0.67521 1.01125,-0.36568 1.2761,-0.97401 0.31952,-0.73392 -0.79695,0.20002 -1.4199,-0.16089 -0.93636,-0.5425 0.18879,-0.14899 0.68789,-0.35343 1.10912,-0.45431 0.50112,-0.12001 0.67608,-0.27322 0.50611,-0.44319 -0.16997,-0.16997 -0.51366,-0.16324 -0.9942,0.0195 -0.69363,0.26372 -0.72557,0.2439 -0.57481,-0.35676 0.10152,-0.40451 0.0161,-0.75512 -0.2347,-0.96326 -0.5096,-0.42294 -0.50806,-1.05622 0.003,-1.05622 0.21828,0 0.39688,-0.17859 0.39688,-0.39687 0,-0.3175 -0.39688,-0.39688 -1.98438,-0.39688 -1.17415,0 -1.98437,-0.11033 -1.98437,-0.27023 0,-0.17897 3.03782,-0.26405 8.99583,-0.25195 l 8.99584,0.0183 v 8.71861 8.71862 h -8.99584 c -7.81991,0 -8.99583,-0.0519 -8.99583,-0.39688 z m 0.33073,-0.84385 c 0.25466,-0.0665 0.67138,-0.0665 0.92604,0 0.25466,0.0666 0.0463,0.12101 -0.46302,0.12101 -0.50933,0 -0.71768,-0.0544 -0.46302,-0.12101 z m 2.38628,-10e-4 c 0.25743,-0.0671 0.61462,-0.0627 0.79375,0.01 0.17913,0.0725 -0.0315,0.12736 -0.46805,0.12197 -0.43657,-0.005 -0.58313,-0.0647 -0.3257,-0.13177 z m -2.71296,-1.86708 c 0.002,-0.83675 0.11602,-1.69845 0.25287,-1.91489 0.20476,-0.32386 0.25204,-0.30044 0.26698,0.13229 0.01,0.2892 0.0863,1.15091 0.16954,1.91489 0.12629,1.15887 0.0814,1.38906 -0.27103,1.38906 -0.33832,0 -0.42161,-0.30286 -0.41836,-1.52135 z m 1.39093,0.46302 c 0,-0.65484 0.0516,-0.92273 0.11466,-0.59531 0.0631,0.32742 0.0631,0.8632 0,1.19062 -0.0631,0.32742 -0.11466,0.0595 -0.11466,-0.59531 z m 0.98627,0 c 0,-0.58208 0.11906,-1.05833 0.26458,-1.05833 0.14552,0 0.26458,0.47625 0.26458,1.05833 0,0.58208 -0.11906,1.05833 -0.26458,1.05833 -0.14552,0 -0.26458,-0.47625 -0.26458,-1.05833 z m -2.38125,-3.78589 c 0,-0.45652 0.14241,-0.71203 0.39687,-0.71203 0.49381,0 0.49151,0.24952 -0.008,0.91047 -0.37256,0.49256 -0.38846,0.48444 -0.38846,-0.19844 z m 0,-2.44743 c 0,-0.22687 0.11906,-0.33891 0.26458,-0.24897 0.14552,0.0899 0.26458,0.27556 0.26458,0.41249 0,0.13693 -0.11906,0.24897 -0.26458,0.24897 -0.14552,0 -0.26458,-0.18562 -0.26458,-0.41249 z m 0,-2.35002 c 0,-0.22687 0.11906,-0.41249 0.26458,-0.41249 0.14552,0 0.26458,0.11203 0.26458,0.24896 0,0.13694 -0.11906,0.32256 -0.26458,0.4125 -0.14552,0.0899 -0.26458,-0.0221 -0.26458,-0.24897 z m 0,-3.05833 c 0,-1.4699 0.0819,-1.85208 0.39687,-1.85208 0.45961,0 0.53164,0.81774 0.10924,1.24014 -0.20713,0.20713 -0.20713,0.33739 0,0.4654 0.1582,0.0978 0.28764,0.0517 0.28764,-0.10242 0,-0.15411 0.19465,-0.2802 0.43255,-0.2802 0.31475,0 0.242,0.14989 -0.2671,0.55035 -0.38481,0.3027 -0.62411,0.67259 -0.53178,0.822 0.11397,0.18439 0.22325,0.18207 0.34024,-0.007 0.11028,-0.17844 0.31277,-0.19007 0.56224,-0.0323 0.32749,0.2071 0.31579,0.24721 -0.0731,0.25061 -0.25466,0.002 -0.46302,0.18265 -0.46302,0.40093 0,0.21828 -0.1786,0.39687 -0.39688,0.39687 -0.31498,0 -0.39687,-0.38217 -0.39687,-1.85208 z m 1.3438,-1.47725 c 0.0127,-0.30823 0.0754,-0.37092 0.15985,-0.15986 0.0764,0.191 0.067,0.4192 -0.0209,0.50712 -0.0879,0.0879 -0.15045,-0.0684 -0.13897,-0.34726 z m 1.03745,-0.11025 c 0,-0.14552 0.11906,-0.26458 0.26458,-0.26458 0.14552,0 0.26458,0.11906 0.26458,0.26458 0,0.14552 -0.11906,0.26459 -0.26458,0.26459 -0.14552,0 -0.26458,-0.11907 -0.26458,-0.26459 z m -2.05052,-0.71155 c 0.25466,-0.0666 0.67138,-0.0666 0.92604,0 0.25466,0.0666 0.0463,0.121 -0.46302,0.121 -0.50933,0 -0.71768,-0.0544 -0.46302,-0.121 z m 2.38628,-10e-4 c 0.25743,-0.0671 0.61462,-0.0627 0.79375,0.01 0.17913,0.0725 -0.0315,0.12736 -0.46805,0.12197 -0.43657,-0.005 -0.58313,-0.0647 -0.3257,-0.13177 z"
         id="path2899" />
      <path
         style="fill:#e7b1b1;fill-opacity:0.546185;stroke-width:0.264583"
         d="m 264.83656,229.15406 v -3.96875 h -11.10953 -11.10954 l -0.0722,-10.78177 -0.0722,-10.78177 -0.0631,10.80654 c -0.0619,10.61085 -0.0535,10.80904 0.46607,10.94492 0.45945,0.12015 0.52917,0.3609 0.52917,1.82731 v 1.68894 h -2.38125 -2.38125 v -3.57188 -3.57187 h 1.5875 1.5875 v -3.96875 -3.96875 h -1.5875 -1.5875 v -4.88217 -4.88217 l 1.65364,-0.0939 c 0.90951,-0.0517 0.0761,-0.11688 -1.85208,-0.14492 l -3.50573,-0.051 v -8.19637 -8.19637 l 5.09323,-0.0779 5.09323,-0.0779 -5.09323,-0.0601 -5.09323,-0.0601 v -0.79375 -0.79375 h 5.15938 5.15937 v 0.92604 c 0,0.50932 0.0893,0.92611 0.19844,0.9262 0.10914,9e-5 0.17728,-0.4464 0.15143,-0.99219 -0.0259,-0.54579 -0.0827,-5.8739 -0.12637,-11.84026 -0.0436,-5.96635 -0.11431,-8.49643 -0.15702,-5.62239 l -0.0777,5.22552 h -3.56628 -3.56628 v -5.29167 -5.29167 h 3.67522 3.67522 l 0.10813,-0.92623 c 0.0595,-0.50942 -0.0108,-1.04521 -0.15626,-1.19062 -0.15787,-0.15787 -2.32177,-0.2644 -5.37085,-0.2644 h -5.10646 v -3.82908 -3.82907 l 8.20222,-0.0735 8.20223,-0.0735 -1.4e-4,5.22552 -1.4e-4,5.22552 h 0.87045 c 1.26322,0 3.69285,-0.6839 5.27136,-1.48379 2.81439,-1.42616 5.71139,-5.20529 6.16421,-8.04121 0.10292,-0.64454 -0.002,-0.48368 -0.34608,0.52916 -1.51735,4.4703 -4.37744,7.20971 -8.70379,8.33658 -0.83339,0.21707 -1.84742,0.39467 -2.25341,0.39467 h -0.73816 v -5.16425 -5.16425 l 6.13996,0.071 6.13995,0.071 0.55147,1.60192 c 0.8092,2.3506 1.76492,3.8256 3.54906,5.47739 2.22887,2.06354 5.13791,3.34651 7.6305,3.36526 l 0.8599,0.006 -5.3e-4,-5.22552 -5.3e-4,-5.22552 3.04323,0.0822 3.04322,0.0822 v 5.54024 5.54023 h -1.32291 -1.32292 v 9.78958 9.78958 h 1.32292 1.32291 v 9.78001 9.78 l -2.57968,0.0757 -2.57969,0.0757 -0.0738,3.50573 -0.0738,3.50573 h -5.18844 -5.18845 l 0.14649,1.61547 c 0.3932,4.3363 4.09069,8.1772 8.7244,9.06277 l 1.52136,0.29075 v 5.628 5.62801 h -6.21771 -6.21771 v -3.96875 z m -10.58334,-25.45355 c 0,-2.38016 0.019,-2.45438 0.84566,-3.30729 0.83724,-0.86382 0.87012,-0.87249 3.30729,-0.87249 h 2.46164 v -2.77813 -2.77812 h -2.4348 c -2.38017,0 -2.45438,-0.019 -3.30729,-0.84566 -0.86382,-0.83724 -0.8725,-0.87012 -0.8725,-3.30729 v -2.46164 h -2.77812 -2.77813 l -0.008,2.4474 c -0.008,2.40151 -0.0244,2.46331 -0.86272,3.29652 -0.82614,0.82112 -0.93715,0.85167 -3.36504,0.92605 l -2.51071,0.0769 v 2.64583 2.64583 l 2.47487,0.0764 c 2.46029,0.076 2.48016,0.0821 3.37344,1.0292 0.8824,0.93562 0.89856,0.99494 0.89856,3.297 v 2.34424 h 2.77813 2.77812 z m -3.9026,1.97747 c 0.5457,-0.0571 1.43867,-0.0571 1.98437,0 0.54571,0.0571 0.0992,0.10379 -0.99218,0.10379 -1.09141,0 -1.53789,-0.0467 -0.99219,-0.10379 z m -1.38906,-2.3301 c 0,-1.88911 0.0268,-1.97932 0.51177,-1.7198 0.64665,0.34608 2.94311,0.35558 3.83663,0.0159 l 0.67868,-0.25802 v 1.97782 1.97783 h -2.51354 -2.51354 z m 0.46302,-1.99626 c -0.25466,-0.14833 -0.46302,-0.44237 -0.46302,-0.65342 0,-0.30832 0.49394,-0.38372 2.51354,-0.38372 2.076,0 2.51354,0.0702 2.51354,0.40342 0,0.22188 -0.30541,0.51954 -0.67868,0.66146 -0.88179,0.33525 -3.2917,0.31805 -3.88538,-0.0277 z m -1.64588,-1.10329 c -0.37271,-0.52941 -0.37437,-0.60478 -0.015,-0.68086 0.61218,-0.12959 0.59697,-5.52492 -0.0159,-5.64974 -0.33606,-0.0684 -0.28317,-0.21378 0.26459,-0.72698 0.68263,-0.63957 0.68461,-0.63976 0.68461,-0.0661 0,0.55266 0.10503,0.57528 2.67061,0.57528 2.47063,0 2.68123,-0.0406 2.81258,-0.54292 0.14076,-0.53827 0.14743,-0.53779 0.77981,0.0563 0.62673,0.58878 0.62843,0.6027 0.0978,0.79898 -0.49445,0.18291 -0.54,0.42364 -0.54,2.85412 0,2.5489 0.0229,2.65436 0.57528,2.65436 0.57362,0 0.57343,0.002 -0.0661,0.68461 -0.5132,0.54776 -0.65854,0.60065 -0.72698,0.26459 -0.12401,-0.60888 -5.603,-0.63153 -5.603,-0.0232 0,0.57952 -0.43707,0.48507 -0.91827,-0.19844 z m -5.69631,-1.25677 c 0,-0.14552 0.11906,-0.26458 0.26458,-0.26458 0.14552,0 0.26459,0.11906 0.26459,0.26458 0,0.14552 -0.11907,0.26458 -0.26459,0.26458 -0.14552,0 -0.26458,-0.11906 -0.26458,-0.26458 z m 0.79375,-2.24896 v -2.51354 h 1.99368 c 1.97244,0 1.99037,0.006 1.682,0.5824 -0.17143,0.32032 -0.31169,1.18933 -0.31169,1.93114 0,0.74181 0.14026,1.61083 0.31169,1.93114 0.30837,0.5762 0.29044,0.5824 -1.682,0.5824 h -1.99368 z m 3.94026,1.93114 c -0.17143,-0.32031 -0.31169,-1.18933 -0.31169,-1.93114 0,-1.48641 0.41311,-2.51354 1.01095,-2.51354 0.31317,0 0.38756,0.4825 0.38756,2.51354 0,2.03104 -0.0744,2.51354 -0.38756,2.51354 -0.21316,0 -0.52783,-0.26208 -0.69926,-0.5824 z m 7.96599,-1.93114 c 0,-2.26404 0.0483,-2.51354 0.4867,-2.51354 0.63716,0 1.1008,1.05866 1.1008,2.51354 0,1.45489 -0.46364,2.51354 -1.1008,2.51354 -0.43839,0 -0.4867,-0.2495 -0.4867,-2.51354 z m 1.48787,2.05052 c 0.28699,-0.59975 0.28699,-3.50128 0,-4.10104 -0.20089,-0.41981 -0.0337,-0.46302 1.79112,-0.46302 h 2.01268 v 2.51354 2.51354 h -2.01268 c -1.82486,0 -1.99201,-0.0432 -1.79112,-0.46302 z m -14.18787,-2.05052 c 0,-0.97014 0.11533,-1.71979 0.26458,-1.71979 0.14926,0 0.26459,0.74965 0.26459,1.71979 0,0.97014 -0.11533,1.71979 -0.26459,1.71979 -0.14925,0 -0.26458,-0.74965 -0.26458,-1.71979 z m 18.34307,0 c 0.001,-1.01864 0.049,-1.40294 0.10627,-0.85399 0.0573,0.54895 0.0563,1.38238 -0.002,1.85208 -0.0585,0.4697 -0.10531,0.0206 -0.10414,-0.99809 z m -18.34307,-2.24896 c 0,-0.14552 0.11906,-0.26458 0.26458,-0.26458 0.14552,0 0.26459,0.11906 0.26459,0.26458 0,0.14552 -0.11907,0.26459 -0.26459,0.26459 -0.14552,0 -0.26458,-0.11907 -0.26458,-0.26459 z m 6.87917,-1.59405 c 0,-0.66319 0.95691,-1.06132 2.46462,-1.02541 1.70217,0.0405 2.41961,0.31918 2.51472,0.97666 0.0822,0.56808 0.0135,0.58447 -2.4474,0.58447 -2.36587,0 -2.53194,-0.0351 -2.53194,-0.53572 z m 0,-2.77812 v -1.97783 h 2.51354 2.51354 v 1.96591 1.9659 l -0.85815,-0.24611 c -1.11214,-0.31896 -2.63364,-0.31376 -3.49025,0.0119 l -0.67868,0.25803 z m 1.38906,-2.43515 c 0.5457,-0.0571 1.43867,-0.0571 1.98437,0 0.54571,0.0571 0.0992,0.10378 -0.99218,0.10378 -1.09141,0 -1.53789,-0.0467 -0.99219,-0.10378 z m 5.75469,-13.69788 v -5.42396 h -3.175 -3.175 v 5.24757 c 0,2.88616 0.0794,5.32694 0.17639,5.42395 0.097,0.097 1.52576,0.17639 3.175,0.17639 h 2.99861 z m -6.08542,0 v -5.15938 h 2.91042 2.91041 v 5.15938 5.15937 h -2.91041 -2.91042 z m 6.87917,55.16562 v -3.70417 h 3.83646 3.83645 v 3.70417 3.70416 h -3.83645 -3.83646 z m -20.10834,1.71979 v -1.71979 h 0.77171 c 0.42443,0 0.83175,0.14883 0.90515,0.33073 0.10676,0.26458 0.13763,0.26458 0.15434,0 0.0151,-0.23854 0.68467,-0.33073 2.40214,-0.33073 h 2.38125 v 1.00776 c 0,1.52861 0.49058,1.99762 2.28998,2.18929 0.91195,0.0971 -0.59756,0.18069 -3.67905,0.20363 l -5.22552,0.0389 z m 12.56771,1.48538 1.5875,-0.13436 -1.5875,-0.1817 -1.5875,-0.1817 1.85209,0.0353 1.85208,0.0354 0.08,-1.38906 0.08,-1.38906 h 2.49972 2.49971 v 1.71979 1.71979 l -4.43177,-0.05 c -2.43747,-0.0275 -3.71739,-0.11049 -2.84427,-0.18438 z m -5.27277,-0.71053 c -0.26479,-0.26479 -0.39898,-0.81725 -0.36954,-1.52135 l 0.0462,-1.10558 0.10027,1.10387 c 0.12669,1.39469 0.40995,1.6193 2.19655,1.74176 l 1.44719,0.0992 -1.50246,0.0489 c -1.06443,0.0347 -1.62366,-0.0723 -1.91823,-0.36683 z m 0.28979,-0.28978 c -0.097,-0.097 -0.17639,-0.63279 -0.17639,-1.19063 v -1.01423 h 3.30729 3.30729 l 0.0397,1.12448 0.0397,1.12448 0.1943,-1.19063 0.19431,-1.19062 -0.0356,1.19062 -0.0356,1.19063 -1.65365,0.0788 c -1.37502,0.0655 -1.65365,0.007 -1.65365,-0.34635 0,-0.23381 0.0988,-0.36408 0.21947,-0.28948 0.32926,0.2035 0.18891,-0.86019 -0.15947,-1.20857 -0.22648,-0.22648 -0.40435,-0.21734 -0.71024,0.0365 -0.22445,0.18627 -0.40809,0.45167 -0.40809,0.58977 0,0.13809 0.18819,0.0629 0.41821,-0.16712 0.23001,-0.23002 0.5457,-0.33941 0.70154,-0.2431 0.18383,0.11362 0.12988,0.28731 -0.15363,0.49462 -0.24032,0.17573 -0.43695,0.51475 -0.43695,0.75337 0,0.34785 -0.27973,0.43385 -1.41111,0.43385 -0.77612,0 -1.49049,-0.0794 -1.5875,-0.17639 z m -7.58473,-3.79236 v -1.32292 h -0.92604 -0.92604 v -11.1125 -11.1125 h 1.71979 1.71979 v 4.88159 4.88159 l -1.52135,0.0793 -1.52135,0.0794 v 3.83646 3.83645 l 1.52135,0.0794 1.52135,0.0794 v 3.55867 3.55868 h -0.79375 c -0.77611,0 -0.79375,-0.0294 -0.79375,-1.32292 z m 6.92945,0.26458 c -0.0232,-0.65484 0.0688,-1.36607 0.20439,-1.58052 0.13561,-0.21444 0.14487,-0.45256 0.0206,-0.52916 -0.12429,-0.0766 1.46937,-0.13928 3.54148,-0.13928 2.33482,0 3.76772,0.10062 3.76813,0.26459 4.2e-4,0.16701 -1.23359,0.23279 -3.34618,0.17838 -3.79768,-0.0978 -3.8772,-0.0622 -4.04196,1.81118 l -0.10426,1.18544 z m 0.47889,-0.10398 c 0,-0.81581 0.12477,-1.2102 0.41851,-1.32292 0.23018,-0.0883 1.71847,-0.1606 3.30729,-0.1606 h 2.88878 v 1.32292 1.32292 h -3.30729 -3.30729 z m 6.95123,0.10398 c 0,-0.65484 0.0516,-0.92273 0.11466,-0.59531 0.0631,0.32742 0.0631,0.8632 0,1.19062 -0.0631,0.32743 -0.11466,0.0595 -0.11466,-0.59531 z m 0.4571,-0.66146 v -1.71979 h 2.51354 2.51354 v 1.71979 1.7198 h -2.51354 -2.51354 z m -16.13958,-9.3927 v -3.70417 h 1.45521 1.4552 v 3.70417 3.70416 h -1.4552 -1.45521 z m 3.175,0 v -3.70417 h 1.45521 1.4552 v 3.70417 3.70416 h -1.4552 -1.45521 z m 35.60727,3.14766 c -3.86927,-1.33064 -6.56878,-4.55415 -6.95603,-8.30625 l -0.15028,-1.456 h 5.1964 5.19639 v 5.15938 5.15937 l -0.8599,-0.009 c -0.47294,-0.005 -1.5649,-0.25132 -2.42658,-0.54765 z m -39.04686,-41.11537 v -5.45911 l 0.72761,0.0837 0.7276,0.0837 v 5.29167 5.29166 l -0.7276,0.0837 -0.72761,0.0837 z m 1.7198,0.007 c 0,-5.01983 0.0354,-5.43063 0.46849,-5.43063 0.43521,0 0.46341,0.38054 0.39688,5.35437 -0.0603,4.51057 -0.13417,5.36639 -0.4685,5.43062 -0.34236,0.0658 -0.39687,-0.66965 -0.39687,-5.35437 z m 1.36701,5.2409 c -0.097,-0.097 -0.17639,-2.5378 -0.17639,-5.42396 v -5.24757 h 3.57188 3.57187 v 5.42396 5.42396 h -3.39549 c -1.86751,0 -3.47486,-0.0794 -3.57187,-0.17639 z m 41.89236,-10.67153 v -9.525 h 1.19063 1.19062 v 4.63021 c 0,3.74629 -0.0693,4.63021 -0.36283,4.63021 -0.27397,0 -0.40904,-0.71283 -0.55147,-2.91042 -0.14549,-2.24481 -0.2743,-2.91042 -0.56321,-2.91042 -0.31191,0 -0.37457,0.99323 -0.37457,5.93751 0,5.29377 0.1556,6.78723 0.62758,6.02355 0.0742,-0.12012 0.21855,-1.43175 0.32069,-2.91473 0.13795,-2.00288 0.27805,-2.69633 0.54476,-2.69633 0.28867,0 0.35905,0.90764 0.35905,4.63021 v 4.63021 h -1.19062 -1.19063 z m 1.16198,0 c 0,-1.96453 0.0416,-2.7682 0.0926,-1.78594 0.0509,0.98227 0.0509,2.58961 0,3.57188 -0.0509,0.98226 -0.0926,0.17859 -0.0926,-1.78594 z m -46.14115,-5.53868 v -5.30924 h 0.79935 0.79934 l -0.0717,5.22552 -0.0717,5.22553 -0.7276,0.0837 -0.72761,0.0837 z m 1.79656,-0.0173 c 0.0642,-4.42781 0.13985,-5.29194 0.46303,-5.29194 0.32573,0 0.38625,0.82904 0.38625,5.29167 0,4.86319 -0.0375,5.29169 -0.46302,5.29194 -0.42811,2.5e-4 -0.45724,-0.39878 -0.38626,-5.29167 z m 36.48825,-5.5818 c -3.26661,-0.76874 -6.50856,-3.37854 -7.97349,-6.41874 -0.50098,-1.03969 -0.987,-2.27731 -1.08003,-2.75025 l -0.16916,-0.8599 h 5.97414 5.97415 v 5.15938 5.15937 l -0.85989,-0.0266 c -0.47295,-0.0146 -1.31252,-0.1331 -1.86572,-0.26329 z m -38.54939,-0.90076 v -0.92604 h 5.15938 5.15937 v 0.92604 0.92604 h -5.15937 -5.15938 z"
         id="path2897" />
      <path
         style="fill:#b1caca;fill-opacity:0.815261;stroke-width:0.264583"
         d="m 279.12406,270.60805 v -15.43143 l 1.63693,-0.30441 c 4.64711,-0.86423 8.41356,-4.75686 8.8686,-9.16573 l 0.15184,-1.47117 h -5.32869 c -4.56022,0 -5.32868,-0.0572 -5.32868,-0.39688 0,-0.3487 2.08727,-0.39687 17.19792,-0.39687 h 17.19791 v 3.57187 3.57188 h -1.85208 -1.85208 v 3.175 3.175 h -10.98021 -10.98021 v 10.45104 10.45104 h 10.98021 10.98021 v 3.175 3.175 h 1.85208 1.85208 v 0.92604 0.92604 h -17.19791 -17.19792 z m 30.95625,10.27205 v -3.04271 h 1.71979 1.71979 v 3.04271 3.04271 h -1.71979 -1.71979 z m -21.82813,-13.49375 v -10.05417 l 8.66511,0.0731 8.6651,0.0731 v 1.18363 1.18363 h 1.19063 1.19062 v 7.52542 7.52541 l -1.12448,0.0814 c -1.11779,0.0809 -1.12496,0.088 -1.20549,1.19888 l -0.081,1.11752 -8.65023,0.0731 -8.65024,0.0731 z m 18.2729,9.37197 c 0.72502,-0.75989 0.78277,-0.77762 0.86165,-0.26458 0.0797,0.51812 0.25171,0.5499 2.97656,0.5499 h 2.89202 v -4.49792 -4.49791 h -2.51354 c -2.50473,0 -2.51354,-0.002 -2.51354,-0.66146 0,-0.65914 0.009,-0.66146 2.51354,-0.66146 h 2.51354 v -4.49792 -4.49791 h -2.89202 c -2.72485,0 -2.8969,0.0318 -2.97656,0.5499 -0.0789,0.51304 -0.13663,0.49531 -0.86165,-0.26458 l -0.77711,-0.81449 h 3.88596 3.88596 v 10.18646 10.18646 h -3.88596 -3.88596 z m -0.6781,-0.64072 c 0,-0.89131 0.0367,-0.92604 0.97794,-0.92604 h 0.97794 l -0.89755,0.92604 c -0.49365,0.50932 -0.93373,0.92604 -0.97795,0.92604 -0.0442,0 -0.0804,-0.41672 -0.0804,-0.92604 z m 1.85208,0.0156 c 0,-0.35521 0.11906,-0.71943 0.26458,-0.80937 0.15434,-0.0954 0.26459,-1.59024 0.26459,-3.58749 v -3.42396 h 2.38125 2.38125 v 4.23333 4.23334 h -2.64584 c -2.62877,0 -2.64583,-0.004 -2.64583,-0.64585 z m 0.52917,-13.09688 c 0,-1.99724 -0.11025,-3.4921 -0.26459,-3.58749 -0.14552,-0.0899 -0.26458,-0.45415 -0.26458,-0.80936 0,-0.64167 0.0171,-0.64584 2.64583,-0.64584 h 2.64584 v 4.23333 4.23334 h -2.38125 -2.38125 v -3.42397 z m -2.38125,-4.43314 v -0.97794 l 0.92604,0.89755 c 0.50932,0.49366 0.92604,0.93373 0.92604,0.97795 0,0.0442 -0.41672,0.0804 -0.92604,0.0804 -0.89131,0 -0.92604,-0.0367 -0.92604,-0.97795 z m 4.23333,-4.71059 v -3.04271 h 1.71979 1.71979 v 3.04271 3.04271 h -1.71979 -1.71979 z m -30.95625,-4.23333 v -5.15938 h 5.19623 5.19623 l -0.16091,1.3586 c -0.47171,3.98286 -3.63183,7.48823 -7.70745,8.54952 -2.74711,0.71534 -2.5241,1.1349 -2.5241,-4.74874 z m 0,-10.31875 v -3.83646 h 17.19792 17.19791 v 3.83646 3.83645 H 296.32198 279.12406 Z M 307.17394,229.227 c -0.002,-0.17817 0.34723,-0.50559 0.77656,-0.72761 0.90796,-0.46952 1.07148,-0.49346 1.07148,-0.15691 0,0.24331 -0.70337,0.55908 -1.16105,0.52123 -0.12925,-0.0107 -0.33578,0.13957 -0.45897,0.3339 -0.16117,0.25426 -0.2251,0.2625 -0.22802,0.0294 z m -0.26863,-1.13127 c 0,-0.14553 0.11906,-0.26459 0.26458,-0.26459 0.14552,0 0.26459,0.11906 0.26459,0.26459 0,0.14552 -0.11907,0.26458 -0.26459,0.26458 -0.14552,0 -0.26458,-0.11906 -0.26458,-0.26458 z"
         id="path2895" />
      <path
         style="fill:#dde01b;fill-opacity:0.220884;stroke-width:0.264583"
         d="m 266.45535,266.79404 -1.15933,-0.10298 0.16224,-1.36981 c 0.0892,-0.75339 0.51852,-2.09354 0.95399,-2.9781 1.59814,-3.24628 4.34943,-5.1955 8.14775,-5.77246 l 1.12448,-0.1708 v 5.29479 5.29479 l -4.0349,-0.0462 c -2.21919,-0.0254 -4.55659,-0.0926 -5.19423,-0.14921 z m -16.17088,-9.19727 v -9.12813 h 5.02709 5.02708 v 9.12813 9.12812 h -5.02708 -5.02709 z m 10.31875,0 v -9.12813 h 1.98438 1.98437 v -1.28883 -1.28883 l 1.25678,-0.16917 c 1.61795,-0.21779 3.60811,-1.16683 5.01597,-2.39194 1.35971,-1.18323 2.75458,-3.90557 2.92849,-5.7155 l 0.12651,-1.31656 h -4.69218 c -4.16995,0 -4.67431,-0.0466 -4.53158,-0.41852 0.0883,-0.23018 0.1606,-0.94455 0.1606,-1.5875 v -1.16898 h 6.17503 6.17502 l 0.17542,8.20159 c 0.0965,4.51088 0.0965,12.07135 -6e-5,16.80105 l -0.17549,8.59944 h -0.61871 -0.61871 v -5.14376 c 0,-2.82907 -0.10528,-5.20882 -0.23395,-5.28835 -0.4253,-0.26284 -3.31399,0.41623 -4.74231,1.11484 -2.89359,1.41527 -5.41995,4.88093 -5.78113,7.93055 l -0.16424,1.38672 h -2.2121 -2.21211 z m -25.66458,-0.79375 v -1.45521 h 6.35 6.35 v 1.45521 1.4552 h -6.35 -6.35 z m 0,-3.175 v -1.45521 h 6.35 6.35 v 1.45521 1.4552 h -6.35 -6.35 z m 0,-3.175 v -1.45521 h 6.35 6.35 v 1.45521 1.4552 h -6.35 -6.35 z m 0,-4.12935 c 0,-2.18359 0.0434,-2.39352 0.46302,-2.23852 0.25466,0.0941 2.94075,1.1315 5.96908,2.30541 3.02832,1.17391 5.55086,2.08956 5.60563,2.03479 0.0548,-0.0548 -2.63131,-1.1564 -5.96907,-2.44807 l -6.06866,-2.34848 v -3.85772 -3.85773 l 2.18281,2.1088 c 1.20055,1.15984 4.03764,3.89548 6.30465,6.0792 2.26701,2.18373 1.25568,1.14268 -2.2474,-2.31344 l -6.36924,-6.28385 h 4.12298 4.12298 l 2.3388,6.08232 c 1.28634,3.34528 2.38328,6.03785 2.43765,5.98347 0.0544,-0.0544 -0.91936,-2.7364 -2.16385,-5.96007 -1.24449,-3.22367 -2.26271,-5.91624 -2.26271,-5.98347 0,-0.0672 1.07478,-0.12225 2.38841,-0.12225 h 2.38841 l -0.0243,6.1026 c -0.0226,5.66328 -0.0612,6.13946 -0.53633,6.61459 -0.47657,0.47657 -0.93285,0.51197 -6.59739,0.51197 h -6.08542 z m 13.49375,-5.26336 v -5.55625 h 1.45521 1.45521 v 5.55625 5.55625 h -1.45521 -1.45521 z m 3.175,0 v -5.55625 h 1.5875 1.5875 v 5.55625 5.55625 h -1.5875 -1.5875 z m 3.43958,0 v -5.55625 h 1.45521 1.45521 v 5.55625 5.55625 h -1.45521 -1.45521 z m 3.175,0 v -5.55625 h 1.45521 1.45521 v 5.55625 5.55625 h -1.45521 -1.45521 z m 3.175,0 v -5.55625 h 0.64363 c 0.41126,0 0.70427,0.19105 0.81158,0.52916 0.0924,0.29105 0.39806,0.52917 0.67929,0.52917 0.48534,0 0.51134,0.22867 0.51134,4.49792 0,4.26925 -0.026,4.49791 -0.51134,4.49791 -0.28123,0 -0.58691,0.23813 -0.67929,0.52917 -0.10731,0.33812 -0.40032,0.52917 -0.81158,0.52917 h -0.64363 z m 3.175,0.036 v -4.53388 h 4.53233 4.53233 l -0.13534,1.20069 c -0.20159,1.78856 -1.61472,4.44472 -2.94429,5.53421 -1.39314,1.14157 -3.16536,1.94638 -4.77042,2.16638 l -1.21461,0.16648 z"
         id="path2893" />
      <path
         style="fill:#000101;stroke-width:0.264583"
         d="m 278.65675,299.77503 -0.0619,-7.29881 -1.05833,-0.0415 -1.05833,-0.0415 v 4.89793 4.89793 l -0.59532,-0.12067 c -0.32742,-0.0664 -1.11016,-0.19052 -1.73942,-0.27589 -3.91512,-0.53116 -7.96948,-4.15773 -9.18122,-8.21248 l -0.31628,-1.05834 -8.36542,-0.0647 -8.36542,-0.0647 -0.0721,4.82721 -0.0721,4.82721 -1.05833,-0.081 c -2.95001,-0.22569 -5.6709,-1.60182 -7.89359,-3.9923 -1.20651,-1.29759 -2.82204,-4.27473 -2.82204,-5.20052 0,-0.33783 -0.2767,-0.41356 -1.38906,-0.38013 -0.76398,0.023 -1.68672,0.0316 -2.05052,0.0192 l -0.66146,-0.0225 0.19881,-72.82657 c 0.10934,-40.05461 0.25587,-84.25657 0.32562,-98.22657 0.0697,-13.97 0.12911,-26.084605 0.13192,-26.92135 0.003,-0.836745 0.12417,-1.521354 0.26969,-1.521354 0.17468,0 0.26459,9.260414 0.26459,27.252084 v 27.25208 h 4.7625 4.7625 v -9.65729 -9.65729 h 33.07292 33.07291 v 9.65729 9.65729 h 4.8754 c 4.42074,0 4.88667,-0.0432 4.99638,-0.46302 0.0666,-0.25466 0.13482,32.30893 0.1517,72.36354 l 0.0307,72.82656 -16.99948,0.015 c -9.34971,0.008 -18.33707,0.002 -19.9719,-0.014 l -2.97242,-0.029 -0.0746,7.48841 -0.0746,7.48841 -0.0619,-7.29881 z m -31.01811,-2.62306 v -4.7625 h -5.68854 c -4.91657,0 -5.68854,0.0546 -5.68854,0.40269 0,0.22147 0.34486,1.16327 0.76636,2.09287 1.67453,3.69308 5.25115,6.29195 9.4201,6.84488 0.43656,0.0579 0.88304,0.12312 0.99218,0.14492 0.10914,0.0218 0.19844,-2.10348 0.19844,-4.72286 z m 28.575,0 v -4.7625 h -5.66721 -5.66722 l 0.2732,0.99219 c 1.15304,4.18753 5.06229,7.60734 9.42853,8.2481 0.82523,0.1211 1.53018,0.2347 1.56656,0.25245 0.0364,0.0178 0.0661,-2.11086 0.0661,-4.73024 z m -28.575,-5.4901 c 0,-0.25456 -1.34056,-0.33073 -5.82083,-0.33073 -3.35139,0 -5.82084,0.10289 -5.82084,0.24254 0,0.3983 0.29951,0.41892 6.08544,0.41892 4.2686,0 5.55623,-0.0766 5.55623,-0.33073 z m 28.575,0 c 0,-0.25433 -1.31409,-0.33073 -5.68854,-0.33073 -3.27121,0 -5.68854,0.10306 -5.68854,0.24254 0,0.39772 0.30126,0.41892 5.95311,0.41892 4.16278,0 5.42397,-0.0769 5.42397,-0.33073 z m -11.64167,-0.0662 c 0,-0.14552 -0.11906,-0.26458 -0.26458,-0.26458 -0.14552,0 -0.26458,0.11906 -0.26458,0.26458 0,0.14552 0.11906,0.26459 0.26458,0.26459 0.14552,0 0.26458,-0.11907 0.26458,-0.26459 z m 32.01459,0 c 0,-0.16778 -1.98438,-0.26458 -5.42396,-0.26458 -3.43958,0 -5.42396,0.0968 -5.42396,0.26458 0,0.16779 1.98438,0.26459 5.42396,0.26459 3.43958,0 5.42396,-0.0968 5.42396,-0.26459 z m -60.93801,-1.10794 c -0.0845,-0.21107 -0.14716,-0.14837 -0.15986,0.15985 -0.0115,0.27892 0.0511,0.43519 0.13897,0.34727 0.0879,-0.0879 0.0973,-0.31612 0.0209,-0.50712 z m 11.99009,-0.74414 c 0,-0.7276 0.11906,-1.32292 0.26458,-1.32292 0.14552,0 0.26459,-0.47625 0.26459,-1.05833 v -1.05833 h -6.35 -6.35 v 1.05833 c 0,0.58208 0.11906,1.05833 0.26458,1.05833 0.14552,0 0.26458,0.59532 0.26458,1.32292 v 1.32292 h 5.82084 5.82083 z m 0.44532,0.74414 c -0.0845,-0.21107 -0.14715,-0.14837 -0.15985,0.15985 -0.0115,0.27892 0.051,0.43519 0.13897,0.34727 0.0879,-0.0879 0.0973,-0.31612 0.0209,-0.50712 z m 16.13959,0 c -0.0845,-0.21107 -0.14716,-0.14837 -0.15985,0.15985 -0.0115,0.27892 0.051,0.43519 0.13896,0.34727 0.0879,-0.0879 0.0973,-0.31612 0.0209,-0.50712 z m 11.99009,-0.74414 c 0,-0.7276 0.11906,-1.32292 0.26459,-1.32292 0.14552,0 0.26458,-0.47625 0.26458,-1.05833 v -1.05833 h -6.35 -6.35 v 1.05833 c 0,0.58208 0.11906,1.05833 0.26458,1.05833 0.14552,0 0.26458,0.59532 0.26458,1.32292 v 1.32292 h 5.82084 5.82083 z m 21.25981,-0.0662 c 0.0918,-0.76398 0.16788,-1.83554 0.16914,-2.38125 l 0.002,-0.99218 h -6.35 -6.35 v 2.38125 2.38125 h 6.18086 6.18085 z M 256.36989,277.7051 v -8.33438 h -4.36562 c -4.18924,0 -4.36563,-0.0214 -4.36563,-0.52916 0,-0.51447 -0.17639,-0.52917 -6.35,-0.52917 h -6.35 v 8.86354 8.86354 h 10.71563 10.71562 z m 20.90209,-0.41351 c 0,-8.17287 -0.0304,-8.74478 -0.46303,-8.70078 -1.14827,0.1168 -1.12447,0.24594 -1.12447,-6.10238 v -6.08854 l -1.12448,0.1708 c -3.83648,0.58276 -6.54807,2.52305 -8.1916,5.86153 -0.68144,1.3842 -0.85714,2.10761 -0.95232,3.92106 l -0.11671,2.22369 h -3.00953 c -1.82997,0 -3.00953,0.1037 -3.00953,0.26459 0,0.15287 0.83785,0.26458 1.98437,0.26458 1.5875,0 1.98438,0.0794 1.98438,0.39688 0,0.21828 -0.1786,0.39687 -0.39688,0.39687 -0.51062,0 -0.51216,0.63328 -0.003,1.05621 0.25079,0.20814 0.33621,0.55875 0.23469,0.96326 -0.15076,0.60066 -0.11882,0.62048 0.57481,0.35676 0.48055,-0.1827 0.82423,-0.18943 0.9942,-0.0195 0.16997,0.16997 -0.005,0.32318 -0.5061,0.44319 -0.42123,0.10088 -0.92034,0.30532 -1.10913,0.45431 -0.48354,0.38161 0.13941,0.74252 0.93637,0.5425 0.95657,-0.24009 0.69173,0.36824 -0.31952,0.73392 -0.70662,0.25551 -0.8516,0.41044 -0.63186,0.67521 0.15684,0.18899 0.21752,0.51991 0.13483,0.73538 -0.0827,0.21548 -0.0283,0.46716 0.12073,0.5593 0.14909,0.0921 0.2153,0.31286 0.14714,0.49048 -0.0682,0.17763 0.10232,0.46425 0.37884,0.63694 0.77947,0.48679 0.59706,1.03109 -0.46274,1.38086 -0.86535,0.28559 -0.91365,0.34766 -0.4656,0.59841 0.27495,0.15387 0.85772,0.2876 1.29504,0.29718 0.6125,0.0134 0.7954,0.13896 0.79632,0.54659 7.9e-4,0.29104 -0.11786,0.53945 -0.26338,0.55202 -0.55257,0.0477 -1.33978,0.50071 -1.77714,1.02261 -0.58234,0.69505 -0.63667,2.52642 -0.0749,2.52642 0.21828,0 0.39688,0.1786 0.39688,0.39688 0,0.3175 -0.39688,0.39687 -1.98438,0.39687 -1.5875,0 -1.98437,0.0794 -1.98437,0.39688 0,0.34499 1.17592,0.39687 8.99583,0.39687 h 8.99584 z m 36.24791,7.82184 v -0.92604 h -1.85208 -1.85208 v -3.175 -3.175 h -10.98021 -10.98021 v -10.45104 -10.45104 h 10.98021 10.98021 v -3.175 -3.175 h 1.85208 1.85208 v -3.57188 -3.57187 h -17.19791 c -15.11065,0 -17.19792,0.0482 -17.19792,0.39687 0,0.33964 0.76846,0.39688 5.32868,0.39688 h 5.32869 l -0.15184,1.47117 c -0.45504,4.40887 -4.22149,8.3015 -8.8686,9.16573 l -1.63693,0.30441 v 15.43143 15.43142 h 17.19792 17.19791 z m -52.98281,-0.31468 c -0.25466,-0.0665 -0.67138,-0.0665 -0.92604,0 -0.25466,0.0666 -0.0463,0.12101 0.46302,0.12101 0.50932,0 0.71768,-0.0544 0.46302,-0.12101 z m 2.25399,0.009 c -0.17913,-0.0725 -0.53632,-0.0769 -0.79375,-0.01 -0.25743,0.0671 -0.11087,0.12638 0.3257,0.13177 0.43656,0.005 0.64718,-0.0495 0.46805,-0.12197 z m -2.81732,-1.74468 c -0.0833,-0.76398 -0.15956,-1.62569 -0.16954,-1.91489 -0.0149,-0.43273 -0.0622,-0.45615 -0.26698,-0.13229 -0.13685,0.21644 -0.25064,1.07814 -0.25287,1.91489 -0.003,1.21849 0.08,1.52135 0.41836,1.52135 0.35241,0 0.39732,-0.23019 0.27103,-1.38906 z m 0.8162,-0.26458 c -0.0631,-0.32742 -0.11466,-0.0595 -0.11466,0.59531 0,0.65484 0.0516,0.92273 0.11466,0.59531 0.0631,-0.32742 0.0631,-0.8632 0,-1.19062 z m 1.40077,0.59531 c 0,-0.58208 -0.11906,-1.05833 -0.26458,-1.05833 -0.14552,0 -0.26458,0.47625 -0.26458,1.05833 0,0.58208 0.11906,1.05833 0.26458,1.05833 0.14552,0 0.26458,-0.47625 0.26458,-1.05833 z m 51.32917,-2.51354 v -3.04271 h -1.71979 -1.71979 v 3.04271 3.04271 h 1.71979 1.71979 z m -53.45425,-1.78594 c 0.005,-0.10914 -0.17018,-0.19844 -0.38846,-0.19844 -0.25446,0 -0.39687,0.25551 -0.39687,0.71203 0,0.68288 0.0159,0.691 0.38846,0.19844 0.21365,-0.28248 0.39224,-0.60289 0.39687,-0.71203 z m -0.25617,-1.77032 c 0,-0.13693 -0.11906,-0.32255 -0.26458,-0.41249 -0.14552,-0.0899 -0.26458,0.0221 -0.26458,0.24897 0,0.22687 0.11906,0.41249 0.26458,0.41249 0.14552,0 0.26458,-0.11204 0.26458,-0.24897 z m 45.8242,-1.14705 c 0.0805,-1.11089 0.0877,-1.11801 1.20549,-1.19888 l 1.12448,-0.0814 v -7.52541 -7.52542 h -1.19062 -1.19063 v -1.18363 -1.18363 l -8.6651,-0.0731 -8.66511,-0.0731 v 10.05417 10.05417 l 8.65024,-0.0731 8.65023,-0.0731 z m 7.88622,-8.79044 v -10.18646 h -3.88596 -3.88596 l 0.77711,0.81449 c 0.72502,0.75989 0.78277,0.77762 0.86165,0.26458 0.0797,-0.51812 0.25171,-0.5499 2.97656,-0.5499 h 2.89202 v 4.49791 4.49792 h -2.51354 c -2.50473,0 -2.51354,0.002 -2.51354,0.66146 0,0.65914 0.009,0.66146 2.51354,0.66146 h 2.51354 v 4.49791 4.49792 h -2.89202 c -2.72485,0 -2.8969,-0.0318 -2.97656,-0.5499 -0.0789,-0.51304 -0.13663,-0.49531 -0.86165,0.26458 l -0.77711,0.81449 h 3.88596 3.88596 z m -6.61458,8.73125 0.89755,-0.92604 h -0.97794 c -0.94126,0 -0.97794,0.0347 -0.97794,0.92604 0,0.50932 0.0362,0.92604 0.0804,0.92604 0.0442,0 0.4843,-0.41672 0.97795,-0.92604 z m 6.08542,-3.57188 v -4.23333 h -2.38125 -2.38125 v 3.42397 c 0,1.99724 -0.11025,3.4921 -0.26459,3.58749 -0.14552,0.0899 -0.26458,0.45415 -0.26458,0.80936 0,0.64168 0.0171,0.64585 2.64583,0.64585 h 2.64584 z m -53.18126,2.10105 c 0,-0.13693 -0.11906,-0.24896 -0.26458,-0.24896 -0.14552,0 -0.26458,0.18562 -0.26458,0.41249 0,0.22687 0.11906,0.3389 0.26458,0.24897 0.14552,-0.0899 0.26458,-0.27556 0.26458,-0.4125 z m 0.26459,-1.43959 c 0,-0.21828 0.20836,-0.3987 0.46302,-0.40092 0.38892,-0.003 0.40062,-0.0435 0.0731,-0.25062 -0.24947,-0.15777 -0.45196,-0.14613 -0.56224,0.0323 -0.11699,0.18929 -0.22627,0.19161 -0.34024,0.007 -0.0923,-0.1494 0.14697,-0.5193 0.53178,-0.822 0.5091,-0.40046 0.58185,-0.55035 0.2671,-0.55035 -0.2379,0 -0.43255,0.12609 -0.43255,0.2802 0,0.15411 -0.12944,0.2002 -0.28764,0.10242 -0.20713,-0.12801 -0.20713,-0.25827 0,-0.4654 0.4224,-0.4224 0.35037,-1.24014 -0.10924,-1.24014 -0.31498,0 -0.39687,0.38218 -0.39687,1.85208 0,1.46991 0.0819,1.85209 0.39687,1.85209 0.21828,0 0.39688,-0.1786 0.39688,-0.39688 z m 0.7099,-3.09232 c -0.0845,-0.21106 -0.14715,-0.14837 -0.15985,0.15986 -0.0115,0.27891 0.0511,0.43518 0.13897,0.34726 0.0879,-0.0879 0.0973,-0.31612 0.0209,-0.50712 z m 1.40676,0.0496 c 0,-0.14552 -0.11906,-0.26458 -0.26458,-0.26458 -0.14552,0 -0.26458,0.11906 -0.26458,0.26458 0,0.14552 0.11906,0.26459 0.26458,0.26459 0.14552,0 0.26458,-0.11907 0.26458,-0.26459 z m -1.65364,-0.71155 c -0.25466,-0.0666 -0.67138,-0.0666 -0.92604,0 -0.25466,0.0666 -0.0463,0.121 0.46302,0.121 0.50932,0 0.71768,-0.0544 0.46302,-0.121 z m 2.25399,0.009 c -0.17913,-0.0725 -0.53632,-0.0769 -0.79375,-0.01 -0.25743,0.0671 -0.11087,0.12638 0.3257,0.13178 0.43656,0.005 0.64718,-0.0495 0.46805,-0.12197 z m -15.15243,-2.86916 v -1.45521 h -6.35 -6.35 v 1.45521 1.45521 h 6.35 6.35 z m 12.7,-8.99583 v -9.12813 h -5.02708 -5.02709 v 9.12813 9.12812 h 5.02709 5.02708 z m 4.85303,7.7414 c 0.36118,-3.04962 2.88754,-6.51528 5.78113,-7.93055 1.42832,-0.69861 4.31701,-1.37768 4.74231,-1.11484 0.12867,0.0795 0.23395,2.45928 0.23395,5.28835 v 5.14376 h 0.66146 0.66146 v -5.53461 c 0,-3.04404 0.0723,-5.72294 0.16059,-5.95312 0.11481,-0.29919 0.51388,-0.41852 1.39962,-0.41852 1.65598,0 4.1304,-0.66746 5.54317,-1.49523 2.57246,-1.50726 4.64205,-4.60938 4.98025,-7.46492 l 0.16091,-1.3586 h -5.96167 c -5.19219,0 -5.98241,-0.054 -6.12228,-0.41851 -0.0883,-0.23019 -0.16059,-5.32263 -0.16059,-11.31655 V 221.8668 l -1.52136,-0.29075 c -4.63371,-0.88557 -8.3312,-4.72647 -8.7244,-9.06277 l -0.14649,-1.61547 h 5.18844 5.18845 l 0.0738,-3.50573 0.0738,-3.50573 2.57968,-0.0757 2.57969,-0.0757 v -4.35605 -4.35604 h 6.08855 6.08854 l -0.17081,-1.12448 c -0.80135,-5.27557 -4.5709,-8.84715 -9.64773,-9.14104 -1.15784,-0.067 -2.1692,-0.22549 -2.24747,-0.35213 -0.0783,-0.12665 -0.73059,-0.23027 -1.44961,-0.23027 h -1.3073 v -9.78958 -9.78958 h 1.32292 1.32291 v -5.55625 -5.55625 h -2.8952 -2.8952 l -0.10128,-1.12448 c -0.0557,-0.61847 -0.12209,1.70325 -0.14751,5.15937 l -0.0462,6.28386 -0.8599,-0.006 c -4.75749,-0.0358 -9.99967,-4.32285 -11.3156,-9.25393 l -0.31773,-1.19062 -0.4558,1.4552 c -0.72041,2.3 -1.55475,3.6982 -3.17163,5.31508 -2.15216,2.15215 -5.53446,3.68076 -8.14431,3.68076 h -0.87045 l -0.0462,-6.28386 c -0.0254,-3.45612 -0.0918,-5.77784 -0.1475,-5.15937 l -0.10128,1.12448 h -8.05458 -8.05458 v 3.83646 3.83645 h 5.10646 c 3.04908,0 5.21298,0.10653 5.37085,0.2644 0.14542,0.14541 0.21573,0.6812 0.15626,1.19062 l -0.10813,0.92623 h -3.67522 -3.67522 v 5.29167 5.29167 h 3.56628 3.56628 l 0.0777,-5.22552 c 0.0427,-2.87404 0.11337,-0.34396 0.15702,5.62239 0.0437,5.96636 0.10051,11.29447 0.12637,11.84026 0.0258,0.54579 -0.0423,0.99228 -0.15143,0.99219 -0.10914,-9e-5 -0.19844,-0.41688 -0.19844,-0.9262 v -0.92604 h -5.15937 -5.15938 v 0.79375 0.79375 l 5.09323,0.0601 5.09323,0.0601 -5.09323,0.0779 -5.09323,0.0779 v 8.19637 8.19637 l 3.50573,0.051 c 1.92815,0.028 2.76159,0.0933 1.85208,0.14492 l -1.65364,0.0939 v 4.88217 4.88217 h 1.5875 1.5875 v 3.96875 3.96875 h -1.5875 -1.5875 v 3.57187 3.57188 h 2.38125 2.38125 v -1.68894 c 0,-1.46641 -0.0697,-1.70716 -0.52917,-1.82731 -0.51958,-0.13588 -0.52802,-0.33407 -0.46607,-10.94492 l 0.0631,-10.80654 0.0722,10.78177 0.0722,10.78177 h 11.12439 11.12438 l -0.081,5.55654 -0.081,5.55653 4.59772,-2.6e-4 4.59773,-2.6e-4 -0.12651,1.31656 c -0.17391,1.80993 -1.56878,4.53227 -2.92849,5.71549 -1.40786,1.22512 -3.39802,2.17416 -5.01597,2.39195 l -1.25678,0.16917 v 1.28883 1.28883 h -1.98437 -1.98438 v 9.12812 9.12813 h 2.21211 2.2121 l 0.16424,-1.38673 z m -16.4947,-61.5471 c 0,-2.30206 -0.0162,-2.36138 -0.89856,-3.297 -0.89328,-0.94715 -0.91315,-0.95321 -3.37344,-1.0292 l -2.47487,-0.0764 v -2.64583 -2.64583 l 2.51071,-0.0769 c 2.42789,-0.0744 2.5389,-0.10493 3.36504,-0.92605 0.83831,-0.83321 0.85448,-0.89501 0.86272,-3.29652 l 0.008,-2.4474 h 2.77813 2.77812 v 2.46164 c 0,2.43717 0.009,2.47005 0.8725,3.30729 0.85291,0.82668 0.92712,0.84566 3.30729,0.84566 h 2.4348 v 2.77812 2.77813 h -2.46164 c -2.43717,0 -2.47005,0.009 -3.30729,0.87249 -0.82668,0.85291 -0.84566,0.92713 -0.84566,3.30729 v 2.4348 h -2.77812 -2.77813 z m 3.63802,1.88691 c -0.5457,-0.0571 -1.43867,-0.0571 -1.98437,0 -0.5457,0.0571 -0.0992,0.10379 0.99219,0.10379 1.0914,0 1.53789,-0.0467 0.99218,-0.10379 z m 1.65365,-2.31425 v -1.97782 l -0.67868,0.25803 c -0.89352,0.33972 -3.18998,0.33022 -3.83663,-0.0159 -0.48493,-0.25953 -0.51177,-0.16932 -0.51177,1.71979 v 1.99368 h 2.51354 2.51354 z m -0.67868,-1.98437 c 0.37327,-0.14192 0.67868,-0.43958 0.67868,-0.66146 0,-0.3332 -0.43754,-0.40342 -2.51354,-0.40342 -2.0196,0 -2.51354,0.0754 -2.51354,0.38372 0,0.21105 0.20836,0.50509 0.46302,0.65342 0.59368,0.34579 3.00359,0.36299 3.88538,0.0277 z m -4.61299,-0.93259 c 0,-0.60837 5.47899,-0.58572 5.603,0.0232 0.0684,0.33606 0.21378,0.28317 0.72698,-0.26458 0.63957,-0.68263 0.63976,-0.68461 0.0661,-0.68461 -0.55243,0 -0.57528,-0.10546 -0.57528,-2.65436 0,-2.43048 0.0455,-2.67121 0.54,-2.85412 0.53059,-0.19628 0.52889,-0.2102 -0.0978,-0.79898 -0.63238,-0.59409 -0.63905,-0.59457 -0.77981,-0.0563 -0.13135,0.50227 -0.34195,0.54292 -2.81258,0.54292 -2.56558,0 -2.67061,-0.0226 -2.67061,-0.57528 0,-0.57362 -0.002,-0.57343 -0.68461,0.0661 -0.54776,0.5132 -0.60065,0.65854 -0.26459,0.72698 0.6129,0.12482 0.62811,5.52015 0.0159,5.64974 -0.35937,0.0761 -0.35771,0.15145 0.015,0.68086 0.4812,0.68351 0.91827,0.77796 0.91827,0.19844 z m -6.08541,-1.45521 c 0,-0.14552 -0.11907,-0.26458 -0.26459,-0.26458 -0.14552,0 -0.26458,0.11906 -0.26458,0.26458 0,0.14552 0.11906,0.26458 0.26458,0.26458 0.14552,0 0.26459,-0.11906 0.26459,-0.26458 z m 3.94026,-0.31782 c -0.17143,-0.32031 -0.31169,-1.18933 -0.31169,-1.93114 0,-0.74181 0.14026,-1.61082 0.31169,-1.93114 0.30837,-0.57619 0.29044,-0.5824 -1.682,-0.5824 h -1.99368 v 2.51354 2.51354 h 1.99368 c 1.97244,0 1.99037,-0.006 1.682,-0.5824 z m 1.3514,-1.93114 c 0,-2.03104 -0.0744,-2.51354 -0.38756,-2.51354 -0.59784,0 -1.01095,1.02713 -1.01095,2.51354 0,1.48642 0.41311,2.51354 1.01095,2.51354 0.31317,0 0.38756,-0.4825 0.38756,-2.51354 z m 8.15962,1.83964 c 0.69603,-1.52763 0.18083,-4.35318 -0.79375,-4.35318 -0.43839,0 -0.4867,0.2495 -0.4867,2.51354 0,2.26404 0.0483,2.51354 0.4867,2.51354 0.26768,0 0.62487,-0.30325 0.79375,-0.6739 z m 4.01122,-1.83964 v -2.51354 h -2.01268 c -1.82486,0 -1.99201,0.0432 -1.79112,0.46302 0.28699,0.59976 0.28699,3.50129 0,4.10104 -0.20089,0.41981 -0.0337,0.46302 1.79112,0.46302 h 2.01268 z m -17.4625,0 c 0,-0.97014 -0.11533,-1.71979 -0.26459,-1.71979 -0.14925,0 -0.26458,0.74965 -0.26458,1.71979 0,0.97014 0.11533,1.71979 0.26458,1.71979 0.14926,0 0.26459,-0.74965 0.26459,-1.71979 z m 17.92017,-0.85399 c -0.0573,-0.54895 -0.10509,-0.16465 -0.10627,0.85399 -10e-4,1.01865 0.0457,1.46779 0.10414,0.99809 0.0584,-0.4697 0.0594,-1.30313 0.002,-1.85208 z m -17.92017,-1.39497 c 0,-0.14552 -0.11907,-0.26458 -0.26459,-0.26458 -0.14552,0 -0.26458,0.11906 -0.26458,0.26458 0,0.14552 0.11906,0.26459 0.26458,0.26459 0.14552,0 0.26459,-0.11907 0.26459,-0.26459 z m 11.32934,-1.6428 c -0.19989,-1.38178 -4.97934,-1.33499 -4.97934,0.0487 0,0.50058 0.16607,0.53572 2.53194,0.53572 2.46093,0 2.52957,-0.0164 2.4474,-0.58447 z m -2.64527,-1.26761 c 0.53719,0 1.36288,0.11075 1.83486,0.24611 l 0.85815,0.24611 v -1.9659 -1.96591 h -2.51354 -2.51354 v 1.97783 1.97783 l 0.67868,-0.25804 c 0.37328,-0.14192 1.1182,-0.25803 1.65539,-0.25803 z m 1.03936,-3.89691 c -0.5457,-0.0571 -1.43867,-0.0571 -1.98437,0 -0.5457,0.0571 -0.0992,0.10378 0.99219,0.10378 1.0914,0 1.53789,-0.0467 0.99218,-0.10378 z M 249.9317,179.236 c -0.097,-0.097 -0.17639,-2.53779 -0.17639,-5.42395 v -5.24757 h 3.175 3.175 v 5.42396 5.42395 h -2.99861 c -1.64924,0 -3.07799,-0.0794 -3.175,-0.17639 z m 5.90902,-5.24756 v -5.15938 h -2.91041 -2.91042 v 5.15938 5.15937 h 2.91042 2.91041 z m 57.15001,88.23853 v -4.23333 h -2.64584 c -2.62877,0 -2.64583,0.004 -2.64583,0.64584 0,0.35522 0.11906,0.71943 0.26458,0.80937 0.15434,0.0954 0.26459,1.59025 0.26459,3.58749 v 3.42397 h 2.38125 2.38125 z m -65.35209,1.05834 v -1.5875 h -6.35 -6.35 v 1.5875 1.5875 h 6.35 6.35 z m 0,-3.30729 v -1.45521 h -6.35 -6.35 v 1.45521 1.4552 h 6.35 6.35 z m 60.06042,-0.47727 c 0,-0.0442 -0.41672,-0.48429 -0.92604,-0.97794 l -0.92604,-0.89756 v 0.97795 c 0,0.94126 0.0347,0.97794 0.92604,0.97794 0.50932,0 0.92604,-0.0362 0.92604,-0.0804 z m -60.06042,-2.69773 v -1.45521 h -6.35 -6.35 v 1.45521 1.4552 h 6.35 6.35 z m 65.88125,-2.91042 v -3.04271 h -1.71979 -1.71979 v 3.04271 3.04271 h 1.71979 1.71979 z m -65.88125,-0.26458 v -1.45521 h -6.35 -6.35 v 1.45521 1.4552 h 6.35 6.35 z m 0,-3.175 v -1.45521 h -6.35 -6.35 v 1.45521 1.4552 h 6.35 6.35 z m -0.0172,-2.23177 c 0.47513,-0.47513 0.51373,-0.95131 0.53633,-6.61459 l 0.0243,-6.1026 h -2.38841 c -1.31363,0 -2.38841,0.055 -2.38841,0.12225 0,0.0672 1.01822,2.7598 2.26271,5.98347 1.24449,3.22367 2.21822,5.9057 2.16385,5.96007 -0.0544,0.0544 -1.15131,-2.63819 -2.43765,-5.98347 l -2.3388,-6.08232 h -4.12298 -4.12298 l 6.36924,6.28385 c 3.50308,3.45612 4.51441,4.49717 2.2474,2.31344 -2.26701,-2.18372 -5.1041,-4.91936 -6.30465,-6.0792 l -2.18281,-2.1088 v 3.85773 3.85772 l 6.06866,2.34848 c 3.33776,1.29167 6.02385,2.3933 5.96907,2.44807 -0.0548,0.0548 -2.57731,-0.86088 -5.60563,-2.03479 -3.02833,-1.17391 -5.71442,-2.21134 -5.96908,-2.30541 -0.4196,-0.155 -0.46302,0.0549 -0.46302,2.23852 v 2.40955 h 6.08542 c 5.66454,0 6.12082,-0.0354 6.59739,-0.51197 z m 1.94046,-0.19074 c -0.17914,-0.0725 -0.53632,-0.0769 -0.79375,-0.01 -0.25744,0.0671 -0.11087,0.12638 0.32569,0.13177 0.43656,0.005 0.64719,-0.0495 0.46806,-0.12197 z m 1.7809,-6.9702 v -5.55625 h -1.45521 -1.45521 v 5.55625 5.55625 h 1.45521 1.45521 z m 3.43958,0 v -5.55625 h -1.5875 -1.5875 v 5.55625 5.55625 h 1.5875 1.5875 z m 3.175,0 v -5.55625 h -1.45521 -1.45521 v 5.55625 5.55625 h 1.45521 1.45521 z m 3.175,0 v -5.55625 h -1.45521 -1.45521 v 5.55625 5.55625 h 1.45521 1.45521 z m 1.71979,5.02708 c 0.0924,-0.29104 0.39806,-0.52917 0.67929,-0.52917 0.48534,0 0.51134,-0.22866 0.51134,-4.49791 0,-4.26925 -0.026,-4.49792 -0.51134,-4.49792 -0.28123,0 -0.58691,-0.23812 -0.67929,-0.52917 -0.10731,-0.33811 -0.40032,-0.52916 -0.81158,-0.52916 h -0.64363 v 5.55625 5.55625 h 0.64363 c 0.41126,0 0.70427,-0.19105 0.81158,-0.52917 z m 5.36072,-1.3262 c 2.78738,-1.23299 4.9631,-4.11211 5.28839,-6.99811 l 0.13534,-1.20069 h -4.53233 -4.53233 v 4.53388 4.53388 l 1.21461,-0.16648 c 0.66803,-0.0916 1.75987,-0.40768 2.42632,-0.70248 z m 45.30699,-5.42067 v -3.83646 h -17.19791 -17.19792 v 3.83646 3.83645 h 17.19792 17.19791 z m -48.94792,-10.18646 v -3.70417 h -3.83645 -3.83646 v 3.70417 3.70416 h 3.83646 3.83645 z m 17.19792,3.46405 c -1.81772,-0.20276 -2.11666,-0.39306 -2.11666,-1.34738 0,-0.41939 -0.11907,-0.83611 -0.26459,-0.92605 -0.16307,-0.10078 -0.26458,0.35003 -0.26458,1.17501 v 1.33853 l 2.05052,-0.0389 c 1.99427,-0.0378 2.0106,-0.0434 0.59531,-0.20122 z m 2.97656,0.0649 c -0.1819,-0.0734 -0.47955,-0.0734 -0.66145,0 -0.1819,0.0734 -0.0331,0.13345 0.33073,0.13345 0.3638,0 0.51263,-0.0601 0.33072,-0.13345 z m 4.43178,-2.94371 c 0,-3.84806 -0.48037,-5.08659 -2.38125,-6.13955 -1.04938,-0.58128 -1.57514,-0.67082 -4.43178,-0.75481 l -3.24114,-0.0953 v 1.36573 c 0,0.84312 0.10125,1.30317 0.26458,1.20222 0.14552,-0.0899 0.26459,-0.50949 0.26459,-0.93235 0,-1.14094 0.7314,-1.40865 3.4284,-1.25487 2.45807,0.14015 3.44203,0.50878 4.53924,1.70058 0.97743,1.06169 1.29277,2.22211 1.29277,4.75721 0,1.92069 -0.0687,2.25014 -0.52916,2.53771 -0.71702,0.44778 -0.66561,0.73234 0.13229,0.73234 h 0.66146 z m 6.00866,0.18859 c -0.0552,-2.91155 -0.0508,-2.93447 0.68682,-3.57188 1.29987,-1.12331 2.8589,-0.7399 3.53086,0.86834 0.36905,0.88326 0.34325,3.10685 -0.0585,5.03857 -0.12152,0.58434 -0.0774,0.59531 2.39478,0.59531 h 2.51859 v -3.83645 -3.83646 h 3.96875 c 3.79236,0 3.96875,0.0235 3.96875,0.52917 0,0.38805 0.17639,0.52916 0.66145,0.52916 h 0.66146 v -5.02708 -5.02708 h -10.31875 -10.31875 v -2.53112 -2.53111 l -2.71198,0.15134 c -1.49159,0.0832 -3.30729,0.14547 -4.03489,0.13828 -0.72761,-0.007 -5.29873,-0.0706 -10.15806,-0.14085 l -8.83515,-0.1278 0.15101,1.46308 c 0.50487,4.89172 5.09522,8.86984 10.23489,8.86984 1.41946,0 1.59585,0.0585 1.59585,0.52917 0,0.49465 0.17688,0.52926 2.71198,0.53064 4.16774,0.002 5.91156,0.72377 7.01146,2.90099 0.51705,1.02349 0.59531,1.58844 0.59531,4.29735 v 3.11893 h 2.89981 2.89981 z m 3.8849,2.51183 c 0.0883,-0.23018 0.14439,-0.85526 0.12457,-1.38906 -0.0229,-0.61575 -0.078,-0.75292 -0.15069,-0.37524 -0.10325,0.53607 -0.26797,0.59532 -1.65508,0.59532 -1.44096,0 -1.55164,-0.0447 -1.71427,-0.69268 -0.0956,-0.38098 -0.12282,-0.74371 -0.0605,-0.80608 0.0624,-0.0624 0.18949,0.18981 0.2825,0.56039 0.15243,0.60734 0.29698,0.67378 1.46596,0.67378 1.22665,0 1.30632,-0.0431 1.4717,-0.79606 0.0962,-0.43783 0.26201,-0.74218 0.36855,-0.67634 0.35486,0.21932 -0.13847,-2.51157 -0.52143,-2.88644 -0.71846,-0.70327 -1.64782,-0.72217 -2.47773,-0.0504 -0.82486,0.66771 -0.85939,0.90775 -0.71997,5.00452 l 0.0428,1.25677 h 1.69148 c 1.29834,0 1.72881,-0.0973 1.85208,-0.41851 z m 12.8606,-3.28565 v -3.70417 h -3.70416 -3.70417 v 3.70417 3.70416 h 3.70417 3.70416 z m -4.59752,-0.14252 c -0.25532,-0.66535 -0.18,-0.83702 0.1319,-0.30066 0.15444,0.26558 0.22506,0.5386 0.15694,0.60673 -0.0681,0.0681 -0.1981,-0.0696 -0.28884,-0.30607 z m 0.89336,0.17375 c 0,-0.14552 0.11906,-0.33817 0.26458,-0.42811 0.14552,-0.0899 0.26458,-0.0445 0.26458,0.10107 0,0.14552 -0.11906,0.33816 -0.26458,0.4281 -0.14552,0.0899 -0.26458,0.0445 -0.26458,-0.10106 z m -0.52917,-0.79375 c 0,-0.14552 0.11906,-0.33817 0.26458,-0.42811 0.14552,-0.0899 0.26459,-0.0444 0.26459,0.10107 0,0.14552 -0.11907,0.33816 -0.26459,0.4281 -0.14552,0.0899 -0.26458,0.0445 -0.26458,-0.10106 z m -62.00377,3.95957 c -1.7994,-0.19167 -2.28998,-0.66068 -2.28998,-2.18929 v -1.00776 h -2.38125 c -1.71747,0 -2.38708,0.0922 -2.40214,0.33073 -0.0167,0.26458 -0.0476,0.26458 -0.15434,0 -0.0734,-0.1819 -0.48072,-0.33073 -0.90515,-0.33073 h -0.77171 v 1.71979 1.71979 l 5.22552,-0.0389 c 3.08149,-0.0229 4.591,-0.10649 3.67905,-0.20363 z m 10.93918,-1.47726 v -1.71979 h -2.49971 -2.49972 l -0.08,1.38906 -0.08,1.38906 -1.85208,-0.0354 -1.85209,-0.0353 1.5875,0.1817 1.5875,0.1817 -1.5875,0.13436 c -0.87312,0.0739 0.4068,0.15687 2.84427,0.18438 l 4.43177,0.05 z m 25.49569,1.05833 c 0.11651,-0.30362 0.61532,-0.39687 2.12292,-0.39687 1.32894,0 2.01409,-0.1077 2.10408,-0.33073 0.0734,-0.1819 0.14286,-0.0628 0.15434,0.26458 0.0115,0.32742 0.13995,0.59531 0.28548,0.59531 0.35852,0 0.3328,-0.33735 -0.0661,-0.86758 -0.24856,-0.33036 -0.85659,-0.46117 -2.4474,-0.5265 -1.94889,-0.08 -1.89378,-0.0911 0.69521,-0.14017 2.2243,-0.0421 2.8807,0.0297 3.14125,0.34363 0.26417,0.31831 0.25749,0.48396 -0.0337,0.83678 -0.31137,0.3772 -0.30656,0.42131 0.0337,0.30949 0.29839,-0.098 0.41751,-0.65041 0.48001,-2.22584 0.12884,-3.24786 -0.54644,-4.86833 -2.43886,-5.85254 -0.85522,-0.44478 -4.48191,-0.77591 -5.55322,-0.50703 l -0.69001,0.17318 v 4.20624 c 0,3.11744 0.0856,4.24079 0.33073,4.3397 0.69928,0.28217 1.73511,0.16015 1.88162,-0.22165 z m -1.03261,-0.94364 c -0.2435,-0.39401 0.0388,-0.60822 0.54541,-0.41383 0.23378,0.0897 0.35095,0.28301 0.26038,0.42956 -0.21447,0.34702 -0.58608,0.33976 -0.80579,-0.0157 z m 0.24106,-3.68656 c 0,-1.52797 0.0437,-2.15305 0.0972,-1.38907 0.0534,0.76399 0.0534,2.01414 0,2.77813 -0.0534,0.76398 -0.0972,0.1389 -0.0972,-1.38906 z m 0.69587,2.57306 c 0,-0.04 0.92273,-0.96276 2.05052,-2.05052 l 2.05052,-1.97775 -1.97776,2.05052 c -1.83689,1.90448 -2.12328,2.17124 -2.12328,1.97775 z m 1.98437,2.18943 c 0.0899,-0.14552 -0.0816,-0.26458 -0.38126,-0.26458 -0.29963,0 -0.54478,0.11906 -0.54478,0.26458 0,0.14553 0.17157,0.26459 0.38126,0.26459 0.20969,0 0.45484,-0.11906 0.54478,-0.26459 z m 1.45521,0 c 0,-0.14552 -0.24515,-0.26458 -0.54478,-0.26458 -0.29963,0 -0.4712,0.11906 -0.38126,0.26458 0.0899,0.14553 0.33509,0.26459 0.54478,0.26459 0.20969,0 0.38126,-0.11906 0.38126,-0.26459 z m -39.4149,-0.19707 c -1.7866,-0.12246 -2.06986,-0.34707 -2.19655,-1.74176 l -0.10027,-1.10387 -0.0462,1.10558 c -0.065,1.55438 0.41343,1.94924 2.28777,1.88818 l 1.50246,-0.0489 z m 1.3149,-0.76594 c 0,-0.23862 0.19663,-0.57764 0.43695,-0.75337 0.28351,-0.20731 0.33746,-0.381 0.15363,-0.49462 -0.15584,-0.0963 -0.47153,0.0131 -0.70154,0.2431 -0.23002,0.23001 -0.41821,0.30521 -0.41821,0.16712 0,-0.1381 0.18364,-0.4035 0.40809,-0.58977 0.30589,-0.25387 0.48376,-0.26301 0.71024,-0.0365 0.34838,0.34838 0.48873,1.41207 0.15947,1.20857 -0.12071,-0.0746 -0.21947,0.0557 -0.21947,0.28948 0,0.35349 0.27863,0.41185 1.65365,0.34635 l 1.65365,-0.0788 0.0356,-1.19063 0.0356,-1.19062 -0.19431,1.19062 -0.1943,1.19063 -0.0397,-1.12448 -0.0397,-1.12448 h -3.30729 -3.30729 v 1.01423 c 0,0.55784 0.0794,1.09362 0.17639,1.19063 0.097,0.097 0.81138,0.17639 1.5875,0.17639 1.13138,0 1.41111,-0.086 1.41111,-0.43385 z m 40.48125,0.16927 c 0,-0.14553 -0.17859,-0.26459 -0.39688,-0.26459 -0.21828,0 -0.39687,0.11906 -0.39687,0.26459 0,0.14552 0.17859,0.26458 0.39687,0.26458 0.21829,0 0.39688,-0.11906 0.39688,-0.26458 z m -8.20208,-1.5875 c 0,-0.14553 -0.11907,-0.26459 -0.26459,-0.26459 -0.14552,0 -0.26458,0.11906 -0.26458,0.26459 0,0.14552 0.11906,0.26458 0.26458,0.26458 0.14552,0 0.26459,-0.11906 0.26459,-0.26458 z m -0.33966,-2.57969 c -0.0606,-0.40018 -0.11023,-0.0728 -0.11023,0.7276 0,0.80037 0.0496,1.12779 0.11023,0.72761 0.0606,-0.40019 0.0606,-1.05503 0,-1.45521 z m -40.93535,-1.77274 v -3.55867 l -1.52135,-0.0794 -1.52135,-0.0794 v -3.83645 -3.83646 l 1.52135,-0.0794 1.52135,-0.0793 v -4.88159 -4.88159 h -1.71979 -1.71979 v 11.1125 11.1125 h 0.92604 0.92604 v 1.32292 c 0,1.29352 0.0176,1.32292 0.79375,1.32292 h 0.79375 z m 5.88807,0.96413 c 0.22637,-0.27277 1.07772,-0.33583 3.64227,-0.26978 2.11259,0.0544 3.34659,-0.0114 3.34618,-0.17838 -4e-4,-0.16397 -1.43331,-0.26459 -3.76813,-0.26459 -2.07211,0 -3.66577,0.0627 -3.54148,0.13928 0.1243,0.0766 0.11504,0.31472 -0.0206,0.52916 -0.13561,0.21445 -0.22759,0.92568 -0.20439,1.58052 l 0.0422,1.19063 0.10426,-1.18544 c 0.0573,-0.65199 0.2372,-1.34562 0.39969,-1.5414 z m 6.54735,1.27163 v -1.32292 h -2.88878 c -1.58882,0 -3.07711,0.0723 -3.30729,0.1606 -0.29374,0.11272 -0.41851,0.50711 -0.41851,1.32292 v 1.16232 h 3.30729 3.30729 z m 0.45131,-0.33073 c -0.0631,-0.32742 -0.11466,-0.0595 -0.11466,0.59531 0,0.65485 0.0516,0.92274 0.11466,0.59531 0.0631,-0.32742 0.0631,-0.8632 0,-1.19062 z m 5.36952,-0.0661 v -1.71979 h -2.51354 -2.51354 v 1.71979 1.7198 h 2.51354 2.51354 z m 23.01876,-1.19062 c 0,-0.14552 -0.11907,-0.26458 -0.26459,-0.26458 -0.14552,0 -0.26458,0.11906 -0.26458,0.26458 0,0.14552 0.11906,0.26458 0.26458,0.26458 0.14552,0 0.26459,-0.11906 0.26459,-0.26458 z m -41.27501,-8.20208 v -3.70417 h -1.4552 -1.45521 v 3.70417 3.70416 h 1.45521 1.4552 z m 3.175,0 v -3.70417 h -1.4552 -1.45521 v 3.70417 3.70416 h 1.45521 1.4552 z m 71.92942,-4.0349 c -0.034,-1.99221 -0.0534,-2.0673 -0.22263,-0.8599 -0.10196,0.72761 -0.32668,1.62058 -0.49938,1.98438 l -0.314,0.66146 0.1738,-0.66146 c 0.0956,-0.3638 0.22884,-1.2173 0.29612,-1.89667 0.11137,-1.12441 0.0686,-1.24308 -0.47633,-1.32292 -0.86469,-0.12667 -0.9752,-0.74916 -0.133,-0.74916 0.63114,0 0.68351,-0.089 0.68351,-1.16132 0,-0.74952 -0.17944,-1.38279 -0.50606,-1.78593 l -0.50606,-0.62463 h -7.77415 c -8.80331,0 -8.81133,0.002 -9.75093,2.07115 -0.64316,1.41656 -0.64079,2.39277 0.009,3.7323 0.91031,1.87637 0.79822,1.85338 9.79687,2.0093 l 8.06979,0.13982 -7.90627,0.0586 c -7.54833,0.0559 -7.94577,0.0342 -8.77862,-0.48054 -0.98233,-0.60711 -1.96824,-2.40506 -1.96824,-3.58937 0,-1.06254 1.02169,-2.99332 1.93734,-3.6612 0.71365,-0.52054 1.0912,-0.54466 8.52515,-0.54466 7.71366,0 7.78338,0.005 8.37406,0.59532 0.397,0.39678 0.65184,1.05855 0.76417,1.98437 0.1539,1.26845 0.17176,1.19952 0.20578,-0.79375 l 0.0372,-2.18281 h -10.18646 -10.18645 v 4.6302 4.63021 h 10.18645 10.18646 z m -3.13775,-2.4474 c 0,-0.21828 0.16586,-0.39687 0.36857,-0.39687 0.20271,0 0.4371,0.17859 0.52086,0.39687 0.10359,0.26996 -0.0143,0.39688 -0.36856,0.39688 -0.2866,0 -0.52087,-0.1785 -0.52087,-0.39688 z m -22.46904,-0.54775 c 0.65759,-0.59511 0.64869,-1.56114 -0.0205,-2.23037 -0.57242,-0.57242 -0.9431,-0.66508 -1.17293,-0.29321 -0.0802,0.12977 -0.58588,0.19331 -1.12371,0.14119 -1.18729,-0.11506 -1.67211,0.2397 -1.67211,1.22354 0,1.10374 1.16045,1.92859 2.46793,1.75422 0.557,-0.0743 1.24161,-0.3422 1.52136,-0.59537 z m -1.96082,-0.81926 c -0.29665,-0.29665 -0.19682,-0.61736 0.19218,-0.61736 0.20271,0 0.4371,0.17859 0.52086,0.39687 0.15266,0.39782 -0.37313,0.5604 -0.71304,0.22049 z m 26.87726,1.32408 c -0.1819,-0.0734 -0.47956,-0.0734 -0.66146,0 -0.1819,0.0734 -0.0331,0.13345 0.33073,0.13345 0.3638,0 0.51263,-0.06 0.33073,-0.13345 z m -28.89245,-0.73482 c -0.90765,-1.09364 0.45218,-2.84704 2.20798,-2.84704 1.77575,0 3.06798,1.52997 2.31312,2.73869 -0.28873,0.46232 -0.17445,0.48923 2.07796,0.48923 h 2.38349 v -1.98438 -1.98437 h -6.87916 -6.87917 v 1.98437 1.98438 H 281.67 c 2.18552,0 2.50119,-0.0539 2.22984,-0.38088 z m 2.63255,-2.42573 c 0,-0.21898 -0.51375,-0.34281 -0.63153,-0.15222 -0.0764,0.12364 0.0344,0.2248 0.2463,0.2248 0.21187,0 0.38523,-0.0327 0.38523,-0.0726 z m 26.9875,-8.04131 v -3.70416 H 298.9678 284.41572 v 3.70416 3.70417 h 14.55208 14.55208 z m 0,-10.31396 v -6.34521 l -6.28385,-0.0709 -6.28386,-0.0709 -0.13229,-16.00729 c -0.0728,-8.80401 -0.21028,-15.26333 -0.3056,-14.35404 -0.53167,5.07167 -5.41062,9.91839 -10.38642,10.3178 l -1.74339,0.13994 -0.0462,-6.0555 c -0.0254,-3.33052 -0.0918,-5.54948 -0.14751,-4.93101 l -0.10127,1.12448 h -1.83687 -1.83687 v 5.02708 5.02708 h 3.83645 3.83646 v 3.3073 c 0,3.14793 0.0259,3.30729 0.53747,3.30729 0.29561,0 0.60601,-0.1786 0.68977,-0.39688 0.23644,-0.61616 0.66791,-0.46734 0.57533,0.19844 -0.0702,0.50488 0.0257,0.58406 0.63129,0.52127 0.82481,-0.0855 1.27031,0.52667 1.27031,1.74558 0,0.55777 0.1509,0.81975 0.52917,0.91867 0.29104,0.0761 0.52916,0.26175 0.52916,0.41254 0,0.15079 -0.23812,0.2283 -0.52916,0.17225 -0.43942,-0.0846 -0.52978,0.0414 -0.53278,0.7428 -0.007,1.60356 -0.22408,1.97021 -1.1064,1.86748 -0.73093,-0.0851 -0.79181,-0.0342 -0.67701,0.56633 0.15383,0.80472 -0.4766,0.91812 -0.72652,0.13068 -0.0924,-0.29104 -0.39806,-0.52916 -0.67929,-0.52916 -0.47812,0 -0.51134,0.21483 -0.51134,3.30729 v 3.30729 h -3.83646 -3.83645 v 0.6246 c 0,0.55608 0.15214,0.64263 1.38672,0.78885 3.04962,0.36118 6.51528,2.88754 7.93055,5.78112 0.6986,1.42832 1.37768,4.31702 1.11483,4.74232 -0.0795,0.12867 -2.45928,0.23394 -5.28835,0.23394 -4.39584,0 -5.14375,0.0577 -5.14375,0.39688 0,0.34796 1.79328,0.39687 14.55208,0.39687 h 14.55208 z m -76.86146,-9.92666 v -5.29167 l -0.7276,-0.0837 -0.72761,-0.0837 v 5.45911 5.4591 l 0.72761,-0.0837 0.7276,-0.0837 z m 1.12996,-0.0696 c 0.0665,-4.97383 0.0383,-5.35437 -0.39688,-5.35437 -0.43306,0 -0.46849,0.4108 -0.46849,5.43062 0,4.68472 0.0545,5.42015 0.39687,5.35437 0.33433,-0.0642 0.40816,-0.92005 0.4685,-5.43062 z m 7.469,0.0696 v -5.42396 h -3.57187 -3.57188 v 5.24757 c 0,2.88616 0.0794,5.32694 0.17639,5.42396 0.097,0.097 1.70436,0.17639 3.57187,0.17639 h 3.39549 z m 37.30625,-0.52917 c 0,-3.72257 -0.0704,-4.63021 -0.35905,-4.63021 -0.26671,0 -0.40681,0.69345 -0.54476,2.69633 -0.10214,1.48298 -0.24645,2.79461 -0.32069,2.91473 -0.47198,0.76368 -0.62758,-0.72978 -0.62758,-6.02355 0,-4.94428 0.0627,-5.93751 0.37457,-5.93751 0.28891,0 0.41772,0.66561 0.56321,2.91042 0.14243,2.19759 0.2775,2.91042 0.55147,2.91042 0.29357,0 0.36283,-0.88392 0.36283,-4.63021 v -4.63021 h -1.19062 -1.19063 v 9.525 9.525 h 1.19063 1.19062 z m 24.93698,3.63827 -6.15156,-0.0762 v -8.81254 -8.81254 l 0.67229,-0.63159 c 0.66151,-0.62145 0.66348,-0.63485 0.12298,-0.83479 -0.51431,-0.19026 -0.5445,-0.37632 -0.47385,-2.92027 l 0.0754,-2.71705 h 5.68855 5.68854 l 0.14779,2.51354 0.14779,2.51354 0.0506,-2.84427 0.0506,-2.84427 h -6.21771 -6.2177 v 12.83229 12.83229 l 6.28385,-0.061 6.28385,-0.061 z m -15.67656,-3.26167 v -3.19527 l -0.8599,0.0471 c -2.23177,0.12219 -2.07623,0.36536 -1.99277,-3.11539 l 0.0745,-3.10885 1.38907,-0.08 1.38906,-0.08 v -3.16117 -3.16117 h -3.70417 -3.70416 v 9.525 9.525 h 3.70416 3.70417 z m -4.76905,-4.36257 c -0.28748,-0.75613 -0.30152,-2.81343 -0.0259,-3.79962 0.252,-0.90177 0.82623,-1.02268 0.82623,-0.17396 0,0.43118 0.14651,0.68351 0.39687,0.68351 0.30019,0 0.39688,0.3243 0.39688,1.33122 0,0.93923 -0.11686,1.37607 -0.39688,1.48352 -0.21828,0.0838 -0.39687,0.37768 -0.39687,0.65315 0,0.72542 -0.49905,0.61454 -0.8003,-0.17782 z m 1.32947,-1.83486 c 0,-0.65485 -0.11907,-1.19063 -0.26459,-1.19063 -0.14552,0 -0.26458,0.53578 -0.26458,1.19063 0,0.65484 0.11906,1.19062 0.26458,1.19062 0.14552,0 0.26459,-0.53578 0.26459,-1.19062 z m 24.87083,-0.52917 v -9.65729 h -4.63021 -4.63021 v 1.05833 1.05834 h -1.19062 -1.19063 v 8.59896 8.59895 h 5.82084 5.82083 z m -31.81838,-0.33073 c -0.0509,-0.98226 -0.0926,-0.17859 -0.0926,1.78594 0,1.96453 0.0416,2.7682 0.0926,1.78594 0.0509,-0.98227 0.0509,-2.58961 0,-3.57188 z m 9.59338,1.78594 c 0,-1.46991 -0.0819,-1.85208 -0.39688,-1.85208 -0.31498,0 -0.39687,0.38217 -0.39687,1.85208 0,1.46991 0.0819,1.85208 0.39687,1.85208 0.31499,0 0.39688,-0.38217 0.39688,-1.85208 z m 0.72469,-2.57969 c -0.0525,-0.83674 -0.0955,-0.15213 -0.0955,1.52136 0,1.67349 0.043,2.3581 0.0955,1.52135 0.0525,-0.83674 0.0525,-2.20596 0,-3.04271 z m 2.17752,4.04478 c 0.54197,-0.65303 0.65301,-3.322 0.18483,-4.44251 -0.35025,-0.83827 -0.53885,-0.99133 -1.22146,-0.99133 h -0.80725 v 2.91042 2.91041 H 292.85 c 0.41874,0 0.90588,-0.17414 1.08252,-0.38699 z m 1.28174,-0.89015 c 0.0463,-0.46862 -0.0414,-0.83952 -0.19844,-0.83952 -0.15474,0 -0.28297,0.14882 -0.28496,0.33073 -0.002,0.1819 -0.0796,0.61456 -0.17241,0.96146 -0.12585,0.47026 -0.0744,0.59971 0.20205,0.50879 0.20397,-0.0671 0.40816,-0.49973 0.45376,-0.96146 z m -5.49617,-3.48536 c 0.39124,0 0.30043,-0.71927 -0.11073,-0.87705 -0.29496,-0.11318 -0.36142,0.349 -0.34787,2.41909 0.0157,2.39509 0.0228,2.42766 0.11074,0.50848 0.0517,-1.12778 0.20823,-2.05052 0.34786,-2.05052 z m -52.98792,-2.71198 0.0717,-5.22552 h -0.79934 -0.79935 v 5.30924 5.30924 l 0.72761,-0.0837 0.7276,-0.0837 z m 1.11889,0.0661 c 0,-4.46263 -0.0605,-5.29167 -0.38625,-5.29167 -0.32318,0 -0.39879,0.86413 -0.46303,5.29194 -0.071,4.89289 -0.0418,5.29192 0.38626,5.29167 0.42553,-2.5e-4 0.46302,-0.42875 0.46302,-5.29194 z m 57.41458,4.49792 c 0,-0.29104 -0.11906,-0.52917 -0.26458,-0.52917 -0.14552,0 -0.26458,0.23813 -0.26458,0.52917 0,0.29104 0.11906,0.52916 0.26458,0.52916 0.14552,0 0.26458,-0.23812 0.26458,-0.52916 z m 0,-1.57189 c 0,-0.76128 -0.3682,-1.28386 -0.61884,-0.87832 -0.19273,0.31185 0.11987,1.65646 0.3851,1.65646 0.12856,0 0.23374,-0.35016 0.23374,-0.77814 z m -4.23333,-0.67707 c 0,-0.21828 -0.17859,-0.39688 -0.39688,-0.39688 -0.21828,0 -0.39687,0.1786 -0.39687,0.39688 0,0.21828 0.17859,0.39687 0.39687,0.39687 0.21829,0 0.39688,-0.17859 0.39688,-0.39687 z m 12.7,-6.87917 c 0,-0.50932 -0.0362,-0.92604 -0.0804,-0.92604 -0.0442,0 -0.48429,0.41672 -0.97794,0.92604 l -0.89756,0.92604 h 0.97794 c 0.94127,0 0.97795,-0.0347 0.97795,-0.92604 z m -49.13135,-1.05613 c 5.05357,-1.31628 8.45172,-5.23274 9.16218,-10.55963 l 0.17989,-1.34882 0.34249,1.93669 c 0.48632,2.74997 1.80813,5.23918 3.72397,7.01292 2.15934,1.99916 5.12425,3.32612 7.47855,3.34704 l 0.7276,0.006 v -6.87916 c 0,-4.40973 0.095,-6.87917 0.26459,-6.87917 0.14552,0 0.26458,-0.47625 0.26458,-1.05833 v -1.05834 h -12.83229 -12.8323 v 1.05834 c 0,0.58208 0.11907,1.05833 0.26459,1.05833 0.1696,0 0.26458,2.46944 0.26458,6.87917 v 6.87916 h 0.73816 c 0.40599,0 1.42002,-0.1776 2.25341,-0.39467 z m 48.73447,0.13009 c 0.0992,-0.16048 2.03122,-0.26458 4.91041,-0.26458 h 4.74689 v -2.38125 -2.38125 h -5.55625 -5.55625 v 2.64583 c 0,2.62878 0.004,2.64583 0.64584,2.64583 0.35521,0 0.71943,-0.11906 0.80936,-0.26458 z m -58.07604,-0.92604 v -0.92604 h -5.15937 -5.15938 v 0.92604 0.92604 h 5.15938 5.15937 z m 48.28832,-0.35891 c 2.40135,-1.12373 4.4182,-3.11083 5.61481,-5.532 0.84526,-1.71027 0.98394,-2.26377 1.08222,-4.31923 0.062,-1.29666 0.21721,-2.35757 0.34493,-2.35757 0.12772,0 0.23222,-0.47625 0.23222,-1.05833 v -1.05834 h -6.35 -6.35 v 1.05834 c 0,0.58208 0.11906,1.05833 0.26459,1.05833 0.16937,0 0.26458,2.3935 0.26458,6.65133 v 6.65133 l 1.5871,-0.14391 c 0.95997,-0.0871 2.26771,-0.46241 3.30955,-0.94995 z m 19.97418,-6.65255 v -1.85208 h -6.21771 -6.2177 v 1.85208 1.85208 h 6.2177 6.21771 z m -5.02708,-17.4625 v -9.525 h -32.80833 -32.80834 v 9.525 9.525 h 32.80834 32.80833 z m -75.67084,164.85103 c 0,-0.45042 0.39415,-0.50413 0.91339,-0.12445 0.48617,0.3555 0.47651,0.37342 -0.20136,0.37342 -0.39161,0 -0.71203,-0.11204 -0.71203,-0.24897 z m 6.56498,0.0682 c 0.19099,-0.0764 0.4192,-0.067 0.50712,0.0209 0.0879,0.0879 -0.0684,0.15045 -0.34727,0.13897 -0.30822,-0.0127 -0.37092,-0.0754 -0.15985,-0.15985 z m 15.58643,-0.11609 c 0.16325,-0.16325 0.23537,-0.49067 0.16025,-0.7276 -0.10747,-0.33899 -0.0817,-0.35393 0.12094,-0.0701 0.14163,0.19837 0.31194,0.2579 0.37847,0.1323 0.0665,-0.12561 0.0902,-0.0941 0.0527,0.0701 -0.0375,0.16417 0.0653,0.43206 0.22858,0.59531 0.21937,0.21938 0.0966,0.29683 -0.47047,0.29683 -0.56709,0 -0.68984,-0.0774 -0.47047,-0.29683 z m 1.61148,0.11609 c 0.191,-0.0764 0.4192,-0.067 0.50712,0.0209 0.0879,0.0879 -0.0683,0.15045 -0.34726,0.13897 -0.30823,-0.0127 -0.37092,-0.0754 -0.15986,-0.15985 z m 17.19792,0 c 0.191,-0.0764 0.4192,-0.067 0.50712,0.0209 0.0879,0.0879 -0.0684,0.15045 -0.34726,0.13897 -0.30823,-0.0127 -0.37092,-0.0754 -0.15986,-0.15985 z m 3.35957,-0.0882 c 0.0914,-0.1479 0.27702,-0.2004 0.41249,-0.11668 0.22261,0.13758 0.3588,-0.22487 0.27763,-0.7389 -0.0172,-0.10914 0.0729,-0.19844 0.20018,-0.19844 0.12733,0 0.23151,0.29766 0.23151,0.66146 0,0.52438 -0.13345,0.66146 -0.644,0.66146 -0.36885,0 -0.57299,-0.11489 -0.47781,-0.2689 z m -44.32038,-0.83354 c 0,-0.12126 0.1786,-0.22048 0.39688,-0.22048 0.21828,0 0.39687,0.0992 0.39687,0.22048 0,0.12127 -0.17859,0.22049 -0.39687,0.22049 -0.21828,0 -0.39688,-0.0992 -0.39688,-0.22049 z m 0.095,-3.61597 c -7.4e-4,-2.18231 0.0911,-3.1309 0.30296,-3.1309 0.21204,0 0.30306,0.94733 0.3008,3.1309 -0.002,2.15371 -0.0968,3.13091 -0.30296,3.13091 -0.2063,0 -0.30006,-0.97593 -0.3008,-3.13091 z m 22.21821,1.68734 c 0,-0.79397 0.0891,-1.38854 0.19789,-1.32127 0.10884,0.0673 0.2489,-0.0273 0.31126,-0.21008 0.0624,-0.18281 0.1122,0.41177 0.11076,1.32127 -0.002,1.08194 -0.10932,1.65365 -0.31126,1.65365 -0.19743,0 -0.30865,-0.52018 -0.30865,-1.44357 z m 22.89238,1.37742 c -0.13244,-0.22947 -0.0928,-7.87135 0.0409,-7.87135 0.091,0 0.16506,1.78593 0.16469,3.96875 -5.3e-4,3.46994 -0.0386,4.19186 -0.20557,3.9026 z m -0.73469,-2.73403 c 0.0127,-0.30822 0.0754,-0.37092 0.15985,-0.15985 0.0764,0.19099 0.067,0.4192 -0.0209,0.50712 -0.0879,0.0879 -0.15045,-0.0683 -0.13897,-0.34727 z M 255.118,297.59994 c 0.0197,-0.31914 0.16065,-0.66773 0.31316,-0.77465 0.18487,-0.1296 0.17296,-0.19573 -0.0358,-0.19843 -0.17481,-0.002 -0.30318,-0.35051 -0.29072,-0.78869 0.0123,-0.43156 0.12337,-0.72219 0.24688,-0.64585 0.12352,0.0763 0.22276,-0.13612 0.22053,-0.47213 -0.003,-0.44354 -0.0664,-0.51257 -0.23151,-0.25195 -0.16053,0.25334 -0.22746,0.15602 -0.22746,-0.33073 0,-0.37934 0.14876,-0.6897 0.33057,-0.6897 0.46698,0 0.43816,4.42552 -0.03,4.60516 -0.20897,0.0802 -0.31831,-0.0873 -0.2957,-0.45303 z m -22.22988,-3.44658 c 0,-0.33955 0.14883,-0.61736 0.33073,-0.61736 0.1819,0 0.33073,0.27781 0.33073,0.61736 0,0.33955 -0.14883,0.61736 -0.33073,0.61736 -0.1819,0 -0.33073,-0.27781 -0.33073,-0.61736 z m -0.0661,-1.19062 c 0,-0.12127 0.1786,-0.22049 0.39688,-0.22049 0.21828,0 0.39687,0.0992 0.39687,0.22049 0,0.12126 -0.17859,0.22048 -0.39687,0.22048 -0.21828,0 -0.39688,-0.0992 -0.39688,-0.22048 z m 22.225,0 c 0,-0.12127 0.1786,-0.22049 0.39688,-0.22049 0.21828,0 0.39687,0.0992 0.39687,0.22049 0,0.12126 -0.17859,0.22048 -0.39687,0.22048 -0.21828,0 -0.39688,-0.0992 -0.39688,-0.22048 z m 22.88646,-0.0441 c 0.0899,-0.14552 0.21603,-0.26458 0.2802,-0.26458 0.0642,0 0.11668,0.11906 0.11668,0.26458 0,0.14552 -0.12609,0.26458 -0.2802,0.26458 -0.15411,0 -0.20661,-0.11906 -0.11668,-0.26458 z m 40.63444,-171.33975 c 0.0127,-0.30823 0.0754,-0.37092 0.15985,-0.15985 0.0764,0.19099 0.067,0.41919 -0.0209,0.50711 -0.0879,0.0879 -0.15045,-0.0684 -0.13896,-0.34726 z m 0,-25.400001 c 0.0127,-0.308224 0.0754,-0.370919 0.15985,-0.159852 0.0764,0.190996 0.067,0.419199 -0.0209,0.507118 -0.0879,0.08792 -0.15045,-0.06835 -0.13896,-0.347266 z"
         id="path2891" />
    </g>
    <path
       style="fill:none;stroke:#000000;stroke-width:0.264583px;stroke-linecap:butt;stroke-linejoin:miter;stroke-opacity:1"
       d="M 41.560411,18.10751 41.493593,-0.86862596"
       id="path3003" />
  </g>
</svg>
