<?xml version="1.0" encoding="UTF-8" standalone="no"?>
<svg
   xmlns:dc="http://purl.org/dc/elements/1.1/"
   xmlns:cc="http://creativecommons.org/ns#"
   xmlns:rdf="http://www.w3.org/1999/02/22-rdf-syntax-ns#"
   xmlns:svg="http://www.w3.org/2000/svg"
   xmlns="http://www.w3.org/2000/svg"
   xmlns:sodipodi="http://sodipodi.sourceforge.net/DTD/sodipodi-0.dtd"
   xmlns:inkscape="http://www.inkscape.org/namespaces/inkscape"
   width="50mm"
   height="80mm"
   viewBox="0 0 50 80"
   version="1.1"
   id="svg8"
   sodipodi:docname="planparter2.svg"
   inkscape:version="1.0.1 (3bc2e813f5, 2020-09-07)">
  <defs
     id="defs2" />
  <sodipodi:namedview
     id="base"
     pagecolor="#ffffff"
     bordercolor="#666666"
     borderopacity="1.0"
     inkscape:pageopacity="0.0"
     inkscape:pageshadow="2"
     inkscape:zoom="1.4"
     inkscape:cx="14.553135"
     inkscape:cy="195.72787"
     inkscape:document-units="mm"
     inkscape:current-layer="layer1"
     inkscape:document-rotation="0"
     showgrid="false"
     inkscape:window-width="1920"
     inkscape:window-height="1137"
     inkscape:window-x="-8"
     inkscape:window-y="-8"
     inkscape:window-maximized="1" />
  <metadata
     id="metadata5">
    <rdf:RDF>
      <cc:Work
         rdf:about="">
        <dc:format>image/svg+xml</dc:format>
        <dc:type
           rdf:resource="http://purl.org/dc/dcmitype/StillImage" />
        <dc:title></dc:title>
      </cc:Work>
    </rdf:RDF>
  </metadata>
  <g
     inkscape:label="Layer 1"
     inkscape:groupmode="layer"
     id="layer1">
    <g
       id="g879"
       transform="matrix(0.46404433,0,0,0.46404433,-0.42967998,-45.341998)">
      <path
         style="fill:#bfd6eb;fill-opacity:0.690763;stroke-width:0.264583"
         d="m 22.899902,206.43884 v -3.04271 h 3.175 3.175 v 3.04271 3.04271 h -3.175 -3.175 z m 3.571875,-0.52917 c 0,-0.35228 -0.201221,-0.51275 -0.674687,-0.53805 -0.52697,-0.0281 -0.674688,0.0897 -0.674688,0.53805 0,0.4484 0.147718,0.5662 0.674688,0.53805 0.473466,-0.0253 0.674687,-0.18576 0.674687,-0.53805 z m -1.085587,0.0882 c -0.07495,-0.12126 -0.09947,-0.22959 -0.05451,-0.24072 0.67273,-0.16657 0.919608,-0.12944 0.919608,0.13832 0,0.36373 -0.655629,0.44134 -0.865101,0.1024 z m 4.128295,0.30869 v -3.175 h -3.439583 c -2.881018,0 -3.439583,0.0644 -3.439583,0.39687 0,0.22049 -0.235185,0.39688 -0.529167,0.39688 -0.506407,0 -0.529167,-0.17639 -0.529167,-4.10105 v -4.10104 h 8.598959 8.598958 v -2.24896 -2.24895 h 1.962933 c 1.384682,0 2.200262,0.1362 2.768569,0.46237 0.766842,0.4401 0.868325,0.4401 2.107475,0 0.740344,-0.26295 2.059442,-0.46237 3.058369,-0.46237 h 1.756531 l -0.07225,4.69635 -0.07225,4.69635 -2.653591,0.16145 c -2.769079,0.16848 -3.786404,0.50722 -4.803264,1.59935 -0.906927,0.97406 -1.142103,1.9226 -1.142103,4.60643 v 2.49632 h -2.405002 -2.405001 l 0.186496,-2.23886 0.186496,-2.23886 -0.803851,-0.80385 c -0.996198,-0.9962 -1.728264,-1.0176 -2.608596,-0.0763 -0.654641,0.70002 -0.674335,0.81539 -0.519418,3.04271 l 0.161022,2.31511 h -1.98149 -1.98149 z m 4.203985,2.44739 c -0.01614,-0.40018 -0.0705,-1.41739 -0.120786,-2.26046 -0.07441,-1.24739 0.005,-1.62927 0.426223,-2.05052 0.701087,-0.70109 1.999182,-0.6809 2.383425,0.0371 0.328304,0.61345 0.57795,3.14945 0.259276,2.63382 -0.137411,-0.22233 -0.244448,-0.15113 -0.34377,0.22867 -0.116007,0.44362 -0.352365,0.55154 -1.207932,0.55154 -0.784662,0 -1.099511,-0.12147 -1.200203,-0.46303 -0.106397,-0.3609 -0.12476,-0.34631 -0.08326,0.0662 0.04287,0.42611 0.279567,0.54539 1.215356,0.61248 0.75059,0.0538 1.240242,-0.0399 1.382729,-0.26459 0.140652,-0.2218 0.222077,0.0117 0.22466,0.6443 l 0.0041,0.99219 h -1.455209 c -1.403996,0 -1.456241,-0.0256 -1.484557,-0.72761 z m 8.274169,-2.16436 c 0.07556,-2.44 0.176576,-3.00855 0.646378,-3.63802 1.006081,-1.34799 2.035964,-1.74369 4.896814,-1.88145 l 2.616155,-0.12598 -0.03964,1.15985 c -0.02689,0.7866 -0.07512,0.92567 -0.149876,0.43215 -0.161716,-1.06757 -0.921723,-1.34905 -3.181064,-1.17818 -3.304863,0.24995 -4.603885,1.72479 -4.525952,5.13853 l 0.04096,1.79444 0.170178,-2.11667 c 0.191087,-2.37673 0.459594,-3.02443 1.586407,-3.82679 0.847114,-0.6032 3.665501,-1.0067 4.88818,-0.69983 l 0.696899,0.17491 -0.07378,3.49877 -0.07378,3.49878 -0.859896,0.0829 c -0.575736,0.0555 -0.859895,-0.0319 -0.859895,-0.26459 0,-0.2477 -0.448641,-0.34749 -1.562235,-0.34749 -0.864161,0 -1.496142,0.10694 -1.414328,0.23932 0.08135,0.13162 0.01045,0.15436 -0.157557,0.0505 -0.688617,-0.42559 -0.208536,-0.66699 1.480474,-0.74443 l 1.785937,-0.0819 -2.342525,-0.12865 c -2.668043,-0.14651 -3.112987,-0.0123 -2.616171,0.78933 0.371327,0.59912 0.107315,0.71476 -0.471472,0.20651 -0.207142,-0.1819 -0.152971,-0.0628 0.120383,0.26458 0.491027,0.58815 0.489865,0.59532 -0.09658,0.59532 -0.584312,0 -0.592184,-0.0452 -0.504027,-2.89197 z m 6.957421,1.32275 c 0.195673,-0.3166 -0.302053,-0.6303 -0.654473,-0.41249 -0.295899,0.18287 -0.101645,0.65879 0.268899,0.65879 0.128344,0 0.301852,-0.11084 0.385574,-0.2463 z m -0.914741,-0.62124 c 0,-0.0406 -0.803672,-0.84426 -1.785938,-1.78594 l -1.785937,-1.71215 1.712148,1.78594 c 1.590318,1.65886 1.859727,1.90689 1.859727,1.71215 z m 0.458314,-3.69652 c -0.05571,-0.61847 -0.101283,-0.11245 -0.101283,1.12448 0,1.23692 0.04558,1.74294 0.101283,1.12447 0.0557,-0.61846 0.0557,-1.63049 0,-2.24895 z m -2.641127,5.71175 c 0.181901,-0.0734 0.479558,-0.0734 0.661459,0 0.181901,0.0734 0.03307,0.13345 -0.330729,0.13345 -0.363802,0 -0.512631,-0.0601 -0.33073,-0.13345 z m 2.050521,-0.003 c 1.606315,-0.20046 1.948836,-0.35767 2.06229,-0.94658 0.08278,-0.42966 0.124613,-0.35606 0.150638,0.26502 l 0.03603,0.85991 -1.521355,-0.0396 c -0.836744,-0.0218 -1.164166,-0.0842 -0.727604,-0.13869 z m -2.563151,-0.53157 c 0.190995,-0.0764 0.419198,-0.067 0.507119,0.0209 0.08792,0.0879 -0.06835,0.15046 -0.347265,0.13897 -0.308227,-0.0127 -0.37092,-0.0754 -0.159854,-0.15985 z m -2.199349,-0.613 c -0.08994,-0.14552 0.02913,-0.26458 0.264584,-0.26458 0.235458,0 0.35452,0.11906 0.264583,0.26458 -0.08994,0.14552 -0.209,0.26458 -0.264583,0.26458 -0.05558,0 -0.174647,-0.11906 -0.264584,-0.26458 z M 21.616628,193.5404 c 0.02181,-1.05503 0.08615,-1.56104 0.142986,-1.12448 0.155202,1.19207 0.631486,2.24614 1.11043,2.45751 0.234703,0.10358 3.364252,0.12879 6.954553,0.056 6.472095,-0.13116 6.533682,-0.1378 7.214346,-0.7779 1.547576,-1.45536 1.47982,-4.05631 -0.141203,-5.42031 l -0.809272,-0.68095 h -6.696145 -6.696145 l -0.409124,0.6244 c -0.225018,0.34342 -0.456822,1.08756 -0.515119,1.65364 -0.06331,0.61476 -0.123906,0.25676 -0.150472,-0.88898 l -0.04448,-1.91823 h 8.466667 8.466667 v 3.96875 3.96875 H 30.04365 21.576983 Z m 0.901402,0.53644 c -0.226533,-0.32342 -0.411878,-0.97826 -0.411878,-1.45521 0,-0.69078 0.107637,-0.86717 0.529167,-0.86717 0.291041,0 0.529166,-0.11906 0.529166,-0.26458 0,-0.14552 -0.238125,-0.26458 -0.529166,-0.26458 -0.412937,0 -0.529167,-0.17639 -0.529167,-0.80306 0,-0.44168 0.192287,-1.09653 0.427305,-1.45521 l 0.427305,-0.65215 h 6.548472 c 6.204864,0 6.584718,0.0285 7.239244,0.54336 0.976217,0.76789 1.40467,2.33714 1.003603,3.67578 -0.172057,0.57428 -0.623679,1.28865 -1.003603,1.5875 -0.654625,0.51493 -1.034246,0.54336 -7.254671,0.54336 -6.483011,0 -6.568975,-0.007 -6.975777,-0.58804 z m 2.090365,-2.60524 c -0.196478,-0.31791 -0.914743,-0.32087 -0.914743,-0.004 0,0.28673 0.57424,0.52922 0.864212,0.36494 0.111514,-0.0632 0.134253,-0.22571 0.05053,-0.36117 z m 18.598278,-0.2675 c -0.5358,-0.31207 -0.630367,-1.69623 -0.136729,-2.00132 0.624494,-0.38595 2.568332,-0.33673 2.980542,0.0755 0.927288,0.92729 0.06349,2.21725 -1.475584,2.20357 -0.497864,-0.004 -1.113567,-0.1294 -1.368229,-0.27773 z m 1.653646,-1.03714 c 0,-0.14552 -0.119063,-0.26458 -0.264583,-0.26458 -0.145521,0 -0.264584,0.11906 -0.264584,0.26458 0,0.14552 0.119063,0.26459 0.264584,0.26459 0.14552,0 0.264583,-0.11907 0.264583,-0.26459 z m -6.085417,-0.79375 v -1.5875 h 5.688542 5.688542 v 1.5875 1.5875 h -1.867699 c -1.244719,0 -1.810055,-0.0933 -1.694882,-0.27962 0.330997,-0.53556 -0.154519,-1.56556 -0.926031,-1.96452 -0.878731,-0.45441 -1.709698,-0.53382 -1.466387,-0.14014 0.09351,0.1513 -0.01558,0.19354 -0.258823,0.1002 -0.610468,-0.23425 -1.459095,0.65639 -1.459095,1.53134 v 0.75274 h -1.852083 -1.852084 z"
         id="path893" />
      <path
         style="fill:#dfd3b6;stroke-width:0.264583"
         d="m 21.576985,181.568 v -3.57187 h 14.287501 14.2875 v 3.57187 3.57188 h -14.2875 -14.287501 z m 0,-5.55625 v -1.71979 h 1.5875 1.5875 v -2.77812 -2.77813 h 9.128125 9.128126 v -7.54062 -7.54063 H 33.88011 24.751985 v -2.77812 -2.77813 h -1.5875 -1.5875 v -2.37083 -2.37084 l 5.425562,-0.0766 5.425562,-0.0766 0.299101,0.92604 c 1.271991,3.9382 4.804139,7.00025 8.482693,7.35371 l 1.269166,0.12195 -5.29e-4,-4.20085 -5.29e-4,-4.20085 3.836868,0.0797 3.836871,0.0797 v 4.61662 4.61661 h -1.058333 -1.058334 v 8.06979 8.06979 l 1.12448,0.0188 1.124479,0.0188 -1.5875,0.46028 c -2.454728,0.71173 -3.468651,1.29926 -4.849397,2.81001 -0.914728,1.00086 -1.436497,1.88901 -1.850311,3.14957 -0.316748,0.96562 -0.576098,1.93175 -0.576098,2.14698 0,0.33841 -1.341429,0.39132 -9.921876,0.39132 h -9.921875 z m 20.108334,1.32848 c 0,-0.21523 0.262408,-1.19749 0.583128,-2.18281 0.823148,-2.52888 2.78053,-4.48626 5.309407,-5.30941 3.037653,-0.98875 2.838715,-1.24456 2.838715,3.6502 v 4.23334 h -4.365625 c -3.676618,0 -4.365625,-0.0618 -4.365625,-0.39132 z m -20.108334,-5.95868 v -2.64584 h 1.455209 1.455208 v 2.64584 2.64583 h -1.455208 -1.455209 z m 0,-10.18646 v -7.27604 H 24.792993 28.009 l -0.504028,0.55838 c -0.42758,0.47369 -0.517003,0.49376 -0.589574,0.13229 -0.07098,-0.35352 -0.487799,-0.42609 -2.447396,-0.42609 h -2.36185 v 3.30729 3.30729 h 1.984375 c 1.5875,0 1.984375,0.0794 1.984375,0.39688 0,0.3175 -0.396875,0.39687 -1.984375,0.39687 h -1.984375 v 3.30729 3.3073 h 2.36185 c 1.959597,0 2.376419,-0.0726 2.447396,-0.4261 0.07257,-0.36146 0.161994,-0.34139 0.589574,0.1323 l 0.504028,0.55838 h -3.216007 -3.216008 z m 26.722917,-0.52917 v -7.80521 h 0.926042 0.926042 l -0.03043,3.90261 c -0.02183,2.80129 -0.0922,3.60394 -0.249336,2.84427 -0.120398,-0.58208 -0.225769,-1.55461 -0.234156,-2.16117 -0.01794,-1.29733 -0.240927,-1.99515 -0.572138,-1.79045 -0.309414,0.19123 -0.309414,9.82867 0,10.0199 0.31962,0.19754 0.553638,-0.48069 0.572138,-1.65815 0.0084,-0.5338 0.113758,-1.4468 0.234156,-2.02888 0.158538,-0.76648 0.227301,-0.0186 0.249336,2.71198 l 0.03043,3.77031 h -0.926042 -0.926042 z m -20.157716,6.68073 c -0.0729,-0.7561 -0.186698,-0.8699 -0.942805,-0.9428 l -0.859896,-0.0829 v -5.12585 -5.12585 l 0.859896,-0.0829 c 0.756107,-0.0729 0.869903,-0.1867 0.942805,-0.9428 l 0.08291,-0.8599 h 7.126986 7.126987 v 7.01146 7.01146 h -7.126987 -7.126986 z m -5.771451,-2.4474 v -3.0427 h 1.852084 1.852083 v 2.36563 c 0,1.3011 0.119063,2.43922 0.264583,2.52916 0.145521,0.0899 0.264584,0.39462 0.264584,0.67707 0,0.46555 -0.197842,0.51355 -2.116667,0.51355 h -2.116667 z m 4.7625,2.38125 -0.621407,-0.66145 h 0.707579 c 0.578361,0 0.707578,0.12079 0.707578,0.66145 0,0.36381 -0.03878,0.66146 -0.08617,0.66146 -0.04739,0 -0.365804,-0.29765 -0.707579,-0.66146 z m -4.7625,-9.78958 v -3.04271 h 2.116667 c 1.918825,0 2.116667,0.048 2.116667,0.51355 0,0.28246 -0.119063,0.58714 -0.264584,0.67708 -0.14552,0.0899 -0.264583,1.22806 -0.264583,2.52916 v 2.36563 h -1.852083 -1.852084 z m 4.7625,-2.38125 c 0.341775,-0.3638 0.660185,-0.66146 0.707579,-0.66146 0.04739,0 0.08617,0.29766 0.08617,0.66146 0,0.54066 -0.129217,0.66146 -0.707578,0.66146 h -0.707579 z m -5.55625,-4.10104 v -2.64583 h 1.455209 1.455208 v 2.64583 2.64583 h -1.455208 -1.455209 z m 17.977201,-0.11919 c -3.488149,-1.28506 -5.661605,-3.61956 -6.724725,-7.223 l -0.175635,-0.59531 h 4.78033 4.78033 v 4.10104 4.10104 l -0.859896,-0.0187 c -0.472943,-0.0103 -1.283125,-0.17456 -1.800404,-0.36513 z"
         id="path891" />
      <path
         style="fill:#cbcbcb;stroke-width:0.264583"
         d="m 51.739486,246.55783 v -7.10913 l 0.992187,-0.164 c 1.279329,-0.21146 8.164992,-0.16255 11.575521,0.0822 2.405116,0.17262 2.483348,0.19386 0.859896,0.23351 -1.391727,0.034 -1.785938,0.13122 -1.785938,0.44049 0,0.21828 0.178594,0.39688 0.396875,0.39688 0.454827,0 0.530392,0.41541 0.121529,0.66811 -0.15144,0.0936 -0.197739,0.41468 -0.102889,0.71353 0.149741,0.47179 0.08145,0.52597 -0.518403,0.4113 -0.977249,-0.18681 -0.85898,0.21332 0.169034,0.57188 0.685872,0.23922 0.779577,0.35033 0.463021,0.549 -0.218281,0.13701 -0.605234,0.18426 -0.859896,0.10501 -0.254661,-0.0792 -0.463021,-0.0193 -0.463021,0.13329 0,0.15256 0.288407,0.34976 0.640901,0.43823 0.512124,0.12854 0.622112,0.30233 0.547396,0.86494 -0.05143,0.38724 -0.115805,0.76361 -0.143065,0.83637 -0.02726,0.0728 -0.03334,0.22797 -0.01349,0.3449 0.01984,0.11694 -0.144664,0.39334 -0.365543,0.61422 -0.543764,0.54376 -0.505021,0.82448 0.142131,1.02988 0.74767,0.2373 0.479899,0.79989 -0.35325,0.74218 -1.127575,-0.0781 -1.084948,0.63819 0.08181,1.37473 0.859078,0.54231 1.050623,0.81408 1.050623,1.49064 0,0.48235 -0.192918,0.96847 -0.462605,1.16567 -0.686017,0.50163 -0.312032,0.67254 1.490495,0.68116 0.889868,0.004 1.617943,0.11718 1.617943,0.25093 -10e-6,0.14218 -3.132166,0.24319 -7.540635,0.24319 h -7.540625 z m 12.242014,6.13203 c 0.257432,-0.0671 0.614619,-0.0627 0.79375,0.01 0.179131,0.0725 -0.03149,0.12737 -0.468056,0.12197 -0.436562,-0.005 -0.583126,-0.0647 -0.325694,-0.13177 z m 1.852083,0 c 0.257432,-0.0671 0.614619,-0.0627 0.79375,0.01 0.179131,0.0725 -0.03149,0.12737 -0.468056,0.12197 -0.436562,-0.005 -0.583125,-0.0647 -0.325694,-0.13177 z m -1.394097,-1.28747 c 0,-0.5604 0.107124,-0.87545 0.264583,-0.77814 0.145521,0.0899 0.264583,0.51369 0.264583,0.94166 0,0.42797 -0.119062,0.77813 -0.264583,0.77813 -0.145521,0 -0.264583,-0.42374 -0.264583,-0.94165 z m 1.119716,0.1479 c 0,-0.50932 0.05445,-0.71768 0.121002,-0.46302 0.06655,0.25467 0.06655,0.67138 0,0.92605 -0.06655,0.25466 -0.121002,0.0463 -0.121002,-0.46303 z m 0.732367,-0.13229 c 0,-0.50932 0.119063,-0.92604 0.264583,-0.92604 0.145521,0 0.264584,0.41672 0.264584,0.92604 0,0.50933 -0.119063,0.92604 -0.264584,0.92604 -0.14552,0 -0.264583,-0.41671 -0.264583,-0.92604 z m 0.132292,-3.30729 c -0.08994,-0.14552 -0.03743,-0.26458 0.116676,-0.26458 0.154109,0 0.280199,0.11906 0.280199,0.26458 0,0.14552 -0.0525,0.26459 -0.116676,0.26459 -0.06417,0 -0.190262,-0.11907 -0.280199,-0.26459 z m 0,-5.02708 c 0.08994,-0.14552 0.216027,-0.26458 0.280199,-0.26458 0.06417,0 0.116676,0.11906 0.116676,0.26458 0,0.14552 -0.12609,0.26458 -0.280199,0.26458 -0.154109,0 -0.206613,-0.11906 -0.116676,-0.26458 z m -0.926042,-1.5875 c 0,-0.14552 0.112035,-0.26458 0.248968,-0.26458 0.136932,0 0.322553,0.11906 0.41249,0.26458 0.08994,0.14552 -0.02209,0.26458 -0.248967,0.26458 -0.22687,0 -0.412491,-0.11906 -0.412491,-0.26458 z m 0.934302,-0.34214 c -0.113257,-0.26094 -0.131683,-0.54867 -0.04095,-0.63941 0.268682,-0.26868 0.48527,0.10873 0.361606,0.63011 -0.10963,0.46221 -0.123894,0.46263 -0.320659,0.009 z m -1.992635,-0.45161 c 0,-0.14552 0.119062,-0.26458 0.264583,-0.26458 0.145521,0 0.264583,0.11906 0.264583,0.26458 0,0.14552 -0.119062,0.26458 -0.264583,0.26458 -0.145521,0 -0.264583,-0.11906 -0.264583,-0.26458 z M 63.9815,239.98986 c 0.257432,-0.0671 0.614619,-0.0627 0.79375,0.01 0.179131,0.0725 -0.03149,0.12737 -0.468056,0.12197 -0.436562,-0.005 -0.583126,-0.0647 -0.325694,-0.13177 z m 1.852083,0 c 0.257432,-0.0671 0.614619,-0.0627 0.79375,0.01 0.179131,0.0725 -0.03149,0.12737 -0.468056,0.12197 -0.436562,-0.005 -0.583125,-0.0647 -0.325694,-0.13177 z"
         id="path889" />
      <path
         style="fill:#e7b1b1;fill-opacity:0.546185;stroke-width:0.264583"
         d="m 51.739486,204.88542 v -4.59612 l 1.277043,-0.1694 c 3.649893,-0.48418 6.816929,-3.65435 7.406465,-7.41379 l 0.232217,-1.48081 h -4.460735 -4.460734 l 0.06902,-11.17865 0.06902,-11.17865 0.992188,-0.0821 0.992187,-0.0821 v -8.05382 -8.05382 h -1.058333 -1.058333 v -4.6019 c 0,-3.81325 0.06693,-4.62758 0.390527,-4.75176 0.333,-0.12778 0.401204,0.50138 0.463021,4.27117 l 0.07249,4.42103 0.926042,-0.0797 c 4.050284,-0.34844 7.69915,-3.28937 8.987756,-7.24399 l 0.458663,-1.4076 5.066374,-0.0719 5.066374,-0.0719 v 4.35471 4.3547 l -0.992188,-0.13816 c -4.286639,-0.59694 -7.379343,-3.21901 -8.691874,-7.36919 -0.184087,-0.58209 -0.341509,-0.82021 -0.349822,-0.52917 -0.02122,0.74334 1.151639,3.17278 2.125125,4.40191 1.530364,1.93224 4.25477,3.41287 6.916571,3.75894 l 1.256771,0.1634 -1.85e-4,-4.42671 -1.85e-4,-4.42671 6.879352,0.0747 6.879352,0.0747 v 3.16003 3.16003 l -4.431771,0.0725 -4.431771,0.0725 -0.01288,5.29166 -0.01289,5.29167 0.145175,-4.36563 0.145171,-4.36562 h 2.778125 2.778125 l 0.07254,4.43177 0.07254,4.43177 H 81.241545 78.18707 l 0.07152,5.4901 0.07151,5.49011 4.431771,0.0725 4.431771,0.0726 v 6.74047 6.74048 h -3.175 -3.175 v 8.99583 8.99584 h -9.260417 -9.260417 v 3.175 3.175 h -5.291667 -5.291666 v -4.59613 z m 23.8125,-19.66492 c 0,-1.84908 0.06528,-2.10418 0.710959,-2.77812 0.66017,-0.68907 0.858639,-0.74208 2.778125,-0.74208 h 2.067166 v -2.24896 -2.24896 H 79.12013 c -1.906135,0 -2.020355,-0.0354 -2.770367,-0.8599 -0.723374,-0.79516 -0.782849,-1.01426 -0.790022,-2.91041 l -0.0078,-2.05052 h -2.248958 -2.248959 v 2.03792 c 0,1.93378 -0.04321,2.08251 -0.845653,2.91042 -0.814311,0.84015 -0.922176,0.87249 -2.910417,0.87249 h -2.064763 v 2.24896 2.24896 h 2.096315 c 1.988105,0 2.138336,0.042 2.910416,0.8141 0.762852,0.76285 0.814102,0.93774 0.814102,2.77812 v 1.96403 h 2.248959 2.248958 z m -2.971824,1.57971 c 0.475549,-0.0589 1.189924,-0.0577 1.5875,0.003 0.397576,0.0604 0.0085,0.10855 -0.864634,0.10707 -0.873126,-0.002 -1.198415,-0.0509 -0.722866,-0.10977 z m -1.26151,-1.88816 v -1.55074 l 1.04044,0.27771 c 0.737135,0.19675 1.315609,0.19326 1.984375,-0.012 l 0.943936,-0.28971 v 1.56273 1.56274 h -1.984375 -1.984376 z m 0.595313,-1.6325 c -0.327422,-0.13161 -0.595313,-0.42171 -0.595313,-0.64469 0,-0.32811 0.378328,-0.4054 1.984376,-0.4054 1.601816,0 1.984375,0.0778 1.984375,0.40343 0,0.77108 -2.074543,1.16875 -3.373438,0.64666 z m -1.600729,-0.83842 c -0.43212,-0.43212 -0.399042,-0.74083 0.07937,-0.74083 0.321394,0 0.396875,-0.42423 0.396875,-2.23056 0,-2.06028 -0.04228,-2.23701 -0.553776,-2.3151 -0.535477,-0.0818 -0.531108,-0.10574 0.132292,-0.72598 0.68412,-0.63962 0.686067,-0.63981 0.686067,-0.0662 0,0.54554 0.11629,0.57529 2.248959,0.57529 2.126485,0 2.248958,-0.0311 2.248958,-0.57018 0,-0.55341 0.01556,-0.55609 0.529167,-0.0913 0.628814,0.56907 0.679812,0.92604 0.132291,0.92604 -0.609333,0 -0.580906,4.42217 0.02922,4.54466 0.361463,0.0726 0.341397,0.162 -0.132292,0.58958 -0.492937,0.44495 -0.558384,0.4527 -0.558384,0.0661 0,-0.37311 -0.332669,-0.43788 -2.248958,-0.43788 -1.822686,0 -2.248959,0.0752 -2.248959,0.39687 0,0.47842 -0.308713,0.5115 -0.740833,0.0794 z m -4.28625,-2.98979 v -1.98438 h 1.521354 1.521354 v 1.98438 1.98437 H 67.54834 66.026986 Z m 3.335599,1.56586 c -0.08833,-0.23018 -0.160599,-0.93482 -0.160599,-1.56586 0,-1.4881 0.205589,-1.98438 0.822058,-1.98438 0.446902,0 0.500858,0.21378 0.500858,1.98438 0,1.7706 -0.05396,1.98437 -0.500858,1.98437 -0.275474,0 -0.57313,-0.18833 -0.661459,-0.41851 z m 6.718568,-1.56586 c 0,-1.56632 0.08165,-1.98438 0.387566,-1.98438 0.213162,0 0.510818,0.2303 0.661459,0.51178 0.578667,1.08125 0.134993,3.45697 -0.645602,3.45697 -0.325649,0 -0.403423,-0.38256 -0.403423,-1.98437 z m 1.329465,1.30569 c 0.335975,-0.88368 0.32884,-2.13422 -0.01585,-2.77829 -0.256728,-0.4797 -0.173815,-0.51178 1.322917,-0.51178 h 1.596808 v 1.98438 1.98437 H 78.733541 77.15259 l 0.258035,-0.67868 z m -11.830812,-1.30569 c 0.0016,-0.87313 0.05088,-1.19842 0.109765,-0.72287 0.05889,0.47555 0.05767,1.18993 -0.0027,1.5875 -0.06037,0.39758 -0.108551,0.008 -0.107066,-0.86463 z m 15.08125,0 c 0.0016,-0.87313 0.05088,-1.19842 0.109765,-0.72287 0.05889,0.47555 0.05767,1.18993 -0.0027,1.5875 -0.06037,0.39758 -0.108551,0.008 -0.107066,-0.86463 z m -9.342404,-3.27899 c 0,-0.61646 0.496277,-0.82205 1.984376,-0.82205 1.488098,0 1.984375,0.20559 1.984375,0.82205 0,0.44691 -0.213773,0.50086 -1.984375,0.50086 -1.770603,0 -1.984376,-0.054 -1.984376,-0.50086 z m 0,-2.4757 v -1.52135 h 1.984376 1.984375 v 1.52135 1.52135 h -1.984375 -1.984376 z m 1.26151,-1.97769 c 0.475549,-0.0589 1.189924,-0.0577 1.5875,0.003 0.397576,0.0604 0.0085,0.10855 -0.864634,0.10707 -0.873126,-0.002 -1.198415,-0.0509 -0.722866,-0.10977 z m 2.178074,-11.31762 v -4.36563 h -2.778125 -2.778125 v 4.36563 4.36562 h 2.778125 2.778125 z m -5.291667,0 v -4.10104 h 2.513542 2.513542 v 4.10104 4.10104 h -2.513542 -2.513542 z m -6.879167,46.0375 v -3.04271 h 3.175 3.175 v 3.04271 3.04271 h -3.175 -3.175 z m 6.614584,1.45521 v -1.32292 h 1.984375 1.984375 l 0.03483,0.85989 0.03483,0.8599 0.207415,-0.92604 c 0.201274,-0.89862 0.206232,-0.89079 0.1675,0.26458 l -0.03991,1.19063 1.451313,0.15531 c 0.962221,0.10297 0.225298,0.16984 -2.186704,0.19844 l -3.638021,0.0431 z m 8.856824,1.12601 c 1.62348,-0.12523 1.991093,-0.41238 1.991093,-1.55528 v -0.89365 h 1.962327 c 1.322297,0 2.005851,0.10787 2.095778,0.33073 0.106762,0.26458 0.137628,0.26458 0.154339,0 0.01148,-0.1819 0.318545,-0.33073 0.682347,-0.33073 0.617361,0 0.661459,0.0882 0.661459,1.32292 v 1.32291 l -4.431771,-0.0477 c -2.437474,-0.0262 -3.839483,-0.0934 -3.115572,-0.14921 z m -3.763595,-0.52177 c 0.400182,-0.0606 1.055026,-0.0606 1.455208,0 0.400183,0.0606 0.07276,0.11022 -0.727604,0.11022 -0.800364,0 -1.127786,-0.0496 -0.727604,-0.11022 z m 3.178638,-2.7e-4 c 0.402183,-0.0608 0.997495,-0.0592 1.322917,0.004 0.325421,0.0628 -0.0036,0.11256 -0.731242,0.11058 -0.727605,-0.002 -0.993857,-0.0534 -0.591675,-0.11419 z m 2.113606,-1.00085 c 0.0029,-0.58208 0.05712,-0.78905 0.120406,-0.45993 0.06329,0.32911 0.06088,0.80536 -0.0053,1.05833 -0.06622,0.25296 -0.118005,-0.0163 -0.115068,-0.5984 z m -5.622973,-0.13229 v -0.79375 h 2.645833 2.645834 v 0.79375 c 0,0.76747 -0.0405,0.79375 -1.223021,0.79375 -1.040781,0 -1.175377,-0.0574 -0.903264,-0.38529 0.40644,-0.48973 0.137094,-0.93763 -0.563848,-0.93763 -0.446265,0 -0.51285,0.11707 -0.376219,0.66146 0.158739,0.63247 0.113609,0.66146 -1.02965,0.66146 -1.152128,0 -1.195665,-0.0289 -1.195665,-0.79375 z m -4.7625,-2.51354 v -1.45521 h 1.984375 1.984375 v 1.45521 1.45521 h -1.984375 -1.984375 z m 4.264025,0.19843 c -0.01688,-0.76398 0.06446,-1.38906 0.180763,-1.38906 0.1163,0 0.168968,0.44649 0.117041,0.99219 -0.161919,1.70157 -0.265914,1.84016 -0.297804,0.39687 z m 0.498475,0.21406 c 0,-0.5735 0.09951,-1.10422 0.221128,-1.17939 0.121621,-0.0752 1.49084,-0.15525 3.042708,-0.17797 1.551869,-0.0227 2.821581,-0.13296 2.821581,-0.24497 0,-0.11201 0.238125,-0.26592 0.529166,-0.34203 0.515919,-0.13492 0.529167,-0.3609 0.529167,-9.0267 v -8.88831 h 1.455208 1.455209 v 4.10104 4.10105 h -1.322917 -1.322917 v 3.30729 3.30729 h 1.322917 1.322917 v 3.04271 3.04271 H 82.049491 80.08033 l -0.10128,-1.12448 -0.101283,-1.12448 -0.08779,1.19062 -0.08779,1.19063 -0.181448,-1.32292 -0.181449,-1.32292 -0.04157,1.25677 -0.04157,1.25678 h -2.645834 -2.645833 z m 10.31875,-1.99999 v -3.04271 h 1.322917 1.322916 v -3.30729 -3.30729 h -1.322916 -1.322917 v -4.10105 -4.10104 h 1.455208 1.455209 v 9.26042 9.26042 h -0.79375 c -0.764353,0 -0.79375,0.0441 -0.79375,1.19062 0,1.09361 -0.0539,1.19063 -0.661459,1.19063 h -0.661458 z m -32.54375,-7.50467 v -4.26929 h 4.270187 4.270187 l -0.154535,1.30482 c -0.413197,3.4888 -3.525671,6.57231 -7.129069,7.06273 l -1.25677,0.17104 z m 29.897917,1.15467 v -3.04271 h 1.190625 1.190625 v 3.04271 3.04271 h -1.190625 -1.190625 z m 2.645833,0 v -3.04271 h 1.190625 1.190625 v 3.04271 3.04271 h -1.190625 -1.190625 z m -5.820833,-26.19375 v -0.66146 h 4.365625 4.365625 v 0.66146 0.66146 h -4.365625 -4.365625 z m 0.05975,-5.35781 0.07254,-4.43178 2.844271,-0.0751 2.844271,-0.0751 v 4.50687 4.50687 h -2.916814 -2.916815 z m 6.085488,0.006 c 0.05323,-3.22723 0.160303,-4.4234 0.403201,-4.50417 0.254095,-0.0845 0.343686,0.89138 0.386641,4.21155 l 0.05591,4.32153 0.142526,-4.23333 c 0.134987,-4.00944 0.170513,-4.23334 0.671692,-4.23334 0.507786,0 0.529167,0.17639 0.529167,4.36563 v 4.36562 l -1.130806,0.0503 -1.130805,0.0503 z m -32.868153,-0.6013 c 0,-3.71784 0.333531,-4.91008 0.64766,-2.3151 0.333962,2.75882 0.461227,3.37344 0.698513,3.37344 0.137128,0 0.241327,-2.22765 0.241327,-5.15938 0,-6.29791 -0.358275,-6.92235 -0.948794,-1.65364 -0.310411,2.76955 -0.638706,1.57958 -0.638706,-2.31511 v -3.83646 h 0.926041 0.926042 v 7.80521 7.80521 h -0.926042 -0.926041 z m 32.808333,-8.43427 c 0,-3.41138 0.07459,-4.26284 0.396875,-4.53031 0.349748,-0.29026 0.403895,0.20073 0.455991,4.13479 l 0.05912,4.46417 0.07961,-4.27364 c 0.06679,-3.58571 0.146299,-4.29923 0.493927,-4.43263 0.227875,-0.0874 0.522639,-0.0921 0.655026,-0.0102 0.13239,0.0818 0.240707,2.10627 0.240707,4.49878 v 4.35002 h -1.190625 -1.190625 z m -31.75,-8.89089 v -4.37067 h 4.894792 c 3.740232,0 4.894442,0.078 4.893315,0.33073 -0.0084,1.87944 -2.084943,5.07276 -4.230362,6.50541 -1.366277,0.91237 -2.227024,1.22164 -4.962433,1.78302 l -0.595312,0.12217 z m 25.712328,3.2361 c 0.08322,-0.58599 0.151892,-0.59645 4.384026,-0.66801 l 4.29948,-0.0727 v 0.66801 0.66801 h -4.384027 -4.384027 z"
         id="path887" />
      <path
         style="fill:#b1caca;fill-opacity:0.815261;stroke-width:0.264583"
         d="m 21.576985,253.0055 c 0,-0.63206 0.07056,-0.66146 1.5875,-0.66146 h 1.5875 v -2.64583 -2.64583 h 9.128125 9.128126 v -8.73125 -8.73125 H 33.88011 24.751985 v -2.77813 -2.77812 h -1.5875 -1.5875 v -2.91042 -2.91041 h 14.287501 c 12.52361,0 14.2875,0.049 14.2875,0.39687 0,0.33628 -0.647682,0.39688 -4.241636,0.39688 -3.508579,0 -4.267714,0.0679 -4.392518,0.39318 -0.08298,0.21625 0.100114,1.21953 0.406885,2.2295 0.955249,3.14495 3.937669,5.77625 7.102789,6.26658 l 1.12448,0.1742 v 12.79848 12.79847 h -14.2875 -14.287501 z m 0,-3.43958 v -2.51354 h 1.455209 1.455208 v 2.51354 2.51354 h -1.455208 -1.455209 z m 0,-11.20296 v -8.5085 H 24.792993 28.009 l -0.487924,0.53915 c -0.423424,0.46788 -0.518022,0.48537 -0.715612,0.13229 -0.176858,-0.31602 -0.726833,-0.40685 -2.463501,-0.40685 h -2.235811 v 3.83645 3.83646 h 1.984375 c 1.807986,0 1.984375,0.047 1.984375,0.52917 0,0.48213 -0.176389,0.52917 -1.984375,0.52917 h -1.984375 v 3.70416 3.70417 h 2.38125 c 2.050462,0 2.38125,-0.0615 2.38125,-0.443 0,-0.36325 0.122632,-0.32779 0.68129,0.19705 l 0.68129,0.64003 -0.08598,-1.05693 c -0.07956,-0.97803 -0.150176,-1.06313 -0.945874,-1.13985 l -0.859896,-0.0829 v -6.20095 -6.20094 h 0.926042 c 0.881944,0 0.926042,-0.0441 0.926042,-0.92604 v -0.92604 h 7.14375 7.14375 v 8.20208 8.20208 l -5.490104,8e-4 c -3.019558,5.2e-4 -7.722526,0.0788 -10.451042,0.17412 l -4.960938,0.17333 z m 0.79375,4.1915 v -3.43958 h 1.852084 1.852083 v 2.76251 c 0,1.55627 0.115529,2.83391 0.264583,2.92603 0.145521,0.0899 0.264584,0.39462 0.264584,0.67707 0,0.46555 -0.197842,0.51356 -2.116667,0.51356 h -2.116667 z m 4.7625,2.77813 -0.621407,-0.66146 h 0.707579 c 0.578361,0 0.707578,0.12079 0.707578,0.66146 0,0.3638 -0.03878,0.66146 -0.08617,0.66146 -0.04739,0 -0.365804,-0.29766 -0.707579,-0.66146 z m -4.7625,-11.37709 v -3.57187 h 2.116667 c 1.918825,0 2.116667,0.048 2.116667,0.51355 0,0.28245 -0.119063,0.58714 -0.264584,0.67707 -0.150303,0.0929 -0.264583,1.41386 -0.264583,3.05833 v 2.8948 h -1.852083 -1.852084 z m 4.7625,-2.91041 c 0.341775,-0.36381 0.660185,-0.66146 0.707579,-0.66146 0.04739,0 0.08617,0.29765 0.08617,0.66146 0,0.54066 -0.129217,0.66146 -0.707578,0.66146 h -0.707579 z m -5.55625,-4.10104 v -2.64584 h 1.455209 1.455208 v 2.64584 2.64583 h -1.455208 -1.455209 z m 26.279523,0.41288 c -2.689283,-0.84089 -4.818557,-2.96848 -5.64337,-5.63891 -0.2903,-0.93989 -0.527819,-1.87493 -0.527819,-2.07789 0,-0.3007 0.808003,-0.369 4.365625,-0.369 h 4.365625 v 4.23333 4.23334 l -0.727604,-0.0177 c -0.400182,-0.01 -1.224788,-0.17315 -1.832457,-0.36316 z M 21.576985,214.9055 v -3.0427 h 14.287501 14.2875 v 3.0427 3.04271 h -14.2875 -14.287501 z"
         id="path885" />
      <path
         style="fill:#dde01b;fill-opacity:0.220884;stroke-width:0.264583"
         d="m 51.748876,223.63675 0.0067,-14.1552 h 5.259126 5.259123 l 0.09063,1.45556 0.09063,1.45557 -3.89599,-2.6e-4 -3.895989,-2.6e-4 0.144864,0.85989 c 0.288044,1.70977 1.003456,3.23266 2.054045,4.37241 1.228352,1.33261 2.516069,2.06077 4.333687,2.45058 l 1.271641,0.27272 -0.100066,1.04928 -0.100065,1.04928 h 1.747581 1.747583 v 7.67292 7.67292 H 63.910293 62.05821 v -0.78383 c 0,-1.33463 -1.03309,-3.62878 -2.237161,-4.968 -1.424612,-1.58451 -3.278849,-2.61821 -5.251371,-2.92753 l -1.507302,-0.23656 v 4.45786 4.45786 h -0.660125 -0.660124 l 0.0067,-14.15521 z m 1.57811,9.88502 v -4.27018 l 1.33242,0.1578 c 1.72978,0.20487 3.754366,1.32174 5.036646,2.77849 1.096518,1.24571 2.0976,3.54618 2.0976,4.82026 v 0.78382 h -4.233333 -4.233333 z m 12.7,-3.53502 v -7.54062 h 4.101041 4.101042 v 7.54062 7.54063 h -4.101042 -4.101041 z m 10.583333,-0.52916 v -1.19063 h 5.151073 c 4.695716,0 5.136134,0.0389 4.98212,0.44028 -0.126701,0.33018 -0.075,0.38364 0.20674,0.2138 0.320315,-0.1931 0.322339,-0.16071 0.01373,0.21977 -0.199078,0.24543 -0.299522,0.68501 -0.223208,0.97683 0.135355,0.51758 0.01304,0.53057 -4.995852,0.53057 h -5.134605 z m 0,-2.64584 v -1.19062 h 5.151073 c 4.695716,0 5.136134,0.0389 4.98212,0.44028 -0.122674,0.31968 -0.07297,0.38095 0.181475,0.2237 0.255817,-0.1581 0.287882,-0.11625 0.118763,0.15503 -0.373202,0.59866 -0.422719,1.35574 -0.0746,1.14059 0.190037,-0.11745 0.234617,-0.0733 0.117475,0.11618 -0.132226,0.21395 -1.729848,0.30547 -5.332547,0.30547 h -5.14376 z m 0,-2.64583 v -1.19062 h 5.112824 5.112822 l -0.063,0.85989 c -0.03465,0.47294 -0.07324,1.00873 -0.08574,1.19063 -0.01734,0.25218 -1.216668,0.33073 -5.049819,0.33073 h -5.027084 z m 0.05887,-1.86708 c -0.323422,-0.22654 -0.580494,-0.61349 -0.571268,-0.8599 0.01167,-0.31151 0.09295,-0.2578 0.266767,0.17624 0.237154,0.5922 0.506425,0.37816 5.242546,-4.16718 2.745904,-2.6353 5.062903,-4.79145 5.148887,-4.79145 0.08599,0 0.08031,0.19812 -0.01262,0.44027 -0.122674,0.31969 -0.07297,0.38096 0.181475,0.22371 0.255818,-0.15811 0.287882,-0.11625 0.118763,0.15503 -0.373202,0.59865 -0.422719,1.35574 -0.0746,1.14059 0.209958,-0.12976 0.233415,-0.0724 0.0746,0.18233 -0.390326,0.62612 -0.422113,1.35465 -0.04933,1.13068 0.259728,-0.15605 0.263374,-0.11488 0.01683,0.19011 -0.38117,0.47155 -0.382307,2.14672 -0.0013,1.91124 0.167611,-0.10358 0.180035,-0.0271 0.03371,0.20755 -0.375973,0.60289 -0.402791,3.98819 -0.02982,3.76451 0.177107,-0.10622 0.155038,0.006 -0.05102,0.26048 -0.316256,0.38988 -0.966081,0.44766 -5.034359,0.44766 -3.79961,0 -4.780955,-0.0769 -5.259269,-0.41187 z m 5.497377,-1.69083 c 2.546615,-1.00948 4.511146,-1.84169 4.365625,-1.84937 -0.145521,-0.008 -2.348177,0.81197 -4.894791,1.82144 -2.546615,1.00948 -4.511146,1.84169 -4.365625,1.84937 0.14552,0.008 2.348177,-0.81197 4.894791,-1.82144 z m -5.554969,1.1381 c 7.94e-4,-0.12431 0.763569,-2.18384 1.695254,-4.57673 1.2989,-3.33602 1.827078,-4.39995 2.264677,-4.56182 0.323303,-0.1196 0.492144,-0.33823 0.389483,-0.50434 -0.110093,-0.17813 0.06497,-0.15742 0.446021,0.0528 0.686827,0.37886 2.94427,0.56015 2.733762,0.21954 -0.07193,-0.11637 -0.0098,-0.28638 0.138124,-0.37779 0.147894,-0.0914 0.268898,0.0194 0.268898,0.2463 0,0.56929 0.996321,0.52417 1.11578,-0.0505 0.07898,-0.37996 0.125061,-0.35783 0.256879,0.12337 0.135802,0.49574 -0.57135,1.2873 -4.574763,5.12081 -2.604468,2.49394 -4.734819,4.43273 -4.734115,4.30841 z m -12.701281,-1.28436 c 0,-0.22048 -0.235185,-0.39687 -0.529167,-0.39687 -0.503967,0 -0.529166,-0.17639 -0.529166,-3.70417 0,-3.52777 0.02519,-3.70416 0.529166,-3.70416 0.291042,0 0.53099,-0.14883 0.533218,-0.33073 0.0027,-0.22049 0.08955,-0.19844 0.260532,0.0661 0.213352,0.33014 0.26029,0.3079 0.279128,-0.13229 l 0.02265,-0.52917 0.227391,0.52917 c 0.125066,0.29104 0.23576,2.34487 0.245986,4.56406 0.01781,3.86471 -0.0037,4.0349 -0.510569,4.0349 -0.293981,0 -0.529167,-0.17639 -0.529167,-0.39688 z m 1.322917,-4.05694 c 0,-3.76139 0.06105,-4.45382 0.392673,-4.45382 0.274915,0 0.313833,0.095 0.129778,0.31677 -0.19196,0.2313 -0.101586,0.30575 0.334928,0.27592 0.328806,-0.0225 0.571757,-0.17379 0.539888,-0.33626 -0.06549,-0.33391 0.595617,-0.30274 0.91018,0.0429 0.113353,0.12456 0.06549,0.14591 -0.106352,0.0474 -0.171847,-0.0985 -0.387234,-0.058 -0.478637,0.0899 -0.09202,0.14888 0.07695,0.2689 0.378593,0.2689 0.526555,0 0.544782,0.1372 0.544782,4.10104 v 4.10104 h -1.322917 -1.322916 z m 2.910416,0.35278 c 0,-3.10229 0.08055,-4.10203 0.33073,-4.1051 0.220485,-0.003 0.198437,-0.0895 -0.06615,-0.26053 -0.218281,-0.14106 -0.267891,-0.2583 -0.110244,-0.26053 0.157649,-0.002 0.369075,0.0784 0.469839,0.17916 0.259575,0.25957 1.240144,0.38267 1.161177,0.14577 -0.03606,-0.10818 0.0535,-0.25622 0.199019,-0.32898 0.169575,-0.0848 0.293646,1.45909 0.345515,4.29948 l 0.08093,4.43177 h -1.20541 -1.20541 z m 2.645834,0 c 0,-2.71 0.09504,-4.10104 0.280199,-4.10104 0.154109,0 0.211698,-0.11084 0.127976,-0.2463 -0.08373,-0.13547 -0.03122,-0.32109 0.116676,-0.4125 0.147894,-0.0914 0.268899,0.0194 0.268899,0.2463 0,0.58397 1.05343,0.53454 1.076931,-0.0505 0.0159,-0.39593 0.05154,-0.38634 0.245985,0.0661 0.125066,0.29104 0.23576,2.34487 0.245986,4.56406 l 0.0186,4.0349 H 71.98011 70.789485 Z m 2.645833,-0.14791 c 0,-2.76526 0.09239,-4.19185 0.264584,-4.08543 0.14552,0.0899 0.264583,0.003 0.264583,-0.19227 0,-0.19568 0.246126,-0.35579 0.546944,-0.35579 0.520523,0 0.523719,0.0174 0.06615,0.3607 -0.359299,0.26955 -0.380508,0.34759 -0.08392,0.30883 1.35423,-0.177 1.322916,-0.27432 1.322916,4.11187 v 4.10104 h -1.190625 -1.190625 z m 2.645834,0.022 c 0,-3.06629 0.08297,-4.21972 0.294163,-4.08919 0.161793,0.1 0.398092,0.0177 0.525116,-0.18283 0.191392,-0.30217 0.234831,-0.29664 0.253598,0.0323 0.01527,0.26736 0.09686,0.22419 0.250039,-0.13229 0.194442,-0.4525 0.230085,-0.46208 0.245986,-0.0661 0.02148,0.53481 0.547764,0.64073 0.547764,0.11025 0,-0.19403 0.176705,-0.35278 0.392674,-0.35278 0.274915,0 0.313833,0.095 0.129778,0.31677 -0.191961,0.2313 -0.101587,0.30575 0.334928,0.27592 0.333587,-0.0228 0.565695,-0.191 0.525126,-0.38054 -0.03998,-0.18682 0.03987,-0.27011 0.177456,-0.18507 0.140923,0.0871 -0.21305,1.33767 -0.810638,2.86394 -0.583438,1.49013 -1.327624,3.41694 -1.653749,4.28181 -1.01006,2.67864 -1.212241,2.263 -1.212241,-2.49208 z m -15.155995,3.14433 c -3.003688,-0.70728 -5.163024,-2.94797 -5.721432,-5.93698 l -0.220922,-1.18252 h 3.8023 3.802298 v 3.70416 c 0,2.80112 -0.08063,3.69769 -0.330729,3.67759 -0.181901,-0.0146 -0.781082,-0.13262 -1.331515,-0.26223 z m 21.886283,-7.588 c 0.09031,-0.0903 0.350253,-0.1915 0.577657,-0.22488 0.227401,-0.0334 0.339571,0.0132 0.249266,0.10352 -0.09031,0.0903 -0.350252,0.1915 -0.577657,0.22487 -0.227401,0.0334 -0.339571,-0.0132 -0.249266,-0.10351 z"
         id="path883" />
      <path
         style="fill:#000001;stroke-width:0.264583"
         d="m 45.714156,264.18415 -0.06009,-5.22552 H 31.101985 16.549902 v -60.45729 c 0,-40.12847 0.08897,-60.45729 0.264583,-60.45729 0.174608,0 0.264584,-8.90764 0.264584,-26.19375 0,-17.286113 0.08998,-26.193752 0.264583,-26.193752 0.166476,0 0.267094,1.790452 0.271355,4.828646 0.0037,2.655755 0.03349,14.413176 0.06615,26.127606 l 0.05937,21.29896 3.902604,0.0732 3.902604,0.0732 v -7.94457 -7.94457 h 27.648959 27.648959 v 7.9375 7.9375 h 4.101041 4.101042 V 111.8503 c 0,-17.286113 0.08998,-26.193752 0.264583,-26.193752 0.166476,0 0.267095,1.790452 0.271354,4.828646 0.0037,2.655755 0.03349,14.413176 0.06615,26.127606 l 0.05938,21.29896 1.256771,0.0806 1.256771,0.0806 v 60.44279 60.4428 h -1.322917 -1.322916 l -0.05767,5.22552 -0.05767,5.22552 -0.149241,-5.29167 c -0.08208,-2.91041 -0.175194,-5.0833 -0.206912,-4.82864 -0.06796,0.54561 -0.851421,0.63311 -0.851421,0.0951 0,-0.22156 -0.358423,-0.40977 -0.900957,-0.47311 -0.852966,-0.0996 -0.917956,-0.0483 -1.220102,0.96324 -1.134054,3.79652 -4.904311,6.99115 -8.391864,7.11064 l -1.261035,0.0432 -0.073,-4.02876 -0.073,-4.02876 -6.881942,-0.003 c -6.299777,-0.002 -6.8951,0.0362 -7.037457,0.45689 -1.352539,3.99689 -4.056586,6.61892 -7.699647,7.46611 -2.21406,0.51487 -2.179738,0.57507 -2.179738,-3.82326 0,-3.24118 -0.0623,-3.84476 -0.396875,-3.84476 -0.218282,0 -0.396875,0.11906 -0.396875,0.26458 0,0.14553 -0.178594,0.26459 -0.396875,0.26459 -0.218282,0 -0.396875,-0.11906 -0.396875,-0.26459 0,-0.15777 -1.012333,-0.26458 -2.50783,-0.26458 H 45.93008 l -0.07792,5.09323 -0.07792,5.09323 z m 9.402469,2.33493 c 3.293821,-0.87683 5.605954,-3.09142 6.819932,-6.5322 l 0.362788,-1.02825 h -1.931479 c -1.062313,0 -3.200157,0.0776 -4.750763,0.1725 l -2.819284,0.1725 v 3.79625 c 0,4.30576 -0.154691,4.07767 2.318806,3.4192 z m 25.630632,-0.65924 c 0.899549,-0.42095 2.140868,-1.28273 2.758488,-1.91506 1.135597,-1.16265 2.289505,-3.28038 2.42398,-4.44865 l 0.0733,-0.63683 -4.145127,-0.0165 c -2.279819,-0.009 -4.234429,-0.10577 -4.343575,-0.21491 -0.109148,-0.10914 -0.386966,-0.19007 -0.617376,-0.17984 -0.308107,0.0137 -0.278945,0.0787 0.110244,0.24598 0.452496,0.19444 0.462079,0.23009 0.06615,0.24599 -0.419759,0.0169 -0.463021,0.39277 -0.463021,4.02331 v 4.00471 l 1.250696,-0.17143 c 0.687882,-0.0943 1.986693,-0.51584 2.886242,-0.93679 z m -18.55673,-7.28792 c 0.145521,-0.0554 -1.908307,-0.11008 -4.564062,-0.12157 -2.655755,-0.0115 -4.828646,0.0695 -4.828646,0.18007 0,0.1962 8.868513,0.14096 9.392708,-0.0585 z m -19.632321,-0.0745 c -1.193402,-0.0489 -3.217465,-0.0492 -4.497917,-5.3e-4 -1.280452,0.0486 -0.304033,0.0886 2.169822,0.0889 2.473854,2.6e-4 3.521498,-0.0395 2.328095,-0.0884 z m 2.927609,-1.56008 c 0.09254,-0.67516 0.168254,-1.62766 0.168254,-2.11667 v -0.88912 h -5.289442 -5.289443 l 0.02266,2.11667 0.02266,2.11667 h 5.09853 5.09853 l 0.168257,-1.22755 z m 16.837004,0.0369 c 0,-0.65484 0.119063,-1.19062 0.264583,-1.19062 0.145521,0 0.264584,-0.41672 0.264584,-0.92604 v -0.92605 h -5.291667 -5.291667 v 0.92605 c 0,0.50932 0.119063,0.92604 0.264584,0.92604 0.14552,0 0.264583,0.53578 0.264583,1.19062 v 1.19063 h 4.7625 4.7625 z m 0.445323,0.61185 c -0.08446,-0.21106 -0.147156,-0.14837 -0.159851,0.15986 -0.01148,0.27891 0.05104,0.43518 0.138965,0.34726 0.08792,-0.0879 0.09732,-0.31612 0.02087,-0.50712 z m 23.371228,0.24805 c 0.0029,-0.23783 0.05865,-0.24617 0.198438,-0.0297 0.106912,0.16557 0.219101,-0.6381 0.249311,-1.78594 l 0.05492,-2.087 h -5.185008 -5.185008 l 0.166846,1.38907 c 0.09177,0.76398 0.167881,1.71648 0.169146,2.11666 l 0.0023,0.72761 h 4.7625 c 3.631451,0 4.763463,-0.0786 4.766551,-0.33073 z M 50.151986,240.86849 v -12.79848 l -1.12448,-0.1742 c -3.16512,-0.49033 -6.14754,-3.12163 -7.102789,-6.26658 -0.306771,-1.00997 -0.489869,-2.01325 -0.406885,-2.2295 0.124804,-0.32523 0.883939,-0.39318 4.392518,-0.39318 3.593954,0 4.241636,-0.0606 4.241636,-0.39688 0,-0.34788 -1.76389,-0.39687 -14.2875,-0.39687 H 21.576985 v 2.91041 2.91042 h 1.5875 1.5875 v 2.77812 2.77813 h 9.128125 9.128126 v 8.73125 8.73125 H 33.88011 24.751985 v 2.64583 2.64583 h -1.5875 c -1.516944,0 -1.5875,0.0294 -1.5875,0.66146 v 0.66146 h 14.287501 14.2875 z m 16.66875,12.55528 c 0,-0.13375 -0.728075,-0.24667 -1.617943,-0.25093 -1.802527,-0.009 -2.176513,-0.17953 -1.490496,-0.68116 0.269687,-0.1972 0.462605,-0.68332 0.462605,-1.16567 0,-0.67656 -0.191545,-0.94833 -1.050623,-1.49064 -1.16676,-0.73654 -1.209387,-1.45283 -0.08181,-1.37473 0.833149,0.0577 1.100921,-0.50488 0.353251,-0.74218 -0.647153,-0.2054 -0.685896,-0.48612 -0.142132,-1.02988 0.22088,-0.22088 0.385374,-0.49728 0.365543,-0.61422 -0.01984,-0.11693 -0.01376,-0.27214 0.01349,-0.3449 0.02726,-0.0728 0.09164,-0.44913 0.143066,-0.83637 0.07471,-0.56261 -0.03527,-0.7364 -0.547397,-0.86494 -0.352494,-0.0885 -0.6409,-0.28567 -0.6409,-0.43823 0,-0.15255 0.208359,-0.21253 0.463021,-0.13329 0.254661,0.0793 0.641614,0.032 0.859896,-0.10501 0.316555,-0.19867 0.22285,-0.30978 -0.463021,-0.549 -1.028015,-0.35856 -1.146284,-0.75869 -0.169035,-0.57188 0.599853,0.11467 0.668145,0.0605 0.518404,-0.4113 -0.09485,-0.29885 -0.04855,-0.61994 0.102888,-0.71353 0.408874,-0.2527 0.333309,-0.66811 -0.121518,-0.66811 -0.218281,0 -0.396875,-0.17316 -0.396875,-0.38479 0,-0.28952 0.442193,-0.40771 1.785938,-0.47735 l 1.785937,-0.0926 -2.161172,-0.0518 c -2.958589,-0.0709 -2.998203,-0.0946 -2.998203,-1.78999 0,-3.97336 -3.294054,-7.77708 -7.128274,-8.23119 l -1.326449,-0.1571 -0.07212,4.99709 -0.07212,4.99708 -0.727604,0.0837 -0.727604,0.0837 v 7.12618 7.12617 h 7.540625 c 4.408469,0 7.540625,-0.10101 7.540625,-0.24319 z m 20.372917,-6.78717 c 0,-5.74019 -0.06936,-7.09972 -0.377976,-7.40833 -0.300443,-0.30044 -1.385914,-0.37797 -5.291667,-0.37797 -4.737301,0 -4.913691,0.019 -4.913691,0.52916 0,0.50397 -0.17639,0.52917 -3.704167,0.52917 h -3.704166 v 6.87917 6.87916 h 8.995833 8.995834 z m -22.418403,6.06306 c -0.179131,-0.0725 -0.536318,-0.0769 -0.79375,-0.01 -0.257432,0.0671 -0.110868,0.12639 0.325694,0.13178 0.436563,0.005 0.647187,-0.0495 0.468056,-0.12197 z m 1.852083,0 c -0.179131,-0.0725 -0.536318,-0.0769 -0.79375,-0.01 -0.257431,0.0671 -0.110868,0.12639 0.325694,0.13178 0.436563,0.005 0.647187,-0.0495 0.468056,-0.12197 z m -1.658681,-1.13375 c 0,-0.42797 -0.119062,-0.85172 -0.264583,-0.94166 -0.157459,-0.0973 -0.264583,0.21774 -0.264583,0.77814 0,0.51791 0.119062,0.94165 0.264583,0.94165 0.145521,0 0.264583,-0.35016 0.264583,-0.77813 z m 0.711552,-0.47864 c -0.06655,-0.25466 -0.121002,-0.0463 -0.121002,0.46302 0,0.50933 0.05445,0.71769 0.121002,0.46303 0.06655,-0.25467 0.06655,-0.67138 0,-0.92605 z m 1.140532,0.33073 c 0,-0.50932 -0.119063,-0.92604 -0.264584,-0.92604 -0.14552,0 -0.264583,0.41672 -0.264583,0.92604 0,0.50933 0.119063,0.92604 0.264583,0.92604 0.145521,0 0.264584,-0.41671 0.264584,-0.92604 z m -42.333334,-1.85208 v -2.51354 h -1.455208 -1.455209 v 2.51354 2.51354 h 1.455209 1.455208 z m 42.333334,-1.45521 c 0,-0.14552 -0.12609,-0.26458 -0.280199,-0.26458 -0.154109,0 -0.206613,0.11906 -0.116676,0.26458 0.08994,0.14552 0.216027,0.26459 0.280199,0.26459 0.06417,0 0.116676,-0.11907 0.116676,-0.26459 z m -29.831771,-1.58675 5.490104,-7.5e-4 v -8.20208 -8.20208 h -7.14375 -7.14375 v 0.92604 c 0,0.88194 -0.0441,0.92604 -0.926042,0.92604 h -0.926042 v 6.20094 6.20095 l 0.859896,0.0829 c 0.795698,0.0767 0.866315,0.16182 0.945874,1.13985 l 0.08598,1.05693 -0.68129,-0.64003 c -0.558658,-0.52484 -0.68129,-0.5603 -0.68129,-0.19705 0,0.38146 -0.330788,0.443 -2.38125,0.443 h -2.38125 v -3.70417 -3.70416 h 1.984375 c 1.807986,0 1.984375,-0.047 1.984375,-0.52917 0,-0.48213 -0.176389,-0.52917 -1.984375,-0.52917 h -1.984375 v -3.83646 -3.83645 h 2.235811 c 1.736668,0 2.286643,0.0908 2.463501,0.40685 0.19759,0.35308 0.292188,0.33559 0.715612,-0.13229 L 28.009,229.85446 h -3.216007 -3.216008 v 8.5085 8.5085 l 4.960938,-0.17337 c 2.728516,-0.0954 7.431484,-0.17372 10.451042,-0.17413 z m -10.384896,-1.04347 c 0,-0.28245 -0.119063,-0.58713 -0.264584,-0.67707 -0.149054,-0.0921 -0.264583,-1.36976 -0.264583,-2.92603 v -2.76251 h -1.852083 -1.852084 v 3.43958 3.43959 h 2.116667 c 1.918825,0 2.116667,-0.048 2.116667,-0.51356 z m 1.322916,-0.1479 c 0,-0.54067 -0.129217,-0.66146 -0.707578,-0.66146 h -0.707579 l 0.621407,0.66146 c 0.341775,0.3638 0.660185,0.66146 0.707579,0.66146 0.04739,0 0.08617,-0.29766 0.08617,-0.66146 z m 38.893751,-2.24896 c 0,-0.14552 -0.0525,-0.26458 -0.116676,-0.26458 -0.06417,0 -0.190262,0.11906 -0.280199,0.26458 -0.08994,0.14552 -0.03743,0.26458 0.116676,0.26458 0.154109,0 0.280199,-0.11906 0.280199,-0.26458 z m -0.661459,-1.5875 c -0.08994,-0.14552 -0.275558,-0.26458 -0.41249,-0.26458 -0.136933,0 -0.248968,0.11906 -0.248968,0.26458 0,0.14552 0.185621,0.26458 0.412491,0.26458 0.226869,0 0.338905,-0.11906 0.248967,-0.26458 z m 0.552556,-0.99085 c -0.289031,-0.28903 -0.487225,0.17062 -0.279712,0.64871 0.196765,0.45333 0.211029,0.45291 0.320659,-0.009 0.0631,-0.26605 0.04468,-0.55379 -0.04095,-0.63941 z m -1.743181,0.1971 c 0,-0.14552 -0.119062,-0.26458 -0.264583,-0.26458 -0.145521,0 -0.264583,0.11906 -0.264583,0.26458 0,0.14552 0.119062,0.26458 0.264583,0.26458 0.145521,0 0.264583,-0.11906 0.264583,-0.26458 z m -0.193402,-0.70272 c -0.179131,-0.0725 -0.536318,-0.0769 -0.79375,-0.01 -0.257432,0.0671 -0.110868,0.12638 0.325694,0.13177 0.436563,0.005 0.647187,-0.0495 0.468056,-0.12197 z m 1.852083,0 c -0.179131,-0.0725 -0.536318,-0.0769 -0.79375,-0.01 -0.257431,0.0671 -0.110868,0.12638 0.325694,0.13177 0.436563,0.005 0.647187,-0.0495 0.468056,-0.12197 z m 20.037153,-2.60457 v -1.19063 h -5.027083 -5.027084 v 1.19063 1.19062 h 5.027084 5.027083 z M 53.062402,233.3341 v -4.45786 l 1.507302,0.23636 c 1.972522,0.30933 3.826759,1.34303 5.251371,2.92754 1.204071,1.33921 2.237161,3.63337 2.237161,4.968 v 0.78382 h 1.852083 1.852083 v -7.67291 -7.67292 h -1.747583 -1.747581 l 0.100065,-1.04928 0.100066,-1.04928 -1.271641,-0.27272 c -3.432045,-0.73604 -5.785829,-3.25021 -6.387732,-6.82299 l -0.144864,-0.8599 3.895989,2.7e-4 3.89599,2.6e-4 -0.07794,-4.63053 -0.07794,-4.63041 h 9.272214 9.272215 v -8.99584 -8.99583 h 3.175 3.175 v -6.74048 -6.74047 l -4.431771,-0.0726 -4.431771,-0.0725 -0.07151,-5.49011 -0.07151,-5.4901 h 3.054475 3.054474 l -0.07254,-4.43177 -0.07254,-4.43177 h -2.778125 -2.778125 l -0.145171,4.36562 -0.145175,4.36563 0.01289,-5.29167 0.01288,-5.29166 4.431771,-0.0725 4.431771,-0.0725 v -3.1686 -3.16861 H 80.46355 73.733438 l -0.106711,-0.85989 c -0.05869,-0.47294 -0.125767,1.48931 -0.149056,4.36056 l -0.04235,5.22046 -1.256771,-0.1634 c -2.661801,-0.34607 -5.386207,-1.8267 -6.916571,-3.75894 -0.933344,-1.17844 -2.129962,-3.6155 -2.161378,-4.40191 -0.01161,-0.29104 -0.236868,0.10425 -0.500539,0.87843 -1.361371,3.99722 -4.966576,6.89627 -9.008491,7.24399 l -0.926042,0.0797 -0.140951,-5.15937 c -0.07753,-2.83766 -0.166823,-4.77242 -0.198438,-4.29948 -0.03162,0.47294 -0.176548,0.85989 -0.322069,0.85989 -0.166309,0 -0.264583,1.7198 -0.264583,4.63021 v 4.63021 h 1.058333 1.058333 v 8.06979 8.06979 h -0.910426 c -0.500734,0 -0.984012,0.11907 -1.073949,0.26459 -0.08994,0.14552 -0.689776,0.26458 -1.332976,0.26458 -3.662616,0 -7.164467,2.49503 -8.270354,5.89254 -0.32072,0.98532 -0.583128,1.96758 -0.583128,2.18281 0,0.33164 0.766675,0.39132 5.027083,0.39132 h 5.027084 v 6.74687 6.74688 h 4.457861 4.457864 l -0.232217,1.48081 c -0.590174,3.7635 -3.756445,6.92959 -7.415392,7.41497 l -1.28597,0.17059 0.01836,5.71942 c 0.01011,3.14568 0.0141,7.41605 0.0089,9.48973 l -0.0094,3.77031 H 46.71241 c -4.123383,0 -5.027083,0.0663 -5.027083,0.369 0,0.20296 0.239354,1.14395 0.531897,2.09109 1.041419,3.37172 4.029065,5.68464 7.680428,5.9459 1.089816,0.078 1.846329,0.2523 1.852832,0.42696 0.0061,0.16234 0.0013,2.40853 -0.0105,4.99153 l -0.02151,4.69635 h 0.671975 0.671976 v -4.45786 z m 17.991667,-48.04158 c 0,-1.84038 -0.05125,-2.01527 -0.814102,-2.77812 -0.77208,-0.77208 -0.922311,-0.8141 -2.910416,-0.8141 h -2.096315 v -2.24896 -2.24896 h 2.064763 c 1.988241,0 2.096106,-0.0323 2.910417,-0.87249 0.802439,-0.82791 0.845653,-0.97664 0.845653,-2.91042 v -2.03792 h 2.248959 2.248958 l 0.0078,2.05052 c 0.0072,1.89615 0.06665,2.11525 0.790022,2.91041 0.750012,0.82445 0.864233,0.8599 2.770368,0.8599 h 1.988105 v 2.24896 2.24896 h -2.067166 c -1.919485,0 -2.117955,0.053 -2.778125,0.74208 -0.645675,0.67394 -0.710959,0.92904 -0.710959,2.77812 v 2.03605 h -2.248958 -2.248958 v -1.96403 z m 3.113593,1.51039 c -0.397576,-0.0604 -1.111951,-0.0616 -1.5875,-0.003 -0.475549,0.0589 -0.15026,0.10828 0.722866,0.10977 0.873125,0.002 1.26221,-0.0467 0.864634,-0.10707 z m 1.119741,-1.90285 v -1.56273 l -0.943936,0.2897 c -0.668766,0.20525 -1.24724,0.20874 -1.984375,0.012 l -1.04044,-0.2777 v 1.55074 1.55075 h 1.984376 1.984375 z m -0.678683,-1.60572 c 0.373277,-0.14192 0.678683,-0.43957 0.678683,-0.66145 0,-0.32565 -0.382559,-0.40343 -1.984375,-0.40343 -1.606048,0 -1.984376,0.0773 -1.984376,0.4054 0,0.77151 1.961357,1.16466 3.290068,0.65948 z m -3.554651,-0.93259 c 0,-0.32165 0.426273,-0.39687 2.248959,-0.39687 1.916289,0 2.248958,0.0648 2.248958,0.43788 0,0.38656 0.06545,0.37881 0.558384,-0.0661 0.473689,-0.42758 0.493755,-0.51701 0.132292,-0.58958 -0.610124,-0.12249 -0.638551,-4.54466 -0.02922,-4.54466 0.547521,0 0.496523,-0.35697 -0.132291,-0.92604 -0.513612,-0.46481 -0.529167,-0.46213 -0.529167,0.0913 0,0.53912 -0.122473,0.57018 -2.248958,0.57018 -2.132669,0 -2.248959,-0.0298 -2.248959,-0.57529 0,-0.57366 -0.0019,-0.57347 -0.686067,0.0662 -0.6634,0.62024 -0.667769,0.64422 -0.132292,0.72598 0.511501,0.0781 0.553776,0.25482 0.553776,2.3151 0,1.80633 -0.07548,2.23056 -0.396875,2.23056 -0.478417,0 -0.511495,0.30871 -0.07937,0.74083 0.43212,0.43212 0.740833,0.39904 0.740833,-0.0794 z m -1.984375,-2.91041 v -1.98438 H 67.54834 66.026986 v 1.98438 1.98437 h 1.521354 1.521354 z m 1.455208,0 c 0,-1.7706 -0.05396,-1.98438 -0.500858,-1.98438 -0.616469,0 -0.822058,0.49628 -0.822058,1.98438 0,1.4881 0.205589,1.98437 0.822058,1.98437 0.446902,0 0.500858,-0.21377 0.500858,-1.98437 z m 6.621132,1.30569 c 0.538216,-1.41562 0.152329,-3.29007 -0.677315,-3.29007 -0.305916,0 -0.387566,0.41806 -0.387566,1.98438 0,1.60181 0.07777,1.98437 0.403423,1.98437 0.221882,0 0.519538,-0.3054 0.661458,-0.67868 z m 3.168452,-1.30569 v -1.98438 h -1.596808 c -1.496732,0 -1.579645,0.0321 -1.322917,0.51178 0.344697,0.64407 0.351832,1.89461 0.01585,2.77829 l -0.258027,0.67868 h 1.580951 1.580952 z m -14.624915,-0.72287 c -0.05889,-0.47555 -0.108281,-0.15026 -0.109765,0.72287 -0.0016,0.87312 0.04669,1.26221 0.107066,0.86463 0.06037,-0.39757 0.06158,-1.11195 0.0027,-1.5875 z m 15.08125,0 c -0.05889,-0.47555 -0.108281,-0.15026 -0.109765,0.72287 -0.0016,0.87312 0.04669,1.26221 0.107066,0.86463 0.06037,-0.39757 0.06158,-1.11195 0.0027,-1.5875 z m -5.483418,-2.55612 c 0,-0.61646 -0.496277,-0.82205 -1.984375,-0.82205 -1.488099,0 -1.984376,0.20559 -1.984376,0.82205 0,0.44691 0.213773,0.50086 1.984376,0.50086 1.770602,0 1.984375,-0.054 1.984375,-0.50086 z m 0,-2.4757 v -1.52135 h -1.984375 -1.984376 v 1.52135 1.52135 h 1.984376 1.984375 z m -1.119741,-1.97499 c -0.397576,-0.0604 -1.111951,-0.0616 -1.5875,-0.003 -0.475549,0.0589 -0.15026,0.10828 0.722866,0.10977 0.873125,0.002 1.26221,-0.0467 0.864634,-0.10707 z m -4.965676,-11.32032 v -4.36563 h 2.778125 2.778125 v 4.36563 4.36562 h -2.778125 -2.778125 z m 5.291667,0 v -4.10104 h -2.513542 -2.513542 v 4.10104 4.10104 h 2.513542 2.513542 z m -48.418751,74.23124 c 0,-1.64447 0.11428,-2.96543 0.264583,-3.05833 0.145521,-0.0899 0.264584,-0.39462 0.264584,-0.67707 0,-0.46555 -0.197842,-0.51355 -2.116667,-0.51355 h -2.116667 v 3.57187 3.57188 h 1.852084 1.852083 z m 48.154167,-4.64583 v -7.54062 h -4.101042 -4.101041 v 7.54062 7.54063 h 4.101041 4.101042 z m 12.435417,4.7625 v -1.19062 h -5.027083 -5.027084 v 1.19062 1.19063 h 5.027084 5.027083 z m 0.03307,-2.11666 c 0.04377,-0.87536 0.07223,-1.00317 0.304871,-1.36892 0.148596,-0.23361 -1.114583,-0.31783 -5.09728,-0.33981 l -5.294831,-0.0292 v 1.1997 1.19971 h 5.027084 5.027083 z m -58.770574,-1.5875 c 0,-0.36381 -0.03878,-0.66146 -0.08617,-0.66146 -0.04739,0 -0.365804,0.29765 -0.707579,0.66146 l -0.621407,0.66146 h 0.707579 c 0.578361,0 0.707578,-0.1208 0.707578,-0.66146 z m 58.813796,-0.92745 c -0.07631,-0.29182 0.02413,-0.7314 0.223208,-0.97683 0.308602,-0.38048 0.306578,-0.41287 -0.01373,-0.21977 -0.281739,0.16984 -0.333441,0.11638 -0.20674,-0.2138 0.154009,-0.40136 -0.286409,-0.44028 -4.982125,-0.44028 h -5.151073 v 1.19063 1.19062 h 5.134605 c 5.008888,0 5.131207,-0.013 4.995857,-0.53057 z m -62.253379,-3.17359 v -2.64584 h -1.455208 -1.455209 v 2.64584 2.64583 h 1.455209 1.455208 z m 62.599224,0.75286 c 0.117142,-0.18953 0.07256,-0.23363 -0.117475,-0.11618 -0.34812,0.21515 -0.298603,-0.54193 0.0746,-1.14059 0.169119,-0.27128 0.137054,-0.31313 -0.118763,-0.15503 -0.254442,0.15725 -0.304149,0.096 -0.181475,-0.2237 0.154014,-0.40136 -0.286404,-0.44028 -4.98212,-0.44028 h -5.151073 v 1.19062 1.19063 h 5.14376 c 3.602699,0 5.200321,-0.0915 5.332547,-0.30547 z m -0.399404,-2.67109 c 0.01251,-0.1819 0.05109,-0.71769 0.08574,-1.19063 l 0.063,-0.85989 h -5.112822 -5.112824 v 1.19062 1.19063 h 5.027084 c 3.833151,0 5.032483,-0.0786 5.049819,-0.33073 z m 0.275598,-2.76277 c 0.206062,-0.25404 0.228131,-0.3667 0.05102,-0.26048 -0.372967,0.22368 -0.346149,-3.16162 0.02982,-3.76451 0.146323,-0.23463 0.133898,-0.31113 -0.03371,-0.20755 -0.381011,0.23548 -0.379873,-1.43969 0.0013,-1.91124 0.246539,-0.30499 0.242893,-0.34616 -0.01683,-0.19011 -0.372779,0.22397 -0.340992,-0.50456 0.04933,-1.13068 0.158816,-0.25476 0.135358,-0.31209 -0.0746,-0.18233 -0.34812,0.21515 -0.298603,-0.54194 0.0746,-1.14059 0.169119,-0.27128 0.137054,-0.31314 -0.118764,-0.15503 -0.254442,0.15725 -0.304149,0.096 -0.181475,-0.22371 0.09292,-0.24215 0.0986,-0.44027 0.01262,-0.44027 -0.08599,0 -2.402983,2.15615 -5.148887,4.79145 -4.736121,4.54534 -5.005393,4.75938 -5.242547,4.16718 -0.173821,-0.43404 -0.255106,-0.48775 -0.266766,-0.17624 -0.0092,0.24641 0.247846,0.63336 0.571267,0.8599 0.478314,0.33502 1.459659,0.41187 5.259268,0.41187 4.068279,0 4.718103,-0.0578 5.03436,-0.44766 z M 81.6374,220.58008 c 2.546614,-1.00947 4.74927,-1.82911 4.894791,-1.82144 0.145521,0.008 -1.81901,0.83989 -4.365625,1.84937 -2.546614,1.00947 -4.749271,1.82912 -4.894791,1.82144 -0.145521,-0.008 1.81901,-0.83989 4.365625,-1.84937 z m -5.892491,1.44161 c -0.08792,-0.0879 -0.316124,-0.0973 -0.507119,-0.0209 -0.211066,0.0845 -0.148373,0.14715 0.159853,0.15985 0.278914,0.0115 0.435184,-0.0511 0.347266,-0.13897 z m 10.175566,-9.7048 c -0.131818,-0.4812 -0.177898,-0.50333 -0.256879,-0.12337 -0.119459,0.5747 -1.11578,0.61982 -1.11578,0.0505 0,-0.22686 -0.121004,-0.3377 -0.268898,-0.2463 -0.147895,0.0914 -0.21005,0.26142 -0.138124,0.37779 0.210508,0.34061 -2.046935,0.15932 -2.733762,-0.21954 -0.381055,-0.2102 -0.556114,-0.23091 -0.446021,-0.0528 0.102661,0.16611 -0.06618,0.38474 -0.389483,0.50434 -0.437599,0.16187 -0.965777,1.2258 -2.264677,4.56182 -0.931685,2.39289 -1.69455,4.45242 -1.695254,4.57673 -7.94e-4,0.12432 2.129647,-1.81447 4.734115,-4.30841 4.003413,-3.83351 4.710565,-4.62507 4.574763,-5.12081 z m -20.970423,4.50684 c -0.01023,-2.21919 -0.12092,-4.27302 -0.245986,-4.56406 l -0.227391,-0.52917 -0.02265,0.52917 c -0.01884,0.44019 -0.06578,0.46243 -0.279128,0.13229 -0.170987,-0.26458 -0.257831,-0.28663 -0.260532,-0.0661 -0.0022,0.1819 -0.242176,0.33073 -0.533218,0.33073 -0.503967,0 -0.529166,0.17639 -0.529166,3.70416 0,3.52778 0.02519,3.70417 0.529166,3.70417 0.293982,0 0.529167,0.17639 0.529167,0.39687 0,0.22049 0.235186,0.39688 0.529167,0.39688 0.506846,0 0.528383,-0.17019 0.510569,-4.0349 z m 2.929014,-0.0661 c 0,-3.96384 -0.01823,-4.10104 -0.544782,-4.10104 -0.301641,0 -0.470609,-0.12002 -0.378593,-0.2689 0.0914,-0.1479 0.30679,-0.18834 0.478637,-0.0899 0.171844,0.0985 0.219705,0.0771 0.106352,-0.0474 -0.314563,-0.34565 -0.975675,-0.37682 -0.91018,-0.0429 0.03187,0.16247 -0.211082,0.31378 -0.539888,0.33626 -0.436514,0.0298 -0.526888,-0.0446 -0.334928,-0.27592 0.184055,-0.22177 0.145137,-0.31677 -0.129778,-0.31677 -0.331623,0 -0.392673,0.69243 -0.392673,4.45382 v 4.45382 h 1.322916 1.322917 z m 2.594473,-0.33073 c -0.05187,-2.84039 -0.17594,-4.38427 -0.345515,-4.29948 -0.14552,0.0728 -0.235079,0.2208 -0.199019,0.32898 0.07897,0.2369 -0.901602,0.1138 -1.161177,-0.14577 -0.100764,-0.10077 -0.31219,-0.18139 -0.469839,-0.17916 -0.157647,0.002 -0.108037,0.11947 0.110244,0.26053 0.264583,0.17099 0.286631,0.25783 0.06615,0.26053 -0.250185,0.003 -0.33073,1.00281 -0.33073,4.1051 v 4.10104 h 1.20541 1.20541 z m 2.678596,0.39687 c -0.01023,-2.21919 -0.12092,-4.27302 -0.245986,-4.56406 -0.194442,-0.45249 -0.230084,-0.46208 -0.245985,-0.0661 -0.02349,0.58507 -1.076931,0.6345 -1.076931,0.0505 0,-0.22686 -0.121005,-0.3377 -0.268899,-0.2463 -0.147894,0.0914 -0.200401,0.27703 -0.116676,0.4125 0.08372,0.13546 0.02614,0.2463 -0.127976,0.2463 -0.185158,0 -0.280199,1.39104 -0.280199,4.10104 v 4.10104 h 1.190625 1.190625 l -0.0186,-4.0349 z m 2.664431,-0.0661 c 0,-4.38619 0.03131,-4.28887 -1.322916,-4.11187 -0.296585,0.0388 -0.275376,-0.0393 0.08392,-0.30883 0.457573,-0.34328 0.454377,-0.3607 -0.06615,-0.3607 -0.300818,0 -0.546944,0.16011 -0.546944,0.35579 0,0.19569 -0.119063,0.28221 -0.264583,0.19227 -0.172194,-0.10642 -0.264584,1.32017 -0.264584,4.08543 v 4.24895 h 1.190625 1.190625 z m 1.476825,2.36623 c 0.326125,-0.86487 1.070311,-2.79168 1.653749,-4.28181 0.597588,-1.52627 0.951561,-2.77685 0.810638,-2.86394 -0.137586,-0.085 -0.217439,-0.002 -0.177456,0.18507 0.04057,0.18954 -0.191539,0.35774 -0.525126,0.38054 -0.436515,0.0298 -0.526889,-0.0446 -0.334928,-0.27592 0.184055,-0.22177 0.145137,-0.31677 -0.129778,-0.31677 -0.215969,0 -0.392674,0.15875 -0.392674,0.35278 0,0.53048 -0.526283,0.42456 -0.547764,-0.11025 -0.0159,-0.39593 -0.05154,-0.38634 -0.245986,0.0661 -0.153183,0.35648 -0.23478,0.39965 -0.250039,0.13229 -0.01876,-0.32889 -0.06221,-0.33442 -0.253598,-0.0323 -0.127024,0.20055 -0.363323,0.28282 -0.525116,0.18283 -0.21119,-0.13053 -0.294163,1.0229 -0.294163,4.08919 0,4.75508 0.202181,5.17072 1.212241,2.49209 z m -14.705992,-2.76311 v -3.70416 h -3.802298 -3.8023 l 0.220922,1.18254 c 0.632438,3.38527 3.509978,5.9145 7.052947,6.19921 0.2501,0.0201 0.330729,-0.87647 0.330729,-3.67759 z M 50.151986,214.9055 v -3.0427 h -14.2875 -14.287501 v 3.0427 3.04271 h 14.287501 14.2875 z m 33.486378,-2.8388 c 0.09031,-0.0903 -0.02185,-0.13689 -0.249266,-0.10352 -0.227404,0.0334 -0.48735,0.13458 -0.577657,0.22488 -0.09031,0.0903 0.02185,0.13689 0.249266,0.10351 0.227405,-0.0334 0.48735,-0.13457 0.577657,-0.22487 z m -54.388462,-5.62786 v -3.04271 h -3.175 -3.175 v 3.04271 3.04271 h 3.175 3.175 z m -4.1275,-0.52917 c 0,-0.44839 0.147718,-0.56619 0.674688,-0.53805 0.473466,0.0253 0.674687,0.18577 0.674687,0.53805 0,0.35229 -0.201221,0.51276 -0.674687,0.53805 -0.52697,0.0281 -0.674688,-0.0897 -0.674688,-0.53805 z m 1.128889,-0.0142 c 0,-0.26775 -0.246878,-0.30488 -0.919608,-0.13832 -0.04497,0.0111 -0.02044,0.11946 0.05451,0.24073 0.209472,0.33893 0.865101,0.26132 0.865101,-0.10241 z m 7.065152,1.27098 c -0.154917,-2.22732 -0.135223,-2.34269 0.519418,-3.04271 0.880332,-0.94135 1.612398,-0.91995 2.608596,0.0763 l 0.803851,0.80385 -0.186496,2.23886 -0.186496,2.23886 h 2.405001 2.405002 v -2.49632 c 0,-2.68383 0.235176,-3.63237 1.142103,-4.60643 1.023546,-1.09931 2.037511,-1.43847 4.677286,-1.56449 1.546741,-0.0738 2.616848,-0.24624 2.779569,-0.44781 0.145521,-0.18026 1.068896,-0.39211 2.051942,-0.47078 4.031813,-0.32268 7.341841,-3.32458 7.784198,-7.05959 l 0.14963,-1.2634 -6.712675,-0.15706 c -5.882331,-0.13764 -6.869322,-0.10193 -7.979006,0.28865 -1.194546,0.42046 -1.311989,0.41951 -2.071962,-0.0166 -0.568307,-0.32618 -1.383887,-0.46238 -2.768569,-0.46238 h -1.962933 v 2.24895 2.24896 h -8.598958 -8.598959 v 4.10104 c 0,3.92466 0.02276,4.10105 0.529167,4.10105 0.293982,0 0.529167,-0.17639 0.529167,-0.39688 0,-0.33242 0.558565,-0.39687 3.439583,-0.39687 h 3.439583 v 3.175 3.175 h 1.98149 1.98149 z m 3.337741,1.32292 c -0.0026,-0.63259 -0.08401,-0.8661 -0.22466,-0.6443 -0.142487,0.2247 -0.632139,0.3184 -1.382729,0.26459 -0.935789,-0.0671 -1.172488,-0.18637 -1.215356,-0.61248 -0.0415,-0.41246 -0.02313,-0.42705 0.08326,-0.0662 0.100692,0.34156 0.415541,0.46303 1.200203,0.46303 0.855567,0 1.091925,-0.10792 1.207932,-0.55154 0.09932,-0.3798 0.206359,-0.451 0.34377,-0.22867 0.318674,0.51563 0.06903,-2.02037 -0.259276,-2.63382 -0.384243,-0.71796 -1.682338,-0.73815 -2.383425,-0.0371 -0.421255,0.42125 -0.500632,0.80313 -0.426223,2.05052 0.05029,0.84307 0.104644,1.86028 0.120786,2.26046 0.02832,0.702 0.08056,0.72761 1.484557,0.72761 h 1.455209 l -0.0041,-0.99219 z m 5.939058,0.39687 c -0.273354,-0.32742 -0.327525,-0.44648 -0.120383,-0.26458 0.578787,0.50825 0.842799,0.39261 0.471472,-0.20651 -0.496816,-0.8016 -0.05187,-0.93584 2.616171,-0.78933 l 2.342525,0.12865 -1.785937,0.0819 c -1.68901,0.0774 -2.169091,0.31884 -1.480474,0.74443 0.168005,0.10383 0.238906,0.0811 0.157557,-0.0505 -0.08181,-0.13238 0.550167,-0.23932 1.414328,-0.23932 1.113594,0 1.562235,0.0998 1.562235,0.34749 0,0.23267 0.284159,0.3201 0.859895,0.26459 l 0.859896,-0.0829 0.07378,-3.49878 0.07378,-3.49877 -0.696899,-0.17491 c -1.222679,-0.30687 -4.041066,0.0966 -4.88818,0.69983 -1.126813,0.80236 -1.39532,1.45006 -1.586407,3.82679 l -0.170178,2.11667 -0.04096,-1.79444 c -0.07793,-3.41374 1.221089,-4.88858 4.525952,-5.13853 2.259341,-0.17087 3.019348,0.11061 3.181064,1.17818 0.07476,0.49352 0.122989,0.35445 0.149876,-0.43215 l 0.03964,-1.15985 -2.616155,0.12598 c -2.86085,0.13776 -3.890733,0.53346 -4.896814,1.88145 -0.469802,0.62947 -0.570819,1.19802 -0.646378,3.63802 -0.08816,2.8468 -0.08028,2.89197 0.504027,2.89197 0.586441,0 0.587603,-0.007 0.09658,-0.59532 z m 5.585669,-0.9739 c -0.195673,-0.3166 0.302054,-0.6303 0.654473,-0.41249 0.2959,0.18287 0.101645,0.65879 -0.268898,0.65879 -0.128344,0 -0.301853,-0.11084 -0.385575,-0.2463 z m -2.003319,-2.33339 -1.712148,-1.78594 1.785937,1.71215 c 1.658856,1.59032 1.906887,1.85973 1.712148,1.85973 -0.04058,0 -0.844256,-0.80367 -1.785937,-1.78594 z m 2.216758,-0.85989 c 0,-1.23693 0.04558,-1.74295 0.101283,-1.12448 0.0557,0.61846 0.0557,1.63049 0,2.24895 -0.05571,0.61847 -0.101283,0.11245 -0.101283,-1.12447 z m -1.878385,4.58727 c -0.181901,-0.0734 -0.479558,-0.0734 -0.661459,0 -0.181901,0.0734 -0.03307,0.13345 0.33073,0.13345 0.363802,0 0.51263,-0.0601 0.330729,-0.13345 z m 3.60199,-0.68467 c -0.02604,-0.62108 -0.06786,-0.69468 -0.150638,-0.26502 -0.113454,0.58891 -0.455975,0.74612 -2.06229,0.94658 -0.436562,0.0545 -0.10914,0.11689 0.727604,0.13869 l 1.521355,0.0396 z m 18.821447,-2.18281 v -3.04271 h -3.175 -3.175 v 3.04271 3.04271 h 3.175 3.175 z m 6.089309,2.53656 -1.451313,-0.15531 0.03991,-1.19063 c 0.03873,-1.15537 0.03377,-1.1632 -0.1675,-0.26458 l -0.207415,0.92604 -0.03483,-0.8599 -0.03483,-0.85989 h -1.984375 -1.984375 v 1.32292 1.32291 l 3.638021,-0.0431 c 2.412002,-0.0286 3.148925,-0.0955 2.186704,-0.19844 z m 10.579442,-1.08135 c 0,-1.23473 -0.0441,-1.32292 -0.661459,-1.32292 -0.363802,0 -0.670859,0.14883 -0.682347,0.33073 -0.01672,0.26458 -0.04758,0.26458 -0.154339,0 -0.08993,-0.22286 -0.773481,-0.33073 -2.095778,-0.33073 h -1.962327 v 0.89365 c 0,1.1429 -0.367613,1.43005 -1.991093,1.55528 -0.723911,0.0558 0.678098,0.12298 3.115572,0.14921 l 4.431771,0.0477 z m -39.759158,0.89848 c -0.08792,-0.0879 -0.316124,-0.0973 -0.507119,-0.0209 -0.211066,0.0845 -0.148373,0.14716 0.159854,0.15985 0.278913,0.0115 0.435184,-0.0511 0.347265,-0.13896 z m 29.903428,-0.29424 c -0.400182,-0.0606 -1.055026,-0.0606 -1.455208,0 -0.400182,0.0606 -0.07276,0.11022 0.727604,0.11022 0.800365,0 1.127787,-0.0496 0.727604,-0.11022 z m 3.046347,0.003 c -0.325422,-0.0628 -0.920734,-0.0644 -1.322917,-0.004 -0.402182,0.0608 -0.13593,0.1122 0.591675,0.11419 0.727604,0.002 1.056663,-0.0478 0.731242,-0.11057 z m -35.127076,-0.34291 c 0.08994,-0.14552 -0.02913,-0.26458 -0.264583,-0.26458 -0.235458,0 -0.354521,0.11906 -0.264584,0.26458 0.08994,0.14552 0.209,0.26458 0.264584,0.26458 0.05558,0 0.174646,-0.11906 0.264583,-0.26458 z M 79.707865,207.037 c -0.06329,-0.32912 -0.11747,-0.12215 -0.120406,0.45993 -0.0029,0.58208 0.04884,0.85136 0.115067,0.5984 0.06622,-0.25297 0.06862,-0.72922 0.0053,-1.05833 z m -3.518064,0.45993 c -0.136631,-0.54439 -0.07005,-0.66146 0.376219,-0.66146 0.700942,0 0.970288,0.4479 0.563848,0.93763 -0.272113,0.32788 -0.137517,0.38529 0.903264,0.38529 1.182523,0 1.223021,-0.0263 1.223021,-0.79375 v -0.79375 h -2.645834 -2.645833 v 0.79375 c 0,0.76485 0.04354,0.79375 1.195665,0.79375 1.143259,0 1.188389,-0.029 1.02965,-0.66146 z m -3.019065,-2.64583 v -1.45521 h -1.984375 -1.984375 v 1.45521 1.45521 h 1.984375 1.984375 z m 0.593079,-0.19844 c 0.05193,-0.5457 -7.93e-4,-0.99219 -0.117041,-0.99219 -0.1163,0 -0.197644,0.62508 -0.180763,1.38906 0.03189,1.44329 0.135885,1.3047 0.297804,-0.39687 z m 5.533904,0.39687 0.04157,-1.25677 0.181449,1.32292 0.181448,1.32292 0.08779,-1.19063 0.08779,-1.19062 0.101283,1.12448 0.10128,1.12448 h 1.969161 1.969162 v -3.04271 -3.04271 h -1.322917 -1.322917 v -3.30729 -3.30729 h 1.322917 1.322917 v -4.10105 -4.10104 h -1.455209 -1.455208 v 8.88831 c 0,8.6658 -0.01326,8.89178 -0.529167,9.0267 -0.291041,0.0761 -0.529166,0.23002 -0.529166,0.34203 0,0.11201 -1.269712,0.22224 -2.821581,0.24497 -1.551868,0.0227 -2.921087,0.10281 -3.042708,0.17797 -0.121621,0.0752 -0.221128,0.60589 -0.221128,1.17939 v 1.04272 h 2.645833 2.645834 z m 6.308434,0.0661 c 0,-1.14653 0.0294,-1.19062 0.79375,-1.19062 h 0.79375 v -9.26042 -9.26042 h -1.455209 -1.455208 v 4.10104 4.10105 h 1.322917 1.322916 v 3.30729 3.30729 h -1.322916 -1.322917 v 3.04271 3.04271 h 0.661458 c 0.607563,0 0.661459,-0.097 0.661459,-1.19063 z m -1.5875,-8.20208 v -3.04271 h -1.190625 -1.190625 v 3.04271 3.04271 h 1.190625 1.190625 z m 2.645833,0 v -3.04271 h -1.190625 -1.190625 v 3.04271 3.04271 h 1.190625 1.190625 z m -48.154167,-5.42396 v -3.96875 h -8.466667 -8.466667 l 0.04448,1.91823 c 0.02657,1.14574 0.08716,1.50374 0.150472,0.88898 0.0583,-0.56608 0.290101,-1.31022 0.515119,-1.65364 l 0.409124,-0.6244 h 6.696145 6.696145 l 0.809272,0.68095 c 1.621023,1.364 1.688779,3.96495 0.141203,5.42031 -0.680664,0.6401 -0.742251,0.64674 -7.214346,0.7779 -3.590301,0.0728 -6.71985,0.0476 -6.954553,-0.056 -0.478944,-0.21137 -0.955228,-1.26544 -1.11043,-2.45751 -0.05684,-0.43656 -0.121182,0.0694 -0.142986,1.12448 l -0.03964,1.91823 h 8.466667 8.466667 z m -1.761841,2.63164 c 0.379924,-0.29885 0.831546,-1.01322 1.003603,-1.5875 0.401067,-1.33864 -0.02739,-2.90789 -1.003603,-3.67578 -0.654526,-0.51485 -1.03438,-0.54336 -7.239244,-0.54336 h -6.548472 l -0.427305,0.65215 c -0.235018,0.35868 -0.427305,1.01353 -0.427305,1.45521 0,0.62667 0.11623,0.80306 0.529167,0.80306 0.291041,0 0.529166,0.11906 0.529166,0.26458 0,0.14552 -0.238125,0.26458 -0.529166,0.26458 -0.42153,0 -0.529167,0.17639 -0.529167,0.86717 0,0.47695 0.185345,1.13179 0.411878,1.45521 0.406802,0.58079 0.492766,0.58804 6.975777,0.58804 6.220425,0 6.600046,-0.0284 7.254671,-0.54336 z M 24.024381,191.829 c -0.454442,-0.16301 -0.417556,-0.6037 0.05053,-0.6037 0.438246,0 0.785104,0.43628 0.482952,0.60747 -0.111515,0.0632 -0.351582,0.0615 -0.533483,-0.004 z m 21.939584,-0.777 c 0.587237,-0.53145 0.621728,-1.23853 0.08652,-1.77374 -0.41221,-0.41221 -2.356048,-0.46143 -2.980542,-0.0755 -0.493638,0.30509 -0.399071,1.68925 0.136729,2.00132 0.715812,0.41693 2.220227,0.33393 2.757292,-0.1521 z m -1.632813,-0.88504 c 0,-0.14552 0.119063,-0.26458 0.264584,-0.26458 0.14552,0 0.264583,0.11906 0.264583,0.26458 0,0.14552 -0.119063,0.26459 -0.264583,0.26459 -0.145521,0 -0.264584,-0.11907 -0.264584,-0.26459 z m -1.852083,0.041 c 0,-0.87495 0.848627,-1.76559 1.459095,-1.53134 0.243231,0.0933 0.352332,0.0511 0.258823,-0.1002 -0.243311,-0.39368 0.587656,-0.31427 1.466387,0.14014 0.771512,0.39896 1.257028,1.42896 0.926031,1.96452 -0.115173,0.18635 0.450163,0.27962 1.694882,0.27962 h 1.867699 v -1.5875 -1.5875 h -5.688542 -5.688542 v 1.5875 1.5875 h 1.852084 1.852083 z m 7.672917,-8.63997 v -3.57187 h -14.2875 -14.287501 v 3.57187 3.57188 h 14.287501 14.2875 z m -8.73125,-4.22777 c 0,-0.21523 0.25935,-1.18136 0.576333,-2.14696 0.413814,-1.26056 0.935583,-2.14871 1.850311,-3.14956 1.380747,-1.51076 2.39467,-2.09828 4.849397,-2.81001 l 1.5875,-0.46029 -1.124479,-0.0188 -1.124479,-0.0189 v -8.06979 -8.06979 h 1.058333 1.058334 v -4.63021 -4.63021 H 46.464583 42.77718 l -0.106712,-0.85989 c -0.05869,-0.47294 -0.125767,1.38767 -0.149055,4.1347 l -0.04234,4.9946 -1.269166,-0.12195 c -4.112678,-0.39518 -8.040571,-4.25799 -8.779135,-8.63369 -0.174071,-1.0313 -0.213312,-1.09257 -0.239329,-0.37366 l -0.03112,0.85989 h -5.291667 -5.291667 v 2.38125 2.38125 h 1.5875 1.5875 v 2.77813 2.77812 h 9.128125 9.128126 v 7.54063 7.54062 h -9.12813 -9.128125 v 2.77813 2.77812 h -1.5875 -1.5875 v 1.71979 1.7198 h 9.921875 c 8.580447,0 9.921876,-0.0529 9.921876,-0.39132 z m -16.933334,-5.95868 v -2.64584 h -1.455208 -1.455209 v 2.64584 2.64583 h 1.455209 1.455208 z m 62.706251,-0.66146 v -0.66146 h -4.365625 -4.365625 v 0.66146 0.66146 h 4.365625 4.365625 z m -2.910417,-5.43291 v -4.50687 l -2.844271,0.0751 -2.844271,0.0751 -0.07254,4.43178 -0.07254,4.43177 h 2.916815 2.916814 z m 2.513542,0.009 c 0,-4.18924 -0.02138,-4.36563 -0.529167,-4.36563 -0.501179,0 -0.536705,0.2239 -0.671692,4.23334 l -0.142526,4.23333 -0.05591,-4.32153 c -0.04295,-3.32017 -0.132546,-4.29604 -0.386641,-4.21155 -0.242898,0.0808 -0.349975,1.27695 -0.403201,4.50417 l -0.07247,4.39418 1.130805,-0.0503 1.130806,-0.0503 z m -59.291806,2.61662 c -0.42758,-0.47369 -0.517003,-0.49376 -0.589574,-0.1323 -0.07098,0.35353 -0.487799,0.4261 -2.447396,0.4261 h -2.36185 v -3.3073 -3.30729 h 1.984375 c 1.5875,0 1.984375,-0.0794 1.984375,-0.39687 0,-0.3175 -0.396875,-0.39688 -1.984375,-0.39688 h -1.984375 v -3.30729 -3.30729 h 2.36185 c 1.959597,0 2.376419,0.0726 2.447396,0.42609 0.07257,0.36147 0.161994,0.3414 0.589574,-0.13229 L 28.009,153.91905 h -3.216007 -3.216008 v 7.27604 7.27604 H 24.792993 28.009 Z m 22.616587,-3.21193 c -0.02204,-2.73056 -0.0908,-3.47846 -0.249336,-2.71198 -0.120398,0.58208 -0.225769,1.49508 -0.234156,2.02888 -0.01849,1.17746 -0.252518,1.85569 -0.572138,1.65815 -0.309414,-0.19123 -0.309414,-9.82867 0,-10.0199 0.331211,-0.2047 0.554202,0.49312 0.572138,1.79045 0.0084,0.60656 0.113758,1.57909 0.234156,2.16117 0.157134,0.75967 0.227494,-0.043 0.249336,-2.84427 l 0.03043,-3.90261 h -0.926042 -0.926042 v 7.80521 7.80521 h 0.926042 0.926042 z m 3.47001,-4.0349 v -7.80521 h -0.926042 -0.926041 v 3.83646 c 0,3.89469 0.328295,5.08466 0.638706,2.31511 0.306197,-2.73196 0.462349,-3.50573 0.707467,-3.50573 0.137128,0 0.241327,2.22765 0.241327,5.15937 0,6.26986 -0.322795,6.88326 -0.93984,1.78594 -0.314129,-2.59498 -0.64766,-1.40274 -0.64766,2.3151 v 3.70417 h 0.926041 0.926042 z m -11.1125,0.52917 v -7.01146 h -7.126987 -7.126986 l -0.08291,0.8599 c -0.0729,0.7561 -0.186698,0.8699 -0.942805,0.9428 l -0.859896,0.0829 v 5.12585 5.12585 l 0.859896,0.0829 c 0.756107,0.0729 0.869903,0.1867 0.942805,0.9428 l 0.08291,0.8599 h 7.126986 7.126987 z m -15.875,6.23332 c 0,-0.28245 -0.119063,-0.58713 -0.264584,-0.67707 -0.14552,-0.0899 -0.264583,-1.22806 -0.264583,-2.52916 v -2.36563 h -1.852083 -1.852084 v 3.0427 3.04271 h 2.116667 c 1.918825,0 2.116667,-0.048 2.116667,-0.51355 z m 1.322916,-0.14791 c 0,-0.54066 -0.129217,-0.66145 -0.707578,-0.66145 h -0.707579 l 0.621407,0.66145 c 0.341775,0.36381 0.660185,0.66146 0.707579,0.66146 0.04739,0 0.08617,-0.29765 0.08617,-0.66146 z m -1.852083,-9.1125 c 0,-1.3011 0.119063,-2.43922 0.264583,-2.52916 0.145521,-0.0899 0.264584,-0.39462 0.264584,-0.67708 0,-0.46555 -0.197842,-0.51355 -2.116667,-0.51355 h -2.116667 v 3.04271 3.04271 h 1.852084 1.852083 z m 60.854167,-1.98438 c 0,-2.3925 -0.108317,-4.41695 -0.240707,-4.49878 -0.132387,-0.0818 -0.427151,-0.0772 -0.655026,0.0102 -0.347628,0.1334 -0.427136,0.84693 -0.493927,4.43263 l -0.07961,4.27363 -0.05912,-4.46417 c -0.0521,-3.93406 -0.106243,-4.42505 -0.455991,-4.13479 -0.322283,0.26747 -0.396875,1.11893 -0.396875,4.53031 v 4.20094 h 1.190625 1.190625 z m -59.002084,-1.07395 c 0,-0.3638 -0.03878,-0.66146 -0.08617,-0.66146 -0.04739,0 -0.365804,0.29766 -0.707579,0.66146 l -0.621407,0.66146 h 0.707579 c 0.578361,0 0.707578,-0.1208 0.707578,-0.66146 z m -3.439583,-4.10104 v -2.64583 h -1.455208 -1.455209 v 2.64583 2.64583 h 1.455209 1.455208 z m 30.904725,0.24984 c 3.775292,-0.83279 6.608869,-4.19697 7.428185,-8.81917 l 0.19285,-1.08796 0.173948,1.40948 c 0.570063,4.61917 4.203268,8.20335 8.991438,8.87013 l 0.992188,0.13816 v -5.8042 c 0,-3.69308 0.09623,-5.8042 0.264583,-5.8042 0.145521,0 0.264584,-0.35718 0.264584,-0.79375 v -0.79375 H 62.984277 52.268652 v 0.79375 c 0,0.43657 0.119063,0.79375 0.264584,0.79375 0.168378,0 0.264583,2.11835 0.264583,5.82588 v 5.82587 l 0.595312,-0.12217 c 0.327422,-0.0672 1.226971,-0.26151 1.998996,-0.43182 z M 42.214486,145.717 c 0,-3.52777 0.09659,-5.55625 0.264583,-5.55625 0.145521,0 0.264583,-0.35718 0.264583,-0.79375 v -0.79375 h -5.291666 -5.291667 v 0.79375 c 0,0.43657 0.106049,0.79375 0.235664,0.79375 0.129616,0 0.282246,0.86321 0.339178,1.91823 0.127565,2.36397 1.085712,4.59494 2.679731,6.23954 1.559601,1.6091 4.166315,2.89764 5.939698,2.93609 l 0.859896,0.0186 z m 44.979167,4.88824 v -0.66801 l -4.29948,0.0727 c -4.232134,0.0716 -4.300804,0.082 -4.384026,0.66801 l -0.08455,0.59531 h 4.384027 4.384027 z M 73.89834,138.14631 80.579069,137.9792 v -7.77276 -7.77277 H 53.194694 25.810319 v 7.79706 7.79707 l 3.241146,0.0743 c 7.351877,0.16851 38.644335,0.19937 44.846875,0.0442 z M 51.179844,267.88832 c -0.01675,-0.0364 -0.06458,-0.90951 -0.106264,-1.94028 -0.05678,-1.4041 0.01085,-1.87414 0.269621,-1.87414 0.253084,0 0.334528,0.46236 0.304699,1.72984 -0.03847,1.63494 -0.0044,1.73993 0.620752,1.91391 0.610466,0.16987 0.595167,0.1861 -0.198437,0.21044 -0.472943,0.0145 -0.873609,-0.003 -0.890371,-0.0398 z m 0.211214,-2.6293 c -0.08446,-0.21107 -0.147155,-0.14837 -0.15985,0.15985 -0.01148,0.27892 0.05104,0.43519 0.138964,0.34727 0.08792,-0.0879 0.09732,-0.31613 0.02088,-0.50712 z m 3.986449,2.52021 c 0.181901,-0.0734 0.479557,-0.0734 0.661458,0 0.181901,0.0734 0.03307,0.13346 -0.330729,0.13346 -0.363802,0 -0.512631,-0.0601 -0.330729,-0.13346 z m 4.7625,0 c 0.181901,-0.0734 0.479557,-0.0734 0.661458,0 0.181901,0.0734 0.03307,0.13346 -0.330729,0.13346 -0.363802,0 -0.51263,-0.0601 -0.330729,-0.13346 z m 4.7625,0 c 0.181901,-0.0734 0.479557,-0.0734 0.661458,0 0.181901,0.0734 0.03307,0.13346 -0.330729,0.13346 -0.363802,0 -0.51263,-0.0601 -0.330729,-0.13346 z m 3.439583,0 c 0.181901,-0.0734 0.479557,-0.0734 0.661458,0 0.181901,0.0734 0.03307,0.13346 -0.330729,0.13346 -0.363802,0 -0.51263,-0.0601 -0.330729,-0.13346 z m 1.303446,-0.16487 c 0.104722,-0.16945 0.196593,-0.54919 0.204155,-0.84389 0.02455,-0.95677 0.541515,-0.83448 0.581549,0.13757 0.03088,0.74983 -0.06314,0.94562 -0.468741,0.97618 -0.324102,0.0244 -0.438592,-0.0731 -0.316963,-0.26986 z m 3.459054,0.16487 c 0.181901,-0.0734 0.479557,-0.0734 0.661458,0 0.181901,0.0734 0.03307,0.13346 -0.330729,0.13346 -0.363802,0 -0.51263,-0.0601 -0.330729,-0.13346 z m 8.202083,0 c 0.181901,-0.0734 0.479558,-0.0734 0.661459,0 0.181901,0.0734 0.03307,0.13346 -0.330729,0.13346 -0.363803,0 -0.512631,-0.0601 -0.33073,-0.13346 z m 4.7625,0 c 0.181901,-0.0734 0.479558,-0.0734 0.661459,0 0.181901,0.0734 0.03307,0.13346 -0.330729,0.13346 -0.363802,0 -0.512631,-0.0601 -0.33073,-0.13346 z m 2.141832,-0.21079 c 0.108143,-0.15149 0.183205,-1.91255 0.166809,-3.91346 -0.02074,-2.5313 0.06053,-3.63802 0.267176,-3.63802 0.206327,0 0.296987,1.20531 0.296987,3.9484 0,3.5998 -0.04095,3.94531 -0.463799,3.91346 -0.267414,-0.0201 -0.380542,-0.15156 -0.267173,-0.31038 z m -18.479853,-2.03933 c 0,-0.12126 0.178594,-0.22048 0.396875,-0.22048 0.218282,0 0.396875,0.0992 0.396875,0.22048 0,0.12127 -0.178593,0.22049 -0.396875,0.22049 -0.218281,0 -0.396875,-0.0992 -0.396875,-0.22049 z m 0.07275,-1.01423 c -0.02199,-0.29205 0.123243,-0.52917 0.324127,-0.52917 0.200885,0 0.346126,0.23712 0.324128,0.52917 -0.02193,0.29104 -0.16778,0.52916 -0.324128,0.52916 -0.156347,0 -0.302204,-0.23812 -0.324127,-0.52916 z m -18.75921,-1.97371 c -0.0076,-0.64898 0.08602,-1.1182 0.20815,-1.04272 0.122134,0.0755 0.222062,-0.0554 0.222062,-0.29086 0,-0.23546 -0.119062,-0.35452 -0.264583,-0.26459 -0.145521,0.0899 -0.264583,-0.0816 -0.264583,-0.38126 0,-0.30748 0.172603,-0.54478 0.396261,-0.54478 0.320458,0 0.383725,0.35428 0.330729,1.85205 -0.0719,2.03208 -0.605271,2.60292 -0.628036,0.67216 z m 18.801255,-0.054 c 0.0096,-0.63016 0.136562,-1.14574 0.282082,-1.14574 0.145521,0 0.272458,0.51558 0.282083,1.14574 0.0105,0.68697 -0.102454,1.14573 -0.282083,1.14573 -0.179628,0 -0.292576,-0.45876 -0.282082,-1.14573 z m -0.03872,-1.98517 c 0.0201,-0.26679 0.164457,-0.48507 0.320804,-0.48507 0.156348,0 0.30071,0.21828 0.320805,0.48507 0.02011,0.26679 -0.124264,0.48507 -0.320805,0.48507 -0.19654,0 -0.340902,-0.21828 -0.320804,-0.48507 z m -0.07607,-0.97014 c 0,-0.12127 0.178594,-0.22048 0.396875,-0.22048 0.218282,0 0.396875,0.0992 0.396875,0.22048 0,0.12127 -0.178593,0.22049 -0.396875,0.22049 -0.218281,0 -0.396875,-0.0992 -0.396875,-0.22049 z"
         id="path881" />
    </g>
  </g>
</svg>
