<?xml version="1.0" encoding="UTF-8" standalone="no"?>
<svg
   xmlns:dc="http://purl.org/dc/elements/1.1/"
   xmlns:cc="http://creativecommons.org/ns#"
   xmlns:rdf="http://www.w3.org/1999/02/22-rdf-syntax-ns#"
   xmlns:svg="http://www.w3.org/2000/svg"
   xmlns="http://www.w3.org/2000/svg"
   xmlns:sodipodi="http://sodipodi.sourceforge.net/DTD/sodipodi-0.dtd"
   xmlns:inkscape="http://www.inkscape.org/namespaces/inkscape"
   width="50mm"
   height="80mm"
   viewBox="0 0 50 80"
   version="1.1"
   id="svg8"
   sodipodi:docname="planpietro1b.svg"
   inkscape:version="1.0.1 (3bc2e813f5, 2020-09-07)">
  <defs
     id="defs2" />
  <sodipodi:namedview
     id="base"
     pagecolor="#ffffff"
     bordercolor="#666666"
     borderopacity="1.0"
     inkscape:pageopacity="0.0"
     inkscape:pageshadow="2"
     inkscape:zoom="1.4"
     inkscape:cx="-52.40359"
     inkscape:cy="156.66058"
     inkscape:document-units="mm"
     inkscape:current-layer="layer1"
     inkscape:document-rotation="0"
     showgrid="false"
     inkscape:window-width="1920"
     inkscape:window-height="1137"
     inkscape:window-x="-8"
     inkscape:window-y="-8"
     inkscape:window-maximized="1" />
  <metadata
     id="metadata5">
    <rdf:RDF>
      <cc:Work
         rdf:about="">
        <dc:format>image/svg+xml</dc:format>
        <dc:type
           rdf:resource="http://purl.org/dc/dcmitype/StillImage" />
        <dc:title></dc:title>
      </cc:Work>
    </rdf:RDF>
  </metadata>
  <g
     inkscape:label="Layer 1"
     inkscape:groupmode="layer"
     id="layer1">
    <rect
       style="fill:#ff6800;fill-opacity:0.333333;stroke:none;stroke-width:0.293648;stroke-miterlimit:4;stroke-dasharray:0.293648, 0.293648;stroke-dashoffset:0;stroke-opacity:1"
       id="rect3651"
       width="19.859352"
       height="37.083313"
       x="6.4242253"
       y="12.520405" />
    <rect
       style="fill:#a0480b;fill-opacity:0.333333;stroke:none;stroke-width:0.3;stroke-miterlimit:4;stroke-dasharray:0.3, 0.3;stroke-dashoffset:0;stroke-opacity:1"
       id="rect3683"
       width="13.669269"
       height="23.525349"
       x="29.505104"
       y="12.521145" />
    <rect
       style="fill:#b3b3b3;fill-opacity:0.333333;stroke:none;stroke-width:0.277966;stroke-miterlimit:4;stroke-dasharray:0.277966, 0.277966;stroke-dashoffset:0;stroke-opacity:1"
       id="rect3685"
       width="19.831642"
       height="10.195925"
       x="6.4242101"
       y="64.169342" />
    <rect
       style="fill:#008080;fill-opacity:0.333333;stroke:none;stroke-width:0.3;stroke-miterlimit:4;stroke-dasharray:0.3, 0.3;stroke-dashoffset:0;stroke-opacity:1"
       id="rect3687"
       width="16.022171"
       height="23.529062"
       x="27.152199"
       y="50.836193" />
    <rect
       style="fill:#00ffff;fill-opacity:0.333333;stroke:none;stroke-width:0.312023;stroke-miterlimit:4;stroke-dasharray:0.312023, 0.312023;stroke-dashoffset:0;stroke-opacity:1"
       id="rect3689"
       width="16.106499"
       height="12.384146"
       x="27.152199"
       y="37.21957" />
    <rect
       style="fill:#ffff00;fill-opacity:0.333333;stroke:none;stroke-width:0.283305;stroke-miterlimit:4;stroke-dasharray:0.283305, 0.283305;stroke-dashoffset:0;stroke-opacity:1"
       id="rect3691"
       width="19.830294"
       height="12.010897"
       x="6.4242101"
       y="49.60371" />
    <rect
       style="fill:#ff6800;fill-opacity:0.333333;stroke:none;stroke-width:0.0815504;stroke-miterlimit:4;stroke-dasharray:0.0815504, 0.0815504;stroke-dashoffset:0;stroke-opacity:1"
       id="rect3651-0"
       width="2.4089625"
       height="23.578192"
       x="26.311852"
       y="12.524319" />
    <g
       id="g3049"
       transform="translate(49.566288,9.290078)">
      <path
         style="fill:#989898;stroke-width:0.112043"
         d="m -8.6761342,38.276362 c 0.032359,-0.05236 0.1057699,-0.06619 0.163136,-0.03073 0.1465951,0.0906 0.1300889,0.125932 -0.058835,0.125932 -0.089725,0 -0.1366602,-0.04284 -0.104301,-0.0952 z"
         id="path3055" />
      <path
         style="fill:#232323;stroke-width:0.112043"
         d="m -9.1929994,38.639606 c 0,-0.05799 0.049842,-0.136236 0.1107603,-0.173885 0.063513,-0.03925 0.082296,0.0057 0.044034,0.105431 -0.074485,0.194105 -0.1547943,0.22962 -0.1547943,0.06845 z m 0.5041943,-0.118656 c 0.038086,-0.06162 0.091481,-0.112044 0.1186559,-0.112044 0.027175,0 0.049409,0.05042 0.049409,0.112044 0,0.06162 -0.053395,0.112043 -0.1186559,0.112043 -0.065261,0 -0.087495,-0.05042 -0.049409,-0.112043 z"
         id="path3053" />
      <path
         style="fill:#000000;stroke-width:0.112043"
         d="M -44.374557,34.151265 V 0.31422345 h 2.407418 2.407418 l 0.02952,-3.72543595 0.02952,-3.7254359 15.433948,-0.028407 15.4339475,-0.028407 v 3.7538426 3.75384255 h 2.0727987 2.0727988 V 34.151265 67.988307 h -19.943686 -19.943685 z m 20.615945,33.164783 v -0.560216 h -2.913123 -2.913123 v 0.560216 0.560216 h 2.913123 2.913123 z m 9.859799,0 v -0.560216 h -2.969144 -2.969144 v 0.560216 0.560216 h 2.969144 2.969144 z m -10.307972,-0.784302 c 0,-0.0713 -0.896346,-0.112043 -2.46495,-0.112043 -1.568605,0 -2.46495,0.04074 -2.46495,0.112043 0,0.0713 0.896345,0.112043 2.46495,0.112043 1.568604,0 2.46495,-0.04074 2.46495,-0.112043 z m 9.859799,0 c 0,-0.07138 -0.915019,-0.112043 -2.520971,-0.112043 -1.605952,0 -2.520972,0.04067 -2.520972,0.112043 0,0.07138 0.91502,0.112043 2.520972,0.112043 1.605952,0 2.520971,-0.04067 2.520971,-0.112043 z m -9.411626,-0.784302 v -0.560216 h -2.913123 -2.913123 v 0.560216 0.560215 h 2.913123 2.913123 z m 9.859799,0 v -0.560216 h -2.969144 -2.969144 v 0.560216 0.560215 h 2.969144 2.969144 z m -9.411627,-6.610548 v -5.938289 h -0.392151 -0.392151 V 50.36005 47.521493 l -0.69943,0.09565 c -1.551205,0.212141 -2.928789,1.203325 -3.622092,2.606128 -0.309534,0.6263 -0.422047,1.033027 -0.521963,1.886867 l -0.127373,1.088467 h -3.788989 -3.788989 v 0.840324 0.840324 h -3.249252 -3.249252 v 5.097965 5.097964 h 9.915821 9.915821 z m -4.166605,4.629276 c 0.08088,-0.03237 0.177517,-0.02839 0.214749,0.0088 0.03723,0.03723 -0.02895,0.06371 -0.147056,0.05885 -0.130525,-0.0054 -0.157074,-0.03192 -0.06769,-0.06769 z m 1.008388,0 c 0.08088,-0.03237 0.177518,-0.02839 0.21475,0.0088 0.03723,0.03723 -0.02894,0.06371 -0.147057,0.05885 -0.130524,-0.0054 -0.157073,-0.03192 -0.06769,-0.06769 z m -2.547139,-0.549037 c 0.0054,-0.130524 0.03193,-0.157073 0.06769,-0.06769 0.03237,0.08088 0.02839,0.177519 -0.0088,0.21475 -0.03723,0.03723 -0.06371,-0.02895 -0.05885,-0.147057 z m 0.602785,0.0579 c -0.04062,-0.06572 -0.04982,-0.143527 -0.02045,-0.172897 0.02937,-0.02937 0.08326,0.0244 0.119746,0.119497 0.07576,0.197433 0.01119,0.232161 -0.09929,0.0534 z m 1.944354,0.04296 c 0.08088,-0.03237 0.177518,-0.02839 0.21475,0.0088 0.03723,0.03723 -0.02894,0.06371 -0.147057,0.05885 -0.130524,-0.0054 -0.157073,-0.03193 -0.06769,-0.06769 z m 1.008389,0 c 0.08088,-0.03237 0.177518,-0.02839 0.21475,0.0088 0.03723,0.03723 -0.02895,0.06371 -0.147057,0.05885 -0.130525,-0.0054 -0.157073,-0.03193 -0.06769,-0.06769 z m 0.428662,-0.09153 c 0.03547,-0.09244 0.08431,-0.168065 0.108528,-0.168065 0.02422,0 0.04403,0.07563 0.04403,0.168065 0,0.09244 -0.04884,0.168065 -0.108527,0.168065 -0.05969,0 -0.07951,-0.07563 -0.04404,-0.168065 z m 0.497537,-0.0093 c 0.0054,-0.130525 0.03193,-0.157074 0.06769,-0.06769 0.03237,0.08088 0.02839,0.177519 -0.0088,0.214749 -0.03723,0.03723 -0.06371,-0.02895 -0.05885,-0.147056 z m -4.481727,-1.008389 c 0.0054,-0.130525 0.03193,-0.157073 0.06769,-0.06769 0.03237,0.08088 0.02839,0.177519 -0.0088,0.21475 -0.03723,0.03723 -0.06371,-0.02895 -0.05885,-0.147057 z m 0.560216,0 c 0.0054,-0.130525 0.03193,-0.157073 0.06769,-0.06769 0.03237,0.08088 0.02839,0.177519 -0.0088,0.21475 -0.03723,0.03723 -0.06371,-0.02895 -0.05885,-0.147057 z m 3.473338,-1.120432 c 0.0054,-0.130525 0.03193,-0.157073 0.06769,-0.06769 0.03237,0.08088 0.02839,0.177519 -0.0088,0.21475 -0.03723,0.03723 -0.06371,-0.02895 -0.05885,-0.147057 z m 0,-1.008389 c 0.0054,-0.130524 0.03193,-0.157073 0.06769,-0.06769 0.03237,0.08088 0.02839,0.177519 -0.0088,0.21475 -0.03723,0.03723 -0.06371,-0.02894 -0.05885,-0.147057 z m -3.473338,-0.448172 c 0.0054,-0.130525 0.03193,-0.157074 0.06769,-0.06769 0.03237,0.08088 0.02839,0.177519 -0.0088,0.214749 -0.03723,0.03723 -0.06371,-0.02895 -0.05885,-0.147056 z m 3.921511,0 c 0.0054,-0.130525 0.03193,-0.157074 0.06769,-0.06769 0.03237,0.08088 0.02839,0.177519 -0.0088,0.214749 -0.03723,0.03723 -0.06371,-0.02895 -0.05885,-0.147056 z m -0.448173,-0.560216 c 0.0054,-0.130525 0.03193,-0.157074 0.06769,-0.06769 0.03237,0.08088 0.02839,0.177519 -0.0088,0.21475 -0.03723,0.03723 -0.06371,-0.02895 -0.05885,-0.147057 z m -4.033554,-0.448173 c 0.0054,-0.130525 0.03193,-0.157073 0.06769,-0.06769 0.03237,0.08088 0.02839,0.177519 -0.0088,0.21475 -0.03723,0.03723 -0.06371,-0.02895 -0.05885,-0.147057 z m 0.560216,0 c 0.0054,-0.130525 0.03193,-0.157073 0.06769,-0.06769 0.03237,0.08088 0.02839,0.177519 -0.0088,0.21475 -0.03723,0.03723 -0.06371,-0.02895 -0.05885,-0.147057 z m 3.921511,0 c 0.0054,-0.130525 0.03193,-0.157073 0.06769,-0.06769 0.03237,0.08088 0.02839,0.177519 -0.0088,0.21475 -0.03723,0.03723 -0.06371,-0.02895 -0.05885,-0.147057 z m -4.481727,-1.008389 c 0.0054,-0.130524 0.03193,-0.157073 0.06769,-0.06769 0.03237,0.08088 0.02839,0.177519 -0.0088,0.21475 -0.03723,0.03723 -0.06371,-0.02895 -0.05885,-0.147057 z m 0.55137,0.0093 c 0,-0.09244 0.04884,-0.168065 0.108527,-0.168065 0.05969,0 0.07951,0.07563 0.04403,0.168065 -0.03547,0.09244 -0.08431,0.168064 -0.108527,0.168064 -0.02422,0 -0.04403,-0.07563 -0.04403,-0.168064 z m 3.417317,-0.05602 c -0.03809,-0.06162 -0.01585,-0.112043 0.04941,-0.112043 0.06526,0 0.118656,0.05042 0.118656,0.112043 0,0.06162 -0.02223,0.112043 -0.04941,0.112043 -0.02717,0 -0.08057,-0.05042 -0.118656,-0.112043 z m -2.990152,-0.07654 c 0.08088,-0.03237 0.177518,-0.02839 0.21475,0.0088 0.03723,0.03723 -0.02895,0.06371 -0.147057,0.05885 -0.130525,-0.0054 -0.157073,-0.03193 -0.06769,-0.06769 z m 1.008388,0 c 0.08088,-0.03237 0.177518,-0.02839 0.21475,0.0088 0.03723,0.03723 -0.02895,0.06371 -0.147057,0.05885 -0.130524,-0.0054 -0.157073,-0.03193 -0.06769,-0.06769 z m 1.008389,0 c 0.08088,-0.03237 0.177518,-0.02839 0.21475,0.0088 0.03723,0.03723 -0.02895,0.06371 -0.147057,0.05885 -0.130525,-0.0054 -0.157073,-0.03193 -0.06769,-0.06769 z m -3.004158,-0.371635 c 0,-0.06162 0.0534,-0.112043 0.118656,-0.112043 0.06526,0 0.08749,0.05042 0.04941,0.112043 -0.03809,0.06162 -0.09148,0.112043 -0.118656,0.112043 -0.02717,0 -0.04941,-0.05042 -0.04941,-0.112043 z m 4.425706,0 c -0.03809,-0.06162 -0.01585,-0.112043 0.04941,-0.112043 0.06526,0 0.118655,0.05042 0.118655,0.112043 0,0.06162 -0.02223,0.112043 -0.04941,0.112043 -0.02717,0 -0.08057,-0.05042 -0.118656,-0.112043 z m -3.998541,-0.07654 c 0.08088,-0.03236 0.177518,-0.02839 0.21475,0.0088 0.03723,0.03723 -0.02895,0.06371 -0.147057,0.05885 -0.130525,-0.0054 -0.157073,-0.03193 -0.06769,-0.06769 z m 3.585382,0 c 0.08088,-0.03236 0.177517,-0.02839 0.214749,0.0088 0.03723,0.03723 -0.02895,0.06371 -0.147056,0.05885 -0.130525,-0.0054 -0.157074,-0.03193 -0.06769,-0.06769 z m 18.620175,7.639453 v -0.392151 h -0.8963454 -0.8963454 v -1.512583 -1.512583 h -5.0979642 -5.097965 v -4.873878 -4.873879 h 5.097965 5.0979642 v -1.512583 -1.512583 h 0.8963454 0.8963454 v -1.680648 -1.680648 h -8.011087 c -7.936391,0 -8.011087,0.0021 -8.011087,0.224087 0,0.217084 0.0747,0.224086 2.390254,0.224086 1.31464,0 2.415516,0.02526 2.446391,0.05614 0.03087,0.03087 0.01383,0.371206 -0.03788,0.756292 -0.176888,1.317356 -1.073619,2.708443 -2.220238,3.444228 -0.613662,0.393785 -1.736579,0.785288 -2.252382,0.785288 h -0.326147 v 7.226785 7.226785 h 8.011087 8.011087 z m 0,-1.960755 v -1.456562 h -0.8403238 -0.8403239 v 1.456562 1.456561 h 0.8403239 0.8403238 z m 0,-6.335407 v -4.756869 l -5.966299,0.02659 c -5.103361,0.02274 -5.367261,0.03105 -1.824586,0.05743 l 4.141714,0.03084 0.3585536,0.347526 0.358555,0.347524 0.037481,-0.264898 c 0.036925,-0.260971 0.056575,-0.264897 1.3259772,-0.264897 h 1.2884965 l 0.030484,2.10081 0.030482,2.10081 h -1.1229034 c -1.1186682,0 -1.1229046,10e-4 -1.1229046,0.276051 0,0.272304 0.014827,0.276485 1.092421,0.308118 l 1.0924209,0.03207 0.030484,2.10081 0.030482,2.10081 h -1.3469898 -1.3469909 v -0.302088 -0.302086 l -0.3990877,0.386118 -0.3990878,0.38612 0.03495,-0.560216 0.03495,-0.560215 0.5322049,-0.03415 0.5322051,-0.03415 v -3.4672 -3.4672 H -9.5291239 -10.08934 v -0.560215 -0.560216 h -4.031135 -4.031137 l -0.03043,4.621781 -0.03043,4.621781 5.910277,0.02304 5.9102781,0.02304 z m -3.137209,4.038521 0.3800875,-0.392151 H -9.563171 c -0.398597,0 -0.4141307,0.01471 -0.4141307,0.392151 0,0.215683 0.015319,0.392151 0.034042,0.392151 0.018724,0 0.2050827,-0.176468 0.4141307,-0.392151 z m 2.8010795,-1.624626 v -2.016777 h -1.0644102 -1.0644102 v 1.554886 c 0,1.245433 -0.033448,1.582644 -0.1680648,1.694366 -0.092436,0.07672 -0.1680647,0.284566 -0.1680647,0.461891 v 0.322411 h 1.2324749 1.232475 z m 0,-4.817857 v -2.016777 h -1.232475 -1.2324749 v 0.322411 c 0,0.177325 0.075629,0.385176 0.1680647,0.461891 0.1346165,0.111722 0.1680648,0.448934 0.1680648,1.694366 v 1.554886 h 1.0644102 1.0644102 z M -37.42788,53.926888 c 0,-0.144998 -0.392151,-0.168065 -2.857101,-0.168065 -2.46495,0 -2.857101,0.02307 -2.857101,0.168065 0,0.144997 0.392151,0.168064 2.857101,0.168064 2.46495,0 2.857101,-0.02307 2.857101,-0.168064 z m 0,-0.952368 v -0.672259 h -2.857101 -2.857101 v 0.672259 0.67226 h 2.857101 2.857101 z m 28.3469237,-0.145325 c 0,-0.01831 -0.2016777,-0.230216 -0.4481727,-0.470912 l -0.4481727,-0.43763 v 0.470912 0.470912 h 0.4481727 c 0.246495,0 0.4481727,-0.01498 0.4481727,-0.03328 z M -28.991693,51.679264 c 0.149831,-1.451719 1.280214,-2.996293 2.703746,-3.694447 0.717191,-0.351736 2.097855,-0.670458 2.249112,-0.519201 0.03087,0.03087 0.05614,1.13175 0.05614,2.446391 v 2.390254 h 0.331417 0.331416 l 0.03273,-0.868334 0.03272,-0.868335 0.952367,-0.07181 c 1.072106,-0.08084 1.703435,-0.27985 2.490987,-0.785222 1.066888,-0.68462 1.910629,-2.027576 2.083709,-3.316576 l 0.09403,-0.70027 h -2.842165 -2.842165 l 0.0073,-2.661025 c 0.004,-1.463564 0.0057,-3.852244 0.0036,-5.308177 l -0.0037,-2.647152 -0.588226,-0.0545 c -2.204516,-0.204274 -4.201201,-2.287592 -4.269714,-4.454971 l -0.01594,-0.504194 2.433876,-0.03019 2.433876,-0.03019 0.03107,-1.59444 0.03107,-1.594438 1.204464,-0.0318 1.204464,-0.0318 V 24.679829 22.61082 h 2.80108 2.801079 l -0.0013,-0.308118 c -7.85e-4,-0.169466 -0.06867,-0.560216 -0.150976,-0.868335 -0.57334,-2.14636 -2.494898,-3.636665 -4.693558,-3.640191 -0.428691,-6.87e-4 -0.756292,-0.04975 -0.756292,-0.113256 0,-0.06162 -0.277307,-0.112043 -0.616237,-0.112043 h -0.616238 V 12.975103 8.3813328 h 0.616238 0.616237 V 5.8077882 3.2342436 l -1.372529,-0.031459 -1.372529,-0.031459 -0.0672,-0.5041944 c -0.03696,-0.2773068 -0.07478,0.8193158 -0.08403,2.4369393 l -0.01683,2.9411336 h -0.347968 c -0.509316,0 -1.634475,-0.3134117 -2.341069,-0.6521025 -0.880703,-0.4221451 -2.116403,-1.6805873 -2.550218,-2.5971498 -0.189584,-0.4005544 -0.380323,-0.9211194 -0.423862,-1.1568123 -0.09231,-0.499688 -0.183495,-0.4368721 -0.378101,0.2604668 -0.542665,1.9445442 -2.469253,3.6673258 -4.524712,4.0460587 -1.162583,0.2142153 -1.084082,0.4201182 -1.103389,-2.8941002 -0.0093,-1.5887454 -0.04707,-2.6617404 -0.08403,-2.3844336 l -0.06721,0.5041944 -3.781457,0.029501 -3.781457,0.029501 v 1.7912008 1.7912008 h 2.402316 c 1.414183,0 2.429663,0.044249 2.468802,0.107576 0.106243,0.1719056 0.124976,12.1051318 0.019,12.1051308 -0.05269,0 -0.07657,-0.201677 -0.05306,-0.448172 l 0.04274,-0.448173 h -2.4399 -2.4399 v 0.392151 0.392151 l 2.380917,0.02566 2.380918,0.02566 -2.380918,0.03259 -2.380917,0.03259 v 3.80724 3.80724 l 1.652637,0.02477 1.652637,0.02478 -1.652637,0.03424 -1.652637,0.03424 v 5.207012 5.207013 h 0.448173 0.448172 v 0.672259 0.67226 h 1.568605 1.568604 v -0.832532 c 0,-0.778061 -0.01649,-0.834874 -0.252097,-0.868334 l -0.252097,-0.0358 -0.0018,-5.01395 -0.0018,-5.013952 0.03091,4.985941 0.03092,4.98594 h 5.152832 5.152833 v 5.041943 5.041943 h -3.921511 -3.921511 v 2.745058 2.745058 h 4.017879 4.017878 z M -43.030039,33.25492 v -1.792691 h 1.568605 1.568604 v 1.792691 1.792691 h -1.568604 -1.568605 z m 3.025166,0 v -1.680648 h -1.456561 -1.456562 v 1.680648 1.680648 h 1.456562 1.456561 z m 3.361295,-6.502993 v -1.124919 l -0.462455,-0.439923 -0.462455,-0.439923 -1.13416,-0.03177 -1.13416,-0.03177 v -1.232475 -1.232475 l 1.13416,-0.03177 1.13416,-0.03177 0.462455,-0.439923 0.462455,-0.439923 v -1.124919 -1.124921 h 1.232475 1.232475 v 1.133614 1.133613 l 0.434991,0.434992 0.434991,0.434991 h 1.133613 1.133614 v 1.288496 1.288497 h -1.133614 -1.133613 l -0.434991,0.434991 -0.434991,0.434992 v 1.133612 1.133614 h -1.232475 -1.232475 z m 2.016777,0.900834 c 0,-0.06474 -0.354803,-0.112044 -0.840323,-0.112044 -0.485521,0 -0.840324,0.04731 -0.840324,0.112044 0,0.06474 0.354803,0.112043 0.840324,0.112043 0.48552,0 0.840323,-0.04731 0.840323,-0.112043 z m 0.33613,0 c 0,-0.06162 -0.05042,-0.112044 -0.112043,-0.112044 -0.06162,0 -0.112043,0.05042 -0.112043,0.112044 0,0.06162 0.05042,0.112043 0.112043,0.112043 0.06162,0 0.112043,-0.05042 0.112043,-0.112043 z m 0,-1.13242 c 0,-0.824138 -0.01817,-0.900119 -0.196076,-0.819726 -0.329646,0.148969 -1.355852,0.18719 -1.710112,0.06369 l -0.334676,-0.116669 v 0.890517 0.890517 h 1.120432 1.120432 z m -0.28538,-0.902343 c 0.156959,-0.07152 0.28538,-0.222773 0.28538,-0.336129 0,-0.186366 -0.107285,-0.206102 -1.120432,-0.206102 -1.051658,0 -1.120432,0.01398 -1.120432,0.227697 0,0.131411 0.106605,0.270547 0.252098,0.329028 0.363416,0.146075 1.369769,0.137513 1.703386,-0.01449 z m -0.835052,-0.654274 c 1.154683,0 1.21872,0.01217 1.252693,0.238008 0.03434,0.228254 0.049,0.22481 0.357843,-0.08403 0.308843,-0.308844 0.312287,-0.323507 0.08403,-0.357844 -0.22658,-0.03408 -0.238008,-0.09692 -0.238008,-1.308715 0,-1.211796 0.01143,-1.27463 0.238008,-1.308715 0.228254,-0.03434 0.22481,-0.049 -0.08403,-0.357843 -0.308843,-0.308843 -0.323507,-0.312287 -0.357843,-0.08403 -0.03397,0.225841 -0.09801,0.238008 -1.252693,0.238008 -1.15011,0 -1.218854,-0.01291 -1.252693,-0.235271 l -0.0358,-0.235271 -0.308119,0.243403 c -0.366189,0.289277 -0.386235,0.404663 -0.08403,0.48369 0.206452,0.05399 0.224086,0.152828 0.224086,1.256032 0,1.103204 -0.01763,1.202044 -0.224086,1.256032 -0.302203,0.07903 -0.282157,0.194413 0.08403,0.483691 l 0.308119,0.243402 0.0358,-0.23527 c 0.03384,-0.222361 0.102583,-0.235272 1.252693,-0.235272 z M -39.5567,24.515551 c 0,-0.06162 -0.05042,-0.112043 -0.112044,-0.112043 -0.06162,0 -0.112043,0.05042 -0.112043,0.112043 0,0.06162 0.05042,0.112044 0.112043,0.112044 0.06162,0 0.112044,-0.05042 0.112044,-0.112044 z m 1.841607,-0.140054 c -0.119289,-0.336901 -0.127932,-1.53332 -0.01335,-1.848712 0.09016,-0.24817 0.0775,-0.252097 -0.812313,-0.252097 h -0.903896 v 1.176453 1.176454 h 0.909413 c 0.894848,0 0.907983,-0.004 0.820151,-0.252098 z m 0.735386,-0.924356 c 0,-1.167413 -0.0021,-1.176453 -0.269148,-1.176453 -0.201152,0 -0.300222,0.08914 -0.392151,0.352848 -0.288105,0.826461 -0.05122,2.000059 0.403699,2.000059 0.252415,0 0.2576,-0.02368 0.2576,-1.176454 z m 3.789647,0.57059 c 0.208116,-0.738971 -0.0083,-1.670923 -0.400943,-1.726825 -0.247116,-0.03518 -0.251495,-0.01505 -0.251495,1.156235 0,1.167552 0.0051,1.191304 0.248793,1.156235 0.191653,-0.02758 0.284358,-0.162085 0.403645,-0.585645 z m 1.700468,-0.57059 v -1.176453 h -0.881363 -0.881364 l 0.166645,0.598722 c 0.147942,0.53152 0.147637,0.663564 -0.0027,1.176453 l -0.169357,0.577732 h 0.884075 0.884075 z m 0.33613,1.06441 c 0,-0.06162 -0.05042,-0.112043 -0.112043,-0.112043 -0.06162,0 -0.112043,0.05042 -0.112043,0.112043 0,0.06162 0.05042,0.112044 0.112043,0.112044 0.06162,0 0.112043,-0.05042 0.112043,-0.112044 z m -8.403238,-1.06441 c 0,-0.48552 -0.04731,-0.840324 -0.112044,-0.840324 -0.06474,0 -0.112043,0.354804 -0.112043,0.840324 0,0.48552 0.04731,0.840324 0.112043,0.840324 0.06474,0 0.112044,-0.354804 0.112044,-0.840324 z m 8.403238,0 c 0,-0.48552 -0.04731,-0.840324 -0.112043,-0.840324 -0.06474,0 -0.112043,0.354804 -0.112043,0.840324 0,0.48552 0.04731,0.840324 0.112043,0.840324 0.06474,0 0.112043,-0.354804 0.112043,-0.840324 z m -8.403238,-1.06441 c 0,-0.06162 -0.05042,-0.112043 -0.112044,-0.112043 -0.06162,0 -0.112043,0.05042 -0.112043,0.112043 0,0.06162 0.05042,0.112043 0.112043,0.112043 0.06162,0 0.112044,-0.05042 0.112044,-0.112043 z m 8.403238,0 c 0,-0.06162 -0.05042,-0.112043 -0.112043,-0.112043 -0.06162,0 -0.112043,0.05042 -0.112043,0.112043 0,0.06162 0.05042,0.112043 0.112043,0.112043 0.06162,0 0.112043,-0.05042 0.112043,-0.112043 z m -3.137209,-0.787075 c 0,-0.292282 -0.438407,-0.46127 -1.196876,-0.461347 -0.682741,-7e-5 -1.043988,0.161892 -1.043988,0.468061 0,0.204154 0.08138,0.220145 1.120432,0.220145 1.050302,0 1.120432,-0.0142 1.120432,-0.226859 z m -1.196876,-0.57339 c 0.319351,3.2e-5 0.719292,0.0528 0.888757,0.117273 l 0.308119,0.117214 v -0.893572 -0.893573 h -1.120432 -1.120432 v 0.900287 c 0,0.875398 0.0064,0.89686 0.231675,0.7763 0.127421,-0.06819 0.492961,-0.123962 0.812313,-0.123929 z m 0.860746,-1.776744 c 0,-0.06474 -0.354803,-0.112043 -0.840323,-0.112043 -0.485521,0 -0.840324,0.04731 -0.840324,0.112043 0,0.06474 0.354803,0.112043 0.840324,0.112043 0.48552,0 0.840323,-0.04731 0.840323,-0.112043 z m 0.33613,0 c 0,-0.06162 -0.05042,-0.112043 -0.112043,-0.112043 -0.06162,0 -0.112043,0.05042 -0.112043,0.112043 0,0.06162 0.05042,0.112043 0.112043,0.112043 0.06162,0 0.112043,-0.05042 0.112043,-0.112043 z m -1.904734,-6.498505 v -2.46495 h 1.456561 1.456562 v 2.46495 2.46495 h -1.456562 -1.456561 z m 2.801079,0 V 10.39811 h -1.344518 -1.344518 v 2.352907 2.352907 h 1.344518 1.344518 z m -3.809468,38.71092 v -0.72828 h -2.969144 -2.969144 v 0.72828 0.728281 h 2.969144 2.969144 z M -6.39192,50.061398 v -1.456562 h -0.8403238 -0.8403239 v 1.456562 1.456561 h 0.8403239 0.8403238 z m -30.811874,-0.112044 v -0.672259 h -2.969144 -2.969144 v 0.672259 0.67226 h 2.969144 2.969144 z m 0,-1.456561 v -0.672259 h -2.969144 -2.969144 v 0.672259 0.672259 h 2.969144 2.969144 z m -0.0018,-0.868335 c -0.0014,-0.06476 -2.602971,-1.021702 -5.796419,-2.132108 -0.106017,-0.03686 -0.140054,0.226509 -0.140054,1.083721 v 1.13242 h 2.969144 c 1.633029,0 2.968327,-0.03782 2.967329,-0.08403 z m 0.0018,-0.428257 c 0,-0.07635 -0.474771,-1.366244 -1.055047,-2.866439 l -1.055047,-2.727625 -1.905093,-0.03062 -1.905092,-0.03062 2.823942,2.831698 2.823942,2.831697 -2.580849,-2.526203 c -1.419468,-1.389411 -2.694293,-2.619898 -2.832947,-2.734412 l -0.252097,-0.20821 v 1.791983 1.791982 l 2.815463,1.007789 c 1.548505,0.554284 2.88462,1.007789 2.969144,1.007789 0.08452,0 0.153681,-0.06247 0.153681,-0.138813 z m 0.33613,-3.08508 v -2.565005 h -1.175491 -1.17549 l 0.267587,0.700269 c 0.300411,0.786171 1.572748,4.070757 1.689926,4.36261 0.04182,0.104148 0.147174,0.161644 0.234676,0.128067 0.130628,-0.05013 0.158792,-0.515864 0.158792,-2.625941 z m 1.456561,0.01199 v -2.576993 h -0.672259 -0.672259 v 2.576993 2.576993 h 0.672259 0.672259 z m 1.456561,0 v -2.576993 h -0.672259 -0.672259 v 2.576993 2.576993 h 0.672259 0.672259 z m 1.568605,0 v -2.576993 h -0.728281 -0.72828 v 2.576993 2.576993 h 0.72828 0.728281 z m 1.456561,0 v -2.576993 h -0.672259 -0.672259 v 2.576993 2.576993 h 0.672259 0.672259 z m 1.568605,0 v -2.576993 h -0.728281 -0.728281 v 2.576993 2.576993 h 0.728281 0.728281 z M -6.39192,43.282785 v -1.736669 h -8.011087 -8.011087 v 1.736669 1.736669 h 8.011087 8.011087 z m -31.03596,-3.137209 c 0,-0.131606 -0.153126,-0.168065 -0.705872,-0.168065 -0.399621,0 -0.764206,-0.05833 -0.840324,-0.134452 -0.07395,-0.07395 -0.134452,-0.376465 -0.134452,-0.672259 v -0.537807 h -1.568604 -1.568605 v 0.840324 0.840324 h 2.408929 c 2.066574,0 2.408928,-0.02389 2.408928,-0.168065 z m 4.369684,-0.672259 v -0.840324 h -1.120432 -1.120432 V 39.1708 c 0,0.295794 -0.0605,0.598311 -0.134451,0.672259 -0.07612,0.07612 -0.440704,0.134452 -0.840324,0.134452 -0.552747,0 -0.705872,0.03646 -0.705872,0.168065 0,0.142988 0.292557,0.168065 1.960755,0.168065 h 1.960756 z m 3.697425,-0.896346 v -1.736669 h -1.792691 -1.792691 v 1.736669 1.73667 h 1.792691 1.792691 z m 8.627324,1.624626 c 0,-0.06212 -0.296577,-0.112043 -0.665646,-0.112043 -0.723221,0 -0.790302,-0.04919 -0.911645,-0.668453 -0.06781,-0.34606 -0.07921,-0.314772 -0.09047,0.248291 l -0.01288,0.644249 h 0.840324 c 0.48552,0 0.840323,-0.04731 0.840323,-0.112044 z m 0.814446,0.03855 c -0.07586,-0.03069 -0.227115,-0.03256 -0.33613,-0.0042 -0.109015,0.02841 -0.04695,0.05352 0.137922,0.0558 0.184871,0.0023 0.274064,-0.02096 0.198208,-0.05165 z m 0.866202,-0.03855 c -0.217225,-0.140381 -0.33613,-0.140381 -0.33613,0 0,0.06162 0.113444,0.111272 0.252098,0.110328 0.203855,-0.0014 0.219936,-0.0225 0.08403,-0.110328 z m 1.344518,-0.937074 c 0,-1.988232 -0.356807,-2.88865 -1.344518,-3.392953 -0.446667,-0.228059 -0.667189,-0.25779 -1.932745,-0.260587 l -1.42855,-0.0032 0.01793,0.644248 c 0.01255,0.450852 0.03211,0.526664 0.06518,0.252547 0.07685,-0.637118 0.156459,-0.672709 1.50478,-0.672709 1.285914,0 1.653311,0.100231 2.204215,0.601333 0.474976,0.432038 0.612174,0.852463 0.666096,2.041156 0.05322,1.173291 -0.05051,1.615152 -0.379177,1.615152 -0.0939,0 -0.139574,0.05042 -0.101489,0.112043 0.03809,0.06162 0.21753,0.112044 0.398764,0.112044 h 0.329517 z m 2.800161,0.965085 c -5.6e-4,-0.04622 -0.05233,-0.532793 -0.115166,-1.081278 -0.131354,-1.146576 -0.03154,-1.615424 0.419413,-1.970146 0.409473,-0.322092 0.857844,-0.286599 1.291519,0.102237 l 0.365908,0.328076 -0.01936,1.086384 c -0.01064,0.597512 -0.04942,1.206169 -0.08617,1.352572 l -0.06681,0.266188 h 1.178587 1.178588 V 38.52095 36.728259 h 1.8487125 c 1.7740166,0 1.8487124,0.0091 1.8487124,0.224086 0,0.17429 0.074696,0.224086 0.3361296,0.224086 H -6.39192 v -2.352907 -2.352906 h -4.817857 -4.817856 v -1.176454 -1.176453 l -1.0364,-5.61e-4 c -0.680201,-3.36e-4 -1.213241,0.06282 -1.550943,0.183849 -0.550712,0.197363 -1.302948,0.140596 -1.397263,-0.105443 -0.03879,-0.101176 -1.039596,-0.126354 -4.097755,-0.103089 l -4.046436,0.03078 0.07602,0.573054 c 0.236146,1.780167 1.401566,3.313831 2.97728,3.918033 0.338931,0.129961 1.056121,0.287263 1.593756,0.349559 0.797069,0.09236 0.989781,0.151903 1.043949,0.322573 0.06018,0.189609 0.197649,0.209308 1.460643,0.209308 1.575685,0 2.150471,0.175759 2.697943,0.824981 0.51169,0.60679 0.62797,1.041489 0.685953,2.564325 l 0.05439,1.428551 h 1.329647 c 0.731306,0 1.329233,-0.03781 1.328728,-0.08403 z m 1.7256,-0.0932 c 0.03741,-0.09748 0.06114,-0.387387 0.05275,-0.644249 -0.0084,-0.25686 -0.03711,-0.353575 -0.06381,-0.214922 -0.04427,0.229856 -0.1113,0.252097 -0.759707,0.252097 -0.673825,0 -0.717058,-0.01617 -0.823686,-0.308119 l -0.112535,-0.308118 -0.0076,0.280108 c -0.0042,0.154059 0.02364,0.469181 0.06184,0.70027 l 0.06945,0.420162 h 0.757655 c 0.587524,0 0.772926,-0.0398 0.825664,-0.177229 z m 6.0062978,-1.559441 v -1.736669 h -1.7366693 -1.7366695 v 1.736669 1.73667 h 1.7366695 1.7366693 z m -13.8933538,1.232475 c 0,-0.135509 0.175178,-0.168065 0.904348,-0.168065 0.644413,0 0.951476,-0.04713 1.06831,-0.16396 0.143918,-0.143919 0.02995,-0.168668 -0.93236,-0.202473 -0.890095,-0.03127 -0.835124,-0.03731 0.292239,-0.03212 1.188057,0.0055 1.406111,0.03428 1.510109,0.199459 0.09584,0.152218 0.07467,0.228501 -0.100062,0.360577 -0.186302,0.140825 -0.192282,0.168083 -0.03752,0.171079 0.259422,0.005 0.32049,-0.227773 0.317433,-1.210065 -0.0047,-1.508691 -0.248892,-2.093497 -1.072271,-2.567868 -0.394428,-0.227241 -0.564859,-0.249366 -1.726135,-0.224086 l -1.288496,0.02805 -0.02709,1.736669 c -0.03529,2.262247 -0.04091,2.240864 0.589438,2.240864 0.37158,0 0.50206,-0.04368 0.50206,-0.168065 z m -0.521552,-0.453005 c -0.03649,-0.09509 -0.03613,-0.203116 7.84e-4,-0.240052 0.09688,-0.09688 0.418022,0.195178 0.344832,0.313602 -0.09563,0.154728 -0.272483,0.117095 -0.345641,-0.07355 z m 1.305854,-1.339686 c 0.52108,-0.523802 0.972629,-0.952367 1.003441,-0.952367 0.03081,0 -0.370317,0.428565 -0.891398,0.952367 -0.52108,0.523802 -0.972629,0.952367 -1.003441,0.952367 -0.03081,0 0.370318,-0.428565 0.891398,-0.952367 z m -1.190563,-0.336129 c 2.24e-4,-0.677862 0.01871,-0.940723 0.04101,-0.584136 0.0223,0.356586 0.0221,0.9112 -4.48e-4,1.232475 -0.02256,0.321275 -0.0408,0.02952 -0.04055,-0.648339 z m 1.862822,2.166168 c 0,-0.05135 -0.226887,-0.09337 -0.504194,-0.09337 -0.277307,0 -0.504194,0.04202 -0.504194,0.09337 0,0.05135 0.226887,0.09337 0.504194,0.09337 0.277307,0 0.504194,-0.04202 0.504194,-0.09337 z m 0.448173,0.08131 c 0,-0.02717 -0.05042,-0.08057 -0.112043,-0.118656 -0.06162,-0.03809 -0.112044,-0.01585 -0.112044,0.04941 0,0.06526 0.05042,0.118656 0.112044,0.118656 0.06162,0 0.112043,-0.02223 0.112043,-0.04941 z m 0.448173,-0.04892 c 0,-0.05408 -0.07563,-0.16109 -0.168065,-0.237805 -0.136302,-0.11312 -0.168065,-0.108653 -0.168065,0.02363 0,0.08971 0.03361,0.196723 0.0747,0.237805 0.106405,0.106406 0.261434,0.09239 0.261434,-0.02363 z m -19.327449,-0.117536 -0.784302,-0.06425 -0.06643,-0.560216 -0.06643,-0.560216 -0.0176,0.569553 c -0.0097,0.313254 0.01601,0.603166 0.05709,0.644248 0.04108,0.04108 0.431833,0.06579 0.868335,0.05491 l 0.793639,-0.01978 z m 2.585736,-0.51242 0.0087,-0.560216 -0.04244,0.527412 -0.04244,0.527411 -0.806624,0.04129 -0.806624,0.04128 0.840324,-0.0085 0.840323,-0.0085 0.0087,-0.560216 z m -1.857455,0.246495 c 0,-0.08011 -0.05711,-0.20277 -0.12692,-0.272576 -0.198041,-0.198041 -0.02289,-0.499051 0.266473,-0.457961 0.256291,0.03639 0.446889,0.540064 0.204369,0.540064 -0.06591,0 -0.119835,0.07563 -0.119835,0.168065 0,0.132153 0.155615,0.168064 0.72828,0.168064 h 0.728281 v -0.504194 -0.504194 h -1.568605 -1.568604 v 0.504194 0.504194 h 0.72828 c 0.522869,0 0.728281,-0.04108 0.728281,-0.145656 z m 18.935297,0.03361 c 0,-0.06162 -0.100839,-0.112043 -0.224086,-0.112043 -0.123248,0 -0.224087,0.05042 -0.224087,0.112043 0,0.06162 0.100839,0.112043 0.224087,0.112043 0.123247,0 0.224086,-0.05042 0.224086,-0.112043 z m 5.101241,-0.46309 c 0.04838,-0.22026 0.108292,-0.300584 0.160815,-0.215597 0.04604,0.0745 0.06812,-0.14569 0.04905,-0.489305 -0.04045,-0.729032 -0.296241,-1.143942 -0.747175,-1.211943 -0.394349,-0.05947 -0.956128,0.275909 -1.024769,0.611779 -0.123427,0.603952 -0.139273,0.861182 -0.04964,0.805786 0.05272,-0.03258 0.09586,0.01608 0.09586,0.10814 0,0.09206 0.04917,0.296715 0.10927,0.454785 0.09883,0.259943 0.167562,0.287402 0.719378,0.287402 0.592558,0 0.612326,-0.01009 0.687211,-0.351047 z m -23.700408,-0.04932 c 0,-0.104339 -0.07623,-0.161497 -0.186791,-0.140054 -0.281091,0.05452 -0.319687,0.316334 -0.04663,0.316334 0.137627,0 0.233424,-0.07235 0.233424,-0.17628 z m 14.646665,-1.420336 c -0.02486,-0.200277 -0.04519,-0.03641 -0.04519,0.364141 0,0.400554 0.02034,0.564417 0.04519,0.36414 0.02485,-0.200277 0.02485,-0.528004 0,-0.728281 z M -38.75197,37.207838 c 0.132539,-0.159699 2.841709,-0.208049 3.082423,-0.05501 0.07354,0.04675 0.153727,0.386313 0.178196,0.754576 0.04074,0.613116 0.04468,0.59872 0.04675,-0.170755 l 0.0023,-0.840324 h -1.761459 -1.76146 l 0.0018,0.840324 c 0.0015,0.680529 0.01042,0.723787 0.04711,0.227483 0.02492,-0.337062 0.09888,-0.677393 0.164364,-0.756292 z m 3.094361,0.668863 -0.0336,-0.644248 -1.384785,-0.03156 c -0.925284,-0.02109 -1.436487,0.01135 -1.540594,0.09775 -0.09408,0.07808 -0.155808,0.345825 -0.155808,0.675805 v 0.546498 h 1.574196 1.574196 z m 2.599413,-0.196075 v -0.840324 h -1.120432 -1.120432 v 0.840324 0.840324 h 1.120432 1.120432 z m 26.666276,-6.33044 c 0,-1.071296 -0.2155812,-1.456322 -0.2352548,-0.420162 -0.00614,0.323524 -0.050018,0.714275 -0.097502,0.868334 -0.047483,0.15406 -0.06039,-0.110642 -0.028681,-0.588226 l 0.057653,-0.868335 h -0.3056168 c -0.3641392,0 -0.3393396,-0.261573 0.029951,-0.315911 0.2150018,-0.03164 0.2433208,-0.105672 0.2433208,-0.636117 0,-0.51872 -0.041111,-0.63265 -0.3024763,-0.838241 -0.2960998,-0.232912 -0.3774141,-0.237216 -3.8574949,-0.204207 -3.38309,0.03209 -3.570309,0.04487 -3.871132,0.264366 -0.409939,0.299105 -0.820973,1.110167 -0.817847,1.613797 0.0037,0.594562 0.362014,1.278784 0.81693,1.559937 0.391359,0.241873 0.456392,0.245265 4.092357,0.213391 2.0320721,-0.01781 3.6363556,0.0046 3.5650726,0.04993 -0.071282,0.04527 -1.7480652,0.08309 -3.7261846,0.08403 l -3.596582,0.0017 -0.448249,-0.32471 c -0.47923,-0.347151 -0.817848,-1.003767 -0.817848,-1.585891 0,-0.794204 0.642264,-1.705634 1.338149,-1.898951 0.584284,-0.162315 6.9034771,-0.146207 7.212509,0.01838 0.4009588,0.213552 0.5175173,0.45373 0.5212764,1.07412 0.00196,0.323524 0.053982,0.588226 0.1156061,0.588226 0.066396,0 0.1120432,-0.410825 0.1120432,-1.008388 V 27.98889 h -4.7618347 -4.761835 v 2.184842 2.184842 h 4.761835 4.7618347 z m -1.5186164,-1.018151 c -0.041405,-0.06699 -0.023563,-0.173524 0.039646,-0.236733 0.141357,-0.141357 0.3585381,-0.02197 0.3585381,0.197086 0,0.188638 -0.2883588,0.217349 -0.3981846,0.03965 z M -18.431469,29.954738 c 0.151258,-0.151258 0.275015,-0.380437 0.275015,-0.509286 0,-0.12885 -0.123757,-0.358029 -0.275015,-0.509287 -0.57684,-0.576841 -1.853805,-0.226026 -1.853805,0.509287 0,0.735312 1.276965,1.086127 1.853805,0.509286 z m -0.906045,-0.404697 c -0.103118,-0.16685 0.01644,-0.257564 0.230962,-0.175244 0.099,0.03799 0.148618,0.119847 0.110264,0.181907 -0.09082,0.146949 -0.248188,0.143876 -0.341226,-0.0067 z m -0.323511,-0.654143 c 0.03333,-0.03333 0.233472,-0.06541 0.444749,-0.07127 0.211277,-0.0059 0.356866,0.01661 0.323531,0.04995 -0.03333,0.03334 -0.233473,0.06541 -0.44475,0.07127 -0.211277,0.0059 -0.356865,-0.01661 -0.32353,-0.04995 z m 12.8489431,1.259652 c -0.07703,-0.03108 -0.2030783,-0.03108 -0.280108,0 -0.07703,0.03108 -0.014005,0.05651 0.140054,0.05651 0.1540594,0 0.2170837,-0.02543 0.140054,-0.05651 z M -20.262865,29.871216 c -0.251096,-0.251096 -0.154522,-0.725086 0.210274,-1.032042 0.504264,-0.42431 1.235201,-0.408026 1.680669,0.03744 0.348492,0.34849 0.398304,0.563334 0.211527,0.91233 -0.11109,0.207573 -0.06853,0.21672 1.008388,0.21672 h 1.124374 v -0.896345 -0.896345 h -3.193231 -3.19323 v 0.896345 0.896345 h 1.14284 c 0.888876,0 1.112962,-0.02988 1.008389,-0.134451 z m 2.701492,-1.854018 c -0.874368,-0.01891 -2.336532,-0.01895 -3.249252,-9.6e-5 -0.91272,0.01885 -0.197327,0.03432 1.589761,0.03438 1.787089,5.3e-5 2.53386,-0.01537 1.659491,-0.03428 z M -6.39192,25.019746 v -1.73667 h -6.834634 -6.834634 v 1.73667 1.736669 h 6.834634 6.834634 z m 0,-4.873879 V 17.120701 H -9.3610642 -12.330208 V 11.070369 5.0200372 H -9.3610642 -6.39192 V 4.1255517 3.2310672 l -2.9411334,-0.029872 -2.9411336,-0.029871 -0.04203,-0.5041944 c -0.04059,-0.4868828 -0.04729,-0.4743641 -0.195153,0.3646054 -0.39795,2.2579592 -2.022542,4.0462088 -4.203192,4.6266093 -0.330861,0.088062 -0.790638,0.1607103 -1.021727,0.1614419 l -0.420162,0.00133 -0.0202,-2.8290905 c -0.0111,-1.5559997 -0.03908,-2.5895981 -0.06216,-2.2968853 l -0.04196,0.5322052 h -0.890207 -0.890207 V 5.5802532 7.93316 h 1.792691 1.792691 v 1.5686046 1.5686044 h 0.280108 c 0.169191,0 0.280108,-0.06393 0.280108,-0.161452 0,-0.195268 0.183714,-0.324897 0.331237,-0.233723 0.150212,0.09284 0.01,0.408065 -0.146901,0.330201 -0.07057,-0.03503 -0.04002,0.0087 0.06789,0.09713 0.107914,0.08845 0.315652,0.137978 0.461638,0.11007 0.218066,-0.04169 0.288022,0.01406 0.39202,0.31239 0.06962,0.199721 0.126588,0.481656 0.126588,0.626519 0,0.188693 0.06355,0.263388 0.224086,0.263388 0.123248,0 0.224087,0.07273 0.224087,0.161632 0,0.101321 -0.08362,0.145529 -0.224087,0.118476 -0.175345,-0.03377 -0.224086,0.01715 -0.224086,0.234119 0,0.1525 -0.07413,0.454697 -0.164738,0.671548 -0.143,0.342245 -0.193778,0.378734 -0.384786,0.276509 -0.332342,-0.177864 -0.376675,-0.147885 -0.322922,0.218364 0.05666,0.386038 -0.188381,0.476348 -0.304007,0.112043 -0.04545,-0.143183 -0.169525,-0.224086 -0.343681,-0.224086 h -0.272557 v 1.568605 1.568604 h -1.792691 -1.792691 v 0.280108 c 0,0.241076 0.05074,0.280277 0.364141,0.28132 0.970548,0.0032 2.286725,0.655946 3.152054,1.563153 0.712716,0.747208 1.119833,1.501593 1.311717,2.430601 0.227762,1.102719 0.356363,1.046977 -2.415467,1.046977 -2.337749,0 -2.412445,0.0069 -2.412445,0.224087 0,0.221637 0.0747,0.224086 6.834634,0.224086 h 6.834634 z m -35.96586,-4.649792 v -2.520972 l -0.36414,-0.01793 -0.36414,-0.01793 0.36414,-0.04519 0.36414,-0.04519 V 10.391011 7.93316 h -0.333986 -0.333986 l -0.03015,2.436939 c -0.01658,1.340317 -0.01574,3.609191 0.0019,5.041944 l 0.03203,2.605004 h 0.332112 0.332111 z m 0.616238,0 v -2.46495 l -0.252097,-0.0358 -0.252098,-0.0358 v 2.536557 2.536557 l 0.252098,-0.0358 0.252097,-0.0358 z m 3.417317,0 v -2.520972 h -1.624627 -1.624626 v 2.520972 2.520972 h 1.624626 1.624627 z m 17.478735,-0.224086 c 0,-2.110147 -0.0077,-2.184842 -0.224086,-2.184842 -0.19553,0 -0.224189,0.07496 -0.224883,0.588226 -0.0016,1.15673 -0.135232,2.10081 -0.297438,2.10081 -0.12705,0 -0.148581,-0.486987 -0.123851,-2.801189 0.01869,-1.748922 0.07202,-2.81167 0.141978,-2.829091 0.128159,-0.03191 0.270932,0.982843 0.284736,2.023754 0.008,0.600311 0.03794,0.701648 0.19845,0.670807 0.168308,-0.03234 0.192415,-0.273036 0.219502,-2.191708 l 0.03043,-2.15538 h -0.562636 -0.562635 v 4.481727 4.481728 h 0.560216 0.560216 z m 4.257641,0.224086 v -1.512583 h -0.672259 -0.672259 v -1.456561 -1.456562 h 0.672259 0.672259 V 9.5577862 8.0452032 h -1.736669 -1.73667 v 4.4817278 4.481727 h 1.73667 1.736669 z m -2.229902,-2.089518 c -0.139714,-0.400783 -0.165823,-1.47172 -0.03897,-1.598571 0.04622,-0.04622 0.09033,-0.13025 0.09804,-0.186737 0.0077,-0.05649 0.02031,-0.153126 0.02801,-0.21475 0.03165,-0.253228 0.350135,-0.100357 0.350135,0.168065 0,0.174289 0.06349,0.280108 0.168065,0.280108 0.130717,0 0.168065,0.14939 0.168065,0.672259 0,0.522868 -0.03735,0.672259 -0.168065,0.672259 -0.104573,0 -0.168065,0.105818 -0.168065,0.280108 0,0.399902 -0.289221,0.351783 -0.437211,-0.07274 z m 0.295727,-1.467853 c -0.02263,-0.323525 -0.04115,-0.05882 -0.04115,0.588227 0,0.647049 0.01852,0.911751 0.04115,0.588226 0.02263,-0.323524 0.02263,-0.852928 0,-1.176453 z m 0.36557,0.588227 c 0,-0.308119 -0.05042,-0.560216 -0.112043,-0.560216 -0.06162,0 -0.112043,0.252097 -0.112043,0.560216 0,0.308118 0.05042,0.560216 0.112043,0.560216 0.06162,0 0.112043,-0.252098 0.112043,-0.560216 z m 6.400667,-4.104233 0.347525,-0.358555 -0.264898,-0.037481 c -0.259235,-0.03668 -0.265572,-0.065621 -0.296464,-1.3539881 l -0.03157,-1.3165074 h 2.6853834 2.6853825 l 0.03522,1.1766898 0.03522,1.1766899 -2.2128527,-2.241e-4 -2.2128522,-2.487e-4 v 0.5602159 0.5602159 h -0.504195 -0.504194 v 4.0298048 4.029804 l 2.7730685,0.03176 2.7730686,0.03176 0.010633,-5.910278 0.010633,-5.9102779 h -2.8957447 -2.8957434 l 0.02659,5.9662999 c 0.02274,5.103361 0.03105,5.367261 0.05743,1.824586 l 0.03084,-4.1417144 0.347526,-0.3585539 z m -9.79045,4.305975 c -0.02038,-0.573136 -0.03714,-0.134516 -0.03726,0.974711 -1.12e-4,1.109228 0.01655,1.578157 0.03705,1.042067 0.02049,-0.536091 0.02059,-1.443641 2.24e-4,-2.016778 z m 3.953296,-0.201742 c 0.02676,-1.397241 0.01654,-1.485876 -0.129223,-1.120432 -0.125798,0.3154 -0.103158,2.516986 0.02451,2.383085 0.0452,-0.04741 0.09232,-0.615604 0.104716,-1.262653 z m 0.976005,-0.70027 c -0.02188,-0.385149 -0.03978,-0.07003 -0.03978,0.70027 0,0.770297 0.0179,1.085418 0.03978,0.70027 0.02188,-0.385149 0.02188,-1.015392 0,-1.40054 z m 1.051768,1.859503 c 0.104331,-0.125712 0.153772,-0.498431 0.153772,-1.159233 0,-1.121714 -0.113675,-1.344519 -0.685977,-1.344519 h -0.378433 v 1.344519 1.344518 h 0.378433 c 0.215328,0 0.444707,-0.07986 0.532205,-0.185285 z m -1.358811,-0.711061 c 0,-0.709606 -0.02134,-0.784302 -0.224086,-0.784302 -0.202744,0 -0.224086,0.0747 -0.224086,0.784302 0,0.709607 0.02134,0.784303 0.224086,0.784303 0.202744,0 0.224086,-0.0747 0.224086,-0.784303 z m 1.900793,0.567582 c 0.170224,-0.318067 0.142517,-0.679625 -0.05208,-0.679625 -0.103058,0 -0.168065,0.104801 -0.168065,0.270944 0,0.14902 -0.0306,0.350698 -0.06801,0.448173 -0.09727,0.253484 0.149454,0.21967 0.288154,-0.03949 z M -41.741542,10.39811 V 7.9891816 l -0.252097,-0.035803 -0.252098,-0.035803 v 2.4805354 2.480535 l 0.252098,-0.0358 0.252097,-0.0358 z m 3.417317,0 V 7.93316 h -1.624627 -1.624626 v 2.46495 2.46495 h 1.624626 1.624627 z m 23.417024,2.128821 c 0,-0.124493 -0.0747,-0.224087 -0.168065,-0.224087 -0.09337,0 -0.168065,0.09959 -0.168065,0.224087 0,0.124492 0.0747,0.224086 0.168065,0.224086 0.09337,0 0.168065,-0.09959 0.168065,-0.224086 z m 0,-0.567582 c 0,-0.289217 -0.206697,-0.688866 -0.320047,-0.618811 -0.149197,0.09221 -0.0028,0.850263 0.16424,0.850263 0.08569,0 0.155807,-0.104153 0.155807,-0.231452 z m -2.016778,-0.608872 c 0,-0.09337 -0.09959,-0.168065 -0.224086,-0.168065 -0.124492,0 -0.224086,0.0747 -0.224086,0.168065 0,0.09337 0.09959,0.168065 0.224086,0.168065 0.124492,0 0.224086,-0.0747 0.224086,-0.168065 z m -4.629275,-1.085418 c -0.03577,-0.08938 -0.06232,-0.06283 -0.06769,0.06769 -0.0049,0.118111 0.02162,0.184287 0.05885,0.147057 0.03723,-0.03723 0.04121,-0.13387 0.0088,-0.21475 z m 10.455521,-1.9397478 c 0,-0.2156831 -0.01532,-0.3921512 -0.03404,-0.3921512 -0.01872,0 -0.205082,0.1764681 -0.41413,0.3921512 l -0.380088,0.3921511 h 0.41413 c 0.398597,0 0.414131,-0.014709 0.414131,-0.3921511 z M -34.156132,7.8067081 c 1.991733,-0.4241877 3.701835,-2.0264287 4.281516,-4.011471 0.09774,-0.3347099 0.177715,-0.7981138 0.177715,-1.0297871 0,-0.2316733 0.05042,-0.4523852 0.112043,-0.4904708 0.06713,-0.041489 0.112577,0.1018258 0.113373,0.3575279 0.0018,0.5779094 0.257382,1.4978333 0.628117,2.2608138 0.394152,0.8111747 1.585667,1.9985176 2.395719,2.387331 0.674831,0.3239101 1.825565,0.6525081 2.285047,0.6525081 h 0.291946 V 4.7465421 c 0,-2.0035528 0.0416,-3.2123272 0.112044,-3.2558652 0.06162,-0.038086 0.112043,-0.2931583 0.112043,-0.56682838 V 0.42626664 h -5.938289 -5.938288 v 0.50419433 c 0,0.27730693 0.05042,0.50419433 0.112043,0.50419433 0.07212,0 0.112043,1.1577795 0.112043,3.2492524 V 7.93316 h 0.274593 c 0.151027,0 0.541777,-0.056903 0.868335,-0.1264519 z m 23.058399,-0.041613 c 0.114969,-0.1385302 0.51118,-0.1680648 2.2545817,-0.1680648 h 2.1151018 V 6.5326202 5.46821 H -9.3050426 -11.882036 V 6.700685 7.93316 h 0.322411 c 0.177325,0 0.385177,-0.075629 0.461892,-0.1680649 z M -38.324225,7.3729441 V 6.9247714 h -2.408929 -2.408928 v 0.4481727 0.4481728 h 2.408928 2.408929 z m 21.60966,0.1733577 c 2.488415,-0.6623153 4.16027,-2.8504145 4.16027,-5.4449023 0,-0.3698006 0.0499,-0.6667442 0.112043,-0.6667442 0.06162,0 0.112044,-0.2268874 0.112044,-0.50419433 V 0.42626664 h -2.969145 -2.969144 v 0.50419433 c 0,0.27730693 0.05042,0.50419433 0.112043,0.50419433 0.07203,0 0.112044,1.1204319 0.112044,3.1372092 v 3.1372092 l 0.36414,-0.00133 c 0.200277,-7.843e-4 0.634844,-0.07338 0.965705,-0.1614419 z m 6.065004,-10.9295035 V -7.0806268 H -24.03872 -37.42788 v 3.6974251 3.69742515 h 13.38916 13.389159 z"
         id="path3051" />
    </g>
    <rect
       style="fill:none;fill-opacity:0.220884;stroke:#000000;stroke-width:0.3;stroke-miterlimit:4;stroke-dasharray:0.3, 0.3;stroke-dashoffset:0;stroke-opacity:1"
       id="rect3033-1"
       width="4.4308128"
       height="6.6115608"
       x="20.536537"
       y="66.410187" />
    <rect
       style="fill:#b3b3b3;fill-opacity:0.333333;stroke:none;stroke-width:0.0925341;stroke-miterlimit:4;stroke-dasharray:0.0925341, 0.0925341;stroke-dashoffset:0;stroke-opacity:1"
       id="rect3685-5"
       width="13.333139"
       height="1.6806479"
       x="12.922707"
       y="62.488689" />
    <rect
       style="fill:#ffff00;fill-opacity:0.333333;stroke:none;stroke-width:0.0588478;stroke-miterlimit:4;stroke-dasharray:0.0588478, 0.0588478;stroke-dashoffset:0;stroke-opacity:1"
       id="rect3691-2"
       width="5.7142029"
       height="1.798454"
       x="6.4242101"
       y="61.592342" />
  </g>
</svg>
