<?xml version="1.0" encoding="UTF-8" standalone="no"?>
<svg
   xmlns:dc="http://purl.org/dc/elements/1.1/"
   xmlns:cc="http://creativecommons.org/ns#"
   xmlns:rdf="http://www.w3.org/1999/02/22-rdf-syntax-ns#"
   xmlns:svg="http://www.w3.org/2000/svg"
   xmlns="http://www.w3.org/2000/svg"
   xmlns:sodipodi="http://sodipodi.sourceforge.net/DTD/sodipodi-0.dtd"
   xmlns:inkscape="http://www.inkscape.org/namespaces/inkscape"
   width="50mm"
   height="80mm"
   viewBox="0 0 50 80"
   version="1.1"
   id="svg8"
   sodipodi:docname="planpietro1a.svg"
   inkscape:version="1.0.1 (3bc2e813f5, 2020-09-07)">
  <defs
     id="defs2" />
  <sodipodi:namedview
     id="base"
     pagecolor="#ffffff"
     bordercolor="#666666"
     borderopacity="1.0"
     inkscape:pageopacity="0.0"
     inkscape:pageshadow="2"
     inkscape:zoom="1.4"
     inkscape:cx="-52.40359"
     inkscape:cy="156.66058"
     inkscape:document-units="mm"
     inkscape:current-layer="layer1"
     inkscape:document-rotation="0"
     showgrid="false"
     inkscape:window-width="1920"
     inkscape:window-height="1137"
     inkscape:window-x="-8"
     inkscape:window-y="-8"
     inkscape:window-maximized="1" />
  <metadata
     id="metadata5">
    <rdf:RDF>
      <cc:Work
         rdf:about="">
        <dc:format>image/svg+xml</dc:format>
        <dc:type
           rdf:resource="http://purl.org/dc/dcmitype/StillImage" />
        <dc:title></dc:title>
      </cc:Work>
    </rdf:RDF>
  </metadata>
  <g
     inkscape:label="Layer 1"
     inkscape:groupmode="layer"
     id="layer1">
    <rect
       style="fill:none;fill-opacity:0.220884;stroke:#000000;stroke-width:0.3;stroke-miterlimit:4;stroke-dasharray:0.3, 0.3;stroke-dashoffset:0;stroke-opacity:1"
       id="rect3033"
       width="4.4308128"
       height="6.6115608"
       x="25.705063"
       y="67.119293" />
    <rect
       style="fill:#ff6800;fill-opacity:0.333333;stroke:none;stroke-width:0.295708;stroke-miterlimit:4;stroke-dasharray:0.295708, 0.295708;stroke-dashoffset:0;stroke-opacity:1"
       id="rect3651-9"
       width="20.139025"
       height="37.083313"
       x="-44.109615"
       y="13.19447"
       transform="scale(-1,1)" />
    <rect
       style="fill:#a0480b;fill-opacity:0.333333;stroke:none;stroke-width:0.32659;stroke-miterlimit:4;stroke-dasharray:0.32659, 0.32659;stroke-dashoffset:0;stroke-opacity:1"
       id="rect3683-8"
       width="16.199764"
       height="23.525349"
       x="-23.041691"
       y="13.19521"
       transform="scale(-1,1)" />
    <rect
       style="fill:#b3b3b3;fill-opacity:0.333333;stroke:none;stroke-width:0.279917;stroke-miterlimit:4;stroke-dasharray:0.279917, 0.279917;stroke-dashoffset:0;stroke-opacity:1"
       id="rect3685-9"
       width="20.110926"
       height="10.195925"
       x="-44.109631"
       y="64.843399"
       transform="scale(-1,1)" />
    <rect
       style="fill:#008080;fill-opacity:0.333333;stroke:none;stroke-width:0.302105;stroke-miterlimit:4;stroke-dasharray:0.302105, 0.302105;stroke-dashoffset:0;stroke-opacity:1"
       id="rect3687-8"
       width="16.247807"
       height="23.529062"
       x="-23.089737"
       y="51.510258"
       transform="scale(-1,1)" />
    <rect
       style="fill:#00ffff;fill-opacity:0.333333;stroke:none;stroke-width:0.314213;stroke-miterlimit:4;stroke-dasharray:0.314213, 0.314213;stroke-dashoffset:0;stroke-opacity:1"
       id="rect3689-3"
       width="16.333321"
       height="12.384146"
       x="-23.089737"
       y="37.893635"
       transform="scale(-1,1)" />
    <rect
       style="fill:#ffff00;fill-opacity:0.333333;stroke:none;stroke-width:0.283877;stroke-miterlimit:4;stroke-dasharray:0.283877, 0.283877;stroke-dashoffset:0;stroke-opacity:1"
       id="rect3691-9"
       width="19.830294"
       height="12.059439"
       x="23.878464"
       y="50.306454" />
    <rect
       style="fill:#b3b3b3;fill-opacity:0.333333;stroke:none;stroke-width:0.0913573;stroke-miterlimit:4;stroke-dasharray:0.0913573, 0.0913573;stroke-dashoffset:0;stroke-opacity:1"
       id="rect3685-9-3"
       width="13.260126"
       height="1.6471857"
       x="-37.258831"
       y="63.196213"
       transform="scale(-1,1)" />
    <rect
       style="fill:#ffff00;fill-opacity:0.333333;stroke:none;stroke-width:0.0530209;stroke-miterlimit:4;stroke-dasharray:0.0530209, 0.0530209;stroke-dashoffset:0;stroke-opacity:1"
       id="rect3691-9-9"
       width="5.7207971"
       height="1.4582435"
       x="38.044037"
       y="62.183712" />
    <g
       id="g3019"
       transform="translate(-0.34217587,0.10514342)">
      <path
         style="fill:#989898;stroke-width:0.112172"
         d="m 9.9631731,48.148657 c 0.032396,-0.05242 0.1058929,-0.06627 0.1633239,-0.03077 0.146765,0.0907 0.130239,0.126077 -0.0589,0.126077 -0.089829,0 -0.1368185,-0.04289 -0.1044219,-0.09531 z"
         id="path3025" />
      <path
         style="fill:#232323;stroke-width:0.112172"
         d="m 9.4457116,48.51232 c 0,-0.05805 0.0499,-0.136393 0.1108877,-0.174085 0.063586,-0.0393 0.082391,0.0057 0.044085,0.105552 -0.074571,0.19433 -0.1549727,0.229886 -0.1549727,0.06853 z m 0.5047762,-0.118793 c 0.03813,-0.0617 0.091586,-0.112172 0.1187922,-0.112172 0.02721,0 0.04947,0.05048 0.04947,0.112172 0,0.0617 -0.05346,0.112173 -0.118793,0.112173 -0.065336,0 -0.087596,-0.05048 -0.049466,-0.112173 z"
         id="path3023" />
      <path
         style="fill:#000000;stroke-width:0.112172"
         d="M 5.6318469,44.01911 V 10.142711 H 7.5948655 9.5578841 V 6.3849332 2.627155 H 24.981602 40.405319 v 3.7556321 3.7556319 l 2.495838,0.03019 2.495838,0.03019 v 33.820003 33.820003 l -19.882574,0.02835 -19.8825741,0.02835 z M 20.775133,77.221855 v -0.560862 h -2.972571 -2.972571 v 0.560862 0.560862 h 2.972571 2.972571 z m 9.759007,0 V 76.660993 H 27.617655 24.70117 v 0.560862 0.560862 h 2.916485 2.916485 z M 20.326443,76.436648 c 0,-0.07146 -0.916075,-0.112173 -2.523881,-0.112173 -1.607805,0 -2.523881,0.04071 -2.523881,0.112173 0,0.07146 0.916076,0.112172 2.523881,0.112172 1.607806,0 2.523881,-0.04071 2.523881,-0.112172 z m 9.759007,0 c 0,-0.07138 -0.89738,-0.112173 -2.467795,-0.112173 -1.570415,0 -2.467795,0.04079 -2.467795,0.112173 0,0.07138 0.89738,0.112172 2.467795,0.112172 1.570415,0 2.467795,-0.04079 2.467795,-0.112172 z M 20.775133,75.65144 v -0.560862 h -2.972571 -2.972571 v 0.560862 0.560863 h 2.972571 2.972571 z m 9.759007,0 V 75.090578 H 27.617655 24.70117 v 0.560862 0.560863 h 2.916485 2.916485 z m -7.179039,-7.90816 v -7.235125 h -0.326524 c -0.516399,0 -1.640612,-0.391954 -2.254982,-0.786193 -1.167145,-0.748957 -2.036537,-2.098949 -2.221174,-3.449045 -0.05266,-0.385067 -0.07046,-0.725412 -0.03955,-0.756323 0.03091,-0.03091 1.133057,-0.0562 2.449215,-0.0562 2.318231,0 2.393013,-0.007 2.393013,-0.224345 0,-0.222253 -0.07478,-0.224345 -8.020334,-0.224345 H 7.3144343 v 1.682587 1.682587 h 0.8973799 0.8973799 v 1.514329 1.514328 h 5.1038489 5.103848 v 4.879503 4.879503 H 14.213043 9.1091941 v 1.514328 1.514329 H 8.2118142 7.3144343 v 0.392604 0.392603 h 8.0203327 8.020334 z m 20.751911,2.131277 V 64.77071 h -3.253003 -3.253002 v -0.839821 -0.839821 l -3.841908,-0.02952 -3.841908,-0.02952 -0.06448,-1.018213 c -0.07802,-1.23185 -0.460602,-2.147181 -1.273258,-3.046258 -0.656773,-0.726616 -1.833673,-1.335512 -2.840682,-1.469693 l -0.701078,-0.09342 v 2.841833 2.841832 h -0.392604 -0.392603 v 5.945142 5.945141 h 9.927265 9.927266 z M 26.04724,73.625715 c 0,-0.06534 0.05048,-0.08759 0.112173,-0.04947 0.0617,0.03813 0.112172,0.09159 0.112172,0.118793 0,0.02721 -0.05048,0.04947 -0.112172,0.04947 -0.0617,0 -0.112173,-0.05346 -0.112173,-0.118793 z m 0.98852,0.04217 c 0.08097,-0.0324 0.177723,-0.02842 0.214998,0.0088 0.03727,0.03727 -0.02898,0.06379 -0.147226,0.05892 -0.130676,-0.0054 -0.157255,-0.03196 -0.06777,-0.06777 z m 1.009553,0 c 0.08097,-0.0324 0.177723,-0.02842 0.214998,0.0088 0.03727,0.03727 -0.02898,0.06379 -0.147227,0.05892 -0.130675,-0.0054 -0.157254,-0.03196 -0.06777,-0.06777 z m 1.009552,0 c 0.08097,-0.0324 0.177723,-0.02842 0.214998,0.0088 0.03727,0.03727 -0.02898,0.06379 -0.147226,0.05892 -0.130676,-0.0054 -0.157255,-0.03196 -0.06777,-0.06777 z m 1.488131,-0.10098 c 0.0054,-0.130675 0.03196,-0.157255 0.06777,-0.06777 0.0324,0.08097 0.02842,0.177724 -0.0089,0.214997 -0.03727,0.03727 -0.06379,-0.02898 -0.05891,-0.147226 z m -3.926037,-0.44869 c 0.0054,-0.130675 0.03196,-0.157255 0.06777,-0.06777 0.0324,0.08097 0.02842,0.177724 -0.0089,0.214997 -0.03727,0.03727 -0.06379,-0.02898 -0.05892,-0.147226 z m 1.428354,0.10098 c 0.08097,-0.0324 0.177723,-0.02842 0.214998,0.0088 0.03727,0.03727 -0.02898,0.06379 -0.147227,0.05892 -0.130675,-0.0054 -0.157254,-0.03196 -0.06777,-0.06777 z m 1.009552,0 c 0.08097,-0.0324 0.177723,-0.02842 0.214998,0.0088 0.03727,0.03727 -0.02898,0.06379 -0.147226,0.05892 -0.130676,-0.0054 -0.157255,-0.03196 -0.06777,-0.06777 z m 0.98171,-0.06843 c 0.04213,-0.110627 0.104847,-0.172883 0.139384,-0.138346 0.03454,0.03454 7.1e-5,0.125049 -0.07659,0.20114 -0.110784,0.109958 -0.123668,0.09707 -0.0628,-0.06279 z m 0.05773,-0.593415 c 0.0054,-0.130676 0.03196,-0.157255 0.06777,-0.06777 0.0324,0.08097 0.02842,0.177724 -0.0088,0.214998 -0.03728,0.03727 -0.06379,-0.02898 -0.05891,-0.147226 z m 0.44869,0 c 0.0054,-0.130676 0.03196,-0.157255 0.06777,-0.06777 0.0324,0.08097 0.02842,0.177724 -0.0089,0.214998 -0.03727,0.03727 -0.06379,-0.02898 -0.05891,-0.147226 z m -3.926037,-0.44869 c 0.0054,-0.130676 0.03196,-0.157255 0.06777,-0.06777 0.0324,0.08097 0.02842,0.177723 -0.0089,0.214997 -0.03727,0.03727 -0.06379,-0.02898 -0.05892,-0.147226 z m 3.477347,-0.560863 c 0.0054,-0.130675 0.03196,-0.157254 0.06777,-0.06777 0.0324,0.08097 0.02842,0.177724 -0.0088,0.214998 -0.03728,0.03727 -0.06379,-0.02898 -0.05891,-0.147227 z m 0.44869,0 c 0.0054,-0.130675 0.03196,-0.157254 0.06777,-0.06777 0.0324,0.08097 0.02842,0.177724 -0.0089,0.214998 -0.03727,0.03727 -0.06379,-0.02898 -0.05891,-0.147227 z m -0.44869,-1.009552 c 0.0054,-0.130675 0.03196,-0.157255 0.06777,-0.06777 0.0324,0.08097 0.02842,0.177724 -0.0088,0.214997 -0.03728,0.03727 -0.06379,-0.02898 -0.05891,-0.147226 z m -4.03821,-0.44869 c 0.0054,-0.130675 0.03196,-0.157255 0.06777,-0.06777 0.0324,0.08097 0.02842,0.177724 -0.0089,0.214997 -0.03728,0.03727 -0.06379,-0.02898 -0.05891,-0.147226 z m 0.560863,-0.560862 c 0.0054,-0.130676 0.03196,-0.157255 0.06777,-0.06777 0.0324,0.08097 0.02842,0.177724 -0.0089,0.214998 -0.03727,0.03727 -0.06379,-0.02898 -0.05892,-0.147226 z m -0.560863,-0.44869 c 0.0054,-0.130676 0.03196,-0.157255 0.06777,-0.06777 0.0324,0.08097 0.02842,0.177723 -0.0089,0.214997 -0.03728,0.03727 -0.06379,-0.02898 -0.05891,-0.147226 z m 4.4869,-0.112173 c 0.0054,-0.130675 0.03196,-0.157254 0.06777,-0.06777 0.0324,0.08097 0.02842,0.177724 -0.0089,0.214998 -0.03727,0.03727 -0.06379,-0.02898 -0.05891,-0.147227 z m -3.926037,-0.44869 c 0.0054,-0.130675 0.03196,-0.157254 0.06777,-0.06777 0.0324,0.08097 0.02842,0.177724 -0.0089,0.214998 -0.03727,0.03727 -0.06379,-0.02898 -0.05892,-0.147227 z m -0.560863,-0.44869 c 0.0054,-0.130675 0.03196,-0.157254 0.06777,-0.06777 0.0324,0.08097 0.02842,0.177724 -0.0089,0.214998 -0.03728,0.03727 -0.06379,-0.02898 -0.05891,-0.147227 z m 4.03821,-0.112172 c 0.0054,-0.130675 0.03196,-0.157255 0.06777,-0.06777 0.0324,0.08097 0.02842,0.177724 -0.0088,0.214997 -0.03728,0.03727 -0.06379,-0.02898 -0.05891,-0.147226 z m 0.44869,0 c 0.0054,-0.130675 0.03196,-0.157255 0.06777,-0.06777 0.0324,0.08097 0.02842,0.177724 -0.0089,0.214997 -0.03727,0.03727 -0.06379,-0.02898 -0.05891,-0.147226 z m -3.926037,-0.44869 c 0.0054,-0.130675 0.03196,-0.157255 0.06777,-0.06777 0.0324,0.08097 0.02842,0.177724 -0.0089,0.214997 -0.03727,0.03727 -0.06379,-0.02898 -0.05892,-0.147226 z m 3.412405,-0.04674 c -0.03813,-0.0617 -0.01587,-0.112172 0.04947,-0.112172 0.06534,0 0.118793,0.05048 0.118793,0.112172 0,0.0617 -0.02226,0.112173 -0.04947,0.112173 -0.02721,0 -0.08066,-0.05048 -0.118793,-0.112173 z m -2.544914,-0.07663 c 0.08097,-0.0324 0.177723,-0.02842 0.214998,0.0088 0.03727,0.03727 -0.02898,0.06379 -0.147226,0.05892 -0.130676,-0.0054 -0.157255,-0.03196 -0.06777,-0.06777 z m 1.009553,0 c 0.08097,-0.0324 0.177723,-0.02842 0.214997,0.0088 0.03727,0.03727 -0.02898,0.06379 -0.147226,0.05892 -0.130675,-0.0054 -0.157255,-0.03196 -0.06777,-0.06777 z m 1.984051,-0.372064 c -0.03813,-0.0617 -0.01587,-0.112172 0.04947,-0.112172 0.06534,0 0.118793,0.05048 0.118793,0.112172 0,0.0617 -0.02226,0.112173 -0.04947,0.112173 -0.02721,0 -0.08066,-0.05048 -0.118793,-0.112173 z m -3.554466,-0.07663 c 0.08097,-0.0324 0.177723,-0.02842 0.214998,0.0088 0.03727,0.03727 -0.02898,0.06379 -0.147227,0.05892 -0.130675,-0.0054 -0.157254,-0.03196 -0.06777,-0.06777 z M 8.9970216,72.622783 V 71.164541 H 8.155728 7.3144343 v 1.458242 1.458243 H 8.155728 8.9970216 Z M 10.616466,70.70706 c -0.307378,-0.322163 -0.331863,-0.329682 -0.365306,-0.112172 -0.03398,0.221036 -0.105304,0.233136 -1.3741126,0.233136 H 7.5387793 V 68.696746 66.565469 H 8.6605042 9.7822291 V 66.285038 66.004607 H 8.6605042 7.5387793 v -2.134838 -2.134836 l 1.3180267,0.0316 c 1.289853,0.03093 1.318829,0.03727 1.355551,0.296806 l 0.03752,0.265204 0.358968,-0.347925 0.358969,-0.347927 4.146493,-0.03087 c 3.546763,-0.02641 3.282559,-0.03473 -1.826692,-0.05749 l -5.9731847,-0.02662 v 4.76733 4.767331 h 1.8157463 1.8157464 z m 8.501701,-4.309812 -0.03046,-4.655195 H 15.051919 11.01613 v 0.560862 0.560862 H 10.455264 9.8944016 v 3.471201 3.471201 l 0.5328194,0.03419 0.532819,0.03419 0.03413,0.531427 0.03413,0.531427 4.060163,0.03088 c 2.233091,0.01698 4.060164,0.04287 4.060164,0.05752 0,0.01465 -0.01371,-2.068201 -0.03046,-4.628558 z m -8.214213,3.982086 v -0.44869 H 10.432499 9.9610437 l 0.4381343,0.44869 c 0.240974,0.246779 0.453128,0.44869 0.471455,0.44869 0.01833,0 0.03332,-0.201911 0.03332,-0.44869 z m -0.785207,0.06982 c 0,-0.146682 -0.07572,-0.329534 -0.1682592,-0.406338 C 9.8152014,69.930538 9.7822291,69.587132 9.7822291,68.290408 V 66.677642 H 8.7165904 7.6509517 v 2.019104 2.019105 h 1.2338975 c 1.2244298,0 1.2338978,-0.002 1.2338978,-0.266697 z m -0.3365179,-6.1134 c 0,-1.24687 0.033487,-1.584471 0.1682587,-1.696322 0.092542,-0.0768 0.1682592,-0.284894 0.1682592,-0.462424 V 61.854225 H 8.8848492 7.6509517 v 2.019105 2.019104 H 8.7165904 9.7822291 Z M 44.107012,63.817243 c 0,-0.145164 -0.392604,-0.168258 -2.860399,-0.168258 -2.467795,0 -2.860399,0.02309 -2.860399,0.168258 0,0.145165 0.392604,0.168259 2.860399,0.168259 2.467795,0 2.860399,-0.02309 2.860399,-0.168259 z m 0,-0.953466 v -0.673034 h -2.860399 -2.860399 v 0.673034 0.673035 h 2.860399 2.860399 z M 10.903954,62.302915 c 0,-0.246779 -0.015,-0.44869 -0.03332,-0.44869 -0.01833,0 -0.230481,0.201911 -0.471455,0.44869 l -0.4381343,0.44869 H 10.4325 10.903955 Z M 24.925515,59.79773 c 0,-1.316158 0.02529,-2.418304 0.0562,-2.449214 0.152503,-0.152503 1.534399,0.168009 2.261064,0.524425 1.40844,0.690812 2.548711,2.252347 2.697511,3.694086 l 0.06437,0.623716 h 4.022515 4.022517 v -2.613619 c 0,-1.883252 -0.03762,-2.651235 -0.134607,-2.748226 -0.09938,-0.09939 -1.12671,-0.134607 -3.926037,-0.134607 h -3.79143 v -5.047762 -5.047761 h 5.159934 5.159935 v -4.991676 -4.991675 h -3.58952 -3.58952 v -2.467795 -2.467794 h 5.38428 5.38428 v -1.402156 -1.402156 l -2.495838,-0.02579 -2.495838,-0.02579 2.495838,-0.03245 2.495838,-0.03245 v -0.392689 -0.392688 l -2.382634,0.03027 -2.382635,0.03027 -0.0724,0.336517 c -0.03982,0.185085 -0.06552,-2.364035 -0.05712,-5.66471 l 0.01528,-6.001228 2.439752,-0.03023 2.439752,-0.03023 v -1.79108 -1.79108 l -3.785822,-0.02953 -3.785822,-0.02954 -0.06728,-0.504777 c -0.037,-0.277627 -0.07486,0.827453 -0.08413,2.455732 l -0.01685,2.960507 -0.670059,-0.07004 c -1.356129,-0.141744 -2.573578,-0.754849 -3.625763,-1.825928 -0.565031,-0.575178 -1.25519,-1.80912 -1.377997,-2.463733 -0.101113,-0.538981 -0.232872,-0.569111 -0.323833,-0.07405 -0.236961,1.289673 -1.697854,3.128699 -2.976148,3.746488 -0.742463,0.358826 -1.931684,0.680805 -2.339894,0.63352 l -0.296159,-0.03431 -0.05894,-2.916484 c -0.03242,-1.604067 -0.07028,-2.700371 -0.08413,-2.436231 -0.01602,0.305482 -0.08642,0.50375 -0.193444,0.54482 -0.142783,0.05479 -0.168258,0.453375 -0.168258,2.632533 v 2.567966 h 0.618207 0.618206 l -0.0293,4.571029 -0.0293,4.571028 -0.560863,0.03477 c -0.308474,0.01912 -0.608816,0.08222 -0.667426,0.140215 -0.05861,0.05799 -0.419256,0.105442 -0.801434,0.105442 -2.344042,0 -4.494155,1.8632 -4.724391,4.093963 l -0.06371,0.617282 h 2.299574 c 1.264765,0 2.533767,0.0321 2.820005,0.07133 l 0.520433,0.07133 v 3.686444 3.686446 h 2.415228 c 1.967517,0 2.426409,0.02913 2.475534,0.15715 0.03317,0.08643 0.0063,0.452396 -0.05963,0.813251 -0.378831,2.072324 -2.222844,3.831067 -4.242223,4.046052 l -0.588905,0.06269 v 5.312499 5.3125 h -2.841833 -2.841833 l 0.09488,0.693777 c 0.175762,1.285199 0.93475,2.538442 1.967763,3.249174 0.77226,0.531329 1.551433,0.790067 2.61147,0.867187 l 0.953466,0.06937 0.03276,0.869337 0.03276,0.869337 h 0.331798 0.331799 z m 9.310317,-37.203873 v -2.467795 h 1.458243 1.458242 v 2.467795 2.467794 h -1.458242 -1.458243 z m 2.804313,0 v -2.355622 h -1.34607 -1.34607 v 2.355622 2.355622 h 1.34607 1.34607 z m 7.066867,38.755592 V 60.620328 H 41.13444 38.161869 v 0.729121 0.729121 h 2.972571 2.972572 z M 8.9970216,59.947293 V 58.489051 H 8.155728 7.3144343 v 1.458242 1.458242 H 8.155728 8.9970216 Z M 44.107012,59.83512 V 59.162086 H 41.13444 38.161869 v 0.673034 0.673035 h 2.972571 2.972572 z m 0,-1.458242 V 57.703843 H 41.13444 38.161869 v 0.673035 0.673035 h 2.972571 2.972572 z m 0,-1.918933 c 0,-0.857888 -0.03412,-1.122008 -0.140216,-1.085562 -2.577181,0.88527 -5.802274,2.071828 -5.803413,2.135158 -7.86e-4,0.04627 1.336143,0.08413 2.971057,0.08413 h 2.972572 z m -2.717562,-0.287381 2.722804,-0.974529 -0.03066,-1.858882 -0.03066,-1.858882 H 42.158453 40.265972 L 39.21971,54.17041 c -0.575445,1.480677 -1.048866,2.777577 -1.052047,2.882001 -0.0081,0.26533 0.09692,0.23659 3.221796,-0.881847 z m -0.25501,-1.831895 c 1.541447,-1.542372 2.827869,-2.804312 2.858716,-2.804312 0.03085,0 -1.205097,1.26194 -2.746543,2.804312 -1.541446,1.542371 -2.827869,2.804312 -2.858716,2.804312 -0.03085,0 1.205097,-1.261941 2.746543,-2.804312 z m -2.233431,0.386009 c 0.405442,-1.045185 0.857035,-2.215823 1.003539,-2.601416 l 0.266372,-0.701078 h -1.172783 -1.172785 v 2.579967 c 0,1.741047 0.03863,2.579967 0.118793,2.579967 0.06534,0 0.08317,0.0631 0.03963,0.140216 -0.05703,0.101009 -0.04292,0.107006 0.05045,0.02145 0.07129,-0.06532 0.46134,-0.973919 0.866783,-2.019105 z m -7.132972,-0.722527 v -2.579967 h -0.729121 -0.729121 v 2.579967 2.579967 h 0.729121 0.729121 z m 1.458243,0 V 51.422184 H 32.553245 31.88021 v 2.579967 2.579967 h 0.673035 0.673035 z m 1.570415,0 v -2.579967 h -0.729121 -0.729122 v 2.579967 2.579967 h 0.729122 0.729121 z m 1.458242,0 v -2.579967 h -0.673035 -0.673035 v 2.579967 2.579967 h 0.673035 0.673035 z m 1.458242,0 V 51.422184 H 37.040145 36.36711 v 2.579967 2.579967 h 0.673035 0.673034 z M 23.355101,53.160858 V 51.422184 H 15.334767 7.3144343 v 1.738674 1.738673 h 8.0203327 8.020334 z M 11.576989,48.449614 V 46.71094 H 9.7822291 7.9874692 v 1.738674 1.738673 h 1.7947599 1.7947599 z m 2.399236,1.448481 c -0.04006,-0.159605 -0.07888,-0.76903 -0.08627,-1.354277 l -0.01343,-1.064086 0.36633,-0.32831 c 0.435937,-0.390692 0.883356,-0.424445 1.298426,-0.09795 0.417689,0.328555 0.543169,0.90868 0.413176,1.91022 -0.175574,1.352725 -0.303003,1.224595 1.217893,1.224595 h 1.332806 l 0.04781,-1.430199 c 0.05434,-1.625505 0.245132,-2.228135 0.872564,-2.756085 0.43129,-0.362906 1.054543,-0.642481 1.391343,-0.624121 0.225107,0.01227 0.225923,0.01582 0.01434,0.06238 -0.906369,0.199442 -1.57865,0.688109 -1.885714,1.370685 -0.184249,0.409569 -0.242484,0.814011 -0.280365,1.947143 l -0.04781,1.430199 h 0.405868 c 0.460917,0 0.525522,-0.118652 0.153479,-0.281875 -0.231823,-0.101707 -0.255016,-0.195302 -0.284645,-1.148728 -0.0374,-1.203502 0.09047,-1.78657 0.498007,-2.270907 0.529756,-0.629578 1.002622,-0.785389 2.383559,-0.785389 1.335938,0 1.347965,0.0054 1.478029,0.669224 0.06789,0.346459 0.0793,0.315135 0.09058,-0.248577 l 0.0129,-0.644992 -1.149768,-0.02366 -1.149769,-0.02366 1.143433,-0.03628 c 0.985318,-0.03127 1.152327,-0.06431 1.207755,-0.238945 0.05125,-0.161467 0.26345,-0.227416 1.043931,-0.324439 1.351733,-0.168035 2.126096,-0.491655 2.940988,-1.229092 0.976267,-0.883469 1.450873,-1.770624 1.625155,-3.037811 l 0.08125,-0.590719 -4.021253,0.03938 c -3.051563,0.02989 -4.136744,0.07717 -4.500189,0.196097 -0.410889,0.134451 -0.530416,0.134233 -0.841293,-0.0015 -0.211118,-0.0922 -0.865658,-0.175262 -1.568213,-0.199019 l -1.205854,-0.04078 v 1.18481 1.184808 H 12.137851 7.3144343 v 2.355622 2.355623 h 0.2804312 c 0.2056495,0 0.2804312,-0.05982 0.2804312,-0.224345 0,-0.215548 0.074782,-0.224345 1.9069324,-0.224345 h 1.9069319 v 1.794759 1.79476 h 1.179949 1.179948 z m 1.751146,0.137589 c 0,-0.08393 0.02922,-0.399416 0.06493,-0.701078 0.06009,-0.507557 0.0536,-0.527554 -0.0869,-0.268044 -0.130571,0.241164 -0.241847,0.285145 -0.79469,0.314091 -0.608547,0.03186 -0.649008,0.01749 -0.758074,-0.269379 -0.06337,-0.166672 -0.09589,-0.358491 -0.07228,-0.426264 0.02362,-0.06777 0.08029,0.04321 0.125933,0.246633 l 0.08299,0.369859 0.631788,-0.03334 c 0.626814,-0.03308 0.632725,-0.0367 0.750897,-0.459526 0.06551,-0.234401 0.147325,-0.39797 0.18181,-0.363485 0.136241,0.136242 -0.09889,-0.948952 -0.243321,-1.122978 -0.239399,-0.288457 -0.621877,-0.391397 -0.984529,-0.264976 -0.500063,0.174323 -0.636452,0.549778 -0.613882,1.689905 0.029,1.465124 0.01343,1.441186 0.937679,1.441186 0.581003,0 0.777648,-0.03859 0.777648,-0.152603 z m 4.655159,0.04043 c 0.08826,-0.142817 -0.171611,-0.142817 -0.392604,0 -0.136792,0.0884 -0.122296,0.109058 0.07751,0.110455 0.135172,8.97e-4 0.276965,-0.04876 0.315095,-0.110455 z m 0.871471,0.03859 c -0.07594,-0.03073 -0.227377,-0.0326 -0.336517,-0.0042 -0.109141,0.02844 -0.047,0.05358 0.13808,0.05587 0.185085,0.0023 0.274381,-0.02098 0.198437,-0.05171 z m 2.096709,-0.403155 -0.0044,-0.476733 -0.158454,0.364561 c -0.08715,0.200508 -0.223987,0.363787 -0.304083,0.362843 -0.111318,-0.0013 -0.108716,-0.02509 0.01104,-0.100921 0.124172,-0.07862 0.155219,-0.479662 0.149669,-1.933258 -0.0038,-1.00873 -0.01126,-1.897152 -0.01646,-1.97427 -0.007,-0.103135 -0.336949,-0.140216 -1.247819,-0.140216 -0.993866,0 -1.320535,0.04194 -1.654545,0.212409 -0.878139,0.448184 -1.133247,1.035069 -1.140375,2.623466 -0.004,0.888559 0.02799,1.109834 0.168173,1.163626 0.243204,0.09333 0.334088,-0.03608 0.166857,-0.237583 -0.07739,-0.09325 -0.111406,-0.2459 -0.07559,-0.339229 0.05394,-0.140557 0.301614,-0.165656 1.442749,-0.14621 l 1.377633,0.02348 -1.097585,0.03672 c -0.96342,0.03223 -1.07752,0.05678 -0.933436,0.200868 0.116969,0.116969 0.424386,0.16415 1.069542,0.16415 0.712265,0 0.905393,0.03438 0.905393,0.161152 0,0.09775 0.143428,0.178951 0.36456,0.206393 0.320677,0.0398 0.307971,0.0474 -0.105552,0.06319 -0.258562,0.0099 -0.50131,0.06843 -0.53944,0.130125 -0.04388,0.071 0.241876,0.112172 0.778587,0.112172 h 0.847915 l -0.0044,-0.476733 z m -1.061248,-0.420647 c -0.120794,-0.195448 0.05825,-0.362191 0.233097,-0.217082 0.08637,0.07168 0.129375,0.175088 0.09557,0.229792 -0.08183,0.1324 -0.242828,0.126173 -0.328662,-0.01271 z m -1.180288,-1.430199 -0.950989,-0.981509 0.981509,0.950989 c 0.911597,0.883251 1.032607,1.012029 0.950989,1.012029 -0.01678,0 -0.458464,-0.441679 -0.981509,-0.981509 z m 1.278335,-0.308474 c 2.24e-4,-0.678644 0.01873,-0.941808 0.04106,-0.58481 0.02233,0.356998 0.02212,0.912251 -4.49e-4,1.233897 -0.02258,0.321646 -0.04085,0.02956 -0.0406,-0.649087 z m 11.399633,0.89738 V 46.71094 h -1.738673 -1.738674 v 1.738674 1.738673 h 1.738674 1.738673 z m 4.150382,1.570414 c 0,-0.131974 -0.154268,-0.168258 -0.715386,-0.168258 -0.549952,0 -0.749737,-0.04539 -0.863927,-0.196302 -0.126368,-0.166999 -0.125069,-0.175372 0.0087,-0.05609 0.09944,0.08868 0.447912,0.132934 0.948056,0.120407 l 0.790816,-0.01981 -0.785208,-0.07256 -0.785207,-0.07256 0.757164,-0.01981 c 0.76241,-0.01995 0.931202,-0.137419 0.630098,-0.438524 -0.19827,-0.198269 -0.02292,-0.499626 0.266781,-0.458489 0.256586,0.03644 0.447404,0.540687 0.204605,0.540687 -0.06599,0 -0.119975,0.07572 -0.119975,0.168258 0,0.129551 0.161284,0.172714 0.701079,0.18762 l 0.701078,0.01936 -0.729122,0.07345 -0.729121,0.07345 0.729121,0.04057 0.729122,0.04057 -0.644992,0.04047 c -0.470071,0.0295 -0.644992,0.08459 -0.644992,0.203135 0,0.137055 0.379637,0.162661 2.411708,0.162661 h 2.411709 V 49.346993 48.5057 h -0.392604 c -0.234578,0 -0.396168,0.05644 -0.401459,0.140215 -0.0071,0.112173 -0.02017,0.112173 -0.06543,0 -0.03993,-0.09894 -0.384015,-0.140215 -1.16896,-0.140215 h -1.112377 v 0.547128 c 0,0.358306 -0.06025,0.597132 -0.174588,0.692022 -0.09602,0.07969 -0.165763,0.09849 -0.154975,0.04178 0.01079,-0.05671 0.01364,-0.368125 0.0063,-0.692023 L 39.732284,48.5057 h -1.570415 -1.570414 l -0.01685,0.476733 -0.01685,0.476733 -0.07848,-0.504776 -0.07848,-0.504776 -0.03645,0.504776 -0.03645,0.504776 -0.04294,-0.476733 -0.04294,-0.476733 h -1.171361 -1.171361 v 0.841293 0.841294 h 2.019105 c 1.719977,0 2.019104,-0.02493 2.019104,-0.168259 z M 19.938452,49.732134 c 0.115096,-0.18623 0.01179,-0.212054 -0.149251,-0.03731 -0.07955,0.08632 -0.09515,0.156945 -0.03466,0.156945 0.06048,0 0.143246,-0.05384 0.183913,-0.119636 z m 1.621889,-0.01396 c 0,-0.12362 -0.980834,-0.115794 -1.057615,0.0084 -0.03372,0.05455 0.190454,0.09539 0.498156,0.09075 0.307702,-0.0046 0.559459,-0.04927 0.559459,-0.09919 z m 0.336517,0.02142 c 0,-0.0617 -0.02226,-0.112172 -0.04947,-0.112172 -0.02721,0 -0.08066,0.05048 -0.118793,0.112172 -0.03813,0.06169 -0.01587,0.112173 0.04947,0.112173 0.06534,0 0.118793,-0.05048 0.118793,-0.112173 z M 39.9248,48.758088 c -0.0257,-0.169661 -0.04673,-0.03085 -0.04673,0.308474 0,0.339322 0.02103,0.478135 0.04673,0.308475 0.0257,-0.169661 0.0257,-0.447288 0,-0.616949 z m -20.159219,0.59883 c 0,-0.132352 -0.113769,-0.152214 -0.427267,-0.07459 -0.01907,0.0047 -0.0035,0.05906 0.03466,0.120755 0.104258,0.168692 0.392604,0.134791 0.392604,-0.04616 z m 18.620633,-0.466839 c 0,-0.104459 -0.07632,-0.161683 -0.187006,-0.140216 -0.281415,0.05458 -0.320056,0.316699 -0.04669,0.316699 0.137785,0 0.233692,-0.07243 0.233692,-0.176483 z m -15.06214,-1.421975 c -0.02488,-0.200508 -0.04524,-0.03646 -0.04524,0.364561 0,0.401017 0.02036,0.565069 0.04524,0.36456 0.02488,-0.200508 0.02488,-0.528612 0,-0.729121 z m 12.930863,0.08413 V 46.71094 h -1.177811 -1.177811 v 0.841294 0.841293 h 1.177811 1.177811 z m 0.356969,-0.473333 c 0.12476,-0.150327 2.694632,-0.213859 3.055118,-0.07553 0.132006,0.05065 0.182261,0.244507 0.19629,0.757164 l 0.01886,0.689077 0.07446,-0.673035 0.07446,-0.673035 0.01886,0.644992 0.01886,0.644991 h 1.121725 1.121725 V 46.654854 44.91618 H 41.58313 40.854009 v -1.794759 -1.79476 h 0.729121 0.729122 v -2.355622 -2.355622 h -0.840139 -0.840139 l -0.0292,5.019718 -0.0292,5.019719 -0.252388,0.03585 c -0.138814,0.01971 -0.252388,0.111029 -0.252388,0.202922 0,0.09189 -0.0513,0.135371 -0.114002,0.09662 -0.0627,-0.03875 -0.09285,-0.104828 -0.067,-0.146836 0.02585,-0.04201 -0.748731,-0.07638 -1.721293,-0.07638 h -1.768295 l 0.0019,0.841294 c 0.0015,0.681754 0.01049,0.724943 0.04725,0.227745 0.02495,-0.337451 0.099,-0.678175 0.164553,-0.757164 z m 3.097933,0.669635 -0.03364,-0.644992 -1.386383,-0.0316 c -0.926352,-0.02111 -1.438145,0.01136 -1.542372,0.09787 -0.09419,0.07817 -0.155988,0.346224 -0.155988,0.676585 v 0.547128 h 1.576012 1.576013 z m 3.499793,-0.02804 v -0.673034 h 0.44869 0.44869 v -5.216021 -5.21602 h -0.841294 -0.841294 v 2.355622 2.355622 h 0.729121 0.729122 v 1.79476 1.794759 h -0.729122 -0.729121 v 1.738674 1.738673 h 0.392604 0.392604 z m -0.89738,-4.599071 v -1.682587 h -0.673035 -0.673035 v 1.682587 1.682587 h 0.673035 0.673035 z m 1.458242,0 v -1.682587 h -0.673035 -0.673035 v 1.682587 1.682587 h 0.673035 0.673035 z M 16.849096,40.036677 V 37.849314 H 12.081765 7.3144343 v 1.009552 c 0,0.598253 0.0457,1.009553 0.1121725,1.009553 0.061695,0 0.1137779,-0.265008 0.1157399,-0.588906 0.00376,-0.621106 0.1204565,-0.861561 0.5218776,-1.075359 0.3147531,-0.167639 6.6365057,-0.180724 7.2332717,-0.01497 0.226281,0.06285 0.561661,0.285387 0.74529,0.494529 0.662453,0.754493 0.742115,1.71563 0.208969,2.521268 -0.514219,0.777037 -0.61779,0.794717 -4.655534,0.794717 H 8.0037522 L 7.7712657,41.704137 c -0.1695859,-0.215593 -0.2324864,-0.458385 -0.2324864,-0.89738 0,-0.331002 -0.050478,-0.601821 -0.1121725,-0.601821 -0.066473,0 -0.1121725,0.4113 -0.1121725,1.009553 v 1.009552 h 4.7673307 4.767331 z m -1.234943,1.642728 c 0.467558,-0.250753 0.898426,-1.008739 0.898426,-1.580516 0,-0.515205 -0.409202,-1.325413 -0.821254,-1.62606 -0.301222,-0.21978 -0.488545,-0.232541 -3.88599,-0.264723 l -3.569513,-0.03381 -0.2924351,0.271018 c -0.2419843,0.224265 -0.2924352,0.3704 -0.2924352,0.847063 0,0.501261 0.029124,0.576043 0.224345,0.576043 0.1246361,0 0.224345,0.07478 0.224345,0.168258 0,0.09348 -0.099709,0.168259 -0.224345,0.168259 -0.1960051,0 -0.224345,0.07478 -0.224345,0.591989 0,0.35425 0.070126,0.69211 0.1746194,0.841294 0.1743008,0.24885 0.1812099,0.249304 3.7875719,0.249304 3.304829,0 3.646047,-0.01775 4.00101,-0.208119 z M 8.5870398,40.144012 c -0.036533,-0.0952 -0.038307,-0.201213 -0.00394,-0.235577 0.098231,-0.09823 0.3017518,0.06839 0.3017518,0.247035 0,0.215243 -0.2139753,0.20701 -0.2978093,-0.01146 z m -0.6299506,-0.11902 c -0.037274,-0.03727 -0.1340228,-0.04126 -0.2149973,-0.0088 -0.089484,0.03581 -0.062904,0.06239 0.067771,0.06777 0.1182484,0.0049 0.1845003,-0.02164 0.1472264,-0.05891 z M 20.928264,39.860277 c 0.66075,-0.519745 0.177454,-1.337928 -0.790305,-1.337928 -0.555906,0 -1.045413,0.367668 -1.045413,0.785207 0,0.128999 0.1239,0.358442 0.275333,0.509875 0.361064,0.361065 1.129028,0.382152 1.560385,0.04285 z m -0.882252,-0.440548 c -0.120794,-0.195448 0.05825,-0.362192 0.233097,-0.217082 0.08637,0.07168 0.129375,0.175088 0.09557,0.229792 -0.08183,0.1324 -0.242828,0.126173 -0.328662,-0.01271 z m -0.328497,-0.662361 c 0.03337,-0.03337 0.233742,-0.06548 0.445263,-0.07135 0.21152,-0.0059 0.357277,0.01663 0.323904,0.05001 -0.03337,0.03337 -0.233742,0.06548 -0.445263,0.07135 -0.211521,0.0059 -0.357278,-0.01663 -0.323904,-0.05001 z m 3.637586,0.206454 v -0.890163 h -3.196916 -3.196916 v 0.89738 0.89738 h 1.125671 c 1.078159,0 1.12077,-0.0092 1.009552,-0.216971 -0.186993,-0.349398 -0.137123,-0.56449 0.211771,-0.913382 0.265255,-0.265256 0.424314,-0.327889 0.832686,-0.327889 0.891672,0 1.51571,0.806779 1.034345,1.337237 -0.145626,0.160477 -0.05091,0.173783 1.009552,0.141831 l 1.170255,-0.03526 z M 21.81959,37.877654 c -0.875377,-0.01893 -2.339228,-0.01897 -3.253002,-9.6e-5 -0.913773,0.01888 -0.197555,0.03436 1.591597,0.03442 1.789151,5.4e-5 2.536784,-0.01539 1.661405,-0.03432 z m 1.535511,-3.263214 v -2.000976 l -3.617563,-0.07403 c -1.98966,-0.04071 -5.59881,-0.07411 -8.020333,-0.07421 l -4.4027707,-1.88e-4 v 2.075191 2.075191 h 8.0203327 8.020334 z M 44.107012,34.147622 V 31.792 h -5.328194 -5.328193 v 2.355622 2.355622 h 5.328193 5.328194 z M 18.56467,31.729147 c 0.128353,-1.243629 1.052163,-2.671215 2.208925,-3.413508 0.61437,-0.394239 1.738583,-0.786193 2.254982,-0.786193 h 0.326524 V 20.294321 13.059196 H 21.286055 19.21701 L 19.175,12.526377 c -0.02311,-0.293051 -0.05111,0.74174 -0.06223,2.299535 l -0.02022,2.832356 -0.420647,-0.0013 c -1.182627,-0.0037 -2.619423,-0.666736 -3.625752,-1.673064 -0.985134,-0.985134 -1.632787,-2.36394 -1.689914,-3.597708 -0.01669,-0.360443 -0.02369,-0.351254 -0.08546,0.112172 l -0.06728,0.504777 -2.944528,0.02991 -2.9445277,0.02991 v 1.792897 1.792897 h 0.8973799 0.8973799 v 1.514329 1.514328 H 14.21305 19.316898 V 23.379108 27.0808 H 14.213043 9.1091941 v 1.514328 1.514329 H 8.2118142 7.3144343 v 1.121725 1.121725 h 5.5929317 5.59293 z M 8.9970216,28.538998 V 27.080756 H 8.155728 7.3144343 v 1.458242 1.458242 H 8.155728 8.9970216 Z M 42.536597,25.342082 v -2.52388 h -1.626502 -1.626501 v 2.52388 2.523881 h 1.626501 1.626502 z m 0.673035,-0.0078 V 22.8026 l -0.252389,0.03585 c -0.251452,0.03571 -0.2525,0.04457 -0.282783,2.388568 -0.01672,1.293998 -0.0057,2.417125 0.02452,2.495838 0.03021,0.07871 0.157458,0.143108 0.282785,0.143108 0.222308,0 0.227865,-0.06174 0.227865,-2.531682 z m 0.790205,0.09193 c 0.0027,-1.341863 0.01537,-3.613321 0.02804,-5.047684 l 0.02304,-2.607938 -0.36456,-7.8e-5 -0.364561,-7.7e-5 v 2.467795 2.467794 l 0.364561,0.01795 0.36456,0.01795 -0.36456,0.04524 -0.364561,0.04524 v 2.516774 2.516773 h 0.336518 0.336517 l 0.005,-2.439751 z m -18.625632,-2.60801 v -4.4869 h -0.560862 -0.560862 v 2.187364 c 0,1.786925 0.02839,2.187363 0.155079,2.187363 0.112452,0 0.174893,-0.238965 0.227157,-0.869337 0.120924,-1.458494 0.195124,-1.934975 0.301325,-1.934975 0.05809,0 0.101646,1.225721 0.101646,2.860398 0,1.707681 -0.04243,2.860399 -0.1053,2.860399 -0.11251,0 -0.182336,-0.434175 -0.293155,-1.822803 -0.05123,-0.641967 -0.11088,-0.869337 -0.228064,-0.869337 -0.131378,0 -0.158688,0.376453 -0.158688,2.187364 v 2.187363 h 0.560862 0.560862 z m -10.259894,4.06627 -4.146493,-0.03087 -0.358969,-0.347927 -0.358968,-0.347925 -0.03752,0.265204 c -0.03672,0.259533 -0.0657,0.265878 -1.355551,0.296806 l -1.3180267,0.0316 V 25.23347 23.715581 H 8.6605042 9.7822291 V 23.379064 23.042547 H 8.6605042 7.5387793 V 21.524658 20.00677 l 1.3180267,0.0316 c 1.289853,0.03093 1.318829,0.03727 1.355551,0.296807 l 0.03752,0.265203 0.358968,-0.347925 0.358969,-0.347927 4.146493,-0.03087 c 3.546763,-0.02641 3.282559,-0.03473 -1.826692,-0.05749 l -5.9731847,-0.02662 v 3.589519 3.589519 l 5.9731847,-0.02662 c 5.109251,-0.02277 5.373455,-0.03108 1.826692,-0.05749 z m 3.978235,-3.505408 V 20.01389 h -4.03821 -4.03821 v 0.560862 0.560862 H 10.455264 9.8944016 v 2.24345 2.24345 h 0.5608624 0.560862 v 0.560862 0.560862 h 4.03821 4.03821 z m -8.973799,2.930219 c 0,-0.17753 -0.07572,-0.385621 -0.1682592,-0.462424 C 9.8254266,25.743067 9.7822291,25.465957 9.7822291,24.767486 V 23.827754 H 8.7165904 7.6509517 v 1.402156 1.402156 h 1.2338975 1.2338978 z m 0.785207,-0.125907 v -0.44869 H 10.432499 9.9610437 l 0.4381343,0.44869 c 0.240974,0.24678 0.453128,0.44869 0.471455,0.44869 0.01833,0 0.03332,-0.20191 0.03332,-0.44869 z M 9.7822291,21.990642 c 0,-0.698471 0.043197,-0.97558 0.1682587,-1.079373 0.092542,-0.0768 0.1682592,-0.284894 0.1682592,-0.462424 V 20.126062 H 8.8848492 7.6509517 v 1.402156 1.402156 H 8.7165904 9.7822291 Z M 42.536597,20.238235 V 17.77044 h -1.626502 -1.626501 v 2.467795 2.467794 h 1.626501 1.626502 z m 0.673035,0 V 17.77044 H 42.9292 42.648769 v 2.393013 c 0,1.316157 0.03365,2.426665 0.07478,2.467794 0.04113,0.04113 0.167323,0.07478 0.280431,0.07478 0.193186,0 0.20565,-0.149563 0.20565,-2.467794 z m -32.305678,0.336517 c 0,-0.246779 -0.015,-0.44869 -0.03332,-0.44869 -0.01833,0 -0.230481,0.201911 -0.471455,0.44869 l -0.4381343,0.44869 H 10.4325 10.903955 Z M 8.9970216,18.21913 V 16.760888 H 8.155728 7.3144343 v 1.458242 1.458242 H 8.155728 8.9970216 Z M 26.087136,17.591873 c 2.383865,-0.617619 4.024149,-2.483986 4.325124,-4.92126 0.08936,-0.723648 0.103226,-0.70044 0.332631,0.556842 0.385668,2.113685 2.221449,3.971849 4.365799,4.419025 0.326935,0.06818 0.718136,0.12396 0.869337,0.12396 h 0.27491 v -3.253002 c 0,-2.093886 0.03997,-3.253002 0.112173,-3.253002 0.06169,0 0.112172,-0.227149 0.112172,-0.504776 V 10.254884 H 30.53414 24.588998 v 0.498156 c 0,0.273986 0.05048,0.529353 0.112172,0.567482 0.07053,0.04359 0.112173,1.253758 0.112173,3.259623 v 3.190295 h 0.292283 c 0.160756,0 0.602435,-0.08036 0.98151,-0.178567 z m 18.019876,-0.384527 v -0.450921 l -2.383666,0.03027 -2.383665,0.03027 -0.03482,0.420647 -0.03481,0.420647 h 2.418479 2.418481 z m -25.126639,-2.80208 c 0,-2.019105 0.04006,-3.14083 0.112173,-3.14083 0.0617,0 0.112172,-0.227149 0.112172,-0.504776 v -0.504776 h -2.972571 -2.972571 v 0.504776 c 0,0.277627 0.05048,0.504776 0.112173,0.504776 0.06357,0 0.112749,0.328057 0.113504,0.757164 0.0044,2.517493 1.668467,4.683738 4.114425,5.356149 0.296671,0.08156 0.728693,0.152799 0.960049,0.158316 l 0.420646,0.01003 z M 38.386214,6.4410194 V 2.7393275 H 24.981602 11.576989 v 3.7016919 3.7016916 h 13.404613 13.404612 z"
         id="path3021" />
    </g>
  </g>
</svg>
