<?xml version="1.0" encoding="UTF-8" standalone="no"?>
<svg
   xmlns:dc="http://purl.org/dc/elements/1.1/"
   xmlns:cc="http://creativecommons.org/ns#"
   xmlns:rdf="http://www.w3.org/1999/02/22-rdf-syntax-ns#"
   xmlns:svg="http://www.w3.org/2000/svg"
   xmlns="http://www.w3.org/2000/svg"
   xmlns:sodipodi="http://sodipodi.sourceforge.net/DTD/sodipodi-0.dtd"
   xmlns:inkscape="http://www.inkscape.org/namespaces/inkscape"
   width="40mm"
   height="40mm"
   viewBox="0 0 40 40"
   version="1.1"
   id="svg8"
   inkscape:version="1.0.1 (3bc2e813f5, 2020-09-07)"
   sodipodi:docname="pokoje3.svg">
  <defs
     id="defs2" />
  <sodipodi:namedview
     id="base"
     pagecolor="#ffffff"
     bordercolor="#666666"
     borderopacity="1.0"
     inkscape:pageopacity="0.0"
     inkscape:pageshadow="2"
     inkscape:zoom="2.8"
     inkscape:cx="76.818078"
     inkscape:cy="104.70829"
     inkscape:document-units="mm"
     inkscape:current-layer="layer1"
     inkscape:document-rotation="0"
     showgrid="false"
     inkscape:window-width="1920"
     inkscape:window-height="1137"
     inkscape:window-x="-8"
     inkscape:window-y="-8"
     inkscape:window-maximized="1" />
  <metadata
     id="metadata5">
    <rdf:RDF>
      <cc:Work
         rdf:about="">
        <dc:format>image/svg+xml</dc:format>
        <dc:type
           rdf:resource="http://purl.org/dc/dcmitype/StillImage" />
        <dc:title></dc:title>
      </cc:Work>
    </rdf:RDF>
  </metadata>
  <g
     inkscape:label="Layer 1"
     inkscape:groupmode="layer"
     id="layer1">
    <path
       style="fill:#ffffff;stroke-width:0.0562884"
       d="M 14.148997,27.083324 C 13.978725,27.013013 13.42147,26.784709 12.910653,26.575983 12.399836,26.367257 11.639943,26.056512 11.222002,25.885439 10.804061,25.714365 10.132823,25.441453 9.7303615,25.278967 9.3278995,25.116481 8.7073205,24.863914 8.3512965,24.717707 7.5739485,24.398477 6.1743875,23.828128 5.1710045,23.421675 4.7685428,23.258644 4.0593095,22.968875 3.5949306,22.777743 3.1305516,22.586611 2.5402818,22.351801 2.2832197,22.255941 1.9200273,22.120506 1.7976822,22.04655 1.7344083,21.924191 c -0.06989,-0.135153 -0.081308,-1.248354 -0.080596,-7.857688 6.548e-4,-6.0766434 0.015774,-7.7298984 0.071705,-7.8409484 0.096727,-0.192049 0.2590608,-0.265871 1.8131251,-0.824528 0.7430063,-0.267096 1.7308673,-0.623866 2.1952463,-0.79282 0.983518,-0.357833 2.383192,-0.86464 3.461733,-1.253459 0.417942,-0.150669 1.7350893,-0.633262 2.9269953,-1.072428 1.191906,-0.439166 2.243456,-0.810187 2.336778,-0.82449 0.114765,-0.01759 0.415334,0.0655 0.928758,0.256742 0.417495,0.155511 1.361523,0.500087 2.097841,0.765723 0.736318,0.265637 1.432886,0.519026 1.54793,0.563086 0.115044,0.04406 1.133706,0.414147 2.263695,0.822413 5.155963,1.862858 5.877903,2.133504 5.989961,2.245556 l 0.117326,0.11732 0.01465,7.8160554 0.01465,7.816054 -0.129481,0.124621 c -0.112076,0.107869 -1.023848,0.499361 -3.474139,1.49171 -0.603548,0.244432 -5.055261,2.067489 -6.276152,2.570198 -2.022256,0.832675 -2.893289,1.173285 -2.989017,1.168828 -0.05876,-0.0027 -0.246156,-0.0625 -0.416428,-0.132812 z m 2.090183,-1.724549 c 0.909146,-0.374154 1.766977,-0.725294 1.906291,-0.780313 0.139313,-0.05502 1.03852,-0.423074 1.998236,-0.817902 0.959717,-0.394828 2.010901,-0.825862 2.335967,-0.957855 0.325065,-0.131992 1.034298,-0.422716 1.576074,-0.646054 0.541775,-0.223338 1.048371,-0.431101 1.125767,-0.461697 0.125827,-0.04974 0.06029,-0.08509 -0.619172,-0.334011 C 23.4591,20.956774 21.080057,20.093555 19.383814,19.48195 18.81108,19.275442 18.038523,18.995157 17.667019,18.859094 16.537802,18.44552 15.496405,18.069197 15.011449,17.899469 l -0.460325,-0.161107 -0.665442,0.234634 c -0.365994,0.129049 -1.159373,0.415026 -1.763066,0.635505 -0.603693,0.220479 -1.439575,0.523038 -1.857516,0.672353 -1.5377565,0.549387 -6.3894163,2.323043 -6.4107665,2.343629 -0.027712,0.02672 0.2370423,0.140783 1.71069,0.736998 0.65013,0.263033 1.448018,0.588649 1.773083,0.723591 0.325065,0.134942 1.477569,0.605639 2.56112,1.045994 1.0835505,0.440354 2.5780065,1.04875 3.3210125,1.351989 0.743007,0.30324 1.354302,0.552393 1.358435,0.553673 0.0041,0.0013 0.75136,-0.303799 1.660506,-0.677953 z M 3.2664633,20.638574 c 0.2425742,-0.09111 1.175607,-0.430968 2.0734062,-0.755227 0.897799,-0.324261 2.240277,-0.810307 2.983283,-1.080103 0.743006,-0.269798 1.8701805,-0.679057 2.5048315,-0.909466 0.634651,-0.23041 1.394544,-0.504517 1.688651,-0.609127 0.294106,-0.10461 0.737377,-0.264741 0.985046,-0.355848 l 0.450307,-0.165649 0.01429,-6.9851932 0.01429,-6.9851942 -0.380167,0.145114 c -0.376558,0.143737 -1.380188,0.507327 -2.575412,0.933008 -0.340544,0.121286 -0.885134,0.319366 -1.2101995,0.440179 -0.325065,0.120813 -1.477569,0.539698 -2.56112,0.930856 -1.083551,0.391158 -2.4893524,0.901396 -3.1240036,1.133861 -0.6346512,0.232465 -1.1982383,0.436031 -1.2524159,0.452368 -0.093124,0.02808 -0.098505,0.410602 -0.098505,7.0028944 0,3.835255 0.010501,6.973191 0.023335,6.973191 0.012834,0 0.2218048,-0.07455 0.4643791,-0.165664 z m 2.6266502,-4.362496 c -0.09818,-0.04308 -0.20583,-0.129379 -0.239226,-0.19178 -0.04127,-0.07711 -0.06072,-1.080154 -0.06072,-3.131143 V 9.9354688 l 0.126649,-0.125503 c 0.187678,-0.18598 5.2145245,-2.1772022 5.4963535,-2.1772022 0.177655,0 0.249548,0.03395 0.366703,0.173184 l 0.145725,0.173183 v 3.0062204 3.00622 l -0.154793,0.16535 c -0.09495,0.101428 -0.350639,0.241341 -0.661388,0.361914 -0.669268,0.259683 -1.8082855,0.706178 -3.2928685,1.290804 -1.391702,0.54805 -1.483755,0.57292 -1.726435,0.466439 z m 2.854402,-2.107807 1.8271705,-0.729504 0.01472,-2.226394 0.01471,-2.2263934 -0.127293,0.05117 c -0.07001,0.02814 -0.9505105,0.379262 -1.9566655,0.7802632 l -1.829371,0.7290932 -0.01473,2.208139 -0.01473,2.208138 0.129508,-0.03251 c 0.07123,-0.01788 0.951735,-0.360782 1.956679,-0.762009 z M 26.307282,13.83213 V 6.8600206 l -0.239225,-0.08956 C 25.756169,6.6536996 22.70256,5.5475356 21.832358,5.2360876 21.460855,5.1031256 20.624972,4.8010036 19.974842,4.5647056 19.324711,4.3284086 18.514159,4.0354516 18.173615,3.9136926 17.83307,3.7919326 17.009853,3.4934546 16.344243,3.2504086 l -1.2102,-0.441902 -0.01429,6.9539532 c -0.01096,5.3297972 0.0013,6.9636272 0.05271,6.9953672 0.06334,0.03914 1.787555,0.667904 2.058323,0.750595 l 0.126649,0.03868 V 12.759687 7.9722706 l 0.156704,-0.175381 c 0.119033,-0.133222 0.203604,-0.175096 0.351802,-0.174191 0.107305,6.69e-4 0.752353,0.20764 1.433442,0.459965 1.261135,0.467217 2.467068,0.909783 3.377302,1.239438 0.278627,0.100909 0.576117,0.247965 0.661087,0.3267892 l 0.154493,0.143318 0.01437,5.0049012 0.01437,5.004902 1.013191,0.362601 c 0.557255,0.199432 1.165169,0.423699 1.35092,0.498371 0.185752,0.07467 0.356728,0.137004 0.379947,0.138513 0.02322,0.0015 0.04221,-3.134706 0.04221,-6.969365 z m -3.883896,1.068723 c 0,-3.485181 -0.01513,-4.451661 -0.07036,-4.494643 -0.0387,-0.03012 -0.361653,-0.158189 -0.717676,-0.284607 -0.356024,-0.1264182 -1.204571,-0.4341402 -1.88566,-0.6838254 -0.681089,-0.249685 -1.244677,-0.454001 -1.252416,-0.454033 -0.0077,-3.4e-5 -0.01408,2.0219664 -0.01408,4.4933334 v 4.493394 l 0.464379,0.175354 c 0.255408,0.09644 1.059628,0.388768 1.787155,0.649606 0.727527,0.260839 1.360771,0.488241 1.407209,0.505337 0.04644,0.01709 0.128759,0.03308 0.182937,0.03553 0.09302,0.0042 0.0985,-0.242813 0.0985,-4.435444 z"
       id="path916" />
    <text
       xml:space="preserve"
       style="font-size:22.3652px;line-height:1.25;font-family:'Franklin Gothic Medium';-inkscape-font-specification:'Franklin Gothic Medium, ';stroke-width:1.19813;fill:#ffffff;"
       x="26.496847"
       y="39.102177"
       id="text920"><tspan
         sodipodi:role="line"
         id="tspan918"
         x="26.496847"
         y="39.102177"
         style="stroke-width:1.19813;fill:#ffffff;">3</tspan></text>
  </g>
</svg>
