<?xml version="1.0" encoding="UTF-8" standalone="no"?>
<svg
   xmlns:dc="http://purl.org/dc/elements/1.1/"
   xmlns:cc="http://creativecommons.org/ns#"
   xmlns:rdf="http://www.w3.org/1999/02/22-rdf-syntax-ns#"
   xmlns:svg="http://www.w3.org/2000/svg"
   xmlns="http://www.w3.org/2000/svg"
   xmlns:sodipodi="http://sodipodi.sourceforge.net/DTD/sodipodi-0.dtd"
   xmlns:inkscape="http://www.inkscape.org/namespaces/inkscape"
   width="100mm"
   height="80mm"
   viewBox="0 0 100 80"
   version="1.1"
   id="svg8"
   inkscape:version="1.0.1 (3bc2e813f5, 2020-09-07)"
   sodipodi:docname="sprzedaz.svg">
  <defs
     id="defs2" />
  <sodipodi:namedview
     id="base"
     pagecolor="#ffffff"
     bordercolor="#666666"
     borderopacity="1.0"
     inkscape:pageopacity="0.0"
     inkscape:pageshadow="2"
     inkscape:zoom="0.98994949"
     inkscape:cx="336.59913"
     inkscape:cy="205.02495"
     inkscape:document-units="mm"
     inkscape:current-layer="layer1"
     inkscape:document-rotation="0"
     showgrid="false"
     inkscape:window-width="1346"
     inkscape:window-height="967"
     inkscape:window-x="26"
     inkscape:window-y="26"
     inkscape:window-maximized="0" />
  <metadata
     id="metadata5">
    <rdf:RDF>
      <cc:Work
         rdf:about="">
        <dc:format>image/svg+xml</dc:format>
        <dc:type
           rdf:resource="http://purl.org/dc/dcmitype/StillImage" />
        <dc:title></dc:title>
      </cc:Work>
    </rdf:RDF>
  </metadata>
  <g
     inkscape:label="Layer 1"
     inkscape:groupmode="layer"
     id="layer1">
    <text
       xml:space="preserve"
       style="font-size:8.79467px;line-height:1.25;font-family:'Franklin Gothic Medium';-inkscape-font-specification:'Franklin Gothic Medium, ';fill:#ffffff;stroke-width:0.471141;"
       x="8.723876"
       y="66.714569"
       id="text887"><tspan
         sodipodi:role="line"
         x="8.723876"
         y="66.714569"
         style="fill:#ffffff;stroke-width:0.471141;"
         id="tspan889">Rozpoczęcie sprzedaży</tspan><tspan
         sodipodi:role="line"
         x="8.723876"
         y="77.707909"
         style="fill:#ffffff;stroke-width:0.471141;"
         id="tspan909">33 XI 2022</tspan></text>
    <path
       style="fill:#ffffff;stroke-width:0.396703"
       d="M 45.604869,51.21022 C 44.950309,50.923455 42.272559,49.009091 39.654315,46.956073 26.777808,36.859361 26.44875,36.628744 25.639636,37.134044 c -0.615197,0.384197 -1.522716,0.259334 -4.831448,-0.664743 -4.256344,-1.188728 -5.318542,-1.807134 -4.977077,-2.897627 0.199724,-0.637832 2.027259,-7.216925 5.397467,-19.430787 0.923303,-3.346113 1.911655,-6.1732229 2.196337,-6.2824657 0.493107,-0.1892228 6.907818,1.4539155 8.791208,2.2518837 0.49092,0.207997 0.892583,0.649778 0.892583,0.981735 0,0.720442 -0.168282,0.713525 4.003134,0.164525 2.130167,-0.280352 3.62265,-0.694323 4.129289,-1.145343 0.436374,-0.3884692 1.596732,-1.1134982 2.578574,-1.6111802 2.772575,-1.405374 6.233791,-1.1871118 15.058853,0.949607 6.178968,1.4960472 7.387598,1.6855452 7.73572,1.2128612 0.481825,-0.654223 8.751968,-3.0916435 9.506931,-2.8019356 0.281593,0.1080583 1.267177,2.9341996 2.190163,6.2803126 0.922987,3.346112 2.540608,9.18627 3.594697,12.978126 1.054105,3.791857 1.823437,7.136931 1.709622,7.433498 -0.190418,0.496234 -2.507307,1.311607 -7.405526,2.606194 -1.823666,0.481991 -1.961968,0.462216 -2.642161,-0.377784 -0.954734,-1.17905 -2.772454,-1.214011 -2.772454,-0.05332 0,1.194598 -2.467302,3.530662 -3.729013,3.530662 -0.837331,0 -1.03143,0.187731 -1.03143,0.997587 0,0.582772 -0.564664,1.613737 -1.35798,2.479397 -1.189194,1.297633 -1.583653,1.48181 -3.173629,1.48181 -1.25978,0 -1.815648,0.163962 -1.815648,0.535551 0,0.294552 -0.629244,1.164793 -1.398317,1.933866 -1.294353,1.294353 -1.537688,1.383461 -3.272805,1.198474 -1.03097,-0.109918 -2.142263,-0.310993 -2.469543,-0.446847 -0.396168,-0.164446 -0.824087,0.156487 -1.280298,0.960213 -0.634375,1.117601 -2.773184,2.385156 -3.963284,2.348827 -0.279742,-0.0085 -1.04417,-0.250154 -1.698732,-0.53692 z m 3.292641,-2.700524 c 0.261824,-0.261824 0.476044,-0.971114 0.476044,-1.576194 0,-0.91952 -0.581546,-1.541551 -3.541948,-3.788519 -3.694214,-2.803941 -4.120058,-3.290438 -3.742175,-4.275184 0.453332,-1.181368 1.782913,-0.530485 6.574946,3.218705 5.97646,4.675864 6.300943,4.843352 7.659193,3.95339 1.962806,-1.286076 1.300815,-2.366813 -3.974739,-6.488965 -3.48089,-2.719858 -4.760443,-3.951345 -4.760443,-4.581617 0,-1.860945 1.526243,-1.175468 7.316368,3.28598 3.51412,2.707725 6.040384,4.381191 6.613846,4.381191 1.251502,0 2.344162,-1.647249 1.785313,-2.691466 -0.388737,-0.726361 -3.162548,-3.05609 -8.04499,-6.756995 -1.235879,-0.9368 -2.344021,-1.955974 -2.462541,-2.264832 -0.204379,-0.532604 0.691413,-1.782583 1.266773,-1.767639 0.148046,0.0039 2.768425,1.964383 5.823042,4.356749 3.237185,2.535351 5.922357,4.352673 6.43729,4.356747 1.081426,0.0085 2.25121,-1.64284 1.914721,-2.703029 -0.133608,-0.420943 -3.564191,-3.330578 -7.623532,-6.465857 -4.059337,-3.135279 -8.238572,-6.369944 -9.287188,-7.188145 -1.048614,-0.818203 -2.059516,-1.487639 -2.246448,-1.487639 -0.186932,0 -1.045543,0.729193 -1.908024,1.620429 -2.22799,2.302269 -4.054334,3.140014 -6.845449,3.140014 -1.665916,0 -2.823989,-0.259309 -4.047414,-0.90627 -2.788606,-1.47465 -2.796997,-1.680324 -0.246294,-6.03707 1.245371,-2.127164 2.19026,-3.941624 2.099751,-4.032133 -0.09052,-0.0905 -1.35471,-0.04263 -2.809338,0.106409 -1.820544,0.18652 -2.749891,0.469728 -2.982064,0.908749 -0.340521,0.643895 -3.257163,10.908019 -4.601495,16.193392 l -0.72772,2.861094 1.143267,0.90759 c 0.628795,0.499175 4.990484,3.890425 9.69264,7.536112 8.523928,6.608789 9.87083,7.362783 11.048608,6.185006 z M 26.086286,27.365394 c 1.012469,-3.709179 2.356581,-8.618386 2.986916,-10.90935 l 1.146062,-4.165388 -2.216451,-0.705826 c -1.219046,-0.388203 -2.46988,-0.655978 -2.779629,-0.595055 -0.357597,0.07034 -1.027824,1.84852 -1.836041,4.871214 -0.700073,2.618244 -2.031616,7.499323 -2.958985,10.846843 -0.931997,3.364224 -1.533969,6.234963 -1.345925,6.418568 0.488976,0.477434 4.660233,1.513177 4.933569,1.225029 0.12629,-0.133143 1.058015,-3.276857 2.070484,-6.986035 z m 54.371992,5.75702 c 0.187509,-0.180877 -0.41661,-3.06008 -1.345924,-6.414582 -0.927364,-3.34752 -2.258909,-8.228599 -2.958986,-10.846843 -0.808213,-3.022694 -1.478439,-4.800879 -1.836036,-4.871214 -0.30975,-0.06092 -1.560585,0.206852 -2.779631,0.595055 l -2.216451,0.705826 1.144555,4.165388 c 0.629504,2.290964 1.952495,7.110912 2.939982,10.710997 0.987482,3.600086 1.864245,6.754683 1.948362,7.010216 0.1138,0.345711 0.742918,0.312181 2.458432,-0.131029 1.268032,-0.327598 2.458593,-0.743314 2.645697,-0.923814 z m -8.333106,0.09038 c 0.189223,-0.306166 -1.977297,-8.734818 -3.991871,-15.529998 l -1.106437,-3.732039 -8.529127,-1.93861 C 45.34918,9.0235758 44.083608,9.3477008 39.57483,16.858484 c -1.373389,2.287809 -2.497525,4.286373 -2.49808,4.441255 -5.54e-4,0.154882 0.695838,0.490384 1.54754,0.74556 2.393717,0.717175 4.302169,0.168827 6.273551,-1.802552 1.90542,-1.905422 2.049295,-2.38109 0.90538,-2.993295 -0.958822,-0.513147 -1.055623,-2.194714 -0.146426,-2.543608 0.73921,-0.28366 -0.03721,-0.839019 13.832698,9.894257 11.808909,9.138364 12.162035,9.379063 12.635676,8.612696 z"
       id="path905" />
  </g>
</svg>
