<?xml version="1.0" encoding="UTF-8" standalone="no"?>
<svg
   xmlns:dc="http://purl.org/dc/elements/1.1/"
   xmlns:cc="http://creativecommons.org/ns#"
   xmlns:rdf="http://www.w3.org/1999/02/22-rdf-syntax-ns#"
   xmlns:svg="http://www.w3.org/2000/svg"
   xmlns="http://www.w3.org/2000/svg"
   xmlns:sodipodi="http://sodipodi.sourceforge.net/DTD/sodipodi-0.dtd"
   xmlns:inkscape="http://www.inkscape.org/namespaces/inkscape"
   width="40mm"
   height="40mm"
   viewBox="0 0 40 40"
   version="1.1"
   id="svg8"
   inkscape:version="1.0.1 (3bc2e813f5, 2020-09-07)"
   sodipodi:docname="taras.svg">
  <defs
     id="defs2" />
  <sodipodi:namedview
     id="base"
     pagecolor="#ffffff"
     bordercolor="#666666"
     borderopacity="1.0"
     inkscape:pageopacity="0.0"
     inkscape:pageshadow="2"
     inkscape:zoom="2.8"
     inkscape:cx="76.818078"
     inkscape:cy="104.70829"
     inkscape:document-units="mm"
     inkscape:current-layer="layer1"
     inkscape:document-rotation="0"
     showgrid="false"
     inkscape:window-width="1920"
     inkscape:window-height="1137"
     inkscape:window-x="-8"
     inkscape:window-y="-8"
     inkscape:window-maximized="1" />
  <metadata
     id="metadata5">
    <rdf:RDF>
      <cc:Work
         rdf:about="">
        <dc:format>image/svg+xml</dc:format>
        <dc:type
           rdf:resource="http://purl.org/dc/dcmitype/StillImage" />
        <dc:title></dc:title>
      </cc:Work>
    </rdf:RDF>
  </metadata>
  <g
     inkscape:label="Layer 1"
     inkscape:groupmode="layer"
     id="layer1">
    <path
       style="fill:#ffffff;stroke-width:0.191967"
       d="m 18.636703,26.028227 c -0.475166,-0.206825 -0.943358,-0.855237 -2.287881,-3.168554 -0.929752,-1.599684 -1.74346,-2.941274 -1.808243,-2.981311 -0.06478,-0.04004 -0.794899,0.738132 -1.622485,1.729267 l -1.504699,1.802063 -0.672293,-0.280901 c -0.369761,-0.154495 -0.71182,-0.280902 -0.7601306,-0.280902 -0.048314,0 0.6683346,-0.928639 1.5925456,-2.063645 0.924212,-1.135004 1.762015,-2.171244 1.861787,-2.302755 0.128178,-0.168956 -0.14915,-0.593742 -0.94521,-1.447786 C 9.9652162,14.324914 7.1703592,9.2227355 5.4814886,4.2390766 5.1795939,3.3482214 4.9325896,2.5491591 4.9325896,2.4633831 c 0,-0.085776 0.1943661,-0.1538154 0.4319253,-0.1511984 0.3626408,0.00399 0.8507558,0.7499306 3.0429424,4.6502117 l 2.6110167,4.6454526 5.019669,1.249118 5.019669,1.249119 v 1.111121 1.111121 l 0.527909,-0.12775 c 1.350393,-0.326784 1.39176,-0.371058 1.39176,-1.489539 V 13.667463 L 18.034332,12.473187 C 15.13696,11.773175 12.96078,11.150423 12.776092,10.968449 12.418149,10.615767 7.8120937,2.7300845 7.8120937,2.4699602 c 0,-0.094665 2.0004941,-0.1467631 4.5317223,-0.1180163 l 4.531721,0.051463 0.647324,1.8132955 c 1.502341,4.2083879 4.261317,7.8373707 8.238141,10.8359287 l 0.959835,0.723724 1.39543,-1.455375 c 1.219443,-1.271827 1.963991,-1.771088 1.963991,-1.316966 0,0.07612 -0.477207,0.620648 -1.06046,1.210051 l -1.060462,1.071643 0.760366,1.061839 c 0.662848,0.925655 0.946013,1.139766 2.207883,1.669453 0.796132,0.334187 1.54097,0.607614 1.655192,0.607614 0.410291,0 -0.0233,0.357021 -0.58285,0.479917 -0.845941,0.1858 -0.876488,0.419294 -0.181476,1.387083 0.60002,0.83551 0.612436,0.887286 0.272401,1.135926 -0.569382,0.416341 -0.783522,0.318505 -1.530677,-0.699323 -0.387521,-0.527909 -0.805207,-0.959178 -0.928193,-0.958376 -0.122985,7.98e-4 -1.905632,0.562308 -3.961441,1.247786 -2.055806,0.685479 -3.939623,1.246326 -4.186256,1.246326 -0.246635,0 -0.834751,-0.09728 -1.306926,-0.216172 -0.812209,-0.204518 -0.915126,-0.311065 -1.908692,-1.97602 -0.577607,-0.967915 -1.050194,-1.846823 -1.050194,-1.953127 0,-0.106305 0.445862,-0.693528 0.990806,-1.30494 0.781948,-0.877326 0.933695,-1.147812 0.719876,-1.283166 -0.405375,-0.256614 -0.969152,-0.212308 -1.209601,0.09506 -0.117222,0.149845 -0.712782,0.875728 -1.323467,1.613074 l -1.110336,1.340629 1.799995,3.042123 c 0.989998,1.673169 1.994896,3.36607 2.233108,3.762002 0.479354,0.796734 0.338054,0.888872 -0.682151,0.444808 z M 15.484889,15.841096 c 0.01392,-0.601199 -0.748184,-1.357114 -1.596705,-1.583727 -1.516502,-0.405009 -1.528396,-0.368813 -0.464004,1.412148 l 0.987383,1.652108 0.534439,-0.644281 c 0.293942,-0.354355 0.536441,-0.730666 0.538887,-0.836248 z M 24.85628,13.20155 c -0.487177,-0.659886 -0.859825,-1.226013 -0.828106,-1.258059 0.06514,-0.06581 3.38598,0.495627 3.478436,0.588084 0.08736,0.08736 -1.462703,1.869769 -1.626042,1.869769 -0.07618,0 -0.53711,-0.539907 -1.024288,-1.199794 z m 7.716609,-0.575901 c -0.0015,-0.34314 -0.06641,-0.720338 -0.143975,-0.838217 -0.07757,-0.117878 -2.257472,-0.581295 -4.844226,-1.029815 C 24.997933,10.309097 22.728136,9.8440399 22.540694,9.7241567 22.353252,9.6042729 21.074101,7.9080622 19.698138,5.9547982 17.288915,2.5347636 17.214973,2.401122 17.698955,2.3415475 c 0.661491,-0.081425 0.756242,0.010121 2.502341,2.4176312 0.821521,1.132709 1.947784,2.6734321 2.502807,3.4238293 l 1.009132,1.3643575 2.655602,0.4223851 c 1.460581,0.2323114 3.692224,0.6124314 4.959206,0.8447104 l 2.303603,0.422326 0.05906,0.814955 c 0.05273,0.727721 0.0052,0.835446 -0.444423,1.006378 -0.68543,0.2606 -0.670079,0.270457 -0.673391,-0.432471 z"
       id="path892" />
    <text
       xml:space="preserve"
       style="font-size:11.2354px;line-height:1.25;font-family:'Franklin Gothic Medium';-inkscape-font-specification:'Franklin Gothic Medium, ';stroke-width:0.601899;fill:#ffffff;"
       x="4.3104591"
       y="38.399822"
       id="text896"><tspan
         sodipodi:role="line"
         id="tspan894"
         x="4.3104591"
         y="38.399822"
         style="stroke-width:0.601899;fill:#ffffff;">7.5 m</tspan></text>
    <text
       xml:space="preserve"
       style="font-size:5.26888px;line-height:1.25;font-family:'Franklin Gothic Medium';-inkscape-font-specification:'Franklin Gothic Medium, ';stroke-width:0.28226;fill:#ffffff;"
       x="33.746773"
       y="33.41497"
       id="text900"><tspan
         sodipodi:role="line"
         id="tspan898"
         x="33.746773"
         y="33.41497"
         style="stroke-width:0.28226;fill:#ffffff;">2</tspan></text>
  </g>
</svg>
