<?xml version="1.0" encoding="UTF-8" standalone="no"?>
<svg
   xmlns:dc="http://purl.org/dc/elements/1.1/"
   xmlns:cc="http://creativecommons.org/ns#"
   xmlns:rdf="http://www.w3.org/1999/02/22-rdf-syntax-ns#"
   xmlns:svg="http://www.w3.org/2000/svg"
   xmlns="http://www.w3.org/2000/svg"
   xmlns:sodipodi="http://sodipodi.sourceforge.net/DTD/sodipodi-0.dtd"
   xmlns:inkscape="http://www.inkscape.org/namespaces/inkscape"
   width="40mm"
   height="50mm"
   viewBox="0 0 40 50"
   version="1.1"
   id="svg8"
   inkscape:version="1.0.2 (1.0.2+r75+1)"
   sodipodi:docname="windows.svg">
  <defs
     id="defs2" />
  <sodipodi:namedview
     id="base"
     pagecolor="#ffffff"
     bordercolor="#666666"
     borderopacity="1.0"
     inkscape:pageopacity="0.0"
     inkscape:pageshadow="2"
     inkscape:zoom="1.0630259"
     inkscape:cx="-45.595228"
     inkscape:cy="210.13337"
     inkscape:document-units="mm"
     inkscape:current-layer="layer1"
     inkscape:document-rotation="0"
     showgrid="false"
     inkscape:window-width="1848"
     inkscape:window-height="1016"
     inkscape:window-x="72"
     inkscape:window-y="27"
     inkscape:window-maximized="1" />
  <metadata
     id="metadata5">
    <rdf:RDF>
      <cc:Work
         rdf:about="">
        <dc:format>image/svg+xml</dc:format>
        <dc:type
           rdf:resource="http://purl.org/dc/dcmitype/StillImage" />
        <dc:title></dc:title>
      </cc:Work>
    </rdf:RDF>
  </metadata>
  <g
     inkscape:label="Layer 1"
     inkscape:groupmode="layer"
     id="layer1">
    <path
       style="fill:#000000;stroke-width:0.0676488"
       d="M 2.505184,36.322678 V 25.50608 l -0.2504316,0.06137 c -0.1377366,0.03376 -0.2611837,0.07868 -0.2743268,0.09984 -0.013142,0.02116 -0.044507,0.945183 -0.069696,2.053407 -0.025189,1.108223 -0.062631,2.043514 -0.083195,2.078425 -0.020569,0.03491 -0.1137597,0.08862 -0.2070947,0.119351 l -0.1697002,0.05588 v -2.90928 -2.909277 l 0.1186254,-0.04595 c 0.065246,-0.02528 0.3024944,-0.09346 0.5272233,-0.151521 l 0.4085979,-0.10556 V 14.012741 4.1727205 H 3.2373128 3.9694395 L 4.4631064,4.5542763 C 4.734623,4.7641325 6.0803405,5.7994276 7.4535894,6.8549325 L 9.9504058,8.7740329 20.396917,8.7519052 30.843429,8.7297775 33.779205,6.4512478 36.714981,4.1727182 h 0.741605 0.741605 v 9.8380278 9.838027 l 0.382237,0.108544 c 0.21023,0.0597 0.435618,0.128777 0.500862,0.153513 l 0.118625,0.04498 v 2.905324 2.905326 l -0.171348,-0.06044 c -0.09424,-0.03324 -0.179631,-0.07277 -0.189756,-0.08784 -0.01013,-0.01507 -0.04196,-0.957727 -0.07074,-2.094788 -0.02878,-1.137062 -0.05609,-2.072146 -0.06068,-2.077964 -0.0046,-0.0059 -0.121036,-0.0375 -0.258774,-0.07042 l -0.250431,-0.05984 V 36.32723 47.13929 H 37.456894 36.715599 L 35.47928,45.924071 c -0.679977,-0.668369 -1.247945,-1.215215 -1.262153,-1.215215 -0.01421,0 -0.02584,0.273496 -0.02584,0.607772 V 45.9244 L 20.443949,45.902529 6.6966052,45.880659 6.6812104,45.20795 c -0.01494,-0.652577 -0.040669,-0.757822 -0.1454055,-0.594701 -0.027548,0.04291 -0.6157238,0.628813 -1.3070587,1.302017 L 3.9717729,47.139275 H 3.2384785 2.5051847 Z M 3.6520018,25.634293 3.6652927,4.6935181 H 3.2434068 2.8215201 V 25.659644 46.625771 l 0.4085986,-0.02536 0.4085979,-0.02535 z m 34.2298532,0.0217 V 4.6935181 H 37.460077 37.038298 V 25.655993 46.618468 h 0.421779 0.421778 z m -4.11234,19.063381 c 0,-0.380315 -0.01478,-0.433476 -0.144987,-0.521609 -0.1068,-0.07229 -3.616442,-0.09221 -13.325564,-0.07563 l -13.1805781,0.0225 -0.015814,0.499106 -0.015814,0.499106 H 20.428134 33.76951 Z m -0.689998,-0.998555 c -0.01196,-0.01788 -0.547968,-0.486447 -1.191119,-1.041261 l -1.169365,-1.00876 H 20.349385 9.9797397 l -1.1790195,1.003236 c -0.6484607,0.551778 -1.1891682,1.03027 -1.2015728,1.063313 -0.012402,0.03305 5.7204976,0.05015 12.7397846,0.03803 7.019286,-0.01213 12.752549,-0.03668 12.740585,-0.05456 z M 6.3407318,42.368648 6.8811358,41.915103 v -6.198232 -6.198232 l -0.4349594,5.21e-4 c -0.2392274,2.61e-4 -0.6306906,0.0256 -0.869918,0.05626 L 5.141299,29.63117 v 6.895296 6.895296 l 0.3295147,-0.299784 c 0.1812328,-0.164882 0.572696,-0.503881 0.8699181,-0.75333 z M 35.562073,36.46273 v -6.85729 l -0.171347,-0.009 c -0.09424,-0.005 -0.48574,-0.03427 -0.869998,-0.0651 l -0.698649,-0.05605 1.05e-4,6.22202 5.3e-5,6.22202 0.804016,0.698096 c 0.442208,0.383952 0.833671,0.699121 0.869918,0.70037 0.05218,0.0018 0.0659,-1.425837 0.0659,-6.855016 z M 8.398647,40.603918 8.9900285,40.101245 V 34.723141 29.345037 H 8.6019697 c -0.2134323,0 -0.4981325,0.02484 -0.6326679,0.0552 l -0.2446092,0.0552 v 5.854512 c 0,3.21998 0.018579,5.841491 0.041287,5.825577 0.022708,-0.01591 0.3074084,-0.255137 0.6326679,-0.531606 z M 32.900694,29.448111 c -0.01431,-0.02356 -0.3229,-0.06166 -0.685764,-0.08467 l -0.659752,-0.04184 3.16e-4,5.328289 3.16e-4,5.328289 0.671911,0.581422 0.67191,0.581424 0.01355,-5.825044 c 0.0075,-3.203774 0.0018,-5.844313 -0.01246,-5.867867 z m -2.663574,8.403437 v -1.64922 h -0.131806 c -0.07249,0 -0.132503,-0.03906 -0.133356,-0.0868 -8.53e-4,-0.04774 -0.0016,-0.653179 -0.0016,-1.345418 0,-0.692239 6.97e-4,-1.297677 0.0016,-1.345418 8.53e-4,-0.04774 0.06098,-0.0868 0.133618,-0.0868 h 0.132069 l -0.01344,-8.39801 -0.01344,-8.398011 -0.116018,-0.02717 c -0.112915,-0.02645 -0.116441,-0.06243 -0.131806,-1.345418 -0.0087,-0.725033 -0.0073,-1.367069 0.0031,-1.426744 0.01035,-0.05968 0.07559,-0.108497 0.144986,-0.108497 h 0.126165 V 12.288617 10.9432 h -9.885433 -9.885434 v 1.388818 c 0,0.76385 0.0178,1.384193 0.03955,1.378539 0.223165,-0.05802 0.224073,-0.05234 0.224073,1.399097 v 1.388819 h -0.131806 -0.131806 v 8.41971 8.419711 h 0.131806 0.131806 v 1.432218 1.43222 h -0.131806 -0.131806 v 1.649221 1.649222 h 9.885433 9.885434 z M 6.4777633,28.073683 6.8811358,28.017551 V 23.127678 18.237803 L 6.7625104,18.192775 C 6.3465101,18.034891 5.3181102,17.620774 5.2377648,17.57879 5.1450112,17.530322 5.141299,17.732351 5.141299,22.829101 v 5.300718 h 0.4665463 c 0.2566008,0 0.6480641,-0.02526 0.869918,-0.05613 z M 35.562073,22.892819 c 0,-2.880352 -0.01219,-5.257066 -0.02708,-5.281589 -0.0218,-0.03589 -0.666796,0.197963 -1.59413,0.57796 l -0.118626,0.04861 v 4.898075 4.898074 l 0.276793,0.03187 c 0.152236,0.01753 0.543699,0.03911 0.869918,0.04794 l 0.593125,0.01605 z m -26.7697531,5.007687 0.1977086,-0.0538 V 23.451174 19.055645 L 8.4232636,18.850243 C 8.1115431,18.737276 7.8268422,18.626452 7.7905957,18.603981 c -0.052218,-0.03238 -0.0659,0.934525 -0.0659,4.655688 v 4.696548 l 0.4349594,-9.55e-4 c 0.2392274,-5.21e-4 0.5239283,-0.02517 0.632668,-0.05475 z M 32.925958,23.25967 c 0,-3.7214 -0.01368,-4.687972 -0.0659,-4.655244 -0.03625,0.02271 -0.344672,0.147897 -0.68539,0.278176 l -0.619488,0.236873 v 4.369471 4.369472 l 0.171348,0.03501 c 0.09424,0.01925 0.402667,0.04126 0.68539,0.0489 l 0.514043,0.01389 z M 8.9885558,14.002935 8.9870632,10.378988 8.4335843,9.9630938 C 8.1291703,9.7343524 7.8451326,9.5251059 7.8023891,9.498101 7.7346409,9.4552966 7.7246713,9.9398053 7.7246713,13.275885 v 3.826884 l 0.1449869,0.05476 c 0.1355369,0.05121 1.0782238,0.444091 1.1071682,0.461444 0.00725,0.0043 0.012516,-1.622875 0.011706,-3.616047 z m 23.2956632,3.369344 c 0.32848,-0.13794 0.607501,-0.267702 0.620047,-0.288358 0.01255,-0.02065 0.01663,-1.741868 0.0091,-3.824913 l -0.01374,-3.7873561 -0.659029,0.5029597 -0.659029,0.5029584 -0.01377,3.574657 c -0.0109,2.8314 5.3e-5,3.574261 0.05272,3.572756 0.03657,-0.001 0.335244,-0.114757 0.663724,-0.252704 z M 6.8684817,12.756054 6.8547714,8.7532368 6.0176571,8.1121937 C 5.5572438,7.7596192 5.1714907,7.4711495 5.1604272,7.4711495 c -0.011066,0 -0.013959,1.9422344 -0.00647,4.3160755 l 0.013675,4.316076 0.7908349,0.318346 c 0.4349587,0.175091 0.8207274,0.322594 0.857264,0.327786 0.05273,0.0075 0.063605,-0.816188 0.052723,-3.993379 z m 27.9291183,3.621827 0.738112,-0.288568 0.01368,-4.309082 c 0.0075,-2.3699948 -0.0043,-4.3079055 -0.02636,-4.3064674 -0.02202,0.0014 -0.407772,0.2867918 -0.857229,0.6341205 l -0.817196,0.6315062 -0.01371,4.0116127 -0.01371,4.011612 0.119152,-0.04808 c 0.06553,-0.02644 0.451303,-0.177939 0.857265,-0.336652 z"
       id="path284" />
  </g>
</svg>
